<svg xmlns="http://www.w3.org/2000/svg" viewBox="0 0 4000 4000"><title>comnkids</title><rect width="4000" height="4000" fill="#fff"/><ellipse cx="1778.82" cy="3662.02" rx="696.1" ry="51.59" opacity="0.11"/><path d="M1621.42,3537.46c-.52,5.45-177.56-1.27-177.81-7.89-2.12-57.57.37-818.45-.24-851.84L1696,2756.62C1689.13,2813.59,1625.11,3498.15,1621.42,3537.46Z" fill="#ffc19f"/><path d="M1637.32,3557.79c-.37,4.23-225.28,4.52-225.92-.8-4.79-39.38-1.35-133.86-3.44-156.71h238.09C1642.35,3443,1639.71,3530.74,1637.32,3557.79Z" fill="#9dcecc"/><path d="M1368.33,3497.44c3-12,9.49-27.26,14.45-41.2,3.68-10.34,104.13-10.65,104.89,14a147.74,147.74,0,0,1-.37,16.95c17.18-.16,35.81-.73,55.47-1.83,42.75-2.39,81-6.62,107.86-11.43,2.5,39,.41,106.59,2.84,149.93,0,0-446.34,92.61-518.21,29C1115,3635,1225.9,3551.41,1368.33,3497.44Z" fill="#2d8f91"/><path d="M1652.55,3596.68c.19,9.64.46,18.94.92,27.19,0,0-446.34,92.61-518.21,29-2.85-2.52-3.06-6.37-1-11.24C1258.41,3666,1541.53,3617.6,1652.55,3596.68Z" fill="#19555b"/><path d="M1398.7,3534.22a6.27,6.27,0,1,0,9.87-7.74c-17.85-22.72-48.4-34.18-74.31-28a6.27,6.27,0,0,0,2.94,12.2C1358.49,3505.44,1383.78,3515.22,1398.7,3534.22Zm-31.37,15.93a6.27,6.27,0,1,0,9-8.79c-20.24-20.6-47.53-30.35-74.89-26.59a6.27,6.27,0,0,0-5.38,7.05,6.13,6.13,0,0,0,7.06,5.37C1316.84,3525.33,1343.46,3525.86,1367.33,3550.15Zm-107-9.89a6.18,6.18,0,0,0,7.35,5c20.77-4.3,48.44,5.39,67,22.85a6.27,6.27,0,1,0,8.58-9.14c-21.34-20-53.35-30.8-78-26A6.26,6.26,0,0,0,1260.36,3540.26Z" fill="#d3dae5"/><path d="M1936.49,3537.46c.52,5.45,177.57-1.27,177.81-7.89,2.12-57.57-.37-818.45.25-851.84l-252.67,78.89C1868.78,2813.59,1932.8,3498.15,1936.49,3537.46Z" fill="#ffc19f"/><path d="M1920.59,3557.79c.37,4.23,225.27,4.52,225.92-.8,4.79-39.38,1.35-133.86,3.44-156.71H1911.87C1915.56,3443,1918.21,3530.74,1920.59,3557.79Z" fill="#9dcecc"/><path d="M2189.58,3497.44c-3-12-9.49-27.26-14.45-41.2-3.68-10.34-104.13-10.65-104.89,14a150.05,150.05,0,0,0,.37,16.95c-17.18-.16-35.81-.73-55.47-1.83-42.75-2.39-81-6.62-107.85-11.43-2.51,39-.42,106.59-2.85,149.93,0,0,446.34,92.61,518.2,29C2442.9,3635,2332,3551.41,2189.58,3497.44Z" fill="#2d8f91"/><path d="M1905.37,3596.68c-.2,9.64-.47,18.94-.93,27.19,0,0,446.34,92.61,518.2,29,2.86-2.52,3.07-6.37,1-11.24C2299.5,3666,2016.38,3617.6,1905.37,3596.68Z" fill="#19555b"/><path d="M2220.71,3510.67a6.27,6.27,0,0,0,2.94-12.2c-25.91-6.17-56.46,5.29-74.3,28a6.27,6.27,0,0,0,1.05,8.81,6.26,6.26,0,0,0,8.81-1.07C2174.13,3515.22,2199.42,3505.44,2220.71,3510.67Zm34.14,16.52a6.12,6.12,0,0,0,7.05-5.37,6.26,6.26,0,0,0-5.37-7.05c-27.37-3.76-54.65,6-74.9,26.59a6.27,6.27,0,0,0,8.94,8.79C2214.46,3525.86,2241.07,3525.33,2254.85,3527.19Zm37.72,5.74c-24.63-4.78-56.64,6-78,26a6.27,6.27,0,0,0,8.59,9.14c18.59-17.46,46.25-27.15,67-22.85a6.17,6.17,0,0,0,7.34-5A6.25,6.25,0,0,0,2292.57,3532.93Z" fill="#d3dae5"/><path d="M2172.91,2971.86c-35.38,9.35-274,17.24-320.48,17.88-9.46-98.26-19.67-144.2-37.86-270.43-5.13-35.61-51.1-37.85-57.91-.79-4.24,23.1-26.73,129.66-45,271.22-75.07,4.08-261-9.93-326-26.06,0,0,43.37-536.49,55.62-680,126.49-14.28,558.13-13.93,694.16,1.87C2149.17,2419.47,2162,2764.77,2172.91,2971.86Z" fill="#dd4e07"/><path d="M1431.63,2504.34c6.26-106.09,11.1-189.54,12.89-224.11,126.49-14.28,554.79-14.15,690.81,1.66,7.45,46.66,12.79,155.46,17.19,288.34C1967,2640.28,1663.08,2612.56,1431.63,2504.34Z" opacity="0.22"/><path d="M2915.76,1531.51c-8-14.78-41.36,4.84-54.94,32.74s-25.34,79.8-10.26,87.14C2868.26,1643.85,2932.1,1561.87,2915.76,1531.51Z" fill="#e0956c"/><path d="M2736,1693c16.34-7.91-29.57-110.59-44.46-105.15-222.5,81.33-464.18,99.93-694.13,114.94,14.61,65.6,29.86,129.74,45.48,195.1C2272.76,1857.58,2522.75,1796.2,2736,1693Z" fill="#ffc19f"/><path d="M2278.2,1640.4c11.2,60.87,25.71,201.4,33,265.2-127.49,27.22-256.87,63.24-266.52,59.5-100.36-38.91-123.61-289-128.38-301.61C1987.54,1661.1,2143.26,1653.62,2278.2,1640.4Z" fill="#fa0"/><path d="M1255.57,2101.17c67.63,28,211,49.82,266.16,51.37,24.89-108.74,99-436,99.8-442.12-99,20.71-188.89,40.95-212.76,49.79C1362.08,1806.28,1309.44,1955.75,1255.57,2101.17Z" fill="#fa0"/><path d="M1408.81,2516.49c191.69,87.06,578.5,92.45,785.52-36.36,0,0-97.9-652.78-141-789.63-156-25.56-454.54,16.86-590.78,55.36C1461.59,1926.45,1424.67,2255.06,1408.81,2516.49Z" fill="#fa0"/><path d="M1922.05,1703.47c-.7-9.07-7.71-29.74-10.93-38-93,17.79-228.23,32.36-326.44,52.45-.28,4-1.48,7.82-1.17,11.88,5.45,70.12,85.65,121.08,179.14,113.82S1927.5,1773.59,1922.05,1703.47Z" fill="#dd4e07"/><path d="M1876.73,1523.84l4.41,206.49c.95,44.39-54.71,81.6-124.32,83.09s-126.81-33.31-127.76-77.71l-4.41-206.48Z" fill="#ffc19f"/><path d="M1984.65,1558c-.81-10.38-3.77-20.11-7.45-29.6-106.89,5.86-266.4,23.12-378.84,46.12-.32,4.55-1.7,9-1.34,13.6,6.24,80.29,98.06,138.64,205.1,130.32S1990.88,1638.34,1984.65,1558Z" fill="#601805" opacity="0.19"/><path d="M2685.9,1574c-11.2-85.42-59-151.23-138.82-138a92.5,92.5,0,0,0-21.62,6.4A147.22,147.22,0,0,0,2510,1448c-28.47,12-64.87,30.36-103.6,19.71,5.32,10.34,7.35,20.5,5.65,27.7-3.43,14.49-26,33.1-91.52,40.08-48,5.13-109.59-17.13-85.39-61.59-2.51-3.62-29.37,5.09-33.18,5.62-21.81,3-57.21-8.75-72.35-7.53-19.55-3.51-41.7-3.31-66.79,1.3-97.87,18-150.27,151.55-142.32,254,7.75,99.94,68.72,149.78,87,170.08,66.54,28.66,145.64-6.64,175.93-25.35,33.45-20.65,59.41-14.34,58.2-25-1.89-16.62-2.39-40.34,8.52-51.42,15.28-15.52,70.31-45.35,120.53-38.26,26.11,3.69,38.42,36.27,38.36,53,48.18-38.68,161.13,17.56,260.1-85.49C2684.88,1708.45,2694.42,1639,2685.9,1574Z" fill="#9e472d"/><path d="M2121.65,1573.57c.61,4.65-2.26,8.92-6.41,9.53s-8-2.68-8.6-7.33,2.26-8.92,6.4-9.52S2121,1568.92,2121.65,1573.57Z"/><path d="M2678.63,1512.34c-11.19-85.42-59-151.24-138.82-138a92.64,92.64,0,0,0-21.62,6.4,144.9,144.9,0,0,0-15.46,5.61c-28.47,12-61.83,23.3-103.6,19.71,5.32,10.34,7.35,20.5,5.64,27.7-3.42,14.49-26,33.09-91.51,40.08-48,5.12-109.6-17.13-85.4-61.59-7,.9-26.26,4.43-44.35,5.21-39,1.68-70.72-24.35-128-5.83-111.84,36.21-154.1,158.5-147.5,261.13,10,155,61.79,196.61,160.18,182.18,31-4.56,56.45-22,87.23-39.75,30.53-17.64,60.7-14,60.2-21-1.31-18.09-.5-39.55,18.63-59.58,23.41-24.52,96.4-51.63,145.7-38.67,25.32,6.65,31.39,33.13,31.71,48.31,43.24-26.65,88.91-7,118.22-10.59,65.12-8,106.45-39.9,121.81-67.44C2672.81,1628.45,2687.15,1577.34,2678.63,1512.34Z" fill="#e2814b"/><path d="M2121.65,1573.57c.61,4.65-2.26,8.92-6.41,9.53s-8-2.68-8.6-7.33,2.26-8.92,6.4-9.52S2121,1568.92,2121.65,1573.57Z"/><path d="M3121.74,1485.33c.21,2.64.88,7.49,1.62,12.49.78,5.32,1.67,11.34,1.88,14.52.33,4.79,4.19,8.41,8.64,8.08,4.62-.25,7.79-4.48,7.46-9.27-.26-3.91-1.16-10-2-16-.66-4.51-1.29-8.77-1.49-11.15l-.32-1.17c7.66-4.17,12.42-12.33,11.29-20.95-1.47-11.27-12.38-19-24.38-17.22s-20.52,12.3-19.05,23.57A20.36,20.36,0,0,0,3121.74,1485.33Z" fill="#824023"/><path d="M3041.56,1452.23c.21,2.64.89,7.49,1.62,12.49.77,5.32,1.66,11.34,1.89,14.52.32,4.79,4.19,8.4,8.63,8.07,4.63-.27,7.79-4.47,7.46-9.27-.26-3.9-1.16-10-2-16-.66-4.52-1.29-8.78-1.49-11.16l-.32-1.18c7.66-4.15,12.42-12.33,11.29-21-1.47-11.26-12.38-19-24.37-17.22s-20.53,12.31-19.06,23.57A20.35,20.35,0,0,0,3041.56,1452.23Z" fill="#824023"/><path d="M3108.89,1483.48c11.94,9.26,30.05,21,43.73,16.13-6.31-36.81,21.45-47.61,45.77-48.92s62.62,19.93,52.32,56.34c-11,39-60.17,41.07-111.62,38.84-31.62-1.38-69.1-37.56-138.84-26.24-7.79,1.26-26.8,1.71-32.32-13.29-6.13-16.61,2.66-38,14-42.21C3043.09,1441.8,3096.93,1474.22,3108.89,1483.48Z" fill="#9e472d"/><path d="M3170.65,1528.87c-1.87,3.41-5.79,25.12-7.65,28.52-1.56,2.86-83.73-35.45-86.19-33.53-3,2.33-6.8,2.84-10.45,3a60,60,0,0,1-13.84-.68,90,90,0,0,1-15.13-4.48q-31-11.31-61-25.74a7.62,7.62,0,0,1-2.59-1.72,9.1,9.1,0,0,1-1.64-3.92q-3-12.6-4.82-25.48c2.68-1.75,5.41-3.52,8.44-4.33,4.84-1.3,9.6,1.19,14.23,2.66C2995.81,1465,3159.7,1522.46,3170.65,1528.87Z" fill="#824023"/><path d="M2361.7,1492.92c2.29,33.57,6.16,81.68,9,114.67.13,1.46,571.63-78.2,623.89-89.63-1.2-13.71-5.35-54.58-6.79-65.63C2987.51,1450.42,2407,1488.89,2361.7,1492.92Z" fill="#824023"/><path d="M3113.4,1518.1c11.95,9.26,30,21,43.74,16.13-6.32-36.81,21.44-47.61,45.77-48.92s52.16,13.48,48.11,41.94c-6.21,43.46-56,55.47-107.41,53.24-31.62-1.38-69.1-37.56-138.84-26.24-7.79,1.26-26.8,1.71-32.33-13.29-6.12-16.61,5.95-32.15,17.33-36.31C3050.89,1482.32,3101.45,1508.84,3113.4,1518.1Z" fill="#e2814b"/><path d="M3154.18,1558.3c.57,4.43-2.21,8.49-6.22,9.08s-7.73-2.53-8.3-7,2.2-8.48,6.21-9.07S3153.6,1553.88,3154.18,1558.3Z" fill="#b75a3d"/><path d="M3072.62,1531c.7,5.35-2.48,10.22-7.1,10.89s-8.94-3.1-9.63-8.44,2.48-10.22,7.1-10.89S3071.92,1525.66,3072.62,1531Z" fill="#b75a3d"/><path d="M3030.73,1561.88c-.23-2.86-1-8.1-1.75-13.5-.83-5.75-1.79-12.25-2-15.69-.37-5.17-4.4-9.1-9-8.77-4.8.24-8.07,4.79-7.7,10,.3,4.22,1.26,10.84,2.21,17.25.71,4.87,1.39,9.48,1.61,12l.34,1.27a22.66,22.66,0,0,0-11.62,22.55,22.08,22.08,0,0,0,25.41,18.74c12.46-1.81,21.26-13.16,19.67-25.33A21.93,21.93,0,0,0,3030.73,1561.88Z" fill="#824023"/><path d="M2034.72,1529.7c1.29,9.92-7.13,19.34-18.83,21s-22.2-4.94-23.5-14.86,7.13-19.34,18.82-21.05S2033.42,1519.79,2034.72,1529.7Z" fill="#6b3925"/><path d="M2033.86,1515.14c1.67,12.82-6.52,24.6-18.3,26.33s-22.68-7.27-24.35-20.09,6.52-24.6,18.3-26.32S2032.19,1502.33,2033.86,1515.14Z" fill="#705b50"/><path d="M2269.77,1627.4c-5.44.74-10.6-3.69-11.31-9.8-1.08-9.51-12-89.74-13.48-103.36-.68-6.12,3.15-11.62,8.65-12.27s10.41,3.77,11.09,9.89c1.47,13.31,12.38,93.63,13.48,103.26C2278.89,1621.16,2275.14,1626.68,2269.77,1627.4Z" fill="#efcfba"/><path d="M2316.91,1635.2c-3.51-2.31-9.12,5.7-9.77-1.7-.93-3.86,4.63-6.8,9-6.77,8.47.1,15,7.08,10.1,23.76-2.8,9.59-13.24,10.81-18.46,11.8,0,0-89.07,13.63-109.6,22.17-16.83,7-20.11,20.51-19.07,31.67.47,5.11,6.47,23.86,22.09,27.24,10.34,2.23,18.5-3.31,19.33-9,1.19-8.14-1.75-22.07-12.62-20.86-3.93-.73-8.11,5.57-5.11,12.81,1.44,3.48,7,.13,7,4.22,0,3-1.15,4.17-7,3.9-8.28-.4-13.21-7.65-14.73-13a15,15,0,0,1,5.13-16c7.77-5.71,115.88-24.54,115.88-24.54,14.79-3.71,24.1-14.24,26.13-27.84,1.65-11.09-2.2-37-20-35.16-7.21.74-15.21,3.63-15.13,14.07.08,9.77,5.67,19.91,14.6,17.26C2323.39,1645.25,2318.31,1636.12,2316.91,1635.2Z" fill="#6b3925"/><path d="M2116.64,1550c13.92-3.53,16.69,20.27,20.73,43.51,3.62,20.87,7.07,64.45-3.83,65.49-30.19,2.91-87.68-20.94-132.58-18-12.47.8-15.38,3.67-21.85-.18-5.64-3.36-9.28-15-11.95-21.55-.93-2.27-1.86-4.86-1.07-7.16,1.19-3.44,4.33-2.39,7.4-2.84,10.58-1.54,42.83-8,53.11-12C2047.18,1589.09,2104.61,1553,2116.64,1550Z" fill="#824023"/><path d="M1883.45,1660.9c-5.9-32.75,7-63.69,19.76-71.57,37.59-23.23,84.87-11.89,98.22.59a58.8,58.8,0,0,1,11.53,16c15.14,29,15.86,65.32,6.74,96.9-3.61,12.49-8.64,24.38-12.84,36.62a285.51,285.51,0,0,0-11.46,45.31c-1.06,6.3-1.92,12.72-4.13,18.62-3,7.92-8.2,15.16-16.26,13.15s-15.65-6.4-22.58-11.07C1938.22,1795.86,1901.64,1761.84,1883.45,1660.9Z" fill="#47251d"/><path d="M2103.63,1470.62c1.23,9.35-6.72,18.23-17.73,19.84s-20.93-4.66-22.15-14,6.72-18.22,17.73-19.83S2102.42,1461.28,2103.63,1470.62Z" fill="#6b3925"/><path d="M2101.48,1456.51c1.58,12.08-6.14,23.18-17.24,24.8s-21.38-6.84-23-18.92,6.15-23.18,17.25-24.81S2099.91,1444.43,2101.48,1456.51Z" fill="#705b50"/><path d="M2113.3,1573c3.8-.56,6.43-4.48,5.87-8.75s-4.09-7.28-7.89-6.73-6.45,4.48-5.88,8.75S2109.49,1573.52,2113.3,1573Zm1.43,11c-3.8.56-6.43,4.48-5.88,8.75s4.1,7.28,7.9,6.72,6.44-4.47,5.89-8.74S2118.54,1583.46,2114.73,1584Zm3.18,24.31c-3.81.55-6.44,4.47-5.88,8.74s4.09,7.29,7.9,6.73,6.44-4.47,5.88-8.74S2121.71,1607.76,2117.91,1608.32Zm3.2,24.59c-3.8.55-6.43,4.46-5.88,8.74s4.1,7.28,7.9,6.72,6.44-4.47,5.89-8.74S2124.92,1632.35,2121.11,1632.91Z" fill="#261006"/><path d="M2293.81,1516.13c-2.56,2-8.68-2.77-7.95,2.35-.12,2.73,5.08,4,8.72,3.5,7.14-1.11,11.43-6.65,4.44-17.39-4-6.18-13.05-5.73-17.62-5.76,0,0-77.56,1.65-96.37-1.63-15.42-2.69-20.51-11.48-21.56-19.19-.49-3.54,1.35-17,14-21.24,8.35-2.79,16.2,0,17.88,3.75,2.41,5.39,2.33,15.22-7.06,15.73-3.19,1-7.81-2.79-6.53-8.08.62-2.54,5.92-1,5.2-3.73-.54-2.06-1.69-2.7-6.59-1.79a12.21,12.21,0,0,0-10.2,10.62c-.56,5.94,4.69,9.31,7.1,10.25,7.54,2.93,102.06,2.47,102.06,2.47,13.13.71,22.81,6.73,26.87,15.73,3.3,7.33,4.51,25.41-10.85,26.35-6.22.39-13.47-.59-15.2-7.71-1.61-6.65,1.35-14.23,9.35-13.52C2297.55,1508.49,2294.84,1515.33,2293.81,1516.13Z" fill="#6b3925"/><path d="M2112.84,1569.65a3.07,3.07,0,0,0,1.49-.72c7.63-4.59,119.6-46.74,127-47.83l747.13-57.9a3.08,3.08,0,0,0,2.27-3.52c-.16-1.84-1.49-3.24-3-3.12l-746.62,57.85c-1.54.22-127.14,44.63-130.68,49.6a3.92,3.92,0,0,0-.65,2.54C2110,1568.39,2111.34,1569.78,2112.84,1569.65Zm2.77,25.5a3.24,3.24,0,0,0,1.51-.74c7.51-4.53,117.33-46,124.65-47.1l748.59-70.58a3.08,3.08,0,0,0,2.26-3.53c-.15-1.84-1.49-3.23-3-3.13-17.21,1.33-744.58,70.42-748.07,70.55,0,0-124.28,43.22-128.31,48.89a3.83,3.83,0,0,0-.65,2.53C2112.78,1593.87,2114.12,1595.27,2115.61,1595.15Zm876.76-109c-31.82,2.43-740.78,78.46-743.89,78.92-4.28.63-46.45,15.73-68.16,23.63-64.86,23.61-64.82,24.06-64.51,27.6.16,1.83,1.5,3.23,3,3.1a3.33,3.33,0,0,0,1.48-.7c7.17-4.09,122.16-46,129.07-47,3.18-.46,743.73-78.9,743.73-78.9a3.08,3.08,0,0,0,2.26-3.52C2995.19,1487.48,2993.85,1486.08,2992.37,1486.2Zm.64,15.33c-19.74,1.52-742.25,92.92-742.25,92.92-1.83.27-128.78,38.85-132.35,43.85a4,4,0,0,0-.64,2.53c.16,1.84,1.5,3.23,3,3.11l1.43-.67c7.66-4.13,122.61-41.56,128.92-42.15,2.33,0,88.13-10.92,239.57-30.13,204-25.86,483.26-61.29,502.89-62.79,1.72-.09,2.58-1.7,2.42-3.54S2994.5,1501.42,2993,1501.53Z" fill="#261006"/><path d="M3119.54,1579.27c-.24-2.86-1-8.09-1.76-13.5-.83-5.75-1.78-12.25-2-15.68-.37-5.18-4.4-9.11-9-8.78-4.8.27-8.06,4.78-7.69,10,.29,4.22,1.26,10.84,2.2,17.25.72,4.88,1.4,9.48,1.61,12l.34,1.26a22.65,22.65,0,0,0-11.61,22.56,22.09,22.09,0,0,0,25.41,18.74c12.45-1.82,21.25-13.16,19.66-25.33A21.91,21.91,0,0,0,3119.54,1579.27Z" fill="#824023"/><path d="M1750.58,2216.56c10-3,29.31-122.78,19.08-120.68-152.9,31.5-394.61,26.73-439.12,28.55-2.81,62.79-7.52,130.14,75,158.32C1486.19,2310.31,1618.44,2256.27,1750.58,2216.56Z" fill="#ffc19f"/><path d="M1910.25,2201.6c-11,8.4-30.09,2-42.55-14.41s-13.58-36.44-2.53-44.85,30.09-2,42.54,14.41S1921.3,2193.19,1910.25,2201.6Z" fill="#ea8e6e"/><path d="M1870,2221.17l91.89-107.61,1.33-1c4.58-5.24,700.19-866.64,702.57-869.78-3.8-4.43-26.43-.21-43.07-4-18.52-4.25-33.68-18.89-44.17-6.19-.49.59-1.11,1.38-1.71,2.15a12.08,12.08,0,0,0-6.44,4.59c-53.52,77.07-679.46,851.66-784.09,976.82-8.16-5.44-20-3.45-27.43,5.1-8,9.22-8,22.43.15,29.52s21.22,5.37,29.26-3.84a23.56,23.56,0,0,0,1.8-2.47c6.56-7.51,21.3-25.19,42.43-50.87a65.8,65.8,0,0,1,18.28,11.22C1858.52,2211.3,1870,2221.17,1870,2221.17Zm85.67-173.57c-.83-.74-1.6-1.33-2.39-2,203.48-250.33,530.76-656.85,617.24-770.69l38.52,28.44c-139.12,179.15-594,733.7-646.79,797.81a13.45,13.45,0,0,1-3-13.18C1964.06,2071.22,1965.16,2056,1955.68,2047.6Z" fill="#561f14"/><path d="M1959.08,2134.05c-3.28-8.36-22.6-31-39.64-46.23,55,25.37,40.64,66.76,51.33,62.57,11.19-4.4,24.29-28.3,18.41-43.28-4.14-10.56-30.4-42.33-49.45-58.62,44.51,15.41,49.25,57.4,58,50.48,9.46-7.44,12.22-28,4.7-42.24-10.41-19.69-71.91-60.86-87.68-58.32-18.06,2.91-74.56,37-117,72.14-49.33,40.82-95,94.56-70.77,126.34,48.49,63.71,89.53-8.31,122.89-46.16,63.12,20.89,52,47.72,53.2,54.39,11.82-2.2,30.48-25.12,20.69-49.65-2.57-6.41-14.61-21.3-27.79-34.78,47.29,22,33.2,57.85,43.52,53.8C1950.74,2170.09,1964.43,2147.66,1959.08,2134.05Z" fill="#ffc19f"/><path d="M2785.84,1544.77c7.86-16,28.52-50.91,9.53-63.92-7.82-5.35-26.25,26.33-44.26,56.3-6,10-4.13,15-14.07,47.18-3.19-.27-3.21-17.84,3.35-38.4,3.56-11.19,34.31-37.36,12.78-56.75-3.7-3.33-35,34.64-42.24,43.61-11.51,14.32-22.27,43.39-21.84,49.54,1.82,25.84-6.48,112,27.56,119,27.3,2.41,101.39-17.07,145-47.92,16.24-31.69,23.52-54.93,31.72-78.88,8.44-69.11,15.53-101.42,1.92-101.7-32.57-.67-38.31,55.13-44.57,83.21-6.89,21.87-18.69,44.54-25.13,55.27-5.82.16,10.61-36.52,17.25-57.8,4.34-17.84,15.09-81.11,2.88-82.19-32.81-2.93-27.5,27.17-43.47,72.46-7.49,17.5-24.76,48.83-28.09,49.94C2771,1588.73,2775,1578.67,2785.84,1544.77Z" fill="#ffc19f"/><path d="M2321.4,1156.37c7.38,110.06-65.65,205.37-139,219.08s-113.38-65.17-132.2-167.29,25.38-196.29,98.78-209.75C2249.33,980,2314.45,1052.89,2321.4,1156.37Z" fill="#f4b18c"/><path d="M2196.81,841.65c70.82,367.45-139.19,579.35-477.87,644.62s-618.95-52.13-689.77-419.59S1190.29,566,1529,500.73,2126,474.18,2196.81,841.65Z" fill="#aa3900"/><path d="M2112.48,619.22c17.19,20.22,20.24,117,32,178.15,39.26,203.7,69.27,319.6,96.47,412.66,74.48,254.84-172.13,399.9-290.88,433.67-62.57,17.79-485.13,115.61-620.89-210.34-72.23-173.46-175.37-401.48-163.53-472.51C1205.73,721,1263.92,604,1544,550,1805.89,499.56,1977,459.73,2112.48,619.22Z" fill="#ffc19f"/><path d="M1090.41,1463.39c64.73,97.34,207.63,130.71,296.9,95.21s80.88-127.51,33.89-225.48-160-156.59-253.55-135.34C1024.68,1230.26,1029.56,1371.9,1090.41,1463.39Z" fill="#ffc19f"/><path d="M1209,1442.81c35.64,52.54,97.41,64.81,117,45.1,22-22.16,12.62-55.43-13.13-108.73-30.1-62.24-65.57-93-100.63-71.2C1175.7,1330.66,1167,1381,1209,1442.81Z" fill="#e0956c"/><path d="M1630.67,1383.12c1.79,22.4-29.39,43.18-69.63,46.4s-74.3-12.35-76.1-34.76,29.39-43.19,69.62-46.4S1628.87,1360.7,1630.67,1383.12Z" fill="#ff9797"/><path d="M2224.9,1245.82c4.06,18.4-16.78,38.65-46.55,45.23s-57.2-3-61.27-21.4,16.77-38.64,46.54-45.23S2220.83,1227.42,2224.9,1245.82Z" fill="#ff9797"/><path d="M1477.94,1222.87c4.51,56.84,67.31,98.23,140.25,92.43s128.41-56.57,123.9-113.42-67.31-98.23-140.26-92.43S1473.42,1166,1477.94,1222.87Z" fill="#f9feff"/><path d="M1541.2,1302.83c-34.32-15.87-56.09-49.07-58.58-80.34-4.31-54.17,46.07-104.94,116.32-110.49,34.24-2.72,74.51,1.08,122.49,41.1-34.85-47.28-101.75-59.68-151.72-49-49.53,10.56-98.93,46.33-99.65,100.19C1469.45,1251,1503.79,1294.11,1541.2,1302.83Z" fill="#a03518"/><path d="M1537.08,1200.27a73.56,73.56,0,1,0,86-58.48A73.57,73.57,0,0,0,1537.08,1200.27Z" fill="#6d1e06"/><path d="M1540.71,1187.66a20.41,20.41,0,1,0,23.87-16.23A20.42,20.42,0,0,0,1540.71,1187.66Z" fill="#fefffe"/><path d="M2172.5,1089c15.95,54.64-18.61,114.79-77.19,134.34s-119-8.89-135-63.53S1979,1045,2037.54,1025.48,2156.55,1034.36,2172.5,1089Z" fill="#f9feff"/><path d="M2150.78,1185.34c21.2-26.56,26.73-65,18-95.08-15.2-52.07-71.67-82.26-128.07-63.39-27.5,9.18-57.45,26.51-81,80.32,10.86-56.09,58.52-90.58,100.95-97.73,42-7.09,92.62,9.41,111.6,59.47C2188.7,1112.34,2176.83,1164.4,2150.78,1185.34Z" fill="#a03518"/><path d="M1985.67,1113.82c-5.28,39.45,18,78.52,52.09,87.26s65.93-16.16,71.2-55.62-18-78.53-52.09-87.26S1990.94,1074.36,1985.67,1113.82Z" fill="#6d1e06"/><path d="M1988.37,1101.38c-1.46,10.95,5,21.79,14.45,24.22s18.3-4.49,19.76-15.43-5-21.79-14.46-24.22S1989.84,1090.44,1988.37,1101.38Z" fill="#fefffe"/><path d="M2166.87,890.16a14.68,14.68,0,0,1-10.45-1c-42.92-21.46-110.82-12.1-157.87,21.72a14.71,14.71,0,1,1-17.14-23.9c56.2-40.33,135.38-50.56,188.18-24.1a14.7,14.7,0,0,1-2.72,27.32Z" fill="#992805"/><path d="M1456.66,1020.9a15,15,0,0,1-13.18-24.64c39.37-45.31,143.1-71,211.68-54.86a15,15,0,0,1-6.84,29.13C1590.88,957,1498,979,1466.06,1015.85A14.84,14.84,0,0,1,1456.66,1020.9Z" fill="#992805"/><path d="M1942.52,1452c26.22-9,44.29-27.18,49.49-50.71a7.84,7.84,0,0,0-15.31-3.38c-4.79,21.61-24.59,37.46-52.65,42.72-30.76,5.62-71.2-3-92.16-35a7.85,7.85,0,0,0-13.12,8.62c24.91,38,72.24,48.34,108.11,41.78A110.44,110.44,0,0,0,1942.52,1452Z" fill="#994e37"/><path d="M1939.5,1286.07a5.2,5.2,0,0,1-5.85-3.29c-6.34-17.15-22.55-25.9-41.29-22.29s-30.91,18.07-30,35.92a5.19,5.19,0,0,1-10.36.5c-1.11-22.87,14.71-42,38.45-46.61s44.91,7,53,28.86a5.21,5.21,0,0,1-3.06,6.68Z" fill="#c4735b"/><path d="M1053.54,892.65c47.55-113.67,99.24-184.09,165.81-180.16-4.47-11.48-7.81-23.19-8.71-35.3C1201,546.71,1409.75,432.23,1677,421.5s491.87,86.27,501.57,216.76S1979.48,883.19,1712.22,894c-165.57,6.66-314.59-28.1-406.46-86.49,11.72,58.07,39.27,364.58,20.15,445.4-126.84-116.67-208.72-31-223.78-28.14C1048.35,1235.1,998.56,1024.1,1053.54,892.65Z" fill="#aa3900"/><path d="M1013.92,631.83c137.19-58.55,193.85-26.29,256.33,23.8C1193,509.14,1081.9,449.3,1013.92,631.83Zm206-80c8.69-69.25,32.88-130.4,102.08-166.17C1185.78,326.54,1116.35,434,1219.88,551.79Z" fill="#aa3900"/><path d="M1714,1407.22c.8-38.16,59.22-38.26,151.87-54.69,4.85-.85,23.72-4.07,28.58-4.86,92.86-15.18,148-34.42,161.4,1.32,25.77,68.85-50.53,161.84-144.69,178.17l-1.63.28C1815.22,1543.2,1712.43,1480.72,1714,1407.22Z" fill="#701608"/><path d="M1909.27,1529l1.63-.28c30.54-5.31,60.74-19.38,87.46-40.6l1.64-1.27-1.75-1.09c-28.22-17.77-63.25-24.25-98.64-18.22s-66.25,23.73-87,49.86l-1.29,1.61,2,.65C1845.54,1530.83,1878.75,1534.09,1909.27,1529Z" fill="#dd6b5b"/><path d="M1887.71,1397.65c64.81-11,115.35-40.32,117.56-68.14l.12-1.69-251.85,42.9.67,1.56C1765.56,1397.79,1822.94,1408.69,1887.71,1397.65Z" fill="#fff"/><path d="M3081.34,735.48c-19.53-82.32-77.44-78.74-109.49-134.09a18.22,18.22,0,0,0-36,4.07l2.64,218.43c-26.6-10-63.4-8.69-99.76,5.91-59.42,23.84-95.14,74.19-79.79,112.43s76,49.92,135.38,26.08c57.72-23.17,93.1-71.67,81-109.47l-2.13-179.19c24.87,17.91,57.33,18.1,101.81,60.57C3077.79,742.92,3082.24,739.28,3081.34,735.48Z" fill="#05aaa5"/></svg>