<svg xmlns="http://www.w3.org/2000/svg" viewBox="0 0 3341.35 2914.64"><title>MusicGirls</title><path d="M3340,559.58V432.79a10.77,10.77,0,0,0-4.74-8.32A10.3,10.3,0,0,0,3326,423L3165.29,475.7a10,10,0,0,0-6.72,9.9V601.54c-15-5.33-35-4.56-55.24,3.44-33.82,13.37-54.24,41.85-45.64,63.61s43,28.57,76.8,15.2,54.23-41.84,45.62-63.61l-.76-.74V493l139.89-45.91v92.54c-15.07-5.69-35.58-5.06-56.21,3.1-33.81,13.37-54.23,41.85-45.63,63.61s43,28.56,76.79,15.19C3327.15,608.51,3346.94,581.11,3340,559.58Z" fill="#ff395a"/><path d="M2598.77,441c-19.44-64.51-65.3-58.91-93.41-101.39a14.52,14.52,0,0,0-28.46,4.94L2489.39,518c-21.63-6.65-50.82-3.9-79,9.44-46.1,21.78-72.11,63.5-58.08,93.17s62.75,36.08,108.86,14.3c44.78-21.17,70.59-61.13,59.18-90.6l-10.21-142.62c20.63,13.05,46.44,11.66,83.82,43.31C2596.3,447,2599.67,443.93,2598.77,441Z" fill="#fcbc1d"/><path d="M190.21,1100.63c-27.32-44.1-68.31-29.78-100.07-56.25a13.6,13.6,0,0,0-14.58-4.88,13.46,13.46,0,0,0-9.1,16.7l45.41,154.69c-20.9-1.78-46.79,6.46-69.72,24.08-37.47,28.79-52.82,71.68-34.29,95.81s63.93,20.32,101.4-8.46c36.4-28,51.91-69.24,35.79-93.69l-27.89-95.18c25.85,9.62,34.41-5.44,72.29,9.74,2,.82,4-1.89,2.91-3.54-21.31-33.32-46.38-15.05-85-39.71l-3.44-11.72c34.24,14.57,53.41-2.46,82.57,16.44C188.66,1106.1,191.46,1102.65,190.21,1100.63Z" fill="#4bcfdd"/><path d="M2614.5,1618c-12.59-15.78-48,14.63-58.06,50.62s-12.86,100,6.58,105.45C2582.37,1761.35,2640.4,1650.47,2614.5,1618Z" fill="#e0956c"/><path d="M2408.24,1850.07c13.06-2.07-11.72-138.27-25-138-188.41,4.1-515.75,4.39-575.55,5-9.53,121.9,38.74,156.85,57.2,174.17C1947.93,1914.75,2228.41,1878.64,2408.24,1850.07Z" fill="#ffc19f"/><path d="M1261,2818.66c7.36-4.66,168.47,74.88,236.41,90.15,84,18.88,247.09-11.06,210.55-47.1-77.64-76.6-379.76-204-428.53-180.51-90.94,43.88-305.3,98.29-309,171-1.82,36.24,111.57,67.11,164,42.23C1198.22,2864.15,1238.21,2833.06,1261,2818.66Z" opacity="0.11"/><ellipse cx="1319.48" cy="2673.01" rx="445.42" ry="56.32" opacity="0.11"/><path d="M1886.73,2243.9c-38.93-21.79-114.5-36.14-200.74,23.1-52.43,3-711.78,24.35-764.2,21.3-86.24-59.23-162.7-46.38-200.74-23.1-42.83,26.22-95.19,103.24-55.27,192.16,36.7,81.72,276.23,223.25,350.64,226.48,71.56,3.12,496.95,3.12,568.5,0,74.41-3.23,321.75-154.86,358.45-236.58C1983.29,2358.34,1934.23,2270.48,1886.73,2243.9Z" fill="#2a535e"/><path d="M1992.82,1721.23c-61.59,40.49-191,133.07-261,157.32-100.06-117.36-205.19-484-205.61-495.74,83.5,1.68,180.74,8.49,208.13,21.85C1784.54,1465.11,1920.41,1622.28,1992.82,1721.23Z" fill="#28afc6"/><path d="M1758.8,2232.15c-4.54-7.18-14.27-25-18.84-32.92C1593.48,2202,1038.27,2217.12,881,2221c-2.38,15.24-4.69,28.17-8.28,41C1049.62,2390,1391.74,2502.12,1758.8,2232.15Z" opacity="0.22"/><path d="M904.38,2282.74c222.62,122,627.58,127.86,883.94-68.22,0,0-98.48-643.45-139.75-814.51C1464,1356.2,1124.68,1384.93,959,1421.17,944.28,1642.28,918.65,1956.48,904.38,2282.74Z" fill="#28afc6"/><path d="M1511.22,1412.39c0-10.89-2.25-21.29-5.3-31.48-111.93-2.74-279.66,2-398.78,16.71-.72,4.72-2.52,9.19-2.53,14.07-.14,84.22,90.76,152.66,203,152.85S1511.08,1496.62,1511.22,1412.39Z" fill="#ffc19f"/><path d="M1441.71,1182l7.62,237.55c1.64,51.07-61.94,94.57-142,97.14s-146.33-36.76-148-87.84l-7.64-237.54Z" fill="#ffc19f"/><path d="M1469.1,1322.46c2-8.78,2.06-17.56,1.46-26.34-89.69-22.66-225.74-49.44-324.43-59.39-1.43,3.68-3.71,7-4.6,10.88-15.5,67.85,45.25,139.61,135.71,160.27S1453.59,1390.31,1469.1,1322.46Z" fill="#601805" opacity="0.19"/><path d="M1341.53,1689.31c38.63,14.12,83.23,16.56,127.44,3.73,45.39-13.17,82.48-40,107.29-73.77,2.43-3.31,9.67-11.36,10.65-12.6,20.45-26.13,58.56-63,88.78-73.93,127.58-46.4,252.18,104.08,324.73,303.6s53,389.74-74.57,436.13c-31.46,11.44-65,12.46-98.84,4.58-1.16-.27-7.11-1.17-9-1.67-41.58-11-88.63-8.21-133.15,11.4-40.71,17.94-72.54,47-93.17,81.13-45.5,110.06-132.31,199.31-255,243.94-250.11,90.94-441.77-61-536.52-321.52-37.36-102.76-68.7-190.94-66-285.65,4.14-145.44,108-281.3,259.46-336.38C1114.68,1624.26,1236.88,1636,1341.53,1689.31Z" fill="#911602"/><path d="M1378.43,1661.36c38,13.88,81.83,16.29,125.29,3.67,44.64-13,81.12-39.35,105.5-72.54,2.38-3.25,9.52-11.16,10.47-12.38,20.11-25.69,45.24-45,75-55.76,125.45-45.61,260.3,85.41,331.63,281.58s52.13,383.2-73.32,428.82c-30.93,11.25-63.94,12.25-97.19,4.5-1.13-.26-7-1.14-8.84-1.64-40.88-10.84-87.15-8.08-130.92,11.21-40,17.64-71.32,46.25-91.6,79.77-44.74,108.22-130.1,196-250.77,239.85-245.93,89.42-392.87-92.29-486-348.48s-97.25-489.83,148.67-579.25C1155.38,1597.4,1275.53,1609,1378.43,1661.36Z" fill="#b73718"/><path d="M1751.13,1969.78c-24.87-71.52-130.64-67.52-204.48-40-69.88,26.08-43.87,93.24-18.45,160.51a106.4,106.4,0,1,0-10.46,207.52c1.67-.18,3.34-.39,5.21-.76C1603.41,2281.14,1800.35,2111.32,1751.13,1969.78Z" fill="#4c1a1a"/><path d="M1693.91,2114.42a178.72,178.72,0,1,1,103.48-230.59C1832.49,1976.08,1786.16,2079.33,1693.91,2114.42Z" fill="#f44a4a"/><path d="M1682.68,2084.92a147.15,147.15,0,1,1,85.2-189.86A147.16,147.16,0,0,1,1682.68,2084.92Z" fill="#1c0000"/><path d="M1259.44,2259.46l-113.31-297.8a34.7,34.7,0,0,1,20.08-44.76l10.68-4.06a34.69,34.69,0,0,1,44.76,20.08L1335,2230.72a34.69,34.69,0,0,1-20.09,44.76l-10.67,4.06A34.68,34.68,0,0,1,1259.44,2259.46Z" fill="#f4a667"/><path d="M2060.8,1694.83l60.67,158.5,12.91-5.08L2073.84,1690Zm342.43-125.76,57.63,150.59,12.91-5.09-57.51-150.28Zm-223.78,82.18L2239.07,1807l12.92-5.08-59.5-155.47Zm111.89-41.09L2350,1763.34l12.93-5.09-58.51-152.87ZM2640,1482.11l-13,4.79,55.65,145.4,12.92-5.09ZM1795.2,1792.36l63,164.66,12.92-5.09-62.91-164.35Zm128.08-47L1985.17,1907l12.92-5.09-61.77-161.39ZM2515.11,1528l56.64,148,12.92-5.09-56.53-147.69Z" fill="#e0cece"/><path d="M3042.7,1255.41c-14.38-38.54-14.87-22.46-21.91-19.86s-18-9.26-3.58,29.31l95.8,256.82c14.39,38.55,14.88,22.46,21.91,19.87s18,9.26,3.58-29.32ZM2903,1279.48c-7,2.59-18-9.26-3.57,29.32l95.8,256.82c14.39,38.54,14.87,22.47,21.91,19.87s18,9.26,3.58-29.33L2925,1299.36C2910.57,1260.8,2910.08,1276.88,2903,1279.48Zm-117.74,43.93c-7,2.6-18-9.26-3.57,29.33l95.8,256.8c14.38,38.56,14.87,22.48,21.9,19.88s18,9.26,3.58-29.32l-95.8-256.82C2792.82,1304.74,2792.34,1320.81,2785.3,1323.41Z" fill="#a37b79"/><path d="M3054.27,1210.93a27.73,27.73,0,0,0-35.36-16.48l-22.74,8.21a27.66,27.66,0,0,0,18.8,52l22.74-8.21A27.72,27.72,0,0,0,3054.27,1210.93Z" fill="#ffab03"/><path d="M3176.78,1540a27.74,27.74,0,0,1-15.92,35.62l-22.56,8.69a27.66,27.66,0,0,1-19.89-51.63L3141,1524A27.74,27.74,0,0,1,3176.78,1540Z" fill="#ffab03"/><path d="M2938.49,1260.84a27.74,27.74,0,0,0-35.36-16.48l-22.74,8.21a27.66,27.66,0,0,0,18.79,52l22.74-8.22A27.71,27.71,0,0,0,2938.49,1260.84Z" fill="#ffab03"/><path d="M3057.1,1578.71a27.73,27.73,0,0,1-15.92,35.62l-22.56,8.69a27.66,27.66,0,0,1-19.89-51.62l22.57-8.69A27.72,27.72,0,0,1,3057.1,1578.71Z" fill="#ffab03"/><path d="M2823,1311.45a27.73,27.73,0,0,0-35.36-16.47l-22.74,8.21a27.66,27.66,0,1,0,18.8,52l22.73-8.21A27.74,27.74,0,0,0,2823,1311.45Z" fill="#ffab03"/><path d="M2936.43,1614.8a27.73,27.73,0,0,1-15.92,35.61l-22.56,8.7a27.66,27.66,0,0,1-19.89-51.63l22.56-8.69A27.73,27.73,0,0,1,2936.43,1614.8Z" fill="#ffab03"/><path d="M3190.85,1432.41c9.07-14.51,10.89-59,2.53-81.35-8.05-21.56-38.76-54.56-55.18-59.76l-8.42-22.55c-3.25-8.73-33.67-22.61-42.39-19.36l-359.07,151.16c-8.72,3.25-37.68,39.29-34.42,48l55.47,148.65c3.25,8.73,48.74,17,57.46,13.74l370.31-121c8.73-3.26,22.62-33.66,19.36-42.39Z" fill="#a52a0e"/><path d="M2863.59,1534a17.08,17.08,0,1,0,22,10A17.07,17.07,0,0,0,2863.59,1534Zm-32-134.5a17.07,17.07,0,1,0-10,22A17.08,17.08,0,0,0,2831.63,1399.52Zm116.69-47.47a17.07,17.07,0,1,0-10,22A17.08,17.08,0,0,0,2948.32,1352.05Zm116.34-48.42a17.07,17.07,0,1,0-10,22A17.06,17.06,0,0,0,3064.66,1303.63Zm59.79,160.22a17.08,17.08,0,1,0-10,22A17.09,17.09,0,0,0,3124.45,1463.85Zm-141.59,29.6a17.08,17.08,0,1,0,22,10A17.08,17.08,0,0,0,2982.86,1493.45Z" fill="#421010"/><polygon points="1766.92 2004.68 1693.97 1814.03 2698.64 1440.93 2760.37 1602.25 1766.92 2004.68" fill="#a8928e"/><path d="M2083.89,1669.23l68.87,179.15,11.56-4.68-68.74-178.81ZM2391,1555.17l65.42,170.19,11.57-4.69-65.3-169.84Zm-200.71,74.53,67.68,176,11.56-4.68L2202,1625.36Zm100.35-37.26,66.55,173.12,11.56-4.69-66.41-172.78Zm312.76-116.15-11.69,4.34L2654.91,1645l11.56-4.69ZM1845.65,1757.7l71.55,186.1,11.56-4.68-71.41-185.76ZM1960.54,1715l70.25,182.74,11.57-4.68-70.13-182.4Zm530.84-197.14,64.31,167.26,11.56-4.68-64.17-166.92Z" fill="#ccb8b4"/><path d="M2751.5,1579c2-.78,3.13-3.26,1.81-5.91-1-2.49-3.34-3.87-5.31-3.09L1264.31,2159c-2,.78-2.78,3.41-1.83,5.88s3.35,3.9,5.32,3.11Zm-11.31-40.21c-1-2.5-3.33-3.89-5.31-3.12L1247.45,2117.78c-2,.77-2.79,3.41-1.84,5.89s3.33,3.88,5.31,3.12l1487.43-582.12C2740.31,1543.91,2741.13,1541.27,2740.19,1538.79ZM2713,1467.62c-1.19-3-3.3-3.9-5.29-3.15L1215.22,2030.59c-2,.75-2.82,3.39-1.88,5.88s3.31,3.9,5.29,3.15l1492.45-566.13C2713.06,1472.75,2713.94,1470.1,2713,1467.62Zm13.13,34.31c-1-2.47-3.33-3.89-5.3-3.13L1230.92,2074.55c-2,.77-2.81,3.4-1.86,5.89s3.33,3.89,5.3,3.13l1489.87-575.75C2726.2,1507.05,2727,1504.42,2726.09,1501.93Z" fill="#845757"/><path d="M1220.83,2044.74a10.8,10.8,0,1,0-13.86-6.41A10.79,10.79,0,0,0,1220.83,2044.74Zm8.5,23.14a10.8,10.8,0,1,0,13.85,6.42A10.79,10.79,0,0,0,1229.33,2067.88Zm16.2,44.15a10.8,10.8,0,1,0,13.85,6.41A10.79,10.79,0,0,0,1245.53,2112Zm15.2,41.4a10.8,10.8,0,1,0,13.85,6.42A10.8,10.8,0,0,0,1260.73,2153.43Z" fill="#35130a"/><path d="M1165.78,2563.94c-5.53,3,81.64,187.32,88.75,184.58,46-17.69,407.58-172.95,604.35-257.24,68.74-29.45,99.7-109.47,69-177.65a133.56,133.56,0,0,0-185.77-62.4C1546.16,2358.11,1195.83,2547.62,1165.78,2563.94Z" fill="#ffc19f"/><path d="M1054.47,2598.89l123.59,232.58c39.76-25.38,274.92-165,312.92-183.27L1364.22,2440c-18,11.82-67.88,43.34-92,58.93C1255.35,2509.87,1063.07,2589.41,1054.47,2598.89Z" fill="#f9e9a7"/><path d="M1106.51,2878.68c-119.75-12.78-186-150.74-143.65-219.83,10.49-17.1,41-37.08,55.53-46.75,57.45,16.14,159.26,197.47,144,242.15C1154.49,2859.4,1116.69,2878.71,1106.51,2878.68Z" fill="#b22909"/><path d="M1153.29,2857.9c-121.46-2.72-218.58-152.86-134.9-245.8,34.73-22.61,84.71-40.56,198.77-87.85,10.34-5,55.82-33,67.78-40.44,68.19,22.6,147.86,163.63,119.88,215.72-13,7.48-32.31,18.36-53.71,32.38C1240,2804.79,1175.86,2858.41,1153.29,2857.9Z" fill="#f44d19"/><path d="M1209.29,2590.52c15,3.55,34.41,20.61,49.41,43.58.54.71,1,1.49,1.53,2.28,14.53,23,21.37,47,18.94,65a7.55,7.55,0,0,0,1.11,5,7.22,7.22,0,0,0,4.11,3.09,5.72,5.72,0,0,0,7.12-4.91c3.12-21.48-4.59-48.67-21.17-74.9l-1.65-2.62c-17.21-26.18-39.29-45.24-57.72-49.62a5.71,5.71,0,0,0-7,5.1A7.53,7.53,0,0,0,1209.29,2590.52Zm-42.59,15.87a7,7,0,0,0,4.09,3.06c32.26,8.45,78.24,74.51,73.07,115.91a7.34,7.34,0,0,0,5.33,8,5.7,5.7,0,0,0,7-5.1c6.27-49.44-45.29-121.82-83.46-131.74a5.67,5.67,0,0,0-7.14,4.88A7.59,7.59,0,0,0,1166.7,2606.39Zm50.11,148.31c5.38-50.71-48.22-126.47-87.16-137.62a5.59,5.59,0,0,0-7.17,4.69,7.26,7.26,0,0,0,5,8.2c33,9.57,81.4,79.37,77,122.08a7.55,7.55,0,0,0,1.12,4.74,6.85,6.85,0,0,0,4.4,3.11A5.62,5.62,0,0,0,1216.81,2754.7Z" fill="#fff"/><path d="M1433.22,2607.74c5.43,3.18-87.53,184.64-94.56,181.69-45.45-19.15-401.89-185.8-595.89-276.28-67.77-31.61-96.18-112.58-63.3-179.74,34.21-69.88,120.58-95.9,187.66-56.49C1059.56,2390,1403.7,2590.48,1433.22,2607.74Z" fill="#ffc19f"/><path d="M1599.23,2612.7l-83.39,248.42c-43.15-18.43-296.67-117.19-336.94-128.9l90.47-225c19.56,8.67,73.67,31.47,99.83,42.86C1387.6,2558.05,1589.25,2604.8,1599.23,2612.7Z" fill="#f9e9a7"/><path d="M1593.74,2895.8c115.43-32.06,158-178.26,105.15-239.17-13.07-15.07-46.32-29.71-62.11-36.84C1583,2645,1512.67,2839.56,1535,2880.93,1543.51,2884.69,1583.76,2897.49,1593.74,2895.8Z" fill="#b22909"/><path d="M1544.45,2883c118.75-22.46,189.59-185.65,92.33-263.24-37.77-16.53-89.73-26-209.36-53.83-11-3.25-60.16-23.3-73.11-28.66-63.23,33.29-118.44,184.7-82.49,231.26,14,5.23,34.7,12.76,58,23C1450.75,2845,1522.39,2887.2,1544.45,2883Z" fill="#f44d19"/><path d="M1449.86,2621a5.68,5.68,0,0,0-7.7-3.86c-17.38,7.31-35.94,29.6-48.56,58.1l-1.19,2.84c-12,28.45-15.15,56.4-8.58,77a5.69,5.69,0,0,0,7.79,3.66,7.12,7.12,0,0,0,3.53-3.7,7.61,7.61,0,0,0,.27-5.11c-5.31-17.21-2.51-42,8-66.87.37-.86.72-1.71,1.14-2.49,11-25,27.24-44.9,41.38-50.83A7.51,7.51,0,0,0,1449.86,2621Zm40.73,12.25a5.64,5.64,0,0,0-7.81-3.62c-35.83,15.94-74.65,95.39-60.43,142.9a5.67,5.67,0,0,0,7.7,3.86,7.31,7.31,0,0,0,3.93-8.7c-11.82-39.78,22.54-112.12,52.82-125.67a7,7,0,0,0,3.52-3.67A7.63,7.63,0,0,0,1490.59,2633.25Zm-17.73,162.82a6.83,6.83,0,0,0,3.82-3.77,7.66,7.66,0,0,0,.33-4.83c-11.32-41.19,24.84-117.6,55.64-132.36a7.25,7.25,0,0,0,3.57-8.88,5.58,5.58,0,0,0-7.8-3.42c-36.4,17.28-76.66,100.38-63.12,149.28A5.6,5.6,0,0,0,1472.86,2796.07Z" fill="#fff"/><path d="M1790.17,1409.36c-12.8-120.42-28.92-207.43-60.7-275-.74-17.12,76.32-78,91.63-90.61,62.64,40.44,219.61,58.22,260.35,50.56,0,0,25.83,61.3,11.72,121.23-57.87-10.69-110.2-23.38-110.2-23.38s48.73,23.8,103.86,44.77c-14.43,40.56-44.95,86.18-105.55,129.28-10.1,7.18-28.14,13.42-49.46,18.74-29.39-39.17-55.56-69.75-55.56-69.75s18.07,32.37,39.16,73.54c-8.78,1.89-17.89,3.6-27,5.2-28.14-57.21-60.41-109.82-60.41-109.82s20.06,54.51,38.27,113.49C1819.08,1404.88,1790.17,1409.36,1790.17,1409.36Z" fill="#b50000"/><path d="M1658.41,1065.74a83.28,83.28,0,0,1,89.28-16c-2.15-7.82-4.4-15.67-4.15-24.21a83.46,83.46,0,1,1,81,85.88c-10.5-.31-20.27-3-29.43-6.85,7.88,28.81,1.08,60.74-22.16,82.66a83.46,83.46,0,0,1-114.51-121.45Z" fill="#45cece"/><path d="M1888.27,895.49c-15.69,120.57-116.24,205.29-199.5,201.93s-110-98.35-108.59-213.15,70.2-205.44,153.46-201.79C1847.45,687.48,1903,782.18,1888.27,895.49Z" fill="#f4b18c"/><path d="M540.5,554.53c2.46,451.78,424.18,681.71,783.81,641.17s586.32-381.53,500.88-812.11C1777.75,144.52,1547-35.18,1203.71,5.86,838.28,49.55,538.59,204.31,540.5,554.53Z" fill="#b50000"/><path d="M518.45,1288.26c128.93-45.52,220.31-86,286.2-138.5,18.61-5.29,127.27,64.13,145.11,77.66-28.07,79.38-28.23,255.8-9.17,298.56,0,0-60.6,44.37-130.13,44.53-3.36-66.36-3.1-127.17-3.1-127.17s-13.42,59.75-22.05,125.79c-48.34-5.25-106.42-26.87-169.6-82.19-10.53-9.21-22.09-27.41-33.5-49.44,35.36-42.51,62.12-79.25,62.12-79.25s-30.84,28.31-70.57,62.23c-4.36-9.15-8.62-18.71-12.78-28.34,55.51-45.87,104.88-95.05,104.88-95.05s-54.65,36.26-114.68,71.68C530.92,1318.85,518.45,1288.26,518.45,1288.26Z" fill="#b50000"/><path d="M802.45,1093.2a74.34,74.34,0,0,1,45.14,67.24c5.62-4.57,11.23-9.22,18.3-12.08a74.51,74.51,0,1,1-41.17,97,73.63,73.63,0,0,1-5-26.52c-20.73,16.78-49.28,22.67-75.53,11.53a74.51,74.51,0,1,1,58.21-137.17Z" fill="#45cece"/><path d="M753.24,442.84c-24.56,76.21,97.65,714.81,181.6,795.62,89,85.74,325.76,156.38,496.07,119.66,106-22.85,300-121.69,348.86-232.45,57.84-131.08,21.46-685.49-9.06-750.64-103.13-220-303-205.3-563.28-176C963.93,226.51,816.94,245.12,753.24,442.84Z" fill="#ffc19f"/><path d="M629.82,1063.63c46.93,120.23,176.77,183.85,266,161s34.8-390.15-132.51-402.88C624,811.14,585.69,950.63,629.82,1063.63Z" fill="#ffc19f"/><path d="M729.94,1046.58c13.21,51.58,77.15,89,119.79,69.34,16.63-7.66-33.78-187-61.37-183.81C741.73,937.51,716.72,995,729.94,1046.58Z" fill="#e0956c"/><path d="M932.12,1097.63c2,26.21,40,44.73,84.88,41.39s79.77-27.3,77.81-53.51-40-44.73-84.87-41.39S930.17,1071.43,932.12,1097.63Z" fill="#ff9797"/><path d="M1627.86,1014c4,23,35.27,36.77,69.78,30.73s59.22-29.59,55.19-52.61-35.28-36.78-69.78-30.74S1623.83,990.93,1627.86,1014Z" fill="#ff9797"/><path d="M1583.23,1015.43c-14.14-40.46-76.54-20.23-181.19-5.51-5.47.77-26.74,3.91-32.21,4.76-104.44,16.12-170,14.77-171.87,57.6-3.55,82.48,110.3,155.2,216.52,139.86l1.84-.27C1522.44,1195.89,1610.44,1093.38,1583.23,1015.43Z" fill="#701608"/><path d="M1416.55,1213.55l-1.84.27c-34.45,5-71.59.46-107.52-12.91l-2.19-.77,1.49-1.78c23.94-28.8,59.09-47.92,99-53.81s79,2.28,110.3,22.93l1.93,1.27-1.86,1.38C1485.23,1193.3,1450.91,1208.35,1416.55,1213.55Z" fill="#dd6b5b"/><path d="M1393.84,1065.79c-73,10.78-137.2-2.88-149.25-31.82l-.71-1.77,283.84-41.88-.17,1.9C1524.31,1023.41,1466.83,1055,1393.84,1065.79Z" fill="#fff"/><path d="M1353.37,963a6,6,0,0,0,5-6c-.15-21.18,13.82-37.29,35.59-41s40.9,6.9,47.27,26.59a6,6,0,0,0,11.44-3.7c-8.17-25.22-33.16-39.51-60.75-34.74s-45.75,26-45.58,53a6,6,0,0,0,6,6Z" fill="#c4735b"/><path d="M898.15,655.39a18.26,18.26,0,0,0,11.15-6.87c36.44-47.44,117.63-74.08,189-61.84a18.35,18.35,0,1,0,6.19-36.17C1019.34,536,925,567.78,880.18,626.21a18.35,18.35,0,0,0,18,29.18Z" fill="#b50000"/><path d="M1751.57,552.18a16.4,16.4,0,0,0,8.52-29.42c-52.53-39.67-141.41-44.6-211.32-11.79a16.41,16.41,0,0,0,14,29.7c58.58-27.58,134.94-24,177.6,8.25A16.4,16.4,0,0,0,1751.57,552.18Z" fill="#a50202"/><path d="M673.56,563.4c-44.35-6.08-34-20.43-77.21-31.32,160.11-54.28,84.38-296,290-410.85,339.22-160.41,610-110.45,706-63.54,177,86.42,265.22,253.58,289.12,402.84,34,134.25,21.8,181.13,94.64,206.67-74,28-77.64,13.13-102.77-21.8,1.49,111.68,17.76,160.52,75.43,192.67-91.46,32.19-133.6-28.53-146.25-116.66-15.08-105-13.47-306.42-31.31-342.76-10.33-21-133.17-132.36-165.9-130.81-71.32,3.38-130,259.11-382.27,274.41,97.38-63.09,146.78-145.59,194.07-261.4a392.65,392.65,0,0,0-55.78,48.45C1169,510.13,981.9,571.17,803,569.37c43.44,186.68,88.13,424.44-111.71,448.54,18.4-27,59.81-158.43-1.75-252.63C666.66,782.14,678.93,688.12,673.56,563.4Z" fill="#b50000"/><path d="M1507.49,749.05c-28.36,63.52-15.94,128.12,18.27,149,51.55,31.48,164,28.41,198.76-30.6,33.72-57.16,2.61-149.93-67.87-182.79C1595,655.9,1534.94,687.58,1507.49,749.05Z" fill="#f9feff"/><path d="M1712.37,707c-62.23-85.35-181-39.17-205.83,44.23,28.34-63.49,91.89-89.61,148.93-63.05,35.25,16.44,63,50,74.23,89.85,8.94,31.74,6.87,68.84-7.13,92.58C1740,854.06,1758.13,769.76,1712.37,707Z" fill="#8e381e"/><path d="M1530.22,784.9c-9.56,42.75,13.41,87.26,51.33,99.41s76.41-12.67,86-55.43-13.41-87.27-51.33-99.41S1539.79,742.14,1530.22,784.9Z" fill="#752912"/><path d="M1535.08,777.14c-2.66,11.87,3.72,24.21,14.24,27.58s21.2-3.51,23.85-15.38-3.72-24.21-14.24-27.58S1537.73,765.28,1535.08,777.14Z" fill="#fefffe"/><path d="M1223.63,782.11c47.12,54.72,49.17,120.52,16.25,149.24-49.58,43.28-175.31,68-228.5,19.23-51.53-47.22-39.71-145,30.58-194.27C1103.51,713.16,1178,729.15,1223.63,782.11Z" fill="#f9feff"/><path d="M985.49,791.7c48.24-98.24,191.62-82.62,239.72-7.73-47.1-54.69-124.18-64.42-181.08-24.57C1009,784.05,986.37,823.52,983.65,865c-2.16,33,9.26,68.57,30.65,88.17C990.85,941.38,950,863.93,985.49,791.7Z" fill="#8e381e"/><path d="M1042.33,840a80.61,80.61,0,1,0,98.79-56.88A80.62,80.62,0,0,0,1042.33,840Z" fill="#752912"/><path d="M1048,832.2a22.36,22.36,0,1,0,27.41-15.78A22.37,22.37,0,0,0,1048,832.2Z" fill="#fefffe"/><path d="M1485.26,1988.35c11.44-.36,7.47-138.57-3.9-140-160.74-20.29-410.88-58.28-488-69.17-23.58,119.57,8.11,159.77,21.72,179.33C1083.13,1992.58,1327.75,1993.28,1485.26,1988.35Z" fill="#ffc19f"/><path d="M1772.12,1846c21.73,16.65-8.67,43.7-32.41,47.54-19.06,3.08-131.61-67.65-120.68-80.31C1649.93,1809.78,1750.39,1829.35,1772.12,1846Z" fill="#f29d77"/><path d="M1704.1,2002.3c9.1,10.13-10.5,39.34-30.52,35.35-15-3-33.14-12.81-21.8-.35,12.48,13.74-13,28-36.44,21.17-27.45-8-151.67-80.9-158.21-88.12-27.43-30.31-38.92-77.27-13.51-109.17,24-22,95.21-47.87,180.79-48.14,58.9,30.66,118.15,60.15,153.24,81.26,79.72,53.87,122,75.29,111.53,86.43-27.52,29.26-96.36-15.28-137.23-38.78-27.37-12.48-54.67-20.82-89.89-30.51-5.88,3.93,127.68,70.61,158.25,89.84,12.42,19.27-71.14,14.38-99.87,1.38-27.63-12.5-67.09-32.75-86.16-41.5C1649.43,1972.36,1683.34,1991.63,1704.1,2002.3Z" fill="#ffc19f"/><path d="M1601.44,1856.48a5.06,5.06,0,0,1-1.08,2.32,5.46,5.46,0,0,1-2.18,1.47,5,5,0,0,1,1.08-2.31A5.62,5.62,0,0,1,1601.44,1856.48Z" fill="#ffc19f"/><path d="M968.33,1969.67,816.59,1720.16s-17.79-124.57,42.06-216.78C880.31,1470,959,1421.17,959,1421.17L1221.4,1795Z" fill="#28afc6"/><path d="M2451.46,1659.69c5.87-20.71,22.85-66.46-2.45-77.78-10.43-4.67-25.45,36.84-40.35,76.22-5,13.17-1.65,18.71-6.53,58.93-3.84.36-7.63-20.45-4.28-46.22,1.82-14,32.63-51.64,2.94-70-5.09-3.15-34.06,48.58-40.67,60.77-10.56,19.44-35.35,139.58-33.51,146.78,7.7,30.22,43,44.16,84.86,45.17,32.86-3,108.13-35.47,153.21-81.4,12.43-41,16.05-70.15,20.62-100.28-4.84-83.71-3.4-123.53-19.58-120.93-38.74,6.21-33.54,73.56-34.93,108.19-3.45,27.39-12.57,56.78-17.9,70.89-6.87,1.44,4.72-45.56,8-72.21,1.31-22.06.44-99.34-14.25-98-39.52,3.59-26.75,38.12-35.94,95.21-5.12,22.35-18.84,63.19-22.55,65.22C2443.27,1715,2445.94,1702.19,2451.46,1659.69Z" fill="#ffc19f"/></svg>