<svg xmlns="http://www.w3.org/2000/svg" viewBox="0 0 3036.56 2737.22"><title>Musicss</title><path d="M607.36,2676.49c0,33.54,323.68,60.73,722.94,60.73s722.94-27.19,722.94-60.73-323.67-60.73-722.94-60.73S607.36,2643,607.36,2676.49Z" opacity="0.11"/><path d="M1387.8,1871c30.24-2.56,74.88-9.17,100.85,23.42,37.81,47.46,165.26,211,171.75,240,8,35.65-30.67,293.75-38.86,368.55,59.9,7.38,103.49,23.27,156.44,13.07,0,0,75.27-335.33,72.8-399.25-2.7-69.76-186.19-364.69-205-455.07-100.55-18.69-346-35.87-455.82-29.68C1137.55,1858.53,1264.59,1881.41,1387.8,1871Z" fill="#ffc19f"/><path d="M2333.3,812.82c-17.64-9.39-71.25-43-63.51-139.14,2.87-35.6-21.4-46-42.82-55.16-29.22-12.5-54.45-23.31-32.62-87.81,27.32-80.64,3.5-146.44-62.14-171.72-50.88-19.58-106.55-62.62-154.47-118.06-19.23-32.54-35.09-64.05-46.18-87.41-277.13-30.24-657.62,105.72-791.65,176l-68.48-2.11c-2.2,70.8-72.22,139.18-104,189.11-38.52,60.49-52.1,121.7-18.3,181.85,13.38,23.86,24,45.22,18.3,64.94-4.83,16.68-21.67,32.18-51.48,47.34-29.51,15-46.79,32.35-52.75,53-8.44,29.07,7.52,57.49,21.57,82.55,9.91,17.68,11.35,45.73,7.9,60.56-12.74,54.72-28.79,75.77-16.16,112.31-6.28-39.37,13.28-62.22,25.22-108,4.46-17.1,4.83-44.35-13.63-77-13.1-23.21-22.56-42.6-15.38-67.38,5.14-17.73,20.71-33,47.65-46.7,32.84-16.73,50.83-33.77,56.59-53.63,2.17-7.51,2-15.13.87-22.79,19.77,35.72,22.5,66.29-39.5,102.81-114,67.12,10.41,139.5-3.64,178-24.13,66.11-31.66,79.21-22,127.92,11,55.83,52.76,85.3,92.21,92.69-.35-8.92-44.08-56.73-19.62-145.67C997,1145.64,1052,1252,1064.67,1253.57c202.4,25.43,799.08,20.19,1003.65-105.28,39.08-24,22-118.7,30.73-146.08,6.34-19.82,31.43,87.92,43.35,115.18,219.8-166.16,102.76-228.59,83.31-240.72-23-14.34-33.08-44.71,11.09-184.27,22.52-71.15-116-23.49-75.17-144.24,24.5-72.39,5-129.94-59.18-165.14-22.48-12.35-43.87-32.5-63.89-55.8,30.06,19.33,60.2,35,88.35,45.87,60.89,23.44,83.76,78.31,58.08,154.15C2160,601,2195,616,2223.19,628.07c21.77,9.33,39.18,16.7,36.71,44.71C2250.41,780.13,2323.29,810.61,2333.3,812.82Zm-1382-133.18c-22.24-49.94-12.59-99.18,21.06-152,18.92-29.7,50.2-55.87,73.71-86.95C1019.94,536.93,945.56,608.84,951.28,679.64Z" fill="#752912"/><path d="M1972,1490.54c-67-25.27-182.4-66.24-249.72-97.29,22.46-81.46,100.06-240.86,102.23-244.9,88.92,56.73,202.81,117.56,238.71,135.83C2048.12,1335.76,1999.68,1426.2,1972,1490.54Z" fill="#f99c21"/><path d="M1070.58,1192.66c63.91,32.35,172,89.76,240.41,118.43,44.9-71.58,132.28-235.89,133.8-240.22-101.9-27.26-229.35-57-288.14-73.06C1128.77,1043.74,1099.3,1128.76,1070.58,1192.66Z" fill="#f99c21"/><path d="M1825.83,1148.55c-71.43-23.13-431.95-90.33-492.93-105.91-15.64,8.42-143.89,451.13-208,662.81,50.66,32.45,571.84,77.25,641.44,55.4C1763.24,1516.45,1789.81,1390.46,1825.83,1148.55Z" fill="#f99c21"/><path d="M1721.53,1140.55c1.22-7.92.71-15.71-.39-23.46-78.58-18.43-184-33.53-284.36-52.31-2.76,5.93-10,26.85-10.54,30.39-9.4,61.17,47.62,125.86,129.16,138.39S1712.13,1201.71,1721.53,1140.55Z" fill="#f27314"/><path d="M1699.06,963.24l-15.9,181c-3.42,38.92-55.66,66.14-116.69,60.78s-107.72-41.27-104.3-80.19l15.9-181Z" fill="#ffc19f"/><path d="M1706.75,1713c-52.51,12.44-421.07-11.68-475.48-67.84,0,0,68-321.41,94.92-410.94,76.47,17.82,338.32,63.81,416,75.74C1734.24,1375,1722.24,1556.48,1706.75,1713Z" fill="#224966"/><polygon points="1605.99 1522.91 1505.54 1531.6 1414.91 1487.04 1442.38 1358 1630.17 1381.41 1605.99 1522.91" opacity="0.21"/><polygon points="1604.34 1503.28 1512.81 1511.62 1430.39 1470.48 1455.85 1350.55 1625.7 1378.45 1604.34 1503.28" fill="#306484"/><g opacity="0.14"><path d="M1676,1299c17.57,3.24,37.46,7.06,57.4,9.52-1.33,12.59-7.08,40.55-7.53,45.13l-58.67-7.05C1667.66,1341.75,1674.44,1310.61,1676,1299Z"/></g><path d="M1725.71,1347.74c.37-3.92,41.46-187.89,20.5-228l-44.25-9.89c26,44.19-24.48,229.52-24.63,231.11Z" fill="#224966"/><path d="M1693,1321.75c-.15,6.77,5.9,12.5,13.5,12.79s13.89-5,14-11.74-5.9-12.5-13.5-12.78S1693.13,1315,1693,1321.75Z" fill="#bad6dd"/><g opacity="0.14"><path d="M1411.49,1251.47c-17.56-3.45-35.9-7.66-55.22-10.62-2.61,11.76-10.9,46.55-11.49,51.11l57,8C1402.4,1295.08,1410.37,1263.12,1411.49,1251.47Z"/></g><path d="M1390.53,1052.71c12.14,3,41.55,8.85,44,9.3,14.52,91-33.73,226.8-34.16,230.07l-48-6C1352.85,1283,1412.22,1141.61,1390.53,1052.71Z" fill="#224966"/><path d="M1394.91,1267.57c-1.41,6.93-8.66,11.38-16.2,9.94s-12.49-8.23-11.08-15.16,8.66-11.38,16.19-9.94S1396.32,1260.64,1394.91,1267.57Z" fill="#bad6dd"/><path d="M829.45,2254.11c-14.15,13.26,85.18,125.87,101,114.22,137.58-101,255-198.62,332.17-263.64,53.39-45,43.36-96.2,6.76-144.81-35-46.51-59.94-74.17-97.51-36.3C1077.2,2019,881.68,2205.14,829.45,2254.11Z" fill="#ffc19f"/><path d="M1766.52,1680.49s67.77,256,91.69,376.39c-81.38,23.19-229.91,26.74-321.37,32-41.81-166-44.74-205.94-96.8-202.79-38.07,2.31-52.93,66.92-103.54,162.61-92.85-4.72-251.71-60.77-316-98,31.9-80.27,87.5-256.26,111.36-345.52,0,0,160.42,52.91,371.21,73.39C1657.79,1693.64,1766.52,1680.49,1766.52,1680.49Z" fill="#224966"/><path d="M1883.89,2067.79c-3.21-16.27-13.52-98.26-16.5-111l-381.22,54.06s13.83,88.68,16.51,102.14C1553.13,2110.74,1857.19,2079,1883.89,2067.79Z" fill="#306484"/><path d="M977.64,1984.84c5.24-15.57,25.89-95,30.46-107.15l369.56,118.71s-25,85.47-29.34,98.35C1298.79,2083.93,1002.57,2000.55,977.64,1984.84Z" fill="#306484"/><path d="M1694,1765.69c6.88,120.53,78.31,156.19,125.41,133.85-7.89-48.5-15.85-111.42-22.25-149.44Z" opacity="0.24"/><path d="M1724.85,1775.49a180.77,180.77,0,0,0,5.14,27.43c18.5,67,53.23,109,121.71,102.18-7.89-48.5-17.67-107.46-24.08-145.49Z" fill="#224966"/><path d="M1231.27,1723.24c-30.32,110.94-107,134.68-168.66,106.13,18.82-43.48,33.19-104.52,46.13-141.54Z" opacity="0.24"/><path d="M1207.91,1732.87a131.73,131.73,0,0,1-11.53,24.44c-35.83,58.32-78.61,96.63-166,74.88,19.47-54.09,34.76-96.56,47.39-137.28Z" fill="#224966"/><path d="M794.55,2258c-10.45,9.2,98.15,153.62,111.39,148.18,28.11-11.55,100.91-61.48,144.12-85.84-19.86-26.89-135.94-168.19-135.94-168.19C885.23,2174.4,830.13,2226.65,794.55,2258Z" fill="#fff3fa"/><path d="M982.65,2413.57c7.58-9,15.8-22.27,23.81-33.73,5.95-8.5-48.34-80.23-67.71-66.74a151.77,151.77,0,0,0-12.82,9.91c-9.2-12.33-18.88-25.93-28.71-40.55-21.37-31.81-38.9-61.48-49.76-83.32-31.32,20.39-82.15,60.33-116.76,83.25,0,0,171.12,370.58,259,385.59C1014.48,2672.21,1018.5,2545.71,982.65,2413.57Z" fill="#11acbc"/><path d="M752.09,2267.59c-7.52,5.34-14.81,10.44-21.39,14.8,0,0,171.12,370.58,259,385.59,3.49.59,6.56-1.45,9.18-5.7C912.74,2587.76,796.27,2358.55,752.09,2267.59Z" fill="#106e72"/><path d="M989.38,2443.26a5.74,5.74,0,0,0,7.67,2.76,5.94,5.94,0,0,0,3.3-7.6c-9.2-22-34.7-37.2-61.87-37a6.24,6.24,0,0,0-6.19,5.76,5.36,5.36,0,0,0,.89,3.27,5.54,5.54,0,0,0,4.71,2.4C960.6,2412.68,981.75,2425.26,989.38,2443.26Zm5.83,33.71a6,6,0,0,0,10.47-5.88c-12-21.47-34.29-35.49-61.1-38.21a6.3,6.3,0,0,0-6.77,5.1,5.37,5.37,0,0,0,.82,3.9,5.52,5.52,0,0,0,4.06,2.38C974.32,2447.45,989.16,2466.09,995.21,2477Zm16.08,30.13c-9.71-20.18-35.35-36.94-62.34-40.73a6.29,6.29,0,0,0-7,4.84,5.36,5.36,0,0,0,.79,4.12,5.48,5.48,0,0,0,3.82,2.35c23.51,3.31,45.66,17.56,53.95,34.75a5.76,5.76,0,0,0,7.8,2.39A5.9,5.9,0,0,0,1011.29,2507.1Z" fill="#e2e6ed"/><path d="M1613.35,2541.76c-.55,13.91,178.92,34.92,184.12,21.58,11-28.32,25.1-115.47,37.27-163.55-33.17-4.17-215.54-17.61-215.54-17.61C1615.38,2418.44,1615.2,2494.38,1613.35,2541.76Z" fill="#fff3fa"/><path d="M1847.88,2507c-2.35-11.52-7.68-26.2-11.7-39.59-3-9.94-92.92-11.81-94.34,11.75a151.53,151.53,0,0,0-.18,16.21c-15.38-.42-32-1.26-49.62-2.62-38.2-3-72.35-7.59-96.22-12.6-3.42,37.21-3.59,101.86-7.06,143.24,0,0,396.86,95.45,463.12,35.79C2070.55,2642.37,1973.78,2560.81,1847.88,2507Z" fill="#11acbc"/><path d="M1590.41,2597.43c-.48,9.21-1,18.09-1.65,26,0,0,396.86,95.45,463.12,35.79,2.63-2.37,2.93-6.05,1.22-10.73C1941.22,2669.86,1689.17,2619.15,1590.41,2597.43Z" fill="#106e72"/><path d="M1875.36,2520.14a5.74,5.74,0,0,0,6.91-4.3,6,6,0,0,0-3.91-7.31c-22.95-6.4-50.7,4.16-67.39,25.61a6.24,6.24,0,0,0,.69,8.43,5.29,5.29,0,0,0,3.11,1.33,5.56,5.56,0,0,0,4.81-2.2C1833.52,2523.76,1856.49,2515,1875.36,2520.14Zm30.06,16.32a6,6,0,0,0,1.88-11.85c-24.3-3.91-49.11,4.9-67.87,24.24a6.31,6.31,0,0,0-.19,8.48,5.29,5.29,0,0,0,3.57,1.77,5.44,5.44,0,0,0,4.37-1.7C1869.3,2534.55,1893.12,2534.46,1905.42,2536.46Zm33.6,6.07c-21.85-4.9-50.9,4.84-70.6,23.65a6.29,6.29,0,0,0-.52,8.47,5.36,5.36,0,0,0,3.72,1.95,5.46,5.46,0,0,0,4.21-1.55c17.18-16.39,42.08-24.94,60.71-20.78a5.78,5.78,0,0,0,6.72-4.65A5.88,5.88,0,0,0,1939,2542.53Z" fill="#e2e6ed"/><path d="M1843.82,1039.61c3.78-10.58,5.16-21.47,5.73-32.43-107.83-41.39-272.48-94.76-393.32-121.72-2.33,4.35-5.63,8.06-7.32,12.8-29.28,81.8,35.39,179.75,144.44,218.78S1814.54,1121.41,1843.82,1039.61Z" fill="#6b1808" opacity="0.18"/><path d="M2112,700c-12.94,99.13-95.64,168.78-164.11,166s-90.46-80.9-89.24-175.3,57.76-168.92,126.23-165.9C2078.49,528.9,2124.17,606.79,2112,700Z" fill="#f4b18c"/><path d="M1064,417.31c.17,357.84,284,563.14,581.41,529.7s486.2-304.37,417.36-645.11C2024.6,112.71,1834.65-28.78,1550.71,5,1248.49,41,1063.92,139.92,1064,417.31Z" fill="#752912"/><path d="M1178.76,327.48c-20.21,62.67,80.13,587.83,149.15,654.3,73.2,70.52,352.87,104.7,407.9,98.51,59-6.63,246.69-100,286.92-191.07,47.6-107.78,17.8-563.69-7.27-617.26-84.76-181-249.11-168.9-463.16-144.83C1352.06,149.64,1231.19,164.9,1178.76,327.48Z" fill="#ffc19f"/><path d="M1077.12,837.94c38.57,98.87,145.33,151.22,218.72,132.44S1324.55,649.57,1187,639.06C1072.41,630.31,1040.87,745,1077.12,837.94Z" fill="#ffc19f"/><path d="M1159.46,824c10.85,42.41,63.42,73.17,98.49,57,13.68-6.3-27.73-153.79-50.42-151.17C1169.18,734.26,1148.6,781.54,1159.46,824Z" fill="#e0956c"/><path d="M1332.39,850.73c1.24,21.57,32.22,37.34,69.22,35.22s66-21.33,64.72-42.9-32.24-37.35-69.21-35.23S1331.16,829.16,1332.39,850.73Z" fill="#ff9797"/><path d="M1905.6,791.66c3,19,28.49,30.73,57,26.25s49.09-23.51,46.1-42.49-28.49-30.74-56.94-26.25S1902.61,772.68,1905.6,791.66Z" fill="#ff9797"/><path d="M1519.72,826.31c-7.32,71.51,112.26,155.34,211,139.22,98.2-16,156-106.57,147.1-177.56-10.9-38.22-74.26-20.22-171.85-11.63S1524.18,782.82,1519.72,826.31Z" fill="#701608"/><path d="M1713.05,902.45c45.79-4.33,81.94,3.25,106.7,22.14-24.06,19.78-57.29,39.55-95.53,43-43.06,3.9-81.53.66-112.24-25C1621.24,921.14,1672.09,906.32,1713.05,902.45Z" fill="#dd6b5b"/><path d="M1565.77,790.72c32.75-13.24,85.9-11.32,134.49-15.6,54.82-4.82,94.38-15.32,129.31-11-10.31,30.48-54.46,53.59-117.48,59.87C1639.32,831.28,1578.48,821.21,1565.77,790.72Z" fill="#fff"/><path d="M1667.29,742.27a5,5,0,0,0,4.38-4.65c.91-17.39,13.16-29.94,31.21-32s33.24,7.66,37.52,24.13a4.94,4.94,0,1,0,9.56-2.49c-5.48-21.09-25.3-34-48.18-31.46s-38.82,19.14-40,41.27a5,5,0,0,0,4.68,5.2Z" fill="#c67f75"/><path d="M1295.94,493.21a13.9,13.9,0,0,0,8.51-5.24c27.82-36.19,89.78-56.5,144.26-47.14a14,14,0,1,0,4.73-27.61c-65-11.12-137,13.15-171.19,57.72a14,14,0,0,0,13.69,22.27Z" fill="#681d0c"/><path d="M1998.82,408.33a13.49,13.49,0,0,0,7-24.19c-43.19-32.63-116.28-36.7-173.78-9.74a13.49,13.49,0,0,0,11.46,24.42c48.19-22.66,111-19.73,146,6.82A13.41,13.41,0,0,0,1998.82,408.33Z" fill="#681d0c"/><path d="M1900.9,101.21c-86.42-28.93-238.17-26.09-371.13-4.8-144.53,23.14-290.19,67.12-361,131.32-46.83,42.46-67.46,306.56-45.63,281.61,25-28.55,67.52-57.3,120.07-83.84,2.15-29.09,29.06-105.13,35.06-115.61-.34,15.24,3.81,68,6.3,96.06,66.24-29.31,143.42-54.8,219.92-72.69-6.63-29.18,1.45-69.93,1.18-71.95,10.46,7.32,35.49,45.55,46.19,61.81q17.39-3.35,34.51-6.1c104.52-16.73,182.91-22.59,246.53-20.68-18.93-90.44-24.23-118.8-23.76-112.5,14.45,17.43,38.16,70.7,46.54,113.54a577.51,577.51,0,0,1,66.08,7.87c-2.57-26.82-3.89-70.64-4.3-78,9,3.56,34.29,59.55,44.47,86.93,34.45,9.08,65.73,21.05,98.19,34.73C2095.59,363.84,1970.57,124.53,1900.9,101.21Z" fill="#752912"/><path d="M1813.86,712.46s131.05,33.07,169.34-50.72c46.66-102.09-51.49-167.19-107.46-145.83C1823.94,535.67,1782,596.21,1813.86,712.46Z" fill="#f9feff"/><path d="M1977.92,538.9c-27.4-32-59.93-39.29-93.31-31.38-34.12,8.09-65.66,41.25-71.94,72.44,14.52-36,45.12-52.07,64.49-59.45,30.83-11.81,74.59.34,97.47,32.3,20.36,28.43,24.44,74.11,7.31,111.58C2004.28,637.69,2006.48,572.22,1977.92,538.9Z" fill="#773220"/><path d="M1824.52,607.47c-7.36,35.61,11.43,72.85,42,83.17s61.28-10.18,68.64-45.78-11.43-72.85-42-83.17S1831.89,571.86,1824.52,607.47Z" fill="#63190d"/><path d="M1827.8,596.32c-2,9.88,3.16,20.22,11.64,23.08s17-2.82,19-12.71-3.17-20.21-11.65-23.07S1829.84,586.44,1827.8,596.32Z" fill="#fefffe"/><path d="M1589.88,739.55s-143.11,65.06-209-6.57c-80.31-87.29,16.49-175.14,86.77-168.51C1532.65,570.6,1596.74,618.78,1589.88,739.55Z" fill="#f9feff"/><path d="M1355.3,612.49c23.47-37.91,59.23-53.19,99.89-53.92,41.56-.75,86.61,23.48,101.92,52.15-26.09-31.25-65.64-39.15-89.95-41.43-38.71-3.69-86.23,19.11-104.47,55.86-16.22,32.7-9.17,78.05,20.32,110.08C1350.27,715,1330.85,652,1355.3,612.49Z" fill="#773220"/><path d="M1389.13,661.31a67.31,67.31,0,1,0,82.41-47.64A67.31,67.31,0,0,0,1389.13,661.31Z" fill="#63190d"/><path d="M1393.29,650a18.67,18.67,0,1,0,22.86-13.22A18.66,18.66,0,0,0,1393.29,650Z" fill="#fefffe"/><path d="M1011,481.12s-19.29,79.73,26.38,73.07,77.78-45.79,71.71-87.39-48-69.91-93.69-63.24S1011,481.12,1011,481.12Z" fill="#f9951e"/><path d="M1256.2,445.32s41.27,70.9-4.4,77.56-87.62-21.65-93.69-63.24,26-80.72,71.7-87.39S1256.2,445.32,1256.2,445.32Z" fill="#f9951e"/><path d="M1164,459.86c2.89,19.76-8.87,37.84-26.27,40.38s-33.82-11.42-36.71-31.19,8.88-37.84,26.27-40.38S1161.11,440.09,1164,459.86Z" fill="#f9951e"/><path d="M1706.82,1463.16c-9-.64-8.55-107.14.49-107.52,135.14-5.75,313.77-50.31,351.56-58.15,59.79,7.42,66,125-8.54,160.1C1985.76,1488,1935.42,1479.22,1706.82,1463.16Z" fill="#ffc19f"/><path d="M1068.74,1421.09c2.64,8.66,111.75-17.37,110.11-26.27-24.5-133-28.77-351.4-29.55-390,0,0-124.44-20.93-147,51.58C981.06,1124.53,1002.17,1201.8,1068.74,1421.09Z" fill="#ffc19f"/><path d="M1239.57,1546.62c6.55,3.09,61.18-18.31,60.49-90.74-.36-37.72-44.37-89.46-124.54-118-7.35-2.61-3.56,13.82-3.79,25.37s23.5,166.77,27.76,148.55c4.2-18-1.21-52.7,24.55-33.16C1254.84,1502,1222.7,1538.64,1239.57,1546.62Z" fill="#ffc19f"/><path d="M1251.82,1514.74c-17.24,2.65-46.79-97.13-29.55-99.77s29.25,13.14,38.19,36.91C1270.56,1478.76,1269.06,1512.1,1251.82,1514.74Z" fill="#e0956c"/><path d="M1237,1382.58c8.48,32.69-22,91,54.5,106.53,14.42,2.93-.79,50.86-24.76,54.66-12-.11-6.89,13.25-32.21,16.18-15.68,1.81-26.35-2.65-31.8,1.73-22.77,18.29-34.36-4-44.91,2.73-15.1,9.7-29.51.4-37.2-6.13-21.63-18.39-34.1-76-52.55-139.57-11.5-39.58,52.82-88,66.75-87.35C1192.19,1334.15,1231.4,1361,1237,1382.58Z" fill="#ffc19f"/><path d="M1526.64,1355.6c-5.24-5-5-63.65,62.82-89.13,35.31-13.26,99.44,9.12,155,73.61,5.09,5.91-11.61,8.31-22.3,12.68s-164,38.22-148.56,27.68c15.23-10.4,49.59-17.88,22.07-34.86C1562.73,1325.28,1540.16,1368.46,1526.64,1355.6Z" fill="#ffc19f"/><path d="M1552,1332.68c3.75,17,107.47,8.63,103.72-8.41s-22.8-22.54-48.19-22.31C1578.75,1302.24,1548.2,1315.65,1552,1332.68Z" fill="#e0956c"/><path d="M1680.58,1298.86c-33.55,3.88-76.95,53.31-119-12.41-7.93-12.4-47.16,19.07-42,42.8,4.41,11.12-9.88,11.2-3.48,35.88,4,15.27,12,23.62,9.85,30.28-8.84,27.84,16.16,30.59,13.65,42.87-3.61,17.59,10.26,27.67,19.13,32.48,24.95,13.55,83.21,4.39,149.13-1.3,41.06-3.55,63-81,57.4-93.76C1741.9,1323.18,1702.68,1296.31,1680.58,1298.86Z" fill="#ffc19f"/><path d="M155.21,660.48a66.11,66.11,0,0,0-16.59,3.32c-7.85-23.83-15.54-47.3-22.78-69.63,30-42.34,54.15-94.72,42.57-176.23-7.82-59.25-40.25-171.49-74-154C41.88,286,36.74,353.11,45.29,409.49c3,20,16.37,66.4,34.34,124.26-41.27,62.37-92.24,121.8-76.8,206.33,11.57,63.37,58.24,138.33,147,125.63a147.84,147.84,0,0,0,32.51-8.28c13.49,44.51,23.07,79.14,25.14,94.83,9,64.94-58.23,71.72-74.55,43.74a36.11,36.11,0,0,0,5.29-.17c20-2.68,34-21.32,31.32-41.6s-21.16-34.58-41.16-31.9a36.09,36.09,0,0,0-26,17.17c-5.49,5.81-8.49,16.23-6.27,34.08,11.59,82.49,143.59,79.36,128.85-30.78-1.63-13.59-11.62-48.18-25.78-93.23C289,798.3,253.53,655,155.21,660.48ZM72.11,445.16c-14.57-105.3,31.28-147.55,49.16-80.29,15.81,59.55-3,106.63-30.22,151C81.15,483.34,73.9,458.09,72.11,445.16ZM150.67,842c-29.28,5.72-102.8-2.35-116-85.75C25.18,696.37,66,659,103.82,610.33c6.34,19.84,12.87,40.14,19.45,60.55C98,685.8,79.82,714.21,80.3,739c.72,37.4,33,65.1,67.09,57.53C97,781.5,98.78,728.43,135.54,709c14.23,44.27,28.07,87.51,39.78,125.41A127.58,127.58,0,0,1,150.67,842Zm41-16.11c-11.92-37.26-25.87-79.62-40-122.48l1.44-.38C215.45,691.57,254.7,784.34,191.67,825.87Z" fill="#80e0db"/><path d="M2512.54,315.64c-16.08-38.25-50.25-32.05-72.05-56.92a10.76,10.76,0,0,0-20.19,6.39L2436.91,393c-16.29-4-37.78-.73-58.09,10.34-33.19,18.08-50.67,50.06-39,71.43s48,24,81.18,6c32.24-17.56,49.64-48.24,40-69.57l-10.18-78.68c19.23,10.82,27.87,0,55.91,16.7,1.5.9,3.37-1,2.74-2.43-12.69-29-34.77-17.67-62.25-42l-1.26-9.69c25.24,15.78,42.51,4.71,63.19,23.28C2510.64,319.76,2513.29,317.39,2512.54,315.64Z" fill="#ce80e0"/><path d="M3034.85,194.62,3020.46,93.48a8.81,8.81,0,0,0-10.1-7.45l-135.3,21.62a8.81,8.81,0,0,0-7.33,9.93l18.73,131.61c-13.32-3-30.67,0-47,9.13-27,15.13-41,41.47-31.22,58.83s39.49,19.19,66.47,4.06c26.71-15,40.66-40.93,31.49-58.3l-19.81-139.24,117.91-18.84,10.51,73.86c-13.41-3.26-31.14-.4-47.8,8.95-27,15.12-41,41.46-31.22,58.83s39.5,19.19,66.48,4.06C3027.76,236.23,3041.63,211.91,3034.85,194.62Z" fill="#f94e4e"/><path d="M699.82,405.61c-29.11-43.33-61.79-28.72-92.3-53.75A11.24,11.24,0,0,0,587.59,362l48.84,125.63c-17.53,0-38.52,8.71-56.36,25-29.17,26.65-38.9,63.47-21.75,82.24s54.7,12.39,83.87-14.26c28.33-25.88,38.31-61.37,23.14-80.59l-40.1-103.26c18.25,4.95,37-2,71.94,12.94C699.39,410.68,701.17,407.61,699.82,405.61Z" fill="#fcbc1d"/></svg>