<svg xmlns="http://www.w3.org/2000/svg" width="115.238" height="72.833" viewBox="0 0 115.238 72.833">
  <defs>
    <linearGradient id="linearGradient-7" x1="63.291" x2="63.291" y1="4.799" y2="21.885" gradientUnits="userSpaceOnUse">
      <stop offset="0" stop-color="rgb(255,255,255)"/>
      <stop offset="1" stop-color="rgb(227,227,227)"/>
    </linearGradient>
    <linearGradient id="linearGradient-9" x1="31.107" x2="31.107" y1="4.807" y2="21.887" gradientUnits="userSpaceOnUse">
      <stop offset="0" stop-color="rgb(255,255,255)"/>
      <stop offset="1" stop-color="rgb(227,227,227)"/>
    </linearGradient>
  </defs>
  <g>
    <path fill="rgb(226,52,100)" fill-rule="evenodd" d="M102.20975632 22.50302306l-6.71216447 3.8731341V55.3324455l6.71216447 3.87368302c2.68766772 1.55003788 5.99847372 1.54940085 8.68554416-.0016712 2.68707044-1.55107204 4.3422827-4.41699628 4.3422717-7.51844463V30.01710084c.00069068-3.10173538-1.65440323-5.96817963-4.34172242-7.51939526-2.68731918-1.55121562-5.99851667-1.55149031-8.68609344-.00072057v.00603805z"/>
    <path fill="rgb(26,26,26)" fill-rule="evenodd" d="M89.3922791 29.9023779v21.91153165l3.18528505 1.83776262v-25.5876058L89.3922791 29.9023779z"/>
    <path fill="rgb(26,26,26)" fill-rule="evenodd" d="M4.89051093 25.75588484L.73316475 61.01150524C0 67.36517973 4.91961785 72.83345665 10.89642082 72.30814637l66.75149261-5.8640436c4.91687191-.43199498 8.69802495-4.83043937 8.68154933-10.09561827l-.87320745-30.54813767c-.01757399-5.63240208-4.34846329-10.16423247-9.62450355-10.06213454l-61.7198406 1.15820762c-4.71202513.08563051-8.64365542 3.86654714-9.22140023 8.85946492z"/>
    <path fill="rgb(226,52,100)" fill-rule="evenodd" d="M7.99671305 29.07406733L4.34626654 57.87995335c-.31774066 2.58464704.54554876 5.17493716 2.3505574 7.05282085s4.35992888 2.8438093 6.95651601 2.63001442l61.1124397-5.0258526c4.50192509-.37131197 7.96225424-4.13866637 7.94838458-8.65362233l-.95558552-24.7702735c-.00802763-2.3166793-.94480325-4.5334705-2.60076182-6.15445765-1.65595856-1.62098716-3.89289822-2.51088706-6.21039566-2.47062117l-56.50805523.99353355c-4.31254572.07703-7.91108467 3.31407867-8.4404562 7.59257241h-.00219675z"/>
    <g opacity=".34">
      <path fill="rgb(149,34,117)" fill-rule="evenodd" d="M82.53567843 53.70711244c-.31688095 5.69607605-2.53834268 8.15685556-7.04002916 8.52792113l-62.02079512 5.15484728c-2.59632908.21312257-5.150725-.75318192-6.95524249-2.6311043-1.80451749-1.87792238-2.66744872-4.46795644-2.34963417-7.05227989L7.7221195 30.22294342l74.81355892 23.48416902z"/>
    </g>
    <ellipse cx="63.291" cy="11.873" fill="url(#linearGradient-7)" rx="11.306" ry="11.3"/>
    <ellipse cx="31.107" cy="14.303" fill="url(#linearGradient-9)" rx="11.125" ry="11.119"/>
    <path fill="rgb(26,26,26)" fill-rule="evenodd" d="M21.03935697 15.83262543C21.0339813 11.20549377 23.8987141 7.05960164 28.230076 5.42608926c4.33136189-1.63351237 9.22216113-.41251035 12.27631533 3.06481725-2.22878019-3.5435244-6.26085827-5.5344165-10.43085926-5.15037524-4.17000098.38404125-7.77020698 3.0778377-9.31361974 6.96876676-1.54341276 3.89092905-.7680897 8.3186359 2.00573637 11.45433846-1.12845307-1.77260411-1.72797543-3.8299962-1.72829173-5.93101106z"/>
    <path fill="rgb(26,26,26)" fill-rule="evenodd" d="M73.45212415 9.39222258c-1.61608695-4.38795893-5.7667-7.32989173-10.44428322-7.40285327-4.67758321-.07296153-8.91802144 2.73808659-10.67031237 7.07350513 1.12515238-4.87497858 5.3203308-8.4323922 10.31588861-8.74763332C67.64897497 0 72.25848052 3.00180028 73.98813074 7.69662858c.91383928 2.56916598.847354 5.38497898-.1867236 7.90819772.48108516-2.06106636.35965878-4.21688304-.34983217-6.21095698l.00054918-.00164674z"/>
    <ellipse cx="31.731" cy="16.222" fill="rgb(26,26,26)" rx="4.01" ry="4.008"/>
    <ellipse cx="62.447" cy="15.218" fill="rgb(26,26,26)" rx="3.932" ry="3.93"/>
    <path fill="rgb(238,205,214)" fill-rule="evenodd" d="M24.5997368 42.50488442s10.77505047 20.02546464 27.02000425 14.0867688c16.24495377-5.93869585 16.40806233-14.68782915 16.40806233-14.68782915s-15.69796344 18.3770772-43.42806658.60106035z"/>
    <g>
      <g>
        <path fill="rgb(255,255,255)" fill-rule="evenodd" d="M44.07061547 52.71193214l-.6672623-.04610874c-.60292399-.04133315-1.05823434-.56325407-1.01709447-1.1658924l.15926425-2.32739352 2.84973175.19486432-.15926425 2.32739351c-.04135444.60292653-.56378086 1.0582555-1.16702254 1.01713683h.00164756z"/>
        <path fill="rgb(51,17,31)" fill-rule="evenodd" d="M44.0579845 52.89142609h.08787536l.002182.00054931c.66468812-.00257873 1.21519471-.51644897 1.26313783-1.17906952l.17189025-2.50304412-3.20065307-.21956635-.17190552 2.50304413c-.04710388.69901275.48094177 1.30415344 1.1802063 1.3525238l.66726684.04556275zm.69236755-.57539368c-.18395996.16027832-.4242096.24072266-.66764832.22354126l-.66726684-.04610443c-.24339295-.0163269-.47027588-.12883759-.63052368-.31269074-.16023255-.18384552-.24064637-.42389679-.22344971-.66712188l.14881897-2.15338898 2.5015564.17126465-.14883423 2.15393066c-.01618958.24338532-.12869263.47029114-.3126526.63056946z"/>
      </g>
      <g>
        <path fill="rgb(255,255,255)" fill-rule="evenodd" d="M46.69353295 52.88978014l-.6672623-.04555983c-.60292398-.04133315-1.05823434-.56325407-1.01709447-1.1658924l.15926426-2.32739352 2.84973175.1981578-.15926426 2.3273935c-.04307485.60153635-.56507597 1.05477595-1.16702254 1.01329445h.00164756z"/>
        <path fill="rgb(51,17,31)" fill-rule="evenodd" d="M46.6809093 53.0615921c.02940369.00242615.05891418.00334168.08842468.00273895l.0016327.00054932c.66596984-.00243378 1.21708678-.51831818 1.26313781-1.18235779l.17189026-2.5024948-3.20065308-.21956635-.17190552 2.50304412c-.04710388.69901276.48094178 1.30415345 1.1802063 1.3525238l.66726685.04556275zm-1.49710083-1.37503052l.14883423-2.15338897 2.50209045.17180633-.14881897 2.15338898c-.03866577.5043869-.47512817.88442993-.9803009.8535614l-.66726685-.04555511c-.5065918-.0348816-.88908386-.47344971-.85453796-.97981263z"/>
      </g>
      <path fill="rgb(26,26,26)" fill-rule="evenodd" d="M66.96127429 41.00196075c.38568115-.44881439 1.01179504-.60718536 1.56463623-.3957672.54971313.21118926.90840149.74368285.89736938 1.33220672-.00712585.3952179-.37728881 9.77450561-17.32794189 15.97338867-2.0763855.77424622-4.27307129 1.17652893-6.48919678 1.18840027-13.51768493 0-21.89224243-15.27462006-22.24208069-15.92507935-.30274963-.56189727-.18707275-1.25731659.28128052-1.69107818.46836853-.4337616 1.17092896-.49611664 1.7084198-.15162659 7.78857422 4.9934616 15.32781983 7.52505493 22.40135193 7.52505493 7.2002716.07893372 14.1268158-2.75408935 19.2061615-7.85549927zm-42.3631897 1.50895691s10.77560425 20.02546692 27.02000427 14.0867691l-.00054931.00219727c16.24330139-5.94363403 16.4080658-14.68782806 16.4080658-14.68782806s-15.69741822 18.36884308-43.42752076.5988617z"/>
    </g>
  </g>
</svg>
