<svg xmlns="http://www.w3.org/2000/svg" viewBox="0 0 1715.4 3513.97"><title>BoyMovie</title><ellipse cx="959.76" cy="3458.8" rx="744.5" ry="55.18" opacity="0.11"/><path d="M1128.11,3325.58c.54,5.82,189.9-1.36,190.17-8.44,2.26-61.58-.4-875.36.25-911.06l-270.23,84.36C1055.69,2551.38,1124.16,3283.53,1128.11,3325.58Z" fill="#ffc19f"/><path d="M1111.1,3347.33c.4,4.51,240.94,4.82,241.62-.87,5.13-42.11,1.45-143.16,3.68-167.6H1101.77C1105.71,3224.52,1108.54,3318.39,1111.1,3347.33Z" fill="#9dcecc"/><path d="M1398.8,3282.78c-3.24-12.85-10.16-29.16-15.47-44.07-3.93-11.06-111.37-11.39-112.18,15a158.84,158.84,0,0,0,.4,18.14c-18.38-.18-38.3-.79-59.33-2-45.72-2.55-86.67-7.08-115.35-12.22-2.68,41.69-.45,114-3,160.35,0,0,477.37,99.05,554.23,31C1669.72,3429.85,1551.13,3340.5,1398.8,3282.78Z" fill="#2d8f91"/><path d="M1094.81,3388.92c-.21,10.31-.49,20.25-1,29.07,0,0,477.37,99.05,554.23,31,3-2.7,3.27-6.82,1-12C1516.35,3463.1,1213.55,3411.29,1094.81,3388.92Z" fill="#19555b"/><path d="M1432.08,3296.92a6.71,6.71,0,0,0,3.15-13.05c-27.71-6.59-60.39,5.66-79.48,30a6.71,6.71,0,0,0,1.14,9.42,6.8,6.8,0,0,0,3.76,1.42,6.73,6.73,0,0,0,5.65-2.56C1382.27,3301.8,1409.31,3291.33,1432.08,3296.92Zm36.51,17.67c3.62.76,7.05-2.07,7.55-5.74a6.71,6.71,0,0,0-5.75-7.54c-29.27-4-58.45,6.41-80.1,28.43a6.71,6.71,0,0,0,9.56,9.41C1425.39,3313.17,1453.86,3312.6,1468.59,3314.59Zm40.35,6.14c-26.34-5.11-60.58,6.4-83.4,27.83a6.71,6.71,0,1,0,9.18,9.78c19.88-18.67,49.47-29,71.69-24.44a6.6,6.6,0,0,0,7.85-5.32A6.7,6.7,0,0,0,1508.94,3320.73Z" fill="#d3dae5"/><path d="M791.12,3325.58c-.54,5.82-189.91-1.36-190.17-8.44-2.26-61.58.4-875.36-.26-911.06l270.24,84.36C863.54,2551.38,795.07,3283.53,791.12,3325.58Z" fill="#ffc19f"/><path d="M808.13,3347.33c-.4,4.51-240.94,4.82-241.63-.87-5.12-42.11-1.44-143.16-3.68-167.6H817.46C813.51,3224.52,810.68,3318.39,808.13,3347.33Z" fill="#9dcecc"/><path d="M520.43,3282.78c3.24-12.85,10.16-29.16,15.46-44.07,3.94-11.06,111.37-11.39,112.19,15a161.17,161.17,0,0,1-.4,18.14c18.38-.18,38.3-.79,59.33-2,45.72-2.55,86.66-7.08,115.35-12.22,2.68,41.69.44,114,3,160.35,0,0-477.37,99.05-554.23,31C249.5,3429.85,368.1,3340.5,520.43,3282.78Z" fill="#2d8f91"/><path d="M824.41,3388.92c.21,10.31.5,20.25,1,29.07,0,0-477.37,99.05-554.23,31-3.06-2.7-3.27-6.82-1.05-12C402.88,3463.1,705.68,3411.29,824.41,3388.92Z" fill="#19555b"/><path d="M552.93,3322.12a6.72,6.72,0,0,0,5.65,2.56,6.8,6.8,0,0,0,3.76-1.42,6.7,6.7,0,0,0,1.13-9.42c-19.09-24.31-51.76-36.56-79.47-30a6.71,6.71,0,0,0,3.14,13.05C509.91,3291.33,537,3301.8,552.93,3322.12Zm-33.56,17a6.71,6.71,0,0,0,9.57-9.41c-21.65-22-50.83-32.46-80.1-28.43a6.7,6.7,0,0,0-5.75,7.54c.5,3.67,3.92,6.5,7.54,5.74C465.37,3312.6,493.83,3313.17,519.37,3339.15ZM405,3328.58a6.6,6.6,0,0,0,7.85,5.32c22.22-4.6,51.8,5.77,71.69,24.44a6.74,6.74,0,0,0,5,1.81,6.71,6.71,0,0,0,4.21-11.59c-22.82-21.43-57.06-32.94-83.4-27.83A6.7,6.7,0,0,0,405,3328.58Z" fill="#d3dae5"/><path d="M538.27,2720.65c37.83,10,293,18.44,342.76,19.12,10.12-105.08,21-154.22,40.5-289.23,5.48-38.09,54.65-40.48,61.93-.84,4.54,24.7,28.59,138.67,48.17,290.07,80.29,4.36,279.11-10.61,348.65-27.86,0,0-46.39-573.8-59.49-727.33-135.29-15.27-596.94-14.9-742.42,2C563.66,2129.85,549.93,2499.16,538.27,2720.65Z" fill="#dd4e07"/><path d="M291.84,2136.31c-12.65,15.57-127.13-74.53-115.4-90.9,175.38-244.61,369.09-579.13,406.3-647.65l165.82,133.17C644.86,1670.09,459.07,1930.61,291.84,2136.31Z" fill="#ffc19f"/><path d="M337.1,1700.89c58.8,35.14,182.71,115.94,248.58,135.67,88.23-113,171.23-457.59,171.15-468.53-77.47,4.9-167.49,15.1-192.39,28.6C520.29,1454.76,400.38,1606.13,337.1,1700.89Z" fill="#fa0"/><path d="M1522.87,1979.79c12.62,15.6,125.24-73.33,115.4-90.89-92.5-165-185.41-297.21-222.62-365.73l-184.58,83.5C1334.76,1745.83,1420.68,1853.49,1522.87,1979.79Z" fill="#ffc19f"/><path d="M1569.34,1702c-58.8,35.14-182.71,115.94-248.57,135.66-88.24-113-171.24-457.58-171.15-468.53,77.46,4.9,167.48,15.1,192.38,28.6C1386.16,1455.89,1506.06,1607.26,1569.34,1702Z" fill="#fa0"/><path d="M1341.94,2240.13c-6.71-113.47-22.72-222.22-24.64-259.2-135.29-15.27-593.36-15.13-738.84,1.77-8,49.91-13.68,166.27-18.38,308.39C764.62,2353.89,1106.68,2339,1341.94,2240.13Z" opacity="0.22"/><path d="M530.05,2224.15c201.81,119.1,596.6,108.09,841-9.88,0,0-77.11-668.62-108.55-825.16-169.63-46.81-485.85-33.88-641.19-7.44C598.77,1581.39,556.44,1929.16,530.05,2224.15Z" fill="#fa0"/><g opacity="0.34"><path d="M973.58,1666l34.57,70a21.09,21.09,0,0,0,15.9,11.55l77.29,11.24a21.11,21.11,0,0,1,11.7,36l-55.93,54.52A21.06,21.06,0,0,0,1051,1868l13.2,77a21.11,21.11,0,0,1-30.63,22.25l-69.13-36.35a21.08,21.08,0,0,0-19.65,0l-69.14,36.35A21.11,21.11,0,0,1,845.06,1945l13.2-77a21.08,21.08,0,0,0-6.06-18.68l-55.94-54.52a21.11,21.11,0,0,1,11.7-36l77.3-11.24a21.12,21.12,0,0,0,15.9-11.55l34.56-70A21.11,21.11,0,0,1,973.58,1666Z" fill="#fff"/></g><path d="M1134.48,1396c.45-10.11-1.25-19.85-3.68-29.44-103.82-7-259.75-9.27-371-.4-.85,4.36-2.7,8.44-2.9,13-3.5,78.2,78.18,145.37,182.44,150S1131,1474.23,1134.48,1396Z" fill="#dd4e07"/><path d="M1079.11,1179.36l-2.39,220.87c-.51,47.49-61.3,85.36-135.76,84.55s-134.41-40-133.9-87.48l2.4-220.87Z" fill="#ffc19f"/><path d="M1138.74,1269.55c.44-9.72-1.2-19.08-3.53-28.29-99.77-6.74-249.62-8.9-356.48-.38-.82,4.19-2.6,8.11-2.79,12.46-3.37,75.15,75.12,139.7,175.31,144.17S1135.38,1344.71,1138.74,1269.55Z" fill="#601805" opacity="0.19"/><path d="M406.82,704.65c93.75-11.53,181.82,79.89,196.62,203.51s-4.67,228.45-98.45,239.68-217.2-70.92-248.74-199.45C226.63,827.58,278.66,720.43,406.82,704.65Z" fill="#ffc19f"/><path d="M373,996.83c18.5,51.37,70.2,79.79,115.51,63.5s67-71.16,48.53-122.52S466.85,858,421.57,874.31,354.54,945.47,373,996.83Z" fill="#e0956c"/><path d="M1505.38,704.65c-93.75-11.53-181.82,79.89-196.62,203.51s4.66,228.45,98.44,239.68,217.2-70.92,248.74-199.45C1685.57,827.58,1633.53,720.43,1505.38,704.65Z" fill="#ffc19f"/><path d="M1539.19,996.83c-18.5,51.37-70.2,79.79-115.51,63.5s-67-71.16-48.53-122.52,70.19-79.78,115.47-63.5S1557.66,945.47,1539.19,996.83Z" fill="#e0956c"/><path d="M323.06,472C283.74,907.19,600.11,1189,959.1,1182S1607.6,852.93,1563,430.74C1538.23,196.32,1294.92-8.64,952,.28,593.08,9.62,351,162.45,323.06,472Z" fill="#84220f"/><path d="M1466.4,410.91c-77.94-216.57-265.8-219.66-511.75-219.66s-433.8,3.09-511.74,219.66c-23.51,65.32-3.27,604,64,724.8,56.89,102,275.4,202.34,427.77,202.34h39.88c152.38,0,370.88-100.3,427.77-202.34C1469.67,1014.94,1489.9,476.23,1466.4,410.91Z" fill="#ffc19f"/><path d="M513.31,1003c-1.49,25.18,32.29,47.67,75.47,50.23s79.37-15.78,80.87-41-32.31-47.67-75.47-50.22S514.8,977.86,513.31,1003Z" fill="#ff9797"/><path d="M1232.72,1014.46c2,25.15,38.62,42.7,81.74,39.21s76.39-26.7,74.35-51.85-38.64-42.69-81.73-39.2S1230.68,989.32,1232.72,1014.46Z" fill="#ff9797"/><path d="M1163.46,1032.82c-8.27-43.11-74.54-31.95-182.77-32.67-5.66,0-27.68,0-33.36,0-108.23.72-174.49-10.44-182.75,32.67-15.93,83,88.55,173.76,198.48,174.09H965C1074.89,1206.58,1179.38,1115.87,1163.46,1032.82Z" fill="#701608"/><path d="M965,1208.64h-1.9c-35.65-.13-72.62-10.24-107-29.15l-2.1-1.11,1.78-1.58c28.56-25.6,67-39.72,108.33-39.72s79.7,14.12,108.33,39.72l1.77,1.58-2.1,1.11C1037.57,1198.4,1000.53,1208.51,965,1208.64Z" fill="#dd6b5b"/><path d="M964,1055.53c-75.64,0-138.6-23.43-146.48-54.55l-.46-1.9H1111l-.45,1.9C1102.56,1032.1,1039.6,1055.53,964,1055.53Z" fill="#fff"/><path d="M908.47,947.4a5.8,5.8,0,0,0,5.62-5c2.95-20.21,18.62-33.55,39.94-34s38,12.55,41.21,32.25a5.8,5.8,0,1,0,11.44-1.86c-4.12-25.25-25.86-42.51-52.88-42-26.86.52-47.43,18.16-51.19,43.88a5.8,5.8,0,0,0,4.9,6.58Z" fill="#c4735b"/><path d="M225.1,688.53c74.58-26.42,121.1-74.6,125.35-196.16-43-9.21-63.51-21.81-105-35.6,161.21-40.78,137.51-271,348-367.22C938.45-41,1253,55,1343.67,107.7c167,97.17,187.61,228.1,199.65,374.89,23.07,133,52.72,172.31,122.23,202.57-74.76,21.65-119,2.23-144.32-23.59,7.42,83.68,46.31,110.19,89.31,147.25-116.69,5.93-181.68-91.53-202.68-175.73-23.33-93.5,13.11-196.54-1.62-233.18-8.52-21.19-85.37-143.62-117.59-144.55-70.24-2-147.35,242-396,238.05C993,439.38,1047.78,362.93,1103,254a386.63,386.63,0,0,0-58.42,42.9C840.57,477.6,622.39,503.55,447,488.44,476,630.92,518.56,780.24,297,848.32c20.11-24.87,49.46-99.59,53.76-158.63C327,704.35,283.51,717.24,225.1,688.53Z" fill="#84220f"/><path d="M549.11,588.23a18.17,18.17,0,0,1-12.44-31.58c53.88-49.16,151.44-63.72,231.94-34.71a18.17,18.17,0,0,1-12.34,34.19c-67.47-24.4-151.35-12.66-195.1,27.34A18.05,18.05,0,0,1,549.11,588.23Z" fill="#4c0b00"/><path d="M1355.11,588.23a18.17,18.17,0,0,0,12.44-31.58c-53.88-49.16-151.44-63.72-231.94-34.71A18.17,18.17,0,0,0,1148,556.13c67.47-24.4,151.35-12.66,195.1,27.34A18,18,0,0,0,1355.11,588.23Z" fill="#4c0b00"/><path d="M1085.43,907.9s173.14,55.22,239.06-36c80.32-111.12-42.75-198.8-122.52-181.64C1128.16,706.17,1061.13,770.19,1085.43,907.9Z" fill="#f9feff"/><path d="M1337.44,730.14c-32.08-40.33-75.22-53-122-48.32-47.82,4.8-96.23,38.74-109.9,73.73,25.69-39.43,70-53.86,97.62-59.79,43.94-9.51,101.58,10.21,127.53,49.92,23.06,35.33,21.13,88.35-8.36,129.13C1357.16,847.08,1370.89,772.18,1337.44,730.14Z" fill="#773220"/><path d="M1124.78,791.54a77.81,77.81,0,1,0,101-43.55A77.81,77.81,0,0,0,1124.78,791.54Z" fill="#63190d"/><path d="M1131.07,779.16a21.59,21.59,0,1,0,28-12.08A21.59,21.59,0,0,0,1131.07,779.16Z" fill="#fefffe"/><path d="M824,908.73s-173.1,55.34-239.09-35.81c-80.4-111.06,42.61-198.83,122.39-181.72C781.09,707,848.15,771,824,908.73Z" fill="#f9feff"/><path d="M571.82,731.15c32.06-40.36,75.18-53.07,122-48.41,47.82,4.77,96.26,38.67,110,73.66C778,717,733.68,702.58,706.08,696.67c-44-9.47-101.58,10.28-127.49,50C555.54,782,557.52,835,587,875.8,552.18,848.1,538.4,773.2,571.82,731.15Z" fill="#773220"/><path d="M643.71,793.34a77.8,77.8,0,1,0,101-43.56A77.81,77.81,0,0,0,643.71,793.34Z" fill="#63190d"/><path d="M650,781a21.59,21.59,0,1,0,28-12.09A21.59,21.59,0,0,0,650,781Z" fill="#fefffe"/><path d="M309.53,1408c5.63,25-10.85,50-36.82,55.83s-51.57-9.66-57.21-34.63,10.85-50,36.82-55.83S303.9,1383.06,309.53,1408Z" fill="#fff3c0"/><path d="M9.12,1626.52l198.44,530.9C212.68,2180.16,323,2174.65,437,2149s216-68.08,210.86-90.81l-48.6-564.68Z" fill="#efe4e4"/><path d="M437,2149c8-1.8,15.92-3.71,23.76-5.67L335,1553l-61.15,13.79,139.73,587.11Q425.24,2151.59,437,2149Z" fill="#ec3633"/><path d="M558.12,1502.74l-10.89,2.45,70,582.79c20.71-11.32,32.45-21.81,30.63-29.84l-48.17-560.77Z" fill="#ec3633"/><path d="M518.08,2127.31c16.58-5.14,32.09-10.5,46.39-15.9l-92-587.49-40.39,7.22L411,1535.92Z" fill="#ec3633"/><path d="M61.38,1614.74l-10.89,2.46-40.07,13.07,197.14,527.15c1.81,8.06,17,12.5,40.74,13.83Z" fill="#ec3633"/><path d="M197.64,1584l-21.15,4.77-39.58,10.8L306,2169.74c15.24-1.27,31.54-3.1,48.73-5.57Z" fill="#ec3633"/><path d="M234.12,2110.69,34.37,1620.83l-25.25,5.69,198.44,530.9C212.68,2180.16,323,2174.65,437,2149c107.86-24.32,203.83-63.37,209.62-86.79C445.64,2133.88,254.44,2145.36,234.12,2110.69Z" fill="#7c0404" opacity="0.15"/><path d="M49.89,1735.82c57.68,5.84,165.05-12.79,287.63-51.58,124-39.24,225.93-88.48,268.89-126.62l-7.16-64.16L9.12,1626.52Z" fill="#601d1d" opacity="0.15"/><path d="M.31,1629.18,6.58,1657c7.56,33.49,149.79,30,317.69-7.91s297.9-95.7,290.34-129.19l-6.27-27.81Z" fill="#efe4e4"/><path d="M608.34,1492.08c7.56,33.5-122.43,91.34-290.34,129.2S7.87,1662.68.31,1629.18,122.75,1537.85,290.65,1500,600.79,1458.59,608.34,1492.08Z" fill="#fff"/><path d="M579.5,1493.84c5.76,25.55-113.22,74.14-265.76,108.54s-280.85,41.56-286.61,16,113.22-74.14,265.75-108.54S573.74,1468.29,579.5,1493.84Z" fill="#fff3c0"/><path d="M107,1577.14c5.18,22.94-12.19,46.39-38.78,52.39s-52.34-7.74-57.51-30.67,12.19-46.39,38.78-52.39S101.81,1554.21,107,1577.14Z" fill="#fff3c0"/><path d="M119.44,1579c5.17,22.93-10.59,46-35.21,51.57s-48.77-8.54-53.94-31.47,10.59-46,35.21-51.58S114.27,1556.08,119.44,1579Z" fill="#efc57b"/><path d="M123.72,1526.78c5.17,22.93-10,45.89-33.8,51.26s-47.37-8.86-52.54-31.79,10-45.89,33.81-51.26S118.55,1503.84,123.72,1526.78Z" fill="#fff3c0"/><path d="M197.83,1528.27c6.44,28.57-12.41,57.15-42.11,63.85s-59-11-65.43-39.59,12.42-57.16,42.11-63.85S191.39,1499.71,197.83,1528.27Z" fill="#fff3c0"/><path d="M251.44,1468.66c5.64,25-10.85,50-36.82,55.83s-51.57-9.65-57.21-34.63,10.85-50,36.82-55.83S245.81,1443.69,251.44,1468.66Z" fill="#fff3c0"/><path d="M373,1430.67c5.64,25-10.85,50-36.81,55.83s-51.58-9.65-57.22-34.63,10.85-50,36.82-55.83S367.39,1405.69,373,1430.67Z" fill="#fff3c0"/><path d="M584.12,1465.67c5.63,25-10.85,50-36.82,55.82s-51.57-9.64-57.21-34.62,10.85-50,36.82-55.83S578.49,1440.69,584.12,1465.67Z" fill="#fff3c0"/><path d="M529.34,1453.05c5.88,26.07-12.91,52.51-42,59.07s-57.38-9.27-63.26-35.34,12.92-52.51,42-59.07S523.46,1427,529.34,1453.05Z" fill="#efc57b"/><path d="M517,1456.32c5.63,25-10.86,50-36.82,55.82s-51.58-9.64-57.22-34.62,10.86-50,36.82-55.82S511.32,1431.34,517,1456.32Z" fill="#fff3c0"/><path d="M435.1,1467.42c5.64,25-10.85,50-36.81,55.82s-51.58-9.64-57.22-34.62,10.85-50,36.82-55.83S429.47,1442.44,435.1,1467.42Z" fill="#fff3c0"/><path d="M371.63,1474.62c5.63,25-10.85,50-36.81,55.83s-51.59-9.65-57.22-34.63,10.85-50,36.82-55.82S366,1449.65,371.63,1474.62Z" fill="#fff3c0"/><path d="M299.75,1482.26c5.63,25-10.85,50-36.81,55.84s-51.58-9.66-57.22-34.63,10.85-50,36.82-55.83S294.12,1457.29,299.75,1482.26Z" fill="#fff3c0"/><path d="M346.15,1512.56c5.63,25-10.85,50-36.81,55.83s-51.58-9.64-57.22-34.62,10.86-50,36.82-55.83S340.52,1487.59,346.15,1512.56Z" fill="#efc57b"/><ellipse cx="350.82" cy="1493.31" rx="43.17" ry="41.53" transform="translate(-319.5 113.56) rotate(-12.69)" fill="#efc57b"/><path d="M261.64,1513.89c5.63,25-10.85,50-36.82,55.83s-51.58-9.66-57.21-34.63,10.85-50,36.82-55.83S256,1488.91,261.64,1513.89Z" fill="#fff3c0"/><path d="M378.55,1472.67c4.86,21.57-9.37,43.16-31.8,48.21s-44.54-8.32-49.41-29.89,9.38-43.15,31.8-48.22S373.68,1451.11,378.55,1472.67Z" fill="#fff3c0"/><path d="M335.52,1511.06c5.63,25-10.86,50-36.82,55.83s-51.59-9.65-57.21-34.63,10.85-50,36.81-55.83S329.88,1486.09,335.52,1511.06Z" fill="#fff3c0"/><path d="M248.39,1536.62c-4.1-18.18-22.75-29.46-41.66-25.2s-30.79,22.8-26.68,41c-8.12-7.16-19.54-10.14-31.19-7.52-18.91,4.27-30.91,22.47-26.8,40.65s22.74,29.47,41.65,25.2a35.77,35.77,0,0,0,14.25-6.87,35.11,35.11,0,0,0,35.1,11.93c18.91-4.26,30.91-22.46,26.81-40.64a32.5,32.5,0,0,0-2.15-6.35C246.59,1560.8,251.12,1548.76,248.39,1536.62Z" fill="#efc57b"/><path d="M237.29,1513.64c-4.42-19.56-24.48-31.71-44.81-27.12-19.71,4.44-32.3,23-29,41.94a38.27,38.27,0,0,0-25.81-3.28c-20.33,4.59-33.24,24.17-28.83,43.72s24.47,31.7,44.8,27.12a38.75,38.75,0,0,0,14.2-6.44c7.81,7.69,18.85,11.84,30.34,9.25A33.3,33.3,0,0,0,223.3,1559c-.56-2.48-1.93-4.46-3-6.65C233.43,1544.26,240.75,1529,237.29,1513.64Z" fill="#fff3c0"/><path d="M126.69,1569c5.34,23.72-11.67,47.77-38,53.71s-52-8.49-57.36-32.21,11.66-47.77,38-53.71S121.33,1545.28,126.69,1569Z" fill="#fff3c0"/><path d="M1620.37,1684.08l-75.6,422.77c-1,13.51-60.28,20.1-132.38,14.72s-129.74-20.69-128.74-34.21l-12-429.3Z" fill="#2ba7f0"/><g opacity="0.2"><path d="M1309.42,2059c3.31,14.22,17.25,42.05,228,50.26,2.34.09,3.76-.1,5.92-.1-7.39,11.9-63.16,17.5-130.91,12.44-72.11-5.38-129.74-20.69-128.74-34.21l-12-429.3,7.43.56Z" fill="#004ca2"/></g><g opacity="0.22"><path d="M1616.72,1704.51c-34.09,8.15-98.13,12.2-172,9.49-74.77-2.74-139.13-11.64-172.16-22.43l-.94-33.51,348.74,26Z" fill="#004ca2"/></g><path d="M1647.12,1626.91l-4.4,58.84-.9-.07c-9.94,11.81-94.85,15.3-197.48,7.65s-186.09-23.72-194.16-36.87l-.9-.07,4.39-58.83Z" fill="#45b5f3"/><path d="M1253.67,1597.56c-1,13.51,86.24,31,194.89,39.14s197.54,3.73,198.56-9.79-86.26-31-194.9-39.15S1254.68,1584,1253.67,1597.56Z" fill="#61cef1"/><path d="M1455.65,1626.57a12.89,12.89,0,0,1-2-.31A13.51,13.51,0,0,1,1443.5,1610l34.59-153.65a13.49,13.49,0,0,1,11.4-10.31l117.72-15.22c7.7-1.21,14.17,4.27,15.15,11.65a13.53,13.53,0,0,1-11.65,15.11l-108.42,14-32.49,144.52A13.54,13.54,0,0,1,1455.65,1626.57Z" fill="#edd9d9"/><path d="M1556.28,1786.56c-5.48,35.23-3.14,64.84,5.23,66.14s19.56-26.21,25-61.45,3.12-64.84-5.23-66.14S1561.75,1751.33,1556.28,1786.56Z" fill="#fff" opacity="0.24"/><path d="M1533.94,1855.61c-2.1,28.14-45.55,47.85-97,44s-91.53-29.77-89.43-57.91,45.54-47.85,97-44S1536,1827.46,1533.94,1855.61Z" fill="#ffd252"/><path d="M50.08,2022.07c-37.58-25.39-13.62-44.53-16.86-55.5a7.83,7.83,0,0,0-3.38-4.29c-22.27-14.77-14.56-61.41-21.07-69.12-21.31-25.23,36.86-50.5,56.11-67.08,12.73-8.82,23.75-18.59,62.64-34.89,31.06-13,118.84-6,123.18,5.34,16.49,43.06-61.14,41.63-91.64,51.37-10.61,3.39-37.93,22.61-53,37.14,26.63.59,72.9-9.17,90.65-10.2,34.2-2,107.21-16.45,121.14,4.21,10.88,16.14-32.47,36-89.3,50.34-13.79,3.48-64.42,17.95-97.06,28.38.33,1.47,77.57-.07,88.51-3.15,32.43-9.13,93.46-38.75,104.64-.19-4.17,10.32-74.81,51-105.4,57.2-15.37,3.12-36.06,7.17-77.58,12,25,3,58.32,5,68,4.87,46-21.46,82.65-35.39,97.23-10.57,4.41,7.5-67.12,57.87-95.76,61.26-60.08,7.11-115.48,6.1-139.46-3.92C41.53,2062.66,62.62,2030.54,50.08,2022.07Z" fill="#ffc19f"/><path d="M1667.22,1997.3c36.62-23,14.38-42,17.81-52.38a7.4,7.4,0,0,1,3.36-4c21.68-13.38,15.79-58.09,22.24-65.24,21.1-23.38-33.56-49.28-51.39-65.69-11.87-8.81-22.07-18.47-58.62-35.22-29.2-13.38-113.1-9.43-117.59,1.24-17.07,40.53,57,41.59,85.75,51.84,10,3.56,35.44,22.74,49.38,37.06-25.4-.28-69.21-11-86.09-12.56-32.55-3-101.69-19-115.62.23-10.88,15,29.84,35.3,83.56,50.77,13,3.75,60.84,19.13,91.63,30.09-.35,1.4-73.94-2.49-84.27-5.77-30.63-9.71-87.88-39.85-99.74-3.45,3.64,10,69.72,51,98.69,57.83,14.55,3.45,34.14,8,73.58,13.84-24,2.1-55.76,2.95-65,2.51-43.21-21.89-77.68-36.32-92.36-13.11-4.43,7,62.18,57.27,89.38,61.39,57,8.65,109.88,9.42,133.06.62C1674.11,2036.25,1655,2005,1667.22,1997.3Z" fill="#ffc19f"/><g opacity="0.65"><path d="M1129.82,964.13h323.49c29.88,0,54.09-22.31,54.09-49.83V706.78c0-27.53-24.21-49.83-54.09-49.83H1079c-29.88,0-54.11,22.3-54.11,49.83V868.37A48,48,0,0,0,1041.08,904L1092,949.89A56.58,56.58,0,0,0,1129.82,964.13Z" fill="#025aa3"/></g><path d="M1453.32,981h-323.5a73.33,73.33,0,0,1-49.17-18.55l-51-46A65.19,65.19,0,0,1,1008,868.36V706.77c0-36.78,31.83-66.7,71-66.7h374.38c39.15,0,71,29.92,71,66.7V914.29C1524.3,951.07,1492.47,981,1453.32,981ZM1078.94,673.82c-20.57,0-37.24,14.79-37.24,32.95V868.36a30.78,30.78,0,0,0,10.68,23.06l50.88,45.94a39.48,39.48,0,0,0,26.56,9.89h323.5c20.56,0,37.23-14.8,37.23-33V706.77c0-18.16-16.67-32.95-37.23-32.95Z" fill="#fff"/><g opacity="0.65"><path d="M788.74,964.13H465.25c-29.88,0-54.1-22.31-54.1-49.83V706.78c0-27.53,24.22-49.83,54.1-49.83H839.62c29.87,0,54.09,22.3,54.09,49.83V868.37A48,48,0,0,1,877.48,904l-50.87,45.94A56.6,56.6,0,0,1,788.74,964.13Z" fill="#d62209"/></g><path d="M788.73,981H465.24c-39.15,0-71-29.92-71-66.7V706.77c0-36.78,31.83-66.7,71-66.7H839.62c39.15,0,71,29.92,71,66.7V868.36a65.2,65.2,0,0,1-21.75,48.11L838,962.41A73.48,73.48,0,0,1,788.73,981ZM465.24,673.82c-20.57,0-37.24,14.79-37.24,32.95V914.29c0,18.16,16.67,33,37.24,33H788.73a39.63,39.63,0,0,0,26.63-9.92l50.82-45.91a30.78,30.78,0,0,0,10.68-23.06V706.77c0-18.16-16.68-32.95-37.24-32.95Z" fill="#fff"/><rect x="362.41" y="709.57" width="48.74" height="108.17" fill="#fff"/><rect x="1507.4" y="709.57" width="48.74" height="108.17" fill="#fff"/><rect x="882.26" y="733.96" width="131.14" height="59.39" fill="#fff"/></svg>