<svg xmlns="http://www.w3.org/2000/svg" viewBox="0 0 2554.34 3322.73"><title>girls </title><path d="M671.05,1490.43C549.2,1187.28,571.12,834.14,729.54,357.28l2.67,14.09c2.29-8.66,4.41-17.15,6.78-25.91l1178.46,33c1.77,8.68,3.46,17.08,5.2,25.64l13-8.12c147.94,488,160.32,780.39,148.61,963.36-4.57-87.43-14.56-394-137.46-835,110.2,556.68,145.53,860.5,34.93,954.47,70.27-119.49,11.83-451.11-5.51-492.93-.07,119.27,17.54,347.13-46.63,520.42C1642,1665.1,980.6,1638.1,814.38,1542.4c-7.36-14.23-27.86-349-32.5-395.32-9.62,16-2.82,379.9-6.58,395-102.5-95.85-197.79-390.39-98.63-924.78C586.08,982.16,616.59,1255.12,671.05,1490.43Z" fill="#ad5c49"/><path d="M1671.27,2981.11c-29.22,10.68-151.54,22-189.92,22.93-10.73-122.94-64.5-611.66-87.35-771.69-5.66-39.66-96.25-41.94-104.18-.44-4.89,25.63-90.74,621.34-112.26,774-61.94,4.93-134.6-5.2-188.17-23.07,0,0,52-1040.26,58.61-1199.25,104.42-16.63,480.45-18.39,592.59-1.21C1659.15,1946.53,1658.34,2746.25,1671.27,2981.11Z" fill="#ffc19f"/><path d="M325.79,1209.15c-5.62-9.21,92.31-101.74,99.69-93.87,111.48,118.9,431.46,381.48,465.1,412.91,0,0-170,79.2-276.06,17.06C565.82,1516.72,399.87,1331,325.79,1209.15Z" fill="#ffc19f"/><path d="M684.76,1348.34c9.8,63,26.86,204.68,36.43,274.72,48.27-2.27,258.33-16.58,282.34-21.67,38.47-132,17.16-306,13.33-315.79C1000.09,1287.83,814.44,1321.18,684.76,1348.34Z" fill="#1aa7d3"/><path d="M2314,1212.87c5.61-9.21-92.31-101.74-99.69-93.87-111.48,118.9-431.46,381.48-465.11,412.91,0,0,170,79.2,276.06,17.06C2074,1520.44,2239.92,1334.69,2314,1212.87Z" fill="#ffc19f"/><path d="M1955,1352.07c-9.79,63-26.86,204.67-36.42,274.72-48.28-2.28-258.33-16.59-282.34-21.67-38.48-132,.34-309.66,4.17-319.5C1657.21,1287.86,1825.36,1324.9,1955,1352.07Z" fill="#1aa7d3"/><path d="M242.17,701.94c3.24,24.46,26.47,41.55,51.88,38.19s43.41-25.92,40.17-50.37-26.46-41.55-51.88-38.18S238.94,677.49,242.17,701.94Z" fill="#fff3c0"/><path d="M585.34,799.28v546c2.95,22.25-99.79,54-211.38,68.82S156,1424.57,153.1,1402.31L8.79,875.73Z" fill="#efe4e4"/><path d="M374,1414.09c-7.83,1-15.62,2-23.37,2.81l-83.1-575.4,59.87-7.93,69.42,577.22Q385.46,1412.56,374,1414.09Z" fill="#ff2727"/><path d="M49.05,870.4,59.72,869l131,550.08c-22.49-3.34-36.6-8.9-37.64-16.76L9.7,879.41Z" fill="#ff2727"/><path d="M293.45,1421.57c-16.69.87-32.5,1.21-47.23,1.1L133.5,861l38.91-6.93,20.7-2.74Z" fill="#ff2727"/><path d="M535.37,806,546,804.63l39.31-1.54v542.18c1,7.88-12.4,17-33.4,26.07Z" fill="#ff2727"/><path d="M402,823.7l20.7-2.74,39.38-3.43,37.25,571.68c-14.19,3.94-29.54,7.72-45.89,11.21Z" fill="#ff2727"/><path d="M544.57,1311.87l17.24-509.32,23.53-3.27v546c2.95,22.25-99.78,54-211.38,68.82-105.59,14-205.35,10.68-218.39-8.56C361.12,1403.35,537.75,1350,544.57,1311.87Z" fill="#7c0404" opacity="0.15"/><path d="M585.34,911.65C535.15,936.16,432.67,955.1,309,960.92c-125.2,5.88-233.7-4.66-285.24-24.81L8.79,875.73l576.55-76.45Z" fill="#601d1d" opacity="0.15"/><path d="M595.38,798.74,599,826c4.34,32.79-125.39,77-289.77,98.76s-301.15,12.8-305.49-20L.11,877.52Z" fill="#efe4e4"/><path d="M.11,877.52c4.34,32.79,141.11,41.74,305.49,20s294.12-66,289.78-98.76-141.12-41.74-305.5-20S-4.23,844.72.11,877.52Z" fill="#fff"/><path d="M26.76,869.49c3.32,25,127.06,29.27,276.39,9.51s267.7-56.06,264.39-81.07-127-29.27-276.38-9.5S23.46,844.48,26.76,869.49Z" fill="#fff3c0"/><path d="M481.62,787.26c3,22.46,26.48,37.87,52.51,34.42s44.73-24.44,41.76-46.89-26.49-37.87-52.52-34.42S478.65,764.81,481.62,787.26Z" fill="#fff3c0"/><path d="M471,793.1c3,22.46,24.92,38.08,49,34.89s41.23-24,38.26-46.43-24.91-38.07-49-34.89S468,770.65,471,793.1Z" fill="#efc57b"/><path d="M449.69,747.32c3,22.45,24.31,38.16,47.65,35.06s39.85-23.79,36.88-46.25-24.3-38.14-47.64-35.06S446.72,724.87,449.69,747.32Z" fill="#fff3c0"/><path d="M383.22,773.38c3.7,28,30.26,47.52,59.33,43.67s49.64-29.64,45.94-57.6-30.27-47.51-59.34-43.67S379.51,745.41,383.22,773.38Z" fill="#fff3c0"/><path d="M314.88,737.37c3.24,24.45,26.47,41.55,51.89,38.19s43.4-25.91,40.17-50.37S380.47,683.64,355.05,687,311.65,712.92,314.88,737.37Z" fill="#fff3c0"/><path d="M192.33,743.57c3.24,24.45,26.46,41.54,51.88,38.18s43.41-25.92,40.17-50.37-26.46-41.55-51.88-38.19S189.09,719.11,192.33,743.57Z" fill="#fff3c0"/><path d="M13.2,845.57c3.23,24.45,26.47,41.55,51.89,38.19s43.4-25.92,40.17-50.38S78.79,791.84,53.37,795.2,10,821.12,13.2,845.57Z" fill="#fff3c0"/><path d="M58.5,815.9c3.38,25.52,29.18,43.16,57.64,39.4s48.77-27.51,45.39-53-29.17-43.16-57.63-39.4S55.13,790.38,58.5,815.9Z" fill="#efc57b"/><path d="M70.8,814.72c3.23,24.46,26.47,41.55,51.89,38.19s43.4-25.92,40.17-50.37S136.39,761,111,764.36,67.56,790.27,70.8,814.72Z" fill="#fff3c0"/><path d="M148.47,797.47c3.23,24.45,26.46,41.55,51.89,38.18s43.4-25.91,40.16-50.36-26.46-41.55-51.88-38.18S145.23,773,148.47,797.47Z" fill="#fff3c0"/><path d="M208.24,782.83c3.24,24.45,26.47,41.54,51.89,38.18s43.41-25.91,40.16-50.37-26.46-41.55-51.88-38.18S205,758.37,208.24,782.83Z" fill="#fff3c0"/><path d="M275.75,765.77c3.24,24.46,26.47,41.55,51.89,38.18s43.41-25.91,40.17-50.36S341.34,712,315.92,715.41,272.52,741.32,275.75,765.77Z" fill="#fff3c0"/><path d="M243.92,808.62c3.23,24.46,26.46,41.56,51.88,38.19S339.2,820.9,336,796.45s-26.46-41.55-51.88-38.19S240.68,784.18,243.92,808.62Z" fill="#efc57b"/><path d="M192.05,798.23c2.9,21.9,23.71,37.21,46.47,34.2s38.88-23.21,36-45.11S250.8,750.1,228,753.12,189.15,776.32,192.05,798.23Z" fill="#efc57b"/><path d="M320.74,781.65c3.24,24.45,26.47,41.54,51.89,38.18s43.4-25.91,40.17-50.37-26.47-41.54-51.89-38.18S317.51,757.19,320.74,781.65Z" fill="#fff3c0"/><path d="M201.34,783.37c2.79,21.12,22.85,35.88,44.81,33s37.48-22.38,34.69-43.5S258,737,236,739.88,198.54,762.25,201.34,783.37Z" fill="#fff3c0"/><path d="M253,803.72c3.23,24.45,26.47,41.55,51.89,38.19s43.4-25.92,40.16-50.38S318.62,750,293.2,753.35,249.79,779.27,253,803.72Z" fill="#fff3c0"/><path d="M340.3,797.78c-2.36-17.8,10.74-34.22,29.24-36.66s35.43,10.34,37.79,28.14c4.94-9.18,14.27-15.68,25.68-17.19,18.5-2.45,35.42,10,37.78,27.79s-10.74,34.22-29.25,36.68a34.46,34.46,0,0,1-15.17-1.47,33.81,33.81,0,0,1-27.76,22.49c-18.5,2.45-35.41-10-37.77-27.8a31.14,31.14,0,0,1-.17-6.46C350,819,341.87,809.66,340.3,797.78Z" fill="#efc57b"/><path d="M342.67,773.3c-2.54-19.15,11.55-36.81,31.46-39.44,19.3-2.56,36.85,10,40.23,28.22a36.86,36.86,0,0,1,22.23-11.56c19.91-2.63,38.1,10.75,40.63,29.9s-11.55,36.81-31.45,39.44a37.41,37.41,0,0,1-15-1.08c-4.49,9.56-13.09,17-24.34,18.47a32.07,32.07,0,0,1-36-27.59c-.32-2.42.26-4.67.48-7C356.36,799.7,344.66,788.35,342.67,773.3Z" fill="#fff3c0"/><path d="M461.1,786.48c3.07,23.23,26.45,39.29,52.23,35.88s44.19-25,41.11-48.23S528,734.84,502.2,738.25,458,763.25,461.1,786.48Z" fill="#fff3c0"/><path d="M2505.48,881.26l-46.27,439.32c0,13.92-60.3,25.06-134.59,24.87s-134.49-11.63-134.46-25.56l-44-438.63Z" fill="#5ac42d"/><g opacity="0.2"><path d="M2214.47,1288.9c4.44,14.33,20.78,41.82,237.34,34.67,2.41-.08,3.85-.37,6.07-.54-6.71,12.74-63.45,22.6-133.26,22.42-74.29-.19-134.49-11.63-134.46-25.56l-44-438.63,7.65-.44Z" fill="#217004"/></g><path d="M2503.24,902.93c-34.33,10.87-99.66,19.75-175.56,22.43-76.84,2.71-143.45-1.66-178.1-10.28l-3.43-33.82h359.33Z" fill="#217004" opacity="0.22"/><path d="M2528.58,820.64v61.14h-1c-9.32,12.83-96.08,22.68-201.83,22.41S2133.29,893.62,2124,880.75h-.93V820.64Z" fill="#64d13b"/><path d="M2123.11,820.64c0,13.92,90.84,24.93,202.79,25.22s202.65-11.3,202.68-25.22S2438,795.71,2326,795.42,2123.15,806.71,2123.11,820.64Z" fill="#88e55c"/><path d="M2332.42,835a13.9,13.9,0,0,1-13.68-16.06l-4.78-160a13.85,13.85,0,0,1,10.92-11.41l119.51-24.3c7.82-1.79,14.84,3.34,16.4,10.83A13.89,13.89,0,0,1,2450,650.34l-110.08,22.4,6.28,150.51A13.93,13.93,0,0,1,2332.42,835Z" fill="#edd9d9"/><path d="M2447.35,991.48c-3,36.51,1.59,66.69,10.25,67.4s18.12-28.3,21.12-64.82-1.57-66.69-10.24-67.4S2450.37,955,2447.35,991.48Z" fill="#fff" opacity="0.24"/><path d="M2429.56,1063.91c-.08,29-43.15,52.39-96.2,52.26s-96-23.76-95.94-52.76,43.15-52.4,96.21-52.26S2429.63,1034.9,2429.56,1063.91Z" fill="#ffe000"/><path d="M2502.25,928c-10.22.31-38,4.69-48.24,6.86-23.38,4.94-43.81,13.86-57.29,25.48-20.24,17.42-21.59,40.21-12,52.55a40.2,40.2,0,0,0,11.05,9.62c-2.44,2.09-5.27,4-7.12,6.3-8.1,9.89-8.91,19.32-8.17,25.46,1.36,11.52,8.89,20.28,19.64,26.9l-1,.65c-7.8,7.35-12,16.11-12.31,25.38-.22,7.34,2.81,14.09,7.25,20.44-15.68,7.42-26,18.49-27.82,31.89-1.19,9.24,1.68,18.41,8.26,26.54,10.55,13,30.08,22.61,53.87,27a159.4,159.4,0,0,0,17.16,2.21c1,.07,26.59,2.48,27.54,2.54C2484.36,1143,2493.86,1022.07,2502.25,928Z" fill="#9b0400" opacity="0.2"/><path d="M2466.74,1012.43c-41.8,3.43-73.88,21.35-71.63,40s37.95,31.06,79.75,27.63,73.88-21.35,71.64-40S2508.55,1009,2466.74,1012.43Z" fill="#ffc19f"/><path d="M2457.06,949.23c-40.75,8.61-69.47,30.37-64.14,48.6s42.69,26,83.44,17.42,69.47-30.37,64.14-48.6S2497.81,940.62,2457.06,949.23Z" fill="#ffc19f"/><path d="M2479,1074.24c-42.18-1.45-76.86,13.5-77.45,33.38s33.14,37.17,75.32,38.62,76.86-13.5,77.45-33.38S2521.2,1075.68,2479,1074.24Z" fill="#ffc19f"/><ellipse cx="2451.12" cy="1166.6" rx="34.16" ry="70.41" transform="translate(1148.36 3548.14) rotate(-86.77)" fill="#ffc19f"/><path d="M34.06,970.63c10.1-1.66,38.19-2.68,48.67-2.52,23.89.38,45.65,5.23,61.11,14,23.2,13.23,28.89,35.34,21.84,49.29a40.48,40.48,0,0,1-9,11.56c2.8,1.58,6,3,8.19,4.81,9.85,8.16,12.44,17.26,12.9,23.43.87,11.56-4.84,21.62-14.13,30.17l1.07.46c9.06,5.71,14.92,13.49,16.94,22.54,1.63,7.17-.06,14.37-3.2,21.45,16.81,4.28,29.09,13.16,33.41,26,2.94,8.85,1.87,18.4-3,27.63-7.86,14.75-25.2,28-47.7,36.83a159.54,159.54,0,0,1-16.42,5.45c-.92.26-25.62,7.54-26.54,7.77C92.81,1178.28,60.31,1061.39,34.06,970.63Z" fill="#9b0400" opacity="0.2"/><path d="M85.09,1046.73c41.69-4.64,76.6,6.82,78,25.59s-31.3,37.75-73,42.38-76.6-6.8-78-25.58S43.4,1051.38,85.09,1046.73Z" fill="#ffc19f"/><path d="M82.49,982.85c41.65.65,74,16.5,72.26,35.41s-36.92,33.72-78.56,33.08-74-16.51-72.26-35.42S40.84,982.2,82.49,982.85Z" fill="#ffc19f"/><path d="M84.88,1109.75c41.13-9.5,78-1.47,82.41,17.93s-25.41,42.83-66.53,52.33-78,1.46-82.41-17.94S43.75,1119.24,84.88,1109.75Z" fill="#ffc19f"/><path d="M119.05,1162.61c37.5-10.24,72.77-4,78.79,13.9s-19.51,40.75-57,51-72.76,4-78.78-13.9S81.55,1172.85,119.05,1162.61Z" fill="#ffc19f"/><path d="M943.59,2120.44c199.17,104.31,607.11,127,784.66-4.34-31.63-295.44-52.31-713.2-87.81-830.48-118.09-15-457-12.81-645.85.07C980.53,1562.38,958.77,1852.85,943.59,2120.44Z" fill="#1aa7d3"/><path d="M1638.28,2067.08c-63.15,36.72-520,97-604.18,17.93,0,0,28.29-375.59,33.25-565.77,109.18-2.65,431.66-2.65,527.88,2.4C1602.73,1634.41,1619.28,1795.39,1638.28,2067.08Z" fill="#224966"/><path d="M1137.54,1573h-34.43a5.37,5.37,0,0,1-5.33-5.33v-56.1H1078a5.38,5.38,0,0,1-5.33-5.33v-36.72a5.38,5.38,0,0,1,5.33-5.33h80.63a5.39,5.39,0,0,1,5.33,5.33v36.72a5.39,5.39,0,0,1-5.33,5.33h-15.73v56.1A5.37,5.37,0,0,1,1137.54,1573Zm-29.1-10.66h23.77v-56.1a5.38,5.38,0,0,1,5.33-5.34h15.72v-26h-70v26h19.8a5.38,5.38,0,0,1,5.33,5.34Z" fill="#baebf4"/><path d="M1087.82,1477.78c-.45-5.89-15.18-142.1-19.94-198.73l61.66-6.24c7.91,63.61,20.38,198.72,20.86,205Z" fill="#224966"/><path d="M1097.22,1569.09a24.73,24.73,0,1,0,20.51-28.36A24.76,24.76,0,0,0,1097.22,1569.09Z" fill="#f0fcff"/><path d="M1565.58,1560.53h-34.42a5.38,5.38,0,0,1-5.33-5.34v-56.1H1506a5.37,5.37,0,0,1-5.33-5.33v-36.71a5.37,5.37,0,0,1,5.33-5.33h80.62a5.38,5.38,0,0,1,5.33,5.33v36.71a5.38,5.38,0,0,1-5.33,5.33h-15.72v56.1A5.39,5.39,0,0,1,1565.58,1560.53Zm-29.09-10.67h23.76v-56.1a5.37,5.37,0,0,1,5.33-5.33h15.72v-26h-70v26h19.81a5.37,5.37,0,0,1,5.33,5.33Z" fill="#baebf4"/><path d="M1515.86,1465.26c-.45-5.89,3.43-129,3.43-191.44l64.25,2.71c1.53,56.29-5.57,182.49-5.09,188.73Z" fill="#224966"/><path d="M1525.26,1556.58a24.74,24.74,0,1,0,20.52-28.37A24.78,24.78,0,0,0,1525.26,1556.58Z" fill="#f0fcff"/><path d="M1436.44,1628.2a51.8,51.8,0,0,0-48.93,34.88,8.59,8.59,0,0,0,5.31,11,8.28,8.28,0,0,0,2.82.48,8.58,8.58,0,0,0,8.14-5.78,34.54,34.54,0,0,1,65.32,0,8.5,8.5,0,0,0,11,5.31,8.6,8.6,0,0,0,5.31-11A51.8,51.8,0,0,0,1436.44,1628.2Zm-153.3,40.46a8.6,8.6,0,0,0,16.26-5.58,51.7,51.7,0,0,0-97.78,0A8.65,8.65,0,0,0,1207,1674a8.12,8.12,0,0,0,2.75.48,8.61,8.61,0,0,0,8.14-5.82,34.51,34.51,0,0,1,65.26,0Zm143.14,93.46c-9,16.17-21,23.16-35.07,20.5-17.75-3.14-34.86-20.87-40.07-35.59,10.38-2.77,25.4-12.08,25.94-21.63,1.07-18.64-62.08-18.66-62.7,0-.3,9.15,13.43,17.88,23.9,21.23-5.31,14.57-21,31.15-38.39,34.5-14.09,2.79-26.82-3.67-37.07-19.3a4.44,4.44,0,0,0-6.28-1.3,4.54,4.54,0,0,0-1.31,6.27c15.47,23.63,33.47,25.7,46.44,23.27,18.29-3.54,34.82-18.83,42.88-34,8.17,15.87,26,32.15,45.07,35.58a40.28,40.28,0,0,0,7.05.6c15,0,28.18-8.89,37.54-25.71a4.54,4.54,0,0,0-1.77-6.15A4.46,4.46,0,0,0,1426.28,1762.12Z" fill="#fff" opacity="0.35"/><path d="M1739.34,2008.67s-288,11.8-386.65,10.35c-103.26-1.52-412.51-22.86-412.51-22.86s-36.66,315.24-59.06,479.1c111.94,21.73,292.25,44.11,404.06,49.67,22.56-179.4,29.06-278.71,48.3-281.3,1.34-.18,3.65-1.47,6.5-3.46,2.79,2.08,5,3.44,6.4,3.66,19.15,3.2,22.53,102.66,39.46,282.67,111.94-2.05,292.86-18.78,405.42-37C1774,2325,1739.34,2008.67,1739.34,2008.67Z" fill="#224966"/><path d="M1077.32,2097.75c-8.15,148.58-93.21,198.93-173.66,179.09,7.24-60.93,16.23-141,22.3-191.28Z" opacity="0.24"/><path d="M1056.43,2108.93c-14.33,100.93-60.54,179.91-186.16,167.3,9.65-71.22,17.24-127.12,22.1-180.22Z" fill="#224966"/><polygon points="863.43 2505.74 1302.72 2541.2 1311.53 2426.71 872.25 2391.24 863.43 2505.74" fill="#306484"/><path d="M1605.93,2106c3.49,148.75,86.94,201.74,168,184.43-5.33-61.12-11.82-141.4-16.31-191.88Z" opacity="0.24"/><path d="M1626.46,2117.85c11.17,101.34,54.89,181.72,180.84,173.05-7.42-71.49-13.26-127.6-16.46-180.82Z" fill="#224966"/><polygon points="1808.4 2520.53 1368.22 2542.23 1363 2427.52 1803.18 2405.81 1808.4 2520.53" fill="#306484"/><polygon points="863.43 2505.74 1302.72 2541.2 1311.53 2426.71 872.25 2391.24 863.43 2505.74" fill="#306484"/><path d="M1510.44,1290.83c.13-9.71-2.73-8.9-5.35-18-99.78-3.6-248.45-11.16-354.82.69-.69,4.21-2.34,8.18-2.4,12.52-1,75.11,79.35,137.07,179.48,138.39S1509.45,1365.93,1510.44,1290.83Z" fill="#0f7da8"/><path d="M1461.66,1082.37l-3.75,220.52c-.8,47.41-61.72,84.84-136.06,83.58s-133.95-40.75-133.15-88.16l3.74-220.52Z" fill="#ffc19f"/><path d="M1570.84,1169.25c.64-10.81-1-21.24-3.46-31.53-110.85-9.18-277.46-14.09-396.46-6.41-1,4.64-3,9-3.32,13.81-5,83.52,81.21,156.63,192.57,163.29S1565.84,1252.77,1570.84,1169.25Z" fill="#a50c0c" opacity="0.18"/><path d="M2029.17,3266.94c0,30.81-312.07,55.79-697,55.79s-697-25-697-55.79,312.06-55.81,697-55.81S2029.17,3236.11,2029.17,3266.94Z" opacity="0.12"/><path d="M1456.76,2911.64c1.34,7.84,2.5,14.7,3.22,19.27l27.26-1.81a22.19,22.19,0,0,0-23.23-20.95C1461.12,2908.31,1459.24,2910.48,1456.76,2911.64Zm162.35,9.91,44-2.52a22,22,0,1,0-44,2.52Zm44-2.52,36.31-2.08c0-2.66.13-8.49.24-15.64a22,22,0,0,0-36.55,17.72Zm-87.91,5,44-2.52a22,22,0,1,0-44,2.52Zm-44,2.51,44-2.51a22,22,0,1,0-44,2.51Zm-44,2.52,44-2.52a22,22,0,1,0-44,2.52Z" fill="#ed457d"/><path d="M1494.76,3160.43c1.15,6.34,207.52-13.34,208-21.11,4-64.92-3-198-3.38-222.37l-239.39,14C1470.6,2997.73,1487.38,3119.87,1494.76,3160.43Z" fill="#fff8b3"/><path d="M1666.81,3023c-3.35-15.26-146,10.43-172,5.86-.7,35.29-21,92.18-20,140.14.68,33.39,28.45,57.8,59,63.32,117.83,21.37,429.3,85.71,443-.81C1987.88,3160.48,1802,3106.53,1666.81,3023Z" fill="#fff8b3"/><path d="M1475.22,3084.6c2.12-2.64,8-2.89,12.36,1.39,28.77,16.73,74.46,33.93,112.15,45.58a315.33,315.33,0,0,0,38.06,9.24c12.25-37,44-81.37,73.11-99.53a12.31,12.31,0,0,1,17.44,4.8,14,14,0,0,1-4.58,18.54c-22.49,14-48.3,49.43-59.88,79.26,78.43,9.74,138.41,8.86,167.45-41.45,91,53.18,186.12,71.19,183.62,132-3.07,74.71-541.69,3.86-541.69,3.86C1474.32,3193.38,1473.93,3125,1475.22,3084.6Z" fill="#f93d77"/><path d="M1472.39,3211.13c.12,10,.16,19.61,0,28.17,0,0,465.83,84.45,538.19,17.7,2.59-2.39,5.54-14.31,4.23-18.14C1884.45,3268.23,1590.43,3229.1,1472.39,3211.13Z" fill="#b52652"/><path d="M1700.58,2951.86c-97.19,9.94-138.72,11.22-235.3,13.5-.51-3.42-1-6.81-1.53-10.1,97.45-2.31,138.7-3.53,236.45-13.52C1700.33,2945.12,1700.43,2948,1700.58,2951.86Z" fill="#ed457d"/><path d="M1200.31,2908.15a22.22,22.22,0,0,0-23.24,20.95l27.27,1.81c.72-4.57,1.87-11.43,3.21-19.27C1205.08,2910.48,1203.2,2908.31,1200.31,2908.15Zm-175.83-9.9a22,22,0,0,0-23.22,20.78l44,2.52A22.08,22.08,0,0,0,1024.48,2898.25Zm-44-2.48a22,22,0,0,0-15.82,5.54c.12,7.15.21,13,.25,15.64l36.31,2.08A22.06,22.06,0,0,0,980.52,2895.77Zm87.91,4.95a22.09,22.09,0,0,0-23.22,20.83l44,2.52A22.12,22.12,0,0,0,1068.43,2900.72Zm44,2.48a22.13,22.13,0,0,0-23.23,20.87l44,2.51A22.15,22.15,0,0,0,1112.39,2903.2Zm43.95,2.47a22.16,22.16,0,0,0-23.22,20.91l44,2.52A22.19,22.19,0,0,0,1156.34,2905.67Z" fill="#ed457d"/><path d="M1169.57,3160.43c-1.16,6.34-207.53-13.34-208-21.11-3.94-64.92,3-198,3.39-222.37l239.39,14C1193.71,2997.73,1176.94,3119.87,1169.57,3160.43Z" fill="#fff8b3"/><path d="M997.52,3023c3.35-15.26,146,10.43,172,5.86.7,35.29,21,92.18,20,140.14-.68,33.39-28.44,57.8-59,63.32-117.83,21.37-429.3,85.71-443-.81C676.43,3160.48,862.31,3106.53,997.52,3023Z" fill="#fff8b3"/><path d="M1189.1,3084.6c-2.12-2.64-8-2.89-12.36,1.39-28.77,16.73-74.47,33.93-112.15,45.58a315.48,315.48,0,0,1-38.07,9.24c-12.24-37-43.95-81.37-73.11-99.53-6.1-3.83-13.88-1.62-17.44,4.8a14,14,0,0,0,4.59,18.54c22.48,14,48.3,49.43,59.88,79.26C922,3153.62,862,3152.74,833,3102.43c-91,53.18-186.11,71.19-183.61,132,3.07,74.71,541.69,3.86,541.69,3.86C1190,3193.38,1190.4,3125,1189.1,3084.6Z" fill="#f93d77"/><path d="M1191.93,3211.13c-.13,10-.17,19.61,0,28.17,0,0-465.85,84.45-538.2,17.7-2.59-2.39-5.54-14.31-4.23-18.14C779.87,3268.23,1073.89,3229.1,1191.93,3211.13Z" fill="#b52652"/><path d="M963.73,2951.86c97.2,9.94,138.72,11.22,235.3,13.5.52-3.42,1-6.81,1.53-10.1-97.44-2.31-138.69-3.53-236.44-13.52C964,2945.12,963.88,2948,963.73,2951.86Z" fill="#ed457d"/><path d="M666.12,892c28.94,121.62,145,200,233.64,190.07s107.74-108.9,94.6-225.77S898.62,652.42,810,662.7C688.8,676.75,638.93,777.64,666.12,892Z" fill="#ffc19f"/><path d="M776,923.8c5.78,51.25,47.09,88.67,92.3,83.59s77.13-50.76,71.36-102-47.08-88.66-92.26-83.57S770.21,872.56,776,923.8Z" fill="#e0956c"/><path d="M1981.25,930.1c-35.33,119.93-155.35,192.1-243.38,177.45s-101.81-114.45-82.52-230.47,106.4-198.48,194.4-183.53C1970,714,2014.45,817.38,1981.25,930.1Z" fill="#ffc19f"/><path d="M1867.57,952.71c-8.47,50.86-51.71,86-96.56,78.58s-74.36-54.77-65.89-105.64,51.7-86,96.56-78.58S1876,901.84,1867.57,952.71Z" fill="#e0956c"/><path d="M1944.12,540.3C1933.62,937,1677.74,1108.79,1326,1099.48s-627.29-195-616.78-591.7,293.23-481.6,645-472.28S1954.62,143.59,1944.12,540.3Z" fill="#ad5c49"/><path d="M1818.56,376.33c28.26,67.3-7.16,653.27-77.09,733.22-74.18,84.81-368.36,160.1-429.73,158.48C1246,1266.29,962,1184.29,908.89,1087.5c-62.78-114.53-78.23-637-55.6-698.6C929.77,181,1112.45,178.78,1351.14,185.1,1574.43,191,1745.27,201.72,1818.56,376.33Z" fill="#ffc19f"/><path d="M930,908.73c-1.55,23,29.21,43.88,68.72,46.55s72.79-13.87,74.34-36.91-29.22-43.88-68.72-46.54S931.59,885.69,930,908.73Z" fill="#ff9797"/><path d="M1588.62,920.46c1.68,23,35.05,39.38,74.55,36.5s70.14-23.88,68.46-46.92-35.06-39.37-74.54-36.5S1586.94,897.43,1588.62,920.46Z" fill="#ff9797"/><path d="M1512.07,968.1c-7.6-39.57-68.41-29.32-167.74-30-5.19,0-25.4,0-30.61,0-99.33.67-160.14-9.58-167.72,30-14.62,76.22,81.27,159.47,182.16,159.77h1.74C1430.78,1127.57,1526.68,1044.32,1512.07,968.1Z" fill="#701608"/><path d="M1329.89,1129.46h-1.75c-32.72-.12-66.64-9.4-98.21-26.75l-1.93-1,1.62-1.45c26.22-23.49,61.52-36.45,99.43-36.45s73.14,13,99.42,36.45l1.62,1.45-1.93,1C1396.53,1120.06,1362.55,1129.34,1329.89,1129.46Z" fill="#dd6b5b"/><path d="M1329.05,988.94c-69.42,0-127.2-21.51-134.44-50.07l-.41-1.74h269.69l-.42,1.74C1456.18,967.43,1398.4,988.94,1329.05,988.94Z" fill="#fff"/><path d="M1372.08,899.69a5.48,5.48,0,0,1-5.41-4.57c-3.16-19-18.21-31.34-38.36-31.34S1292.66,876.34,1290,895a5.48,5.48,0,0,1-10.84-1.55c3.41-23.93,23.64-40.65,49.16-40.65s45.15,16.27,49.18,40.49a5.51,5.51,0,0,1-4.51,6.32Z" fill="#c4735b"/><path d="M1698.13,538.7a15.43,15.43,0,0,1-9.75-5.25c-33.14-38.24-103-56.69-162.71-42.79a15.53,15.53,0,1,1-7-30.25c71.2-16.52,152.48,5.65,193.2,52.75a15.52,15.52,0,0,1-13.72,25.54Z" fill="#773220"/><path d="M959.19,547.26a15.51,15.51,0,0,1-12.77-26c42.44-45.6,124.46-64.76,195-45.67a15.52,15.52,0,1,1-8.13,30c-59.12-16.08-129.7-.25-164.16,36.83A15.42,15.42,0,0,1,959.19,547.26Z" fill="#773220"/><path d="M1963.67,653c-69-22.85-78.17-94.85-85.15-209.19,39.21-9.85-14-290.47-209.27-375.37-255.5-111.08-575.81-75-711.61,23.45C813.05,196.72,788.37,326.42,764.85,481.16c-19.08,125.62,31.92,216.62-60,292.05C812,775.63,874.75,687.82,891.88,608c19-88.67-23-169.57-10.41-204.46,7.27-20.19,121.44-110.26,150.94-112,64.32-3.83,121.49,178.47,349.25,168-93.34-48.14-145.45-118.63-198.83-219.73a354.11,354.11,0,0,1,54.62,38.8c191.55,164.63,397.69,203.5,558,184.52,11,168.66-63.71,256.32,141.09,314.4-19.06-22.87-47.85-92.43-53.28-147.91C1905.4,642.73,1927.23,686.85,1963.67,653Z" fill="#ad5c49"/><path d="M1454.94,702.57c-38.27,55.42-33.61,116.64-.25,140C1505,877.79,1624,888.19,1668.5,837.7c43.09-48.91,22.42-138.41-47.67-177.11C1559.48,626.7,1492,648.93,1454.94,702.57Z" fill="#f9feff"/><path d="M1676.72,687.8c-54.49-86.31-185.91-57.57-223.06,16.65,38.24-55.39,108.75-72.07,165.47-40.78,35,19.37,59.94,53.72,66.57,91.87C1691,786,1683.93,820,1666,840.35,1686.62,827.12,1716.79,751.26,1676.72,687.8Z" fill="#7c3929"/><path d="M1468.92,739.19a75.17,75.17,0,1,0,98-41.16A75.16,75.16,0,0,0,1468.92,739.19Z" fill="#63190d"/><path d="M1475.07,732.58a20.85,20.85,0,1,0,27.19-11.42A20.84,20.84,0,0,0,1475.07,732.58Z" fill="#fefffe"/><path d="M1192.35,700.1c37.25,56.12,31.48,117.24-2.31,140-50.91,34.29-170.14,42.52-213.69-8.78-42.19-49.69-19.87-138.79,50.9-176.21C1089.22,622.34,1156.3,645.8,1192.35,700.1Z" fill="#f9feff"/><path d="M970.88,681.28C1026.94,596,1157.81,627.12,1193.6,702c-37.23-56.08-107.41-74-164.7-43.79-35.41,18.72-60.91,52.6-68.24,90.63-5.84,30.32.59,64.53,18.11,85.16C958.43,820.4,929.65,744,970.88,681.28Z" fill="#7c3929"/><path d="M1038,735.18A75.17,75.17,0,1,0,1136,694,75.19,75.19,0,0,0,1038,735.18Z" fill="#63190d"/><path d="M1044.16,728.58a20.86,20.86,0,1,0,27.19-11.42A20.86,20.86,0,0,0,1044.16,728.58Z" fill="#fefffe"/><path d="M743.06,443.32C836,170.83,1026.87,22.83,1346.82,20.48c262.62-1.93,462.07,145,563.76,433-137.93-231.54-323.32-345.9-590-338.24C1076.31,122.27,884,223.36,743.06,443.32Z" fill="#1aa7d3"/><g opacity="0.65"><path d="M1495.45,911.76h323c29.84,0,54-22.28,54-49.76V654.8c0-27.48-24.18-49.76-54-49.76H1444.65c-29.82,0-54,22.28-54,49.76V816.14a47.88,47.88,0,0,0,16.21,35.53l50.8,45.86A56.45,56.45,0,0,0,1495.45,911.76Z" fill="#025aa3"/></g><path d="M1818.45,928.6h-323a73.24,73.24,0,0,1-49.1-18.54l-50.87-45.89a65.09,65.09,0,0,1-21.72-48V654.8c0-36.73,31.79-66.6,70.88-66.6h373.8c39.09,0,70.87,29.87,70.87,66.6V862C1889.32,898.72,1857.54,928.6,1818.45,928.6Zm-373.8-306.71c-20.53,0-37.18,14.77-37.18,32.91V816.12a30.73,30.73,0,0,0,10.67,23l50.8,45.87a39.39,39.39,0,0,0,26.52,9.87h323c20.53,0,37.18-14.78,37.18-32.9V654.8c0-18.14-16.65-32.91-37.18-32.91Z" fill="#fff"/><g opacity="0.65"><path d="M1154.9,911.76h-323c-29.83,0-54-22.28-54-49.76V654.8c0-27.48,24.18-49.76,54-49.76H1205.7c29.83,0,54,22.28,54,49.76V816.14a47.88,47.88,0,0,1-16.21,35.53l-50.79,45.86A56.49,56.49,0,0,1,1154.9,911.76Z" fill="#d62209"/></g><path d="M1154.9,928.6h-323C792.82,928.6,761,898.72,761,862V654.8c0-36.73,31.79-66.6,70.87-66.6h373.8c39.09,0,70.88,29.87,70.88,66.6V816.12a65.09,65.09,0,0,1-21.72,48L1204.06,910A73.42,73.42,0,0,1,1154.9,928.6Zm-323-306.71c-20.53,0-37.18,14.77-37.18,32.91V862c0,18.12,16.65,32.9,37.18,32.9h323a39.55,39.55,0,0,0,26.58-9.9l50.74-45.84a30.75,30.75,0,0,0,10.66-23V654.8c0-18.14-16.65-32.91-37.18-32.91Z" fill="#fff"/><rect x="729.23" y="657.59" width="48.67" height="108" fill="#fff"/><rect x="1872.46" y="657.59" width="48.67" height="108" fill="#fff"/><rect x="1248.28" y="681.94" width="130.94" height="59.3" fill="#fff"/></svg>