<svg xmlns="http://www.w3.org/2000/svg" viewBox="0 0 185.52 160.33"><title>hourses</title><path d="M185.51,121.42c.75,21.24-41.36,42.25-92.75,38.47C41.73,156.14,0,142.66,0,121.42c0-10.69,41.53-26.07,92.76-26.07S184.8,101,185.51,121.42Z" fill="#9dc95f"/><path d="M46.09,14.63c-.11-1.21-2.27-2-5.15-2.11a8.83,8.83,0,0,0,1.18-4.44C42.12,3.62,38.93,0,35,0c-3.38,0-6.21,2.68-6.94,6.27a3.06,3.06,0,0,0-2-1.58,3.1,3.1,0,0,0-3.11,5,5.62,5.62,0,0,0-.76-.23c-2.58-.65-5,.24-5.47,2s1.31,3.68,3.9,4.32a6.21,6.21,0,0,0,3.35,0,2.54,2.54,0,0,0-.9,2.39c.49,1.6,3.45,2.12,6.62,1.16a9.81,9.81,0,0,0,3.71-2,12.35,12.35,0,0,0,6,.67C43.22,17.62,46.23,16.12,46.09,14.63Z" fill="#ccecff"/><path d="M31.18,98.59c-.08,1.54-.17,3.07-.25,4.6a20.9,20.9,0,0,0,3.33-6.32c.3,1.59.6,3.18.91,4.77a15.4,15.4,0,0,0,3.15-8.34,30.1,30.1,0,0,1,.67,6.87c.74-.66,2.35-4.13,3.09-4.79.1.32-.67,3.45-.57,3.77,1.78-1,3.74-2.72,5.51-3.73-.19.86-1,4-.66,4.88,1.92-.79,4-4.17,4.32-6.31.31.94.36,3.42.67,4.36,1.07.37,2.63-1.54,2.8-2.49s5.2,2.57,4.86,2.66c-2.25.6-16,5.32-24,7.66-1.71.5-8.8,3.23-9.9.88C24.58,106,30.38,99.85,31.18,98.59Z" fill="#9dc95f"/><path d="M18,128.1c-.1.32.23.24.3.05A15.91,15.91,0,0,0,19.31,123c0-.12-.15-.1-.17.07A20.14,20.14,0,0,1,18,128.1Z" fill="#537226"/><path d="M18.75,120.82a1.11,1.11,0,0,0-1.43.3c-.19.23.5.84.34.92s-.69-.46-1.05,0a.92.92,0,0,0,.13,1.33,3.09,3.09,0,0,0,2.32-.19A3.74,3.74,0,0,0,18.75,120.82Z" fill="#619116"/><path d="M17.66,124.67c-.11.86.37,1.34.88,1.31.66,0,.54-.57.7-.81.18.22.14.76.79.73s.88-.82.55-1.43c-.16-.32-1.14-1.19-1.49-1.17A3,3,0,0,0,17.66,124.67Z" fill="#619116"/><path d="M21.28,124.11a.91.91,0,0,0,.76-1.23c-.2-.46-.77-.38-1.05-.43.14-.25.57-.65.45-.93a.92.92,0,0,0-1.22-.47,3.42,3.42,0,0,0-1,2A4,4,0,0,0,21.28,124.11Z" fill="#619116"/><path d="M46.37,138A5.64,5.64,0,0,0,41,139.31a26,26,0,0,1,.38-4.48c0-.08-1,.61-2,4-.21-.49-.26-3-.83-3.93-.12.79-.2,3.45-.56,4.07-.23-1.35-1-1.89-2.42-3a13,13,0,0,1,1.13,4.18,7.24,7.24,0,0,0-2.87-.48,31.1,31.1,0,0,1,3.41,2.91c.28.35,2.7.39,3.53.07C40.64,142.15,45.19,138.39,46.37,138Z" fill="#7faf2c"/><path d="M159.88,99.37a8.94,8.94,0,0,0-4.76.94c-.28.16.38-1.3.1-1.46a.61.61,0,0,0-.46,0l-2.11.45a2.38,2.38,0,0,1,.48-1.8l-3.43.73L151,94c-2.13,1.17-3.74,2.22-4.74,4.19-.25-.45-2.57-2.25-2.4-1.76.63,1.8.87,3.46,1,3.61.34.56.51.6,1.22.71,1.57.26,3.26.05,4.9.38,1.94.39,4.65,1.14,6.58,1.59C157.58,102.15,158.16,99.75,159.88,99.37Z" fill="#9dc95f"/><path d="M142.6,94.38s-1.76,1.71-1.85,3.39c0,.26-1.08-2.32-1.23-2.28-.66.17-1.68,1.3-2.34,1.47-.17-.56,1.57-3,1.89-3.49-1.07.27-3.81,2.36-4.89,2.63.22-1.3.43-2.6.65-3.9-1.91,1.15-3.32,2.18-4,4A33.44,33.44,0,0,0,125,93.79a10.29,10.29,0,0,1,3.43,4.79c.41.5,1.8-.1,2.5,0,1.56.17,3.18-.08,4.81.15,1.93.27,7.58-.25,9.5.07C145.26,98.26,142.48,96.73,142.6,94.38Z" fill="#9dc95f"/><path d="M47,142.86c0,.79-1.67,1.44-3.74,1.44s-3.74-.65-3.74-1.44,1.68-1.44,3.74-1.44S47,142.06,47,142.86Z" fill="#050012" opacity="0.19"/><path d="M41,140a3.73,3.73,0,0,1,.34-1,2.07,2.07,0,0,1,.75-.62,1.31,1.31,0,0,1,1-.2c.56.18.66.91.91,1.44.35.75,1.17,1.27,1.33,2.09a1.46,1.46,0,0,1-.68,1.5,2.88,2.88,0,0,1-1.4.28c-.8,0-1.59,0-2.38,0C38.44,143.29,40.78,140.81,41,140Z" fill="#c4b5b7"/><path d="M44,139.53c-.25-.53-.35-1.26-.91-1.44a1.31,1.31,0,0,0-1,.2,2.89,2.89,0,0,0-.51.35.77.77,0,0,1,0,.15,2.25,2.25,0,0,1-.26,1.32c-.12.2-.27.44-.18.65a.61.61,0,0,0,.52.27,1.15,1.15,0,0,1,.59.14c.24.18.23.53.32.81a1.41,1.41,0,0,0,.7.85,2.55,2.55,0,0,0,1.09.28h.24a1.48,1.48,0,0,0,.68-1.5C45.15,140.8,44.33,140.28,44,139.53Z" fill="#d6c5c4"/><path d="M22.51,132.16c0,.87-3.52,1.58-7.87,1.58s-7.86-.71-7.86-1.58,3.52-1.58,7.86-1.58S22.51,131.29,22.51,132.16Z" fill="#050012" opacity="0.19"/><path d="M8,123.93A9.88,9.88,0,0,1,9.28,122,3.3,3.3,0,0,1,11,120.68a2.73,2.73,0,0,1,2.28.89,8.45,8.45,0,0,1,1.58,2,7.61,7.61,0,0,0,1.1,1.68,11.22,11.22,0,0,0,1.83,1.18,4.8,4.8,0,0,1,2,4.82,1.5,1.5,0,0,1-.23.62,2,2,0,0,1-1.52.61c-2.89.25-5.78.43-8.67.42-1.09,0-2.36-.11-3-1-1-1.46.69-1.91,1.08-2.85.24-.55-.11-1.88-.07-2.52A6.94,6.94,0,0,1,8,123.93Z" fill="#afa1a6"/><path d="M17.75,126.38a11.22,11.22,0,0,1-1.83-1.18,7.61,7.61,0,0,1-1.1-1.68,8.45,8.45,0,0,0-1.58-2,2.73,2.73,0,0,0-2.28-.89A3.3,3.3,0,0,0,9.28,122a13.85,13.85,0,0,0-1,1.31,6.71,6.71,0,0,1,.62,3.74,8.22,8.22,0,0,0-.24,1.2,2.45,2.45,0,0,0,2.4,2.52c1.09,0,2.23-.8,3.2-.3a5,5,0,0,1,.86.73,4.45,4.45,0,0,0,4.33.66l0-.05a1.5,1.5,0,0,0,.23-.62A4.8,4.8,0,0,0,17.75,126.38Z" fill="#c4b5b7"/><path d="M152.42,137.9a6.67,6.67,0,0,0-6.33,1.78c-.23.19,1.77-4.13,3.29-5.11.1-.07-2.12-.15-4.39,3.36a47.48,47.48,0,0,0-.92-5.67c-.26,1.08-.81,4.79-1.32,5.59,0-1.93-.83-2.81-2.23-4.56.39,2.63.71,3.17.55,6-.19-.45-3.41-1.45-3.15-1.16a41.13,41.13,0,0,1,3.35,4.64c.26.54,3,1,4,.7C145.22,142.78,151,138.29,152.42,137.9Z" fill="#7faf2c"/><path d="M149.05,144.61c0,.72-2.37,1.32-5.29,1.32s-5.3-.6-5.3-1.32,2.37-1.32,5.3-1.32S149.05,143.88,149.05,144.61Z" fill="#050012" opacity="0.19"/><path d="M140.54,141.94a2.37,2.37,0,0,1,.49-1,2.85,2.85,0,0,1,1.05-.57,2.57,2.57,0,0,1,1.37-.18c.8.16.94.83,1.29,1.32.51.69,1.66,1.17,1.88,1.92.16.52-.24,1.1-1,1.37a5.85,5.85,0,0,1-2,.26c-1.12,0-2.25,0-3.38,0C136.89,145,140.21,142.73,140.54,141.94Z" fill="#afa1a6"/><path d="M144.74,141.55c-.35-.49-.49-1.16-1.29-1.32a2.57,2.57,0,0,0-1.37.18,5.23,5.23,0,0,0-.72.32l0,.14a1.49,1.49,0,0,1-.38,1.21c-.16.19-.38.4-.24.6a1.06,1.06,0,0,0,.74.25,2,2,0,0,1,.83.13c.34.16.33.48.44.74a1.7,1.7,0,0,0,1,.78,5.18,5.18,0,0,0,1.54.26h.35c.71-.27,1.11-.85,1-1.37C146.4,142.72,145.25,142.24,144.74,141.55Z" fill="#c4b5b7"/><ellipse cx="174.63" cy="129.49" rx="4.82" ry="2.13" fill="#050012" opacity="0.19"/><path d="M176.88,129.58a.89.89,0,0,0,.6-.28,1.58,1.58,0,0,0,.24-1c0-1.12-.67-2.13-1.43-2.21-.36,0-.71.11-1.07.07s-.93-.46-1.41-.56a2.24,2.24,0,0,0-1.66.5c-1.07.69-4.44,3.3-1.68,4.11C172.39,130.82,175,129.87,176.88,129.58Z" fill="#c4b5b7"/><path d="M177.65,127.78c-.19-.87-.74-1.58-1.36-1.64-.36,0-.71.11-1.07.07s-.93-.46-1.41-.56a2.24,2.24,0,0,0-1.66.5,12,12,0,0,0-1.23.93,1.54,1.54,0,0,0-.06.63.79.79,0,0,0,.87.7,5.81,5.81,0,0,1,1.07-.22c.53.06,1,.63,1.48.85a2,2,0,0,0,2.21-.87,1.48,1.48,0,0,1,.33-.33C177.07,127.7,177.38,127.82,177.65,127.78Z" fill="#d6c5c4"/><path d="M137.72,21.27c1,0,2.05.06,3,.15a10.18,10.18,0,1,1,19.85-3.23,8.7,8.7,0,0,1-.08,1.26l.34,0a2.72,2.72,0,0,1,2.4,1.42,3.51,3.51,0,0,1,6.45,2.35,3,3,0,0,1-.22.66c4.93.32,8.49,1.21,8.48,2.25,0,1.3-5.56,2.34-12.42,2.32h-1c-1.51,1.84-5.25,3.13-9.61,3.12a20.26,20.26,0,0,1-3.84-.37,7.49,7.49,0,0,1-5.31,1.95c-3.6,0-6.52-2.12-6.51-4.72,0-.11,0-.21,0-.32-.53,0-1.07,0-1.61,0-5.9,0-10.67-1.56-10.66-3.45S131.82,21.26,137.72,21.27Z" fill="#ccecff"/><path d="M127.1,141.49c-.43-.16-1.09-.07-1.13.39a.86.86,0,0,0,.16.48,5.48,5.48,0,0,0,1.19,1.35,5.09,5.09,0,0,0-3.63,0c-.32.07-.7.23-.71.55s.45.52.81.56a15.85,15.85,0,0,0,3.23,0,2.66,2.66,0,0,0-1.55,2.15.34.34,0,0,0,0,.22.32.32,0,0,0,.27.11c.89,0,1.47-.89,1.88-1.68a5.78,5.78,0,0,0-.06,1.66c0,.32.15.7.46.8a.69.69,0,0,0,.71-.25c.65-.7.36-1.82,0-2.7a5.8,5.8,0,0,0,2.56.85,1.25,1.25,0,0,0,.81-.12.54.54,0,0,0,.21-.72,1,1,0,0,0-.36-.23,8.74,8.74,0,0,0-2.37-.52,3.92,3.92,0,0,0,2.48-1.41.5.5,0,0,0,.14-.27.6.6,0,0,0-.62-.58,2.68,2.68,0,0,0-1.39.5c-.26.19-1.08.87-1.37.83C128.28,143.31,127.85,141.78,127.1,141.49Z" fill="#f2f2f2"/><path d="M51.7,132.31c-.26-.1-.66,0-.68.24a.46.46,0,0,0,.1.29,3.32,3.32,0,0,0,.72.82,3.08,3.08,0,0,0-2.2,0c-.2.05-.43.14-.43.34s.27.31.49.33a9.17,9.17,0,0,0,2,0,1.62,1.62,0,0,0-.95,1.3.25.25,0,0,0,0,.13.19.19,0,0,0,.17.07c.54,0,.89-.53,1.14-1a3.73,3.73,0,0,0,0,1c0,.2.1.43.28.49a.43.43,0,0,0,.43-.16c.4-.42.22-1.1,0-1.63a3.43,3.43,0,0,0,1.55.51.74.74,0,0,0,.49-.07.32.32,0,0,0,.13-.44.45.45,0,0,0-.22-.13,4.71,4.71,0,0,0-1.43-.32,2.42,2.42,0,0,0,1.5-.86.37.37,0,0,0,.09-.16.38.38,0,0,0-.38-.36,1.55,1.55,0,0,0-.84.31c-.16.11-.66.53-.84.5C52.42,133.42,52.16,132.49,51.7,132.31Z" fill="#f2f2f2"/><path d="M58.62,140.68c0,.87-1.16,1.58-2.6,1.58s-2.59-.71-2.59-1.58,1.16-1.58,2.59-1.58S58.62,139.8,58.62,140.68Z" fill="#8cbc48"/><path d="M66.09,143.68c0,.44-.47.79-1,.79s-1.05-.35-1.05-.79a1.09,1.09,0,0,1,2.1,0Z" fill="#8cbc48"/><path d="M96.08,140.78c0,.62-.82,1.12-1.83,1.12s-1.83-.5-1.83-1.12.82-1.12,1.83-1.12S96.08,140.16,96.08,140.78Z" fill="#8cbc48"/><path d="M103.91,143.93a1.44,1.44,0,1,1-1.4-1.12A1.28,1.28,0,0,1,103.91,143.93Z" fill="#8cbc48"/><path d="M95.58,149.21a.81.81,0,0,1-.89.7.72.72,0,1,1,0-1.41A.82.82,0,0,1,95.58,149.21Z" fill="#8cbc48"/><ellipse cx="105.25" cy="146.43" rx="0.88" ry="0.71" fill="#8cbc48"/><path d="M102.12,140.59a.78.78,0,0,1-1.56,0,.78.78,0,0,1,1.56,0Z" fill="#8cbc48"/><path d="M74,125.65a.47.47,0,0,1-.52.41.48.48,0,0,1-.53-.41.49.49,0,0,1,.53-.42A.48.48,0,0,1,74,125.65Z" fill="#8cbc48"/><path d="M72.37,128.57a.91.91,0,1,1-.89-.71A.81.81,0,0,1,72.37,128.57Z" fill="#8cbc48"/><path d="M65.82,123.06a.79.79,0,0,1-1.57,0,.79.79,0,0,1,1.57,0Z" fill="#8cbc48"/><path d="M110,123.52a.48.48,0,0,1-.53.42.43.43,0,1,1,0-.83A.48.48,0,0,1,110,123.52Z" fill="#8cbc48"/><path d="M108.41,126.44a.81.81,0,0,1-.88.71.72.72,0,1,1,0-1.41A.8.8,0,0,1,108.41,126.44Z" fill="#8cbc48"/><path d="M101.86,120.94a.78.78,0,0,1-1.56,0,.78.78,0,0,1,1.56,0Z" fill="#8cbc48"/><path d="M158.36,125.58c-.31-.11-.78,0-.81.28a.54.54,0,0,0,.12.34,4.15,4.15,0,0,0,.84,1,3.61,3.61,0,0,0-2.59,0c-.23,0-.51.17-.51.4s.32.37.58.4a11.88,11.88,0,0,0,2.31,0,1.92,1.92,0,0,0-1.11,1.53.21.21,0,0,0,0,.16.23.23,0,0,0,.2.08c.63,0,1.05-.63,1.34-1.2a4.32,4.32,0,0,0,0,1.19c0,.23.11.5.33.58a.52.52,0,0,0,.51-.19c.46-.5.26-1.3,0-1.93a4.23,4.23,0,0,0,1.83.61.89.89,0,0,0,.58-.09.37.37,0,0,0,.15-.51.52.52,0,0,0-.26-.17,6.08,6.08,0,0,0-1.69-.37,2.85,2.85,0,0,0,1.78-1,.37.37,0,0,0,.09-.2.42.42,0,0,0-.44-.41,1.91,1.91,0,0,0-1,.36c-.18.13-.77.62-1,.59C159.21,126.89,158.9,125.79,158.36,125.58Z" fill="#f2f2f2"/><ellipse cx="92.1" cy="128.34" rx="59.84" ry="5.82" opacity="0.16"/><path d="M92.07,131.4c-22.73,0-43.53-8.92-55.58-22.51a2.94,2.94,0,0,1,4.39-3.9c12.27,13.84,34.79,19.26,58.77,17.3,19.57-1.61,36-7.43,42.86-18.34a2.93,2.93,0,0,1,5,3.12c-7.95,12.64-25.64,22.22-47.34,24C97.43,131.29,94.73,131.4,92.07,131.4Z" fill="#964a17"/><path d="M63.19,79.32c-2.08,1.81-2.29,6.31-1.8,9.7a35.17,35.17,0,0,1-4.51,22.34c-.07.13-6.88,4.35-5.12,5.44.44.48,6,3.5,8.38,3.69,1.57.13,2.55-4.1,5.34-4.29.66,0,.72-3.22,1.26-5.59,2.21-9.8,14.08-27.45,14.08-27.45C81.39,81.19,72.74,71.05,63.19,79.32Zm59.36,28.34c-5.15-8.62-8.74-29.58-8.74-29.58-.94-1.82-13.88-3.16-15.41,9.38-.92,7.55,3.5,11.13,6.7,12.34,6.43,2.44,8.56,6.31,10.84,15.21,0,.14-1.94,8.16.09,7.74.64,0,6.74-1.91,8.56-3.38,1.23-1-1-4.73.91-6.79C126,112.09,123.8,109.75,122.55,107.66Z" fill="#995833"/><path d="M56.54,111.61c-1.37.93-6.31,4.24-4.78,5.19.44.48,6,3.5,8.38,3.69,1,.08,1.68-1.43,2.73-2.68A32.68,32.68,0,0,0,56.54,111.61Z" fill="#562813"/><path d="M122.38,115.63a34.92,34.92,0,0,0-6.68.62c-.44,2.27-1.22,6.82.33,6.5.64,0,6.74-1.91,8.56-3.38.72-.58.27-2.08.14-3.65C124,115.67,123.18,115.63,122.38,115.63Z" fill="#562813"/><path d="M146.05,80.19c.94,10.87-14.46,13.89-19.36,6.27-3.46-5.38,4.63-15.09-2.36-17.87-5.58-2.22-10.6,4.59-13.71,1.17-.91-1,4.18-15.13,17.09-12.48s10.5,19.8,13.69,22.91A3.59,3.59,0,0,0,146.05,80.19Z" fill="#fca800"/><path d="M146.08,81a6.62,6.62,0,0,1-3.7,2.57,5.69,5.69,0,0,1-6-1.56c-2-2.3-1.67-5.24-1.33-8.34.39-3.49.83-7.43-2.08-11-1.57-1.92-6.18-4.23-10.79-3.56-2.91.42-6.92,2.19-9.48,8.27a.14.14,0,0,0,.07.17.12.12,0,0,0,.17-.07c2.51-6,6.43-7.71,9.28-8.12,4.51-.65,9,1.6,10.55,3.47,2.84,3.5,2.43,7.22,2,10.82-.35,3.16-.69,6.15,1.38,8.54a5.66,5.66,0,0,0,4.34,1.92,7.21,7.21,0,0,0,2-.28,7,7,0,0,0,3.63-2.36Z" fill="#d88445"/><path d="M140.13,89.72c-3.67-.69-6.21-2-7.73-4-2.5-3.35-1.77-8-1.14-12.13.48-3.1.9-5.77,0-7.53-1.21-2.32-3.9-3.55-7-3.25a9.3,9.3,0,0,0-8.09,6.77.13.13,0,1,0,.25.07A9,9,0,0,1,124.26,63c3-.3,5.58.9,6.75,3.12.88,1.68.45,4.45,0,7.37-.64,4.17-1.37,8.89,1.19,12.32,1.5,2,4,3.35,7.48,4.07A4.13,4.13,0,0,0,140.13,89.72Z" fill="#d88445"/><path d="M129.46,89.14c-3.79-3.56-2.14-8.71-.77-13,.89-2.74,1.65-5.11,1-6.7a4.47,4.47,0,0,0-3.91-2.67,10.71,10.71,0,0,0-6.59,1.81c.29-.09.58-.17.88-.24a10.24,10.24,0,0,1,5.68-1.31,4.26,4.26,0,0,1,3.71,2.52c.64,1.49-.11,3.82-1,6.51-1.29,4-2.81,8.75,0,12.33A8.83,8.83,0,0,0,129.46,89.14Z" fill="#d88445"/><path d="M54.82,39.76c1.36,1.15,1.19,4.93-2.66,4.32-7-1.12-8.3-11.74-8.3-11.74A108.43,108.43,0,0,1,54.82,39.76Z" fill="#c67f4f"/><path d="M82.39,57c0,10.15-5.33,11-14.59,11-3.35,0,2.28-16.7-.77-20.13-5.38-6.05-22.14-2.25-18.6-7.68,3.86-5.9,9.62-7.89,16.34-7.31C74.19,33.67,82.39,46.83,82.39,57Z" fill="#fca800"/><path d="M62,39.5h.05a.12.12,0,0,0,.12-.07c.75-1.43,3.94-5.19,5.93-5.76l-.38-.14c-2.06.85-5.05,4.39-5.78,5.79A.12.12,0,0,0,62,39.5Z" fill="#d88445"/><path d="M74.94,56.18a.14.14,0,0,0,0,.18.16.16,0,0,0,.1,0,.11.11,0,0,0,.08,0c1.32-1.1,4.17-1.79,7.18-1.45l0-.26C79.19,54.35,76.29,55.06,74.94,56.18Z" fill="#d88445"/><path d="M74.2,54.84a.13.13,0,0,0,0,.18.12.12,0,0,0,.1,0,.13.13,0,0,0,.08,0,10.48,10.48,0,0,1,7.46-2.89l-.06-.26C78.47,51.68,75.93,53.41,74.2,54.84Z" fill="#d88445"/><path d="M64.49,41.38a.1.1,0,0,0,.07,0,.13.13,0,0,0,.11-.06c1.44-2.54,4.64-5.11,7-5.69l-.27-.19a13.87,13.87,0,0,0-6.93,5.75A.12.12,0,0,0,64.49,41.38Z" fill="#d88445"/><path d="M63.15,32.78A20,20,0,0,0,60,38.59a.12.12,0,0,0,.09.15h0a.11.11,0,0,0,.12-.09,18.71,18.71,0,0,1,3.29-5.87Z" fill="#d88445"/><path d="M66.63,43.15c1.71-1.76,4.48-4.59,7.54-5.29L74,37.64c-3.07.78-5.81,3.58-7.51,5.33a.14.14,0,0,0,0,.19.16.16,0,0,0,.09,0A.11.11,0,0,0,66.63,43.15Z" fill="#d88445"/><path d="M82.28,59.14a7.23,7.23,0,0,0-5.55-.22.13.13,0,1,0,.11.23,7,7,0,0,1,5.41.25Z" fill="#d88445"/><path d="M75.77,57.83a.13.13,0,1,0,.11.23,8.64,8.64,0,0,1,6.48-.34c0-.08,0-.17,0-.26A8.83,8.83,0,0,0,75.77,57.83Z" fill="#d88445"/><path d="M66.56,44.63a.07.07,0,0,0,0,.11l0,0a.08.08,0,0,0,.06,0c1.9-2.65,4.11-5.25,8.37-5.93l-.13-.14C70.67,39.37,68.46,42,66.56,44.63Z" fill="#d88445"/><path d="M69.82,46.63a.12.12,0,0,0,.1,0,.11.11,0,0,0,.07,0c1.1-.87,4.26-3.35,8.24-3.49l-.15-.24c-4,.19-7.14,2.66-8.24,3.53A.12.12,0,0,0,69.82,46.63Z" fill="#d88445"/><path d="M70.69,48.54l-.15.12a.13.13,0,0,0,0,.18.12.12,0,0,0,.1,0,.11.11,0,0,0,.08,0l.15-.12a12.66,12.66,0,0,1,8.73-3l-.12-.26A12.92,12.92,0,0,0,70.69,48.54Z" fill="#d88445"/><path d="M72.88,50.62a.13.13,0,0,0,0,.18.11.11,0,0,0,.09,0l.09,0c1.52-1.27,4.78-2.13,7.93-1.7l-.09-.26C77.7,48.44,74.43,49.33,72.88,50.62Z" fill="#d88445"/><path d="M127.56,105.86c-3.24-5-6.85-14.2-7.46-20.21-.32-3.07.46-7.91-.15-12.22-1.13-7.85-5.84-10.85-14.65-10.43-6.24.29-9.77,3.75-23.1,2.73-3.31-10.46-9.89-22.6-16.44-26.59-5-3.06-8.65-2.9-12.28-.63-9.79,6.09-18.27,19-17.2,22C37.14,63,46.06,67.33,48.15,62c1-2.66,7.05.35,11-2.88a42.61,42.61,0,0,1,1,7.58c-.94,8.18-4.78,17.06,3.42,23.5l.51.37a35.26,35.26,0,0,1-3.59,22.24c-.06.13-6.68,4.64-4.87,5.66.46.45,6.18,3.23,8.52,3.32,1.58,0,2.38-4.21,5.16-4.52.65-.07.58-3.25,1-5.64.76-4.18,3.18-9.84,5.72-15,9.83,2.92,20,1.49,28.53-1.73a10.64,10.64,0,0,0,5.2,3.83c6.53,2.18,8.82,6,11.46,14.75,0,.14-1.61,8.24.4,7.73.65,0,6.67-2.18,8.42-3.73,1.19-1-1.17-4.68.64-6.82C131.13,110.15,128.89,107.89,127.56,105.86Z" fill="#c67f4f"/><path d="M74.05,84.56c0,.67-.89,1.21-2,1.21s-2-.54-2-1.21.89-1.21,2-1.21S74.05,83.89,74.05,84.56Z" fill="#af6e43"/><path d="M79.76,86.85c0,.34-.36.61-.81.61a.63.63,0,1,1,0-1.22C79.4,86.24,79.76,86.51,79.76,86.85Z" fill="#af6e43"/><path d="M102.69,84.63c0,.48-.63.86-1.4.86s-1.4-.38-1.4-.86.62-.85,1.4-.85S102.69,84.16,102.69,84.63Z" fill="#af6e43"/><path d="M108.67,87a1.1,1.1,0,1,1-1.07-.85A1,1,0,0,1,108.67,87Z" fill="#af6e43"/><path d="M107.44,91.64a.69.69,0,1,1-.68-.54A.62.62,0,0,1,107.44,91.64Z" fill="#af6e43"/><path d="M110.37,89A.69.69,0,0,1,109,89a.69.69,0,0,1,1.35,0Z" fill="#af6e43"/><ellipse cx="106.71" cy="84.49" rx="0.6" ry="0.54" fill="#af6e43"/><path d="M74.45,73.77a.41.41,0,1,1-.4-.32A.37.37,0,0,1,74.45,73.77Z" fill="#af6e43"/><path d="M77.1,74.92a.7.7,0,0,1-1.36,0,.7.7,0,0,1,1.36,0Z" fill="#af6e43"/><path d="M79.55,71.09a.6.6,0,1,1-.6-.54A.57.57,0,0,1,79.55,71.09Z" fill="#af6e43"/><path d="M113.35,71.45a.41.41,0,0,1-.8,0,.41.41,0,0,1,.8,0Z" fill="#af6e43"/><path d="M112.11,73.68a.69.69,0,1,1-.67-.54A.61.61,0,0,1,112.11,73.68Z" fill="#af6e43"/><path d="M107.11,69.47a.6.6,0,0,1-1.2,0,.6.6,0,0,1,1.2,0Z" fill="#af6e43"/><path d="M93.69,88.89c6.39,0,11.56-9.11,11.56-20.35a34.49,34.49,0,0,0-.59-6.39c-5.83.49-9.57,3.64-22.32,2.69a34.42,34.42,0,0,0-.2,3.7C82.14,79.78,87.31,88.89,93.69,88.89Z" fill="#d7ef95"/><path d="M102.68,68.14a29.5,29.5,0,0,0-.54-5.61c-4.28.89-8.31,2.8-17.43,2.45a29.54,29.54,0,0,0-.17,3.16c0,9.2,4.06,16.65,9.07,16.65S102.68,77.34,102.68,68.14Z" fill="#fff"/><path d="M101.75,68.52a26.27,26.27,0,0,0-.63-5.76c-3.77.91-7.69,2.4-15.42,2.24a28.64,28.64,0,0,0-.23,3.52c0,8.26,3.64,15,8.14,15S101.75,76.78,101.75,68.52Z" fill="#d7ef95"/><path d="M62.21,57.09c-1-.37-2.48,1.26-3,2v0a43.68,43.68,0,0,1,1,7.58c-.31,2.69-.93,5.46-1.34,8.19C64,68.81,65.28,58.2,62.21,57.09Z" opacity="0.17"/><path d="M83.08,64.86a.61.61,0,0,0-.83-.25C70.6,70.88,59,68.14,50.37,57.15c7.1-2,16.22-7,20.54-14a.62.62,0,1,0-1-.65,27.09,27.09,0,0,1-7.49,7.57C59.2,43.22,55.14,39.36,50.93,39.2a.6.6,0,0,0-.64.59.62.62,0,0,0,.59.64c3.76.14,7.46,3.79,10.44,10.29,0,0,0,0,0,0A41.28,41.28,0,0,1,49.2,56.19c-1.93-4.22-4.93-6.95-8.17-7a.49.49,0,0,0-.53.49.52.52,0,0,0,.49.54c3.78.13,7.37,4.61,8.74,10.87a.5.5,0,0,0,.5.4h.11a.51.51,0,0,0,.39-.61c-.15-.66-.32-1.3-.51-1.93,5.65,6.7,12.6,10.17,19.93,10.17a26.68,26.68,0,0,0,12.68-3.4A.61.61,0,0,0,83.08,64.86Z" fill="#c63838"/><path d="M53.15,34.51c-5.5-2.39-8.48.51-7.21,7.21.21,1.09-1.42,1.87-2.64.89.14.83,1.09,2.71,2.6,3a4.27,4.27,0,0,0,3.35-1.31c.8-.78.71.73.2,1.72C53.84,44,52,39.65,55,38.18c1.2-.59,1.95-1.94.82-2.3C54.49,35.45,54.45,35.07,53.15,34.51Z" fill="#fca800"/><path d="M59.76,36.58c.85,1.73-1,4-4.9,2.6-7.54-2.71-3-14.6-3-14.6S57.56,32.09,59.76,36.58Z" fill="#c67f4f"/><path d="M57.2,36.33c.44.89-.51,2.05-2.5,1.33-3.86-1.39-1.53-7.47-1.53-7.47A52.47,52.47,0,0,1,57.2,36.33Z" fill="#845230"/><path d="M92.08,134.12c-23.79,0-45.57-9.33-58.19-23.57a3.07,3.07,0,1,1,4.59-4.07C51.33,121,74.91,126.64,100,124.58c20.49-1.68,37.68-7.77,44.87-19.2a3.07,3.07,0,0,1,5.2,3.27c-8.32,13.23-26.85,23.26-49.57,25.13C97.69,134,94.87,134.12,92.08,134.12Z" fill="#b4622a"/><circle cx="53.97" cy="49.29" r="1.79"/><path d="M42.67,64.69a2.67,2.67,0,0,1-.56-.06.26.26,0,0,1-.19-.31.25.25,0,0,1,.3-.19,2.17,2.17,0,0,0,2.16-.79,5.57,5.57,0,0,0,.69-5.49.26.26,0,0,1,.15-.33.26.26,0,0,1,.33.16,6.14,6.14,0,0,1-.79,6A2.81,2.81,0,0,1,42.67,64.69Z"/><path d="M38.67,59.23c-.33-.07-.25-3.52.77-3.3C40.65,56.2,39,59.3,38.67,59.23Z" fill="#471706"/><path d="M127.71,113.83a34.1,34.1,0,0,0-6.65.89c-.35,2.29-.94,6.86.59,6.48.65,0,6.67-2.18,8.42-3.73.69-.61.19-2.09,0-3.65C129.29,113.8,128.51,113.8,127.71,113.83Z" fill="#723b22"/><path d="M60.19,113c-1.32,1-6.12,4.51-4.54,5.4.46.45,6.18,3.23,8.52,3.32,1,0,1.63-1.51,2.62-2.8A32.51,32.51,0,0,0,60.19,113Z" fill="#723b22"/><path d="M50.34,57a1,1,0,1,1-1-1A1,1,0,0,1,50.34,57Z" fill="#870c0c"/><path d="M63.17,50.79a1,1,0,1,1-1-1A1,1,0,0,1,63.17,50.79Z" fill="#870c0c"/><path d="M75.92,96.92c0-.1.09-.2.14-.3,9.81,2.91,20,1.49,28.49-1.71-.6-.85-1.23-2.13-1.7-5.46-2,.64-2,3-5.68,5.11-4.1,2.32-12.54,3.22-20.41.45C76.42,95.81,76.17,96.37,75.92,96.92Z" opacity="0.17"/><path d="M48,45.19a4.84,4.84,0,0,0,1.3-.92c.37-.36.54-.22.58.12a13.59,13.59,0,0,0-.2-3.59A5.42,5.42,0,0,1,48,45.19Z" opacity="0.11"/><path d="M114.49,11.33c7.89,11.25,11.5,14.15,15.74,18.07-19.18,34.41-42.72,18.67-48.5,16.09a46.16,46.16,0,0,1-6.24-27C89.89,18.37,107,9.93,114.49,11.33Z" fill="#773220"/><path d="M104.89,63.2a16,16,0,0,1-11.44,2.43c-6.17-.86-9.32-2.74-10.48-3.75,0,0,2.88-13.2,4.1-17.65,4,2,11.32,2.07,15.2.67C102.78,48.5,104.71,63.23,104.89,63.2Z" fill="#20bcb0"/><path d="M106.29,67c-12,3.23-21.91-1.42-24.16-2.36a38.26,38.26,0,0,0,.59-3.83c3.31-.1,18.33-1.48,22-1.58A24.48,24.48,0,0,1,106.29,67Z" fill="#665c57"/><path d="M100.39,64.09c-1.58.75-3.38,2-8.55,1.33S84.35,63,83.35,62.3c0,0,2.51-9.68,3.65-12.22,2.33.51,8.14.79,10.51,1C98,53.68,100.24,64.11,100.39,64.09Z" fill="#665c57"/><polygon points="93.18 58.87 90.65 59.28 88.33 58.05 88.91 54.06 93.68 54.5 93.18 58.87" opacity="0.33"/><path d="M92.67,58.3l-2.45.33L88,57.74l.53-4.34a13.63,13.63,0,0,0,2.29.45A12.8,12.8,0,0,0,93.2,54Z" fill="#7c716c"/><path d="M90.14,41.57l.11,4.81c0,1,1.46,1.84,3.21,1.8s3.14-.91,3.12-2l-.11-4.81Z" fill="#e4a78e"/><path d="M81.19,72.84c-1,3.83-1.81,7.35-2.41,9.68l3.55,1.15c.91-2.27,2.31-5.61,3.81-9.2a2.53,2.53,0,0,0-1.57-3.38l-.18,0A2.51,2.51,0,0,0,81.19,72.84Z" fill="#ffd5c7"/><path d="M88,51.29l-1-.19c.11-.59,1.13-5.78,3.32-6.82l.45.95C89.43,45.84,88.35,49.27,88,51.29Z" fill="#665c57"/><path d="M72,29c.5,4.22,4.1,7.32,7.13,7.34s4.06-3.25,4.08-7.24-2.42-7.26-5.45-7.26C73.63,21.83,71.55,25,72,29Z" fill="#fac7b3"/><g opacity="0.21"><path d="M79.89,77c1.48.45,3.11.78,4.57,1.24,3.67-12,7.8-9.89,19.08-8.67,1.14-.27-.61-7.06-1.66-7.12C93.12,58.39,80.33,61.79,79.89,77Z"/></g><path d="M79.34,78.11c1.47.44,3.9,1,5.36,1.47,3.67-12,10-7,18-8.78,6.07-.84,2.79-9,1.74-9C89.11,60.82,82.88,63.59,79.34,78.11Z" fill="#665c57"/><path d="M77.78,78.85c.17-.24,2.12.21,2,.86a4.12,4.12,0,0,1-.08.45c.48.07,1,.13,1.46.18a25.74,25.74,0,0,0,2.88.16c-.1,1-.44,2.8-.56,3.94,0,0-11.69,1.17-13.26-1.41C69.58,81.93,76.46,80.7,77.78,78.85Z" fill="#47b5aa"/><path d="M75.62,80.11a2.62,2.62,0,0,1,1.6.92.19.19,0,0,0,.12.07.2.2,0,0,0,.11,0,.16.16,0,0,0,0-.23,3,3,0,0,0-1.83-1.06.16.16,0,0,0-.19.15A.17.17,0,0,0,75.62,80.11Zm-.9.37a3.55,3.55,0,0,1,1.73,1,.19.19,0,0,0,.12.07.19.19,0,0,0,.12,0,.16.16,0,0,0,0-.23,3.78,3.78,0,0,0-2-1.17.17.17,0,0,0-.18.15A.16.16,0,0,0,74.72,80.48Zm-1,.27a.18.18,0,0,0,.18.16A3.77,3.77,0,0,1,75.63,82a.16.16,0,0,0,.11,0,.17.17,0,0,0,.13,0,.17.17,0,0,0,0-.24,3.89,3.89,0,0,0-2-1.22A.17.17,0,0,0,73.68,80.75Z" fill="#d3dae5"/><path d="M83.63,83.55c0,.32-.09.63-.12.89,0,0-11.69,1.17-13.26-1.41-.13-.21,0-.41.25-.62C72.72,84.19,80.21,83.82,83.63,83.55Z" fill="#34998d"/><path d="M85.15,79.69c.11-.4.62-1.94.7-2.26L79.4,75.51s-.65,1.95-.75,2.27A32.29,32.29,0,0,0,85.15,79.69Z" fill="#514742"/><path d="M75.47,31.49a2.82,2.82,0,1,0,5.6,0,2.82,2.82,0,1,0-5.6,0Z" fill="#e4a68d"/><path d="M116.1,36.47c-1.67,3.91-6,5.87-8.91,5s-3-4.26-1.87-8.1,4.37-6.27,7.28-5.42C116.57,29.14,117.66,32.8,116.1,36.47Z" fill="#fac7b3"/><path d="M112.17,36.78a2.82,2.82,0,1,1-1.8-3.82A3,3,0,0,1,112.17,36.78Z" fill="#e4a68d"/><path d="M116.39,23.18c-1.93,13.34-11.24,18.12-23.06,16.41s-19.63-9-17.71-22.29,11-15.18,22.87-13.48S118.31,9.84,116.39,23.18Z" fill="#773220"/><path d="M112.8,17.15c.69,2.38-2.83,22-5.5,24.42-2.84,2.57-13.06,4-15.12,3.65C90,44.9,80.72,41,79.31,37.54c-1.66-4.11-.12-21.79.89-23.78,3.4-6.71,9.57-6.06,17.59-4.91C105.3,9.94,111,11,112.8,17.15Z" fill="#fbd3c7"/><path d="M107.58,39.72a3.85,3.85,0,1,1-3.26-4.36A3.85,3.85,0,0,1,107.58,39.72Z" fill="#ffc0c0"/><path d="M87.34,36.8a3.85,3.85,0,1,1-3.26-4.36A3.85,3.85,0,0,1,87.34,36.8Z" fill="#ffc6c5"/><path d="M95.47,32.83a.18.18,0,0,1-.16-.18,1.33,1.33,0,0,0-2.58-.37.18.18,0,1,1-.35-.11,1.7,1.7,0,0,1,3.3.48.19.19,0,0,1-.18.19Z" fill="#c68c75"/><path d="M122,28.05c1.4-.18-4.54-8.26-3.18-8.61-5-1.83-3.49-9.54-9.87-13.39C98.36.66,88.05,3,85,4.53c-5.63,2.81-6.7,7.17-7.56,12.1-1.16,4.42-2.23,5.67-4.54,6.49,2.31.95,3.77.42,4.66-.38-.5,2.8-1.82,3.59-3.31,4.71C77.94,28,81.09,25,82,22.24c1-3.09-.55-6.82,0-8,.34-.69,3.18-4.6,4.21-4.54,2.24.13,3.9,8.59,11.81,9.16-3-2.11-4.5-4.85-5.91-8.68a12.15,12.15,0,0,1,1.72,1.61c5.9,6.69,9.53,7,15.15,7-.36,6.08-3.46,19.84,6.48,21.84C115,39.67,122.21,34.78,122,28.05Z" fill="#773220"/><path d="M108.1,22.15a.49.49,0,0,1-.31-.21,6,6,0,0,0-5.32-2.09.53.53,0,0,1-.12-1.05,7,7,0,0,1,6.31,2.54.54.54,0,0,1-.14.74A.53.53,0,0,1,108.1,22.15Z" fill="#773220"/><path d="M83.14,19.52a.56.56,0,0,1-.39-.19.53.53,0,0,1,.06-.74,7,7,0,0,1,6.76-.77.53.53,0,0,1,.29.69.52.52,0,0,1-.68.29,5.94,5.94,0,0,0-5.68.59A.55.55,0,0,1,83.14,19.52Z" fill="#773220"/><path d="M98.63,27.88c-1.51,1.78-1.56,3.9-.49,4.82,1.61,1.38,5.67,2.15,7.37.57s1.25-4.69-1-6.26A4.3,4.3,0,0,0,98.63,27.88Z" fill="#f9feff"/><path d="M106.31,28.13c-1.58-3.15-6.2-2.62-7.73-.19a4.34,4.34,0,0,1,5.83-.83,4.57,4.57,0,0,1,2,3.39,3.65,3.65,0,0,1-1,2.85C106.17,33,107.47,30.46,106.31,28.13Z" fill="#602220"/><path d="M99,29.21a2.6,2.6,0,1,0,3.52-1.08A2.59,2.59,0,0,0,99,29.21Z" fill="#461d14"/><path d="M99.21,29a.72.72,0,1,0,1.28.68A.72.72,0,1,0,99.21,29Z" fill="#fefffe"/><path d="M90.88,26.63c1.09,2.06.69,4.14-.56,4.81-1.87,1-6,.88-7.32-1s-.21-4.84,2.36-5.89A4.31,4.31,0,0,1,90.88,26.63Z" fill="#f9feff"/><path d="M83.33,25.22C85.55,22.48,90,24,90.92,26.7a4.35,4.35,0,0,0-5.52-2.07,4.57,4.57,0,0,0-2.66,2.88,3.69,3.69,0,0,0,.33,3C82.42,30,81.69,27.24,83.33,25.22Z" fill="#602220"/><path d="M85.45,27.32A2.6,2.6,0,1,0,89,26.24,2.61,2.61,0,0,0,85.45,27.32Z" fill="#461d14"/><path d="M85.68,27.12a.72.72,0,0,0,1.28.67.72.72,0,0,0-1.28-.67Z" fill="#fefffe"/><path d="M99.71,34.82c2.23.72-3.19,7.16-6.31,6.88s-7.27-7.38-5-7.91c2-.46,2.58,1,5.72,1S97.74,34.17,99.71,34.82Z" fill="#5b0000"/><path d="M94.16,34.73c-3,0-3.72-1.31-5.46-1.08.3,1.26,2.42,2.39,5.09,2.64s5-.49,5.49-1.68C97.7,34.23,97,34.75,94.16,34.73Z" fill="#fff"/><path d="M90.69,40.23a4.92,4.92,0,0,0,2.71,1.54,4.82,4.82,0,0,0,2.9-1,5.56,5.56,0,0,0-1.66-.92A3.94,3.94,0,0,0,90.69,40.23Z" fill="#d36553"/><path d="M120.86,34.47c.25.18.74.07,1.52-.08a5.19,5.19,0,0,1,2.13-.15c.48.2.19.67-.52,1-1.17.62-3.85,2-5.23,2.52-2.29,1.12-5.17.52-6.07-1.38-1.35-2.86-1.67-4.06-2.43-5.85-.19-.44,1-.48,1.51,0,1.07,1,1,1.5,1.6,1.94s1.11.06,1.53-.55c1.13-3.4,1.4-5.43,2.54-5.7,1-.08.52,2.33-.12,5,1.84-2.59,3.54-4.54,4.16-4.06s-.33,2.88-2,5c2.29-1,4.3-2.4,4.91-1.66S120.18,34,120.86,34.47Z" fill="#ffd5c7"/><path d="M114.93,34.37c.93.81,1.87,1.56,2.87,2.28-4.71,5.81-9.25,11.37-15.52,15.52-1.06-2.06-2.24-4-3.38-6C105,43.1,109.93,39,114.93,34.37Z" fill="#ffd5c7"/><path d="M111.9,36.86c.94.88,2.75,2.67,3.62,3.6a46.23,46.23,0,0,1-13,12.13c-1.18-2.13-2.56-4.39-3.82-6.47A77,77,0,0,0,111.9,36.86Z" fill="#20bcb0"/><path d="M67.75,32.29c-.25.16-.74,0-1.5-.18a5.16,5.16,0,0,0-2.12-.31c-.49.17-.24.65.44,1.08,1.12.71,3.71,2.23,5,2.9,2.21,1.27,5.11.88,6.15-1,1.55-2.75,2-3.92,2.85-5.65.21-.43-1-.55-1.51-.14-1.13.88-1.11,1.41-1.74,1.82s-1.1,0-1.48-.66c-.89-3.47-1-5.52-2.12-5.87-1-.15-.69,2.28-.25,5-1.65-2.71-3.2-4.78-3.86-4.35s.13,2.91,1.65,5.11c-2.22-1.21-4.12-2.7-4.78-2S68.47,31.85,67.75,32.29Z" fill="#ffd5c7"/><path d="M73.68,32.62c-1,.74-2,1.42-3,2.06,4.28,6.14,8.41,12,14.37,16.6,1.2-2,2.31-3.92,3.6-5.85C82.81,41.92,78.33,37.55,73.68,32.62Z" fill="#ffd5c7"/><path d="M76.52,35.32c-1,.81-2.94,2.46-3.87,3.33A51.66,51.66,0,0,0,85.49,52.42c1.33-2,2-5.14,3.37-7.13A74,74,0,0,1,76.52,35.32Z" fill="#20bcb0"/><path d="M97,51.8l-1-.07a18.66,18.66,0,0,1,1.85-6.24l1.3-.05C98,46.84,97.09,50.62,97,51.8Z" fill="#665c57"/></svg>