<svg xmlns="http://www.w3.org/2000/svg" viewBox="0 0 3405.8 3349.64"><title>Rocket </title><path d="M2670.3,727.49c2.81,5.62,12.28,7.85,26.94,11.82,12.69,3.44,31.89,8,38.22,15.72,6.74,8.23-2,15-17.32,16.31-25.35,2.1-82.76,4.76-111.35,4-48.78,1.9-93.88-35.36-94.23-81.19-.52-68.73,3.48-95.43,4.71-137.68.3-10.42,21.43-.63,26.47,12.71,10.8,28.57,5.52,38.57,12.24,52.76,6.56,13.85,18.8,10.8,31,2.41,47.12-57.52,68.07-95.67,90-90.85,17.47,6.84-9.67,50.87-42.54,99.11,52.74-35.22,97.94-59.1,105-44,8.34,17.87-36.53,49.12-74.87,81.16,48.38-.55,98.36-14.91,98.67,10.42C2763.46,698.75,2662.37,711.68,2670.3,727.49Z" fill="#ffc19f"/><path d="M1741.52,1493.48c-57.73-62-141.26-197.38-182-252.42-37.38,20.9-108.13,86.17-54.78,146.48,50.17,56.72,99.77,103.84,177.56,170.32C1693.64,1567.5,1751.38,1504.06,1741.52,1493.48Z" fill="#ffc19f"/><path d="M1669.33,1632.66c0,72-96,130.29-214.46,130.29s-214.46-58.33-214.46-130.29,96-130.29,214.46-130.29S1669.33,1560.71,1669.33,1632.66Z" fill="#224966"/><path d="M2486.69,1423.22c0,72-132.68,62.18-251.13,62.18s-235.94-64.65-235.94-136.6,129.83-170,240.21-127C2395.08,1282.18,2486.69,1351.27,2486.69,1423.22Z" fill="#1b6168"/><path d="M0,1897S529.86,2037,654.71,2269.85c317.28-129.32,652.48-233.62,652.48-233.62s-225-341.34-391.2-400.94C766.32,1581.63,0,1897,0,1897Z" fill="#ef2525"/><g opacity="0.5"><path d="M0,1897S529.86,2037,654.71,2269.85c317.28-129.32,652.48-233.62,652.48-233.62S1171,1692.89,1018.6,1743.11c-77.47,25.53-349,218.1-511.77,231.31-124.73,10.13-254-81-289.39-162.12C91.5,1859.37,0,1897,0,1897Z" fill="#bf0606"/></g><path d="M596.17,3349.64s279.6-469.86,204.89-723.2c317.29-129.33,629.75-289,629.75-289s79.54,400.61,2.86,559.23C1364.63,3039.45,596.17,3349.64,596.17,3349.64Z" fill="#ef2525"/><g opacity="0.5"><path d="M596.17,3349.64s279.6-469.86,204.89-723.2c317.29-129.33,629.75-289,629.75-289s-408,228.52-484.73,387.14c-34.18,70.7-143.4,494.27,48.86,449.31C792.05,3270.55,596.17,3349.64,596.17,3349.64Z" fill="#bf0606"/></g><path d="M599.78,2819.86c402.89,41.77,941.78-54.88,1441.44-258.51,873.64-356.18,1416.39-1067,1360.66-1203.12-64.35-156.59-932.51-268.35-1816.74,92-403.86,164.64-779.62,402.28-1046.68,657.59-59.16,56.56-113,114-160.6,171.63l-6.19,7.47,218.49,531.9Z" fill="#d8d4d4"/><path d="M603.12,2804.15c340.62,35.34,873.6-29.56,1432.16-257.23,889.14-362.42,1399.62-1061.6,1350.19-1182-55.86-136.1-905.24-262.69-1794.38,99.73-558.56,227.67-981.84,559.85-1199.69,823.67Z" fill="#ebe3eb"/><path d="M897.62,2343.05c65.71,160.07,142,312.29,222.31,447,24-3,48.15-6.15,72.8-9.83-83.84-137.72-163.68-296.23-232.06-462.86A3352.78,3352.78,0,0,1,819.74,1896q-29.62,21.87-58,43.8C797.56,2071.4,841.4,2206.05,897.62,2343.05Z" fill="#911d1d"/><path d="M2996.74,1929c-69.82-92.46-128.32-195.57-174.42-307.9-52.45-127.78-85.47-261.57-97.69-392.86-10.11.19-20.37.48-30.64.78,12.15,135,45.81,272.52,99.67,403.76,47.58,115.92,108.12,222.25,180.59,317.42C2981.92,1943.11,2989.28,1936.07,2996.74,1929Z" fill="#ef2525"/><path d="M790.75,2393.82c59.66,145.37,128.11,284.37,200.26,409.6,12.59-1,24.67-1.62,37.48-2.83C954.15,2673.11,883.58,2530.37,822.27,2381c-53.65-130.7-96.36-259.34-131.14-385-9.73,8-18.68,16-28.14,24C697.4,2142.22,738.69,2267,790.75,2393.82Z" fill="#911d1d"/><path d="M2881.47,1588.77c44.46,108.34,106.55,202.29,179.12,278.11,233.72-235.87,349.65-441.63,324.88-502-27.55-67.12-248.33-131.81-571.49-136.79C2810.31,1343.72,2831.71,1467.52,2881.47,1588.77Z" fill="#ef2525"/><polygon points="583.13 2825.42 361.81 2286.15 402.93 2253.88 635.88 2823.09 583.13 2825.42" fill="#ef2525"/><polygon points="492.69 2885.87 254.78 2306.19 362.94 2262.1 600.85 2841.78 492.69 2885.87" fill="#911d1d"/><path d="M728.26,2530.89c-292.75,119.27-536.61,170.18-547.44,143.78-10-24.43,199-160.33,491.72-279.6s538.52-160.08,545.53-143C1224.27,2267.18,1021,2411.62,728.26,2530.89Z" fill="#ef2525"/><g opacity="0.13"><path d="M3386.82,1337.91c-142.23,352.87-772,781.82-1590.7,1049.84-583.85,191.14-1133.85,257.45-1515.77,206.4-66.54,40.89-103.52,70.78-99.53,80.52,5.74,14,87.52,1.77,211.85-32.51l100,243.71,108.16-44.09-8.3-20.2,4.84-2,2.39.25c64.33,6.67,133.1,8.56,203.65,8.3-42.35,243.63-207.26,521.48-207.26,521.48s169.88-66.37,398.77-175.78c198.83-95.05,404.55-206.51,438.73-277.22,18.88-39,28.22-92.85,31.68-151.66a3873.69,3873.69,0,0,0,575.87-183.63c873.64-356.18,1416.39-1067,1360.66-1203.12C3399,1351.3,3392.73,1344.62,3386.82,1337.91Z" fill="#260101"/></g><ellipse cx="2819.22" cy="1336.27" rx="302.74" ry="67.07" transform="translate(-105.57 250.34) rotate(-4.99)" fill="#fff" opacity="0.29"/><path d="M2595.56,763c9.86-5.21-35.58-86.2-45.78-81.6-152.39,68.75-348,143.61-389.46,156.23l55.73,108.17C2303.15,904.54,2465.35,831.86,2595.56,763Z" fill="#ffc19f"/><path d="M2357.15,763.14c16.38,37.83,40.24,116.74,54.71,157-81.62,35.29-149.61,59.6-156.06,58.46-67.13-11.85-108.77-140.45-113.65-148C2185.08,819.64,2276.65,795.13,2357.15,763.14Z" fill="#f95006"/><path d="M1805.16,1157.06c139.17,16.34,188.51,190.07,328.74,134.66,56.61-22.37,70.41-78.17,133.74-65.2,10.71-21.18-20.07-21.71-9.95-30.4,16.39-14.09,2.53-12.92,3.12-18.59,13.05-125,6.51-261.4,11.39-344.55-44.61-21.75-296-37-385.47-17.75C1836.73,919.47,1824.7,1019.71,1805.16,1157.06Z" fill="#f95006"/><path d="M1984.83,805.87a34.76,34.76,0,0,0-3.39,11.9c-2.34,47.58,46.45,92.59,109.88,95.71s117.48-36.83,119.82-84.4c.14-2.88-2.45-13.27-3-16.57C2150.94,803.39,2061.15,804.62,1984.83,805.87Z" fill="#a02e07"/><path d="M2193.77,700l-10,139.53c-2.15,30-42,51.59-89.06,48.23s-83.42-30.42-81.27-60.42l10-139.52Z" fill="#ffc19f"/><path d="M2251.49,756.57a84.22,84.22,0,0,0,1.5-22.44c-69.1-16.3-174-34.61-250.25-39.82-1.16,3.18-3,6-3.72,9.4-12.94,58.17,33.09,117.16,102.8,131.75S2238.55,814.74,2251.49,756.57Z" fill="#7a0000" opacity="0.19"/><path d="M1948.09,1762.33c-1.07,3.71,131.17,47.9,133,43.6,16.07-37.39,42.21-115.13,51.13-137L1991,1621.64C1980.84,1660.88,1955.79,1735.53,1948.09,1762.33Z" fill="#ffc19f"/><path d="M1938.28,1782.66c-.5,2.31,157.57,54.82,158.84,52.23,11.11-22.43,29.91-79.23,35.87-92.41l-172.76-47.26C1954.43,1721.62,1941.92,1765.92,1938.28,1782.66Z" fill="#fff"/><path d="M2122.46,1815.16c1-8.69.54-20.39.74-30.84.15-7.75-66.15-33.06-72.81-17a102.67,102.67,0,0,0-4,11.3c-11.32-4.41-23.49-9.44-36.2-15.08-27.66-12.26-51.9-24.62-68.42-34.51-11.4,25.13-26.91,70.34-39.35,98.37,0,0,271.82,172.74,335.2,148.67C2255.5,1969.34,2203.1,1886.42,2122.46,1815.16Z" fill="#067e87"/><path d="M1909.84,1809.72c-2.54,6.32-5,12.39-7.41,17.73,0,0,271.82,172.74,335.2,148.67,2.52-1,3.62-3.45,3.46-7.18C2153,1954.05,1978,1851.28,1909.84,1809.72Z" fill="#036163"/><path d="M2139.73,1831.68a4.43,4.43,0,0,0,5-7.33c-15.59-10.54-38.64-10.61-56.11,0a4.42,4.42,0,0,0-1.5,6.08,4.5,4.5,0,0,0,2,1.76,4.44,4.44,0,0,0,4.09-.26C2107.8,1823.05,2127,1822.91,2139.73,1831.68Zm18.42,19.45a4.34,4.34,0,0,0,6-1.79,4.43,4.43,0,0,0-1.8-6c-17.14-9.33-37.61-9.69-56.13-1.15a4.43,4.43,0,1,0,3.71,8C2131.79,1840.16,2149.52,1846.45,2158.15,1851.13Zm23.5,13.22c-15.08-9.31-38.93-10.2-58-2.29a4.43,4.43,0,0,0-.1,8.14,4.36,4.36,0,0,0,3.49,0c16.65-6.89,37.35-6.38,50,1.65a4.36,4.36,0,0,0,6.09-1.45A4.43,4.43,0,0,0,2181.65,1864.35Z" fill="#d3dae5"/><g opacity="0.3"><path d="M2012.76,1277.62c34.9,25,150.3,80.38,179,146.91,20.05,46.41,2.61,148.57-49.64,302.7-9.11,3.57-117.53-43-167.19-64.24,39.87-124.32,43.51-144.62,31.62-152.26-38.81-24.94-57-39.92-113.27-73.66C1862.84,1418.82,1948.24,1332.85,2012.76,1277.62Z"/></g><path d="M1864.55,1172.35c39,26.41,101.61,72.18,120.86,85.38,123.8,84.81,172.16,113.21,201.26,179.55,20.29,46.28-6.59,132.8-52.35,283.38-12.23-1.93-134.65-43.66-166.51-58.86,34.73-121.52,44-139.56,32.75-147.78-27.77-20.31-69-40.43-91.2-54-29.84-18.24-76.32-45.29-92.61-80.62C1787.67,1316.3,1820.4,1244.71,1864.55,1172.35Z" fill="#1b6168"/><path d="M1786.93,1271.81c7.4,13.36,20,43.71,80.8,32.27,43.94-8.29,86.55-74.5,175.86-34.7-53.44-114.89-190.76-135.68-235.47-135.68C1802.29,1166.61,1794.33,1228.57,1786.93,1271.81Z" fill="#f95006"/><g opacity="0.34"><path d="M2122.38,951.77l21.89,44.35a13.35,13.35,0,0,0,10.06,7.31l49,7.12a13.36,13.36,0,0,1,7.41,22.8l-35.42,34.52a13.38,13.38,0,0,0-3.84,11.83l8.36,48.76a13.37,13.37,0,0,1-19.4,14.09l-43.78-23a13.35,13.35,0,0,0-12.44,0l-43.78,23a13.37,13.37,0,0,1-19.4-14.09l8.37-48.76a13.38,13.38,0,0,0-3.85-11.83l-35.42-34.52a13.37,13.37,0,0,1,7.41-22.8l48.95-7.12a13.33,13.33,0,0,0,10.06-7.31l21.9-44.35A13.36,13.36,0,0,1,2122.38,951.77Z" fill="#fff"/></g><path d="M2212,1252.86c-57.74-62-141.27-197.38-182-252.41-37.38,20.9-108.13,86.17-54.78,146.48,50.17,56.72,99.77,103.84,177.56,170.31C2164.14,1326.89,2221.88,1263.44,2212,1252.86Z" fill="#ffc19f"/><path d="M1819.37,953.49c-5.6,36.91,14.47,80.46,83.23,194.7C1958.71,1123,2073.22,1030.51,2075,1026c-48.49-68.67-142-213.68-142.2-217.82-17.43-.33-34.93,3.17-47.52,6C1847.77,842.8,1827.54,899.73,1819.37,953.49Z" fill="#f95006"/><path d="M2230,1419.84c-21.67-20.23-44-45.53-81.3-95.16-27-35.93-7.47-65.78,13.36-77.28,11.95-6.61,90.66-17.07,112-8.65,14,5.56,42.06,18,42.75,21.47,3.34,16.79-20.2,19.43-43.94,11.13-7.2-1.8-14.12-2.16-25.1,2.49-2.9,5,44.3,19.24,63.05,29.14,15,7.91,43.07,45,41.11,50.19-4.82,12.75-36-11.21-49.44-19.81-4.69-3-21-7.83-31.61-9.43,8.09,10,26.51,24.4,32.48,30.67,11.5,12.08,40.18,35.08,36.18,45.86-3.12,8.42-24.71-2.17-48.29-19.23-5.72-4.13-27.41-18.87-41.84-28.07-.49.52,26.29,30,31,33.18,13.83,9.47,33.85,20.63,30.8,37.19-.84,4.52-37.24-8.44-50.65-19.43-6-4.91-19.63-15.21-34.57-29.22,6.61,10.07,21,27,24.14,30.58,23.07,11.14,31.91,16.39,29.85,28.85C2279.21,1438.16,2240.27,1429.48,2230,1419.84Z" fill="#ffc19f"/><path d="M1866.8,876.53c-13-6.92-52.55-31.69-46.85-102.6,2.12-26.26-15.78-33.91-31.58-40.68-21.55-9.22-40.16-17.18-24.06-64.75,20.14-59.48,2.56-108-45.85-126.64-37.53-14.43-78.58-46.17-113.93-87.05-14.19-24-25.88-47.23-34.06-64.46-204.38-22.27-485,78-583.82,129.84l-56.9-1.75c-1.62,52.21-46.85,102.85-70.29,139.67-28.4,44.62-38.41,89.76-13.48,134.12,9.87,17.59,17.72,33.34,13.51,47.89-3.57,12.3-16,23.73-38,34.92-21.77,11.08-34.51,23.86-38.9,39.06-6.22,21.45,5.55,42.4,15.91,60.88,7.31,13,8.38,33.72,5.83,44.66-9.38,40.35-21.22,55.88-11.9,82.83-4.64-29,9.79-45.89,18.59-79.67,3.29-12.6,3.56-32.69-10.06-56.79-9.67-17.11-16.64-31.42-11.35-49.69,3.78-13.07,15.27-24.33,35.13-34.44C849,869.54,862.27,857,866.51,842.32c1.61-5.54,1.45-11.15.64-16.8,14.59,26.34,16.6,48.88-29.11,75.82-84,49.51,7.69,102.88-2.67,131.28C817.58,1081.37,812,1091,819.14,1127c8.15,41.17,38.92,62.9,68,68.34-.26-6.57-32.51-41.83-14.48-107.42,8.67,34.23,49.23,112.65,58.59,113.82,149.27,18.74,589.31,14.81,740.16-77.74,28.82-17.68,16.2-87.54,22.65-107.73,4.68-14.62,23.19,64.83,32,84.94,162.08-122.57,75.76-168.6,61.41-177.55-16.93-10.56-24.4-33,8.17-135.89,16.6-52.48-85.58-17.31-55.46-106.37,18.07-53.38,3.67-95.82-43.65-121.78-16.59-9.1-32.36-24-47.13-41.13,22.17,14.24,44.41,25.82,65.17,33.81,44.9,17.28,61.77,57.74,42.84,113.68-18.42,54.41,7.42,65.47,28.18,74.36,16.06,6.87,28.9,12.3,27.08,33C1805.68,852.43,1859.42,874.9,1866.8,876.53ZM847.58,778.45c-16.4-36.83-9.3-73.14,15.51-112.12,14-21.91,37-41.21,54.36-64.13C898.2,673.2,843.35,726.24,847.58,778.45Z" fill="#752912"/><path d="M1628.89,1293.45c-41.29,23.94-146.92,83-199.41,83.67-31.35-121.95,51.06-262,51.51-268.67C1509.52,1122.91,1574.14,1213.85,1628.89,1293.45Z" fill="#28afc6"/><path d="M1028.62,1526.36c228.3,7.76,423.58-9.55,458.57-24-.15-128.06-4.08-306.1-6.2-393.92-7.64-12-250.78-54-382.29-9C1072.53,1181.3,1033.91,1417.71,1028.62,1526.36Z" fill="#28afc6"/><path d="M1425.25,1113.43c.56-6.13-.89-14.3-2.1-20.2-56.71-9.62-140.61-18-222.24-12.9a21.65,21.65,0,0,0-4.69,12.32c-4.3,47.44,42.59,94.42,105.83,100.16S1421,1160.87,1425.25,1113.43Z" fill="#ffc19f"/><path d="M1397.44,972.86v139.28c.21,30.07-37.36,54.73-84.51,55.06s-86-23.79-86.26-53.87V972.86Z" fill="#ffc19f"/><path d="M1568.19,1022.35c1.3-9.94.44-19.69-1.15-29.36-101.8-15.68-255.42-31.06-365.86-31.71-1.21,4.23-3.38,8.1-4,12.55-10,76.84,64.84,150,167.28,163.39S1558.14,1099.19,1568.19,1022.35Z" fill="#7a0000" opacity="0.19"/><path d="M1472.48,1527.21c-37.12,18.9-310.4,74.22-355.79,26.52,0,0,49.54-263.09,65.19-347.94,57.66,7.5,242.53,16.55,300.5,18.13C1483.07,1288.38,1479.57,1368.41,1472.48,1527.21Z" fill="#224966"/><polygon points="1396.33 1426.35 1318.92 1440.64 1244.64 1409.94 1255.13 1300.63 1403.2 1306.92 1396.33 1426.35" opacity="0.21"/><polygon points="1394.86 1414.66 1324.35 1428.04 1256.76 1399.6 1266.44 1298.01 1399.21 1311.2 1394.86 1414.66" fill="#2b5f7f"/><path d="M1425.42,1221.7c16.29.71,31.77.92,47.21,2.26-.76,11.58-2.56,33.31-3.49,39.4l-47.45-1.54C1422.5,1254.06,1424.2,1233,1425.42,1221.7Z" opacity="0.35"/><path d="M1467.53,1259c5.85-90.88,7.71-129.46-1.11-161l-35.13-8c6.1,42.56,10.63,66.55.78,167.62Z" fill="#224966"/><path d="M1442,1239.33a10.27,10.27,0,1,0,9.16-11.29A10.28,10.28,0,0,0,1442,1239.33Z" fill="#6d9bb2"/><path d="M1185.9,1251.25,1231,1253c0-4.47-1.32-29.85-1.78-42.64-16.56-1.31-30.71-2.62-41.66-3.9C1186.84,1219.46,1185.88,1247,1185.9,1251.25Z" opacity="0.35"/><path d="M1189.36,1243.51c0-4.19,1.6-97.78-18.44-164.71l37.82-3.46c16.9,71.05,16.21,166.46,16.23,170.91Z" fill="#224966"/><path d="M1198.53,1226.48a10.26,10.26,0,1,0,9.15-11.28A10.27,10.27,0,0,0,1198.53,1226.48Z" fill="#6d9bb2"/><path d="M1449.18,1463.68c-72-44.68-188-153.47-241.74-195.92-30.59,30-81.77,111.49-14.48,155.72,63.27,41.59,123.49,74.07,216,117.84C1422.36,1547.67,1461.47,1471.31,1449.18,1463.68Z" fill="#ffc19f"/><path d="M1027.78,1247.46c1.82,37.28,34.61,82.26,91.28,182.45,50-35.77,164.49-117.79,165.34-122.58-54.38-72.26-176.22-206.56-177.24-210.59-17.15,3.14-38,9.24-49.82,14.56C1035.76,1148.83,1025.13,1193.14,1027.78,1247.46Z" fill="#28afc6"/><path d="M1703.6,793.32c-9.53,73.12-70.51,124.49-121,122.44s-66.72-59.65-65.83-129.27,42.59-124.58,93.08-122.36C1678.86,667.18,1712.55,724.61,1703.6,793.32Z" fill="#f4b18c"/><path d="M923.84,586.25c.16,263.9,216.36,414,435.71,389.31s358.53-224.51,307.73-475.79c-28.21-139.52-168.3-243.85-377.7-218.91C1066.71,307.41,923.72,381.69,923.84,586.25Z" fill="#752912"/><path d="M1015.31,518.72c-14.9,46.21,59.16,433.5,110,482.51,54,52,260.25,77.18,300.84,72.61,43.47-4.89,181.91-73.77,211.57-140.94,35.1-79.48,13.08-415.7-5.42-455.21-62.52-133.45-183.73-124.54-341.58-106.77C1143.1,387.55,1054,398.82,1015.31,518.72Z" fill="#ffc19f"/><path d="M940.41,895.18c28.45,72.91,107.19,111.51,161.31,97.65s21.14-236.59-80.32-244.33C936.91,742.06,913.66,826.64,940.41,895.18Z" fill="#ffc19f"/><path d="M1001.12,884.86c8,31.27,46.78,53.95,72.64,42,10.09-4.64-20.47-113.41-37.2-111.48C1008.28,818.71,993.11,853.58,1001.12,884.86Z" fill="#e0956c"/><path d="M1126.84,893.24c.92,15.92,23.77,27.54,51.05,26s48.64-15.73,47.72-31.65-23.77-27.53-51-26S1125.92,877.34,1126.84,893.24Z" fill="#ff9797"/><path d="M1549.56,849.63c2.21,14,21,22.66,42,19.35s36.21-17.35,34-31.34-21-22.66-42-19.36S1547.35,835.63,1549.56,849.63Z" fill="#ff9797"/><path d="M1515,877.06c-7.12-24.85-45.39-14.82-108.9-9.56-3.32.28-16.23,1.44-19.56,1.76-63.43,6.12-102.88,3-105.46,28.77-5,49.54,61.07,97.24,125.55,91.66l1.12-.11C1472.15,983.61,1528.66,924.92,1515,877.06Z" fill="#701608"/><path d="M1408.12,990.57l-1.12.1c-20.91,1.8-43.12-2.19-64.29-11.47l-1.29-.54,1-1c15.4-16.52,37.22-26.82,61.44-29s47.48,4.09,65.62,17.6l1.12.83-1.17.77C1450.17,980.75,1429,988.63,1408.12,990.57Z" fill="#dd6b5b"/><path d="M1399.53,900.83c-44.36,4-82.51-6.46-88.77-24.29l-.37-1.1L1482.73,860l-.17,1.14C1479.54,879.8,1443.85,896.86,1399.53,900.83Z" fill="#fff"/><path d="M1375,838.42a3.64,3.64,0,0,0,3.23-3.43c.66-12.82,9.7-22.07,23-23.57s24.5,5.64,27.66,17.78a3.64,3.64,0,1,0,7-1.83c-4-15.56-18.66-25.1-35.53-23.2s-28.63,14.12-29.48,30.44a3.64,3.64,0,0,0,3.44,3.83Z" fill="#c4735b"/><path d="M1106.65,652.91a12.38,12.38,0,0,0,7.47-4.5c24.51-31,78.82-48.57,126.47-40.84a12.38,12.38,0,0,0,14.2-9.82,11.83,11.83,0,0,0-9.94-13.73c-56.84-9.17-120,11.84-150.09,50a11.68,11.68,0,0,0,2.18,16.71A12.32,12.32,0,0,0,1106.65,652.91Z" fill="#681d0c"/><path d="M1611.86,586.15a9.88,9.88,0,0,0,7.11-3.91c3.31-4.38,2.15-13.85-2.23-17.17C1584.89,541,1531,538,1488.58,557.9c-5,2.35-6.81,11.51-4.48,16.48a9.93,9.93,0,0,0,13.23,4.77c35.54-16.72,81.84-14.56,107.71,5A9.86,9.86,0,0,0,1611.86,586.15Z" fill="#681d0c"/><path d="M1548,360.48c-63.74-21.32-175.65-19.21-273.7-3.5-106.59,17.08-214,49.53-266.21,96.88C973.52,485.18,958.33,680,974.43,661.55c18.41-21.06,49.79-42.26,88.53-61.85,1.59-21.45,21.43-77.53,25.85-85.26-.25,11.24,2.82,50.15,4.66,70.84,48.84-21.62,105.76-40.42,162.18-53.63-4.89-21.52,1.06-51.57.86-53.06,7.71,5.4,26.17,33.59,34.07,45.58q12.83-2.48,25.45-4.5c77.07-12.35,134.89-16.68,181.8-15.28-14-66.69-17.88-87.61-17.52-83,10.65,12.85,28.14,52.13,34.32,83.73a424.85,424.85,0,0,1,48.74,5.79c-1.89-19.77-2.88-52.09-3.18-57.55,6.62,2.63,25.3,43.92,32.8,64.11,25.41,6.69,48.49,15.51,72.42,25.61C1691.56,554.14,1599.34,377.68,1548,360.48Z" fill="#752912"/><path d="M1482.89,802.25s96.65,24.37,124.88-37.42c34.4-75.3-38-123.3-79.27-107.54C1490.3,671.87,1459.41,716.52,1482.89,802.25Z" fill="#f9feff"/><path d="M1603.86,674.23c-20.21-23.58-44.2-29-68.81-23.13-25.17,6-48.42,30.43-53,53.43,10.7-26.54,33.27-38.4,47.55-43.85,22.73-8.71,55,.25,71.89,23.81,15,21,18,54.66,5.39,82.29C1623.31,747.09,1624.92,698.81,1603.86,674.23Z" fill="#773220"/><path d="M1494.82,723.28c-5.42,26.26,8.44,53.72,31,61.33s45.2-7.51,50.62-33.77-8.43-53.73-31-61.33S1500.25,697,1494.82,723.28Z" fill="#63190d"/><path d="M1497.24,715.06c-1.51,7.28,2.34,14.9,8.59,17s12.53-2.08,14-9.37-2.34-14.9-8.59-17S1498.74,707.77,1497.24,715.06Z" fill="#fefffe"/><path d="M1317.71,822.25s-105.54,48-154.15-4.83c-59.23-64.36,12.15-129.16,64-124.28C1275.49,697.66,1322.76,733.18,1317.71,822.25Z" fill="#f9feff"/><path d="M1144.7,728.57c17.3-28,43.67-39.24,73.66-39.78,30.65-.55,63.88,17.31,75.17,38.45-19.24-23-48.41-28.86-66.34-30.54-28.55-2.73-63.59,14.09-77,41.2-12,24.12-6.75,57.56,15,81.18C1141,804.13,1126.67,757.71,1144.7,728.57Z" fill="#773220"/><path d="M1175,761.42a49.64,49.64,0,1,0,60.77-35.14A49.63,49.63,0,0,0,1175,761.42Z" fill="#63190d"/><path d="M1178.1,753.12a13.77,13.77,0,1,0,16.86-9.75A13.78,13.78,0,0,0,1178.1,753.12Z" fill="#fefffe"/><path d="M891.58,632s-14.22,58.8,19.46,53.88,57.36-33.78,52.87-64.45-35.42-51.55-69.1-46.63S891.58,632,891.58,632Z" fill="#f9951e"/><path d="M1072.43,605.62s30.44,52.28-3.24,57.2-64.62-16-69.1-46.64,19.19-59.52,52.87-64.45S1072.43,605.62,1072.43,605.62Z" fill="#f9951e"/><path d="M1004.43,616.35c2.13,14.57-6.54,27.9-19.37,29.78s-24.95-8.42-27.08-23,6.55-27.91,19.37-29.79S1002.3,601.77,1004.43,616.35Z" fill="#f9951e"/><path d="M1517.38,1643.34c-24.21-17.11-49.77-39.15-93.45-83.27-31.61-31.94-16.31-64.16,2.77-78.38,11-8.17,87.51-29.19,109.76-23.73,14.67,3.61,44.11,12.12,45.27,15.47,5.58,16.19-17.38,22-42,17-7.38-.81-14.28-.23-24.53,5.86-2.2,5.32,46.49,13.06,66.41,20.33,15.92,5.81,48.77,38.76,47.53,44.16-3,13.29-37.14-6.23-51.67-12.93-5-2.33-21.88-4.91-32.59-5.06,9.37,8.8,29.57,20.59,36.33,26,13,10.41,44.57,29.31,42.06,40.53-2,8.77-24.77,1.2-50.45-12.5-6.23-3.32-29.71-15-45.25-22.15-.42.59,30.11,26.14,35.16,28.68,15,7.52,36.34,15.86,35.55,32.68-.21,4.6-38-3.32-52.81-12.39-6.59-4.06-21.51-12.41-38.2-24.27,7.91,9.08,24.51,24,28,27,24.37,7.9,33.84,11.91,33.49,24.54C1568.66,1654.82,1528.91,1651.5,1517.38,1643.34Z" fill="#ffc19f"/><path d="M1370.5,1988.14c1,3.56,135.77-27.79,135.12-32.23-5.57-38.61-23.33-115.2-27-137.52l-144,33.36C1346.18,1888.88,1363.27,1962.39,1370.5,1988.14Z" fill="#ffc19f"/><path d="M1347.85,1994.06c.19,2.27,159.82,5.74,160.26,3,3.84-23.69,5-81,6.77-94.79l-171.61,5.48C1345.41,1933.59,1346.46,1977.7,1347.85,1994.06Z" fill="#fcefae"/><path d="M1525.75,1971.85c-1.54-8.25-5.27-18.83-8-28.47-2-7.14-69.93-11.61-71.49,5a100.69,100.69,0,0,0-.47,11.48c-11.6-.84-24.17-2-37.42-3.6-28.79-3.42-54.49-7.9-72.42-12.29-3.34,26.24-4.79,72-8.27,101.22,0,0,297.77,81.51,349,41.57C1691.14,2075.53,1619.73,2014.36,1525.75,1971.85Z" fill="#f44d19"/><path d="M1329.43,2026.88c-.55,6.51-1.12,12.79-1.78,18.34,0,0,297.77,81.51,349,41.57,2-1.58,2.33-4.18,1.14-7.56C1592.9,2090.47,1403.58,2045.73,1329.43,2026.88Z" fill="#b22909"/><path d="M1546.23,1982.11a4.25,4.25,0,0,0,2.5-8.13c-17.25-5.26-38.39,1.19-51.41,15.79a4.25,4.25,0,0,0,.34,6,4.21,4.21,0,0,0,2.32,1,4.25,4.25,0,0,0,3.67-1.4C1514.55,1983.21,1532.05,1977.67,1546.23,1982.11Zm22.37,12.61a4.14,4.14,0,0,0,5-3.33,4.24,4.24,0,0,0-3.33-5c-18.34-3.71-37.19,1.73-51.75,14.79a4.25,4.25,0,0,0,5.67,6.33C1541.35,1992.11,1559.36,1992.88,1568.6,1994.72Zm25.26,5.48c-16.45-4.27-38.54,1.64-53.82,14.28a4.25,4.25,0,0,0-.56,6,4.2,4.2,0,0,0,2.77,1.5,4.26,4.26,0,0,0,3.21-.94c13.3-11,32.41-16.39,46.27-12.61a4.18,4.18,0,0,0,5.18-3.05A4.25,4.25,0,0,0,1593.86,2000.2Z" fill="#d3dae5"/><g opacity="0.35"><path d="M1177.58,1520.06c42.73,4.15,182.81,1.33,241,44.52,40.59,30.12,64.3,137.42,96.29,297-6.09,7.65-137.78,28.4-171.61,23.31-27.78-127.56-40.06-148.72-54.17-149.37-46.09-2.15-69.31-6-134.94-7C1118.65,1728,1149.42,1600.18,1177.58,1520.06Z"/></g><path d="M1024.6,1481.58c38.72,9.59,90.52,26.06,113.57,29.7,147.31,23.23,211.57,27.59,270,70.43,40.75,29.88,60.83,123.43,96.67,276.67-5.78,7.15-140.7,30-174.1,24.25-30.82-122.56-31.3-140.26-45.19-141.27-45.37-3.31-71.73.82-136.29-1.93-34.94-1.49-80.51-1.35-114.08-32.55C984.28,1659.57,998.62,1563.24,1024.6,1481.58Z" fill="#224966"/><rect x="1314.11" y="1827.88" width="198.11" height="55.73" transform="matrix(0.99, -0.17, 0.17, 0.99, -294.28, 266.57)" fill="#5799c1"/><path d="M2487.88,523.83c-7.19,72.2-65.65,124.55-115.38,124s-67.42-56.7-68.61-125.21,38.18-123.81,87.91-123.13C2459.78,400.47,2494.65,456,2487.88,523.83Z" fill="#f4b18c"/><path d="M1677.73,344.67c9.6,269.47,265.3,399.05,479.12,368.39S2499.76,474.91,2441,219.58C2408.44,77.82,2267.57-25.24,2063.5,5.43,1846.29,38.06,1670.29,135.78,1677.73,344.67Z" fill="#84220f"/><path d="M1802.63,274.22c-13.28,45.9,71.11,424.66,122.65,471.36,54.66,49.54,197.14,87.43,298.09,62.46,62.81-15.54,176.74-78,203.92-144.95,32.16-79.23.47-409.31-18.91-447.63-65.48-129.41-184.44-117-339.19-94.84C1924.43,141.38,1837.08,155.12,1802.63,274.22Z" fill="#ffc19f"/><path d="M1740.17,646.77c30.16,70.88,108.77,106.5,161.59,91.25s13.74-233.37-86.29-237.95C1732.16,496.25,1711.82,580.15,1740.17,646.77Z" fill="#ffc19f"/><path d="M1799.59,634.8c8.81,30.53,47.62,51.68,72.71,39.21,9.78-4.87-23.52-111-39.91-108.55C1804.66,569.52,1790.78,604.28,1799.59,634.8Z" fill="#e0956c"/><path d="M1925.6,654.53c1.63,15.59,24.64,26,51.38,23.16s47.09-17.72,45.46-33.32-24.65-26-51.39-23.16S1924,638.93,1925.6,654.53Z" fill="#ff9797"/><path d="M2059,624.85c-5.39,51.12,80,111.33,150.6,100,70.27-11.26,111.77-75.88,105.59-126.67-7.71-27.35-53.07-14.62-122.89-8.68S2062.23,593.75,2059,624.85Z" fill="#701608"/><path d="M2197.05,679.71c32.75-3,58.59,2.51,76.26,16.07-17.25,14.09-41.06,28.16-68.42,30.55-30.79,2.7-62.23-5.09-81.14-17.09C2130.42,693.92,2167.75,682.39,2197.05,679.71Z" fill="#dd6b5b"/><path d="M2092,599.49c23.45-9.39,61.46-7.91,96.21-10.87,39.22-3.33,67.54-10.75,92.51-7.56-7.44,21.78-39.06,38.21-84.15,42.57C2144.47,628.66,2101,621.32,2092,599.49Z" fill="#fff"/><path d="M2339.14,592.09c2.82,13.66,21.7,21.31,42.18,17.08s34.79-18.72,32-32.38-21.72-21.31-42.18-17.08S2336.32,578.44,2339.14,592.09Z" fill="#ff9797"/><path d="M2160.47,566.48a3.58,3.58,0,0,0,3.07-3.47c.28-12.63,8.89-22,21.94-23.88s24.28,4.82,27.75,16.68a3.59,3.59,0,0,0,6.88-2c-4.44-15.18-19.1-24.13-35.64-21.76s-27.75,14.74-28.1,30.82a3.6,3.6,0,0,0,3.51,3.67Z" fill="#c4735b"/><path d="M1892.07,391.69a10.94,10.94,0,0,0,6.53-4.3c20.89-29,68.84-46.31,111.66-40.29a11,11,0,0,0,3-21.7c-51.08-7.14-106.81,13.54-132.47,49.2a11,11,0,0,0,11.24,17.09Z" fill="#752912"/><path d="M2399.32,314.76a9.78,9.78,0,0,0,4.56-17.7c-32.05-22.72-85.16-24.06-126.28-3.24a9.79,9.79,0,0,0,8.86,17.47c34.45-17.51,80.07-16.77,106.1,1.73A9.75,9.75,0,0,0,2399.32,314.76Z" fill="#752912"/><path d="M2265.54,535.91s95.8,21.09,121.72-40.53c31.6-75.1-41-120.16-81.18-103.43C2268.94,407.44,2239.89,452.28,2265.54,535.91Z" fill="#f9feff"/><path d="M2380.72,406.38c-20.58-22.6-44.34-27.19-68.38-20.71-24.57,6.62-46.73,31.38-50.59,54.14,9.74-26.43,31.58-38.77,45.47-44.55,22.1-9.25,54.12-1.4,71.43,21.27,15.39,20.18,19.35,53.24,7.76,80.8C2402,477.46,2402.17,429.92,2380.72,406.38Z" fill="#773220"/><path d="M2276.38,455.77c-4.56,26,9.89,52.59,32.28,59.41s44.23-8.74,48.79-34.73-9.9-52.6-32.29-59.41S2280.93,429.78,2276.38,455.77Z" fill="#63190d"/><path d="M2278.5,447.61c-1.26,7.21,2.75,14.59,9,16.48s12.28-2.42,13.54-9.63-2.75-14.59-9-16.49S2279.77,440.4,2278.5,447.61Z" fill="#fefffe"/><path d="M2103.65,560.5s-102.39,50.36-151.78-.15c-60.19-61.55,8.1-127.42,59.22-124.16C2058.4,439.2,2106,472.74,2103.65,560.5Z" fill="#f9feff"/><path d="M1930.67,473.51c16.18-28,41.79-39.9,71.27-41.32,30.14-1.46,63.35,15.12,75.09,35.58-19.62-22.1-48.48-26.95-66.17-28.07-28.17-1.83-62.13,15.77-74.55,42.83-11,24.08-4.93,56.82,17.17,79.4C1929.28,548,1913.8,502.71,1930.67,473.51Z" fill="#773220"/><path d="M1965.11,501.8a48.85,48.85,0,1,0,58.73-36.38A48.84,48.84,0,0,0,1965.11,501.8Z" fill="#63190d"/><path d="M1967.87,493.54a13.55,13.55,0,1,0,16.3-10.1A13.55,13.55,0,0,0,1967.87,493.54Z" fill="#fefffe"/><path d="M1757.26,347.57c-26.56-2.83-20.67-11.58-46.62-17.29,94.54-35.27,45-178.1,165.61-250.32,199.47-101.79,361.9-76.86,420-50.6,107.13,48.37,162.78,146.5,179.73,235.11,22.67,79.48,16.25,107.66,60.17,121.59-43.66,18-46.08,9.23-61.7-11.16,2.9,66.6,13.49,95.44,48.46,113.58-54,20.85-80.21-14.61-89.34-67-10.88-62.37-13.54-182.55-24.84-203.91-6.55-12.36-81.83-76.57-101.32-75.05-42.49,3.3-72.91,156.91-223.11,170.58,57-39.4,84.94-89.49,111.07-159.43a235,235,0,0,0-32.41,29.9C2051.86,306.88,1941.35,346.66,1834.6,348.8c29.26,110.59,60.21,251.62-58.57,269.59,10.49-16.45,32.82-95.59-5.59-150.67C1757.08,478.18,1762.71,421.87,1757.26,347.57Z" fill="#84220f"/></svg>