<svg xmlns="http://www.w3.org/2000/svg" width="310.101" height="532.373" viewBox="0 0 310.101 532.373">
  <g id="Group_17" data-name="Group 17" transform="translate(-903.485 -980.8)">
    <path id="Path_1" data-name="Path 1" d="M1025.246,1771.528c-7.95,11.04-12.149,24.3-18.846,36.142S989.135,1830.63,975.6,1832c6.294,5.493,15.275,6.644,23.623,6.327,30.282-1.15,58.453-18.68,77.071-42.59,5.816-7.469,10.932-15.828,12.535-25.158,1.267-7.37.044-15.551-4.355-21.728-4.561-6.4-13.085-4.085-19.988-2.6A65.667,65.667,0,0,0,1025.246,1771.528Z" transform="translate(-31.547 -334.122)" fill="#ffa912"/>
    <path id="Path_2" data-name="Path 2" d="M987.659,1828.181q1.069-.006,2.129-.046c30.282-1.15,52.723-24.239,68.4-77.305,2.681-9.078,19.608,18.886,21.211,9.557a31.466,31.466,0,0,0-1.081-15.256,9.648,9.648,0,0,1,6.112,3.946c4.4,6.178,5.623,14.358,4.356,21.729-1.6,9.329-6.72,17.689-12.535,25.157-18.618,23.911-46.788,41.441-77.071,42.591-8.348.317-17.329-.833-23.623-6.327A30,30,0,0,0,987.659,1828.181Z" transform="translate(-31.526 -334.359)" fill="#f2881d"/>
    <path id="Path_3" data-name="Path 3" d="M999.176,1881.108c-8.348.317-17.329-.833-23.624-6.326,13.535-1.369,24.1-12.486,30.8-24.327,1.483-2.623,2.844-5.315,4.15-8.037a5.647,5.647,0,0,1,2.126.3c3.455,1.112,4.653,4.8,7.648,6.554,2.727,1.6,6.185,1.008,9.234,1.841a10.182,10.182,0,0,1,6.333,5.193c.921,1.842,1.273,3.958,2.41,5.675,1.428,2.159,3.93,3.443,5.742,5.248C1030.351,1875.4,1015.054,1880.505,999.176,1881.108Z" transform="translate(-31.526 -376.912)" fill="#fcd8be"/>
    <path id="Path_4" data-name="Path 4" d="M975.582,1881.646c.268-.027.534-.06.8-.094l.031,0c.251-.033.5-.07.751-.11l.06-.01q1.186-.192,2.34-.481l.013,0a31.253,31.253,0,0,0,8.112-3.345q1.068-.006,2.126-.046c16.321-.62,26.707-6.732,40.353-19.566.033.062,3.8,0,5.706,2.827,2.148,3.192,1.269,6.313,2.405,8.031,1.428,2.158,3.929,3.442,5.741,5.246-.059.035-6.519,6.963-33.857,13.331C995.157,1890.919,981.876,1887.138,975.582,1881.646Z" transform="translate(-31.539 -383.728)" fill="#efc8ac"/>
    <path id="Path_5" data-name="Path 5" d="M1293.82,1814.262a2.683,2.683,0,0,1-3.43,2.616,5.4,5.4,0,0,1-2.774-.434,3.625,3.625,0,0,1-1.649-2.524,10.385,10.385,0,0,1,.021-3.1c.945-8.582,2.444-17.121,2.674-25.751.054-2.025.109-4.247,1.453-5.762a6.757,6.757,0,0,1,4.135-1.878c1.72-.261,5.757-4.219,6.478-2.636,1.294,2.844-.944,12.235-1.839,15.541q-2.057,7.593-3.566,15.32Q1294.485,1809.942,1293.82,1814.262Z" transform="translate(-167.27 -347.171)" fill="#60423e"/>
    <g id="Group_1" data-name="Group 1" transform="translate(1115.807 1457.757)">
      <path id="Path_6" data-name="Path 6" d="M1292.088,1838.382c.654.334,2.733,1.59,2.851,3.222a2.414,2.414,0,0,1-.617,2.073c.393,1.114-.968,2.406-1.311,2.53-.857.309-.785.274-1.958-.191.23.311-.712,1.732-1.9,1.819-2.145.157-4.594-1.81-6.208-3.231a4.966,4.966,0,0,1-1.731-5.771c.351-1.411,1.866-2.971,3.308-10.059.2-1.006-.049,4.53.9,4.139a3.552,3.552,0,0,1,2.906.183c1.059.536,4.257,1.129,3.684,2.245C1291.728,1835.9,1290.221,1837.427,1292.088,1838.382Z" transform="translate(-1280.915 -1828.651)" fill="#60423e"/>
      <path id="Path_7" data-name="Path 7" d="M1297.379,1856.22a2.755,2.755,0,0,0-.363-2.677,8.656,8.656,0,0,0-1.643-1.566,3.872,3.872,0,0,1,2.532,1.573,3.487,3.487,0,0,1,.486,3.042l-1.012-.372Z" transform="translate(-1287.24 -1838.855)" fill="#382624"/>
      <path id="Path_8" data-name="Path 8" d="M1302.616,1852.97a4.413,4.413,0,0,0-.782-1.525,9.692,9.692,0,0,0-1.96-1.551,7.391,7.391,0,0,1,1.828.883,3.706,3.706,0,0,1,1.359,1.583,1.41,1.41,0,0,1-.227.378,1.072,1.072,0,0,1-.218.233Z" transform="translate(-1289.208 -1837.944)" fill="#382624"/>
    </g>
    <path id="Path_9" data-name="Path 9" d="M1266.645,1684.627a19.939,19.939,0,0,1,12.8,10.068c1.793,3.666,2.211,7.842,2.342,11.921a97.263,97.263,0,0,1-6.142,37.216c-.832,2.213-2.228,4.755-4.59,4.838a4.563,4.563,0,0,1-3.036-1.264c-3.913-3.374-5.15-8.461-5.723-13.6-.884-7.911-5.407-12.149-9.987-11.079-4.107.96-11.307,8.817-14.933,10.734a3.958,3.958,0,0,1-4.548-1.224c-1.144-1.38-.881-3.407-.52-5.163a130.669,130.669,0,0,1,11.464-32.784c1.742-3.434,1.672-3.377,5.456-4.915C1253.9,1687.484,1261.875,1683.349,1266.645,1684.627Z" transform="translate(-143.71 -307.786)" fill="#ffa912"/>
    <g id="Group_2" data-name="Group 2" transform="translate(1093.005 1173.336)">
      <path id="Path_10" data-name="Path 10" d="M1265.26,1323.3a256.639,256.639,0,0,0-15.3,30.869,135.757,135.757,0,0,0-9.038,33.04,49.314,49.314,0,0,0-.479,9.326,33.663,33.663,0,0,0,1.711,8.559c1.84,5.584,4.458,10.85,5.938,16.561a64.039,64.039,0,0,1,2.027,17.509c-.139,6.134-1.411,12.034-2.714,18a70.072,70.072,0,0,0-1.886,17.465,60.015,60.015,0,0,0,3,16.767c.457,1.379.969,2.737,1.525,4.078.246.6,1.229.335.979-.269a59.808,59.808,0,0,1-3.371-34.233c1.115-5.8,2.688-11.5,3.232-17.4a64.937,64.937,0,0,0-.738-17.257,83.329,83.329,0,0,0-5.148-16.5,58.806,58.806,0,0,1-2.807-8.292,32.78,32.78,0,0,1-.74-9.157,93.456,93.456,0,0,1,2.792-17.372,143.588,143.588,0,0,1,5.07-16.37A229.315,229.315,0,0,1,1264,1327.6q1.056-1.9,2.133-3.785a.508.508,0,0,0-.876-.513Z" transform="translate(-1240.382 -1323.057)" fill="#4c4446"/>
    </g>
    <g id="Group_3" data-name="Group 3" transform="translate(1114.484 1172.069)">
      <path id="Path_11" data-name="Path 11" d="M1279.053,1321.82a14.622,14.622,0,0,1,5.516,1.06.511.511,0,0,0,.625-.355.52.52,0,0,0-.355-.624,15.366,15.366,0,0,0-5.786-1.1.508.508,0,0,0,0,1.015Z" transform="translate(-1278.563 -1320.805)" fill="#4c4446"/>
    </g>
    <g id="Group_4" data-name="Group 4" transform="translate(1114.622 1171.022)">
      <path id="Path_12" data-name="Path 12" d="M1279.3,1319.96a21.717,21.717,0,0,1,6.125.981c.625.194.893-.785.27-.979a22.754,22.754,0,0,0-6.4-1.018.508.508,0,0,0,0,1.016Z" transform="translate(-1278.808 -1318.944)" fill="#4c4446"/>
    </g>
    <path id="Path_13" data-name="Path 13" d="M1104.936,1665.446c-6.27,8.7-8,12.733-10.312,19.577q-1.924,5.686-3.847,11.371l-5.99-2.6a205.263,205.263,0,0,1,.914-23.507c.757-7.843,2.035-15.845,5.921-22.7a22.273,22.273,0,0,1,9.019-9.141c3.881-1.949,8.721-2.257,12.522-.157C1128.36,1646.687,1111.429,1656.437,1104.936,1665.446Z" transform="translate(-79.296 -286.988)" fill="#ffa912"/>
    <path id="Path_14" data-name="Path 14" d="M1145.047,1878a2.683,2.683,0,0,0,3.048,3.054,5.407,5.407,0,0,0,2.807-.058,3.626,3.626,0,0,0,1.973-2.28,10.382,10.382,0,0,0,.395-3.076c.216-8.631-.123-17.294.808-25.877.218-2.013.462-4.223-.666-5.9a6.748,6.748,0,0,0-3.845-2.417,7.593,7.593,0,0,0-5.112-.021c-4.347,1.885-1.661,8.79-1.217,12.186q1.018,7.8,1.477,15.66Q1144.968,1873.628,1145.047,1878Z" transform="translate(-104.344 -376.289)" fill="#60423e"/>
    <path id="Path_15" data-name="Path 15" d="M1133.014,1802.926c4.365,4.292,11.164,4.14,12,3.438a5.616,5.616,0,0,0,1.377-2.063c2.3-4.988,2.824-14.094,4.835-19.215,2.962-7.547,7.792-18.662,15.513-18.691,2.74-.011-13.46-3.741-18.106-6.93a100.4,100.4,0,0,1-19.267-17.2c-2.916-3.387-9.616-.551-7.3,6.688C1124.951,1757.966,1131,1800.943,1133.014,1802.926Z" transform="translate(-95.41 -332.484)" fill="#ffa912"/>
    <path id="Path_16" data-name="Path 16" d="M1198.556,1534.5c6.719-8.359,8.655-12.3,11.326-19.008l4.438-11.152,5.845,2.911a204.887,204.887,0,0,1-2.147,23.427c-1.168,7.792-2.865,15.717-7.106,22.357-2.338,3.661-7.129,16.056-11.107,17.8s-7.207-7.347-10.893-9.645C1174.179,1552,1191.6,1543.156,1198.556,1534.5Z" transform="translate(-122.346 -229.024)" fill="#ffa912"/>
    <path id="Path_17" data-name="Path 17" d="M1158.925,1589.3c-10.252-10.329-14.041-17.582-14.041-17.582l-19.065,18.3-26.291,2.693s3.079,7.582,4.32,22.082.176,55.446,17.224,72.862c7.225,7.381,32.228,8.089,51.562.055,21.7-9.016,29.661-24.614,28.881-35.613C1199.436,1622.793,1169.176,1599.629,1158.925,1589.3Z" transform="translate(-85.76 -258.499)" fill="#ffa912"/>
    <path id="Path_18" data-name="Path 18" d="M1140.294,1600.139c4.538-3.492,7.351-8.734,9.747-13.935,1.124-2.439,2.211-5.113,1.641-7.737a6.385,6.385,0,0,0-.293-.964c-.883-1.105-1.653-2.121-2.32-3.035-2.771-4.108-2.988-8.152-5.327-8.14-.078,0-1.437,5.953-1.515,5.954l-15.735,15.106-21.9,2.243a17.174,17.174,0,0,0-3.138,4.363c.407,1.479.873,3.37,1.331,5.667,2.09,1.729,5.434,2.934,7.546,3.72a35.045,35.045,0,0,0,10.394,2.147,33.5,33.5,0,0,0,11.65-1.43A25.228,25.228,0,0,0,1140.294,1600.139Z" transform="translate(-86.601 -256.141)" fill="#f2881d"/>
    <path id="Path_19" data-name="Path 19" d="M1127.7,1635.552a114.013,114.013,0,0,0,4.146,20.737c2.522,8.443,6.88,17.443,15.166,20.44,6.357,2.3,13.412.432,19.774-1.854,5.1-1.831,10.166-3.964,14.466-7.258s7.808-7.884,8.872-13.2c1.59-7.931-2.479-16.026-7.985-21.953s-12.426-10.341-18.378-15.819a68.333,68.333,0,0,1-12.7-15.776c-.826-1.415-3.314-7.648-4.925-7.953-1.064-.2-24.888,8.189-24.711,13.145.065,1.81,3.342,8,3.817,9.855a55.529,55.529,0,0,1,1.178,6.325C1127.022,1626.661,1127.235,1631.12,1127.7,1635.552Z" transform="translate(-95.338 -267.772)" fill="#fcd8be"/>
    <path id="Path_20" data-name="Path 20" d="M1153.97,1606.148q-1.759-2.474-3.295-5.1c-.827-1.415-3.314-7.648-4.925-7.953a39.508,39.508,0,0,0-6.827,2.183l-4.08,3.917-6.329.649c-4.225,2.192-7.541,4.536-7.475,6.4.064,1.809,3.342,8,3.817,9.854q.1.4.2.8a34.865,34.865,0,0,0,4.022.442,33.472,33.472,0,0,0,11.65-1.429,25.176,25.176,0,0,0,7.921-3.958A24.84,24.84,0,0,0,1153.97,1606.148Z" transform="translate(-95.169 -267.85)" fill="#efc8ac"/>
    <g id="Group_5" data-name="Group 5" transform="translate(1035.084 1496.82)">
      <path id="Path_21" data-name="Path 21" d="M1140.121,1905.136c-.62.393-2.657,1.714-2.7,3.349a2.415,2.415,0,0,0,.711,2.044c-.341,1.13,1.077,2.358,1.426,2.467.871.268.8.238,1.947-.281-.216.321.79,1.7,1.98,1.729,2.15.059,5.253-2.754,6.3-4.635,2.005-3.618,1.566-8.268,1.5-9.944-.057-1.453-1.531,2.6-2.432,1.461-.636-.806-6.567-4.1-5.943-3.017C1143.217,1898.855,1142.046,1903.917,1140.121,1905.136Z" transform="translate(-1137.42 -1898.092)" fill="#60423e"/>
      <path id="Path_22" data-name="Path 22" d="M1143.748,1920.719a2.757,2.757,0,0,1,.239-2.691,8.645,8.645,0,0,1,1.569-1.639,3.869,3.869,0,0,0-2.457,1.688,3.483,3.483,0,0,0-.345,3.06l.994-.417Z" transform="translate(-1139.662 -1906.096)" fill="#382624"/>
      <path id="Path_23" data-name="Path 23" d="M1138.32,1917.713a4.41,4.41,0,0,1,.71-1.559,9.679,9.679,0,0,1,1.887-1.64,7.385,7.385,0,0,0-1.785.965,3.707,3.707,0,0,0-1.285,1.644,1.415,1.415,0,0,0,.244.367,1.11,1.11,0,0,0,.228.223Z" transform="translate(-1137.607 -1905.276)" fill="#382624"/>
    </g>
    <path id="Path_24" data-name="Path 24" d="M1210.11,1572.868s10.467-15.469,14.153-26.925,7.553-30.61,7.553-30.61a91.6,91.6,0,0,1-1.485,22.114c-2.276,10.67-10.242,39.517-10.358,40.031S1210.11,1572.868,1210.11,1572.868Z" transform="translate(-134.134 -233.833)" fill="#f2881d"/>
    <path id="Path_25" data-name="Path 25" d="M1212.274,1618.941s9.646,7.1,14.018,11.434,14.505,14.8,14.3,14.511-6.068-9.1-9.294-12.842-9.694-11.784-9.694-11.784Z" transform="translate(-135.081 -279.156)" fill="#f2881d"/>
    <path id="Path_26" data-name="Path 26" d="M1093.829,1714.149a42.135,42.135,0,0,1,4.074-14.537c3.254-6.482,7.445-13.09,7.445-13.09l-1.928,9s-3.487,7.262-5.1,12.02l-3.189,9.427Z" transform="translate(-83.264 -308.72)" fill="#f2881d"/>
    <path id="Path_27" data-name="Path 27" d="M1083.811,1733.617a10.61,10.61,0,0,0-1.072,5.426q-.074,4.073-.148,8.146c-.049,2.728-.075,5.572,1.11,8.03s3.982,4.37,6.6,3.613c1.673-.484,3.02-2.4,2.3-3.987.621-.373.416-1.406-.182-1.815a3.942,3.942,0,0,0-2.1-.426,2.49,2.49,0,0,1-1.959-.748,2.637,2.637,0,0,1-.179-2.122c.991-4.682,3.033-9.251,2.741-14.028C1090.7,1731.915,1086,1730.047,1083.811,1733.617Z" transform="translate(-78.343 -328.487)" fill="#60423e"/>
    <path id="Path_28" data-name="Path 28" d="M1110.884,1695.525a75.847,75.847,0,0,0,1.284,12.022c1.2,6.224,5.1,16.119,5.1,16.119s-2.741-11.024-3.223-19.436-1.232-17.709-1.232-17.709Z" transform="translate(-90.727 -308.72)" fill="#f2881d"/>
    <path id="Path_29" data-name="Path 29" d="M1147.331,1670.269a27.691,27.691,0,0,1-3.144-14.818,13.471,13.471,0,0,0-1.762,7.176c-2-.932-4.011-3.014-5.975-3.6.086,1.913,3.3,4.817,4.678,6.2a37.177,37.177,0,0,0,3.039,2.751C1144.926,1668.593,1146.877,1669.464,1147.331,1670.269Z" transform="translate(-101.911 -295.128)" fill="#f7e9e2"/>
    <path id="Path_30" data-name="Path 30" d="M1171.076,1642.652a27.69,27.69,0,0,1-3.143-14.818,13.476,13.476,0,0,0-1.763,7.176c-2-.932-4.01-3.014-5.975-3.6.086,1.914,3.306,4.818,4.679,6.205a36.863,36.863,0,0,0,3.039,2.751C1168.671,1640.976,1170.622,1641.847,1171.076,1642.652Z" transform="translate(-112.299 -283.047)" fill="#f7e9e2"/>
    <path id="Path_31" data-name="Path 31" d="M1175.482,1694.913a27.7,27.7,0,0,1-3.143-14.818,13.468,13.468,0,0,0-1.762,7.175c-2-.932-4.01-3.014-5.975-3.6.085,1.914,3.305,4.817,4.678,6.2a36.855,36.855,0,0,0,3.04,2.751C1173.076,1693.237,1175.028,1694.108,1175.482,1694.913Z" transform="translate(-114.226 -305.908)" fill="#f7e9e2"/>
    <path id="Path_32" data-name="Path 32" d="M1200.294,1668.956a27.69,27.69,0,0,1-3.144-14.818,13.467,13.467,0,0,0-1.762,7.175c-2-.933-4.011-3.014-5.975-3.6.085,1.914,3.3,4.818,4.678,6.205a36.894,36.894,0,0,0,3.039,2.751C1197.889,1667.28,1199.84,1668.15,1200.294,1668.956Z" transform="translate(-125.08 -294.553)" fill="#f7e9e2"/>
    <path id="Path_33" data-name="Path 33" d="M1205.228,1715.954a22.685,22.685,0,0,1-2.575-12.139,11.033,11.033,0,0,0-1.444,5.879c-1.636-.763-3.286-2.469-4.895-2.951.07,1.568,2.708,3.946,3.832,5.083a30.133,30.133,0,0,0,2.49,2.254C1203.257,1714.581,1204.856,1715.3,1205.228,1715.954Z" transform="translate(-128.099 -316.285)" fill="#f7e9e2"/>
    <path id="Path_34" data-name="Path 34" d="M1166.375,1724.121a22.682,22.682,0,0,1-2.575-12.139,11.034,11.034,0,0,0-1.444,5.879c-1.636-.764-3.286-2.469-4.9-2.952.07,1.568,2.708,3.947,3.833,5.084a30.353,30.353,0,0,0,2.49,2.253C1164.405,1722.749,1166,1723.463,1166.375,1724.121Z" transform="translate(-111.103 -319.858)" fill="#f7e9e2"/>
    <path id="Path_35" data-name="Path 35" d="M1224.684,1687.527a22.687,22.687,0,0,1-2.575-12.139,11.033,11.033,0,0,0-1.443,5.878c-1.636-.764-3.286-2.469-4.9-2.951.07,1.567,2.708,3.946,3.833,5.083a30.108,30.108,0,0,0,2.49,2.254C1222.714,1686.154,1224.312,1686.867,1224.684,1687.527Z" transform="translate(-136.61 -303.849)" fill="#f7e9e2"/>
    <path id="Path_36" data-name="Path 36" d="M1146.479,1768.955c.457.13,21.021,4.016,33.757,1.117,21.976-5,35.844-19.7,35.586-19.706-.55,0-18.819,13.426-35.367,16.657S1146.479,1768.955,1146.479,1768.955Z" transform="translate(-106.298 -336.649)" fill="#f2881d"/>
    <path id="Path_37" data-name="Path 37" d="M908.807,1517.563c-3.053-2.731-6.346-6.679-5.021-10.409,1.047-2.949,4.442-3.976,7.427-4.652l20.864-4.723c7.075-1.6,14.362-3.21,21.665-1.926s14.72,6.167,17.007,13.528c2.416,7.775-1.379,15.728-5.822,22.027a91.215,91.215,0,0,1-8.162,9.991c-7.141,7.573-14.95.266-22.507-4.545A196.847,196.847,0,0,1,908.807,1517.563Z" transform="translate(0 -225.107)" fill="#60423e"/>
    <path id="Path_38" data-name="Path 38" d="M944.929,1539.48a63.015,63.015,0,0,1-16.538-13.758c-1.794-2.109-3.537-4.941-2.423-7.476a6.9,6.9,0,0,1,2.122-2.458c7.2-5.806,14.812-7.939,24.051-7.519,6.079.276,9.727,4.706,12.28,5.14,3.254.552,3.581-4.313,5.395-1.555a12.221,12.221,0,0,1,1.641,9.486,22.627,22.627,0,0,1-2.9,6.226q-3.6,5.932-7.66,11.563c-1.706,2.362,1.013,8.5-2.125,7.853C955.5,1546.307,947.791,1541.127,944.929,1539.48Z" transform="translate(-9.682 -230.72)" fill="#ffa912"/>
    <path id="Path_39" data-name="Path 39" d="M964.234,1537.2a52.629,52.629,0,0,1,4.662-12.8,44.08,44.08,0,0,0,2.942-6.094,10.5,10.5,0,0,0,.51-5.2,2.621,2.621,0,0,1-1.811.309c-2.553-.433-6.2-4.864-12.28-5.14a38.143,38.143,0,0,0-11.965,1.187,20.437,20.437,0,0,0-4.087,3.874,15.512,15.512,0,0,0-1.615,2.789c-.269.6-.573,2.715-.991,3.064a9.251,9.251,0,0,1,4.074-1.962,10.012,10.012,0,0,0,.44,7.525,14.513,14.513,0,0,1,8.7-3.415l-2.694,4.532,2.711-.91a13.466,13.466,0,0,0-3.48,6.77,16.905,16.905,0,0,1,5-.389,8.086,8.086,0,0,0-1.306,4.036A13.458,13.458,0,0,1,964.234,1537.2Z" transform="translate(-15.798 -230.72)" fill="#fcd8be"/>
    <path id="Path_40" data-name="Path 40" d="M1089.135,1351.8c-2.022-3.563-5.184-7.617-9.109-7.111-3.1.4-4.827,3.5-6.119,6.273l-9.035,19.391c-3.064,6.575-6.178,13.356-6.47,20.765s2.909,15.692,9.619,19.486c7.087,4.008,15.664,1.983,22.761-1.025a91.1,91.1,0,0,0,11.493-5.861c8.914-5.375,3.427-14.554.324-22.958A196.7,196.7,0,0,0,1089.135,1351.8Z" transform="translate(-67.761 -159.166)" fill="#60423e"/>
    <path id="Path_41" data-name="Path 41" d="M1105.839,1391.465a63.01,63.01,0,0,0-9.943-19.077c-1.681-2.2-4.08-4.5-6.793-3.951a6.9,6.9,0,0,0-2.852,1.554c-7.2,5.806-10.9,12.795-12.442,21.912-1.018,6,2.54,10.5,2.423,13.089-.15,3.3-4.973,2.587-2.662,4.944a12.218,12.218,0,0,0,8.923,3.613,22.611,22.611,0,0,0,6.7-1.52q6.558-2.259,12.922-5.038c2.67-1.166,8.094,2.791,8.125-.413C1110.273,1403.244,1106.843,1394.612,1105.839,1391.465Z" transform="translate(-74.13 -169.536)" fill="#ffa912"/>
    <path id="Path_42" data-name="Path 42" d="M1101.345,1409.8a52.63,52.63,0,0,0-13.5,1.846,44.122,44.122,0,0,1-6.579,1.585,10.515,10.515,0,0,1-5.192-.6,2.626,2.626,0,0,0,.685-1.706c.117-2.586-3.441-7.09-2.423-13.089a38.125,38.125,0,0,1,3.694-11.442,20.477,20.477,0,0,1,4.651-3.175,15.591,15.591,0,0,1,3.068-.988c.646-.135,2.774.015,3.2-.319a9.246,9.246,0,0,0-2.781,3.567,10.007,10.007,0,0,1,7.261,2.024,14.515,14.515,0,0,0-5.179,7.776l5-1.674-1.463,2.456a13.476,13.476,0,0,1,7.354-1.967,16.88,16.88,0,0,0-1.438,4.8,8.1,8.1,0,0,1,4.221-.422A13.46,13.46,0,0,0,1101.345,1409.8Z" transform="translate(-74.661 -175.467)" fill="#fcd8be"/>
    <path id="Path_43" data-name="Path 43" d="M1026.558,1425.947a146.126,146.126,0,0,0-51.205,44.8c-9.761,15.257-7.034,39.739,6.836,51.708,9.49,8.19,26.942,21.474,46.928,22.955s42.916-15.814,42.916-15.814,20.189-20.428,21.378-40.434-9.657-39.068-16.513-49.563C1066.879,1424.258,1042.977,1418.3,1026.558,1425.947Z" transform="translate(-28.899 -193.277)" fill="#fcd8be"/>
    <path id="Path_44" data-name="Path 44" d="M1014.471,1626.827l6.8-4.361a39.153,39.153,0,0,1,.786,8.587,68.251,68.251,0,0,0,7.63-6.163,8.742,8.742,0,0,1,.121,7.434,148.325,148.325,0,0,0,43.06-19.735c2.373-1.591,4.9-3.562,5.315-6.388.369-2.511-1.141-5.008-3.2-6.494a18.577,18.577,0,0,0-7.066-2.679c-13.048-2.827-26.49-3.154-39.836-3.47a42.525,42.525,0,0,0-11.363.75c-2.538.635-7.53,2.511-7.848,5.653-.24,2.381,2.857,5.063,3.928,6.99a24.57,24.57,0,0,1,2.987,9.9C1015.937,1618.687,1016.29,1625.661,1014.471,1626.827Z" transform="translate(-46.096 -268.03)" fill="#fcd8be"/>
    <path id="Path_45" data-name="Path 45" d="M1181.239,1477.89l-5.147,6.226a39.178,39.178,0,0,0,8.43,1.814,68.275,68.275,0,0,1-7.036,6.833,8.745,8.745,0,0,0,7.366,1.014,148.308,148.308,0,0,1-24.77,40.374c-1.864,2.165-4.125,4.437-6.981,4.51-2.537.064-4.835-1.735-6.062-3.956a18.57,18.57,0,0,1-1.81-7.337c-1.236-13.293.055-26.677,1.346-39.964a42.562,42.562,0,0,1,2.111-11.19c.936-2.444,3.4-7.174,6.556-7.111,2.392.047,4.682,3.444,6.466,4.74a24.583,24.583,0,0,0,9.473,4.156C1172.982,1478.366,1179.862,1479.555,1181.239,1477.89Z" transform="translate(-105.533 -213.608)" fill="#fcd8be"/>
    <g id="Group_7" data-name="Group 7" transform="translate(962.818 1304.625)">
      <path id="Path_46" data-name="Path 46" d="M1014.016,1569.641a18.4,18.4,0,0,1,5.83-9.023,16.087,16.087,0,0,1,10.975-4.164c3.663.17,7.052,1.887,10.308,3.577a41.309,41.309,0,0,1,5.286,3.087c.3.217.624.5.615.871a1.151,1.151,0,0,1-.251.593,28.01,28.01,0,0,1-3.9,4.413c-5.15,4.914-11.471,9.16-18.575,9.615a32.454,32.454,0,0,1-11.481-1.8c-.934-.285-1.883-.558-2.8-.893-.864-.316-1.411-.41-.8-1.177C1009.779,1574.031,1012.536,1574.087,1014.016,1569.641Z" transform="translate(-1008.958 -1556.441)" fill="#60423e"/>
      <path id="Path_47" data-name="Path 47" d="M1022.61,1569.743c.263-2.807,2.784-6.11,4.215-7.266,10.651-8.6,22.563.656,23.647,3.286.619,1.5-4.665,6.177-5.688,7-2.761,2.232-11.051,7.554-16.857,5.627A8.446,8.446,0,0,1,1022.61,1569.743Z" transform="translate(-1014.912 -1557.515)" fill="#fff"/>
      <path id="Path_48" data-name="Path 48" d="M1049.995,1567.766c.618,1.5-4.665,6.177-5.687,7-2.761,2.232-11.052,7.554-16.858,5.627a7.614,7.614,0,0,1-2.328-1.391,8.627,8.627,0,0,0,4.118,3.437c5.807,1.928,14.1-3.394,16.858-5.627,1.023-.828,6.306-5.5,5.688-7a7.155,7.155,0,0,0-1.849-2.172C1049.959,1567.684,1049.979,1567.726,1049.995,1567.766Z" transform="translate(-1016.029 -1561.34)" fill="#ededed"/>
      <g id="Group_6" data-name="Group 6" transform="translate(19.036 1.093)">
        <path id="Path_49" data-name="Path 49" d="M1055.043,1560.771a6.987,6.987,0,1,1-9.86-.658A6.987,6.987,0,0,1,1055.043,1560.771Z" transform="translate(-1042.797 -1558.384)" fill="#231f20"/>
        <path id="Path_50" data-name="Path 50" d="M1046.023,1569.07a2.138,2.138,0,0,0,.691.865,1.161,1.161,0,0,0,1.065.15,1.413,1.413,0,0,0,.742-1.158c.066-.475.007-.961.07-1.437a2.828,2.828,0,0,1,.528-1.3c.294-.4.711-.759.748-1.251a1.15,1.15,0,0,0-1.05-1.12C1046.3,1563.527,1045.146,1567.243,1046.023,1569.07Z" transform="translate(-1044.081 -1560.754)" fill="#fff"/>
      </g>
    </g>
    <g id="Group_9" data-name="Group 9" transform="translate(1019.743 1256.319)">
      <path id="Path_51" data-name="Path 51" d="M1126.139,1474.589a18.4,18.4,0,0,0-9.892,4.19,16.087,16.087,0,0,0-5.992,10.094c-.463,3.638.645,7.272,1.749,10.769a41.322,41.322,0,0,0,2.13,5.739c.163.334.386.7.753.756a1.157,1.157,0,0,0,.627-.146,27.964,27.964,0,0,0,5.019-3.084c5.728-4.227,11-9.724,12.67-16.642a32.458,32.458,0,0,0,.2-11.62c-.12-.969-.226-1.951-.4-2.912-.163-.906-.16-1.461-1.021-.992C1131.193,1471.172,1130.774,1473.9,1126.139,1474.589Z" transform="translate(-1110.148 -1470.57)" fill="#60423e"/>
      <path id="Path_52" data-name="Path 52" d="M1125.7,1482.026c-2.811-.223-6.5,1.691-7.883,2.9-10.308,9.011-3.238,22.339-.834,23.86,1.372.867,6.888-3.531,7.879-4.4,2.674-2.336,9.345-9.586,8.445-15.637A8.447,8.447,0,0,0,1125.7,1482.026Z" transform="translate(-1111.125 -1475.573)" fill="#fff"/>
      <path id="Path_53" data-name="Path 53" d="M1117.777,1508.714c1.372.868,6.888-3.532,7.879-4.4,2.675-2.336,9.344-9.586,8.445-15.638a7.62,7.62,0,0,0-.969-2.533,8.632,8.632,0,0,1,2.677,4.649c.9,6.051-5.771,13.3-8.445,15.637-.991.866-6.508,5.264-7.879,4.4a7.158,7.158,0,0,1-1.822-2.194C1117.7,1508.665,1117.74,1508.691,1117.777,1508.714Z" transform="translate(-1113.435 -1477.384)" fill="#ededed"/>
      <g id="Group_8" data-name="Group 8" transform="translate(8.293 6.973)">
        <path id="Path_54" data-name="Path 54" d="M1126.441,1494.341a6.987,6.987,0,1,0,1.049-9.825A6.988,6.988,0,0,0,1126.441,1494.341Z" transform="translate(-1124.891 -1482.966)" fill="#231f20"/>
        <path id="Path_55" data-name="Path 55" d="M1136.783,1486.487a2.138,2.138,0,0,1,.734.83,1.16,1.16,0,0,1-.036,1.076,1.414,1.414,0,0,1-1.268.532c-.48-.017-.948-.159-1.428-.179a2.818,2.818,0,0,0-1.373.3,2.681,2.681,0,0,1-1.361.521,1.15,1.15,0,0,1-.923-1.227C1131.276,1485.8,1135.134,1485.309,1136.783,1486.487Z" transform="translate(-1127.618 -1484.24)" fill="#fff"/>
      </g>
    </g>
    <path id="Path_56" data-name="Path 56" d="M1011.068,1544.858c13.246-7.371,30.982.415,37.836,3.433,1.079.475,2.532.9,3.276-.015-3.878-8.41-13.264-12.8-22.276-14.937a33.037,33.037,0,0,0-11.188-1.069c-9.85,1.088-17.7,9.16-21.914,18.128-1.295,2.753-2.47,20.214.476,11.761C999.7,1555.22,1004.441,1548.546,1011.068,1544.858Z" transform="translate(-40.226 -241.185)" fill="#efc8ac"/>
    <path id="Path_57" data-name="Path 57" d="M1098.759,1466.011c-9.383,11.906-4.516,30.654-2.625,37.9.3,1.14.486,2.642-.535,3.232-7.687-5.166-10.529-15.13-11.205-24.367a33.03,33.03,0,0,1,.722-11.216c2.64-9.552,11.857-16.016,21.381-18.754,2.924-.84,20.35.775,11.536,2.34C1110.8,1456.431,1103.453,1460.054,1098.759,1466.011Z" transform="translate(-79.07 -206.38)" fill="#efc8ac"/>
    <path id="Path_58" data-name="Path 58" d="M1032.736,1618.921a21.324,21.324,0,0,1,6.114-8.132,33.522,33.522,0,0,0-3.007,10.734c2.457-4.448,5.869-9.749,10.464-11.918-1.593,4.514-2.736,10.963-1.781,15.654,2.08-9.968,8.489-21.552,16.168-28.24-.837.73-14.312-1.467-23.494,10.952C1034.585,1611.509,1032.753,1616.071,1032.736,1618.921Z" transform="translate(-56.541 -269.567)" fill="#f7e9e2"/>
    <path id="Path_59" data-name="Path 59" d="M1165.641,1498.579a21.319,21.319,0,0,0-8.106,6.148,33.531,33.531,0,0,1,10.722-3.052c-4.437,2.476-9.726,5.91-11.875,10.513,4.508-1.612,10.952-2.781,15.647-1.845-9.96,2.121-21.517,8.577-28.174,16.284.726-.84-1.526-14.3,10.855-23.538C1158.237,1500.458,1162.792,1498.608,1165.641,1498.579Z" transform="translate(-105.151 -226.504)" fill="#f7e9e2"/>
    <path id="Path_60" data-name="Path 60" d="M1046.467,1426.273c16.168-8.164,40.247-2.969,50.748,12.043,1.453,2.076,7.413,12.194,9.079,14.9,0,0-15.546-21.451-34.485-8.1-12.023,8.478-14.008,17.6-10.518,28.194,3.119,9.474,16.966,27.336,16.966,27.336l-6.81,6.006-52.6-60.122A111.826,111.826,0,0,1,1046.467,1426.273Z" transform="translate(-50.467 -193.189)" fill="#ffa912"/>
    <path id="Path_61" data-name="Path 61" d="M1105.569,1442.327c1.057.184,2.32.754,2.314,1.826,0,1.038-1.2,1.607-2.213,1.837-2.079.47-4.237.574-6.28,1.185-1.963.586-3.767,1.625-5.727,2.218-.609.185-1.417.253-1.741-.3a1.217,1.217,0,0,1-.133-.636,3.983,3.983,0,0,1,1.447-2.818A15.065,15.065,0,0,1,1105.569,1442.327Z" transform="translate(-82.374 -201.8)" fill="#e08119"/>
    <path id="Path_62" data-name="Path 62" d="M975.457,1488.514c-9.761,15.256-7.034,39.739,6.835,51.707,1.918,1.656,11.38,8.612,13.9,10.544,0,0-19.763-17.641-4.558-35.129,9.653-11.1,18.925-12.152,29.115-7.605,9.109,4.064,25.475,19.651,25.475,19.651l7.683-6.769-55.5-57.819A111.828,111.828,0,0,0,975.457,1488.514Z" transform="translate(-28.945 -210.981)" fill="#ffa912"/>
    <path id="Path_63" data-name="Path 63" d="M992.857,1547.045c.115,1.05.6,2.328,1.652,2.39,1.021.06,1.656-1.08,1.944-2.062.593-2.016.83-4.132,1.558-6.1.7-1.894,1.833-3.6,2.539-5.495.219-.588.337-1.378-.182-1.731a1.2,1.2,0,0,0-.617-.171,3.926,3.926,0,0,0-2.863,1.248A14.849,14.849,0,0,0,992.857,1547.045Z" transform="translate(-39.058 -241.942)" fill="#e08119"/>
    <path id="Path_64" data-name="Path 64" d="M991.83,1485.605a8.826,8.826,0,0,0-1.33,2.977,3.054,3.054,0,0,0,.965,2.964,3.142,3.142,0,0,0,3.707-.348,10.756,10.756,0,0,0,2.36-3.208,41.576,41.576,0,0,1,8.84-10.632c3.126-2.685,6.722-4.981,8.952-8.447,1.14-1.772,1.753-4.391.178-5.791a3.622,3.622,0,0,0-3.645-.438,10.661,10.661,0,0,0-3.153,2.188A89.813,89.813,0,0,0,991.83,1485.605Z" transform="translate(-38.04 -210.674)" fill="#ffb845"/>
    <path id="Path_65" data-name="Path 65" d="M1233.314,1492a89.134,89.134,0,0,0,5.718-21.221c.205-1.47.891-3.371,2.587-3.335a2.83,2.83,0,0,1,2.271,1.7,12.469,12.469,0,0,1,1.014,6.076,118.39,118.39,0,0,1-2.68,23.688,4.346,4.346,0,0,1-1.831,3.181,4.148,4.148,0,0,1-2.729.276C1232.06,1501.272,1231.778,1495.787,1233.314,1492Z" transform="translate(-143.934 -212.885)" fill="#60423e"/>
    <g id="Group_10" data-name="Group 10" transform="translate(1091.464 1141.687)">
      <path id="Path_66" data-name="Path 66" d="M1241.456,1267.285q-1.284,17.487-1.976,35.011t-.777,35.058q-.044,8.724.06,17.446c.07,5.838.13,11.688.6,17.509.461,5.682,1.672,11.33,1.628,17.046-.044,5.781-1.637,11.392-2.452,17.083a89.34,89.34,0,0,0,1.333,32.515q.459,2.008,1.011,3.992a.508.508,0,0,0,.979-.27,88.574,88.574,0,0,1-2.733-32.833c.586-5.581,2.03-11.022,2.639-16.6.626-5.717-.33-11.32-1-16.983a171.033,171.033,0,0,1-.937-17.283q-.142-8.808-.131-17.616.019-17.446.634-34.886t1.82-34.844q.152-2.176.312-4.351c.048-.651-.968-.649-1.016,0Z" transform="translate(-1237.641 -1266.797)" fill="#4c4446"/>
    </g>
    <g id="Group_11" data-name="Group 11" transform="translate(1080.074 1126.918)">
      <path id="Path_67" data-name="Path 67" d="M1268.678,1241.033c-.345,15.48-4.324,30.77-8.973,45.452-4.74,14.974-10.528,29.581-16.224,44.209-2.33,5.984-4.662,11.973-6.743,18.049a76.125,76.125,0,0,0-3.653,13.4c-.213,1.446-.324,2.9-.62,4.335a38.653,38.653,0,0,1-2.022,6.533c-1.689,4.225-3.906,8.212-5.9,12.3a59.727,59.727,0,0,0-4.607,12.535,96.308,96.308,0,0,0-2.326,15.256,88.835,88.835,0,0,0,3.167,30.517c2.76,9.745,6.86,19.5,6.794,29.791a31.978,31.978,0,0,1-.931,7.476c-.156.635.823.906.979.271,2.424-9.818-.317-19.72-3.221-29.112-1.527-4.938-3.132-9.862-4.2-14.925a84.738,84.738,0,0,1-1.781-15.7,91.749,91.749,0,0,1,1.039-15.792,67.176,67.176,0,0,1,3.565-14.442c3.281-8.344,8.765-15.887,10.492-24.81.456-2.355.608-4.735,1.144-7.08.52-2.272,1.176-4.511,1.881-6.731,1.833-5.78,4-11.453,6.176-17.108,5.567-14.448,11.374-28.808,16.275-43.5,4.935-14.8,9.263-30.107,10.445-45.724q.2-2.594.254-5.2a.508.508,0,0,0-1.015,0Z" transform="translate(-1217.395 -1240.543)" fill="#4c4446"/>
    </g>
    <g id="Group_12" data-name="Group 12" transform="translate(1125.49 980.8)">
      <path id="Path_68" data-name="Path 68" d="M1321.794,1107.823c-1.921,1.384-23.643-60.867-23.667-81.288s17.526-49.533,50.562-45.325c36.375,4.634,40.981,36.583,35.734,52.7C1375.1,1062.542,1321.794,1107.823,1321.794,1107.823Z" transform="translate(-1298.127 -980.8)" fill="#75d9ef"/>
      <path id="Path_69" data-name="Path 69" d="M1384.624,1005.02c7.071,9.813,8.389,23.309,6.318,31.491-6.092,24.057-45.936,69.432-45.449,69.08,0,0,44.693-37.966,52.511-61.975C1401.425,1033.107,1399.846,1014.568,1384.624,1005.02Z" transform="translate(-1318.845 -991.395)" fill="#6bc7d6"/>
      <path id="Path_70" data-name="Path 70" d="M1333.528,996.265c-4.874,3.486-8.53,9.09-8.448,15.081.042,3.071,1.313,6.4,4.084,7.731,3.131,1.5,6.963-.137,9.383-2.623s3.92-5.712,6.025-8.47a23.662,23.662,0,0,1,8.23-6.8c2.291-1.14,5.1-2.292,5.611-4.8C1360.84,984.388,1336.915,993.841,1333.528,996.265Z" transform="translate(-1309.917 -985.015)" fill="#fff" opacity="0.38"/>
      <path id="Path_71" data-name="Path 71" d="M1312.927,1058.075c.534,2.326,1.565,4.83,3.754,5.784,2.87,1.249,6.194-.888,7.818-3.564a9.583,9.583,0,0,0,1.031-8.354C1321.545,1041.98,1310.922,1049.356,1312.927,1058.075Z" transform="translate(-1304.492 -1009.832)" fill="#fff" opacity="0.38"/>
      <path id="Path_72" data-name="Path 72" d="M1335.59,1199.573l-3.7,8.291,8.732,2.117-1.08-10.408Z" transform="translate(-1312.895 -1076.503)" fill="#75d9ef"/>
    </g>
    <g id="Group_13" data-name="Group 13" transform="translate(1039.567 1014.914)">
      <path id="Path_73" data-name="Path 73" d="M1201.562,1170.7c-1.246,2.013-45.108-47.212-52.935-66.074s-2.733-52.471,29.4-61.206c35.385-9.619,51.851,18.145,53.16,35.04C1233.516,1108.482,1201.562,1170.7,1201.562,1170.7Z" transform="translate(-1145.389 -1041.442)" fill="#f297b5"/>
      <path id="Path_74" data-name="Path 74" d="M1237.387,1056.322c10.283,6.366,16.66,18.333,17.872,26.687,3.564,24.56-15.916,81.716-15.6,81.2,0,0,26.792-52.163,24.842-77.338C1263.647,1075.858,1255.1,1059.329,1237.387,1056.322Z" transform="translate(-1185.634 -1047.951)" fill="#d687a5"/>
      <path id="Path_75" data-name="Path 75" d="M1163.957,1070.57c-3.171,5.084-4.408,11.659-2.043,17.165,1.212,2.822,3.661,5.417,6.728,5.583,3.465.187,6.382-2.786,7.669-6.01s1.44-6.776,2.331-10.13a23.646,23.646,0,0,1,5.008-9.426c1.681-1.93,3.841-4.07,3.351-6.581C1184.658,1049.157,1166.161,1067.036,1163.957,1070.57Z" transform="translate(-1152.079 -1048.28)" fill="#fff" opacity="0.38"/>
      <path id="Path_76" data-name="Path 76" d="M1165.313,1141.946c1.383,1.946,3.293,3.866,5.679,3.911,3.129.058,5.385-3.188,5.862-6.281a9.584,9.584,0,0,0-2.24-8.114C1167.126,1123.78,1160.128,1134.656,1165.313,1141.946Z" transform="translate(-1153.322 -1079.671)" fill="#fff" opacity="0.38"/>
      <path id="Path_77" data-name="Path 77" d="M1240.763,1264.2l-.255,9.077,8.878-1.381-4.975-9.205Z" transform="translate(-1186.999 -1138.23)" fill="#f297b5"/>
    </g>
    <g id="Group_14" data-name="Group 14" transform="translate(1092.78 1047.54)">
      <path id="Path_78" data-name="Path 78" d="M1264.835,1226.751c-1.9,1.413-24.527-60.515-24.85-80.934s16.8-49.783,49.9-46.056c36.439,4.1,41.51,35.98,36.5,52.168C1317.474,1180.7,1264.835,1226.751,1264.835,1226.751Z" transform="translate(-1239.981 -1099.438)" fill="#a9d84c"/>
      <path id="Path_79" data-name="Path 79" d="M1326.785,1123.1c7.212,9.708,8.728,23.184,6.775,31.4-5.741,24.143-44.919,70.094-44.437,69.736,0,0,44.135-38.613,51.6-62.734C1343.994,1150.945,1342.144,1132.431,1326.785,1123.1Z" transform="translate(-1261.477 -1109.791)" fill="#9cbf45"/>
      <path id="Path_80" data-name="Path 80" d="M1274.66,1115.225c-4.822,3.557-8.4,9.213-8.227,15.2.087,3.07,1.406,6.385,4.2,7.67,3.152,1.451,6.96-.237,9.344-2.759s3.836-5.768,5.9-8.557a23.644,23.644,0,0,1,8.13-6.917c2.274-1.173,5.071-2.366,5.541-4.882C1301.8,1102.951,1278.012,1112.752,1274.66,1115.225Z" transform="translate(-1251.55 -1103.672)" fill="#fff" opacity="0.38"/>
      <path id="Path_81" data-name="Path 81" d="M1254.827,1177.56c.569,2.318,1.636,4.807,3.838,5.728,2.888,1.208,6.18-.979,7.765-3.678a9.581,9.581,0,0,0,.909-8.368C1263.21,1161.342,1252.7,1168.872,1254.827,1177.56Z" transform="translate(-1246.352 -1128.796)" fill="#fff" opacity="0.38"/>
      <path id="Path_82" data-name="Path 82" d="M1279.546,1318.709l-3.583,8.344,8.762,1.989-1.231-10.391Z" transform="translate(-1255.721 -1195.334)" fill="#a9d84c"/>
    </g>
    <g id="Group_15" data-name="Group 15" transform="translate(1091.313 1139.531)">
      <path id="Path_83" data-name="Path 83" d="M1238.122,1266.661a18.2,18.2,0,0,1,7.279-2.709.511.511,0,0,0,.354-.625.52.52,0,0,0-.624-.354,18.9,18.9,0,0,0-7.521,2.812c-.548.352-.039,1.232.512.876Z" transform="translate(-1237.374 -1262.965)" fill="#4c4446"/>
    </g>
    <g id="Group_16" data-name="Group 16" transform="translate(1092.613 1141.344)">
      <path id="Path_84" data-name="Path 84" d="M1240.316,1268.775l6.488-1.591c.635-.155.366-1.135-.27-.979l-6.487,1.592c-.635.155-.366,1.135.269.979Z" transform="translate(-1239.684 -1266.188)" fill="#4c4446"/>
    </g>
    <path id="Path_85" data-name="Path 85" d="M1244.655,1468.045a13.324,13.324,0,0,0-2.412-5.737,7.238,7.238,0,0,0-5.35-2.892,4.175,4.175,0,0,0-3.209,1.242,3.375,3.375,0,0,0-.715,3.035,3.652,3.652,0,0,0,2.043,2.381,2.215,2.215,0,0,0,.853,3.4,1.445,1.445,0,0,0-.448,1.9,2.557,2.557,0,0,0,1.736,1.179,13.32,13.32,0,0,0,2.154.187c2.263.145,4.675,1.146,5.632,3.2a24.273,24.273,0,0,0-.771-10.348Z" transform="translate(-144.088 -209.371)" fill="#875d59"/>
    <path id="Path_86" data-name="Path 86" d="M1272.133,1769.591c-2.821-1.339-4.379-4.473-4.922-7.548s-.761-14.023-.925-16.133c-.486-6.251-5.22-12.926-8.749-8.981-2.443,2.73-3.931,5.735-8.881,10.567-1.293,1.261-5.907,4.555-7.133,5.884-.993,1.076-2.6,1.373-3.256,2.715a3.738,3.738,0,0,0-.148.349,3.021,3.021,0,0,0,1.854-.275c3.626-1.917,10.826-9.775,14.933-10.735,4.581-1.071,9.1,3.168,9.987,11.078.573,5.134,1.81,10.221,5.723,13.595a4.567,4.567,0,0,0,3.023,1.263.779.779,0,0,0,.044-.124C1273.853,1770.444,1272.875,1769.944,1272.133,1769.591Z" transform="translate(-146.387 -330.253)" fill="#f2881d"/>
    <path id="Path_87" data-name="Path 87" d="M1088.822,1588.194s14.616,6.729,30.14-4.4c15.8-11.329,8.975-27.88,8.975-27.88A65.559,65.559,0,0,1,1112.4,1573.6C1102.541,1581.092,1088.822,1588.194,1088.822,1588.194Z" transform="translate(-81.076 -251.585)" fill="#60423e"/>
    <path id="Path_88" data-name="Path 88" d="M1132.776,1596.292a24.653,24.653,0,0,0,8.669-10.443,5.306,5.306,0,0,0-.74-.578,7.387,7.387,0,0,0-4.71-.864,8.736,8.736,0,0,0-4.4,1.6,5.369,5.369,0,0,0-2.2,4.017,8.423,8.423,0,0,0-7.568,4.442,7.734,7.734,0,0,0-.252,7.2A34.154,34.154,0,0,0,1132.776,1596.292Z" transform="translate(-95.066 -264.024)" fill="#d86964"/>
    <path id="Path_89" data-name="Path 89" d="M1108.3,1544.379a5.339,5.339,0,0,0-4.093-.573,10.853,10.853,0,0,0-3.781,1.872c-1.267.909-6.03,5.075-7.1,6.211a10.843,10.843,0,0,0-2.358,3.5,5.339,5.339,0,0,0,.024,4.133,3.581,3.581,0,0,0,3.393,2.1,11.7,11.7,0,0,0,2.018-.554,6.153,6.153,0,0,1,2.718-.128c1.076.192,2.093.67,3.18.781a6.017,6.017,0,0,0,6.673-5.838c.034-1.092-.3-2.164-.352-3.256a6.151,6.151,0,0,1,.488-2.677,11.7,11.7,0,0,0,.817-1.926A3.581,3.581,0,0,0,1108.3,1544.379Z" transform="translate(-81.84 -246.216)" fill="#60423e"/>
    <path id="Path_90" data-name="Path 90" d="M1094.836,1561.451a1.5,1.5,0,0,0,1.672,1.158,1.667,1.667,0,0,0,1.02-.977c.2-.443.291-.929.449-1.389a9.323,9.323,0,0,1,2.686-3.564,2.957,2.957,0,0,0,.769-.952.988.988,0,0,0-.2-1.132c-1.059-.859-3.488,1.389-4.2,2.137C1095.975,1557.855,1094.4,1559.785,1094.836,1561.451Z" transform="translate(-83.675 -250.924)" fill="#fff"/>
  </g>
</svg>
