<svg xmlns="http://www.w3.org/2000/svg" xmlns:xlink="http://www.w3.org/1999/xlink" width="287.79" height="225.358" viewBox="0 0 287.79 225.358">
  <defs>
    <linearGradient id="linear-gradient" x1="-1.542" y1="-0.208" x2="-1.542" y2="0.548" gradientUnits="objectBoundingBox">
      <stop offset="0" stop-color="#fff"/>
      <stop offset="1" stop-color="#e3e3e3"/>
    </linearGradient>
    <linearGradient id="linear-gradient-2" x1="-1.594" y1="-0.477" x2="-1.594" y2="0.291" xlink:href="#linear-gradient"/>
  </defs>
  <g id="Group_32" data-name="Group 32" transform="translate(-377.289 -227.338)">
    <g id="Group_7" data-name="Group 7" transform="translate(378.733 339.605)">
      <g id="Group_6" data-name="Group 6" transform="translate(0 0)">
        <g id="Group_2" data-name="Group 2" transform="translate(0 0.184)">
          <g id="Group_1" data-name="Group 1">
            <path id="Path_1" data-name="Path 1" d="M583.794,488.981a15.8,15.8,0,0,0-3.473-.957,19.7,19.7,0,0,0-3.072-.278,25.122,25.122,0,0,0-5.413.623,19.99,19.99,0,0,0-5.3,1.968,12.909,12.909,0,0,0-3.649,2.989c.09-.415.186-.846.274-1.256.573-2.668,1.046-5.137,1.4-7.333a34.9,34.9,0,0,0,.563-5.122,5.366,5.366,0,0,0-.76-2.461,9.994,9.994,0,0,0-1.975-2.552,12.435,12.435,0,0,0-3.094-2.146,10.014,10.014,0,0,0-4.518-.99,9.774,9.774,0,0,0-3.632.735,8.8,8.8,0,0,0-3.407,2.5,6.182,6.182,0,0,0-1.4,2.721c-.283.94-.561,2.092-.83,3.421q-.4,1.958-.8,4.453c-.133.826-.258,1.68-.374,2.555a18.329,18.329,0,0,0-2.515-.175,15.812,15.812,0,0,0-7.138,1.664,18.426,18.426,0,0,0-5.674,4.416,20.311,20.311,0,0,0-2.326,3.324V496.6a6.636,6.636,0,0,0-1.122-3.843,7.818,7.818,0,0,0-1.872-1.916,9.432,9.432,0,0,0,.857-.759,9.706,9.706,0,0,0,2.006-2.935,8.918,8.918,0,0,0,.769-3.643,8.056,8.056,0,0,0-2.475-5.959,8.326,8.326,0,0,0-6.029-2.4,9.549,9.549,0,0,0-3.6.7,9.1,9.1,0,0,0-3.042,2,9.666,9.666,0,0,0-2.006,2.932,8.88,8.88,0,0,0-.771,3.647,8.42,8.42,0,0,0,.641,3.274,7.931,7.931,0,0,0,1.271,2.086,4.513,4.513,0,0,0-3.029,3.638c-.336,2.827-.59,5.646-.756,8.379-.126,2.076-.19,3.97-.221,5.756-.274-.351-.535-.695-.84-1.062q-1.446-1.733-3.216-3.686t-3.546-3.727q-1.747-1.744-3.243-3.2l-.468-.456a43.773,43.773,0,0,0,3.657-3.483c1.791-1.91,3.52-3.945,5.136-6.047s3.157-4.257,4.6-6.442q2.139-3.244,4.067-6.316a4.442,4.442,0,0,0,.708-2.372,4.9,4.9,0,0,0-.841-2.7,8.168,8.168,0,0,0-1.693-1.851,8.268,8.268,0,0,0-2.422-1.34,8.44,8.44,0,0,0-2.7-.478c.291-.177.619-.332.889-.521a12.924,12.924,0,0,0,3.37-3.349,7.267,7.267,0,0,0,1.38-3.992,4.723,4.723,0,0,0-1.456-3.525,4.836,4.836,0,0,0-1.851-1.118,13.947,13.947,0,0,0,1.479-.909,11.611,11.611,0,0,0,3.361-3.648,10.127,10.127,0,0,0,1.348-5.207,8.589,8.589,0,0,0-1.226-4.612,9.875,9.875,0,0,0-2.926-3.026A11.95,11.95,0,0,0,507,432.836a17.723,17.723,0,0,0-4.11-.481,16.489,16.489,0,0,0-7.592,1.813,20.085,20.085,0,0,0-6.006,4.718,20.784,20.784,0,0,0-2.036,2.817c0-.034.009-.069.009-.1a9.875,9.875,0,0,0-.544-3.191,8.218,8.218,0,0,0-1.853-3.02,8.922,8.922,0,0,0-3.126-2.067,11.321,11.321,0,0,0-4.254-.74c-3.332,0-6.3.039-8.831.115a21.561,21.561,0,0,0-7.153,1.3,11.4,11.4,0,0,0-5.326,4.274,15.108,15.108,0,0,0-1.8,3.882,7.073,7.073,0,0,0-1.026-3.024,8.565,8.565,0,0,0-2.607-2.608,10.708,10.708,0,0,0-3.4-1.413,15.4,15.4,0,0,0-3.447-.4,14.615,14.615,0,0,0-3.708.457,9.913,9.913,0,0,0-2.13.823c-.576-.181-1.183-.347-1.811-.5a15.56,15.56,0,0,0-3.573-.4,14.864,14.864,0,0,0-7.325,1.929,20.433,20.433,0,0,0-5.827,4.921,23.641,23.641,0,0,0-2.576,3.921,13.569,13.569,0,0,0-2.247-6.573,34.669,34.669,0,0,0-4.6-5.411c-1.506-1.431-2.922-2.835-4.211-4.171a3.943,3.943,0,0,1-1.277-2.81,4.221,4.221,0,0,1,.914-2.662c.7-.907,1.183-.907,1.367-.907a.726.726,0,0,1,.551.23,13.146,13.146,0,0,0,3.43,2.339,7.975,7.975,0,0,0,3.221.768,5.58,5.58,0,0,0,3.1-.874,6.846,6.846,0,0,0,1.96-1.954,7.689,7.689,0,0,0,1.084-2.493,10.207,10.207,0,0,0,.294-2.408,7.47,7.47,0,0,0-.844-3.443,14.449,14.449,0,0,0-6.38-6.073,18.5,18.5,0,0,0-7.936-1.778,20.574,20.574,0,0,0-15.031,6.174,19.3,19.3,0,0,0-5.437,13.309,18.075,18.075,0,0,0,8.909,15.558,8.753,8.753,0,0,1,3.006,2.825,5.26,5.26,0,0,1,.825,2.545,2.52,2.52,0,0,1-.616,1.775,1.716,1.716,0,0,1-1.435.58,3.875,3.875,0,0,1-1.667-.445,8.579,8.579,0,0,1-2.124-1.588,5.031,5.031,0,0,0-4.4-1.985,8.84,8.84,0,0,0-2.584.407,8.494,8.494,0,0,0-2.456,1.2,7.042,7.042,0,0,0-1.916,2.035,5.623,5.623,0,0,0-.849,3.021,6.26,6.26,0,0,0,.866,3.273c1.97,3.826,4.328,6.558,7.01,8.119a17.563,17.563,0,0,0,8.953,2.327,20.48,20.48,0,0,0,8.726-1.812,20.367,20.367,0,0,0,8.958-7.834A10.575,10.575,0,0,0,415.256,462a10.445,10.445,0,0,0,2.928,3.457,11.72,11.72,0,0,0,3.973,1.945,16.162,16.162,0,0,0,4.3.579,19.729,19.729,0,0,0,6.659-1.184,21.729,21.729,0,0,0,2.514-1.021l.2-.1a5.165,5.165,0,0,0,2.495,1.4,18.668,18.668,0,0,0,4.512.526,12.165,12.165,0,0,0,2.727-.288,5.15,5.15,0,0,0,2.565-1.3c.416-.412.72-.925,1.426-2.878.456-1.266.956-2.847,1.489-4.7.438-1.521.9-3.258,1.369-5.12-.269,2.094-.51,4.213-.69,6.319q-.306,3.562-.5,6.971c-.128,2.28-.193,4.378-.193,6.234a39,39,0,0,0,.329,5.576c.238,1.609.689,3.329,2.179,4.032a10.383,10.383,0,0,0,2.969,1.032,17.347,17.347,0,0,0,3.466.351,11.3,11.3,0,0,0,2.628-.293,5.173,5.173,0,0,0,2.506-1.294c.508-.5.811-1.175,1.36-3.01q.542-1.826,1.241-4.655.688-2.784,1.487-6.255.584-2.531,1.189-5.122c.179,0,3.162,0,3.162,0a6.245,6.245,0,0,0,3.367-.926,7.662,7.662,0,0,0,3.418-4.716,10.819,10.819,0,0,0,.338-2.618,7.207,7.207,0,0,0-.777-3.465c-.026-.05-.055-.1-.084-.148a6.683,6.683,0,0,0,2.764-.941,8.768,8.768,0,0,0,1.862-1.579,24.189,24.189,0,0,0-.57,5.147,12.7,12.7,0,0,0,1.073,5.191,14.358,14.358,0,0,0,2.717,4.119,13.3,13.3,0,0,0,3.911,2.852,10.9,10.9,0,0,0,4.73,1.1,20.378,20.378,0,0,0,4.6-.511,9.992,9.992,0,0,0-1.271,1.607l-3.732,5.971a18.054,18.054,0,0,0,.138-1.967,5.091,5.091,0,0,0-.916-2.648,10.537,10.537,0,0,0-2.09-2.382,13.609,13.609,0,0,0-3.074-1.972,9.831,9.831,0,0,0-4.264-.936,9.611,9.611,0,0,0-3.563.735,9.047,9.047,0,0,0-3.5,2.6,9.992,9.992,0,0,0-1.726,4.135c-.438,1.732-.891,3.881-1.344,6.387s-.889,5.3-1.292,8.281c-.406,3.023-.767,6.061-1.068,9.028q-.467,4.528-.785,8.7c-.216,2.816-.326,5.27-.326,7.294a31.609,31.609,0,0,0,.234,4.3c.1.685.382,2.669,1.98,3.4a9.042,9.042,0,0,0,2.741.972,16.383,16.383,0,0,0,3.267.331,13.722,13.722,0,0,0,2.1-.135,4.719,4.719,0,0,0,2.38-1.115,5.884,5.884,0,0,0,1.563-2.362c.283-.719.594-1.663.954-2.9q.507-1.748,1.132-4.449.166-.727.357-1.54,1.531,1.947,2.922,3.685,1.429,1.785,2.607,3.213,1.211,1.471,1.871,2.2a2.378,2.378,0,0,0,.559.455,8.614,8.614,0,0,0,2.479.972,10.918,10.918,0,0,0,5.358-.137,12.022,12.022,0,0,0,2.462-.974,8.033,8.033,0,0,0,1.118-.726,3.219,3.219,0,0,0,1.559,1.592,9.869,9.869,0,0,0,2.783.961,16,16,0,0,0,3.195.331,11,11,0,0,0,2.563-.278,5.007,5.007,0,0,0,2.427-1.265,7.162,7.162,0,0,0,1.374-2.688c.452-1.179.926-2.645,1.449-4.485.133-.471.273-1,.41-1.5a10.928,10.928,0,0,0,.942,3.379,11.4,11.4,0,0,0,2.716,3.687,12.312,12.312,0,0,0,3.8,2.318,12,12,0,0,0,4.35.831,17.674,17.674,0,0,0,6.167-.927,20.122,20.122,0,0,0,2.481-1.131,5.83,5.83,0,0,0,2.075,1.422,8.026,8.026,0,0,0,2.454.558c.691.049,1.418.077,2.186.077a11.55,11.55,0,0,0,2.58-.273,4.975,4.975,0,0,0,2.489-1.276c.483-.491.825-1.138,1.571-3.675.083-.282.171-.592.258-.9a5.613,5.613,0,0,0,.372.888,11.482,11.482,0,0,0,2.775,3.194,11.219,11.219,0,0,0,3.268,1.741,14.128,14.128,0,0,0,3.481.682q1.549.108,3.21.179c.034,0,.069,0,.1,0,.051,0,.1,0,.154-.006a22.309,22.309,0,0,0,6.321-1.276,16.669,16.669,0,0,0,4.8-2.689,12.4,12.4,0,0,0,3.147-3.8,9.756,9.756,0,0,0,1.16-4.557,9.106,9.106,0,0,0-1.929-5.548,10.37,10.37,0,0,0-2.04-2.027c.114.007.229.011.341.011a5.013,5.013,0,0,0,4.275-2.149,6.184,6.184,0,0,0,1.193-3.525,4.927,4.927,0,0,0-1.811-3.832A11.019,11.019,0,0,0,583.794,488.981ZM434.164,450.4c-.061,1.382-.119,2.791-.164,4.226a3.416,3.416,0,0,1-.765.6,1.777,1.777,0,0,1-.783.249.241.241,0,0,1-.245-.108,1.632,1.632,0,0,1-.215-1.034,7.782,7.782,0,0,1,.593-2.7,8.91,8.91,0,0,1,1.667-2.79Q434.2,449.658,434.164,450.4Zm69.586,3.167c-.242.2-.477.387-.629.546-.12,0-.332,0-.668-.382C502.884,453.7,503.317,453.641,503.75,453.57Zm39.13,48.823q-.12,2.293-.189,4.362a1.9,1.9,0,0,1-.431.319,1.141,1.141,0,0,1-.508.142c-.124,0-.277,0-.533-.293a2.372,2.372,0,0,1-.378-1.468,6.282,6.282,0,0,1,.544-2.394A8.08,8.08,0,0,1,543,500.38Q542.932,501.4,542.881,502.392Zm26.019,7.4a1.31,1.31,0,0,1-.315.1c-.2-.176-.4-.369-.611-.581a8.1,8.1,0,0,0-1.653-1.255,5.746,5.746,0,0,0-2.906-.7,7.584,7.584,0,0,0-3.321.765,4.637,4.637,0,0,0-.794.518c.03-.117.058-.223.088-.341.467-1.832.952-3.837,1.447-5.929a6.666,6.666,0,0,0,1.857,2.913,18.638,18.638,0,0,0,3.767,2.635q1.638.868,3.017,1.534A2.779,2.779,0,0,1,568.9,509.791Z" transform="translate(-379.605 -407.634)" fill="#1a1a1a"/>
          </g>
        </g>
        <g id="Group_4" data-name="Group 4" transform="translate(178.823 7.886)">
          <g id="Group_3" data-name="Group 3">
            <path id="Path_2" data-name="Path 2" d="M773.087,448.862a10.368,10.368,0,0,0-2.208-3.634,9.843,9.843,0,0,0-3.342-2.3,10.632,10.632,0,0,0-4.117-.792,13.063,13.063,0,0,0-5.721,1.3,14.267,14.267,0,0,0-4.577,3.493,16.194,16.194,0,0,0-1.2,1.655,11.362,11.362,0,0,0,.136-1.687,8.611,8.611,0,0,0-1.225-4.613,9.892,9.892,0,0,0-2.926-3.025,12,12,0,0,0-3.869-1.658,17.761,17.761,0,0,0-4.105-.481,16.49,16.49,0,0,0-7.592,1.813,20.057,20.057,0,0,0-6.006,4.719q-.645.742-1.222,1.552c.25-1.129.5-2.256.733-3.351.611-2.841,1.115-5.481,1.5-7.848a37.225,37.225,0,0,0,.6-5.458,5.6,5.6,0,0,0-.8-2.562,10.557,10.557,0,0,0-2.084-2.693,13.241,13.241,0,0,0-3.271-2.267,10.579,10.579,0,0,0-4.764-1.043,10.286,10.286,0,0,0-3.826.775,9.262,9.262,0,0,0-3.594,2.643,6.469,6.469,0,0,0-1.462,2.847c-.3,1.009-.6,2.238-.884,3.649q-.427,2.093-.851,4.763c-.151.942-.292,1.91-.422,2.9a19.4,19.4,0,0,0-2.838-.21,16.784,16.784,0,0,0-7.569,1.766,19.553,19.553,0,0,0-6.027,4.69,21.7,21.7,0,0,0-2.877,4.289,4.892,4.892,0,0,0,.09-.74v-.607a6.954,6.954,0,0,0-1.174-4.025,8.34,8.34,0,0,0-2.685-2.477,11.866,11.866,0,0,0-3.355-1.283,15.925,15.925,0,0,0-3.472-.4,14.463,14.463,0,0,0-5.155.874c-2.666,1.014-3.4,2.7-3.542,3.925-.359,3.014-.632,6.032-.807,8.966-.18,2.9-.271,5.59-.271,7.992a42.321,42.321,0,0,0,.286,5.5c.119.9.422,3.231,2.249,4.048a10.408,10.408,0,0,0,2.943,1.016,16.984,16.984,0,0,0,3.388.351,11.588,11.588,0,0,0,2.706-.293,5.179,5.179,0,0,0,2.517-1.3,7.566,7.566,0,0,0,1.439-2.827c.483-1.257.989-2.823,1.546-4.788.227-.8.461-1.665.7-2.548A11.786,11.786,0,0,0,685.152,464a12.039,12.039,0,0,0,2.872,3.9,13.094,13.094,0,0,0,4.016,2.449,12.7,12.7,0,0,0,4.6.879,18.722,18.722,0,0,0,6.546-.983,21.093,21.093,0,0,0,2.75-1.262,6.1,6.1,0,0,0,2.252,1.579,8.5,8.5,0,0,0,2.578.585c.735.052,1.51.082,2.326.082a12.148,12.148,0,0,0,2.728-.288,5.144,5.144,0,0,0,2.571-1.309c.5-.5.857-1.178,1.655-3.88.35-1.2.741-2.611,1.165-4.217a12.289,12.289,0,0,0,.77,2.381,14.339,14.339,0,0,0,2.717,4.116,13.245,13.245,0,0,0,3.912,2.854,10.9,10.9,0,0,0,4.728,1.1,19.643,19.643,0,0,0,6.2-.955,19.017,19.017,0,0,0,4.89-2.393,12.934,12.934,0,0,0,3.369-3.349,7.264,7.264,0,0,0,1.38-3.99,4.723,4.723,0,0,0-1.455-3.523,4.852,4.852,0,0,0-1.853-1.119,13.833,13.833,0,0,0,1.475-.909,11.649,11.649,0,0,0,2.244-2.134,17.3,17.3,0,0,0-.581,4.467,9.6,9.6,0,0,0,.813,3.921,10.718,10.718,0,0,0,2.036,3.084,9.969,9.969,0,0,0,2.945,2.149,8.312,8.312,0,0,0,3.618.843,14.617,14.617,0,0,0,5.907-1.234,16.686,16.686,0,0,0,4.854-3.217,16.011,16.011,0,0,0,3.359-4.607,12.822,12.822,0,0,0,1.294-5.613A13.276,13.276,0,0,0,773.087,448.862Zm-32.922,10.02c-.12,0-.334,0-.67-.382q.65-.059,1.3-.164C740.551,458.537,740.316,458.723,740.165,458.881Zm24.636-4.543a8.746,8.746,0,0,1-.628,1.779,4.02,4.02,0,0,1-.974,1.323,1.907,1.907,0,0,1-.25-1.109,5,5,0,0,1,.385-1.741,5.955,5.955,0,0,1,.452-.912,5.837,5.837,0,0,1,.7-.944,3.354,3.354,0,0,1,.47-.427,5.1,5.1,0,0,1,.051.783A6.186,6.186,0,0,1,764.8,454.338Z" transform="translate(-666.317 -419.983)" fill="#1a1a1a"/>
          </g>
        </g>
        <g id="Group_5" data-name="Group 5" transform="translate(135.146)">
          <path id="Path_3" data-name="Path 3" d="M598.32,428.9q.913,3.992,2.015,8.592,1.109,4.619,2.29,9.042t2.283,8.333c.738,2.633,1.391,4.843,1.943,6.592a9.435,9.435,0,0,0,3.487,5.277,8.6,8.6,0,0,0,4.979,1.634,9.125,9.125,0,0,0,4.273-1.065,8.244,8.244,0,0,0,3.254-3q1.377-2.215,3.821-6.381t5.218-9.1q2.771-4.943,5.626-10.189t5.18-9.748c.879-1.705,1.645-3.223,2.325-4.607l2.364,2.3-.7,4.074a2.344,2.344,0,0,0,3.4,2.471l3.659-1.923,3.659,1.923a2.345,2.345,0,0,0,3.4-2.472l-.7-4.073,2.962-2.886a2.345,2.345,0,0,0-1.3-4l-4.091-.6-1.829-3.706a2.345,2.345,0,0,0-4.206,0l-1.831,3.707-2.552.371a8.371,8.371,0,0,0,.888-3.114,6.415,6.415,0,0,0-.83-2.932,11.5,11.5,0,0,0-1.95-2.677,11.251,11.251,0,0,0-3.067-2.214,9.224,9.224,0,0,0-4.154-.967,10.845,10.845,0,0,0-3.336.569,11.416,11.416,0,0,0-3.527,1.945c-.58.433-1.284,1.238-2.832,3.76-1.109,1.806-2.353,3.955-3.693,6.387s-2.735,5.069-4.138,7.852c-.12.236-.239.473-.355.707-.008-.042-.018-.085-.025-.13-.536-2.81-1.12-5.492-1.733-7.972s-1.232-4.68-1.83-6.5c-.844-2.568-1.321-3.447-1.9-4.11A9.179,9.179,0,0,0,611.664,408a9.08,9.08,0,0,0-3.324-.656,10.647,10.647,0,0,0-5.134,1.269,15.644,15.644,0,0,0-3.617,2.642,14.637,14.637,0,0,0-2.3,2.908,5.684,5.684,0,0,0-1,2.805,30.273,30.273,0,0,0,.567,4.8C597.211,423.8,597.7,426.2,598.32,428.9Z" transform="translate(-596.289 -407.339)" fill="#1a1a1a"/>
        </g>
      </g>
    </g>
    <g id="Group_14" data-name="Group 14" transform="translate(377.289 337.332)">
      <g id="Group_13" data-name="Group 13" transform="translate(0 0)">
        <g id="Group_9" data-name="Group 9" transform="translate(0 0.184)">
          <g id="Group_8" data-name="Group 8">
            <path id="Path_4" data-name="Path 4" d="M581.478,485.338A15.783,15.783,0,0,0,578,484.38a19.692,19.692,0,0,0-3.072-.278,25.078,25.078,0,0,0-5.413.623,19.968,19.968,0,0,0-5.3,1.968,12.892,12.892,0,0,0-3.649,2.989c.09-.416.186-.846.274-1.257.573-2.668,1.046-5.137,1.4-7.333a34.9,34.9,0,0,0,.563-5.121,5.365,5.365,0,0,0-.76-2.461,9.989,9.989,0,0,0-1.975-2.553,12.451,12.451,0,0,0-3.094-2.146,10.021,10.021,0,0,0-4.517-.99,9.774,9.774,0,0,0-3.632.735,8.809,8.809,0,0,0-3.407,2.5,6.185,6.185,0,0,0-1.4,2.721c-.283.94-.561,2.092-.83,3.421q-.4,1.958-.8,4.454c-.134.825-.258,1.679-.374,2.554a18.327,18.327,0,0,0-2.515-.175,15.813,15.813,0,0,0-7.138,1.665,18.418,18.418,0,0,0-5.674,4.416,20.3,20.3,0,0,0-2.326,3.323v-.475a6.637,6.637,0,0,0-1.122-3.843,7.818,7.818,0,0,0-1.872-1.916,9.434,9.434,0,0,0,.857-.758,9.719,9.719,0,0,0,2.006-2.935,8.921,8.921,0,0,0,.769-3.644,8.059,8.059,0,0,0-2.475-5.96,8.328,8.328,0,0,0-6.029-2.4,9.537,9.537,0,0,0-3.605.7,9.092,9.092,0,0,0-3.042,2,9.671,9.671,0,0,0-2.006,2.933,8.877,8.877,0,0,0-.771,3.647,8.426,8.426,0,0,0,.641,3.274,7.926,7.926,0,0,0,1.271,2.085,4.514,4.514,0,0,0-3.029,3.639c-.336,2.827-.59,5.646-.756,8.379-.126,2.076-.19,3.969-.221,5.756-.274-.351-.535-.695-.84-1.062q-1.445-1.734-3.216-3.687t-3.546-3.727q-1.747-1.743-3.243-3.2l-.468-.456a43.875,43.875,0,0,0,3.657-3.483c1.791-1.91,3.52-3.945,5.136-6.047s3.157-4.257,4.6-6.441q2.139-3.244,4.067-6.316a4.442,4.442,0,0,0,.708-2.373,4.9,4.9,0,0,0-.841-2.7,8.165,8.165,0,0,0-1.693-1.851,8.25,8.25,0,0,0-2.422-1.34,8.426,8.426,0,0,0-2.7-.478c.291-.177.619-.332.889-.521a12.914,12.914,0,0,0,3.37-3.349,7.265,7.265,0,0,0,1.38-3.992,4.724,4.724,0,0,0-1.456-3.525,4.826,4.826,0,0,0-1.851-1.117,14.042,14.042,0,0,0,1.479-.909,11.621,11.621,0,0,0,3.361-3.649,10.124,10.124,0,0,0,1.348-5.206,8.589,8.589,0,0,0-1.226-4.612,9.88,9.88,0,0,0-2.926-3.026,11.922,11.922,0,0,0-3.866-1.657,17.688,17.688,0,0,0-4.11-.482,16.489,16.489,0,0,0-7.592,1.813,20.079,20.079,0,0,0-6.006,4.719,20.781,20.781,0,0,0-2.036,2.816c0-.034.009-.068.009-.1a9.87,9.87,0,0,0-.544-3.191,8.215,8.215,0,0,0-1.853-3.021,8.94,8.94,0,0,0-3.126-2.067,11.325,11.325,0,0,0-4.254-.74c-3.332,0-6.3.039-8.831.115a21.558,21.558,0,0,0-7.153,1.3,11.4,11.4,0,0,0-5.326,4.274,15.119,15.119,0,0,0-1.8,3.882,7.077,7.077,0,0,0-1.026-3.024,8.565,8.565,0,0,0-2.607-2.608,10.708,10.708,0,0,0-3.4-1.413,15.441,15.441,0,0,0-3.447-.4,14.642,14.642,0,0,0-3.709.457,9.948,9.948,0,0,0-2.13.823c-.576-.182-1.183-.347-1.811-.5a15.6,15.6,0,0,0-3.573-.4,14.864,14.864,0,0,0-7.325,1.928,20.445,20.445,0,0,0-5.827,4.921,23.644,23.644,0,0,0-2.576,3.921,13.574,13.574,0,0,0-2.247-6.573,34.673,34.673,0,0,0-4.6-5.411c-1.506-1.431-2.922-2.835-4.211-4.171a3.945,3.945,0,0,1-1.277-2.81,4.224,4.224,0,0,1,.914-2.663c.7-.906,1.183-.906,1.366-.906a.728.728,0,0,1,.551.229,13.145,13.145,0,0,0,3.43,2.339,7.974,7.974,0,0,0,3.221.768,5.575,5.575,0,0,0,3.1-.874,6.839,6.839,0,0,0,1.96-1.954,7.685,7.685,0,0,0,1.084-2.492,10.215,10.215,0,0,0,.294-2.409,7.468,7.468,0,0,0-.844-3.443,14.449,14.449,0,0,0-6.38-6.073,18.5,18.5,0,0,0-7.936-1.778,20.578,20.578,0,0,0-15.031,6.175,19.3,19.3,0,0,0-5.437,13.309,18.075,18.075,0,0,0,8.909,15.558,8.753,8.753,0,0,1,3.006,2.825,5.262,5.262,0,0,1,.825,2.545,2.522,2.522,0,0,1-.616,1.775,1.718,1.718,0,0,1-1.435.58,3.868,3.868,0,0,1-1.667-.446,8.563,8.563,0,0,1-2.124-1.588,5.033,5.033,0,0,0-4.4-1.985,8.84,8.84,0,0,0-2.584.407,8.479,8.479,0,0,0-2.456,1.206,7.043,7.043,0,0,0-1.916,2.035,5.62,5.62,0,0,0-.849,3.02,6.259,6.259,0,0,0,.866,3.273c1.97,3.826,4.328,6.558,7.01,8.119a17.558,17.558,0,0,0,8.953,2.328,20.48,20.48,0,0,0,8.726-1.812,20.372,20.372,0,0,0,8.958-7.834,10.572,10.572,0,0,0,1.139,4.879,10.443,10.443,0,0,0,2.928,3.457,11.733,11.733,0,0,0,3.973,1.946,16.162,16.162,0,0,0,4.3.578,19.712,19.712,0,0,0,6.659-1.184,21.589,21.589,0,0,0,2.514-1.021l.2-.1a5.154,5.154,0,0,0,2.495,1.4,18.666,18.666,0,0,0,4.512.526,12.161,12.161,0,0,0,2.727-.288,5.152,5.152,0,0,0,2.565-1.3c.416-.412.72-.925,1.426-2.878.456-1.266.956-2.846,1.489-4.7.438-1.522.9-3.258,1.369-5.121-.269,2.094-.51,4.213-.69,6.319q-.306,3.561-.5,6.97c-.128,2.281-.193,4.378-.193,6.235a38.987,38.987,0,0,0,.329,5.575c.238,1.609.689,3.33,2.179,4.032a10.4,10.4,0,0,0,2.969,1.032,17.392,17.392,0,0,0,3.466.351,11.3,11.3,0,0,0,2.628-.293,5.173,5.173,0,0,0,2.506-1.294c.508-.5.811-1.174,1.36-3.009q.542-1.827,1.241-4.655.688-2.784,1.487-6.254.584-2.531,1.189-5.122c.179,0,3.162,0,3.162,0a6.245,6.245,0,0,0,3.367-.927,7.658,7.658,0,0,0,3.418-4.716,10.822,10.822,0,0,0,.338-2.618,7.2,7.2,0,0,0-.777-3.465c-.026-.051-.055-.1-.084-.149a6.682,6.682,0,0,0,2.764-.941,8.747,8.747,0,0,0,1.862-1.578,24.177,24.177,0,0,0-.57,5.147,12.707,12.707,0,0,0,1.073,5.191,14.354,14.354,0,0,0,2.717,4.118,13.294,13.294,0,0,0,3.911,2.852,10.9,10.9,0,0,0,4.73,1.1,20.378,20.378,0,0,0,4.6-.511,10.022,10.022,0,0,0-1.27,1.607l-3.732,5.971a18.053,18.053,0,0,0,.138-1.966,5.09,5.09,0,0,0-.916-2.647,10.513,10.513,0,0,0-2.09-2.382,13.61,13.61,0,0,0-3.074-1.973,9.832,9.832,0,0,0-4.264-.936,9.623,9.623,0,0,0-3.563.735,9.052,9.052,0,0,0-3.5,2.6,10,10,0,0,0-1.726,4.135c-.438,1.732-.891,3.881-1.344,6.387s-.889,5.3-1.292,8.281c-.406,3.023-.767,6.061-1.068,9.029q-.467,4.527-.785,8.7c-.216,2.816-.326,5.271-.326,7.295a31.6,31.6,0,0,0,.234,4.295c.1.685.382,2.669,1.98,3.4a9.042,9.042,0,0,0,2.74.971,16.389,16.389,0,0,0,3.267.331,13.721,13.721,0,0,0,2.1-.135,4.714,4.714,0,0,0,2.38-1.115,5.882,5.882,0,0,0,1.563-2.361c.283-.719.594-1.663.954-2.9q.507-1.749,1.132-4.449.166-.728.357-1.541,1.531,1.947,2.922,3.685,1.429,1.785,2.607,3.213,1.211,1.47,1.87,2.2a2.377,2.377,0,0,0,.559.455,8.612,8.612,0,0,0,2.479.972,10.9,10.9,0,0,0,5.358-.137,11.986,11.986,0,0,0,2.462-.974,8.041,8.041,0,0,0,1.118-.725,3.221,3.221,0,0,0,1.559,1.592,9.889,9.889,0,0,0,2.783.961,16,16,0,0,0,3.195.331,11,11,0,0,0,2.563-.278,5.006,5.006,0,0,0,2.427-1.264,7.167,7.167,0,0,0,1.374-2.688c.452-1.179.926-2.645,1.449-4.485.133-.471.273-1,.41-1.5a10.93,10.93,0,0,0,.942,3.378,11.4,11.4,0,0,0,2.716,3.687,12.315,12.315,0,0,0,3.8,2.318,12.015,12.015,0,0,0,4.35.831,17.675,17.675,0,0,0,6.167-.926,20.225,20.225,0,0,0,2.481-1.131,5.831,5.831,0,0,0,2.074,1.422,8.007,8.007,0,0,0,2.454.558c.691.05,1.418.077,2.185.077a11.551,11.551,0,0,0,2.58-.273,4.981,4.981,0,0,0,2.489-1.276c.483-.49.825-1.138,1.57-3.675.083-.282.171-.592.258-.9a5.641,5.641,0,0,0,.372.889,11.5,11.5,0,0,0,2.775,3.194,11.233,11.233,0,0,0,3.268,1.741,14.127,14.127,0,0,0,3.481.681q1.549.108,3.21.18c.034,0,.069,0,.1,0,.051,0,.1,0,.154-.006a22.331,22.331,0,0,0,6.321-1.275,16.67,16.67,0,0,0,4.8-2.689,12.386,12.386,0,0,0,3.147-3.8,9.753,9.753,0,0,0,1.16-4.557,9.1,9.1,0,0,0-1.929-5.548,10.337,10.337,0,0,0-2.04-2.027c.114.007.229.011.341.011a5.012,5.012,0,0,0,4.276-2.149,6.182,6.182,0,0,0,1.192-3.524,4.928,4.928,0,0,0-1.811-3.833A11,11,0,0,0,581.478,485.338Zm-149.63-38.578c-.061,1.382-.118,2.792-.164,4.227a3.426,3.426,0,0,1-.765.6,1.769,1.769,0,0,1-.783.249.242.242,0,0,1-.245-.107,1.635,1.635,0,0,1-.215-1.035,7.778,7.778,0,0,1,.593-2.7,8.9,8.9,0,0,1,1.667-2.79Q431.884,446.014,431.848,446.759Zm69.586,3.167c-.242.2-.477.387-.629.547-.12,0-.332,0-.668-.382C500.568,450.052,501,450,501.434,449.926Zm39.13,48.823q-.12,2.293-.189,4.362a1.921,1.921,0,0,1-.431.319,1.139,1.139,0,0,1-.508.141c-.124,0-.277,0-.533-.293a2.371,2.371,0,0,1-.378-1.468,6.279,6.279,0,0,1,.544-2.394,8.085,8.085,0,0,1,1.617-2.68Q540.616,497.753,540.565,498.748Zm26.019,7.4a1.31,1.31,0,0,1-.315.1q-.295-.264-.611-.58a8.1,8.1,0,0,0-1.653-1.256,5.745,5.745,0,0,0-2.906-.7,7.59,7.59,0,0,0-3.321.764,4.671,4.671,0,0,0-.794.518c.03-.117.058-.222.088-.341.467-1.832.952-3.837,1.447-5.93a6.667,6.667,0,0,0,1.857,2.913,18.662,18.662,0,0,0,3.767,2.635q1.638.867,3.017,1.533A2.779,2.779,0,0,1,566.584,506.147Z" transform="translate(-377.289 -403.99)" fill="#1a1a1a"/>
          </g>
        </g>
        <g id="Group_11" data-name="Group 11" transform="translate(178.823 7.886)">
          <g id="Group_10" data-name="Group 10">
            <path id="Path_5" data-name="Path 5" d="M770.771,445.218a10.37,10.37,0,0,0-2.208-3.634,9.842,9.842,0,0,0-3.342-2.3,10.631,10.631,0,0,0-4.117-.792,13.072,13.072,0,0,0-5.721,1.3,14.266,14.266,0,0,0-4.577,3.494,16.124,16.124,0,0,0-1.2,1.655,11.375,11.375,0,0,0,.136-1.687,8.61,8.61,0,0,0-1.225-4.613,9.9,9.9,0,0,0-2.926-3.026,11.985,11.985,0,0,0-3.869-1.657,17.762,17.762,0,0,0-4.105-.481,16.483,16.483,0,0,0-7.592,1.813,20.036,20.036,0,0,0-6.006,4.719q-.645.741-1.222,1.552c.25-1.129.5-2.256.733-3.351.611-2.84,1.115-5.481,1.5-7.847a37.223,37.223,0,0,0,.6-5.459,5.593,5.593,0,0,0-.8-2.561,10.537,10.537,0,0,0-2.084-2.693,13.259,13.259,0,0,0-3.271-2.267,10.579,10.579,0,0,0-4.764-1.043,10.3,10.3,0,0,0-3.826.775,9.262,9.262,0,0,0-3.594,2.643,6.472,6.472,0,0,0-1.462,2.847c-.3,1.009-.6,2.238-.884,3.649q-.427,2.093-.851,4.763c-.151.942-.293,1.91-.422,2.9a19.388,19.388,0,0,0-2.838-.209,16.782,16.782,0,0,0-7.569,1.765,19.552,19.552,0,0,0-6.027,4.69,21.718,21.718,0,0,0-2.877,4.289,4.883,4.883,0,0,0,.09-.74V443.1a6.95,6.95,0,0,0-1.174-4.025A8.333,8.333,0,0,0,680.6,436.6a11.869,11.869,0,0,0-3.355-1.284,15.965,15.965,0,0,0-3.472-.4,14.461,14.461,0,0,0-5.155.874c-2.666,1.013-3.4,2.7-3.542,3.925-.359,3.015-.632,6.032-.807,8.966-.18,2.9-.271,5.59-.271,7.992a42.3,42.3,0,0,0,.286,5.5c.118.9.422,3.231,2.248,4.048a10.41,10.41,0,0,0,2.943,1.016,16.937,16.937,0,0,0,3.388.351,11.628,11.628,0,0,0,2.706-.292,5.186,5.186,0,0,0,2.517-1.3,7.569,7.569,0,0,0,1.439-2.827c.483-1.257.989-2.824,1.546-4.788.227-.8.461-1.665.7-2.548a11.789,11.789,0,0,0,1.063,4.532,12.027,12.027,0,0,0,2.872,3.9,13.081,13.081,0,0,0,4.016,2.449,12.7,12.7,0,0,0,4.6.879,18.738,18.738,0,0,0,6.546-.982,21.119,21.119,0,0,0,2.75-1.263,6.1,6.1,0,0,0,2.252,1.579,8.462,8.462,0,0,0,2.578.585c.735.052,1.51.082,2.326.082a12.146,12.146,0,0,0,2.727-.288,5.144,5.144,0,0,0,2.571-1.309c.5-.5.857-1.177,1.655-3.88.35-1.2.741-2.611,1.165-4.217a12.318,12.318,0,0,0,.77,2.382,14.337,14.337,0,0,0,2.717,4.115,13.245,13.245,0,0,0,3.913,2.855,10.9,10.9,0,0,0,4.728,1.1,19.64,19.64,0,0,0,6.2-.956,18.994,18.994,0,0,0,4.89-2.392,12.931,12.931,0,0,0,3.368-3.349,7.262,7.262,0,0,0,1.38-3.991,4.722,4.722,0,0,0-1.454-3.523,4.855,4.855,0,0,0-1.853-1.12,13.723,13.723,0,0,0,1.475-.909,11.661,11.661,0,0,0,2.244-2.134,17.3,17.3,0,0,0-.581,4.467,9.6,9.6,0,0,0,.813,3.921,10.717,10.717,0,0,0,2.036,3.084,9.968,9.968,0,0,0,2.945,2.149,8.313,8.313,0,0,0,3.618.843,14.617,14.617,0,0,0,5.907-1.234,16.7,16.7,0,0,0,4.854-3.216,16.021,16.021,0,0,0,3.359-4.607,12.826,12.826,0,0,0,1.294-5.613A13.277,13.277,0,0,0,770.771,445.218Zm-32.922,10.02c-.12,0-.334,0-.67-.382q.65-.058,1.3-.164C738.235,454.893,738,455.079,737.849,455.237Zm24.636-4.543a8.737,8.737,0,0,1-.628,1.779,4.021,4.021,0,0,1-.974,1.323,1.9,1.9,0,0,1-.25-1.109,5,5,0,0,1,.385-1.741,5.967,5.967,0,0,1,.452-.912,5.836,5.836,0,0,1,.7-.944,3.358,3.358,0,0,1,.47-.427,5.117,5.117,0,0,1,.051.783A6.187,6.187,0,0,1,762.485,450.694Z" transform="translate(-664.001 -416.339)" fill="#1a1a1a"/>
          </g>
        </g>
        <g id="Group_12" data-name="Group 12" transform="translate(135.146)">
          <path id="Path_6" data-name="Path 6" d="M596,425.254q.913,3.993,2.015,8.592,1.109,4.62,2.29,9.043t2.283,8.333c.738,2.633,1.391,4.842,1.943,6.592a9.437,9.437,0,0,0,3.487,5.277A8.6,8.6,0,0,0,613,464.725a9.125,9.125,0,0,0,4.274-1.065,8.253,8.253,0,0,0,3.254-3q1.377-2.216,3.821-6.381t5.218-9.1q2.771-4.943,5.626-10.19t5.18-9.748c.88-1.705,1.645-3.223,2.325-4.607l2.364,2.3-.7,4.074a2.344,2.344,0,0,0,3.4,2.472l3.659-1.923,3.659,1.923a2.345,2.345,0,0,0,3.4-2.473l-.7-4.073,2.962-2.885a2.345,2.345,0,0,0-1.3-4l-4.091-.594-1.829-3.707a2.345,2.345,0,0,0-4.206,0l-1.831,3.707-2.552.37a8.371,8.371,0,0,0,.887-3.113,6.416,6.416,0,0,0-.83-2.933,11.5,11.5,0,0,0-1.95-2.677,11.236,11.236,0,0,0-3.067-2.214,9.225,9.225,0,0,0-4.154-.967,10.826,10.826,0,0,0-3.336.569,11.389,11.389,0,0,0-3.527,1.945c-.58.432-1.284,1.237-2.832,3.76-1.109,1.806-2.353,3.956-3.693,6.387s-2.735,5.069-4.138,7.852c-.12.237-.239.473-.355.707-.008-.043-.018-.086-.025-.13-.536-2.81-1.12-5.492-1.733-7.972s-1.232-4.68-1.83-6.5c-.844-2.568-1.321-3.447-1.9-4.11a9.17,9.17,0,0,0-3.111-2.078,9.068,9.068,0,0,0-3.324-.657,10.654,10.654,0,0,0-5.134,1.269,15.629,15.629,0,0,0-3.617,2.643,14.65,14.65,0,0,0-2.3,2.907,5.686,5.686,0,0,0-1,2.806,30.264,30.264,0,0,0,.567,4.8C594.895,420.159,595.388,422.559,596,425.254Z" transform="translate(-593.973 -403.695)" fill="#1a1a1a"/>
        </g>
      </g>
    </g>
    <g id="Group_24" data-name="Group 24" transform="translate(471.02 396.736)">
      <g id="Group_23" data-name="Group 23">
        <g id="Group_16" data-name="Group 16">
          <g id="Group_15" data-name="Group 15">
            <path id="Path_7" data-name="Path 7" d="M564.594,504.106q-1.912,3.044-4.034,6.265t-4.5,6.3q-2.37,3.079-4.991,5.875a39.592,39.592,0,0,1-5.521,4.92q.919.849,2.406,2.3t3.222,3.185q1.735,1.735,3.47,3.646t3.149,3.611a31.374,31.374,0,0,1,2.3,3.079,4.543,4.543,0,0,1,.884,2.018,1.857,1.857,0,0,1-.531,1.239,4.942,4.942,0,0,1-1.38,1.062,9.666,9.666,0,0,1-1.983.778,8.566,8.566,0,0,1-4.213.106,6.241,6.241,0,0,1-1.806-.708q-.635-.706-1.8-2.124t-2.585-3.185q-1.416-1.769-2.973-3.752t-2.9-3.823q-.92,3.753-1.521,6.37t-1.1,4.319q-.5,1.7-.885,2.69a3.685,3.685,0,0,1-.92,1.451,2.385,2.385,0,0,1-1.2.567,11.532,11.532,0,0,1-1.733.105,13.98,13.98,0,0,1-2.8-.283,6.506,6.506,0,0,1-2.158-.778q-.5-.142-.709-1.628a29.418,29.418,0,0,1-.211-3.964q0-2.973.319-7.115t.778-8.636q.458-4.494,1.061-8.955T531,510.867q.673-3.717,1.309-6.23a8.868,8.868,0,0,1,1.2-3.15,6.787,6.787,0,0,1,2.618-1.982,7.246,7.246,0,0,1,2.691-.566,7.487,7.487,0,0,1,3.256.709,11.235,11.235,0,0,1,2.548,1.628,8.151,8.151,0,0,1,1.628,1.84,3.09,3.09,0,0,1,.567,1.416,31.977,31.977,0,0,1-.531,4.531q-.532,3.185-1.381,7.433a70.259,70.259,0,0,0,5.063-7.079q2.3-3.68,4.777-7.645a5.977,5.977,0,0,1,2.231-2.195,5.433,5.433,0,0,1,2.512-.637,6.076,6.076,0,0,1,2.054.354,5.9,5.9,0,0,1,1.734.955,5.749,5.749,0,0,1,1.2,1.31,2.578,2.578,0,0,1,.46,1.416A2.125,2.125,0,0,1,564.594,504.106Z" transform="translate(-527.571 -498.939)" fill="#952275"/>
          </g>
        </g>
        <g id="Group_18" data-name="Group 18" transform="translate(35.184 10.76)">
          <g id="Group_17" data-name="Group 17">
            <path id="Path_8" data-name="Path 8" d="M584.973,532.4q.143-1.2,1.912-1.876a11.292,11.292,0,0,1,4.035-.673,12.546,12.546,0,0,1,2.761.319,8.822,8.822,0,0,1,2.512.956A5.531,5.531,0,0,1,598,532.791a4.323,4.323,0,0,1,.708,2.513v.567a2.367,2.367,0,0,1-.07.566q-.635,3.4-1.45,6.654t-1.557,5.876q-.745,2.62-1.382,4.283a8.734,8.734,0,0,1-.849,1.876,2.718,2.718,0,0,1-1.31.636,8.644,8.644,0,0,1-2.017.213,13.567,13.567,0,0,1-2.726-.284,7.432,7.432,0,0,1-2.229-.778q-.638-.212-.886-2.088a38.261,38.261,0,0,1-.248-4.849q0-3.256.248-7.327T584.973,532.4Zm8.212-16.211a6.031,6.031,0,0,1,4.39,1.734,5.763,5.763,0,0,1,1.769,4.283,6.541,6.541,0,0,1-.566,2.69,7.27,7.27,0,0,1-3.752,3.752,6.541,6.541,0,0,1-2.689.566,6.1,6.1,0,0,1-2.477-.5,6.72,6.72,0,0,1-1.983-1.309,5.6,5.6,0,0,1-1.309-1.911,6.056,6.056,0,0,1-.46-2.371,6.51,6.51,0,0,1,.567-2.69,7.275,7.275,0,0,1,1.521-2.23,6.747,6.747,0,0,1,2.265-1.487A7.188,7.188,0,0,1,593.185,516.191Z" transform="translate(-583.982 -516.191)" fill="#0f9ce9"/>
          </g>
        </g>
        <g id="Group_20" data-name="Group 20" transform="translate(51.747 7.079)">
          <g id="Group_19" data-name="Group 19">
            <path id="Path_9" data-name="Path 9" d="M620.1,553.755a9.649,9.649,0,0,1-3.5-.673,9.931,9.931,0,0,1-3.079-1.876,8.983,8.983,0,0,1-2.974-6.8,19.335,19.335,0,0,1,1.239-6.937,18.75,18.75,0,0,1,3.363-5.7,16,16,0,0,1,4.955-3.858,13.43,13.43,0,0,1,6.088-1.416,15.913,15.913,0,0,1,2.373.178,11.591,11.591,0,0,1,2.158.531q.283-2.619.674-5.061t.778-4.355q.386-1.911.779-3.221a4.349,4.349,0,0,1,.813-1.734,6.784,6.784,0,0,1,2.621-1.983,7.408,7.408,0,0,1,2.759-.566,7.676,7.676,0,0,1,3.47.743,10.035,10.035,0,0,1,2.512,1.734,7.7,7.7,0,0,1,1.523,1.947,3.6,3.6,0,0,1,.5,1.381,33.148,33.148,0,0,1-.533,4.743q-.53,3.258-1.38,7.221t-1.84,8.247q-.994,4.284-1.912,7.894t-1.628,6.017a10.684,10.684,0,0,1-.991,2.69,2.765,2.765,0,0,1-1.345.636,9.112,9.112,0,0,1-2.053.213c-.709,0-1.38-.025-2.018-.071a5.65,5.65,0,0,1-1.733-.389,3.215,3.215,0,0,1-2.054-2.584l-.071.071a19.022,19.022,0,0,1-4.141,2.195A15.536,15.536,0,0,1,620.1,553.755Zm3.47-15.079a8.47,8.47,0,0,0-.708,3.256,4.426,4.426,0,0,0,.957,3.009,2.946,2.946,0,0,0,2.3,1.1,3.459,3.459,0,0,0,1.557-.389,5.108,5.108,0,0,0,1.557-1.31l.143-.212q.069-2.405.212-5.133t.424-5.557l-.353-.211H629.3a5.144,5.144,0,0,0-2.937,1.38A9.522,9.522,0,0,0,623.565,538.676Z" transform="translate(-610.539 -510.289)" fill="#fcd306"/>
          </g>
        </g>
        <g id="Group_22" data-name="Group 22" transform="translate(85.586 23.361)">
          <g id="Group_21" data-name="Group 21">
            <path id="Path_10" data-name="Path 10" d="M675.979,564.144q-1.633-.072-3.151-.176a11.727,11.727,0,0,1-2.9-.567,8.866,8.866,0,0,1-2.584-1.38,9.13,9.13,0,0,1-2.195-2.549,2.6,2.6,0,0,1-.353-1.274,1.746,1.746,0,0,1,1.1-1.664,5.23,5.23,0,0,1,2.3-.531,3.44,3.44,0,0,1,1.734.39,5.665,5.665,0,0,1,1.168.884q.495.5.956.886a1.853,1.853,0,0,0,1.239.389,3.29,3.29,0,0,0,1.345-.319,4.991,4.991,0,0,0,2.124-1.77,1.866,1.866,0,0,0,.353-1.026q0-.921-1.487-1.629t-3.292-1.663a16.138,16.138,0,0,1-3.29-2.3,4.538,4.538,0,0,1-1.487-3.539,7.536,7.536,0,0,1,1.38-4.531,10.5,10.5,0,0,1,3.5-3.08,17.546,17.546,0,0,1,4.68-1.734,22.7,22.7,0,0,1,4.905-.566,17.734,17.734,0,0,1,2.706.248,13.477,13.477,0,0,1,2.956.814,8.631,8.631,0,0,1,2.378,1.416,2.609,2.609,0,0,1,.993,2.053,3.89,3.89,0,0,1-.779,2.195,2.656,2.656,0,0,1-2.344,1.133,5.517,5.517,0,0,1-3.061-1.2,1.789,1.789,0,0,0-.926-.213,4.612,4.612,0,0,0-2.174.637q-1.174.636-1.174,1.486a1.339,1.339,0,0,0,.6.991,6.054,6.054,0,0,0,2.1.92,10.13,10.13,0,0,1,4.451,3.151,6.787,6.787,0,0,1,1.46,4.141,7.4,7.4,0,0,1-.891,3.469,10.068,10.068,0,0,1-2.563,3.079,14.29,14.29,0,0,1-4.13,2.3A19.888,19.888,0,0,1,675.979,564.144Z" transform="translate(-664.793 -536.394)" fill="#7ab900"/>
          </g>
        </g>
      </g>
    </g>
    <path id="Path_11" data-name="Path 11" d="M805.661,477.07a5.961,5.961,0,0,1-2.6-.611,7.608,7.608,0,0,1-2.258-1.647,8.4,8.4,0,0,1-1.594-2.417,7.259,7.259,0,0,1-.611-2.975,14.623,14.623,0,0,1,3.533-9.616,11.862,11.862,0,0,1,3.826-2.921,10.686,10.686,0,0,1,4.7-1.063,8.267,8.267,0,0,1,3.214.611,7.483,7.483,0,0,1,2.55,1.753,8.006,8.006,0,0,1,1.7,2.815,10.878,10.878,0,0,1,.611,3.745,10.463,10.463,0,0,1-1.063,4.6,13.52,13.52,0,0,1-2.868,3.931,14.252,14.252,0,0,1-4.17,2.763A12.243,12.243,0,0,1,805.661,477.07Zm2.709-11.953a7.151,7.151,0,0,0-.531,2.55,4.038,4.038,0,0,0,.743,2.55,2.221,2.221,0,0,0,1.806.956,2.492,2.492,0,0,0,1.806-.8,6.831,6.831,0,0,0,1.328-1.912,11.112,11.112,0,0,0,.8-2.258,8.44,8.44,0,0,0,.266-1.78,4.076,4.076,0,0,0-.637-2.576,1.809,1.809,0,0,0-1.382-.77,2.6,2.6,0,0,0-1.355.4,5.438,5.438,0,0,0-1.222,1.009,8,8,0,0,0-.984,1.328A7.9,7.9,0,0,0,808.37,465.117Z" transform="translate(-158.537 -85.977)" fill="#f36f28"/>
    <path id="Path_12" data-name="Path 12" d="M406.364,419.778a3.051,3.051,0,0,0-2.123-.834,4.03,4.03,0,0,0-3.223,1.82,6.53,6.53,0,0,0-1.4,4.095,6.269,6.269,0,0,0,1.934,4.436q1.934,2.01,4.284,4.246a32.073,32.073,0,0,1,4.284,5.043,11.733,11.733,0,0,1,1.934,6.824,15.431,15.431,0,0,1-1.214,5.8,17.706,17.706,0,0,1-3.564,5.5,18.585,18.585,0,0,1-5.763,4.1,18.086,18.086,0,0,1-7.734,1.592A15.163,15.163,0,0,1,386,460.383q-3.451-2.009-6.1-7.166a4.1,4.1,0,0,1-.607-2.2,3.313,3.313,0,0,1,.493-1.782,4.728,4.728,0,0,1,1.289-1.365,6.16,6.16,0,0,1,1.783-.872,6.455,6.455,0,0,1,1.9-.3,2.756,2.756,0,0,1,2.578,1.138,11.154,11.154,0,0,0,2.92,2.2,6.148,6.148,0,0,0,2.691.682,4.06,4.06,0,0,0,3.185-1.365,4.849,4.849,0,0,0,1.213-3.337A7.49,7.49,0,0,0,396.2,442.3a10.962,10.962,0,0,0-3.791-3.639,16.034,16.034,0,0,1-5.915-6.1,15.84,15.84,0,0,1-1.9-7.469,16.953,16.953,0,0,1,4.777-11.678,18.227,18.227,0,0,1,13.346-5.459,16.1,16.1,0,0,1,6.938,1.554,12.106,12.106,0,0,1,5.346,5.118,5.033,5.033,0,0,1,.531,2.275,7.943,7.943,0,0,1-.228,1.857,5.374,5.374,0,0,1-.758,1.744,4.476,4.476,0,0,1-1.289,1.289,3.262,3.262,0,0,1-1.82.493,5.764,5.764,0,0,1-2.275-.568A10.957,10.957,0,0,1,406.364,419.778Z" transform="translate(-0.754 -67.963)" fill="#e23464"/>
    <path id="Path_13" data-name="Path 13" d="M450.534,478.876a17.418,17.418,0,0,1-5.915,1.062,13.736,13.736,0,0,1-3.677-.493,9.367,9.367,0,0,1-3.185-1.554,8.116,8.116,0,0,1-2.275-2.692,8.338,8.338,0,0,1-.872-3.98,20.381,20.381,0,0,1,1.327-7.242,21.982,21.982,0,0,1,3.564-6.256,17.958,17.958,0,0,1,5.156-4.36,12.491,12.491,0,0,1,6.18-1.63,13.113,13.113,0,0,1,3.033.341,22.157,22.157,0,0,1,2.654.8,6.776,6.776,0,0,1,2.426-1.137,12.186,12.186,0,0,1,3.109-.379,12.939,12.939,0,0,1,2.919.341,8.285,8.285,0,0,1,2.654,1.1,6.177,6.177,0,0,1,1.9,1.9,5,5,0,0,1,.72,2.73v.569a3.416,3.416,0,0,1-.076.644q-.682,3.639-1.554,7.166t-1.668,6.293q-.8,2.769-1.441,4.55a8.824,8.824,0,0,1-.872,2.009,2.943,2.943,0,0,1-1.441.682,9.773,9.773,0,0,1-2.2.228,16.23,16.23,0,0,1-3.943-.455,2.659,2.659,0,0,1-2.123-2.351,20.547,20.547,0,0,1-2.161,1.213A19.033,19.033,0,0,1,450.534,478.876Zm-1.971-13.8a10.034,10.034,0,0,0-.758,3.564,3.793,3.793,0,0,0,.8,2.579,2.557,2.557,0,0,0,2.01.91,3.994,3.994,0,0,0,1.9-.531,6.785,6.785,0,0,0,1.972-1.744q.075-2.577.19-5.043t.417-5.649h-.228a5.751,5.751,0,0,0-3.223,1.517A10.185,10.185,0,0,0,448.562,465.075Z" transform="translate(-21.57 -84.296)" fill="#7ab900"/>
    <path id="Path_14" data-name="Path 14" d="M495.03,493.367q-.608-.228-.911-2.275a36.806,36.806,0,0,1-.3-5.232q0-2.73.189-6.1t.493-6.9q.3-3.525.758-6.939t.91-6.369a17.55,17.55,0,0,1,2.388-6.937A9.043,9.043,0,0,1,502.8,449.2a19.154,19.154,0,0,1,6.37-1.137q3.753-.113,8.758-.113a8.991,8.991,0,0,1,3.374.568,6.6,6.6,0,0,1,2.313,1.517,5.834,5.834,0,0,1,1.327,2.161,7.442,7.442,0,0,1,.417,2.426,8.248,8.248,0,0,1-.455,2.692,8.576,8.576,0,0,1-1.252,2.389,6.562,6.562,0,0,1-1.857,1.706,4.438,4.438,0,0,1-2.35.645,5.917,5.917,0,0,1-2.844-.758,5.678,5.678,0,0,0-2.692-.758,2.077,2.077,0,0,0-1.4.569,4.386,4.386,0,0,0-1.023,2.313l-.3,1.365q1.365,0,2.767-.037t2.92-.038a1.534,1.534,0,0,1,1.4.91,4.923,4.923,0,0,1,.493,2.351,8.451,8.451,0,0,1-.266,2.047,5.318,5.318,0,0,1-2.388,3.3,3.929,3.929,0,0,1-2.123.568H511.37q-1.25,0-2.388-.076-.836,3.563-1.63,7.014t-1.478,6.218q-.683,2.767-1.214,4.55a7.6,7.6,0,0,1-.758,2.01,2.915,2.915,0,0,1-1.4.682,8.951,8.951,0,0,1-2.086.227,14.916,14.916,0,0,1-2.995-.3A7.968,7.968,0,0,1,495.03,493.367Z" transform="translate(-43.849 -83.015)" fill="#fcd306"/>
    <path id="Path_15" data-name="Path 15" d="M556.543,477.761a8.511,8.511,0,0,1-3.715-.873,10.888,10.888,0,0,1-3.223-2.35,11.982,11.982,0,0,1-2.275-3.45,10.365,10.365,0,0,1-.872-4.246,21.342,21.342,0,0,1,1.289-7.393,19.416,19.416,0,0,1,3.564-6.142,17.658,17.658,0,0,1,5.308-4.171,14.1,14.1,0,0,1,6.521-1.554A15.294,15.294,0,0,1,566.7,448a9.559,9.559,0,0,1,3.109,1.327,7.521,7.521,0,0,1,2.237,2.313,6.266,6.266,0,0,1,.873,3.374,7.793,7.793,0,0,1-1.024,4.019,9.285,9.285,0,0,1-2.691,2.919,12.444,12.444,0,0,1-3.792,1.782,15.361,15.361,0,0,1-4.246.607h-.758a3.855,3.855,0,0,1-.758-.075,5.789,5.789,0,0,0,1.1,3.677,3.241,3.241,0,0,0,2.616,1.4,2.085,2.085,0,0,0,1.176-.379,11.633,11.633,0,0,0,1.1-.834c.352-.3.707-.581,1.061-.835a1.822,1.822,0,0,1,1.062-.379,2.23,2.23,0,0,1,1.554.682,2.389,2.389,0,0,1,.72,1.819,4.982,4.982,0,0,1-.986,2.692,10.552,10.552,0,0,1-2.767,2.73A16.541,16.541,0,0,1,562,476.927,17.2,17.2,0,0,1,556.543,477.761Zm10.616-22.6a.988.988,0,0,0-.91-.531,2.717,2.717,0,0,0-1.365.455,9.946,9.946,0,0,0-2.768,2.5,6.7,6.7,0,0,0-.8,1.289,4.034,4.034,0,0,0,.909.076,6.056,6.056,0,0,0,1.782-.265,7.252,7.252,0,0,0,1.631-.721,4.475,4.475,0,0,0,1.213-1.023,1.86,1.86,0,0,0,.455-1.175A2.528,2.528,0,0,0,567.159,455.164Z" transform="translate(-63.658 -82.877)" fill="#f36f28"/>
    <path id="Path_16" data-name="Path 16" d="M618.193,461.035a5.9,5.9,0,0,1-2.351,2.16,6.762,6.762,0,0,1-3.184.8,6.285,6.285,0,0,1-3.64-1.214,7.157,7.157,0,0,1-2.578-4.019q-.836-2.653-1.934-6.559t-2.275-8.3q-1.177-4.4-2.275-8.986t-2.01-8.568q-.91-3.981-1.441-7.014a28.834,28.834,0,0,1-.531-4.4,4.2,4.2,0,0,1,.682-1.63,12.161,12.161,0,0,1,1.933-2.427,13.247,13.247,0,0,1,3.071-2.237,8.312,8.312,0,0,1,4.019-.985,6.7,6.7,0,0,1,2.464.493,6.823,6.823,0,0,1,2.313,1.555,12.61,12.61,0,0,1,1.327,3.185q.87,2.655,1.782,6.331t1.706,7.848q.8,4.171,1.25,7.659,1.44-3.488,3.526-7.621t4.095-7.773q2.008-3.639,3.639-6.293a14.658,14.658,0,0,1,2.237-3.109,9.225,9.225,0,0,1,2.843-1.592,8.513,8.513,0,0,1,2.616-.455,6.857,6.857,0,0,1,3.109.72,8.814,8.814,0,0,1,2.426,1.744,9.143,9.143,0,0,1,1.554,2.123,4.237,4.237,0,0,1,.569,1.857,14.447,14.447,0,0,1-1.441,3.868q-1.441,3.11-3.753,7.582t-5.157,9.706q-2.843,5.233-5.611,10.161t-5.194,9.061Q619.557,458.836,618.193,461.035Z" transform="translate(-82.291 -67.852)" fill="#952275"/>
    <path id="Path_17" data-name="Path 17" d="M667.065,452.813q.151-1.289,2.048-2.01a12.109,12.109,0,0,1,4.322-.721,13.5,13.5,0,0,1,2.958.341,9.477,9.477,0,0,1,2.691,1.024,5.936,5.936,0,0,1,1.933,1.782,4.633,4.633,0,0,1,.758,2.691v.607a2.552,2.552,0,0,1-.075.607q-.683,3.639-1.554,7.128t-1.668,6.294q-.8,2.806-1.479,4.587a9.33,9.33,0,0,1-.91,2.01,2.917,2.917,0,0,1-1.4.682,9.315,9.315,0,0,1-2.161.227,14.542,14.542,0,0,1-2.919-.3,8,8,0,0,1-2.389-.834q-.683-.227-.948-2.237a41.1,41.1,0,0,1-.265-5.194q0-3.487.265-7.847T667.065,452.813Z" transform="translate(-108.642 -83.818)" fill="#0f9ce9"/>
    <path id="Path_18" data-name="Path 18" d="M704.688,466.854a10.315,10.315,0,0,1-3.753-.72,10.666,10.666,0,0,1-3.3-2.01,9.619,9.619,0,0,1-3.185-7.28,20.7,20.7,0,0,1,1.327-7.43,20.077,20.077,0,0,1,3.6-6.1,17.135,17.135,0,0,1,5.308-4.133,14.373,14.373,0,0,1,6.52-1.517,17,17,0,0,1,2.54.19,12.41,12.41,0,0,1,2.313.569q.3-2.8.72-5.422t.834-4.663q.414-2.047.833-3.45a4.659,4.659,0,0,1,.873-1.857,7.253,7.253,0,0,1,2.805-2.123,7.939,7.939,0,0,1,2.958-.607,8.217,8.217,0,0,1,3.715.8,10.8,10.8,0,0,1,2.693,1.858,8.317,8.317,0,0,1,1.63,2.085,3.858,3.858,0,0,1,.53,1.479,35.56,35.56,0,0,1-.568,5.081q-.57,3.488-1.479,7.734t-1.972,8.833q-1.064,4.59-2.047,8.455t-1.745,6.445a11.377,11.377,0,0,1-1.062,2.881,2.954,2.954,0,0,1-1.44.682,9.819,9.819,0,0,1-2.2.227q-1.139,0-2.161-.076a6.073,6.073,0,0,1-1.857-.417,3.446,3.446,0,0,1-2.2-2.767l-.075.076a20.382,20.382,0,0,1-4.436,2.35A16.62,16.62,0,0,1,704.688,466.854ZM708.4,450.7a9.045,9.045,0,0,0-.758,3.488,4.739,4.739,0,0,0,1.023,3.222,3.155,3.155,0,0,0,2.464,1.176,3.7,3.7,0,0,0,1.668-.417,5.478,5.478,0,0,0,1.669-1.4l.152-.227q.073-2.577.228-5.5t.455-5.952l-.379-.228h-.38a5.5,5.5,0,0,0-3.146,1.478A10.205,10.205,0,0,0,708.4,450.7Z" transform="translate(-119.348 -72.61)" fill="#7ab900"/>
    <path id="Path_19" data-name="Path 19" d="M763.62,477.951a8.515,8.515,0,0,1-3.715-.872,10.879,10.879,0,0,1-3.223-2.351,11.959,11.959,0,0,1-2.275-3.45,10.361,10.361,0,0,1-.873-4.247,21.344,21.344,0,0,1,1.289-7.393,19.4,19.4,0,0,1,3.564-6.142,17.638,17.638,0,0,1,5.308-4.171,14.094,14.094,0,0,1,6.521-1.555,15.329,15.329,0,0,1,3.563.417,9.577,9.577,0,0,1,3.11,1.327,7.527,7.527,0,0,1,2.237,2.313A6.274,6.274,0,0,1,780,455.2a7.789,7.789,0,0,1-1.024,4.018,9.27,9.27,0,0,1-2.693,2.92,12.452,12.452,0,0,1-3.79,1.782,15.384,15.384,0,0,1-4.246.607h-.758a3.816,3.816,0,0,1-.759-.076,5.787,5.787,0,0,0,1.1,3.677,3.241,3.241,0,0,0,2.616,1.4,2.091,2.091,0,0,0,1.176-.379,11.766,11.766,0,0,0,1.1-.834c.353-.3.708-.581,1.061-.835a1.818,1.818,0,0,1,1.063-.379,2.227,2.227,0,0,1,1.552.682,2.388,2.388,0,0,1,.722,1.82,4.983,4.983,0,0,1-.987,2.692,10.567,10.567,0,0,1-2.767,2.73,16.538,16.538,0,0,1-4.284,2.085A17.184,17.184,0,0,1,763.62,477.951Zm10.615-22.6a.985.985,0,0,0-.909-.531,2.712,2.712,0,0,0-1.365.455,9.959,9.959,0,0,0-2.768,2.5,6.636,6.636,0,0,0-.8,1.29,4.034,4.034,0,0,0,.91.075,6.053,6.053,0,0,0,1.781-.266,7.238,7.238,0,0,0,1.63-.72,4.5,4.5,0,0,0,1.214-1.023,1.871,1.871,0,0,0,.455-1.175A2.457,2.457,0,0,0,774.234,455.355Z" transform="translate(-141.581 -82.949)" fill="#fcd306"/>
    <path id="Path_20" data-name="Path 20" d="M679.692,418.468l2.375,4.813,5.311.772-3.843,3.746.907,5.289-4.75-2.5-4.75,2.5.907-5.289-3.843-3.746,5.311-.772Z" transform="translate(-110.902 -71.922)" fill="#0f9ce9"/>
    <path id="Path_21" data-name="Path 21" d="M732.2,272.15l-9.99,7.231,4.736,45.855,11.257,5.036A13.822,13.822,0,0,0,757.6,316.235l-3.544-34.31A13.821,13.821,0,0,0,732.2,272.15Z" transform="translate(-129.793 -15.868)" fill="#e23464"/>
    <path id="Path_22" data-name="Path 22" d="M707.641,293.812l3.584,34.7,5.342,2.39-4.185-40.519Z" transform="translate(-124.311 -23.723)" fill="#1a1a1a"/>
    <path id="Path_23" data-name="Path 23" d="M491.623,290.875l-.814,56.509c-.121,10.181,8.56,18.037,17.934,16.227l104.693-20.2c7.713-1.489,12.977-9.067,12.091-17.406l-6.379-48.23c-.949-8.917-8.545-15.381-16.879-14.361l-97.5,11.925C497.324,276.246,491.718,282.873,491.623,290.875Z" transform="translate(-42.717 -13.534)" fill="#1a1a1a"/>
    <path id="Path_24" data-name="Path 24" d="M500.221,300.447l-1.066,46.213a13.778,13.778,0,0,0,16.311,13.813l95.9-17.955a13.778,13.778,0,0,0,11.165-15l-5.564-39.069a13.778,13.778,0,0,0-15.357-12.218L512.34,287.039A13.778,13.778,0,0,0,500.221,300.447Z" transform="translate(-45.857 -18.359)" fill="#e23464"/>
    <path id="Path_25" data-name="Path 25" d="M622.041,343.059c.43,9.074-2.684,13.332-9.75,14.655l-97.321,18.3A13.778,13.778,0,0,1,498.66,362.2l1.127-44.1Z" transform="translate(-45.671 -34.154)" fill="#952275" opacity="0.34"/>
    <circle id="Ellipse_1" data-name="Ellipse 1" cx="17.991" cy="17.991" r="17.991" transform="translate(521.077 227.817)" fill="url(#linear-gradient)"/>
    <circle id="Ellipse_2" data-name="Ellipse 2" cx="17.702" cy="17.702" r="17.702" transform="translate(470.822 237.215)" fill="url(#linear-gradient-2)"/>
    <path id="Path_26" data-name="Path 26" d="M529.282,265.053a17.686,17.686,0,0,1,29.61-14.808,17.688,17.688,0,1,0-25.907,23.918A17.6,17.6,0,0,1,529.282,265.053Z" transform="translate(-56.442 -6.071)" fill="#1a1a1a"/>
    <path id="Path_27" data-name="Path 27" d="M641.612,240.224a18.009,18.009,0,0,0-33.474,2.928,18.011,18.011,0,0,1,34.046-5.7,17.631,17.631,0,0,1,1,12.554A17.584,17.584,0,0,0,641.612,240.224Z" transform="translate(-86.868)" fill="#1a1a1a"/>
    <circle id="Ellipse_3" data-name="Ellipse 3" cx="6.38" cy="6.38" r="6.38" transform="translate(483.446 251.474)" fill="#1a1a1a"/>
    <circle id="Ellipse_4" data-name="Ellipse 4" cx="6.257" cy="6.257" r="6.257" transform="translate(532.022 244.987)" fill="#1a1a1a"/>
    <path id="Path_28" data-name="Path 28" d="M546.52,340.021s20.33,29.951,45.069,17.89,23.568-25.938,23.568-25.938S593.317,363.627,546.52,340.021Z" transform="translate(-63.681 -39.374)" fill="#eecdd6"/>
    <g id="Group_31" data-name="Group 31" transform="translate(480.61 290.373)">
      <g id="Group_27" data-name="Group 27" transform="translate(31.435 17.444)">
        <g id="Group_25" data-name="Group 25" transform="translate(0.288 0.288)">
          <path id="Path_29" data-name="Path 29" d="M596.8,362.348l-1.063.037a1.742,1.742,0,0,1-1.8-1.68l-.128-3.713,4.544-.157.128,3.713A1.741,1.741,0,0,1,596.8,362.348Z" transform="translate(-593.81 -356.834)" fill="#fff"/>
        </g>
        <g id="Group_26" data-name="Group 26">
          <path id="Path_30" data-name="Path 30" d="M596.777,362.443c-.046,0-.092.008-.139.01l-1.063.037a2.02,2.02,0,0,1-2.089-1.95l-.138-3.991,5.1-.176.138,3.992A2.022,2.022,0,0,1,596.777,362.443Zm-.158-.547a1.46,1.46,0,0,0,1.411-1.512l-.119-3.435-3.987.138.118,3.435a1.462,1.462,0,0,0,1.513,1.411Z" transform="translate(-593.348 -356.372)" fill="#33111f"/>
        </g>
      </g>
      <g id="Group_30" data-name="Group 30" transform="translate(35.616 17.3)">
        <g id="Group_28" data-name="Group 28" transform="translate(0.288 0.288)">
          <path id="Path_31" data-name="Path 31" d="M603.506,362.116l-1.064.037a1.741,1.741,0,0,1-1.8-1.68l-.129-3.713,4.544-.157.128,3.713A1.741,1.741,0,0,1,603.506,362.116Z" transform="translate(-600.513 -356.603)" fill="#fff"/>
        </g>
        <g id="Group_29" data-name="Group 29">
          <path id="Path_32" data-name="Path 32" d="M603.481,362.211c-.046.005-.093.008-.14.01l-1.063.037a2.02,2.02,0,0,1-2.089-1.949l-.138-3.992,5.1-.176.137,3.991A2.022,2.022,0,0,1,603.481,362.211Zm-2.853-5.356.118,3.434a1.464,1.464,0,0,0,1.513,1.411l1.063-.037a1.475,1.475,0,0,0,1.411-1.512l-.119-3.434Z" transform="translate(-600.051 -356.141)" fill="#33111f"/>
        </g>
      </g>
      <path id="Path_33" data-name="Path 33" d="M614.389,328.479a2.231,2.231,0,0,0-2.408.881,42.456,42.456,0,0,1-29.115,15.58c-11.2,1.156-23.539-1.62-36.687-8.253a2.229,2.229,0,0,0-2.848,3.242c.661.973,16.414,23.792,37.814,21.581a30.007,30.007,0,0,0,10.077-2.939c25.815-12.584,24.866-27.5,24.813-28.129A2.227,2.227,0,0,0,614.389,328.479Zm-24.145,28.088c-24.74,12.06-45.069-17.89-45.069-17.89,46.8,23.606,68.638-8.048,68.638-8.048S614.984,344.508,590.245,356.568Z" transform="translate(-542.947 -328.403)" fill="#1a1a1a"/>
    </g>
  </g>
</svg>
