<svg xmlns="http://www.w3.org/2000/svg" width="133" height="30" viewBox="0 0 133 30">
  <g id="Group_41" data-name="Group 41" transform="translate(-130 -385)">
    <g id="Group_40" data-name="Group 40" transform="translate(60 -29)">
      <g id="Group_36" data-name="Group 36" transform="translate(-8 3)">
        <g id="Group_35" data-name="Group 35" transform="translate(0 27)">
          <text id="Premium" transform="translate(93 404)" fill="#fff" font-size="14" font-family="Nunito-Regular, Nunito"><tspan x="0" y="0">Premium</tspan></text>
        </g>
        <path id="Icon_awesome-crown" data-name="Icon awesome-crown" d="M20.925,17.363H4.439a.629.629,0,0,0-.634.62v1.24a.629.629,0,0,0,.634.62H20.925a.629.629,0,0,0,.634-.62v-1.24A.629.629,0,0,0,20.925,17.363Zm2.536-12.4a1.882,1.882,0,0,0-1.9,1.86,1.789,1.789,0,0,0,.174.767L18.864,9.27a1.282,1.282,0,0,1-1.752-.45l-3.23-5.527a1.837,1.837,0,0,0,.7-1.434,1.9,1.9,0,0,0-3.8,0,1.837,1.837,0,0,0,.7,1.434L8.251,8.821A1.283,1.283,0,0,1,6.5,9.27L3.634,7.588a1.835,1.835,0,0,0,.174-.767,1.882,1.882,0,0,0-1.9-1.86,1.861,1.861,0,1,0,0,3.721,1.985,1.985,0,0,0,.305-.031l2.865,7.472H20.291L23.156,8.65a1.985,1.985,0,0,0,.305.031,1.861,1.861,0,1,0,0-3.721Z" transform="translate(171.446 417.067)" fill="#fff"/>
      </g>
      <g id="Rectangle_2" data-name="Rectangle 2" transform="translate(70 414)" fill="none" stroke="#fff" stroke-width="1">
        <rect width="133" height="30" rx="2" stroke="none"/>
        <rect x="0.5" y="0.5" width="132" height="29" rx="1.5" fill="none"/>
      </g>
    </g>
  </g>
</svg>
