<svg xmlns="http://www.w3.org/2000/svg" xmlns:xlink="http://www.w3.org/1999/xlink" width="414" height="896" viewBox="0 0 414 896">
  <defs>
    <clipPath id="clip-path">
      <rect id="crop" width="993.2" height="1001.305" transform="matrix(0.995, 0.105, -0.105, 0.995, -25.947, 1611.834)" fill="none"/>
    </clipPath>
    <clipPath id="clip-path-2">
      <rect id="Rectangle_1496" data-name="Rectangle 1496" width="993.2" height="1001.306" fill="none"/>
    </clipPath>
    <clipPath id="clip-path-3">
      <rect id="Rectangle_1495" data-name="Rectangle 1495" width="995.917" height="1004.045" fill="none"/>
    </clipPath>
    <filter id="Path_1" x="170" y="499" width="52.159" height="65.041" filterUnits="userSpaceOnUse">
      <feOffset dy="3" input="SourceAlpha"/>
      <feGaussianBlur stdDeviation="3" result="blur"/>
      <feFlood flood-opacity="0.161"/>
      <feComposite operator="in" in2="blur"/>
      <feComposite in="SourceGraphic"/>
    </filter>
    <filter id="Path_2" x="199" y="505" width="33.464" height="58.032" filterUnits="userSpaceOnUse">
      <feOffset dy="3" input="SourceAlpha"/>
      <feGaussianBlur stdDeviation="3" result="blur-2"/>
      <feFlood flood-opacity="0.161"/>
      <feComposite operator="in" in2="blur-2"/>
      <feComposite in="SourceGraphic"/>
    </filter>
    <filter id="Path_3" x="215.384" y="509.867" width="47.679" height="53.257" filterUnits="userSpaceOnUse">
      <feOffset dy="3" input="SourceAlpha"/>
      <feGaussianBlur stdDeviation="3" result="blur-3"/>
      <feFlood flood-opacity="0.161"/>
      <feComposite operator="in" in2="blur-3"/>
      <feComposite in="SourceGraphic"/>
    </filter>
    <filter id="Path_4" x="245" y="521.688" width="41.49" height="42.813" filterUnits="userSpaceOnUse">
      <feOffset dy="3" input="SourceAlpha"/>
      <feGaussianBlur stdDeviation="3" result="blur-4"/>
      <feFlood flood-opacity="0.161"/>
      <feComposite operator="in" in2="blur-4"/>
      <feComposite in="SourceGraphic"/>
    </filter>
    <filter id="Path_5" x="311.358" y="468.061" width="36.474" height="37.496" filterUnits="userSpaceOnUse">
      <feOffset dy="3" input="SourceAlpha"/>
      <feGaussianBlur stdDeviation="3" result="blur-5"/>
      <feFlood flood-opacity="0.161"/>
      <feComposite operator="in" in2="blur-5"/>
      <feComposite in="SourceGraphic"/>
    </filter>
    <filter id="Path_8" x="157" y="463" width="45.655" height="56.968" filterUnits="userSpaceOnUse">
      <feOffset dy="3" input="SourceAlpha"/>
      <feGaussianBlur stdDeviation="3" result="blur-6"/>
      <feFlood flood-opacity="0.161"/>
      <feComposite operator="in" in2="blur-6"/>
      <feComposite in="SourceGraphic"/>
    </filter>
    <filter id="Path_9" x="183.583" y="464.523" width="41.889" height="45.241" filterUnits="userSpaceOnUse">
      <feOffset dy="3" input="SourceAlpha"/>
      <feGaussianBlur stdDeviation="3" result="blur-7"/>
      <feFlood flood-opacity="0.161"/>
      <feComposite operator="in" in2="blur-7"/>
      <feComposite in="SourceGraphic"/>
    </filter>
    <filter id="Path_10" x="206" y="451" width="59.84" height="60.974" filterUnits="userSpaceOnUse">
      <feOffset dy="3" input="SourceAlpha"/>
      <feGaussianBlur stdDeviation="3" result="blur-8"/>
      <feFlood flood-opacity="0.161"/>
      <feComposite operator="in" in2="blur-8"/>
      <feComposite in="SourceGraphic"/>
    </filter>
    <filter id="Path_12" x="258" y="449" width="52.611" height="59.114" filterUnits="userSpaceOnUse">
      <feOffset dy="3" input="SourceAlpha"/>
      <feGaussianBlur stdDeviation="3" result="blur-9"/>
      <feFlood flood-opacity="0.161"/>
      <feComposite operator="in" in2="blur-9"/>
      <feComposite in="SourceGraphic"/>
    </filter>
    <filter id="Path_13" x="289" y="463" width="42.249" height="45.655" filterUnits="userSpaceOnUse">
      <feOffset dy="3" input="SourceAlpha"/>
      <feGaussianBlur stdDeviation="3" result="blur-10"/>
      <feFlood flood-opacity="0.161"/>
      <feComposite operator="in" in2="blur-10"/>
      <feComposite in="SourceGraphic"/>
    </filter>
    <filter id="Path_11" x="244" y="465" width="32.276" height="43.327" filterUnits="userSpaceOnUse">
      <feOffset dy="3" input="SourceAlpha"/>
      <feGaussianBlur stdDeviation="3" result="blur-11"/>
      <feFlood flood-opacity="0.161"/>
      <feComposite operator="in" in2="blur-11"/>
      <feComposite in="SourceGraphic"/>
    </filter>
    <filter id="Path_14" x="246" y="451" width="33.022" height="32.286" filterUnits="userSpaceOnUse">
      <feOffset dy="3" input="SourceAlpha"/>
      <feGaussianBlur stdDeviation="3" result="blur-12"/>
      <feFlood flood-opacity="0.161"/>
      <feComposite operator="in" in2="blur-12"/>
      <feComposite in="SourceGraphic"/>
    </filter>
    <linearGradient id="linear-gradient" x1="0.5" y1="0.187" x2="0.5" y2="0.943" gradientUnits="objectBoundingBox">
      <stop offset="0" stop-color="#fff"/>
      <stop offset="1" stop-color="#e3e3e3"/>
    </linearGradient>
    <linearGradient id="linear-gradient-2" y1="0.073" y2="0.841" xlink:href="#linear-gradient"/>
    <clipPath id="clip-splash_screen_01">
      <rect width="414" height="896"/>
    </clipPath>
  </defs>
  <g id="splash_screen_01" data-name="splash screen 01" clip-path="url(#clip-splash_screen_01)">
    <rect width="414" height="896" fill="#fff"/>
    <g id="Vector_Smart_Object" data-name="Vector Smart Object" transform="translate(-260 -1730.67)" clip-path="url(#clip-path)">
      <g id="Group_318" data-name="Group 318" transform="translate(-49 1661)">
        <g id="Group_317" data-name="Group 317" transform="translate(0 0)" clip-path="url(#clip-path-2)">
          <g id="Group_274" data-name="Group 274" transform="translate(-2.508 -0.54)">
            <g id="Group_273" data-name="Group 273" clip-path="url(#clip-path-3)">
              <path id="Path_134" data-name="Path 134" d="M0,0H995.917V1004.045H0Z" fill="#f9f232"/>
              <g id="Group_272" data-name="Group 272" transform="translate(-339.413 -347.853)">
                <g id="Group_248" data-name="Group 248" transform="translate(772.382)">
                  <path id="Path_37" data-name="Path 37" d="M1233.983-990.639C1537.132-469.03,1422-303.932,1304.6-140.763c136.584-145.144,272.481-291.055,45.858-840.916Q1292.541-986.395,1233.983-990.639Z" transform="translate(-1233.983 990.639)" fill="#33e1ff"/>
                </g>
                <g id="Group_249" data-name="Group 249" transform="translate(604.477 37.364)">
                  <path id="Path_38" data-name="Path 38" d="M752.656-851.652C927.12-657.75,1012.131-506.306,1036.3-383.74c25.511,123.2-9.815,217.526-45.128,311.856,47.185-88.017,94.374-176.031,85.286-300.7-8.589-124.34-73.455-285.332-238.881-511.816A890.371,890.371,0,0,1,752.656-851.652Z" transform="translate(-752.656 884.395)" fill="#33e1ff"/>
                </g>
                <g id="Group_250" data-name="Group 250" transform="translate(477.449 125.533)">
                  <path id="Path_39" data-name="Path 39" d="M388.511-588.5C470.81-522.49,541.7-458.552,597.3-397.391c55.8,61.2,96.3,119.617,122.38,175.416,26.272,55.835,38.11,109.049,41.093,160.654,3.181,51.641-2.495,101.674-6.714,151.972,22.781-97.394,45.583-194.781,7.07-312.09C724.815-338.032,627.187-474.547,459.909-633.692,439.074-616.483,415.6-601.833,388.511-588.5Z" transform="translate(-388.511 633.692)" fill="#33e1ff"/>
                </g>
                <g id="Group_251" data-name="Group 251" transform="translate(328.668 229.212)">
                  <path id="Path_40" data-name="Path 40" d="M-37.992-279.957c91.083,42.739,173.083,86.245,240.725,130.964Q304.527-81.944,363.278-11.259c39.4,47.1,64.472,95.416,80.545,144.49,16.293,49.055,23.587,98.87,32.512,148.547-2.257-50.048-2.911-100.015-12.382-150.427-9.254-50.4-27.325-101.246-59.42-152.8Q356.716-98.76,266.815-178.193C207.1-231.138,133.344-284.79,50.764-338.886,26.047-319.3-3.5-300.314-37.992-279.957Z" transform="translate(37.992 338.886)" fill="#33e1ff"/>
                </g>
                <g id="Group_252" data-name="Group 252" transform="translate(152.193 365.945)">
                  <path id="Path_41" data-name="Path 41" d="M-543.886,143.51C-304.5,163.5-140.678,210.889-39.159,280.883,64.4,350.138,105.647,441.992,146.917,533.839,118.271,438.026,89.652,342.206-1.062,259.85-88.929,176.877-238.889,107.367-444.433,49.909-474.2,78.626-507.639,109.384-543.886,143.51Z" transform="translate(543.886 -49.909)" fill="#33e1ff"/>
                </g>
                <g id="Group_253" data-name="Group 253" transform="translate(21.259 558.772)">
                  <path id="Path_42" data-name="Path 42" d="M-919.23,730.536C-639.1,656.723-463.2,655.907-343.8,694.663c119.767,38.5,183.035,116.573,246.305,194.643-52.081-85.171-104.152-170.347-215.04-225.129C-422.357,608.844-591,583.9-851.651,606.51-873.684,645.7-896.474,686.989-919.23,730.536Z" transform="translate(919.23 -598.202)" fill="#33e1ff"/>
                </g>
                <g id="Group_254" data-name="Group 254" transform="translate(0 681.456)">
                  <path id="Path_43" data-name="Path 43" d="M-980.172,1186.659c517.386-305.623,681.149-189.548,843-71.191-143.969-137.7-288.7-274.7-834.109-46.232Q-975.962,1127.623-980.172,1186.659Z" transform="translate(980.172 -947.047)" fill="#33e1ff"/>
                </g>
                <g id="Group_255" data-name="Group 255" transform="translate(37.062 762.753)">
                  <path id="Path_44" data-name="Path 44" d="M-841.45,1505.8c192.332-175.887,342.55-261.591,464.124-285.963,122.2-25.719,215.766,9.9,309.332,45.5-87.3-47.569-174.6-95.143-298.261-85.982-123.333,8.66-283.021,74.055-507.673,240.832A906.434,906.434,0,0,1-841.45,1505.8Z" transform="translate(873.928 -1178.212)" fill="#33e1ff"/>
                </g>
                <g id="Group_256" data-name="Group 256" transform="translate(124.517 821.858)">
                  <path id="Path_45" data-name="Path 45" d="M-578.4,1742.824c65.475-82.97,128.9-154.438,189.561-210.492,60.7-56.252,118.65-97.091,174-123.378,55.383-26.486,108.165-38.422,159.354-41.43,51.223-3.207,100.851,2.515,150.741,6.769-96.605-22.967-193.2-45.955-309.563-7.128-115.65,36.61-251.06,135.034-408.916,303.679C-606.155,1691.849-591.623,1715.516-578.4,1742.824Z" transform="translate(623.224 -1346.276)" fill="#33e1ff"/>
                </g>
                <g id="Group_257" data-name="Group 257" transform="translate(227.356 849.876)">
                  <path id="Path_46" data-name="Path 46" d="M-269.966,1944.468c42.392-91.827,85.546-174.5,129.9-242.689q66.507-102.625,136.62-161.857c46.722-39.72,94.645-65,143.321-81.2,48.657-16.426,98.069-23.779,147.343-32.778-49.643,2.275-99.205,2.936-149.209,12.484-49.993,9.329-100.427,27.547-151.562,59.905q-76.686,48.208-155.476,138.842c-52.516,60.207-105.733,134.56-159.393,217.813C-308.99,1879.907-290.159,1909.7-269.966,1944.468Z" transform="translate(328.419 -1425.943)" fill="#33e1ff"/>
                </g>
                <g id="Group_258" data-name="Group 258" transform="translate(362.983 849.876)">
                  <path id="Path_47" data-name="Path 47" d="M153.219,2122.383c19.825-241.337,66.835-406.5,136.261-508.845,68.695-104.4,159.805-145.989,250.908-187.6-95.038,28.879-190.081,57.732-271.77,149.187-82.3,88.583-151.249,239.769-208.243,446.989C88.862,2052.125,119.37,2085.841,153.219,2122.383Z" transform="translate(-60.376 -1425.943)" fill="#33e1ff"/>
                </g>
                <g id="Group_259" data-name="Group 259" transform="translate(554.249 849.876)">
                  <path id="Path_48" data-name="Path 48" d="M739.934,2254.387c-73.215-282.412-74.024-459.751-35.582-580.128,38.189-120.745,115.629-184.529,193.066-248.316-84.48,52.506-168.967,105-223.307,216.794-54.885,110.721-79.622,280.739-57.2,543.518C655.781,2208.468,696.74,2231.444,739.934,2254.387Z" transform="translate(-608.672 -1425.943)" fill="#33e1ff"/>
                </g>
                <g id="Group_260" data-name="Group 260" transform="translate(675.939 849.876)">
                  <path id="Path_49" data-name="Path 49" d="M1195.187,2275.818c-303.149-521.609-188.014-686.707-70.615-849.876C987.988,1571.088,852.091,1717,1078.715,2266.859Q1136.629,2271.573,1195.187,2275.818Z" transform="translate(-957.516 -1425.943)" fill="#33e1ff"/>
                </g>
                <g id="Group_261" data-name="Group 261" transform="translate(756.579 849.876)">
                  <path id="Path_50" data-name="Path 50" d="M1513.618,2205.711c-174.463-193.9-259.474-345.345-283.647-467.913-25.511-123.2,9.815-217.525,45.127-311.856-47.184,88.017-94.373,176.031-85.285,300.7,8.59,124.34,73.455,285.332,238.882,511.816A890.351,890.351,0,0,1,1513.618,2205.711Z" transform="translate(-1188.681 -1425.943)" fill="#33e1ff"/>
                </g>
                <g id="Group_262" data-name="Group 262" transform="translate(815.206 849.876)">
                  <path id="Path_51" data-name="Path 51" d="M1750.084,2105.094c-82.3-66.01-153.188-129.948-208.788-191.109-55.8-61.2-96.3-119.617-122.38-175.416-26.271-55.835-38.11-109.049-41.093-160.654-3.181-51.641,2.494-101.674,6.713-151.972-22.78,97.395-45.582,194.782-7.069,312.091,36.313,116.593,133.941,253.107,301.219,412.252C1699.521,2133.077,1723,2118.426,1750.084,2105.094Z" transform="translate(-1356.746 -1425.943)" fill="#33e1ff"/>
                </g>
                <g id="Group_263" data-name="Group 263" transform="translate(842.996 849.876)">
                  <path id="Path_52" data-name="Path 52" d="M1950.738,1987.677c-91.083-42.739-173.083-86.245-240.725-130.964q-101.794-67.05-160.545-137.734c-39.4-47.1-64.472-95.417-80.545-144.491-16.294-49.055-23.587-98.87-32.513-148.547,2.258,50.049,2.912,100.016,12.383,150.427,9.254,50.4,27.325,101.246,59.42,152.8q47.818,77.312,137.718,156.745c59.719,52.946,133.471,106.6,216.051,160.695C1886.7,2027.02,1916.249,2008.034,1950.738,1987.677Z" transform="translate(-1436.41 -1425.943)" fill="#33e1ff"/>
                </g>
                <g id="Group_264" data-name="Group 264" transform="translate(842.996 849.876)">
                  <path id="Path_53" data-name="Path 53" d="M2127.213,1816.273c-239.384-19.987-403.208-67.38-504.726-137.374-103.556-69.255-144.807-161.109-186.077-252.957,28.647,95.813,57.266,191.633,147.98,273.989,87.865,82.973,237.827,152.484,443.37,209.942C2057.523,1881.156,2090.967,1850.4,2127.213,1816.273Z" transform="translate(-1436.41 -1425.943)" fill="#33e1ff"/>
                </g>
                <g id="Group_265" data-name="Group 265" transform="translate(842.996 849.876)">
                  <path id="Path_54" data-name="Path 54" d="M2258.147,1584.713c-280.126,73.813-456.029,74.628-575.432,35.872-119.768-38.5-183.035-116.573-246.306-194.643,52.081,85.171,104.153,170.347,215.041,225.129,109.823,55.333,278.465,80.273,539.118,57.667C2212.6,1669.552,2235.392,1628.259,2258.147,1584.713Z" transform="translate(-1436.41 -1425.943)" fill="#33e1ff"/>
                </g>
                <g id="Group_266" data-name="Group 266" transform="translate(842.996 778.684)">
                  <path id="Path_55" data-name="Path 55" d="M2279.406,1223.513c-517.386,305.624-681.148,189.549-843,71.191,143.97,137.7,288.7,274.7,834.11,46.232Q2275.2,1282.55,2279.406,1223.513Z" transform="translate(-1436.41 -1223.513)" fill="#33e1ff"/>
                </g>
                <g id="Group_267" data-name="Group 267" transform="translate(842.996 609.41)">
                  <path id="Path_56" data-name="Path 56" d="M2209.866,742.189c-192.332,175.887-342.55,261.592-464.124,285.963-122.2,25.719-215.766-9.895-309.333-45.5,87.3,47.569,174.606,95.143,298.262,85.982,123.333-8.659,283.021-74.054,507.672-240.832A906.3,906.3,0,0,1,2209.866,742.189Z" transform="translate(-1436.41 -742.189)" fill="#33e1ff"/>
                </g>
                <g id="Group_268" data-name="Group 268" transform="translate(842.996 481.345)">
                  <path id="Path_57" data-name="Path 57" d="M2110.064,378.043c-65.476,82.971-128.9,154.438-189.562,210.491-60.7,56.252-118.649,97.091-174,123.38-55.383,26.486-108.165,38.421-159.354,41.428-51.223,3.206-100.851-2.515-150.742-6.769,96.606,22.967,193.206,45.955,309.564,7.128,115.65-36.609,251.06-135.034,408.915-303.678C2137.82,429.019,2123.288,405.351,2110.064,378.043Z" transform="translate(-1436.41 -378.043)" fill="#33e1ff"/>
                </g>
                <g id="Group_269" data-name="Group 269" transform="translate(842.996 331.35)">
                  <path id="Path_58" data-name="Path 58" d="M1993.6-48.462c-42.392,91.827-85.546,174.5-129.9,242.69q-66.507,102.624-136.62,161.857c-46.722,39.721-94.645,65-143.321,81.2-48.656,16.426-98.069,23.78-147.344,32.778,49.643-2.276,99.206-2.935,149.21-12.484,49.993-9.329,100.427-27.547,151.562-59.9q76.685-48.209,155.476-138.843c52.516-60.206,105.734-134.559,159.393-217.813C2032.621,16.1,2013.79-13.69,1993.6-48.462Z" transform="translate(-1436.41 48.462)" fill="#33e1ff"/>
                </g>
                <g id="Group_270" data-name="Group 270" transform="translate(842.996 153.435)">
                  <path id="Path_59" data-name="Path 59" d="M1823.58-554.353c-19.824,241.337-66.834,406.5-136.261,508.845-68.695,104.4-159.805,145.988-250.909,187.6,95.038-28.879,190.082-57.732,271.771-149.188,82.3-88.583,151.25-239.768,208.243-446.988C1887.939-484.095,1857.43-517.811,1823.58-554.353Z" transform="translate(-1436.41 554.353)" fill="#33e1ff"/>
                </g>
                <g id="Group_271" data-name="Group 271" transform="translate(842.996 21.433)">
                  <path id="Path_60" data-name="Path 60" d="M1593.895-929.7c73.215,282.412,74.024,459.751,35.582,580.128-38.189,120.744-115.629,184.528-193.068,248.315,84.481-52.506,168.968-105,223.308-216.795,54.885-110.721,79.622-280.739,57.2-543.518C1678.048-883.779,1637.089-906.755,1593.895-929.7Z" transform="translate(-1436.41 929.697)" fill="#33e1ff"/>
                </g>
              </g>
            </g>
          </g>
          <g id="Group_304" data-name="Group 304" transform="translate(366.234 290.949)">
            <g id="Group_303" data-name="Group 303" transform="translate(0 0)" style="mix-blend-mode: multiply;isolation: isolate">
              <g id="Group_302" data-name="Group 302" transform="translate(0 0)" opacity="0">
                <path id="Path_127" data-name="Path 127" d="M12.333,0a12.405,12.405,0,0,1-.04,24.81A12.405,12.405,0,0,1,12.333,0Z" transform="translate(0 5.063) rotate(-11.864)" fill="#fff"/>
              </g>
            </g>
          </g>
          <g id="Group_1379" data-name="Group 1379" transform="translate(651.42 692.837)">
            <path id="Path_103" data-name="Path 103" d="M2570.193,2183.31a3.582,3.582,0,0,0-1.03-3.641l-11.76-10.76,2.124-15.868a3.572,3.572,0,0,0-1.537-3.454,3.515,3.515,0,0,0-3.754-.138l-13.785,7.95-14.312-6.939a3.51,3.51,0,0,0-3.733.407,3.581,3.581,0,0,0-1.291,3.556l3.242,15.675-10.969,11.576a3.586,3.586,0,0,0-.771,3.706,3.539,3.539,0,0,0,2.956,2.335l15.789,1.737,7.531,14.1a3.567,3.567,0,0,0,1.146,1.28,3.547,3.547,0,0,0,5.229-1.508l6.517-14.6,15.625-2.865A3.547,3.547,0,0,0,2570.193,2183.31Z" transform="translate(-2512.4 -2148.973)" fill="#fff"/>
          </g>
          <g id="Group_315" data-name="Group 315" transform="translate(655.421 696.762)">
            <path id="Path_103-2" data-name="Path 103" d="M2562.081,2178.49a3.078,3.078,0,0,0-.886-3.129l-10.109-9.25,1.826-13.641a3.072,3.072,0,0,0-1.321-2.969,3.022,3.022,0,0,0-3.227-.119l-11.85,6.834-12.3-5.966a3.018,3.018,0,0,0-3.209.35,3.079,3.079,0,0,0-1.11,3.057l2.787,13.475-9.43,9.952a3.082,3.082,0,0,0-.663,3.186,3.043,3.043,0,0,0,2.541,2.008l13.573,1.493,6.474,12.117a3.068,3.068,0,0,0,.985,1.1,3.049,3.049,0,0,0,4.495-1.3l5.6-12.552,13.432-2.463A3.048,3.048,0,0,0,2562.081,2178.49Z" transform="translate(-2512.4 -2148.973)" fill="#e9a025"/>
          </g>
        </g>
      </g>
    </g>
    <g id="Group_1359" data-name="Group 1359" transform="translate(4 9.031)">
      <g id="Group_18" data-name="Group 18" transform="translate(104.423 349.721)">
        <path id="Path_7" data-name="Path 7" d="M487.07,1358.711a15.294,15.294,0,0,1-5.187.932,12.051,12.051,0,0,1-3.227-.433,8.217,8.217,0,0,1-2.795-1.364,7.1,7.1,0,0,1-2-2.362,7.309,7.309,0,0,1-.766-3.493,17.875,17.875,0,0,1,1.165-6.354,19.3,19.3,0,0,1,3.127-5.49,15.753,15.753,0,0,1,4.525-3.825,10.951,10.951,0,0,1,5.422-1.43,11.515,11.515,0,0,1,2.662.3,19.286,19.286,0,0,1,2.328.7,5.931,5.931,0,0,1,2.13-1,10.678,10.678,0,0,1,2.728-.333,11.368,11.368,0,0,1,2.559.3,7.308,7.308,0,0,1,2.329.968,5.425,5.425,0,0,1,1.66,1.663,4.389,4.389,0,0,1,.633,2.4v.5a2.965,2.965,0,0,1-.069.566q-.6,3.193-1.364,6.288t-1.464,5.523q-.7,2.43-1.264,3.992a7.773,7.773,0,0,1-.766,1.763,2.587,2.587,0,0,1-1.264.6,8.576,8.576,0,0,1-1.929.2,14.241,14.241,0,0,1-3.458-.4,2.334,2.334,0,0,1-1.863-2.063,18.194,18.194,0,0,1-1.9,1.065A16.885,16.885,0,0,1,487.07,1358.711Zm-1.729-12.11a8.808,8.808,0,0,0-.665,3.127,3.331,3.331,0,0,0,.7,2.263,2.244,2.244,0,0,0,1.764.8,3.5,3.5,0,0,0,1.66-.465,5.971,5.971,0,0,0,1.729-1.531q.065-2.26.167-4.427t.365-4.957h-.2a5.048,5.048,0,0,0-2.828,1.331,8.947,8.947,0,0,0-2.691,3.86Z" transform="translate(-446.121 -1221.152)" fill="#fff"/>
        <path id="Path_6" data-name="Path 6" d="M453.324,1310.7a2.7,2.7,0,0,0-1.882-.739,3.575,3.575,0,0,0-2.856,1.613,5.789,5.789,0,0,0-1.244,3.63,5.557,5.557,0,0,0,1.714,3.932q1.714,1.782,3.8,3.764a28.448,28.448,0,0,1,3.8,4.472,10.4,10.4,0,0,1,1.714,6.049,13.672,13.672,0,0,1-1.075,5.142,15.718,15.718,0,0,1-3.159,4.873,16.49,16.49,0,0,1-5.108,3.633,16.037,16.037,0,0,1-6.856,1.411,13.442,13.442,0,0,1-6.89-1.782,14.962,14.962,0,0,1-5.41-6.352,3.632,3.632,0,0,1-.537-1.949,2.928,2.928,0,0,1,.437-1.579,4.178,4.178,0,0,1,1.142-1.21,5.45,5.45,0,0,1,1.58-.773,5.712,5.712,0,0,1,1.677-.269,2.448,2.448,0,0,1,2.285,1.008,9.882,9.882,0,0,0,2.585,1.95,5.452,5.452,0,0,0,2.386.6,3.6,3.6,0,0,0,2.823-1.209,4.3,4.3,0,0,0,1.075-2.958,6.637,6.637,0,0,0-1.009-3.293,9.716,9.716,0,0,0-3.361-3.227,14.2,14.2,0,0,1-5.24-5.411,14.043,14.043,0,0,1-1.677-6.62,15.036,15.036,0,0,1,4.235-10.352,16.159,16.159,0,0,1,11.83-4.839,14.268,14.268,0,0,1,6.148,1.378,10.727,10.727,0,0,1,4.739,4.537,4.459,4.459,0,0,1,.47,2.016,7.059,7.059,0,0,1-.2,1.647,4.774,4.774,0,0,1-.672,1.546,3.984,3.984,0,0,1-1.142,1.142,2.893,2.893,0,0,1-1.614.437,5.1,5.1,0,0,1-2.016-.5,9.738,9.738,0,0,1-2.485-1.72Z" transform="translate(-430.328 -1208.968)" fill="#fff"/>
        <g id="Group_10" data-name="Group 10" transform="translate(73.992 151.378)">
          <g id="Group_9" data-name="Group 9">
            <g id="Group_2" data-name="Group 2" transform="translate(-3.415 -5.13)">
              <g id="Group_1" data-name="Group 1">
                <g transform="matrix(1, 0, 0, 1, -179, -505)" filter="url(#Path_1)">
                  <path id="Path_1-2" data-name="Path 1" d="M580.5,1376.938q-1.747,2.784-3.687,5.727t-4.11,5.759q-2.166,2.814-4.562,5.37a36.3,36.3,0,0,1-5.047,4.5q.839.776,2.2,2.1t2.944,2.911q1.585,1.585,3.17,3.332t2.878,3.3a28.867,28.867,0,0,1,2.1,2.814,4.157,4.157,0,0,1,.808,1.844,1.7,1.7,0,0,1-.485,1.132,4.5,4.5,0,0,1-1.261.971,8.794,8.794,0,0,1-1.813.712,7.822,7.822,0,0,1-3.85.1,5.664,5.664,0,0,1-1.65-.648q-.581-.644-1.648-1.94t-2.362-2.912q-1.3-1.617-2.718-3.43t-2.653-3.494q-.841,3.43-1.39,5.823t-1,3.948q-.455,1.552-.809,2.459a3.356,3.356,0,0,1-.841,1.325,2.167,2.167,0,0,1-1.1.518,10.461,10.461,0,0,1-1.585.1,12.729,12.729,0,0,1-2.557-.26,5.917,5.917,0,0,1-1.973-.712q-.453-.13-.648-1.488a26.867,26.867,0,0,1-.193-3.623q0-2.718.288-6.5t.712-7.894q.418-4.107.97-8.185t1.166-7.474q.615-3.4,1.2-5.692a8.1,8.1,0,0,1,1.1-2.882,6.212,6.212,0,0,1,2.393-1.812,6.63,6.63,0,0,1,2.46-.516,6.843,6.843,0,0,1,2.976.648,10.3,10.3,0,0,1,2.329,1.488,7.451,7.451,0,0,1,1.488,1.682,2.825,2.825,0,0,1,.518,1.3,29.229,29.229,0,0,1-.485,4.142q-.486,2.91-1.263,6.794a64.129,64.129,0,0,0,4.628-6.47q2.1-3.364,4.367-6.988a5.461,5.461,0,0,1,2.039-2.007,4.965,4.965,0,0,1,2.3-.581,5.546,5.546,0,0,1,1.873.324,5.381,5.381,0,0,1,1.585.873,5.238,5.238,0,0,1,1.1,1.2,2.357,2.357,0,0,1,.42,1.3A1.945,1.945,0,0,1,580.5,1376.938Z" transform="translate(-367.65 -867.21)" fill="#fff"/>
                </g>
              </g>
            </g>
            <g id="Group_2-2" data-name="Group 2" transform="translate(-2.415 -2.13)">
              <g id="Group_1-2" data-name="Group 1">
                <path id="Path_1-3" data-name="Path 1" d="M576.682,1376.4q-1.55,2.47-3.271,5.081t-3.646,5.11q-1.922,2.5-4.047,4.764a32.2,32.2,0,0,1-4.477,3.99q.745.688,1.951,1.866t2.612,2.583q1.406,1.406,2.812,2.956t2.553,2.928a25.611,25.611,0,0,1,1.866,2.5,3.688,3.688,0,0,1,.716,1.636,1.505,1.505,0,0,1-.43,1,3.99,3.99,0,0,1-1.119.861,7.8,7.8,0,0,1-1.608.632,6.94,6.94,0,0,1-3.416.086,5.029,5.029,0,0,1-1.464-.575q-.516-.572-1.463-1.721t-2.1-2.583q-1.151-1.434-2.412-3.043t-2.354-3.1q-.746,3.043-1.234,5.166t-.89,3.5q-.4,1.377-.718,2.182a2.978,2.978,0,0,1-.746,1.176,1.923,1.923,0,0,1-.977.459,9.277,9.277,0,0,1-1.406.087,11.3,11.3,0,0,1-2.269-.23,5.249,5.249,0,0,1-1.75-.631q-.4-.115-.575-1.32a23.829,23.829,0,0,1-.171-3.214q0-2.412.256-5.77t.631-7q.371-3.643.86-7.262t1.034-6.631q.545-3.014,1.062-5.05a7.19,7.19,0,0,1,.977-2.557,5.511,5.511,0,0,1,2.123-1.608,5.881,5.881,0,0,1,2.182-.458,6.071,6.071,0,0,1,2.64.575,9.14,9.14,0,0,1,2.067,1.32,6.612,6.612,0,0,1,1.32,1.492,2.506,2.506,0,0,1,.46,1.15,25.928,25.928,0,0,1-.43,3.675q-.431,2.581-1.12,6.027a56.9,56.9,0,0,0,4.106-5.74q1.864-2.985,3.874-6.2a4.844,4.844,0,0,1,1.809-1.781,4.406,4.406,0,0,1,2.037-.516,4.923,4.923,0,0,1,1.662.287,4.774,4.774,0,0,1,1.406.775,4.647,4.647,0,0,1,.975,1.062,2.091,2.091,0,0,1,.373,1.151A1.726,1.726,0,0,1,576.682,1376.4Z" transform="translate(-546.653 -1372.215)" fill="#952275"/>
              </g>
            </g>
            <g id="Group_4" data-name="Group 4" transform="translate(25.585 0.87)">
              <g id="Group_3" data-name="Group 3">
                <g transform="matrix(1, 0, 0, 1, -208, -511)" filter="url(#Path_2)">
                  <path id="Path_2-2" data-name="Path 2" d="M592.3,1402.184q.144-1.211,1.924-1.887a11.336,11.336,0,0,1,4.06-.677,12.636,12.636,0,0,1,2.776.318,8.888,8.888,0,0,1,2.527.961,5.567,5.567,0,0,1,1.817,1.675,4.349,4.349,0,0,1,.714,2.528v.57a2.4,2.4,0,0,1-.071.569q-.64,3.419-1.46,6.7t-1.567,5.913q-.749,2.636-1.39,4.309a8.772,8.772,0,0,1-.855,1.888,2.731,2.731,0,0,1-1.318.641,8.736,8.736,0,0,1-2.03.214,13.6,13.6,0,0,1-2.742-.286,7.468,7.468,0,0,1-2.243-.784q-.642-.212-.891-2.1a38.431,38.431,0,0,1-.25-4.88q0-3.275.25-7.372T592.3,1402.184Zm8.263-16.313a6.066,6.066,0,0,1,4.417,1.745,5.8,5.8,0,0,1,1.781,4.31,6.6,6.6,0,0,1-.57,2.707,7.317,7.317,0,0,1-3.776,3.775,6.572,6.572,0,0,1-2.705.569,6.128,6.128,0,0,1-2.493-.5,6.755,6.755,0,0,1-2-1.317,5.634,5.634,0,0,1-1.317-1.923,6.094,6.094,0,0,1-.463-2.387,6.565,6.565,0,0,1,.57-2.707,7.318,7.318,0,0,1,1.531-2.244,6.777,6.777,0,0,1,2.279-1.5,7.218,7.218,0,0,1,2.743-.536Z" transform="translate(-383.29 -874.87)" fill="#fff"/>
                </g>
              </g>
            </g>
            <g id="Group_4-2" data-name="Group 4" transform="translate(26.585 4.87)">
              <g id="Group_3-2" data-name="Group 3">
                <path id="Path_2-3" data-name="Path 2" d="M592.1,1399.018q.116-.976,1.551-1.521a9.137,9.137,0,0,1,3.272-.546,10.182,10.182,0,0,1,2.237.256,7.165,7.165,0,0,1,2.036.775,4.487,4.487,0,0,1,1.464,1.35,3.506,3.506,0,0,1,.575,2.038v.46a1.94,1.94,0,0,1-.057.459q-.516,2.756-1.177,5.4t-1.262,4.765q-.6,2.125-1.12,3.473a7.067,7.067,0,0,1-.689,1.521,2.2,2.2,0,0,1-1.062.516,7.038,7.038,0,0,1-1.636.172,10.972,10.972,0,0,1-2.21-.23,6.02,6.02,0,0,1-1.807-.632q-.518-.171-.719-1.693a30.968,30.968,0,0,1-.2-3.933q0-2.639.2-5.941T592.1,1399.018Zm6.66-13.147a4.888,4.888,0,0,1,3.56,1.406,4.673,4.673,0,0,1,1.435,3.473,5.313,5.313,0,0,1-.46,2.182,5.9,5.9,0,0,1-3.043,3.043,5.3,5.3,0,0,1-2.18.459,4.939,4.939,0,0,1-2.009-.4,5.443,5.443,0,0,1-1.608-1.062,4.543,4.543,0,0,1-1.062-1.55,4.912,4.912,0,0,1-.373-1.923,5.292,5.292,0,0,1,.46-2.181,5.9,5.9,0,0,1,1.234-1.808,5.461,5.461,0,0,1,1.837-1.206,5.817,5.817,0,0,1,2.21-.432Z" transform="translate(-591.294 -1385.869)" fill="#0f9ce9"/>
              </g>
            </g>
            <g id="Group_6" data-name="Group 6" transform="translate(41.97 5.736)">
              <g id="Group_5" data-name="Group 5">
                <path id="Path_3-2" data-name="Path 3" d="M620.065,1416.44a7.818,7.818,0,0,1-2.842-.546,8.055,8.055,0,0,1-2.5-1.521,7.281,7.281,0,0,1-2.411-5.51,15.685,15.685,0,0,1,1-5.625,15.218,15.218,0,0,1,2.728-4.622,12.977,12.977,0,0,1,4.018-3.128,10.885,10.885,0,0,1,4.937-1.151,12.881,12.881,0,0,1,1.924.144,9.393,9.393,0,0,1,1.75.43q.23-2.123.546-4.1t.631-3.531q.313-1.549.632-2.612a3.538,3.538,0,0,1,.659-1.406,5.508,5.508,0,0,1,2.125-1.608,6.007,6.007,0,0,1,2.237-.459,6.22,6.22,0,0,1,2.812.6,8.155,8.155,0,0,1,2.037,1.406,6.3,6.3,0,0,1,1.235,1.579,2.928,2.928,0,0,1,.4,1.12,26.794,26.794,0,0,1-.432,3.846q-.429,2.642-1.119,5.856t-1.491,6.688q-.805,3.474-1.551,6.4t-1.32,4.88a8.679,8.679,0,0,1-.8,2.182,2.242,2.242,0,0,1-1.091.517,7.412,7.412,0,0,1-1.666.172c-.575,0-1.119-.021-1.636-.057a4.584,4.584,0,0,1-1.406-.316,2.609,2.609,0,0,1-1.665-2.1l-.058.057a15.422,15.422,0,0,1-3.358,1.78,12.609,12.609,0,0,1-4.334.632Zm2.812-12.228a6.872,6.872,0,0,0-.575,2.64,3.592,3.592,0,0,0,.775,2.44,2.391,2.391,0,0,0,1.865.89,2.807,2.807,0,0,0,1.263-.316,4.137,4.137,0,0,0,1.263-1.062l.116-.172q.055-1.951.171-4.162t.344-4.506l-.286-.172h-.288a4.17,4.17,0,0,0-2.382,1.119,7.726,7.726,0,0,0-2.265,3.3Z" transform="translate(-612.315 -1381.189)" fill="#fff"/>
              </g>
              <g id="Group_5-2" data-name="Group 5">
                <g transform="matrix(1, 0, 0, 1, -224.38, -515.87)" filter="url(#Path_3)">
                  <path id="Path_3-3" data-name="Path 3" d="M620.065,1416.44a7.818,7.818,0,0,1-2.842-.546,8.055,8.055,0,0,1-2.5-1.521,7.281,7.281,0,0,1-2.411-5.51,15.685,15.685,0,0,1,1-5.625,15.218,15.218,0,0,1,2.728-4.622,12.977,12.977,0,0,1,4.018-3.128,10.885,10.885,0,0,1,4.937-1.151,12.881,12.881,0,0,1,1.924.144,9.393,9.393,0,0,1,1.75.43q.23-2.123.546-4.1t.631-3.531q.313-1.549.632-2.612a3.538,3.538,0,0,1,.659-1.406,5.508,5.508,0,0,1,2.125-1.608,6.007,6.007,0,0,1,2.237-.459,6.22,6.22,0,0,1,2.812.6,8.155,8.155,0,0,1,2.037,1.406,6.3,6.3,0,0,1,1.235,1.579,2.928,2.928,0,0,1,.4,1.12,26.794,26.794,0,0,1-.432,3.846q-.429,2.642-1.119,5.856t-1.491,6.688q-.805,3.474-1.551,6.4t-1.32,4.88a8.679,8.679,0,0,1-.8,2.182,2.242,2.242,0,0,1-1.091.517,7.412,7.412,0,0,1-1.666.172c-.575,0-1.119-.021-1.636-.057a4.584,4.584,0,0,1-1.406-.316,2.609,2.609,0,0,1-1.665-2.1l-.058.057a15.422,15.422,0,0,1-3.358,1.78,12.609,12.609,0,0,1-4.334.632Zm2.812-12.228a6.872,6.872,0,0,0-.575,2.64,3.592,3.592,0,0,0,.775,2.44,2.391,2.391,0,0,0,1.865.89,2.807,2.807,0,0,0,1.263-.316,4.137,4.137,0,0,0,1.263-1.062l.116-.172q.055-1.951.171-4.162t.344-4.506l-.286-.172h-.288a4.17,4.17,0,0,0-2.382,1.119,7.726,7.726,0,0,0-2.265,3.3Z" transform="translate(-387.93 -865.32)" fill="#fff"/>
                </g>
              </g>
            </g>
            <g id="Group_6-2" data-name="Group 6" transform="translate(42.97 8.584)">
              <g id="Group_5-3" data-name="Group 5">
                <path id="Path_3-4" data-name="Path 3" d="M619.219,1412.593a6.972,6.972,0,0,1-2.532-.486,7.178,7.178,0,0,1-2.224-1.355,6.487,6.487,0,0,1-2.148-4.909,13.975,13.975,0,0,1,.894-5.011,13.558,13.558,0,0,1,2.43-4.117,11.558,11.558,0,0,1,3.579-2.787,9.7,9.7,0,0,1,4.4-1.025,11.458,11.458,0,0,1,1.714.128,8.345,8.345,0,0,1,1.559.383q.205-1.891.487-3.656t.563-3.146q.279-1.38.563-2.327a3.151,3.151,0,0,1,.587-1.253,4.907,4.907,0,0,1,1.893-1.433,5.352,5.352,0,0,1,1.993-.409,5.543,5.543,0,0,1,2.505.538,7.258,7.258,0,0,1,1.815,1.252,5.6,5.6,0,0,1,1.1,1.406,2.608,2.608,0,0,1,.359,1,23.866,23.866,0,0,1-.385,3.426q-.383,2.354-1,5.217t-1.328,5.958q-.717,3.1-1.381,5.7t-1.176,4.347a7.73,7.73,0,0,1-.716,1.943,2,2,0,0,1-.972.46,6.592,6.592,0,0,1-1.484.154c-.513,0-1-.018-1.457-.051a4.085,4.085,0,0,1-1.253-.281,2.324,2.324,0,0,1-1.483-1.867l-.051.051a13.733,13.733,0,0,1-2.992,1.586A11.229,11.229,0,0,1,619.219,1412.593Zm2.505-10.893a6.123,6.123,0,0,0-.513,2.352,3.2,3.2,0,0,0,.691,2.174,2.131,2.131,0,0,0,1.661.793,2.5,2.5,0,0,0,1.125-.281,3.687,3.687,0,0,0,1.125-.946l.1-.153q.049-1.738.153-3.708t.306-4.014l-.255-.153h-.256a3.715,3.715,0,0,0-2.122,1,6.883,6.883,0,0,0-2.018,2.941Z" transform="translate(-612.315 -1381.189)" fill="#fcd306"/>
              </g>
              <g id="Group_5-4" data-name="Group 5">
                <path id="Path_3-5" data-name="Path 3" d="M619.219,1412.593a6.972,6.972,0,0,1-2.532-.486,7.178,7.178,0,0,1-2.224-1.355,6.487,6.487,0,0,1-2.148-4.909,13.975,13.975,0,0,1,.894-5.011,13.558,13.558,0,0,1,2.43-4.117,11.558,11.558,0,0,1,3.579-2.787,9.7,9.7,0,0,1,4.4-1.025,11.458,11.458,0,0,1,1.714.128,8.345,8.345,0,0,1,1.559.383q.205-1.891.487-3.656t.563-3.146q.279-1.38.563-2.327a3.151,3.151,0,0,1,.587-1.253,4.907,4.907,0,0,1,1.893-1.433,5.352,5.352,0,0,1,1.993-.409,5.543,5.543,0,0,1,2.505.538,7.258,7.258,0,0,1,1.815,1.252,5.6,5.6,0,0,1,1.1,1.406,2.608,2.608,0,0,1,.359,1,23.866,23.866,0,0,1-.385,3.426q-.383,2.354-1,5.217t-1.328,5.958q-.717,3.1-1.381,5.7t-1.176,4.347a7.73,7.73,0,0,1-.716,1.943,2,2,0,0,1-.972.46,6.592,6.592,0,0,1-1.484.154c-.513,0-1-.018-1.457-.051a4.085,4.085,0,0,1-1.253-.281,2.324,2.324,0,0,1-1.483-1.867l-.051.051a13.733,13.733,0,0,1-2.992,1.586A11.229,11.229,0,0,1,619.219,1412.593Zm2.505-10.893a6.123,6.123,0,0,0-.513,2.352,3.2,3.2,0,0,0,.691,2.174,2.131,2.131,0,0,0,1.661.793,2.5,2.5,0,0,0,1.125-.281,3.687,3.687,0,0,0,1.125-.946l.1-.153q.049-1.738.153-3.708t.306-4.014l-.255-.153h-.256a3.715,3.715,0,0,0-2.122,1,6.883,6.883,0,0,0-2.018,2.941Z" transform="translate(-612.315 -1381.189)" fill="#fcd306"/>
              </g>
            </g>
            <g id="Group_8" data-name="Group 8" transform="translate(72.585 18.87)">
              <g id="Group_7" data-name="Group 7">
                <g transform="matrix(1, 0, 0, 1, -255, -529)" filter="url(#Path_4)">
                  <path id="Path_4-2" data-name="Path 4" d="M665.25,1426.67q-1.459-.065-2.82-.158a10.528,10.528,0,0,1-2.6-.507,7.934,7.934,0,0,1-2.31-1.234,8.155,8.155,0,0,1-1.963-2.28,2.319,2.319,0,0,1-.316-1.139,1.561,1.561,0,0,1,.981-1.489,4.673,4.673,0,0,1,2.057-.474,3.079,3.079,0,0,1,1.551.348,5.125,5.125,0,0,1,1.045.791q.443.445.855.792a1.658,1.658,0,0,0,1.108.348,2.955,2.955,0,0,0,1.2-.282,4.472,4.472,0,0,0,1.9-1.583,1.667,1.667,0,0,0,.316-.916q0-.823-1.33-1.456t-2.944-1.488a14.42,14.42,0,0,1-2.943-2.057,4.06,4.06,0,0,1-1.329-3.165,6.742,6.742,0,0,1,1.233-4.052,9.392,9.392,0,0,1,3.134-2.754,15.685,15.685,0,0,1,4.185-1.551,20.248,20.248,0,0,1,4.386-.508,15.9,15.9,0,0,1,2.421.222,12.031,12.031,0,0,1,2.644.728,7.722,7.722,0,0,1,2.127,1.269,2.334,2.334,0,0,1,.887,1.833,3.473,3.473,0,0,1-.7,1.962,2.375,2.375,0,0,1-2.1,1.013,4.93,4.93,0,0,1-2.737-1.076,1.606,1.606,0,0,0-.828-.19,4.124,4.124,0,0,0-1.944.57q-1.05.569-1.05,1.329a1.2,1.2,0,0,0,.541.887,5.429,5.429,0,0,0,1.879.823,9.05,9.05,0,0,1,3.98,2.819,6.069,6.069,0,0,1,1.306,3.7,6.612,6.612,0,0,1-.8,3.1A9.01,9.01,0,0,1,674,1423.6a12.79,12.79,0,0,1-3.693,2.057A17.809,17.809,0,0,1,665.25,1426.67Z" transform="translate(-401.24 -874.17)" fill="#fff"/>
                </g>
              </g>
            </g>
            <g id="Group_8-2" data-name="Group 8" transform="translate(72.585 18.87)">
              <g id="Group_7-2" data-name="Group 7">
                <path id="Path_4-3" data-name="Path 4" d="M664.317,1424.358q-1.323-.059-2.557-.143a9.543,9.543,0,0,1-2.354-.459,7.2,7.2,0,0,1-2.1-1.119,7.4,7.4,0,0,1-1.78-2.067,2.1,2.1,0,0,1-.286-1.033,1.416,1.416,0,0,1,.89-1.35,4.241,4.241,0,0,1,1.865-.43,2.794,2.794,0,0,1,1.406.316,4.648,4.648,0,0,1,.947.717q.4.4.775.719a1.5,1.5,0,0,0,1,.316,2.679,2.679,0,0,0,1.091-.256,4.055,4.055,0,0,0,1.726-1.436,1.51,1.51,0,0,0,.286-.831q0-.746-1.206-1.321t-2.669-1.349a13.079,13.079,0,0,1-2.669-1.866,3.681,3.681,0,0,1-1.205-2.87,6.113,6.113,0,0,1,1.119-3.675,8.518,8.518,0,0,1,2.842-2.5,14.226,14.226,0,0,1,3.795-1.406,18.359,18.359,0,0,1,3.978-.46,14.414,14.414,0,0,1,2.2.2,10.918,10.918,0,0,1,2.4.66,7,7,0,0,1,1.928,1.151,2.116,2.116,0,0,1,.8,1.662,3.149,3.149,0,0,1-.631,1.779,2.154,2.154,0,0,1-1.9.919,4.472,4.472,0,0,1-2.482-.976,1.456,1.456,0,0,0-.751-.172,3.739,3.739,0,0,0-1.763.517q-.952.516-.952,1.2a1.087,1.087,0,0,0,.491.8,4.923,4.923,0,0,0,1.7.746,8.206,8.206,0,0,1,3.609,2.557,5.5,5.5,0,0,1,1.184,3.358,6,6,0,0,1-.723,2.813,8.17,8.17,0,0,1-2.079,2.5,11.6,11.6,0,0,1-3.349,1.866A16.147,16.147,0,0,1,664.317,1424.358Z" transform="translate(-655.244 -1401.857)" fill="#7ab900"/>
              </g>
            </g>
          </g>
        </g>
        <g transform="matrix(1, 0, 0, 1, -108.42, -358.75)" filter="url(#Path_5)">
          <path id="Path_5-2" data-name="Path 5" d="M767.61,1357.6a5.464,5.464,0,0,1-2.386-.56,6.983,6.983,0,0,1-2.071-1.511,7.677,7.677,0,0,1-1.462-2.218,6.654,6.654,0,0,1-.561-2.729,13.414,13.414,0,0,1,3.241-8.822,10.867,10.867,0,0,1,3.51-2.681,9.8,9.8,0,0,1,4.314-.975,7.586,7.586,0,0,1,2.949.561,6.854,6.854,0,0,1,2.339,1.608,7.348,7.348,0,0,1,1.56,2.583,9.978,9.978,0,0,1,.56,3.436,9.592,9.592,0,0,1-.976,4.217,12.406,12.406,0,0,1-2.631,3.606,13.079,13.079,0,0,1-3.826,2.531A11.226,11.226,0,0,1,767.61,1357.6Zm2.485-10.967a6.565,6.565,0,0,0-.487,2.339,3.7,3.7,0,0,0,.682,2.339,2.038,2.038,0,0,0,1.657.878,2.286,2.286,0,0,0,1.657-.731,6.254,6.254,0,0,0,1.218-1.755,10.2,10.2,0,0,0,.731-2.071A7.743,7.743,0,0,0,775.8,1346a3.739,3.739,0,0,0-.585-2.364,1.66,1.66,0,0,0-1.268-.707,2.385,2.385,0,0,0-1.242.366,5,5,0,0,0-1.122.925,7.425,7.425,0,0,0-.9,1.219,7.23,7.23,0,0,0-.585,1.191Z" transform="translate(-440.77 -864.04)" fill="#fff"/>
        </g>
        <path id="Path_5-3" data-name="Path 5" d="M766.857,1355.332a4.828,4.828,0,0,1-2.109-.5,6.17,6.17,0,0,1-1.831-1.335,6.786,6.786,0,0,1-1.292-1.96,5.882,5.882,0,0,1-.5-2.412,11.857,11.857,0,0,1,2.865-7.8,9.605,9.605,0,0,1,3.1-2.369,8.665,8.665,0,0,1,3.813-.862,6.7,6.7,0,0,1,2.607.5,6.059,6.059,0,0,1,2.068,1.422,6.5,6.5,0,0,1,1.379,2.283,8.821,8.821,0,0,1,.5,3.037,8.48,8.48,0,0,1-.863,3.727,10.967,10.967,0,0,1-2.326,3.188,11.565,11.565,0,0,1-3.382,2.237A9.924,9.924,0,0,1,766.857,1355.332Zm2.2-9.693a5.8,5.8,0,0,0-.43,2.068,3.273,3.273,0,0,0,.6,2.068,1.8,1.8,0,0,0,1.465.776,2.02,2.02,0,0,0,1.464-.646,5.529,5.529,0,0,0,1.077-1.551,9.009,9.009,0,0,0,.646-1.831,6.842,6.842,0,0,0,.216-1.443,3.305,3.305,0,0,0-.517-2.089,1.467,1.467,0,0,0-1.12-.625,2.109,2.109,0,0,0-1.1.323,4.424,4.424,0,0,0-.991.818,6.56,6.56,0,0,0-.8,1.077,6.391,6.391,0,0,0-.517,1.053Z" transform="translate(-548.049 -1221.527)" fill="#f36f28"/>
        <path id="Path_6-2" data-name="Path 6" d="M451.281,1309.806a2.474,2.474,0,0,0-1.722-.676,3.271,3.271,0,0,0-2.613,1.476,5.3,5.3,0,0,0-1.138,3.321,5.084,5.084,0,0,0,1.568,3.6q1.568,1.63,3.474,3.443a26.022,26.022,0,0,1,3.475,4.091,9.517,9.517,0,0,1,1.568,5.534,12.508,12.508,0,0,1-.984,4.7,14.379,14.379,0,0,1-2.89,4.458,15.086,15.086,0,0,1-4.673,3.324,14.671,14.671,0,0,1-6.272,1.291,12.3,12.3,0,0,1-6.3-1.63,13.688,13.688,0,0,1-4.95-5.811,3.323,3.323,0,0,1-.492-1.783,2.679,2.679,0,0,1,.4-1.445,3.823,3.823,0,0,1,1.045-1.107,4.985,4.985,0,0,1,1.445-.707,5.228,5.228,0,0,1,1.534-.246,2.24,2.24,0,0,1,2.091.922,9.04,9.04,0,0,0,2.365,1.784,4.988,4.988,0,0,0,2.183.553,3.292,3.292,0,0,0,2.583-1.106,3.932,3.932,0,0,0,.984-2.706,6.073,6.073,0,0,0-.923-3.013,8.888,8.888,0,0,0-3.074-2.952,12.993,12.993,0,0,1-4.794-4.95,12.847,12.847,0,0,1-1.534-6.057,13.756,13.756,0,0,1,3.874-9.47,14.783,14.783,0,0,1,10.823-4.427,13.052,13.052,0,0,1,5.625,1.261,9.813,9.813,0,0,1,4.336,4.151,4.08,4.08,0,0,1,.43,1.845,6.458,6.458,0,0,1-.184,1.506,4.367,4.367,0,0,1-.615,1.415,3.643,3.643,0,0,1-1.045,1.045,2.647,2.647,0,0,1-1.477.4,4.667,4.667,0,0,1-1.845-.461,8.911,8.911,0,0,1-2.274-1.573Z" transform="translate(-429.329 -1206.858)" fill="#e23464"/>
        <path id="Path_7-2" data-name="Path 7" d="M486.01,1356.879a14.134,14.134,0,0,1-4.794.861,11.134,11.134,0,0,1-2.982-.4,7.594,7.594,0,0,1-2.583-1.261,6.564,6.564,0,0,1-1.844-2.183,6.755,6.755,0,0,1-.708-3.228,16.52,16.52,0,0,1,1.076-5.872,17.835,17.835,0,0,1,2.89-5.074,14.559,14.559,0,0,1,4.182-3.535,10.12,10.12,0,0,1,5.011-1.322,10.637,10.637,0,0,1,2.46.277,17.825,17.825,0,0,1,2.151.646,5.482,5.482,0,0,1,1.968-.922,9.868,9.868,0,0,1,2.521-.308,10.5,10.5,0,0,1,2.365.277,6.755,6.755,0,0,1,2.152.895,5.014,5.014,0,0,1,1.534,1.537,4.056,4.056,0,0,1,.585,2.214v.461a2.738,2.738,0,0,1-.064.523q-.553,2.951-1.26,5.811t-1.353,5.1q-.646,2.245-1.168,3.689a7.184,7.184,0,0,1-.708,1.629,2.39,2.39,0,0,1-1.168.553,7.92,7.92,0,0,1-1.783.185,13.156,13.156,0,0,1-3.2-.37,2.157,2.157,0,0,1-1.722-1.906,16.816,16.816,0,0,1-1.752.984A15.606,15.606,0,0,1,486.01,1356.879Zm-1.6-11.191a8.141,8.141,0,0,0-.615,2.89,3.078,3.078,0,0,0,.646,2.091,2.074,2.074,0,0,0,1.63.738,3.239,3.239,0,0,0,1.534-.43,5.518,5.518,0,0,0,1.6-1.414q.06-2.089.154-4.091t.337-4.581h-.184a4.665,4.665,0,0,0-2.614,1.23,8.269,8.269,0,0,0-2.486,3.567Z" transform="translate(-445.121 -1219.25)" fill="#7ab900"/>
        <g transform="matrix(1, 0, 0, 1, -108.42, -358.75)" filter="url(#Path_8)">
          <path id="Path_8-2" data-name="Path 8" d="M521.014,1369.88q-.534-.19-.8-1.9a29.462,29.462,0,0,1-.265-4.379q0-2.285.166-5.109t.432-5.775q.265-2.952.665-5.805t.8-5.33a14.239,14.239,0,0,1,2.094-5.805,7.867,7.867,0,0,1,3.722-2.856,17.483,17.483,0,0,1,5.584-.952q3.29-.1,7.678-.095a8.205,8.205,0,0,1,2.958.476,5.8,5.8,0,0,1,2.027,1.269,4.864,4.864,0,0,1,1.164,1.809,5.981,5.981,0,0,1,.365,2.03,6.636,6.636,0,0,1-.4,2.254,7.075,7.075,0,0,1-1.1,2,5.672,5.672,0,0,1-1.628,1.428,4.039,4.039,0,0,1-2.061.54,5.377,5.377,0,0,1-2.493-.635,5.156,5.156,0,0,0-2.36-.635,1.869,1.869,0,0,0-1.23.476,3.593,3.593,0,0,0-.9,1.935l-.266,1.143q1.2,0,2.426-.031t2.557-.032a1.348,1.348,0,0,1,1.23.761,3.966,3.966,0,0,1,.433,1.967,6.777,6.777,0,0,1-.234,1.715,4.465,4.465,0,0,1-2.094,2.761,3.57,3.57,0,0,1-1.861.476h-2.294q-1.1,0-2.094-.066-.733,2.982-1.429,5.871t-1.3,5.2q-.6,2.316-1.064,3.808a6.175,6.175,0,0,1-.665,1.682,2.6,2.6,0,0,1-1.229.571,8.21,8.21,0,0,1-1.828.19,13.644,13.644,0,0,1-2.626-.254,7.2,7.2,0,0,1-2.089-.7Z" transform="translate(-353.95 -862.87)" fill="#fff"/>
        </g>
        <path id="Path_8-3" data-name="Path 8" d="M520.878,1366.594q-.466-.174-.7-1.739a28.169,28.169,0,0,1-.231-4q0-2.088.145-4.667t.377-5.276q.231-2.7.58-5.3t.7-4.87a13.408,13.408,0,0,1,1.826-5.3,6.911,6.911,0,0,1,3.246-2.609,14.632,14.632,0,0,1,4.87-.87q2.87-.087,6.7-.087a6.862,6.862,0,0,1,2.58.435,5.03,5.03,0,0,1,1.768,1.159,4.475,4.475,0,0,1,1.015,1.653,5.692,5.692,0,0,1,.319,1.855,6.319,6.319,0,0,1-.348,2.059,6.56,6.56,0,0,1-.957,1.826,5.026,5.026,0,0,1-1.42,1.3,3.4,3.4,0,0,1-1.8.493,4.522,4.522,0,0,1-2.174-.58,4.341,4.341,0,0,0-2.058-.58,1.591,1.591,0,0,0-1.073.435,3.353,3.353,0,0,0-.783,1.768l-.232,1.044q1.044,0,2.116-.029t2.23-.029a1.172,1.172,0,0,1,1.073.7,3.766,3.766,0,0,1,.377,1.8,6.465,6.465,0,0,1-.2,1.567,4.063,4.063,0,0,1-1.826,2.522,3.005,3.005,0,0,1-1.623.434h-2q-.956,0-1.826-.06-.639,2.725-1.246,5.364t-1.131,4.754q-.521,2.116-.928,3.479a5.8,5.8,0,0,1-.58,1.536,2.226,2.226,0,0,1-1.072.522,6.851,6.851,0,0,1-1.595.173,11.372,11.372,0,0,1-2.29-.232,6.088,6.088,0,0,1-1.822-.641Z" transform="translate(-461.371 -1220.463)" fill="#fcd306"/>
        <g transform="matrix(1, 0, 0, 1, -108.42, -358.75)" filter="url(#Path_9)">
          <path id="Path_9-2" data-name="Path 9" d="M570.708,1358.821a7.685,7.685,0,0,1-3.353-.788,9.818,9.818,0,0,1-2.909-2.121,10.823,10.823,0,0,1-2.053-3.114,9.36,9.36,0,0,1-.787-3.832,19.266,19.266,0,0,1,1.163-6.673,17.528,17.528,0,0,1,3.216-5.544,15.947,15.947,0,0,1,4.792-3.765,12.724,12.724,0,0,1,5.886-1.4,13.828,13.828,0,0,1,3.217.376,8.647,8.647,0,0,1,2.806,1.2,6.79,6.79,0,0,1,2.019,2.087,5.663,5.663,0,0,1,.787,3.046,7.04,7.04,0,0,1-.925,3.628,8.376,8.376,0,0,1-2.43,2.632,11.22,11.22,0,0,1-3.423,1.608,13.882,13.882,0,0,1-3.833.548H574.2a3.428,3.428,0,0,1-.684-.071,5.224,5.224,0,0,0,1,3.32,2.928,2.928,0,0,0,2.361,1.266,1.881,1.881,0,0,0,1.061-.342,10.284,10.284,0,0,0,1-.753c.319-.274.64-.524.958-.753a1.642,1.642,0,0,1,.958-.342,2.012,2.012,0,0,1,1.4.616,2.154,2.154,0,0,1,.649,1.642,4.5,4.5,0,0,1-.889,2.43,9.536,9.536,0,0,1-2.5,2.464,14.93,14.93,0,0,1-3.867,1.882A15.518,15.518,0,0,1,570.708,1358.821Zm9.582-20.4a.892.892,0,0,0-.822-.479,2.453,2.453,0,0,0-1.231.411,8.984,8.984,0,0,0-2.5,2.258,6.02,6.02,0,0,0-.719,1.164,3.667,3.667,0,0,0,.822.068,5.471,5.471,0,0,0,1.608-.239,6.555,6.555,0,0,0,1.472-.65,4.053,4.053,0,0,0,1.095-.925,1.68,1.68,0,0,0,.411-1.061,2.264,2.264,0,0,0-.136-.548Z" transform="translate(-369.02 -861.06)" fill="#fff"/>
        </g>
        <path id="Path_9-3" data-name="Path 9" d="M569.784,1356.055a6.9,6.9,0,0,1-3.012-.708,8.819,8.819,0,0,1-2.614-1.906,9.724,9.724,0,0,1-1.845-2.8,8.409,8.409,0,0,1-.707-3.443,17.313,17.313,0,0,1,1.045-6,15.749,15.749,0,0,1,2.89-4.98,14.327,14.327,0,0,1,4.3-3.383,11.429,11.429,0,0,1,5.288-1.26,12.424,12.424,0,0,1,2.89.338,7.768,7.768,0,0,1,2.521,1.076,6.1,6.1,0,0,1,1.814,1.875,5.087,5.087,0,0,1,.707,2.736,6.325,6.325,0,0,1-.831,3.26,7.527,7.527,0,0,1-2.183,2.365,10.082,10.082,0,0,1-3.075,1.445,12.472,12.472,0,0,1-3.443.492h-.615a3.079,3.079,0,0,1-.615-.064,4.693,4.693,0,0,0,.895,2.982,2.629,2.629,0,0,0,2.121,1.137,1.69,1.69,0,0,0,.953-.307,9.258,9.258,0,0,0,.895-.676c.286-.246.575-.47.861-.676a1.475,1.475,0,0,1,.861-.307,1.808,1.808,0,0,1,1.26.553,1.936,1.936,0,0,1,.583,1.475,4.042,4.042,0,0,1-.8,2.183,8.565,8.565,0,0,1-2.244,2.214,13.42,13.42,0,0,1-3.475,1.691A13.945,13.945,0,0,1,569.784,1356.055Zm8.609-18.325a.8.8,0,0,0-.738-.43,2.2,2.2,0,0,0-1.106.37,8.071,8.071,0,0,0-2.245,2.029,5.41,5.41,0,0,0-.646,1.046,3.292,3.292,0,0,0,.738.061,4.922,4.922,0,0,0,1.445-.215,5.9,5.9,0,0,0,1.322-.584,3.641,3.641,0,0,0,.984-.831,1.509,1.509,0,0,0,.37-.953,2.037,2.037,0,0,0-.122-.492Z" transform="translate(-476.029 -1218.175)" fill="#f36f28"/>
        <g id="Group_1364" data-name="Group 1364" transform="translate(0 7)">
          <g transform="matrix(1, 0, 0, 1, -108.42, -365.75)" filter="url(#Path_10)">
            <path id="Path_10-2" data-name="Path 10" d="M620.5,1340.7a5.032,5.032,0,0,1-2.083,1.647,6.8,6.8,0,0,1-2.825.607,6.2,6.2,0,0,1-3.229-.926,5.447,5.447,0,0,1-2.286-3.066q-.741-2.023-1.715-5t-2.018-6.333q-1.044-3.353-2.018-6.854t-1.782-6.535q-.807-3.038-1.278-5.351a19.023,19.023,0,0,1-.47-3.355,2.972,2.972,0,0,1,.6-1.243,9.677,9.677,0,0,1,1.715-1.851,11.83,11.83,0,0,1,2.727-1.706,8.349,8.349,0,0,1,3.565-.752,6.8,6.8,0,0,1,2.185.376,6.175,6.175,0,0,1,2.051,1.186,8.907,8.907,0,0,1,1.177,2.429q.769,2.026,1.581,4.83t1.513,5.986q.707,3.181,1.109,5.842,1.277-2.66,3.128-5.813t3.635-5.928q1.781-2.776,3.228-4.8a11.38,11.38,0,0,1,1.985-2.371,8.6,8.6,0,0,1,4.843-1.561,6.918,6.918,0,0,1,2.757.549,7.913,7.913,0,0,1,2.153,1.331,7.146,7.146,0,0,1,1.379,1.62,2.917,2.917,0,0,1,.5,1.416,10.042,10.042,0,0,1-1.278,2.95q-1.278,2.371-3.329,5.783t-4.574,7.4q-2.522,3.989-4.977,7.751t-4.607,6.914Q621.719,1339.022,620.5,1340.7Z" transform="translate(-385.79 -842.98)" fill="#fff"/>
          </g>
          <path id="Path_10-3" data-name="Path 10" d="M616.057,1336.759a4.063,4.063,0,0,1-1.613,1.488,4.639,4.639,0,0,1-2.188.548,4.31,4.31,0,0,1-2.5-.836,4.93,4.93,0,0,1-1.771-2.77q-.574-1.827-1.328-4.519t-1.563-5.72q-.809-3.029-1.563-6.191t-1.38-5.9q-.625-2.743-.99-4.833a19.875,19.875,0,0,1-.364-3.03,2.888,2.888,0,0,1,.468-1.123,8.375,8.375,0,0,1,1.328-1.672,9.083,9.083,0,0,1,2.112-1.541,5.7,5.7,0,0,1,2.762-.679,4.6,4.6,0,0,1,1.693.339,4.675,4.675,0,0,1,1.589,1.071,8.673,8.673,0,0,1,.912,2.194q.6,1.83,1.224,4.362t1.172,5.407q.547,2.874.859,5.277.989-2.4,2.423-5.251t2.816-5.355q1.379-2.507,2.5-4.336a10.078,10.078,0,0,1,1.537-2.142,6.331,6.331,0,0,1,1.953-1.1,5.833,5.833,0,0,1,1.8-.313,4.706,4.706,0,0,1,2.135.5,6.07,6.07,0,0,1,1.667,1.2,6.312,6.312,0,0,1,1.068,1.463,2.925,2.925,0,0,1,.391,1.279,9.957,9.957,0,0,1-.99,2.665q-.99,2.142-2.579,5.224t-3.543,6.687q-1.953,3.6-3.855,7t-3.569,6.245Q617,1335.245,616.057,1336.759Z" transform="translate(-490.218 -1206.681)" fill="#952275"/>
        </g>
        <g id="Group_1360" data-name="Group 1360" transform="translate(1)">
          <g transform="matrix(1, 0, 0, 1, -109.42, -358.75)" filter="url(#Path_12)">
            <path id="Path_12-2" data-name="Path 12" d="M687.75,1351.086a9.1,9.1,0,0,1-3.314-.635,9.426,9.426,0,0,1-2.912-1.774,8.489,8.489,0,0,1-2.811-6.427,18.286,18.286,0,0,1,1.171-6.561,17.747,17.747,0,0,1,3.18-5.389,15.13,15.13,0,0,1,4.686-3.649,12.687,12.687,0,0,1,5.757-1.34,14.945,14.945,0,0,1,2.243.168,11.009,11.009,0,0,1,2.042.5q.267-2.475.636-4.786t.737-4.118q.365-1.809.736-3.045a4.12,4.12,0,0,1,.77-1.641,6.414,6.414,0,0,1,2.477-1.874,7.014,7.014,0,0,1,2.612-.536,7.252,7.252,0,0,1,3.28.7,9.541,9.541,0,0,1,2.377,1.64,7.338,7.338,0,0,1,1.439,1.841,3.4,3.4,0,0,1,.468,1.306,31.387,31.387,0,0,1-.5,4.485q-.5,3.081-1.305,6.829t-1.74,7.8q-.939,4.052-1.809,7.465t-1.54,5.69a10.043,10.043,0,0,1-.937,2.544,2.6,2.6,0,0,1-1.271.6,8.63,8.63,0,0,1-1.942.2q-1,0-1.908-.066a5.357,5.357,0,0,1-1.64-.369,3.281,3.281,0,0,1-1.239-.87,3.32,3.32,0,0,1-.7-1.573l-.069.069a17.973,17.973,0,0,1-3.917,2.076A14.691,14.691,0,0,1,687.75,1351.086Zm3.28-14.259a8,8,0,0,0-.669,3.08,4.185,4.185,0,0,0,.9,2.844,2.783,2.783,0,0,0,2.176,1.038,3.257,3.257,0,0,0,1.472-.368,4.839,4.839,0,0,0,1.473-1.238l.134-.2q.065-2.275.2-4.854t.4-5.255l-.335-.2h-.335a4.859,4.859,0,0,0-2.778,1.305,9,9,0,0,0-2.644,3.85Z" transform="translate(-411.71 -854.98)" fill="#fff"/>
          </g>
          <path id="Path_12-3" data-name="Path 12" d="M687.014,1347.736a8.363,8.363,0,0,1-3.044-.583,8.659,8.659,0,0,1-2.675-1.629,7.8,7.8,0,0,1-2.582-5.9,16.8,16.8,0,0,1,1.076-6.026,16.3,16.3,0,0,1,2.921-4.95,13.9,13.9,0,0,1,4.3-3.351,11.654,11.654,0,0,1,5.288-1.23,13.741,13.741,0,0,1,2.06.154,10.112,10.112,0,0,1,1.875.461q.245-2.273.584-4.4t.677-3.782q.336-1.662.676-2.8a3.784,3.784,0,0,1,.708-1.507,5.892,5.892,0,0,1,2.275-1.721,6.442,6.442,0,0,1,2.4-.492,6.661,6.661,0,0,1,3.013.646,8.758,8.758,0,0,1,2.183,1.507,6.735,6.735,0,0,1,1.322,1.691,3.125,3.125,0,0,1,.43,1.2,28.826,28.826,0,0,1-.461,4.12q-.462,2.83-1.2,6.272t-1.6,7.163q-.862,3.722-1.662,6.857t-1.415,5.226a9.221,9.221,0,0,1-.861,2.337,2.39,2.39,0,0,1-1.168.553,7.933,7.933,0,0,1-1.783.184q-.923,0-1.753-.061a4.92,4.92,0,0,1-1.507-.339,3.014,3.014,0,0,1-1.138-.8,3.048,3.048,0,0,1-.646-1.445l-.064.064a16.509,16.509,0,0,1-3.6,1.907A13.5,13.5,0,0,1,687.014,1347.736Zm3.013-13.1a7.349,7.349,0,0,0-.615,2.829,3.844,3.844,0,0,0,.831,2.613,2.556,2.556,0,0,0,2,.953,2.993,2.993,0,0,0,1.352-.338,4.446,4.446,0,0,0,1.353-1.137l.123-.185q.06-2.09.184-4.458t.369-4.827l-.308-.184h-.307a4.464,4.464,0,0,0-2.552,1.2,8.269,8.269,0,0,0-2.428,3.536Z" transform="translate(-519.135 -1211.732)" fill="#7ab900"/>
        </g>
        <g transform="matrix(1, 0, 0, 1, -108.42, -358.75)" filter="url(#Path_13)">
          <path id="Path_13-2" data-name="Path 13" d="M734.71,1359.385a7.8,7.8,0,0,1-3.4-.8,9.97,9.97,0,0,1-2.953-2.154,10.989,10.989,0,0,1-2.084-3.162,9.492,9.492,0,0,1-.8-3.891,19.561,19.561,0,0,1,1.182-6.774,17.763,17.763,0,0,1,3.266-5.628,16.165,16.165,0,0,1,4.864-3.822,12.914,12.914,0,0,1,5.975-1.424,13.987,13.987,0,0,1,3.265.382,8.768,8.768,0,0,1,2.85,1.216,6.9,6.9,0,0,1,2.05,2.119,5.753,5.753,0,0,1,.794,3.092,7.14,7.14,0,0,1-.939,3.684,8.5,8.5,0,0,1-2.466,2.672,11.392,11.392,0,0,1-3.473,1.633,14.08,14.08,0,0,1-3.891.556h-.695a3.524,3.524,0,0,1-.7-.072,5.306,5.306,0,0,0,1.011,3.37,2.97,2.97,0,0,0,2.4,1.285,1.912,1.912,0,0,0,1.077-.347,10.644,10.644,0,0,0,1.007-.764c.324-.278.65-.532.972-.764a1.66,1.66,0,0,1,.974-.347,2.039,2.039,0,0,1,1.423.625,2.189,2.189,0,0,1,.662,1.667,4.566,4.566,0,0,1-.9,2.467,9.676,9.676,0,0,1-2.535,2.5,15.162,15.162,0,0,1-3.926,1.911,15.757,15.757,0,0,1-5,.768Zm9.727-20.706a.9.9,0,0,0-.833-.487,2.488,2.488,0,0,0-1.25.417,9.14,9.14,0,0,0-2.537,2.293,6.105,6.105,0,0,0-.729,1.181,3.707,3.707,0,0,0,.834.072,5.553,5.553,0,0,0,1.632-.243,6.645,6.645,0,0,0,1.494-.661,4.122,4.122,0,0,0,1.113-.939,1.718,1.718,0,0,0,.417-1.077,2.255,2.255,0,0,0-.141-.558Z" transform="translate(-427.47 -862.73)" fill="#fff"/>
        </g>
        <path id="Path_13-3" data-name="Path 13" d="M733.824,1356.681a7.067,7.067,0,0,1-3.078-.721,9.01,9.01,0,0,1-2.67-1.943,9.912,9.912,0,0,1-1.885-2.852,8.55,8.55,0,0,1-.723-3.511,17.613,17.613,0,0,1,1.068-6.112,16.021,16.021,0,0,1,2.953-5.078,14.61,14.61,0,0,1,4.4-3.448,11.7,11.7,0,0,1,5.4-1.285,12.674,12.674,0,0,1,2.951.345,7.936,7.936,0,0,1,2.577,1.1,6.236,6.236,0,0,1,1.854,1.912,5.181,5.181,0,0,1,.718,2.79,6.431,6.431,0,0,1-.849,3.323,7.671,7.671,0,0,1-2.23,2.411,10.31,10.31,0,0,1-3.14,1.473,12.757,12.757,0,0,1-3.518.5h-.628a3.191,3.191,0,0,1-.629-.065,4.78,4.78,0,0,0,.914,3.04,2.687,2.687,0,0,0,2.167,1.16,1.729,1.729,0,0,0,.974-.313,9.585,9.585,0,0,0,.91-.689c.292-.251.588-.48.879-.689a1.5,1.5,0,0,1,.881-.313,1.844,1.844,0,0,1,1.286.564,1.973,1.973,0,0,1,.6,1.5,4.114,4.114,0,0,1-.818,2.226,8.741,8.741,0,0,1-2.292,2.257,13.723,13.723,0,0,1-3.55,1.724,14.281,14.281,0,0,1-4.523.693ZM742.618,1338a.815.815,0,0,0-.753-.439,2.25,2.25,0,0,0-1.13.377,8.257,8.257,0,0,0-2.293,2.069,5.505,5.505,0,0,0-.659,1.065,3.348,3.348,0,0,0,.754.065,5.034,5.034,0,0,0,1.476-.219,6.013,6.013,0,0,0,1.35-.6,3.721,3.721,0,0,0,1.006-.847,1.547,1.547,0,0,0,.377-.971,2.029,2.029,0,0,0-.127-.5Z" transform="translate(-534.892 -1219.96)" fill="#fcd306"/>
        <g id="Group_1363" data-name="Group 1363" transform="translate(1)">
          <g id="Group_1361" data-name="Group 1361">
            <g transform="matrix(1, 0, 0, 1, -109.42, -358.75)" filter="url(#Path_11)">
              <path id="Path_11-2" data-name="Path 11" d="M657.167,1336.027q.137-1.167,1.855-1.819a10.953,10.953,0,0,1,3.912-.652,12.172,12.172,0,0,1,2.677.309,8.569,8.569,0,0,1,2.436.928,5.382,5.382,0,0,1,1.75,1.613,4.19,4.19,0,0,1,.686,2.436v.549a2.318,2.318,0,0,1-.068.549q-.619,3.3-1.408,6.452t-1.51,5.7q-.721,2.54-1.339,4.152a8.435,8.435,0,0,1-.824,1.817,2.635,2.635,0,0,1-1.269.618,8.414,8.414,0,0,1-1.956.205,13.1,13.1,0,0,1-2.64-.275,7.208,7.208,0,0,1-2.162-.754q-.618-.207-.856-2.025a37.2,37.2,0,0,1-.24-4.7q0-3.155.24-7.1T657.167,1336.027Z" transform="translate(-403.21 -862.56)" fill="#fff"/>
            </g>
            <path id="Path_11-3" data-name="Path 11" d="M657.067,1335.77q.123-1.045,1.662-1.629a9.813,9.813,0,0,1,3.5-.584,10.906,10.906,0,0,1,2.4.277,7.676,7.676,0,0,1,2.183.831,4.821,4.821,0,0,1,1.568,1.445,3.754,3.754,0,0,1,.615,2.183v.492a2.078,2.078,0,0,1-.061.492q-.554,2.952-1.261,5.78t-1.352,5.1q-.646,2.276-1.2,3.72a7.556,7.556,0,0,1-.738,1.627,2.361,2.361,0,0,1-1.137.553,7.536,7.536,0,0,1-1.753.184,11.734,11.734,0,0,1-2.365-.246,6.456,6.456,0,0,1-1.937-.676q-.554-.185-.767-1.814a33.316,33.316,0,0,1-.215-4.213q0-2.827.215-6.364T657.067,1335.77Z" transform="translate(-511.632 -1220.307)" fill="#0f9ce9"/>
          </g>
          <g id="Group_1362" data-name="Group 1362">
            <g transform="matrix(1, 0, 0, 1, -109.42, -358.75)" filter="url(#Path_14)">
              <path id="Path_14-2" data-name="Path 14" d="M668.465,1308.54l2.321,4.7,5.19.754-3.755,3.661.886,5.169-4.642-2.44-4.642,2.44.887-5.169L660.953,1314l5.19-.754Z" transform="translate(-405.95 -851.54)" fill="#fff"/>
            </g>
            <path id="Path_14-3" data-name="Path 14" d="M667.187,1308.54l1.926,3.9,4.307.626-3.117,3.038.736,4.29-3.852-2.025-3.852,2.025.736-4.29-3.117-3.038,4.307-.626Z" transform="translate(-514.376 -1209.292)" fill="#0f9ce9"/>
          </g>
        </g>
        <path id="Path_15" data-name="Path 15" d="M718,1198.173l-8.661,5v37.384l8.661,5a11.209,11.209,0,0,0,16.81-9.707V1207.88a11.208,11.208,0,0,0-16.81-9.707Z" transform="translate(-530.363 -1169.498)" fill="#e23464"/>
        <path id="Path_16" data-name="Path 16" d="M697.018,1212.62v28.288l4.11,2.373v-33.034Z" transform="translate(-525.916 -1174.396)" fill="#1a1a1a"/>
        <path id="Path_17" data-name="Path 17" d="M523.347,1198.286l-5.365,45.515c-.946,8.2,5.4,15.262,13.114,14.584l86.135-7.574c6.346-.558,11.224-6.233,11.2-13.033l-1.127-39.437c-.022-7.272-5.611-13.119-12.419-12.991l-79.642,1.5C529.164,1186.96,524.09,1191.837,523.347,1198.286Z" transform="translate(-461.283 -1165.412)" fill="#1a1a1a"/>
        <path id="Path_18" data-name="Path 18" d="M529.994,1206.03l-4.71,37.189a11.173,11.173,0,0,0,12.006,12.5l78.858-6.492a11.173,11.173,0,0,0,10.256-11.172l-1.233-31.979a11.174,11.174,0,0,0-11.37-11.135l-72.916,1.283A11.174,11.174,0,0,0,529.994,1206.03Z" transform="translate(-463.921 -1168.873)" fill="#e23464"/>
        <path id="Path_19" data-name="Path 19" d="M626.044,1244.925c-.409,7.356-3.276,10.531-9.085,11.01l-80.029,6.655a11.173,11.173,0,0,1-12.006-12.5l4.583-35.482Z" transform="translate(-463.791 -1175.969)" fill="#952275" opacity="0.34"/>
        <ellipse id="Ellipse_1" data-name="Ellipse 1" cx="14.589" cy="14.589" rx="14.589" ry="14.589" transform="translate(122.831 0.36)" fill="url(#linear-gradient)"/>
        <ellipse id="Ellipse_2" data-name="Ellipse 2" cx="14.355" cy="14.355" rx="14.355" ry="14.355" transform="translate(81.535 3.731)" fill="url(#linear-gradient-2)"/>
        <path id="Path_20" data-name="Path 20" d="M558.256,1176.405a14.342,14.342,0,0,1,25.12-9.478,14.344,14.344,0,1,0-22.891,17.135A14.268,14.268,0,0,1,558.256,1176.405Z" transform="translate(-475.356 -1156.346)" fill="#1a1a1a"/>
        <path id="Path_21" data-name="Path 21" d="M649.456,1165.907a14.6,14.6,0,0,0-27.246-.427,14.606,14.606,0,0,1,27.938-1.763,14.3,14.3,0,0,1-.241,10.21A14.261,14.261,0,0,0,649.456,1165.907Z" transform="translate(-498.924 -1154.158)" fill="#1a1a1a"/>
        <ellipse id="Ellipse_3" data-name="Ellipse 3" cx="5.174" cy="5.174" rx="5.174" ry="5.174" transform="translate(91.522 15.39)" fill="#1a1a1a"/>
        <ellipse id="Ellipse_4" data-name="Ellipse 4" cx="5.074" cy="5.074" rx="5.074" ry="5.074" transform="translate(131.258 14.194)" fill="#1a1a1a"/>
        <path id="Path_22" data-name="Path 22" d="M566.213,1238.984s13.9,25.854,34.865,18.187,21.173-18.959,21.173-18.959S601.995,1261.93,566.213,1238.984Z" transform="translate(-478.719 -1184.486)" fill="#eecdd6"/>
        <g id="Group_17" data-name="Group 17" transform="translate(85.687 51.925)">
          <g id="Group_13" data-name="Group 13" transform="translate(24.529 10.939)">
            <g id="Group_11" data-name="Group 11" transform="translate(0.226 0.239)">
              <path id="Path_23" data-name="Path 23" d="M604.292,1257.451l-.861-.059a1.412,1.412,0,0,1-1.312-1.505l.206-3,3.679.252-.206,3a1.413,1.413,0,0,1-1.506,1.313Z" transform="translate(-602.116 -1252.882)" fill="#fff"/>
            </g>
            <g id="Group_12" data-name="Group 12">
              <path id="Path_24" data-name="Path 24" d="M604.262,1257.546h-.113l-.861-.059a1.64,1.64,0,0,1-1.522-1.746l.222-3.232,4.13.283-.222,3.231A1.64,1.64,0,0,1,604.262,1257.546Zm-.082-.454a1.184,1.184,0,0,0,1.264-1.1l.192-2.781-3.228-.221-.192,2.78a1.184,1.184,0,0,0,1.1,1.264Z" transform="translate(-601.762 -1252.509)" fill="#33111f"/>
            </g>
          </g>
          <g id="Group_16" data-name="Group 16" transform="translate(27.914 11.166)">
            <g id="Group_14" data-name="Group 14" transform="translate(0.226 0.242)">
              <path id="Path_25" data-name="Path 25" d="M609.587,1257.811l-.861-.059a1.412,1.412,0,0,1-1.312-1.505l.206-3,3.679.256-.206,3a1.413,1.413,0,0,1-1.506,1.309Z" transform="translate(-607.411 -1253.243)" fill="#fff"/>
            </g>
            <g id="Group_15" data-name="Group 15">
              <path id="Path_26" data-name="Path 26" d="M609.558,1257.9a1.113,1.113,0,0,1-.114,0l-.861-.059a1.64,1.64,0,0,1-1.523-1.746l.222-3.232,4.13.283-.222,3.231A1.639,1.639,0,0,1,609.558,1257.9Zm-1.854-4.559-.192,2.781a1.187,1.187,0,0,0,1.1,1.264l.861.059a1.2,1.2,0,0,0,1.264-1.1l.192-2.78Z" transform="translate(-607.057 -1252.864)" fill="#33111f"/>
            </g>
          </g>
          <path id="Path_27" data-name="Path 27" d="M621.875,1235.513a1.809,1.809,0,0,0-2.016.511,34.432,34.432,0,0,1-24.784,10.141c-9.128,0-18.856-3.268-28.906-9.716a1.808,1.808,0,0,0-2.568,2.378c.451.84,11.257,20.56,28.7,20.56a24.328,24.328,0,0,0,8.373-1.534c21.873-8,22.35-20.111,22.359-20.622A1.806,1.806,0,0,0,621.875,1235.513Zm-21.817,20.646c-20.961,7.667-34.865-18.187-34.865-18.187,35.782,22.941,56.038-.773,56.038-.773s-.212,11.289-21.173,18.959Z" transform="translate(-563.386 -1235.394)" fill="#1a1a1a"/>
        </g>
      </g>
    </g>
    <g id="Group_322" data-name="Group 322" transform="translate(-8089.729 -5928.43)">
      <g id="Group_1388" data-name="Group 1388" transform="translate(8166.522 6160.688)">
        <path id="Path_67" data-name="Path 67" d="M2552.345,2172.514a2.442,2.442,0,0,0-.712-2.5l-8.128-7.377,1.468-10.879a2.458,2.458,0,0,0-3.656-2.463l-9.528,5.451-9.893-4.758a2.458,2.458,0,0,0-3.472,2.717l2.24,10.747-7.582,7.937a2.458,2.458,0,0,0,1.51,4.143l10.913,1.191,5.206,9.664a2.441,2.441,0,0,0,2.252,1.291,2.44,2.44,0,0,0,2.154-1.448l4.5-10.011,10.8-1.965A2.444,2.444,0,0,0,2552.345,2172.514Z" transform="translate(-2512.399 -2148.972)" fill="#fff"/>
      </g>
      <g id="Group_1387" data-name="Group 1387" transform="translate(8218.959 6004.189)">
        <path id="Path_68" data-name="Path 68" d="M1034.068,528.869a2.711,2.711,0,0,0,.179-2.876l-5.776-10.732,5.565-10.842a2.729,2.729,0,0,0-2.915-3.932l-11.991,2.178-8.592-8.644a2.73,2.73,0,0,0-4.641,1.558l-1.635,12.077-10.875,5.5a2.73,2.73,0,0,0,.047,4.9l10.981,5.286,1.871,12.043a2.729,2.729,0,0,0,4.67,1.467l8.422-8.81,12.031,1.943A2.712,2.712,0,0,0,1034.068,528.869Z" transform="translate(-991.889 -493.214)" fill="#fff"/>
      </g>
      <g id="Group_1386" data-name="Group 1386" transform="translate(8320.164 6006.927)">
        <g id="Group_58" data-name="Group 58" transform="translate(11.842 15.351)" style="mix-blend-mode: multiply;isolation: isolate">
          <path id="Path_41-2" data-name="Path 41" d="M1690.575,644.158a5.3,5.3,0,0,1,4.746-3.023l23.8-.26,13.275-19.749a5.33,5.33,0,0,1,9.474,1.272l7.6,22.549,22.885,6.523a5.33,5.33,0,0,1,1.719,9.4l-19.1,14.2.869,23.781a5.33,5.33,0,0,1-8.411,4.54l-19.4-13.776-22.349,8.175a5.33,5.33,0,0,1-6.917-6.6l7.106-22.711-14.681-18.729A5.3,5.3,0,0,1,1690.575,644.158Z" transform="translate(-1690.045 -618.768)" fill="#fff" opacity="0"/>
        </g>
        <path id="Path_42-2" data-name="Path 42" d="M1648.407,589.492a5.3,5.3,0,0,1,4.746-3.023l23.8-.26,13.275-19.749a5.329,5.329,0,0,1,9.473,1.272l7.6,22.55,22.886,6.522a5.329,5.329,0,0,1,1.718,9.4l-19.1,14.2.868,23.781a5.33,5.33,0,0,1-8.411,4.54l-19.4-13.777-22.349,8.175a5.33,5.33,0,0,1-6.917-6.6l7.106-22.711-14.681-18.729A5.3,5.3,0,0,1,1648.407,589.492Z" transform="translate(-1647.877 -564.102)" fill="#fff"/>
      </g>
      <g id="Group_1384" data-name="Group 1384" transform="translate(8105.489 5953.211)">
        <path id="Path_46-2" data-name="Path 46" d="M716.615,462.221h0l-53.984-91.332A5.975,5.975,0,0,0,654,369.071L631.924,384.9a5.977,5.977,0,0,0-.624,9.2l78.129,73.853a4.642,4.642,0,0,0,7.185-5.735Z" transform="translate(-624.848 -367.951)" fill="#fff"/>
        <path id="Path_47-2" data-name="Path 47" d="M688.314,614.865h0l-55.86-43.1a6.742,6.742,0,0,0-9.8,1.705l-8.174,12.782a6.743,6.743,0,0,0,3.2,9.9L684,622.447a4.449,4.449,0,0,0,1.646.317,4.41,4.41,0,0,0,2.669-7.9Z" transform="translate(-613.418 -512.449)" fill="#fff"/>
      </g>
      <g id="Group_1383" data-name="Group 1383" transform="matrix(-0.438, 0.899, -0.899, -0.438, 8310.171, 6643.224)">
        <path id="Path_53-2" data-name="Path 53" d="M2413.643,1303.167h0l50.411-5.646a3.822,3.822,0,0,0,3.037-1.976,4.522,4.522,0,0,0,.033-3.849l-4.516-10.786a6.58,6.58,0,0,0-3.242-3.346,5.154,5.154,0,0,0-4.272-.21l-44.355,19.684a2.437,2.437,0,0,0-.892.663,2.831,2.831,0,0,0-.214,3.082A4.125,4.125,0,0,0,2413.643,1303.167Z" transform="translate(-2409.286 -1276.985)" fill="#fff"/>
      </g>
      <path id="Path_20650" data-name="Path 20650" d="M997.336,2486l-4.478,12.66a1.294,1.294,0,0,1-.885.818L979,2502.961a1.3,1.3,0,0,0-.453,2.281l10.656,8.172a1.3,1.3,0,0,1,.506,1.1l-.691,13.411a1.3,1.3,0,0,0,2.03,1.136l11.065-7.611a1.3,1.3,0,0,1,1.2-.142l12.541,4.8a1.3,1.3,0,0,0,1.706-1.581l-3.817-12.874a1.3,1.3,0,0,1,.235-1.183l8.441-10.445a1.3,1.3,0,0,0-.975-2.11l-13.424-.348a1.3,1.3,0,0,1-1.052-.59l-7.325-11.255A1.3,1.3,0,0,0,997.336,2486Z" transform="translate(7192.385 4195.795)" fill="#fff"/>
      <g id="Group_29" data-name="Group 29" transform="translate(8414.301 6162.684)">
        <path id="Path_20651" data-name="Path 20651" d="M2214.035,1388.466a4.494,4.494,0,0,1,4.672-.981l18.968,6.906,16.442-11.71a4.521,4.521,0,0,1,7.141,3.84l-.707,20.175,16.219,12.019a4.521,4.521,0,0,1-1.446,7.978l-19.4,5.563-6.419,19.138a4.521,4.521,0,0,1-8.035,1.09l-11.286-16.737-20.186-.19a4.491,4.491,0,0,1-4.029-2.559,4.49,4.49,0,0,1,.51-4.746l12.429-15.906-6.057-19.256A4.5,4.5,0,0,1,2214.035,1388.466Z" transform="translate(-2210.511 -1386.886)" fill="#fff"/>
        <g id="Group_28" data-name="Group 28" transform="translate(4.146 13.552)" style="mix-blend-mode: multiply;isolation: isolate">
          <path id="Path_25-2" data-name="Path 25" d="M2229.124,1440.715a3.869,3.869,0,0,1,4.025-.845l16.345,5.951,14.167-10.091a3.9,3.9,0,0,1,6.152,3.31l-.608,17.383,13.974,10.357a3.895,3.895,0,0,1-1.246,6.874l-16.721,4.793-5.531,16.491a3.9,3.9,0,0,1-6.922.939l-9.725-14.421-17.393-.165a3.9,3.9,0,0,1-3.033-6.294l10.711-13.7L2228.1,1444.7A3.87,3.87,0,0,1,2229.124,1440.715Z" transform="translate(-2221.779 -1435.003)" fill="#fff" opacity="0"/>
        </g>
        <path id="Path_26-2" data-name="Path 26" d="M2212.856,1387.549a3.872,3.872,0,0,1,4.025-.845l16.344,5.951,14.168-10.09a3.9,3.9,0,0,1,6.153,3.309l-.609,17.384,13.975,10.356a3.9,3.9,0,0,1-1.246,6.874l-16.721,4.793-5.531,16.49a3.9,3.9,0,0,1-6.923.939l-9.725-14.421-17.393-.164a3.871,3.871,0,0,1-3.471-2.2,3.869,3.869,0,0,1,.439-4.089l10.71-13.706-5.219-16.592A3.873,3.873,0,0,1,2212.856,1387.549Z" transform="translate(-2205.511 -1381.838)" fill="#e92532"/>
      </g>
      <g id="Group_59" data-name="Group 59" transform="translate(8325.165 6011.25)">
        <g id="Group_58-2" data-name="Group 58" transform="translate(10.748 13.934)" style="mix-blend-mode: multiply;isolation: isolate">
          <path id="Path_41-3" data-name="Path 41" d="M1690.526,641.813a4.806,4.806,0,0,1,4.308-2.744l21.6-.236,12.049-17.926a4.837,4.837,0,0,1,8.6,1.154l6.9,20.467,20.772,5.921a4.838,4.838,0,0,1,1.56,8.534l-17.335,12.886.788,21.585a4.837,4.837,0,0,1-7.635,4.12l-17.612-12.5-20.285,7.42a4.837,4.837,0,0,1-6.278-5.987l6.45-20.614-13.325-17A4.807,4.807,0,0,1,1690.526,641.813Z" transform="translate(-1690.045 -618.768)" fill="#fff" opacity="0"/>
        </g>
        <path id="Path_42-3" data-name="Path 42" d="M1648.359,587.148a4.808,4.808,0,0,1,4.308-2.744l21.6-.236,12.05-17.926a4.837,4.837,0,0,1,8.6,1.154l6.9,20.468,20.772,5.92a4.837,4.837,0,0,1,1.559,8.534L1706.809,615.2l.788,21.585a4.838,4.838,0,0,1-7.635,4.121l-17.612-12.5-20.285,7.42a4.837,4.837,0,0,1-6.278-5.987l6.45-20.614-13.325-17A4.807,4.807,0,0,1,1648.359,587.148Z" transform="translate(-1647.877 -564.102)" fill="#e9a025"/>
      </g>
      <path id="Path_45-2" data-name="Path 45" d="M993.413,2485.82l-3.568,10.085a1.031,1.031,0,0,1-.705.652l-10.331,2.779a1.033,1.033,0,0,0-.361,1.817l8.489,6.51a1.033,1.033,0,0,1,.4.873l-.55,10.684a1.033,1.033,0,0,0,1.617.9l8.815-6.063a1.032,1.032,0,0,1,.954-.113l9.991,3.825a1.033,1.033,0,0,0,1.359-1.259l-3.041-10.256a1.032,1.032,0,0,1,.187-.942l6.725-8.321a1.033,1.033,0,0,0-.777-1.681l-10.694-.277a1.032,1.032,0,0,1-.838-.47l-5.836-8.967A1.033,1.033,0,0,0,993.413,2485.82Z" transform="translate(7197.386 4200.773)" fill="#e9a025"/>
      <g id="Group_60" data-name="Group 60" transform="translate(8110.49 5959.252)">
        <path id="Path_46-3" data-name="Path 46" d="M707.1,451.931h0l-48.091-81.363a5.323,5.323,0,0,0-7.686-1.619l-19.669,14.1a5.325,5.325,0,0,0-.556,8.2l69.6,65.792a4.135,4.135,0,0,0,6.4-5.109Z" transform="translate(-625.348 -367.951)" fill="#dc2e7c"/>
        <path id="Path_47-3" data-name="Path 47" d="M680.139,610.008h0l-49.763-38.392a6.006,6.006,0,0,0-8.729,1.519l-7.281,11.387a6.007,6.007,0,0,0,2.847,8.819l59.082,23.421a3.965,3.965,0,0,0,1.466.283,3.929,3.929,0,0,0,2.378-7.037Z" transform="translate(-613.418 -518.771)" fill="#dc2e7c"/>
      </g>
      <g id="Group_1381" data-name="Group 1381" transform="translate(8429.173 6706.466) rotate(107)">
        <path id="Path_48-2" data-name="Path 48" d="M2329.926,712.231h0l83.1-36.062a5.1,5.1,0,0,0,2.453-7.117L2404.4,648.668a5.1,5.1,0,0,0-7.73-1.5l-70.845,58.371a3.963,3.963,0,0,0,4.1,6.695Z" transform="translate(-2318.372 -636.222)" fill="#fff"/>
        <path id="Path_49-2" data-name="Path 49" d="M2310.018,672.982h0l42.43-42.762a5.756,5.756,0,0,0-.407-8.481l-9.965-8.279a5.757,5.757,0,0,0-8.726,1.659l-29.3,53.405a3.785,3.785,0,0,0-.443,1.36,3.766,3.766,0,0,0,6.41,3.1Z" transform="translate(-2303.579 -612.131)" fill="#fff"/>
      </g>
      <g id="Group_61" data-name="Group 61" transform="translate(8423.282 6710.793) rotate(107)">
        <path id="Path_48-3" data-name="Path 48" d="M2329.276,704.478h0l73.37-31.84a4.506,4.506,0,0,0,2.166-6.284l-9.776-18a4.506,4.506,0,0,0-6.825-1.327l-62.552,51.538a3.5,3.5,0,0,0,3.618,5.911Z" transform="translate(-2319.075 -637.367)" fill="#45dc2e"/>
        <path id="Path_49-3" data-name="Path 49" d="M2309.264,665.859h0l37.463-37.756a5.082,5.082,0,0,0-.36-7.489l-8.8-7.31a5.083,5.083,0,0,0-7.7,1.464L2304,661.922a3.34,3.34,0,0,0-.391,1.2,3.325,3.325,0,0,0,5.659,2.735Z" transform="translate(-2303.579 -612.131)" fill="#45dc2e"/>
      </g>
      <g id="Group_1380" data-name="Group 1380" transform="translate(8394.717 6613.156)">
        <path id="Path_52-2" data-name="Path 52" d="M2162.848,2037.373h0l71.136,54.262a4.446,4.446,0,0,1,1.858,3.246A3.642,3.642,0,0,1,2234.3,2098l-16.922,12.583a5.659,5.659,0,0,1-4.215.931,5.983,5.983,0,0,1-3.837-2.157l-52.486-67.993a3,3,0,0,1-.644-2.46,2.951,2.951,0,0,1,1.312-1.842A4.743,4.743,0,0,1,2162.848,2037.373Z" transform="translate(-2156.137 -2036.38)" fill="#fff"/>
      </g>
      <g id="Group_63" data-name="Group 63" transform="translate(8401.717 6620.522)">
        <path id="Path_52-3" data-name="Path 52" d="M2162.012,2037.249h0l62.277,47.5a3.892,3.892,0,0,1,1.626,2.841,3.189,3.189,0,0,1-1.354,2.73l-14.814,11.016a4.954,4.954,0,0,1-3.69.815,5.238,5.238,0,0,1-3.359-1.888l-45.949-59.525a2.629,2.629,0,0,1-.563-2.153,2.583,2.583,0,0,1,1.148-1.613A4.153,4.153,0,0,1,2162.012,2037.249Z" transform="translate(-2156.137 -2036.38)" fill="#e9a025"/>
      </g>
      <g id="Group_1382" data-name="Group 1382" transform="translate(8165.905 6557.782)">
        <g id="Group_65" data-name="Group 65" transform="translate(0 0)" style="mix-blend-mode: multiply;isolation: isolate">
          <path id="Path_54-2" data-name="Path 54" d="M2488.487,2024.493a9.54,9.54,0,1,1-3.341-13.07A9.539,9.539,0,0,1,2488.487,2024.493Z" transform="translate(-2470.741 -2005.178)" fill="#fff" opacity="0"/>
          <path id="Path_55-2" data-name="Path 55" d="M2489.378,2024.114a9.539,9.539,0,1,1-3.342-13.07A9.54,9.54,0,0,1,2489.378,2024.114Z" transform="translate(-2471.379 -2004.907)" fill="#fff" opacity="0.063"/>
          <path id="Path_56-2" data-name="Path 56" d="M2490.27,2023.735a9.54,9.54,0,1,1-3.342-13.07A9.54,9.54,0,0,1,2490.27,2023.735Z" transform="translate(-2472.016 -2004.635)" fill="#fff" opacity="0.125"/>
          <path id="Path_57-2" data-name="Path 57" d="M2491.16,2023.355a9.539,9.539,0,1,1-3.341-13.07A9.54,9.54,0,0,1,2491.16,2023.355Z" transform="translate(-2472.654 -2004.363)" fill="#fff" opacity="0.188"/>
          <path id="Path_58-2" data-name="Path 58" d="M2492.051,2022.974a9.539,9.539,0,1,1-3.342-13.07A9.538,9.538,0,0,1,2492.051,2022.974Z" transform="translate(-2473.291 -2004.092)" fill="#fff" opacity="0.25"/>
          <path id="Path_59-2" data-name="Path 59" d="M2492.943,2022.594a9.539,9.539,0,1,1-3.342-13.07A9.539,9.539,0,0,1,2492.943,2022.594Z" transform="translate(-2473.929 -2003.819)" fill="#fff" opacity="0.313"/>
          <path id="Path_60-2" data-name="Path 60" d="M2493.833,2022.215a9.539,9.539,0,1,1-3.342-13.071A9.539,9.539,0,0,1,2493.833,2022.215Z" transform="translate(-2474.567 -2003.548)" fill="#fff" opacity="0.375"/>
          <path id="Path_61" data-name="Path 61" d="M2494.724,2021.835a9.539,9.539,0,1,1-3.342-13.07A9.539,9.539,0,0,1,2494.724,2021.835Z" transform="translate(-2475.204 -2003.276)" fill="#fff" opacity="0.438"/>
          <path id="Path_62" data-name="Path 62" d="M2495.616,2021.455a9.539,9.539,0,1,1-3.342-13.071A9.541,9.541,0,0,1,2495.616,2021.455Z" transform="translate(-2475.842 -2003.004)" fill="#fff" opacity="0.5"/>
          <path id="Path_63" data-name="Path 63" d="M2496.507,2021.075a9.539,9.539,0,1,1-3.342-13.07A9.539,9.539,0,0,1,2496.507,2021.075Z" transform="translate(-2476.481 -2002.732)" fill="#fff" opacity="0.563"/>
          <path id="Path_64" data-name="Path 64" d="M2497.4,2020.7a9.539,9.539,0,1,1-3.341-13.07A9.54,9.54,0,0,1,2497.4,2020.7Z" transform="translate(-2477.117 -2002.461)" fill="#fff" opacity="0.625"/>
          <path id="Path_65" data-name="Path 65" d="M2498.289,2020.316a9.539,9.539,0,1,1-3.342-13.07A9.539,9.539,0,0,1,2498.289,2020.316Z" transform="translate(-2477.755 -2002.189)" fill="#fff" opacity="0.688"/>
          <ellipse id="Ellipse_13" data-name="Ellipse 13" cx="9.539" cy="9.539" rx="9.539" ry="9.539" transform="translate(1.838 21.314) rotate(-82.216)" fill="#fff" opacity="0.75"/>
          <ellipse id="Ellipse_14" data-name="Ellipse 14" cx="9.539" cy="9.539" rx="9.539" ry="9.539" transform="matrix(0.207, -0.978, 0.978, 0.207, 1.529, 20.408)" fill="#fff" opacity="0.813"/>
          <ellipse id="Ellipse_15" data-name="Ellipse 15" cx="9.539" cy="9.539" rx="9.539" ry="9.539" transform="matrix(0.283, -0.959, 0.959, 0.283, 1.241, 19.393)" fill="#fff" opacity="0.875"/>
          <ellipse id="Ellipse_16" data-name="Ellipse 16" cx="9.539" cy="9.539" rx="9.539" ry="9.539" transform="translate(1.013 18.309) rotate(-68.956)" fill="#fff" opacity="0.938"/>
          <ellipse id="Ellipse_17" data-name="Ellipse 17" cx="9.539" cy="9.539" rx="9.539" ry="9.539" transform="translate(0.871 17.208) rotate(-64.42)" fill="#fff"/>
        </g>
        <ellipse id="Ellipse_18" data-name="Ellipse 18" cx="9.539" cy="9.539" rx="9.539" ry="9.539" transform="translate(0.871 17.208) rotate(-64.42)" fill="#fff"/>
      </g>
      <g id="Group_64" data-name="Group 64" transform="matrix(-0.438, 0.899, -0.899, -0.438, 8306.268, 6646.804)">
        <path id="Path_53-3" data-name="Path 53" d="M2412.942,1298.951h0l42.294-4.737a3.206,3.206,0,0,0,2.548-1.658,3.793,3.793,0,0,0,.028-3.229l-3.789-9.049a5.52,5.52,0,0,0-2.72-2.807,4.324,4.324,0,0,0-3.584-.177l-37.213,16.514a2.042,2.042,0,0,0-.749.557,2.376,2.376,0,0,0-.18,2.586A3.461,3.461,0,0,0,2412.942,1298.951Z" transform="translate(-2409.286 -1276.985)" fill="#90c747"/>
      </g>
      <g id="Group_66" data-name="Group 66" transform="translate(8166.906 6559.418)">
        <g id="Group_65-2" data-name="Group 65" transform="translate(0 0)" style="mix-blend-mode: multiply;isolation: isolate">
          <path id="Path_54-3" data-name="Path 54" d="M2486.649,2023a8.551,8.551,0,1,1-3-11.716A8.551,8.551,0,0,1,2486.649,2023Z" transform="translate(-2470.741 -2005.687)" fill="#fff" opacity="0"/>
          <path id="Path_55-3" data-name="Path 55" d="M2487.54,2022.623a8.551,8.551,0,1,1-3-11.716A8.552,8.552,0,0,1,2487.54,2022.623Z" transform="translate(-2471.405 -2005.405)" fill="#f9f9f9" opacity="0.063"/>
          <path id="Path_56-3" data-name="Path 56" d="M2488.432,2022.243a8.551,8.551,0,1,1-3-11.716A8.551,8.551,0,0,1,2488.432,2022.243Z" transform="translate(-2472.069 -2005.122)" fill="#f2f2f2" opacity="0.125"/>
          <path id="Path_57-3" data-name="Path 57" d="M2489.322,2021.863a8.551,8.551,0,1,1-3-11.716A8.552,8.552,0,0,1,2489.322,2021.863Z" transform="translate(-2472.733 -2004.839)" fill="#ececec" opacity="0.188"/>
          <path id="Path_58-3" data-name="Path 58" d="M2490.213,2021.482a8.551,8.551,0,1,1-3-11.716A8.55,8.55,0,0,1,2490.213,2021.482Z" transform="translate(-2473.396 -2004.556)" fill="#e6e6e6" opacity="0.25"/>
          <path id="Path_59-3" data-name="Path 59" d="M2491.1,2021.1a8.551,8.551,0,1,1-3-11.716A8.551,8.551,0,0,1,2491.1,2021.1Z" transform="translate(-2474.061 -2004.272)" fill="#dfdfdf" opacity="0.313"/>
          <path id="Path_60-3" data-name="Path 60" d="M2492,2020.723a8.551,8.551,0,1,1-3-11.717A8.551,8.551,0,0,1,2492,2020.723Z" transform="translate(-2474.725 -2003.99)" fill="#d9d9d9" opacity="0.375"/>
          <path id="Path_61-2" data-name="Path 61" d="M2492.886,2020.343a8.551,8.551,0,1,1-3-11.716A8.551,8.551,0,0,1,2492.886,2020.343Z" transform="translate(-2475.388 -2003.706)" fill="#d2d2d2" opacity="0.438"/>
          <path id="Path_62-2" data-name="Path 62" d="M2493.778,2019.964a8.551,8.551,0,1,1-3-11.717A8.553,8.553,0,0,1,2493.778,2019.964Z" transform="translate(-2476.052 -2003.423)" fill="#ccc" opacity="0.5"/>
          <path id="Path_63-2" data-name="Path 63" d="M2494.669,2019.583a8.551,8.551,0,1,1-3-11.716A8.551,8.551,0,0,1,2494.669,2019.583Z" transform="translate(-2476.717 -2003.14)" fill="#c6c6c6" opacity="0.563"/>
          <path id="Path_64-2" data-name="Path 64" d="M2495.559,2019.2a8.551,8.551,0,1,1-3-11.716A8.552,8.552,0,0,1,2495.559,2019.2Z" transform="translate(-2477.38 -2002.858)" fill="#bfbfbf" opacity="0.625"/>
          <path id="Path_65-2" data-name="Path 65" d="M2496.451,2018.824a8.551,8.551,0,1,1-3-11.716A8.551,8.551,0,0,1,2496.451,2018.824Z" transform="translate(-2478.044 -2002.575)" fill="#b9b9b9" opacity="0.688"/>
          <ellipse id="Ellipse_13-2" data-name="Ellipse 13" cx="8.551" cy="8.551" rx="8.551" ry="8.551" transform="translate(1.647 19.107) rotate(-82.216)" fill="#b3b3b3" opacity="0.75"/>
          <ellipse id="Ellipse_14-2" data-name="Ellipse 14" cx="8.551" cy="8.551" rx="8.551" ry="8.551" transform="matrix(0.207, -0.978, 0.978, 0.207, 1.371, 18.294)" fill="#acacac" opacity="0.813"/>
          <ellipse id="Ellipse_15-2" data-name="Ellipse 15" cx="8.551" cy="8.551" rx="8.551" ry="8.551" transform="matrix(0.283, -0.959, 0.959, 0.283, 1.113, 17.385)" fill="#a6a6a6" opacity="0.875"/>
          <ellipse id="Ellipse_16-2" data-name="Ellipse 16" cx="8.551" cy="8.551" rx="8.551" ry="8.551" transform="translate(0.908 16.412) rotate(-68.956)" fill="#9f9f9f" opacity="0.938"/>
          <ellipse id="Ellipse_17-2" data-name="Ellipse 17" cx="8.551" cy="8.551" rx="8.551" ry="8.551" transform="translate(0.781 15.426) rotate(-64.42)" fill="#999"/>
        </g>
        <ellipse id="Ellipse_18-2" data-name="Ellipse 18" cx="8.551" cy="8.551" rx="8.551" ry="8.551" transform="translate(0.781 15.426) rotate(-64.42)" fill="#dc2e7c"/>
      </g>
      <g id="Group_68" data-name="Group 68" transform="translate(8171.523 6165.987)">
        <path id="Path_67-2" data-name="Path 67" d="M2541.717,2166.25a1.792,1.792,0,0,0-.522-1.832l-5.966-5.414,1.077-7.985a1.8,1.8,0,0,0-2.684-1.808l-6.993,4-7.261-3.492a1.8,1.8,0,0,0-2.548,1.994l1.644,7.887-5.565,5.825a1.8,1.8,0,0,0,1.108,3.04l8.01.874,3.821,7.093a1.791,1.791,0,0,0,1.653.948,1.79,1.79,0,0,0,1.581-1.063l3.306-7.348,7.927-1.442A1.793,1.793,0,0,0,2541.717,2166.25Z" transform="translate(-2512.399 -2148.972)" fill="#e9a025"/>
      </g>
      <g id="Group_69" data-name="Group 69" transform="translate(8221.959 6008.181)">
        <path id="Path_68-2" data-name="Path 68" d="M1027.438,523.265a2.285,2.285,0,0,0,.151-2.424l-4.869-9.045,4.69-9.138a2.3,2.3,0,0,0-2.457-3.314l-10.106,1.836-7.242-7.285a2.3,2.3,0,0,0-3.911,1.313l-1.378,10.179-9.166,4.636a2.3,2.3,0,0,0,.04,4.126l9.255,4.456,1.577,10.15a2.285,2.285,0,0,0,1.584,1.841,2.283,2.283,0,0,0,2.352-.605l7.1-7.425,10.14,1.637A2.286,2.286,0,0,0,1027.438,523.265Z" transform="translate(-991.889 -493.214)" fill="#e9a025"/>
      </g>
      <g id="Group_1385" data-name="Group 1385" transform="translate(8221.959 6008.181)">
        <path id="Path_68-3" data-name="Path 68" d="M1027.438,523.265a2.285,2.285,0,0,0,.151-2.424l-4.869-9.045,4.69-9.138a2.3,2.3,0,0,0-2.457-3.314l-10.106,1.836-7.242-7.285a2.3,2.3,0,0,0-3.911,1.313l-1.378,10.179-9.166,4.636a2.3,2.3,0,0,0,.04,4.126l9.255,4.456,1.577,10.15a2.285,2.285,0,0,0,1.584,1.841,2.283,2.283,0,0,0,2.352-.605l7.1-7.425,10.14,1.637A2.286,2.286,0,0,0,1027.438,523.265Z" transform="translate(-991.889 -493.214)" fill="#e9a025"/>
      </g>
    </g>
  </g>
</svg>
