<svg xmlns="http://www.w3.org/2000/svg" width="304.605" height="247.916" viewBox="0 0 304.605 247.916">
  <g id="onborading2" transform="translate(-23.574 0.008)">
    <g id="Layer_2" data-name="Layer 2" transform="translate(0.005 -0.008)">
      <g id="Layer_1" data-name="Layer 1">
        <path id="Path_34" data-name="Path 34" d="M195.511,2.391h0A68.472,68.472,0,0,0,144.543,38.3l-.226.452c-2.71,5.421-13.326,23.339-35.271,26.35a76.64,76.64,0,0,1-16.073,0,91.7,91.7,0,0,0-19.2.226A78.227,78.227,0,1,0,95.231,220.305a76.415,76.415,0,0,0,20.816-6.587,74.759,74.759,0,0,1,21.155-6.625,44.87,44.87,0,0,1,39.939,14.831,65.95,65.95,0,0,0,58.836,20.289,68.359,68.359,0,0,0,58.2-77.017,67.418,67.418,0,0,0-11.82-30.114v-.64a52.926,52.926,0,0,1-12.046-26.952A58.27,58.27,0,0,1,271.549,88.4a84.019,84.019,0,0,0,.979-27.78A68.4,68.4,0,0,0,195.511,2.391Z" transform="translate(17.303 4.867)" opacity="0.3"/>
        <path id="Path_35" data-name="Path 35" d="M197.031.663h0a68.51,68.51,0,0,0-51.156,35.911l-.226.452c-2.748,5.421-13.326,23.339-35.271,26.35a76.64,76.64,0,0,1-16.073,0,89.74,89.74,0,0,0-19.235.64A78.12,78.12,0,1,0,96.6,218.765a76.828,76.828,0,0,0,20.816-6.587,74.758,74.758,0,0,1,21.155-6.625,44.908,44.908,0,0,1,39.939,14.831,65.837,65.837,0,0,0,58.8,20.1,68.359,68.359,0,0,0,58.233-77.017,67.456,67.456,0,0,0-11.858-30.114v-.64A53.3,53.3,0,0,1,271.6,105.761a58.271,58.271,0,0,1,1.242-19.085A82.813,82.813,0,0,0,274.2,58.708,68.359,68.359,0,0,0,197.031.663Z" transform="translate(21.279 0.008)" fill="#fff"/>
        <path id="Path_36" data-name="Path 36" d="M274.24,133.076a60.792,60.792,0,0,1-13.965-31.018c-2.334-16.563,5.345-27.705,2.6-47.468A61.32,61.32,0,0,0,147.836,34.565s-11.782,26.915-41.407,31.018c-12.911,1.807-22.586-1.43-35.61.376a71.3,71.3,0,1,0,19.65,141.236c15.057-2.146,23.79-10.766,42.31-13.363a52.963,52.963,0,0,1,46.978,17.429,58.083,58.083,0,0,0,52.7,18.031A61.32,61.32,0,0,0,274.2,133.226.849.849,0,0,0,274.24,133.076Z" transform="translate(25.792 4.803)" fill="#e60d21"/>
        <path id="Path_37" data-name="Path 37" d="M284.629,73.091a56.131,56.131,0,0,0-1.694-8.018,61.282,61.282,0,0,1-50.63,44.306,58.083,58.083,0,0,1-52.7-18.031,52.963,52.963,0,0,0-46.9-17.466c-18.52,2.6-27.065,11.293-42.31,13.363A71.521,71.521,0,0,1,11.342,33.19a71.182,71.182,0,0,0,79.05,86.992c15.057-2.146,23.79-10.766,42.31-13.363a52.963,52.963,0,0,1,46.978,17.429,58.083,58.083,0,0,0,52.7,18.031,61.358,61.358,0,0,0,52.248-69.187Z" transform="translate(25.981 91.777)" opacity="0.1"/>
        <path id="Path_38" data-name="Path 38" d="M89.687,2.317A61.057,61.057,0,0,0,47,29.458a82.814,82.814,0,0,1,71.107-7.867c28.646,9.825,37.191,39.487,39.713,57.368a74.308,74.308,0,0,0,1.054-24.505A61.32,61.32,0,0,0,89.687,2.317Z" transform="translate(129.902 4.79)" fill="#fff" opacity="0.1"/>
        <path id="Path_39" data-name="Path 39" d="M105.383,23.96l-6.663-5.082V10.6a4.856,4.856,0,0,0-2.56-4.367,4.931,4.931,0,0,0-4.894.414l-6.851,4.442-7.83-2.71a4.894,4.894,0,0,0-6.286,5.8l2.259,7.943-4.818,6.776A4.894,4.894,0,0,0,71.5,36.758l8.281.339,4.705,6.738a4.893,4.893,0,0,0,4.63,2.07,4.969,4.969,0,0,0,3.953-3.162l2.861-7.792,7.9-2.409a4.894,4.894,0,0,0,1.543-8.583Z" transform="translate(184.448 15.972)" opacity="0.2"/>
        <path id="Path_40" data-name="Path 40" d="M105.363,23.16,98.7,18.041V9.8a4.856,4.856,0,0,0-2.409-4.367,4.931,4.931,0,0,0-5.044.226L84.4,10.287l-7.83-2.71a4.781,4.781,0,0,0-5.082,1.092,4.894,4.894,0,0,0-1.355,4.856l2.259,7.943-4.668,6.55a4.894,4.894,0,0,0,3.764,7.83l8.281.3,4.517,6.926a4.894,4.894,0,0,0,8.583-1.129l2.861-7.754,7.9-2.409a4.894,4.894,0,0,0,1.732-8.62Z" transform="translate(184.468 13.422)" fill="#fff"/>
        <path id="Path_41" data-name="Path 41" d="M90.473,6.14l-.188,10.653,8.432,6.625L88.478,26.542,84.789,36.555l-6.1-8.733L68,27.408,74.437,18.9,71.5,8.624l10.088,3.463Z" transform="translate(187.952 17.004)" fill="#8cd130"/>
        <path id="Path_42" data-name="Path 42" d="M96.639,21.837l-9.9,3.049L83.2,34.447l1.506,2.146L88.47,26.542l10.239-3.124ZM90.5,6.14,88.809,7.307v7.83L90.5,16.454ZM69.2,25.865,68.03,27.408l10.164.414-1.167-1.656Z" transform="translate(188.035 17.004)" fill="#8cd130"/>
        <path id="Path_43" data-name="Path 43" d="M116.112,43.795A22.586,22.586,0,0,0,98.984,41.16,26.049,26.049,0,0,0,82.723,52.452a36.137,36.137,0,0,0-1.844,35.761,7.075,7.075,0,0,0-.452,1.129,4.742,4.742,0,0,0,0,1.619,23.113,23.113,0,0,0-2.07,7.265c0,1.43-.263,2.748-.376,4.028-.376,5.195-.678,6.512-2.823,7.83a4.931,4.931,0,0,0-2.183,3.124,4.856,4.856,0,0,0,7.227,5.157c6.625-4.065,7.077-10.239,7.529-15.057a15.735,15.735,0,0,1,.3-3.764,17.053,17.053,0,0,1,.828-3.388,7.039,7.039,0,0,0,1.732-1.43,36.476,36.476,0,0,0,32.26-16.977A25.108,25.108,0,0,0,116.112,43.795Z" transform="translate(201.424 112.002)" fill="#8c5930" opacity="0.2"/>
        <path id="Path_44" data-name="Path 44" d="M115.693,43a22.586,22.586,0,0,0-17.127-2.673A26.086,26.086,0,0,0,82.3,51.625a35.949,35.949,0,0,0-1.732,35.648,7.073,7.073,0,0,0-.452,1.129,4.817,4.817,0,0,0,0,1.619,24.468,24.468,0,0,0-2.07,7.3c0,1.43-.263,2.748-.376,4.028-.376,5.195-.678,6.475-2.823,7.792a4.931,4.931,0,0,0-2.183,3.124,4.743,4.743,0,0,0,.678,3.764,4.818,4.818,0,0,0,6.55,1.468c6.625-4.028,7.077-10.2,7.529-15.057a14.175,14.175,0,0,1,.339-3.764,15.583,15.583,0,0,1,.79-3.388,5.27,5.27,0,0,0,1.732-1.43,36.325,36.325,0,0,0,32.26-16.977C129.433,65.477,126.346,49.667,115.693,43Z" transform="translate(200.488 109.743)" fill="#fff"/>
        <path id="Path_45" data-name="Path 45" d="M73.781,77.322a.414.414,0,0,0,.527,0c4.668-2.861,4.931-6.964,5.308-11.707a13.9,13.9,0,0,1,.339-3.764,11.707,11.707,0,0,1,3.463-8.357.414.414,0,0,0,0-.565.376.376,0,0,0-.527,0A12.309,12.309,0,0,0,79.126,61.7c0,1.393-.3,2.673-.376,3.764-.339,4.743-.6,8.47-4.931,11.293a.376.376,0,0,0-.038.565Z" transform="translate(203.628 146.044)" fill="#e4bc96"/>
        <path id="Path_46" data-name="Path 46" d="M76.13,53.785l.828.527a.3.3,0,0,0,.3,0l.565-.9a.188.188,0,0,0,0-.3l-.79-.527h-.3l-.565.9A.226.226,0,0,0,76.13,53.785Z" transform="translate(210.313 145.377)" fill="#6f94ef"/>
        <path id="Path_47" data-name="Path 47" d="M78.347,53.559s0,1.468-1.092,1.732c0,0-.489,0-.565-.64s-.376-.527-.828-.753,0-1.2,1.543-1.092S78.347,53.559,78.347,53.559Z" transform="translate(209.225 145.978)" fill="#6f94ef"/>
        <path id="Path_48" data-name="Path 48" d="M79.775,50.811a30.942,30.942,0,0,0,.791,34.782,31.658,31.658,0,0,0,31.7-14.417c5.609-8.959,3.764-22.1-5.232-27.705S85.422,41.852,79.775,50.811Z" transform="translate(206.78 113.042)" fill="#6f94ef"/>
        <path id="Path_49" data-name="Path 49" d="M94.7,41.25S69.782,54.5,88.415,83.6a16.3,16.3,0,0,1-7.754,0c-1.732-.64-9.411-16.488-2.748-30.114A19.5,19.5,0,0,1,94.7,41.25Z" transform="translate(207.965 114.057)" fill="#4a7aff"/>
        <path id="Path_50" data-name="Path 50" d="M81.735,50.344a7.9,7.9,0,1,0,14.831,4.668,7.9,7.9,0,1,0-14.831-4.668Z" transform="translate(223.379 120.02)" fill="#8fabec"/>
        <path id="Path_51" data-name="Path 51" d="M84.39,48.366c0,2,0,3.764.715,3.764s1.092-1.581,1.242-3.576-.226-3.764-.753-3.764S84.5,46.371,84.39,48.366Z" transform="translate(233.259 123.843)" fill="#fff"/>
        <path id="Path_63" data-name="Path 63" d="M15.895,36.764,12.431,47.718,10.06,32.51Z" transform="translate(27.79 89.897)" fill="#c1272d"/>
        <path id="Path_65" data-name="Path 65" d="M64.742,39.152a10.427,10.427,0,0,0,4.894-3.313,10.465,10.465,0,0,0,5.985,0,10.992,10.992,0,0,0,7.114-13.777c0-.414-.339-.791-.527-1.2A10.879,10.879,0,0,0,70.351,5.386a10.916,10.916,0,0,0-18.821,6.06,10.916,10.916,0,0,0-.678,19.5,2.252,2.252,0,0,0,.263,1.28A10.916,10.916,0,0,0,64.893,39.3Z" transform="translate(124.846 5.298)" opacity="0.2"/>
        <path id="Path_66" data-name="Path 66" d="M64.77,38.362a11.029,11.029,0,0,0,4.894-3.313,10.8,10.8,0,0,0,5.985,0,10.992,10.992,0,0,0,7.114-13.74,12.313,12.313,0,0,0-.565-1.393A10.879,10.879,0,0,0,70.341,4.446a10.916,10.916,0,0,0-18.821,6.06,10.916,10.916,0,0,0-.678,19.5,2.252,2.252,0,0,0,.264,1.28A10.992,10.992,0,0,0,64.883,38.4Z" transform="translate(124.818 2.699)" fill="#fff"/>
        <path id="Path_67" data-name="Path 67" d="M67.035,6.237a7.528,7.528,0,0,0-1.167.489L64.738,7.4l-.527-1.2A5.952,5.952,0,1,0,52.919,9.964l.263,1.28H51.9a7,7,0,0,0-1.28.263,5.948,5.948,0,0,0,.452,11.481l.941.226v1.016a6.1,6.1,0,0,0,.264,2.334,6.023,6.023,0,0,0,7.529,3.764,5.872,5.872,0,0,0,3.764-3.764l.489-1.468,1.28.9a5.835,5.835,0,0,0,5.308.866,5.948,5.948,0,0,0,3.764-7.529,6.248,6.248,0,0,0-1.167-2.07l-.565-.565.678-.753a5.985,5.985,0,0,0-6.324-9.6Z" transform="translate(128.35 5.914)" fill="#ffb113"/>
        <path id="Path_68" data-name="Path 68" d="M60.675,28.439c0,.376-.339.753-.527,1.129a6.474,6.474,0,0,0,2-1.882l-.979-.715ZM49.985,11.123h0a5.872,5.872,0,0,0-3.275,2.635,5.5,5.5,0,0,1,1.092-.489l1.242-.264h1.317l-.3-1.28A2,2,0,0,1,49.985,11.123Zm22.586,5.91-.64-.64.678-.753a5.985,5.985,0,0,0-6.324-9.6,7.529,7.529,0,0,0-1.167.489l-1.129.678L63.461,6a5.948,5.948,0,0,0-10.615-.9l1.167-.527a6.023,6.023,0,0,1,7.529,3.388l.489,1.2.828-.6a4.63,4.63,0,0,1,1.167-.527A5.985,5.985,0,0,1,71.554,11.8a5.872,5.872,0,0,1-1.167,5.835l-.64.753.64.79a6.1,6.1,0,0,1,1.167,2.033,5.872,5.872,0,0,1-.6,4.856,5.948,5.948,0,0,0,2.71-6.964,6.249,6.249,0,0,0-1.092-2.07Z" transform="translate(129.101 6.223)" fill="#fff" opacity="0.3"/>
      </g>
    </g>
  </g>
</svg>
