<svg xmlns="http://www.w3.org/2000/svg" width="360.329" height="251.306" viewBox="0 0 360.329 251.306">
  <g id="onborading3" transform="translate(0.007 0.053)">
    <g id="Layer_2" data-name="Layer 2" transform="translate(-0.007 -0.053)">
      <g id="Layer_1" data-name="Layer 1">
        <path id="Path_206" data-name="Path 206" d="M118.181,11.149l1.727-.826a62.4,62.4,0,0,0-38.336,40.7A19.112,19.112,0,0,1,77.818,52.3,84.782,84.782,0,0,0,4.6,136.033h0a83.393,83.393,0,0,0,6.871,32.854A84.106,84.106,0,0,0,150.51,214.282l1.765-1.539a49.113,49.113,0,0,1,11.94-8.373,95.938,95.938,0,0,1,11.264,8.035,98.825,98.825,0,0,0,161.454-68.337l-.225,1.352A98.938,98.938,0,0,0,220.949,25.605,95.936,95.936,0,0,0,205.1,30.148a8.3,8.3,0,0,0-1.352.338c-.375-.488-.9-.939-1.239-1.464v-.488a62.216,62.216,0,0,0-84.332-17.385Z" transform="translate(12.697 4.633)" opacity="0.3"/>
        <path id="Path_207" data-name="Path 207" d="M118.769,9.5l1.727-.788a62.4,62.4,0,0,0-38.336,40.7,21.815,21.815,0,0,1-3.755,1.277A84.782,84.782,0,0,0,5,134.417H5a83.393,83.393,0,0,0,6.871,32.854A84.106,84.106,0,0,0,151.1,212.666l1.765-1.539A49.112,49.112,0,0,1,164.8,202.9a92.817,92.817,0,0,1,11.264,8.035A98.825,98.825,0,0,0,337.521,142.6l-.225,1.352A98.9,98.9,0,0,0,221.724,23.8a95.222,95.222,0,0,0-15.92,4.731,8.3,8.3,0,0,0-1.352.338,16.482,16.482,0,0,1-1.239-1.5v-.488A62.329,62.329,0,0,0,118.769,9.5Z" transform="translate(13.799 0.053)" fill="#fff"/>
        <path id="Path_208" data-name="Path 208" d="M216.308,22.073a90.528,90.528,0,0,0-14.756,4.356,27.825,27.825,0,0,1-3.567,1.014,29.4,29.4,0,0,1-27.41-9.011A54.481,54.481,0,0,0,79.3,46.967h0a29.4,29.4,0,0,1-19,22.04h0A77.01,77.01,0,1,0,136.669,199c7.51-6.571,13.179-12.165,22.529-14.005,11.715-2.365,20.576,2.178,31.765,8.073A91.841,91.841,0,1,0,216.308,22.073Z" transform="translate(21.768 8.841)" fill="#8cd130"/>
        <path id="Path_209" data-name="Path 209" d="M222.651,38.97a86.884,86.884,0,0,0-14.418,1.352,27.336,27.336,0,0,1-3.492.263,27.71,27.71,0,0,1-23.692-13.367,51.478,51.478,0,0,0-89.776,9.537h0A27.673,27.673,0,0,1,69.57,53.5h0a72.654,72.654,0,1,0,46.709,134.533c8.223-4.731,14.456-8.861,23.467-8.861,11.264,0,18.774,5.857,27.86,13.367A86.66,86.66,0,1,0,222.651,38.97Z" transform="translate(18.279 14.285)" fill="#b3e914"/>
        <path id="Path_210" data-name="Path 210" d="M116.827,28.759l-6.158-4.881v-7.81a4.618,4.618,0,0,0-2.4-4.13,4.543,4.543,0,0,0-4.768.225l-6.533,4.356-7.509-2.553A4.581,4.581,0,0,0,83.522,19.6l2.1,7.51-4.468,6.158a4.618,4.618,0,0,0,3.529,7.51l7.81.3L97,47.533a4.581,4.581,0,0,0,8.11-1.051l2.7-7.51,7.509-2.29a4.618,4.618,0,0,0,1.5-8.035Z" transform="translate(220.788 31.517)" opacity="0.2"/>
        <path id="Path_211" data-name="Path 211" d="M116.936,27.751l-6.158-4.844V15.06a4.618,4.618,0,0,0-7.172-3.755l-6.533,4.356-7.51-2.553a4.694,4.694,0,0,0-4.693,1.014,4.618,4.618,0,0,0-1.239,4.618l2.1,7.51-4.693,6.233a4.581,4.581,0,0,0-.488,4.769,4.656,4.656,0,0,0,4.018,2.666l7.81.3L96.886,46.6A4.581,4.581,0,0,0,105,45.549l2.7-7.51,7.509-2.253a4.731,4.731,0,0,0,3.192-3.755,4.618,4.618,0,0,0-1.464-4.28Z" transform="translate(220.679 29.221)" fill="#fff"/>
        <path id="Path_212" data-name="Path 212" d="M102.717,11.72l-.188,10.138,7.96,6.27-9.65,2.929-3.492,9.537-5.82-8.3L81.39,31.883l6.12-8.073-2.779-9.725,9.575,3.3Z" transform="translate(224.234 32.486)" fill="#ec1c24"/>
        <path id="Path_213" data-name="Path 213" d="M102.717,11.72,101.1,12.846v7.51l1.615,1.239Zm-20.2,18.774L81.39,32l9.65.338-1.089-1.539ZM108.8,26.739,99.45,29.593l-3.342,9.087,1.427,2.028,3.492-9.537,9.687-2.929Z" transform="translate(224.234 32.486)" fill="#ec1c24" opacity="0.7"/>
        <path id="Path_214" data-name="Path 214" d="M15.676,21A30.038,30.038,0,0,0,1.445,39.1,34.769,34.769,0,0,0,4.073,65.382,47.723,47.723,0,0,0,44.212,90.576a6.758,6.758,0,0,0,.976,1.277,7.209,7.209,0,0,0,1.8,1.2,30.376,30.376,0,0,0,7.059,7.134c1.539,1.126,3,2.1,4.431,3.041,5.745,3.755,7.059,5.031,7.172,8.373a6.458,6.458,0,0,0,2.215,4.581,6.158,6.158,0,0,0,4.693,1.577,6.383,6.383,0,0,0,5.97-6.571c-.375-10.326-7.247-15.019-12.729-18.511L61.709,89.9a19,19,0,0,1-3.379-3.154,7.81,7.81,0,0,0-.563-2.929,48.324,48.324,0,0,0,1.389-48.361C50.67,19.8,30.319,13.041,15.676,21Z" transform="translate(0.007 48.812)" fill="#8c5930" opacity="0.2"/>
        <path id="Path_215" data-name="Path 215" d="M16.135,19.781A30.038,30.038,0,0,0,1.9,37.879,34.769,34.769,0,0,0,4.5,64.162,47.911,47.911,0,0,0,44.634,89.356a8.787,8.787,0,0,0,.976,1.277,7.922,7.922,0,0,0,1.8,1.2,31.916,31.916,0,0,0,7.059,7.134c1.539,1.164,3,2.1,4.431,3.041,5.745,3.755,7.059,5.031,7.209,8.373a6.425,6.425,0,0,0,12.841-.451c-.375-10.288-7.209-15.019-12.729-18.473-1.389-.939-2.741-1.8-4.055-2.816a22.866,22.866,0,0,1-3.417-3.116,7.1,7.1,0,0,0-.526-2.929,48.324,48.324,0,0,0,1.352-48.361C51.092,18.579,30.779,11.821,16.135,19.781Z" transform="translate(1.236 45.452)" fill="#fff"/>
        <path id="Path_216" data-name="Path 216" d="M35.963,61.345a.488.488,0,0,0,.488-.526c-.263-7.247-4.844-10.25-10.1-13.742-1.389-.939-2.854-1.915-4.318-3-6.759-5.031-7.284-9.274-7.284-9.274a.526.526,0,0,0-.563-.488.488.488,0,0,0-.451.563s.451,4.693,7.51,10.063c1.5,1.089,2.966,2.065,4.356,3,5.257,3.492,9.424,6.233,9.65,12.916a.488.488,0,0,0,.713.488Z" transform="translate(37.843 94.715)" fill="#d59758"/>
        <path id="Path_217" data-name="Path 217" d="M15.786,35.227l-.713-1.239a.263.263,0,0,0-.375,0l-1.126.6a.3.3,0,0,0,0,.413l.563,1.051c-1.051,1.765-.188,2.666.338,2.328s.488-.826,1.389-.488,1.089,0,1.126-.225c.3-1.051-.713-1.99-1.089-2.29Z" transform="translate(37.181 93.611)" fill="#d52db8"/>
        <path id="Path_218" data-name="Path 218" d="M5.323,57.026C18.39,81.019,44.26,79.555,46.1,78.729s16.671-22.529,3.942-46C43.321,20.38,26.913,13.959,14.6,20.718S-1.36,44.673,5.323,57.026Z" transform="translate(5.59 49.734)" fill="#d52db8"/>
        <path id="Path_219" data-name="Path 219" d="M4.862,21.94s-.9,37.548,45.057,34.807A22.529,22.529,0,0,1,44.963,65.8c-1.877,1.577-25.194,0-36.8-16.521C-2.422,34.256,4.862,21.94,4.862,21.94Z" transform="translate(6.69 60.639)" fill="#d52db8" opacity="0.6"/>
        <path id="Path_220" data-name="Path 220" d="M10.98,37.392a11.452,11.452,0,0,0,15.958,1.915,11.452,11.452,0,0,0-.9-16.145,11.452,11.452,0,0,0-15.958-1.915,11.264,11.264,0,0,0,.9,16.145Z" transform="translate(19.571 52.134)" fill="#d52db8"/>
        <path id="Path_221" data-name="Path 221" d="M13.327,23.184c2.253,1.464,4.356,2.14,4.769,1.5s-1.089-2.253-3.342-3.755-4.356-2.1-4.731-1.5S11.112,21.719,13.327,23.184Z" transform="translate(27.474 53.088)" fill="#fff"/>
        <path id="Path_222" data-name="Path 222" d="M80.63,60.78V60.4h0A1.05,1.05,0,0,0,80.63,60.78Zm22.528,62.667a13.78,13.78,0,0,0-.9-12.8l4.393-10.025a12.5,12.5,0,0,0,9.537-3.041,33,33,0,0,0,22.529-11.264h0v-.188a32.927,32.927,0,0,0,2.441-3.3l.6-.939a34.513,34.513,0,0,0,2.1-3.98c.488-1.2.939-2.441,1.389-3.755a1.424,1.424,0,0,0,0-.375h0A33.192,33.192,0,0,0,85.173,47.488v.3a31.351,31.351,0,0,0-1.99,3.755,32.02,32.02,0,0,0-1.5,4.318,1.341,1.341,0,0,1-.263.939c-.338,1.427-.563,2.7-.751,3.755v-.413a4.09,4.09,0,0,0,0,.9h0v.225a33.117,33.117,0,0,0,7.1,24.03,12.466,12.466,0,0,0,4.28,9.049l-4.393,10.025a13.893,13.893,0,1,0,15.507,19.187Z" transform="translate(210.877 88.821)" opacity="0.2"/>
        <path id="Path_223" data-name="Path 223" d="M81.483,60.063a1.95,1.95,0,0,1,0-.413h0Zm22.529,62.629a13.7,13.7,0,0,0-.9-12.766L107.5,99.863a12.541,12.541,0,0,0,9.537-3,33.042,33.042,0,0,0,22.528-11.264h0a27.981,27.981,0,0,0,2.441-3.3l.6-.939a34.509,34.509,0,0,0,2.1-3.98,25.155,25.155,0,0,0,1.389-3.755,1.089,1.089,0,0,0,0-.375h0A33.192,33.192,0,0,0,86.027,46.958v.3a34.132,34.132,0,0,0-1.99,3.755,37.553,37.553,0,0,0-1.5,4.28l-.225.939a31.132,31.132,0,0,0-.751,3.942,1.127,1.127,0,0,1,0-.375,7.52,7.52,0,0,0,0,.9h0V61a33.117,33.117,0,0,0,7.1,24.03,12.654,12.654,0,0,0,4.28,9.087l-4.393,10.025a13.7,13.7,0,0,0-9.988,8.035,13.936,13.936,0,1,0,25.495,11.264Z" transform="translate(213.139 87.361)" fill="#fff"/>
        <path id="Path_224" data-name="Path 224" d="M89.8,52.934A7.81,7.81,0,1,0,94.048,57.2,7.81,7.81,0,0,0,89.8,52.934Zm-5.031,11.49a4.693,4.693,0,1,1,3.628.086A4.731,4.731,0,0,1,84.764,64.424Z" transform="translate(217.669 144.391)" fill="#8e519f"/>
        <rect id="Rectangle_21" data-name="Rectangle 21" width="22.529" height="3.717" transform="translate(305.209 197.755) rotate(-66.42)" fill="#8e519f"/>
        <path id="Path_225" data-name="Path 225" d="M100.937,55.275c-1.2,2.779-6.346,3.192-11.49.939s-8.411-6.308-7.284-9.087,6.346-3.154,11.49-.9S102.1,52.534,100.937,55.275Z" transform="translate(225.752 123.501)" fill="#8e519f"/>
        <path id="Path_226" data-name="Path 226" d="M132,70.917a27.109,27.109,0,1,1-14.005-35.67A27.109,27.109,0,0,1,132,70.917Z" transform="translate(220.485 91.038)" fill="#e04b68"/>
        <path id="Path_227" data-name="Path 227" d="M126.538,67.029a24.068,24.068,0,1,1,.385-18.464,24.106,24.106,0,0,1-.385,18.464Z" transform="translate(221.364 91.772)" fill="#f15e6c"/>
        <path id="Path_228" data-name="Path 228" d="M82.183,41.718a26.771,26.771,0,0,0-2.1,7.847L127.5,70.254a25.8,25.8,0,0,0,4.356-6.871,27.335,27.335,0,0,0,1.915-6.721L85.787,35.71A26.058,26.058,0,0,0,82.183,41.718Z" transform="translate(220.625 98.572)" fill="#f8aea5"/>
        <path id="Path_229" data-name="Path 229" d="M86.784,37.23l.413,2.7,2.14,1.69-2.4,1.239L86,45.415,84.043,43.5l-2.7-.113,1.2-2.441-.713-2.628,2.7.413Z" transform="translate(224.096 102.76)" fill="#e04b68"/>
        <path id="Path_230" data-name="Path 230" d="M90.024,38.65l.413,2.666,2.14,1.69-2.4,1.239L89.236,46.8l-1.952-1.915-2.7-.113,1.239-2.441-.751-2.591,2.666.413Z" transform="translate(233.022 106.671)" fill="#e04b68"/>
        <path id="Path_231" data-name="Path 231" d="M93.264,40.06l.451,2.7,2.1,1.69-2.4,1.239-.939,2.553-1.952-1.952-2.7-.075,1.239-2.441-.751-2.628,2.7.451Z" transform="translate(241.947 110.556)" fill="#e04b68"/>
        <path id="Path_232" data-name="Path 232" d="M96.5,41.48l.451,2.666,2.1,1.69-2.4,1.239-.939,2.553-1.952-1.915-2.7-.113L92.3,45.16l-.751-2.591,2.7.413Z" transform="translate(250.873 114.467)" fill="#e04b68"/>
        <path id="Path_233" data-name="Path 233" d="M53.3,32.846a8.411,8.411,0,0,0,3.98-2.7,8.786,8.786,0,0,0,4.919,0,8.936,8.936,0,0,0,5.82-11.264c0-.338-.3-.676-.413-1.014A8.9,8.9,0,0,0,57.879,5.1a8.9,8.9,0,0,0-15.507,4.956,8.674,8.674,0,0,0-4.205,3.98,8.936,8.936,0,0,0,3.755,11.978,10.52,10.52,0,0,0,.225,1.051,8.974,8.974,0,0,0,11.264,5.782Z" transform="translate(102.436 5.991)" opacity="0.2"/>
        <path id="Path_234" data-name="Path 234" d="M53.34,32.023a8.673,8.673,0,0,0,3.98-2.7,8.786,8.786,0,0,0,4.919,0,8.936,8.936,0,0,0,5.82-11.264c0-.338-.3-.638-.413-.976a9.012,9.012,0,0,0,.451-6.646A8.933,8.933,0,0,0,57.921,4.388,8.9,8.9,0,0,0,42.414,9.344,8.9,8.9,0,0,0,41.85,25.3a1.908,1.908,0,0,0,.225,1.089,8.824,8.824,0,0,0,4.431,5.069,8.974,8.974,0,0,0,6.834.563Z" transform="translate(102.394 4.035)" fill="#fff"/>
        <path id="Path_235" data-name="Path 235" d="M55.141,5.437a5.107,5.107,0,0,0-.939.413l-.939.563L52.85,5.4a4.881,4.881,0,0,0-9.274,2.854L43.839,9.3H42.75a4.393,4.393,0,0,0-1.014,0,4.919,4.919,0,0,0-3.192,6.458,4.806,4.806,0,0,0,3.529,3.229l.789.225v.788a5.482,5.482,0,0,0,.225,1.915,4.881,4.881,0,0,0,9.274,0l.413-1.2,1.051.751a4.881,4.881,0,0,0,7.509-5.444,5.3,5.3,0,0,0-.939-1.69l-.488-.413.526-.638a4.844,4.844,0,0,0,.976-4.693,4.919,4.919,0,0,0-6.27-3.154Z" transform="translate(105.325 6.966)" fill="#00b1f7"/>
        <path id="Path_236" data-name="Path 236" d="M41.239,9.718h0a4.994,4.994,0,0,0-2.779,2.29,5.669,5.669,0,0,1,1.051-.563,4.768,4.768,0,0,1,.976-.188h1.051l-.225-1.051a1.239,1.239,0,0,1-.075-.488ZM49.95,23.874a6.158,6.158,0,0,1-.526.826,4.881,4.881,0,0,0,1.615-1.389l-.676-.526Zm9.725-9.312-.413-.6.526-.638a4.844,4.844,0,0,0,.976-4.693,4.919,4.919,0,0,0-6.158-3.154,5.106,5.106,0,0,0-.939.413l-.939.563-.413-1.014a4.919,4.919,0,0,0-5.97-2.779,4.731,4.731,0,0,0-2.779,2.29,5.859,5.859,0,0,1,.939-.413,4.956,4.956,0,0,1,6.008,2.816l.413.976.826-.713a4.318,4.318,0,0,1,.939-.451,4.919,4.919,0,0,1,5.182,7.885l-.451.751.526.638a4.168,4.168,0,0,1,.939,1.69,4.693,4.693,0,0,1-.413,3.755,4.881,4.881,0,0,0,2.14-5.557,5.3,5.3,0,0,0-.939-1.765Z" transform="translate(105.973 6.928)" fill="#00b1f7"/>
        <path id="Path_237" data-name="Path 237" d="M72.418,64.571a23.616,23.616,0,0,0-3.041-1.239V62.243l-1.164-3.755-.263.263-.976-.9-.638-.563-.976-.526-4.318-1.539h-.451l-1.952-.375h-.563l-9.2-.676c-3.3,0-19.825.413-19.825,7.847v1.427a21.778,21.778,0,0,0-3.755,1.2,13.667,13.667,0,0,0-8.223,12.316h0A14.231,14.231,0,0,0,29.164,91.98a9.65,9.65,0,0,0,8.523,8.636,57.11,57.11,0,0,0,14.644,1.2l3.755-.338h.864L60.1,100.8l.976-.225,3.755-1.5a7.923,7.923,0,0,0,4.618-7.1,15.845,15.845,0,0,0,6.12-2.854A15.357,15.357,0,0,0,80.716,77h0a13.667,13.667,0,0,0-8.3-12.428Z" transform="translate(46.97 149.425)" opacity="0.2"/>
        <path id="Path_238" data-name="Path 238" d="M73.008,63.548a18.774,18.774,0,0,0-3.041-1.2V61.258L68.8,57.5l-.263.263-.939-.939-.676-.451-.976-.338-4.318-1.5H61.18l-1.952-.413h-.563l-9.312-.864c-3.3,0-19.825.375-19.825,7.847v1.427A22.9,22.9,0,0,0,25.773,63.7,13.78,13.78,0,0,0,17.55,76.014h0a14.306,14.306,0,0,0,12.09,15.019,9.687,9.687,0,0,0,8.523,8.636A57.409,57.409,0,0,0,53.108,101.1l3.755-.338h.864l3.154-.638.976-.225,3.755-1.5a7.96,7.96,0,0,0,4.055-7.134A14.231,14.231,0,0,0,80.93,76.239h0a13.742,13.742,0,0,0-7.923-12.691Z" transform="translate(48.295 146.918)" fill="#fbffff"/>
        <path id="Path_239" data-name="Path 239" d="M74.458,73.242a9.988,9.988,0,0,0-6.12-8.749,17.648,17.648,0,0,0-5.219-1.727V58.6c0-1.877-5.632-4.318-16.634-4.318-9.349,0-16,2.215-16,4.018V62.54H30.3a20.426,20.426,0,0,0-5.595,1.8,10.025,10.025,0,0,0-6.083,8.9,11.64,11.64,0,0,0,3.755,9.274,12.691,12.691,0,0,0,7.96,2.7v1.8c0,2.741.826,5.182,5.782,6.346s17.159,2.4,24.856-1.389c1.8-.976,1.99-2.7,1.99-6.8a12.353,12.353,0,0,0,7.51-2.666,11.752,11.752,0,0,0,3.98-9.274Zm-51.44,0a5.632,5.632,0,0,1,3.755-4.994,16.821,16.821,0,0,1,3.755-1.314V80.826a6.871,6.871,0,0,1-7.51-7.585Zm40.1,7.509V67.084a13.893,13.893,0,0,1,3.267,1.164,5.632,5.632,0,0,1,3.755,4.994,6.721,6.721,0,0,1-7.021,7.509Z" transform="translate(51.276 149.728)" fill="#f4be37"/>
        <path id="Path_240" data-name="Path 240" d="M48.02,64.08A17.648,17.648,0,0,0,42.8,62.353V58.185c0-1.464-3.417-3.229-10.063-3.755A39.463,39.463,0,0,1,38,74.593C38,84.731,34.5,91.79,25.98,94.268a33.079,33.079,0,0,0,14.831-2.516c1.8-.976,1.99-2.7,1.99-6.8a12.353,12.353,0,0,0,7.509-2.666,11.752,11.752,0,0,0,3.755-9.274A9.988,9.988,0,0,0,48.02,64.08ZM42.8,80.488V66.67a13.893,13.893,0,0,1,3.267,1.164,5.632,5.632,0,0,1,3.755,4.994,6.721,6.721,0,0,1-7.021,7.51Z" transform="translate(71.593 150.141)" fill="#eeaf2b"/>
        <path id="Path_241" data-name="Path 241" d="M49.777,57.223c0,1.164-6.12,2.1-13.63,2.1s-13.667-.939-13.667-2.1S28.6,54.67,36.147,54.67,49.777,55.909,49.777,57.223Z" transform="translate(61.952 150.802)" fill="#d89a31"/>
        <path id="Path_242" data-name="Path 242" d="M30.788,58.36l2.14,3.492,4.018.976L34.28,65.982l.3,4.093L30.788,68.5l-3.83,1.577.3-4.093L24.63,62.828l3.98-.976Z" transform="translate(67.874 160.968)" fill="#fbffff"/>
      </g>
    </g>
  </g>
</svg>
