<svg xmlns="http://www.w3.org/2000/svg" xmlns:xlink="http://www.w3.org/1999/xlink" width="327.603" height="287.305" viewBox="0 0 327.603 287.305">
  <defs>
    <linearGradient id="linear-gradient" x1="0.632" y1="1.205" x2="0.226" y2="-0.437" gradientUnits="objectBoundingBox">
      <stop offset="0" stop-color="#fff"/>
      <stop offset="1" stop-color="#8e519f"/>
    </linearGradient>
  </defs>
  <g id="onborading1" transform="translate(0.003 -0.095)">
    <g id="Layer_2" data-name="Layer 2" transform="translate(-0.003 0.095)">
      <g id="Layer_1" data-name="Layer 1">
        <path id="Path_1" data-name="Path 1" d="M93.895,31.863a240.889,240.889,0,0,0-67.6,75.619C9.477,136.63.872,164.924.872,189.148A74.263,74.263,0,0,0,12.151,230.66,65.891,65.891,0,0,0,33.9,251.047c27.131,16.085,46.9,9.69,64.34,4.07,15.5-5.039,28.953-9.38,47.17,0,45.969,24.07,99.03,12.442,135.115-29.845,35.387-41.279,51.395-109.728,7.364-169.688C250.909,5.158,166.142-18.291,93.895,31.863Z" transform="translate(2.435 11.139)" opacity="0.2"/>
        <path id="Path_2" data-name="Path 2" d="M93.895,29.893a240.889,240.889,0,0,0-67.6,75.619C9.477,134.66.872,162.954.872,187.178A74.263,74.263,0,0,0,12.151,228.69,65.891,65.891,0,0,0,33.9,249.077c27.131,16.085,46.9,9.69,64.34,3.876,15.5-5.039,28.953-9.38,47.17,0,45.969,24.147,99.03,12.519,135.115-29.651,35.387-41.279,51.395-109.728,7.364-169.688C250.909,3.188,166.142-20.261,93.895,29.893Z" transform="translate(2.435 5.474)" fill="#fff"/>
        <path id="Path_3" data-name="Path 3" d="M142.15,241.71C100.794,220.16,80.135,265.7,33,237.834A59.457,59.457,0,0,1,13.2,219.268C-6.375,189.54,3.586,144.037,27.19,103.184A231.7,231.7,0,0,1,92.112,30.511C160.328-16.814,240.25,3.922,276.141,52.759,351.063,154.7,244.126,294.965,142.15,241.71Z" transform="translate(8.055 10.631)" fill="#8e519f"/>
        <path id="Path_4" data-name="Path 4" d="M142.125,131.75c-41.356-21.55-62.015,23.992-109.146-3.876a59.457,59.457,0,0,1-19.806-18.643A62.015,62.015,0,0,1,3.909,84.89c-2.829,19.884-.388,38.372,9.263,52.984A59.457,59.457,0,0,0,32.979,156.44c47.209,27.984,67.79-17.558,109.146,3.876,82.6,43.217,168.409-40.62,158.254-128.216C291.7,107.991,215.612,170.122,142.125,131.75Z" transform="translate(8.08 91.948)" fill="#8e519f" opacity="0.3"/>
        <path id="Path_5" data-name="Path 5" d="M280.839,60.937c-1.705-2.752-3.566-5.5-5.543-8.178C239.405,3.922,159.484-16.814,91.267,30.511a231.7,231.7,0,0,0-64.922,72.674A182.169,182.169,0,0,0,3.09,165.2C136.538,177.137,243.242,102.991,280.839,60.937Z" transform="translate(8.899 10.631)" opacity="0.2" fill="url(#linear-gradient)"/>
        <path id="Path_6" data-name="Path 6" d="M22.645,76.128a12.868,12.868,0,0,0,5.62-3.876,12.49,12.49,0,0,0,15-15.93,15.043,15.043,0,0,0-.581-1.4A12.558,12.558,0,0,0,37.141,38.3a12.17,12.17,0,0,0-8.062-1.124A12.48,12.48,0,0,0,7.335,44.113,12.364,12.364,0,0,0,.63,59.307a12.209,12.209,0,0,0,5.93,7.209,9.961,9.961,0,0,0,.31,1.473,12.558,12.558,0,0,0,15.775,8.139Z" transform="translate(0.003 94.47)" opacity="0.2"/>
        <path id="Path_7" data-name="Path 7" d="M22.637,75.09a12.868,12.868,0,0,0,5.62-3.876,12.325,12.325,0,0,0,6.9-.233,12.48,12.48,0,0,0,8.1-15.659,15.037,15.037,0,0,0-.581-1.4A12.558,12.558,0,0,0,37.132,37.3a12.17,12.17,0,0,0-8.062-1.124A12.48,12.48,0,0,0,7.327,43.113a12.523,12.523,0,0,0-.775,22.364,11.124,11.124,0,0,0,.31,1.473A12.558,12.558,0,0,0,22.637,75.09Z" transform="translate(0.012 91.594)" fill="#fff"/>
        <path id="Path_8" data-name="Path 8" d="M25.056,37.566a6.123,6.123,0,0,0-1.357.62l-1.318.736-.581-1.4A6.86,6.86,0,0,0,8.816,41.675l.349,1.473H7.654a8.528,8.528,0,0,0-1.434.271,6.86,6.86,0,0,0-4.419,8.6A6.705,6.705,0,0,0,6.723,56.6l1.124.271v1.163a7.054,7.054,0,0,0,.31,2.674,6.822,6.822,0,0,0,8.6,4.419,6.667,6.667,0,0,0,4.38-4.3l.581-1.705L23.2,60.163a6.705,6.705,0,0,0,6.085.969,6.822,6.822,0,0,0,4.419-8.6,6.512,6.512,0,0,0-1.318-2.364l-.736-.853.736-.853a6.744,6.744,0,0,0,1.4-6.589,6.86,6.86,0,0,0-8.721-4.3Z" transform="translate(4.258 95.939)" fill="#ec1c24"/>
        <path id="Path_9" data-name="Path 9" d="M17.854,63.5a8.023,8.023,0,0,1-.581,1.318,6.55,6.55,0,0,0,2.287-2.093l-1.279-.891ZM5.606,43.693h0A6.744,6.744,0,0,0,1.73,46.755a5.814,5.814,0,0,1,1.318-.62,6.162,6.162,0,0,1,1.473-.271H5.994l-.31-1.473S5.645,43.848,5.606,43.693Zm25.93,6.744-.736-.853.736-.853a6.744,6.744,0,0,0,1.4-6.589,6.86,6.86,0,0,0-8.6-4.457,6.123,6.123,0,0,0-1.357.62l-1.318.736-.581-1.4A6.822,6.822,0,0,0,12.7,33.771a6.55,6.55,0,0,0-3.876,3.062,5.388,5.388,0,0,1,1.357-.62,6.86,6.86,0,0,1,8.411,3.876l.581,1.4,1.279-.775a10.193,10.193,0,0,1,1.357-.581,6.86,6.86,0,0,1,8.6,4.457A6.744,6.744,0,0,1,29.133,51.1l-.775.891.736.853A6.511,6.511,0,0,1,30.412,55.2a6.822,6.822,0,0,1-.5,5.62,6.822,6.822,0,0,0,3.1-8.023,6.512,6.512,0,0,0-1.473-2.364Z" transform="translate(4.988 95.82)" fill="#ec1c24"/>
        <path id="Path_10" data-name="Path 10" d="M119.642,64.6,111.5,58.05V47.7a6.24,6.24,0,0,0-2.984-5.155,6.163,6.163,0,0,0-6.357.31l-8.6,5.775L83.79,45.259A6.124,6.124,0,0,0,76.038,52.7l2.829,9.961-6.2,8.256a6.124,6.124,0,0,0,4.651,9.806l10.349.388L93.6,89.6a6.124,6.124,0,0,0,10.775-1.4l3.566-9.729,9.884-3.023a6.124,6.124,0,0,0,2.015-10.659Z" transform="translate(205.445 119.873)" opacity="0.2"/>
        <path id="Path_11" data-name="Path 11" d="M119.642,63.668l-8.139-6.24V47.079a6.124,6.124,0,0,0-2.984-5.659,6.24,6.24,0,0,0-6.357.271l-8.6,5.775L83.79,44.094a6.163,6.163,0,0,0-7.752,7.481l2.829,9.961-6.2,8.256A6.124,6.124,0,0,0,77.317,79.6l10.349.388,5.736,8.45A6.124,6.124,0,0,0,104.177,87l3.566-9.69,9.884-3.023a6.163,6.163,0,0,0,4.225-4.729,6.085,6.085,0,0,0-2.209-5.891Z" transform="translate(205.445 116.62)" fill="#fff"/>
        <path id="Path_12" data-name="Path 12" d="M101.138,42.26l-.233,13.372,10.543,8.294L98.619,67.8,94.006,80.4,86.332,69.43l-13.372-.5,8.062-10.7L77.34,45.361,90.014,49.7Z" transform="translate(209.84 121.168)" fill="#8cd130"/>
        <path id="Path_13" data-name="Path 13" d="M108.9,61.978,96.5,65.854,92.117,77.87l1.86,2.674,4.651-12.6,12.791-3.876ZM101.148,42.25l-2.171,1.473v9.845L101.07,55.2ZM74.443,66.978,72.97,68.955l12.752.465-1.473-2.054Z" transform="translate(209.869 121.139)" fill="#8cd130"/>
        <path id="Path_14" data-name="Path 14" d="M71.443,59.6l-.31-.271h0Zm65.116,17.946A13.992,13.992,0,0,0,125.4,70.842l-5.775-9.5a12.752,12.752,0,0,0,3.062-9.69,33.178,33.178,0,0,0,3.876-25.426h0a.5.5,0,0,0,0-.233h0a35.578,35.578,0,0,0-1.279-3.876q-.233-.581-.465-1.047a30.58,30.58,0,0,0-2.054-3.876,38.764,38.764,0,0,0-2.442-3.488l-.271-.31h0A33.682,33.682,0,0,0,62.916,47.7v.31a39.492,39.492,0,0,0,1.977,3.876,39.033,39.033,0,0,0,2.713,3.876l.62.775c1.008,1.124,1.938,2.054,2.829,2.907l-.194-.581a5.309,5.309,0,0,0,.659.659h0A33.527,33.527,0,0,0,95.629,67.7a12.791,12.791,0,0,0,10,1.744l5.736,9.5a14.108,14.108,0,1,0,25.194-1.4Z" transform="translate(173.528 2.781)" opacity="0.2"/>
        <path id="Path_15" data-name="Path 15" d="M71.443,58.6l-.31-.271h0Zm65.116,17.946A13.992,13.992,0,0,0,125.4,69.842l-5.775-9.5a12.752,12.752,0,0,0,3.062-9.69,33.178,33.178,0,0,0,3.876-25.426h0a.5.5,0,0,0,0-.233h0a35.579,35.579,0,0,0-1.279-3.876q-.233-.581-.465-1.047A28.371,28.371,0,0,0,122.76,16.2a38.753,38.753,0,0,0-2.442-3.488l-.271-.31h0A33.682,33.682,0,0,0,62.916,46.7v.349c.7,1.512,1.318,2.713,1.977,3.876A39.035,39.035,0,0,0,67.606,54.8l.62.775c1.008,1.124,1.938,2.054,2.829,2.907l-.194-.62a5.309,5.309,0,0,0,.659.659h0A33.527,33.527,0,0,0,95.629,66.7a12.791,12.791,0,0,0,10,1.744l5.736,9.5a14.108,14.108,0,1,0,25.194-1.4Z" transform="translate(173.528 -0.095)" fill="#fff"/>
        <path id="Path_16" data-name="Path 16" d="M78.467,20.911a7.752,7.752,0,1,0,6.009-1.01,7.752,7.752,0,0,0-6.009,1.01Zm6.628,10.853a14.225,14.225,0,1,0,0-.116Z" transform="translate(215.419 56.239)" fill="#8e519f"/>
        <rect id="Rectangle_1" data-name="Rectangle 1" width="3.798" height="22.829" transform="matrix(0.855, -0.519, 0.519, 0.855, 281.095, 59.594)" fill="#8e519f"/>
        <path id="Path_17" data-name="Path 17" d="M88.087,14.392c1.589,2.6-1.085,7.132-5.93,10.077s-10.116,3.256-11.628.659S71.614,18,76.459,15.012,86.5,11.8,88.087,14.392Z" transform="translate(201.613 35.858)" fill="#8e519f"/>
        <path id="Path_18" data-name="Path 18" d="M112.868,14.811a27.519,27.519,0,1,1-37.79-9.225,27.519,27.519,0,0,1,37.79,9.225Z" transform="translate(177.84 4.199)" fill="#e04b68"/>
        <path id="Path_19" data-name="Path 19" d="M107.317,14.231A24.418,24.418,0,1,1,92.237,3.164a24.457,24.457,0,0,1,15.079,11.067Z" transform="translate(178.197 6.717)" fill="#f15e6c"/>
        <path id="Path_20" data-name="Path 20" d="M65,37.678A28.024,28.024,0,0,0,70.309,44l44.883-27.131A28.022,28.022,0,0,0,111.9,9.113a28.526,28.526,0,0,0-4.457-5.543L62.17,31.167A29.108,29.108,0,0,0,65,37.678Z" transform="translate(178.809 9.898)" fill="#f8aea5"/>
        <path id="Path_21" data-name="Path 21" d="M65.527,10.6l2.481,1.2,2.636-.775-.388,2.713,1.589,2.287-2.713.465L67.426,18.7l-1.279-2.442-2.6-.93,1.9-1.977Z" transform="translate(182.778 30.116)" fill="#e04b68"/>
        <path id="Path_22" data-name="Path 22" d="M68.5,8.79l2.481,1.24,2.636-.814-.388,2.752,1.589,2.248-2.713.5L70.4,16.891l-1.279-2.442-2.6-.891,1.9-1.977Z" transform="translate(191.319 24.91)" fill="#e04b68"/>
        <path id="Path_23" data-name="Path 23" d="M71.467,6.99l2.481,1.2,2.636-.775L76.2,10.13l1.589,2.287-2.713.465L73.4,15.091l-1.318-2.442-2.6-.93,1.9-1.977Z" transform="translate(199.861 19.734)" fill="#e04b68"/>
        <path id="Path_24" data-name="Path 24" d="M74.437,5.18l2.481,1.2,2.674-.775-.426,2.752,1.589,2.248-2.713.5-1.667,2.171-1.318-2.442-2.6-.891,1.9-2.015Z" transform="translate(208.402 14.528)" fill="#e04b68"/>
        <path id="Path_25" data-name="Path 25" d="M25.828,75.406a25.542,25.542,0,0,0,0,19.845,29.806,29.806,0,0,0,15.93,16.434,41.2,41.2,0,0,0,40.62-4.651,5.7,5.7,0,0,0,1.357.31,5.969,5.969,0,0,0,1.86,0,26.24,26.24,0,0,0,8.6,1.008,22.325,22.325,0,0,0,4.612-.31c5.93-.5,7.481-.426,9.341,1.783a5.581,5.581,0,0,0,3.876,1.9,5.426,5.426,0,0,0,3.876-1.434,5.543,5.543,0,0,0,.5-7.752c-5.775-6.744-12.829-6.124-18.527-5.659-1.434,0-2.829.271-4.225.31a18.644,18.644,0,0,1-3.876-.271,6.279,6.279,0,0,0-1.938-1.705A41.589,41.589,0,0,0,62.8,61.841C48.774,55.794,31.449,62.189,25.828,75.406Z" transform="translate(68.524 170.889)" fill="#8c5930" opacity="0.2"/>
        <path id="Path_26" data-name="Path 26" d="M25.277,75.692a25.891,25.891,0,0,0,0,19.845,30.116,30.116,0,0,0,15.853,16.318,41.317,41.317,0,0,0,40.736-4.38,5.427,5.427,0,0,0,1.318.31,4.924,4.924,0,0,0,1.86,0,26.4,26.4,0,0,0,8.6,1.008,25.038,25.038,0,0,0,4.612-.271c5.969-.543,7.481-.426,9.38,1.744a5.615,5.615,0,0,0,8.411-7.442c-5.775-6.744-12.829-6.163-18.488-5.659l-4.264.31a18.449,18.449,0,0,1-3.876-.31A6.24,6.24,0,0,0,87.485,95.5a41.627,41.627,0,0,0-25-33.41C48.222,56.313,30.9,62.592,25.277,75.692Z" transform="translate(67.022 171.998)" fill="#fff"/>
        <path id="Path_27" data-name="Path 27" d="M67.979,76.946a.426.426,0,0,0,0-.62c-3.876-4.767-8.76-4.341-14.225-3.876-1.4,0-2.907.271-4.5.31a13.566,13.566,0,0,1-9.884-2.4.465.465,0,0,0-.659.62s2.829,2.907,10.581,2.674a22.135,22.135,0,0,0,4.574-.31c5.388-.465,9.651-.853,13.411,3.566a.465.465,0,0,0,.7.039Z" transform="translate(111.179 201.752)" fill="#e4bc96"/>
        <path id="Path_28" data-name="Path 28" d="M39.869,71.922l.426-1.008a.233.233,0,0,0,0-.31l-1.124-.5a.31.31,0,0,0-.349,0L38.4,71.108a.271.271,0,0,0,0,.31l1.085.5a.31.31,0,0,0,.388,0Z" transform="translate(110.297 201.078)" fill="#6f94ef"/>
        <path id="Path_29" data-name="Path 29" d="M39.318,70.292s1.667,0,2.132.93a.88.88,0,0,1-.62.775c-.62.233-.5.5-.7,1.046s-1.318.388-1.512-1.55S39.318,70.292,39.318,70.292Z" transform="translate(111.003 201.39)" fill="#6f94ef"/>
        <path id="Path_30" data-name="Path 30" d="M39.477,103.523a35.5,35.5,0,0,0,39.186-7.209A36.24,36.24,0,0,0,56.609,63.136C45.524,58.368,30.95,62.9,26.144,74.027S28.315,98.755,39.477,103.523Z" transform="translate(70.767 175.795)" fill="#6f94ef"/>
        <path id="Path_31" data-name="Path 31" d="M25.2,68.291s19.38,25.736,48.992-.581A19.379,19.379,0,0,1,75.7,76.586c-.465,2.054-16.938,13.643-33.721,8.6A22.364,22.364,0,0,1,25.2,68.291Z" transform="translate(72.486 194.36)" fill="#4a7aff"/>
        <path id="Path_32" data-name="Path 32" d="M36.359,79.839a9.031,9.031,0,1,0,2.6-17.6,9.031,9.031,0,1,0-2.6,17.6Z" transform="translate(77.877 177.308)" fill="#8fabec"/>
        <path id="Path_33" data-name="Path 33" d="M32.569,64.432c2.287-.233,4.108-.891,3.876-1.512s-1.977-.969-4.225-.736-4.108.891-3.876,1.512S30.283,64.626,32.569,64.432Z" transform="translate(81.473 178.258)" fill="#fff"/>
      </g>
    </g>
  </g>
</svg>
