<svg xmlns="http://www.w3.org/2000/svg" width="320.067" height="264.399" viewBox="0 0 320.067 264.399">
  <g id="onborading4" transform="translate(-1.209 -9.137)">
    <g id="Layer_2" data-name="Layer 2" transform="translate(0.209 0.004)">
      <g id="Layer_1" data-name="Layer 1" transform="translate(1 -2)">
        <path id="Path_76" data-name="Path 76" d="M213.545,8.6a75.674,75.674,0,0,0-18.354,7.866,11.536,11.536,0,0,0-2.057.807c-2.743.766-8.068-1.331-14-3.509C165.664,8.6,145.333.853,118.63,11.18,86.359,23.644,77.646,45.951,71.959,60.715c-3.227,8.431-5.123,13.271-8.874,14.481l-.847.242A90.181,90.181,0,1,0,169.939,207.5a7.825,7.825,0,0,1,3.792-2.1,6.494,6.494,0,0,1,5.607.726,40.983,40.983,0,0,0,65.468-38.4c-1.21-7.866,3.106-9.076,4.518-9.479l5.2-1.129A77.042,77.042,0,1,0,213.543,8.59Z" transform="translate(8.965 17.566)" opacity="0.2"/>
        <path id="Path_77" data-name="Path 77" d="M212.1,7.388a75.675,75.675,0,0,0-18.354,8.068,11.536,11.536,0,0,0-2.057.807c-2.743.766-8.068-1.331-14-3.509-13.473-5.123-33.8-12.908-60.507-2.582C84.835,22.394,76.243,44.741,70.556,59.5c-3.267,8.431-5.325,13.271-8.915,14.28l-.847.242A90.208,90.208,0,1,0,168.5,206.294a7.825,7.825,0,0,1,3.792-2.1,6.494,6.494,0,0,1,5.607.726,40.983,40.983,0,0,0,65.469-38.4c-1.21-7.866,3.106-9.076,4.518-9.479l5.2-1.129A77.042,77.042,0,1,0,212.1,7.38Z" transform="translate(4.882 13.895)" fill="#fff"/>
        <path id="Path_78" data-name="Path 78" d="M209.942,9.034a70.107,70.107,0,0,0-17.063,7.342h0a12.1,12.1,0,0,1-3.187,1.452c-12.666,3.509-35.941-20.935-74.02-6.252C67.1,30.131,76.262,70.792,59.32,75.511h-.444a85.032,85.032,0,1,0,101.49,124.644,12.626,12.626,0,0,1,6.857-4.357,11.416,11.416,0,0,1,10.125,1.533,35.78,35.78,0,0,0,57.2-33.481s-2.9-12.1,8.269-15.207c.887-.242,2.662-.484,2.622-.565a9.987,9.987,0,0,0,2.582-.605A71.842,71.842,0,1,0,209.942,9.034Z" transform="translate(8.413 17.25)" fill="#ffb113"/>
        <path id="Path_79" data-name="Path 79" d="M12.774,182.615A85.073,85.073,0,0,1,65.214,80.237h.444c16.861-4.76,7.7-45.582,56.15-64.1,38.119-14.683,61.354,9.762,74.02,6.414a12.1,12.1,0,0,0,3.187-1.452h0A70.107,70.107,0,0,1,216.4,13.72a71.8,71.8,0,0,1,60.507,10.407A71.842,71.842,0,0,0,209.7,8.516a70.107,70.107,0,0,0-17.063,7.342h0a12.1,12.1,0,0,1-3.187,1.452c-12.666,3.509-35.941-20.935-74.02-6.252C66.868,29.613,76.024,70.274,59.082,74.993h-.444A84.952,84.952,0,0,0,38.47,223.638a84.427,84.427,0,0,1-25.7-41.024Z" transform="translate(8.651 17.768)" fill="#ffb113" opacity="0.5"/>
        <path id="Path_80" data-name="Path 80" d="M285.066,49.338A71.559,71.559,0,0,0,256.184,9a74.137,74.137,0,0,1,6.7,14.885,71.882,71.882,0,0,1-46.994,89.994l-2.541.686s-1.735.363-2.582.645c-11.093,3.469-7.664,15.49-7.745,15.49a35.78,35.78,0,0,1-56.11,35.618,11.3,11.3,0,0,0-10.165-1.17,12.706,12.706,0,0,0-6.7,4.558A84.71,84.71,0,0,1,7.42,196.773a84.71,84.71,0,0,0,139.731-6.494,12.626,12.626,0,0,1,6.857-4.357,11.416,11.416,0,0,1,10.125,1.533,35.78,35.78,0,0,0,57.2-33.481s-2.9-12.1,8.269-15.207c.887-.242,2.662-.484,2.622-.565a9.987,9.987,0,0,0,2.582-.605,71.842,71.842,0,0,0,50.261-88.259Z" transform="translate(21.669 27.288)" fill="#ffb113" opacity="0.3"/>
        <path id="Path_81" data-name="Path 81" d="M53.009,59.438H51.92a11.779,11.779,0,0,0,1.614-13.191h0a12.828,12.828,0,0,0-2.9-3.63,12.464,12.464,0,0,0-8.955-2.783,12.1,12.1,0,0,0-8.068,4.316,16.137,16.137,0,0,0-1.17,1.735l-.242.484a10.812,10.812,0,0,0-.645,1.452l-.242.565a7.667,7.667,0,0,1-.444,1.573.968.968,0,0,0,0,.323,15.57,15.57,0,0,0-.363,1.977v4.2a4.4,4.4,0,0,0,0,.726,7.06,7.06,0,0,0-2.541-.4,6.737,6.737,0,0,0-2.178.605,24.647,24.647,0,0,0-2.743-8.673,18.477,18.477,0,0,0-1.25-1.856,11.576,11.576,0,0,0-1.654-1.735,11.456,11.456,0,0,0-8.794-2.824A12.1,12.1,0,0,0,3.272,46.57l-.282.4h0a10.49,10.49,0,0,0-.807,1.21l-.524.524a12.1,12.1,0,0,0-.645,1.452v.726A11.738,11.738,0,0,0,5.047,63.471H3.918A2.461,2.461,0,0,0,1.7,66.134L2.385,74.2a2.5,2.5,0,0,0,2.1,2.219l2.945,33.561A2.461,2.461,0,0,0,10.09,112.2l45.461-4.034a2.461,2.461,0,0,0,2.259-2.662L54.865,72.184a2.461,2.461,0,0,0,1.694-2.541l-.726-8.068a2.42,2.42,0,0,0-2.824-2.138Z" transform="translate(0.767 120.696)" opacity="0.14"/>
        <path id="Path_82" data-name="Path 82" d="M52.089,59.756H50.959a11.7,11.7,0,0,0,1.614-13.191h0a11.5,11.5,0,0,0-2.9-3.59,12.1,12.1,0,0,0-8.955-2.783,11.537,11.537,0,0,0-8.068,4.276,12.1,12.1,0,0,0-1.17,1.775,1.654,1.654,0,0,0-.242.444c-.282.524-.484,1.008-.686,1.452s0,.363,0,.605a12.25,12.25,0,0,1-.484,1.533c-.161.524,0,.242,0,.363s-.242,1.25-.363,1.936a.605.605,0,0,1,0,.282V57.5a8.432,8.432,0,0,0-2.259,0,8.067,8.067,0,0,0-2.178.605,24.2,24.2,0,0,0-2.743-8.673,13.514,13.514,0,0,0-1.25-1.856,11.576,11.576,0,0,0-1.614-1.735,11.7,11.7,0,0,0-8.834-2.824,12.1,12.1,0,0,0-8.068,4.276l-.282.4h0a11.453,11.453,0,0,0-.807,1.17l-.363.645A12.1,12.1,0,0,0,.7,50.963v.726A11.7,11.7,0,0,0,4.732,64.274H3.6a2.461,2.461,0,0,0-2.259,2.662L2.07,75a2.42,2.42,0,0,0,2.1,2.219l2.9,33.561A2.461,2.461,0,0,0,9.734,113l45.5-4.034a2.461,2.461,0,0,0,2.219-2.662l-2.9-33.561A2.461,2.461,0,0,0,56.244,70.2l-.686-8.068a2.461,2.461,0,0,0-3.469-2.38Z" transform="translate(-0.209 121.749)" fill="#fff"/>
        <rect id="Rectangle_7" data-name="Rectangle 7" width="45.663" height="35.86" transform="translate(5.36 196.403) rotate(-4.97)" fill="#1b75bb"/>
        <path id="Path_83" data-name="Path 83" d="M47.781,83.54,2.32,87.574S22.287,86,32.856,73.174A52.2,52.2,0,0,0,44.675,47.68Z" transform="translate(6.197 144.636)" fill="#165f99"/>
        <rect id="Rectangle_8" data-name="Rectangle 8" width="45.663" height="2.42" transform="translate(5.413 196.448) rotate(-4.97)" fill="#165f99"/>
        <rect id="Rectangle_9" data-name="Rectangle 9" width="49.454" height="8.027" transform="translate(2.807 188.373) rotate(-4.98)" fill="#1b75bb"/>
        <path id="Path_84" data-name="Path 84" d="M50.193,45.64,2.473,49.795.9,49.956l.161,1.493.524,6.494,1.573-.161-.565-6.454,47.72-4.155Z" transform="translate(1.889 138.447)" fill="#709cd2"/>
        <rect id="Rectangle_10" data-name="Rectangle 10" width="13.392" height="8.027" transform="translate(20.736 186.813) rotate(-4.97)" fill="#fcb813"/>
        <rect id="Rectangle_11" data-name="Rectangle 11" width="13.392" height="1.694" transform="translate(20.746 186.802) rotate(-4.96)" fill="#ead77d"/>
        <rect id="Rectangle_12" data-name="Rectangle 12" width="13.446" height="36.005" transform="translate(22.22 195.656) rotate(-5.143)" fill="#fcb813"/>
        <rect id="Rectangle_13" data-name="Rectangle 13" width="13.392" height="2.42" transform="translate(21.455 195.058) rotate(-4.96)" fill="#bcab24"/>
        <path id="Path_85" data-name="Path 85" d="M14.646,49.338v-.323a4.372,4.372,0,1,0-8.713.726,2.057,2.057,0,0,0,0,.524Z" transform="translate(17.106 136.524)" fill="#fcb813"/>
        <path id="Path_86" data-name="Path 86" d="M24.415,42.971A9.56,9.56,0,0,0,10.9,44.141C6.021,50.192,8.8,61.567,8.8,61.567s12.1,0,16.781-5.083a9.479,9.479,0,0,0-1.17-13.513ZM21.47,55.92c-2.985,3.308-11.819,4.6-11.819,4.6s-.605-8.592,2.5-12.424a6.051,6.051,0,0,1,8.592-.726,5.93,5.93,0,0,1,.726,8.552Z" transform="translate(23.472 123.488)" fill="#fcb813"/>
        <path id="Path_87" data-name="Path 87" d="M25.907,45.23c.444.484.726.645.928.645a10.73,10.73,0,0,0-2.34-2.9,9.56,9.56,0,0,0-13.513,1.17,19.846,19.846,0,0,0-2.7,13.876,1.962,1.962,0,0,0,.363,1.17s-2.057-13.876,7.785-16.7a10.448,10.448,0,0,1,9.479,2.743Z" transform="translate(23.391 123.487)" fill="#ead77d"/>
        <path id="Path_88" data-name="Path 88" d="M4.067,58.314c5.567,4.316,17.426,2.1,17.426,2.1s.887-11.658-5.083-16.781A9.56,9.56,0,0,0,2.9,44.8a9.479,9.479,0,0,0,1.17,13.513Zm3.388-9.681a6.01,6.01,0,0,1,8.471-.686c3.671,3.187,4.518,11.658,4.518,11.658s-8.753.242-12.1-2.461a5.97,5.97,0,0,1-.887-8.511Z" transform="translate(0.981 125.49)" fill="#fcb813"/>
        <path id="Path_89" data-name="Path 89" d="M1.527,47.32c-.363.686-.605.686-.807.686a9.2,9.2,0,0,1,1.815-3.227,9.52,9.52,0,0,1,13.473-1.17A19.766,19.766,0,0,1,21.091,56.88c0,.726,0,1.21,0,1.21S20.566,43.972,10.361,43A10.286,10.286,0,0,0,1.527,47.32Z" transform="translate(1.343 125.432)" fill="#ead77d"/>
        <path id="Path_90" data-name="Path 90" d="M8.925,52.927a.282.282,0,0,1-.282.363h0s-.323,0-.363-.282L7.917,48.57a.291.291,0,1,1,.484-.323h0a.282.282,0,0,1,.363.282Z" transform="translate(23.028 145.964)" fill="#be8c0e"/>
        <path id="Path_91" data-name="Path 91" d="M7.625,58.881a.282.282,0,0,1,0,.363h0s-.363,0-.363-.282l-.4-4.437A.363.363,0,0,1,6.98,54h0a.363.363,0,0,1,.363.323Z" transform="translate(19.77 163.809)" fill="#be8c0e"/>
        <path id="Path_92" data-name="Path 92" d="M9.016,51.347a.282.282,0,0,1-.242.282h0a.363.363,0,0,1-.282-.242L8.25,48.362a.242.242,0,0,1,.242-.242h0s.242,0,.282.2Z" transform="translate(24.187 145.97)" fill="#be8c0e"/>
        <path id="Path_123" data-name="Path 123" d="M14.212,32.334h1.008a.252.252,0,0,0,.242-.282V30.922a.282.282,0,0,0-.282-.242l-1.049.2s-.2,0-.2.282l.282.807a.2.2,0,0,0,0,.363Z" transform="translate(41.419 93.061)" fill="#6f94ef"/>
        <path id="Path_124" data-name="Path 124" d="M16.1,31.249s.968,1.331.282,2.259a.673.673,0,0,1-.928,0c-.565-.4-.686,0-1.21,0s-.968-.887.484-2.017S16.1,31.249,16.1,31.249Z" transform="translate(40.862 93.783)" fill="#6f94ef"/>
        <path id="Path_129" data-name="Path 129" d="M38.189,91.656a9.117,9.117,0,0,0,4.034-2.783,8.794,8.794,0,0,0,5,0,9.116,9.116,0,0,0,5.889-11.456,7.626,7.626,0,0,0-.444-1.008,9.036,9.036,0,0,0,.484-6.736,8.834,8.834,0,0,0-4.518-5.325,8.673,8.673,0,0,0-5.849-.807,9.036,9.036,0,0,0-15.772,5,9.116,9.116,0,0,0-.565,16.135,8.068,8.068,0,0,0,.242,1.049,8.915,8.915,0,0,0,4.478,5.325A9.036,9.036,0,0,0,38.189,91.656Z" transform="translate(65.445 183.433)" opacity="0.2"/>
        <path id="Path_130" data-name="Path 130" d="M38.284,91.034a9.076,9.076,0,0,0,4.034-2.743A9.116,9.116,0,0,0,53.209,76.673a10.323,10.323,0,0,0-.444-.968A9.076,9.076,0,0,0,42.882,62.8,9.036,9.036,0,0,0,27.11,67.839a8.915,8.915,0,0,0-4.276,4.034,9.036,9.036,0,0,0,3.711,12.1,10.531,10.531,0,0,0,.242,1.089,9.157,9.157,0,0,0,4.478,5.325A9.036,9.036,0,0,0,38.284,91.034Z" transform="translate(65.35 181.191)" fill="#fff"/>
        <path id="Path_131" data-name="Path 131" d="M40,63.869a4.4,4.4,0,0,0-1.008.4l-.928.565-.444-1.008A4.921,4.921,0,0,0,31.53,61a5,5,0,0,0-3.308,5.809l.242,1.089H27.376a3.026,3.026,0,0,0-1.049,0A4.962,4.962,0,0,0,23.1,74.155a4.881,4.881,0,0,0,3.59,3.308H27.5v.807a5.526,5.526,0,0,0,.2,1.977,5.042,5.042,0,0,0,6.252,3.227,4.921,4.921,0,0,0,3.187-3.187l.444-1.21,1.049.766a4.948,4.948,0,0,0,7.624-5.526,4.921,4.921,0,0,0-.968-1.735l-.524-.645.565-.605a4.962,4.962,0,0,0-5.244-8.068Z" transform="translate(68.513 184.315)" fill="#8cd130"/>
        <path id="Path_132" data-name="Path 132" d="M25.874,68.25h0a4.962,4.962,0,0,0-2.824,2.34,4.034,4.034,0,0,1,1.089-.605,3.025,3.025,0,0,1,1.049,0h1.089l-.242-1.049S25.914,68.371,25.874,68.25ZM34.95,82.61a6.415,6.415,0,0,1-.524.887,4.881,4.881,0,0,0,1.654-1.613l-.686-.484Zm9.883-9.439-.524-.645.565-.605a4.962,4.962,0,0,0-5.244-8.068,4.4,4.4,0,0,0-1.008.4l-.928.565-.444-1.008a4.921,4.921,0,0,0-8.874-.524,4.356,4.356,0,0,1,1.049-.565,4.962,4.962,0,0,1,6.091,2.824l.444,1.008.928-.565a4.4,4.4,0,0,1,1.008-.4,4.962,4.962,0,0,1,5.244,8.068l-.565.605.565.645a5.525,5.525,0,0,1,.928,1.735,4.881,4.881,0,0,1-.4,4.034,4.881,4.881,0,0,0,1.17-7.382Z" transform="translate(69.087 184.25)" fill="#8cd130" opacity="0.7"/>
        <path id="Path_133" data-name="Path 133" d="M96.954,51.275l-5.526-4.316V39.94a4.176,4.176,0,0,0-6.333-3.469L79.286,40.5,72.67,38.246a4.041,4.041,0,0,0-5.163,4.921L69.4,49.9,65.369,55.47a4.034,4.034,0,0,0,3.146,6.656l7.019.242L79.568,68.1a4.034,4.034,0,0,0,7.261-.928l2.42-6.575,6.7-2.057a4,4,0,0,0,1.008-7.261Z" transform="translate(194.534 108.73)" opacity="0.2"/>
        <path id="Path_134" data-name="Path 134" d="M97.14,50.852l-5.526-4.478V39.4a4.034,4.034,0,0,0-2.138-3.711,4.235,4.235,0,0,0-4.316,0l-5.809,4.034-6.615-2.3a4.034,4.034,0,0,0-5.325,5.042l1.9,6.736L65.273,54.8a4.034,4.034,0,0,0,3.146,6.615l7.019.282,4.034,5.728a4.276,4.276,0,0,0,4.034,1.735,4.034,4.034,0,0,0,3.348-2.7l2.42-6.575,6.7-2.017a3.9,3.9,0,0,0,1.17-7.019Z" transform="translate(194.348 106.451)" fill="#fff"/>
        <path id="Path_135" data-name="Path 135" d="M84.46,36.14,84.3,45.176l7.1,5.607-8.632,2.662-3.146,8.511-5.2-7.422-9.036-.363,5.446-7.221-2.5-8.713,8.592,2.945Z" transform="translate(197.508 109.626)" fill="#ec1c24"/>
        <path id="Path_136" data-name="Path 136" d="M84.46,36.14l-1.452.968v6.656l1.412,1.129ZM66.388,52.88,65.38,54.171l8.632.363L73,53.122Zm23.356-3.388-8.39,2.541L78.369,60.1l1.25,1.815L82.766,53.4,91.4,50.742Z" transform="translate(197.508 109.626)" fill="#ec1c24" opacity="0.7"/>
        <path id="Path_137" data-name="Path 137" d="M81.7,16.013l-6.494-2.7L73.433,6.534a4.085,4.085,0,0,0-7.1-1.614l-4.558,5.325-7.019-.524A4.034,4.034,0,0,0,50.965,11.7a4.236,4.236,0,0,0,0,4.316l3.63,5.97-2.5,6.615a4.034,4.034,0,0,0,4.841,5.526l6.817-1.614,5.284,4.437a4.034,4.034,0,0,0,6.857-3.025l.565-7.019,5.889-3.751a4.236,4.236,0,0,0,1.9-4.034A4.034,4.034,0,0,0,81.7,16.013Z" transform="translate(151.981 10.432)" opacity="0.2"/>
        <path id="Path_138" data-name="Path 138" d="M81.8,15.333l-6.494-2.7L73.33,5.854a4.085,4.085,0,0,0-7.1-1.614l-4.6,5.325-7.019-.4a4.034,4.034,0,0,0-3.751,6.293l3.63,5.97-2.5,6.494a4.034,4.034,0,0,0,4.841,5.526l6.817-1.492,5.405,4.437a4.034,4.034,0,0,0,6.736-2.864l.565-7.019,5.889-3.751a4.236,4.236,0,0,0,1.9-4.034,4.034,4.034,0,0,0-2.34-3.388Z" transform="translate(151.318 8.369)" fill="#fff"/>
        <path id="Path_139" data-name="Path 139" d="M66.135,3.79l2.3,8.753,8.39,3.509L69.16,20.934l-.686,9.036L61.5,24.2l-8.834,2.138,3.308-8.431-4.76-7.745,9.036.524Z" transform="translate(154.519 11.482)" fill="#00b1f7"/>
        <path id="Path_140" data-name="Path 140" d="M65.043,3.79,63.913,5.121l1.694,6.454,1.654.686ZM52.175,24.806l-.605,1.533,8.39-2.017-1.331-1.089Zm21.581-9.6-7.422,4.72-.645,8.632,1.694,1.412.686-9.2,7.664-4.881Z" transform="translate(155.611 11.482)" fill="#00b1f7" opacity="0.6"/>
      </g>
    </g>
  </g>
</svg>
