<svg xmlns="http://www.w3.org/2000/svg" width="322.322" height="256.116" viewBox="0 0 322.322 256.116">
  <defs>
    <linearGradient id="linearGradient-21" x1="193.93" x2="193.93" y1="8.742" y2="39.87" gradientUnits="userSpaceOnUse">
      <stop offset="0" stop-color="rgb(255,255,255)"/>
      <stop offset="1" stop-color="rgb(227,227,227)"/>
    </linearGradient>
    <linearGradient id="linearGradient-23" x1="135.326" x2="135.326" y1="8.758" y2="39.873" gradientUnits="userSpaceOnUse">
      <stop offset="0" stop-color="rgb(255,255,255)"/>
      <stop offset="1" stop-color="rgb(227,227,227)"/>
    </linearGradient>
  </defs>
  <g>
    <g>
      <path fill="rgb(149,34,117)" fill-rule="evenodd" d="M148.2073288 203.12956748s-2.187 3.486-4.616 7.17c0 0-2.429 3.684-5.146 7.21 0 0-2.712 3.523-5.711 6.723-1.92622628 2.06947298-4.04139915 3.95464842-6.318 5.631 0 0 1.051.972 2.754 2.633 0 0 1.703 1.661 3.686 3.644 0 0 1.984 1.984 3.968 4.171 0 0 1.984 2.187 3.6 4.132.94880078 1.12004549 1.82843257 2.2968953 2.634 3.524.52126622.67510456.8684662 1.46806674 1.011 2.309-.01839848.5324198-.23610886 1.03850723-.61 1.418-.4500887.49519738-.98476952.90628193-1.579 1.214-.7213465.3801242-1.48268017.67895605-2.27.891-1.57143548.44143492-3.22824455.48337075-4.82.122-.72675174-.16139451-1.42359869-.43608382-2.065-.814 0 0-.728-.807-2.064-2.429 0 0-1.336-1.622-2.958-3.645 0 0-1.628-2.024-3.4-4.293 0 0-1.772-2.269-3.321-4.375 0 0-1.053 4.294-1.741 7.29 0 0-.688 2.996-1.256 4.943 0 0-.569 1.943-1.017 3.079-.21488217.62848309-.57575774 1.19704205-1.053 1.659-.38851517.34301081-.86696998.56783947-1.379.648-.65728457.09090067-1.32053023.13168493-1.984.122-1.07489663-.00015515-2.14702078-.10904276-3.2-.325-.86941561-.14789298-1.70549854-.44961428-2.469-.891 0 0-.568-.163-.814-1.863-.18273525-1.50482396-.26358605-3.02027529-.242-4.536 0 0 0-3.4.361-8.139 0 0 .361-4.739.891-9.883 0 0 .523-5.141 1.214-10.247 0 0 .691-5.106 1.459-9.36 0 0 .769-4.254 1.5-7.122.22441193-1.27986827.69255871-2.5047222 1.379-3.608.79910422-.99059034 1.8292808-1.76974722 3-2.269.9760761-.40977872 2.02153131-.62905277 3.08-.646 1.28738956-.0121182 2.56095243.2661105 3.726.814 1.05121518.48729945 2.03202744 1.1139295 2.916 1.863.72371433.60396792 1.35183018 1.31401194 1.863 2.106.34901332.47978997.57183911 1.03960539.648 1.628-.07939794 1.74199474-.28325105 3.47608296-.61 5.189 0 0-.61 3.643-1.581 8.505 2.0990354-2.57741638 4.03609186-5.28261593 5.8-8.1 0 0 2.63-4.212 5.467-8.75.6125856-1.0493781 1.49384258-1.91648249 2.553-2.512.88527567-.4707602 1.8713625-.72019832 2.874-.727.797577.00037367 1.58913674.13805094 2.34.407.71836023.24957003 1.38920188.61914156 1.984 1.093.53429689.42525804.9988958.93135708 1.377 1.5.33224548.47882042.5152722 1.04529857.526 1.628-.00558048.4499431-.1357289.88954012-.376 1.27l-.011-.002z"/>
      <path fill="rgb(15,156,233)" fill-rule="evenodd" d="M161.662323 211.52056885c-1.33522034-1.3163147-3.14865112-2.03259278-5.022995-1.98397827l-.0019989-.00802613c-1.06956482-.00167846-2.12913513.20587159-3.1190033.61102295-.9701538.38537598-1.85195922.96374512-2.59199523 1.6999817-.7344513.73461913-1.32495118 1.6001892-1.74099732 2.55200194-.43225097.96865845-.65315246 2.01831055-.64801025 3.07901001-.00834656.93087769.17088318 1.85388184.52700805 2.71398926.3419342.82595825.85287476 1.57125855 1.5 2.1880188.66134644.63113403 1.43006897 1.13909912 2.26998902 1.5.8946228.38510132 1.8600769.57824707 2.83399963.56698609 1.05995178.00497436 2.10882569-.21557618 3.07701111-.64700318 1.92097473-.8390503 3.4544983-2.37219238 4.29399109-4.29299927.43128967-.96896362.65214539-2.0184021.64801025-3.07901.04042054-1.84472657-.69406128-3.62197877-2.02500915-4.8999939zm-12.23500061 14.4199829c-2.02398682.76901246-2.18798828 2.14700318-2.18798828 2.14700318-.57501221 4.76098633-.8590088 9.41900635-.8590088 9.41900635-.28399657 4.6579895-.28399657 8.3829956-.28399657 8.3829956-.02316285 1.8541565.07170105 3.70788575.28399658 5.5499878.28601074 2.14801025 1.01699829 2.39001465 1.01699829 2.39001465.7973938.43112182 1.65859985.73190307 2.55101013.8909912 1.02568054.21343995 2.07034302.32232667 3.11799622.32501221.77685546.0097046 1.5521698-.0718689 2.30999755-.24301147.55731202-.10168457 1.07609559-.35418701 1.5-.73001099.40805054-.67468261.73466492-1.39538574.9730072-2.14697265.72799683-1.90002442 1.58099366-4.90002442 1.58099366-4.90002442.84899902-2.99798584 1.78100586-6.72399902 1.78100586-6.72399902.93199158-3.72598267 1.6599884-7.61398315 1.6599884-7.61398315.05223084-.21173096.0790863-.42892457.08000183-.64700318v-.64099121c.03155518-1.01934814-.25274658-2.02352905-.81399536-2.875-.53781128-.77996826-1.24382019-1.42926025-2.06599426-1.90002441-.89642334-.5085144-1.8652649-.8770752-2.8730011-1.09298706-1.03475952-.23654175-2.09255981-.3576355-3.15400696-.36099244-1.57307434-.02703857-3.13783264.23391724-4.6170044.76998902z"/>
      <path fill="rgb(252,211,6)" fill-rule="evenodd" d="M171.98632813 254.27957153c1.27714538.50384522 2.63708496.76498413 4.01000976.76998902l.0079956-.0039978c2.07504273.0621643 4.1449585-.23937989 6.11599732-.89099122 1.67713928-.6388855 3.26887512-1.48260498 4.73899841-2.51202392l.08100891-.07998657c.17919922 1.34283447 1.08151246 2.47869873 2.34899903 2.95700073.63365173.25241089 1.30326843.4029541 1.98399353.44598388.72999573.05300904 1.4940033.08102417 2.30799866.08102417.78999328.00793457 1.57835388-.0736084 2.3500061-.24301147.57000732-.09768677 1.10232544-.349823 1.53900146-.7290039.51400757-.97055054.89509583-2.00582886 1.13299561-3.07800294.81199646-2.75198364 1.8630066-6.88598632 1.8630066-6.88598632 1.05099486-4.13400269 2.18798827-9.03399659 2.18798827-9.03399659 1.13200379-4.90301513 2.1000061-9.43701172 2.1000061-9.43701172.96800233-4.53399658 1.57800294-8.26300048 1.57800294-8.26300048.3338623-1.79193116.53773498-3.60565186.6100006-5.42700196-.0794525-.56005859-.27313232-1.09786987-.56900024-1.57998657-.45814514-.8310852-1.0466156-1.58331299-1.74299621-2.22799683-.85179139-.80380249-1.82128907-1.47283935-2.875-1.98400878-1.2380066-.58981324-2.59701538-.88128663-3.96800232-.85101319-1.08302307.01217652-2.15367127.23181153-3.15400696.64700318-1.17080689.49957275-2.20098877 1.27908325-3 2.27001953-.45321655.58422851-.77087402 1.26190185-.92999268 1.98397827-.44900512 1.49902344-.89100647 3.68499756-.89100647 3.68499756-.44499206 2.19400024-.89100647 4.98501587-.89100647 4.98501587-.44598388 2.7909851-.77099609 5.7909851-.77099609 5.7909851-.80090332-.28182983-1.62702942-.4861145-2.46699524-.60998535-.8993988-.13449096-1.80760193-.20132446-2.71699524-.2000122-2.41809082-.0131836-4.80516052.54458618-6.9670105 1.62802124-2.16291809 1.0824585-4.0900116 2.58267211-5.66999817 4.41400146-1.65922546 1.92843628-2.9624939 4.1364441-3.84899902 6.5209961-.95407104 2.5362854-1.43437195 5.2262268-1.41699219 7.93597412-.0399475 2.96081542 1.19924927 5.79492187 3.3999939 7.77600097 1.03367615.92416382 2.22764587 1.65145874 3.522995 2.14602661zm7.16400146-12.75900268c.02209473-1.28363037.29876709-2.55010987.81401062-3.72598267l-.00300598-.00100708c.63845825-1.80737305 1.74223327-3.4143982 3.19999695-4.65899658.91941833-.87463379 2.09700012-1.42849731 3.35700988-1.57901001h.40699769l.40699768.24301147c-.32099915 3.23898316-.48500061 6.35897828-.48500061 6.35897828-.16400147 3.12002563-.2420044 5.87301635-.2420044 5.87301635l-.16400146.24298096c-.48750306.6147461-1.0939026 1.12490845-1.7829895 1.5-.55085755.28625488-1.16127015.43902588-1.78201295.4460144-1.0221405.00195313-1.99005126-.45959472-2.63198852-1.25500488-.77546692-.97457886-1.16490173-2.20056152-1.0940094-3.44400024z"/>
      <path fill="rgb(122,185,0)" fill-rule="evenodd" d="M216.5833288 255.70556748s-1.867-.083-3.608-.2c-1.13018094-.07541461-2.24632971-.29313418-3.322-.648-1.06635441-.3588397-2.0656409-.89244584-2.957-1.579-1.01100614-.80811645-1.86283427-1.79728152-2.512-2.917-.25927767-.44270683-.39949558-.94501078-.407-1.458-.02059337-.83532618.48028563-1.59541804 1.256-1.906.8193588-.4013214 1.71963619-.6099723 2.632-.61.68895338-.02735742 1.37303681.12642344 1.984.446.4871225.278751.93645905.61886213 1.337 1.012 0 0 .568.57 1.094 1.017.40351678.31461122.90704218.4729838 1.418.446.53270921-.01052294 1.05717585-.13354598 1.539-.361.98665813-.43234452 1.83109104-1.13465202 2.436-2.026.24881998-.34207513.39047212-.75032564.407-1.173 0 0 0-1.053-1.7-1.864 0 0-1.7-.811-3.764-1.9-1.35947852-.71739747-2.62394817-1.60192153-3.764-2.633-1.13672198-1.03244752-1.75898328-2.51452754-1.7-4.049-.04566407-1.85435074.50770545-3.67401767 1.578-5.189 1.05593177-1.4604855 2.42673981-2.66485537 4.011-3.524 1.6813402-.91312763 3.4845792-1.58121842 5.355-1.984 1.84176233-.42021357 3.72394114-.63783944 5.613-.649 1.03906787.01539587 2.07543115.11034012 3.1.284 1.1594932.18075768 2.29452629.49345376 3.383.932.98904623.39261704 1.90820864.94235855 2.722 1.628.71598394.56561788 1.13406033 1.4275551 1.135 2.34-.03306526.90845315-.34405894 1.78488988-.891 2.511-.6057327.8723859-1.6229479 1.36525946-2.683 1.3-1.27956051-.09235504-2.5005312-.57271979-3.5-1.377-.3251012-.17471783-.69125623-.25865714-1.06-.243-.87703114.03244831-1.7321418.28300124-2.488.729 0 0-1.343.727-1.343 1.7.04662736.46368482.30164307.88098326.693 1.134.72741592.50073447 1.543669.85812096 2.405 1.053 1.99557522.71393296 3.75689594 1.96193868 5.092 3.608 1.06679052 1.35083326 1.65457375 3.01780197 1.671 4.739-.00883533 1.38600608-.35807202 2.74861294-1.017 3.968-.7318119 1.35922686-1.72920818 2.55759866-2.933 3.524-1.41836975 1.13374908-3.01551666 2.02356876-4.726 2.633-2.08798677.74169495-4.27297912 1.17492039-6.486 1.286z"/>
    </g>
    <path fill="rgb(243,111,40)" fill-rule="evenodd" d="M304.39035034 190.05758667c.92648316.45584106 1.9444275.69519043 2.97698975.69998169l.00100708.01300049c1.95535278.00085449 3.88922119-.40792847 5.67700195-1.1999817 1.76428223-.76208495 3.38012695-1.82983398 4.77297974-3.1540222 1.35720825-1.28909303 2.46923828-2.81381226 3.28201294-4.5.80249023-1.63735963 1.22012329-3.43652345 1.2210083-5.25997926.01959228-1.45864868-.2173462-2.9093933-.7000122-4.28601074-.41851808-1.19696045-1.08081056-2.29406738-1.94500733-3.22198486-.82199097-.86499024-1.815979-1.54830933-2.91799927-2.00601196-1.16708374-.47607422-2.41760254-.71408082-3.67797852-.70001221-1.86294555-.00811768-3.70309448.40951538-5.38000488 1.2210083-1.67160034.8034668-3.16061401 1.94125366-4.375 3.34301758-2.62927246 3.0595398-4.06469727 6.9659729-4.0420227 11-.00891114 1.1699829.22964477 2.32867431.7000122 3.3999939.44262696 1.02099609 1.05984497 1.95703124 1.82400513 2.7659912.7373352.78231812 1.61306763 1.42138672 2.58300781 1.88500977zm5.46697998-10.06002808c.02301026-1.00180053.22976685-1.99087524.61001587-2.91799926l.00299072-.01000977c.19714356-.51623535.44116211-1.01330566.72900391-1.48498535.32183838-.54370117.69845581-1.05300903 1.12399292-1.52001953.40789795-.45117188.87954712-.840271 1.3999939-1.15499878.46447754-.29180908 1.0005188-.44958496 1.54901123-.45599365.63449096.03561401 1.21740722.36080932 1.58099365.88198852.5657959.8746338.82244873 1.9135437.7290039 2.95101929-.02893066.68725586-.13116454 1.3694458-.30499267 2.03500366-.2114563.89144898-.5185852 1.7574768-.91601563 2.5829773-.37722778.8118286-.89141845 1.55264282-1.519989 2.19000244-.53286744.57720947-1.28048707.90866089-2.06600953.91601562-.82589722-.00784302-1.59658813-.41610718-2.06698608-1.09500122-.60473633-.84881592-.90466309-1.87719726-.85101319-2.91799927z"/>
    <path fill="rgb(226,52,100)" fill-rule="evenodd" d="M30.9913288 145.80956748c-.656146-.62028789-1.5271063-.96222045-2.43-.954-1.49382636.05621067-2.86789573.8325021-3.687 2.083-1.05194196 1.33385204-1.61804294 2.98630255-1.605 4.685.02861824 1.91998074.82573878 3.74835121 2.213 5.076 0 0 2.213 2.3 4.9 4.859 1.82785883 1.75038305 3.46991582 3.68499427 4.9 5.773 1.52540801 2.31245831 2.29838497 5.04005753 2.213 7.809-.0292658 2.28158198-.50063059 4.53584675-1.388 6.638-.95694 2.3325433-2.34022441 4.46630784-4.079 6.292-1.87793283 1.97053812-4.11636325 3.5626277-6.594 4.69-2.78019656 1.25160705-5.80250293 1.8737562-8.851 1.822-3.11744168.04614381-6.18974768-.74835852-8.894-2.3 0 0-3.95-2.3-6.984-8.2-.4646801-.75613102-.7053288-1.62856922-.694-2.516-.00914174-.71813881.18649335-1.42402073.564-2.035.38151369-.61460046.88279577-1.14614991 1.474-1.563.61982712-.4411297 1.3070773-.77884478 2.035-1 .70036579-.2228101 1.43008213-.33976694 2.165-.347 1.14701472-.13833164 2.2781273.36012475 2.95 1.3.96633586 1.0168152 2.09380918 1.86723486 3.337 2.517.95380377.49133628 2.0073049.75813203 3.08.78 1.38718486.05030618 2.72419891-.52228064 3.645-1.561.92864676-1.05146339 1.42457996-2.415637 1.388-3.818-.05171354-1.5070199-.5001394-2.97371742-1.3-4.252-1.08712109-1.71594527-2.57476408-3.14216079-4.335-4.156-2.842406-1.6767941-5.17958371-4.0896321-6.765-6.984-1.41390381-2.62711286-2.15756025-5.56258071-2.165-8.546.03608005-4.99192945 1.99400852-9.77805638 5.467-13.364 4.01554819-4.09306317 9.53905363-6.35244888 15.272-6.247 2.74478972-.00624488 5.45625392.6012379 7.936 1.778 2.60097402 1.26547517 4.74040182 3.31363284 6.118 5.857.40428377.80688495.6132368 1.69750446.61 2.6-.00253835.71604941-.08947147 1.42930375-.259 2.125-.16823746.71293297-.46216464 1.39018453-.868 2-.38545836.58716035-.8871012 1.08914352-1.474 1.475-.62413347.38864417-1.34906793.58448779-2.084.563-.90205223-.0362064-1.78703326-.25745166-2.6-.65-1.17827612-.56866706-2.2606233-1.31767289-3.208-2.22l-.003-.009z"/>
    <path fill="rgb(122,185,0)" fill-rule="evenodd" d="M50.94832611 195.9645691c2.3083191-.01049806 4.59729767-.42160035 6.76500702-1.21499635l-.00200653-.00100708c.8733139-.28964233 1.7276535-.63366699 2.55800629-1.02999878.85105133-.41311645 1.67653656-.87695312 2.47200012-1.38900756.1292572 1.33395385 1.11601257 2.42626953 2.42999267 2.69000244 1.4763031.35794067 2.9909668.53326416 4.51000214.52200317.8458023.00875855 1.68986511-.0784607 2.51599884-.26000976.61094666-.10400391 1.18146515-.37420655 1.64900208-.78100586.42726135-.72229004.76316833-1.49487305 1-2.2999878.7330017-2.03799438 1.64900207-5.20599365 1.64900207-5.20599365.91099548-3.16400146 1.90899658-7.2000122 1.90899658-7.2000122.9980011-4.03601075 1.77799988-8.20001221 1.77799988-8.20001221.05400085-.24249268.08447266-.48962403.09100342-.73797608v-.65002441c.03070831-1.09893799-.25570679-2.1835022-.82499695-3.12399292-.55453491-.87249756-1.29353332-1.612854-2.16500854-2.16900635-.93148041-.59359741-1.95913697-1.02062988-3.03699494-1.2619934-1.09388733-.25656129-2.21343231-.38775635-3.33699798-.39099122-1.20080567-.00930786-2.39775086.13690186-3.56100464.43499756-1.0035019.24353027-1.94807434.68554688-2.77799988 1.2999878-.99171448-.368927-2.00572968-.67486573-3.03599548-.91598511-1.13784028-.26498413-2.30272675-.39620972-3.4710083-.39099121-2.47892762-.00268555-4.91584015.64007568-7.07099915 1.86499023-2.26406098 1.27383423-4.26607514 2.96536255-5.8999939 4.98498535-1.74346542 2.14642334-3.1212616 4.56552124-4.07800293 7.16000366-1.00541305 2.64715577-1.52014923 5.45535279-1.519001 8.28701783-.04895401 1.57769775.29466247 3.1428833 1 4.55499267.63008499 1.20507813 1.51776123 2.25662232 2.60000228 3.07998657 1.0903244.8196106 2.32714844 1.4234314 3.6439972 1.77902222 1.37094116.37808228 2.78688812.56814575 4.20899963.56500244zm3.6419983-12.92700196c.03822326-1.4008789.33239745-2.78295899.86800384-4.07797241l.00699615-.00802613c.69953156-1.96102905 1.91110993-3.69915771 3.50900269-5.03399658 1.01467132-.95431518 2.30594635-1.5621643 3.6879959-1.73599243h.25800324c-.34200287 3.64300537-.47599792 6.46499634-.47599792 6.46499634-.13400269 2.82199096-.21800232 5.77301025-.21800232 5.77301025-.61427307.8071289-1.38027954 1.48651123-2.25499725 2-.65962983.38040161-1.40380097.5900879-2.16500092.60998535-.88459778.01846314-1.73007965-.36419677-2.30000305-1.0409851-.65676117-.83813477-.98274231-1.88830567-.91600037-2.9510193z"/>
    <path fill="rgb(252,211,6)" fill-rule="evenodd" d="M83.1403288 212.79256748s-.7-.26-1.042-2.6c-.25725863-1.98492757-.37288422-3.98565127-.346-5.987 0 0 0-3.125.217-6.984 0 0 .217-3.859.564-7.9 0 0 .346-4.036.869-7.936 0 0 .523-3.9 1.041-7.288.34133944-2.8084234 1.27271391-5.51291948 2.733-7.936 1.18025346-1.76857719 2.87693782-3.13039423 4.859-3.9 2.33823453-.8440351 4.80314626-1.28365443 7.289-1.3 0 0 4.3-.13 10.022-.13 1.31843464-.03337966 2.63097235.1873005 3.866.65.99471246.38471704 1.896298.97645711 2.645 1.736.68093554.70345042 1.19943182 1.54758557 1.519 2.473.31186.8924742.47306084 1.83061578.477 2.776-.00179003 1.0487705-.17785496 2.08995297-.521 3.081-.33053946.98087476-.81418493 1.90327745-1.433 2.733-.57566754.78202878-1.29727441 1.44522795-2.125 1.953-.8103885.49183533-1.7420853.74744582-2.69.738-1.14124296-.01050286-2.26129696-.30943619-3.256-.869-.93817643-.5417524-1.99699727-.84014737-3.08-.868-.59781316.00752554-1.17085682.23995633-1.605.651-.64186005.74749021-1.04946987 1.66739462-1.172 2.645l-.347 1.563s1.563 0 3.167-.043c0 0 1.604-.043 3.337-.043.69380014-.0009712 1.32297104.40710787 1.605 1.041.4073725.83632314.60147403 1.7604526.565 2.69-.00582607.78952173-.10825411 1.57536313-.305 2.34-.37376495 1.57097772-1.35703756 2.92877897-2.733 3.774-.73145517.44306936-1.57401847.66853916-2.429.65h-2.994s-1.432 0-2.733-.091c0 0-.957 4.078-1.865 8.027 0 0-.908 3.949-1.692 7.115 0 0-.78 3.167-1.389 5.207-.17877722.80395612-.47103968 1.5783843-.868 2.3-.45259044.40068613-1.00568235.67066412-1.6.781-.78272195.17994778-1.58389178.26721387-2.387.26-1.1514582.00049984-2.29999957-.1157615-3.428-.347-.9545604-.17250545-1.87547444-.4962432-2.728-.959l-.007-.003z"/>
    <path fill="rgb(243,111,40)" fill-rule="evenodd" d="M126.61132813 194.10354614c1.32315063.65054322 2.77661132.99246216 4.25100708 1l.0079956-.00497436c2.12387085.0196228 4.23690796-.30490113 6.25700378-.96102906 1.73986817-.55526733 3.39027405-1.35925293 4.8999939-2.3869934 1.23977661-.8361206 2.31362915-1.89505005 3.16700745-3.12298584.66947937-.89437867 1.0613861-1.96575928 1.1269989-3.08099366.03565979-.77972412-.26385498-1.53744506-.82299805-2.08200073-.46652221-.48458862-1.10554504-.76525879-1.77799988-.78100586-.4406433.01199341-.86608886.16360474-1.21499633.4329834-.40100098.29101563-.80801392.60699463-1.2150116.95401001-.4013977.34313965-.8231659.66171265-1.26300049.95401001-.39421081.27716064-.86312866.4284668-1.34500122.43399048-1.19743347-.01901245-2.31204224-.61486817-2.99299622-1.6000061-.88774108-1.2183838-1.33328247-2.70315552-1.26300048-4.20898438.28552246.0595398.57633972.09002686.86799621.0909729h.8670044c1.6441803-.0036316 3.27972412-.23757934 4.85899353-.6949768 1.55097961-.42819214 3.01811218-1.11627198 4.33900451-2.03500367 1.2556305-.87713623 2.30665589-2.01550293 3.08100891-3.33700561.79879761-1.39941407 1.20378113-2.98898316 1.17199708-4.6000061.0389862-1.35729981-.30776978-2.69784547-1-3.86599732-.6524353-1.05609131-1.5257721-1.95843506-2.55999756-2.64498901-1.08746338-.71362305-2.29327393-1.22799683-3.56100464-1.51901246-1.33628845-.31820678-2.70535279-.478302-4.07899475-.47698974-2.59413147-.01605225-5.15385437.59387207-7.46200562 1.77798462-2.31306457 1.18603515-4.37571716 2.8069458-6.07499695 4.77401733-1.77967834 2.07214356-3.16212463 4.45462036-4.07800293 7.02798462-.98709106 2.71118164-1.48614502 5.57577515-1.47399902 8.46099854-.01271057 1.67202758.32806397 3.32788085 1 4.85900878.63180542 1.45617676 1.51152039 2.7916565 2.6000061 3.94699097 1.05299378 1.11636353 2.30334473 2.02835083 3.68798829 2.69000244zm15.3580017-25.46798706c.43595887-.01483154.84152222.22259522 1.04200745.60998535l-.00900269-.00299072c.08613587.22357178.1439209.45706177.17199708.69500733-.0119629.49526977-.19619751.97088623-.5209961 1.34500122-.38938904.47027587-.85939026.86746215-1.38800049 1.17300415-.58615112.35049438-1.2131958.62759399-1.8670044.82498169-.6590271.2003479-1.3441925.30145263-2.0329895.3000183-.34942626.01089478-.6989746-.01763915-1.04200744-.08502197.24819946-.52490234.55552673-1.01977539.91600037-1.47497558.86599731-1.14559937 1.9409027-2.1170044 3.16799926-2.8630066.4642334-.31134033 1.00386048-.4916687 1.56199646-.52200317z"/>
    <path fill="rgb(149,34,117)" fill-rule="evenodd" d="M180.0903288 193.14556748c-.65223774 1.05439173-1.5817684 1.90920016-2.687 2.471-1.1213952.59989148-2.37323169.91448194-3.645.916-1.4991744-.01755457-2.95538289-.50319049-4.165-1.389-1.48152214-1.1500565-2.52326387-2.77391686-2.951-4.6 0 0-.956-3.035-2.213-7.505 0 0-1.257-4.47-2.6-9.5 0 0-1.347-5.031-2.6-10.283 0 0-1.253-5.252-2.3-9.8 0 0-1.042-4.557-1.649-8.027-.33236022-1.65949953-.53629772-3.3421511-.61-5.033.12442273-.6700592.3903389-1.30587159.78-1.865.61606577-1.01666427 1.3597804-1.95025632 2.213-2.778 1.0432708-1.01829109 2.22817443-1.8805291 3.518-2.56 1.41363676-.75799933 2.9960653-1.14603833 4.6-1.128.96683057.00849851 1.92332202.19986467 2.819.564.99493246.40421889 1.89547364 1.0099137 2.645 1.779.6714572 1.1390544 1.18260653 2.36527442 1.519 3.644 0 0 .992 3.039 2.035 7.246 0 0 1.043 4.207 1.951 8.981 0 0 .916 4.773 1.431 8.764 0 0 1.648-3.991 4.035-8.721 0 0 2.387-4.73 4.69-8.894 0 0 2.3-4.164 4.164-7.2.69386636-1.29413776 1.55491568-2.49140314 2.561-3.561.96846601-.79595376 2.07103852-1.41293384 3.256-1.822.96458868-.3292658 1.97488587-.50507235 2.994-.521 1.23519073-.0093993 2.45519598.27256203 3.561.823 1.03263448.50394783 1.97176348 1.1803101 2.777 2 .70659767.7201486 1.3054496 1.53860201 1.778 2.43.37862442.64836557.60147989 1.37581237.651 2.125-.33467576 1.54674746-.89002537 3.03733408-1.649 4.426 0 0-1.649 3.561-4.3 8.676 0 0-2.651 5.115-5.9 11.107 0 0-3.256 5.984-6.421 11.628 0 0-3.165 5.644-5.944 10.377 0 0-2.77 4.717-4.344 7.23z"/>
    <path fill="rgb(15,156,233)" fill-rule="evenodd" d="M205.8623288 165.47256748s.173-1.474 2.34-2.3c1.58479612-.57332298 3.26092967-.85256561 4.946-.824 1.13900227.00455955 2.27396945.1356979 3.384.391 1.08052441.23148616 2.11922935.62707087 3.08 1.173.88025844.50472575 1.63640352 1.2000512 2.213 2.035.59975983.91271347.90291455 1.98842376.868 3.08v.695c-.0008681.23393643-.02974022.46692768-.086.694 0 0-.782 4.166-1.779 8.156 0 0-.997 3.99-1.909 7.2 0 0-.916 3.211-1.693 5.25-.25498614.80524077-.6047727 1.57732241-1.042 2.3-.45259044.40068613-1.00568235.67066412-1.6.781-.81137766.18268938-1.64137724.26961614-2.473.259-1.12121578-.00233164-2.23929255-.11859554-3.337-.347-.95597823-.1699426-1.8786283-.49167165-2.733-.953 0 0-.781-.261-1.082-2.56-.22718531-1.97323104-.32905625-3.95887935-.305-5.945 0 0 0-3.989.305-8.98 0 0 .305-4.991.903-10.105z"/>
    <path fill="rgb(122,185,0)" fill-rule="evenodd" d="M232.36132813 193.53756714c1.36949157.54000854 2.82789611.81915283 4.30000305.82299805l-.0079956.0119934c2.22105407.06777954 4.43681335-.25372314 6.54701232-.94998169 1.79650879-.68377685 3.50146484-1.58731079 5.07598877-2.69000244l.09100342-.08999633c.12091064.74713134.43688965 1.44909667.9159851 2.03497314.4402771.49560547.99023438.88153076 1.60601807 1.12701416.67910767.27011108 1.39660645.431427 2.12597656.47799683 1.17300415.08499145 2.47302247.08499145 2.47302247.08499145.84576416.00909424 1.68981933-.0777893 2.5159912-.25897217.61068726-.10388183 1.1809082-.37411499 1.64801026-.78100586.5524292-1.03997802.96115112-2.15011596 1.21499634-3.3000183.88101196-2.95199586 2-7.375 2-7.375 1.11898803-4.42300416 2.33999634-9.6749878 2.33999634-9.6749878 1.21499633-5.25 2.25500488-10.1080017 2.25500488-10.1080017 1.03997803-4.85800172 1.69198608-8.8510132 1.69198608-8.8510132.35586548-1.91955566.5730896-3.86224364.6499939-5.81298827-.08493042-.59991455-.29257202-1.17590332-.60998535-1.69198609-.48999024-.89031982-1.11965943-1.69622803-1.86499024-2.38702392-.91314697-.8609314-1.95205688-1.57781983-3.08099365-2.12597657-1.32592773-.63342285-2.78189087-.94714355-4.25100708-.91601562-1.16241455.01290893-2.31155395.24887085-3.38500976.69500732-1.25271607.5341797-2.3550415 1.36795044-3.20999146 2.42800904-.48693848.62567138-.82855225 1.35189819-1 2.12597656-.48001099 1.6080017-.95300293 3.94799805-.95300293 3.94799805-.47698975 2.33901977-.95501709 5.33700561-.95501709 5.33700561-.47799683 2.99801636-.8239746 6.20599365-.8239746 6.20599365-.8576355-.30029297-1.74197389-.51794433-2.64102174-.6499939-.96350097-.14547729-1.93655395-.21832275-2.91098022-.21798705-2.58908081-.01641846-5.14541626.57873535-7.4610138 1.7369995-2.31718444 1.15960694-4.38160705 2.76687623-6.07400512 4.72900391-1.7768097 2.0654602-3.17250061 4.4302063-4.12199402 6.98397828-1.0222168 2.7164917-1.53674317 5.59762573-1.51800537 8.5-.04368592 3.17260742 1.28466797 6.20953369 3.64401245 8.33102417 1.10772705.98968505 2.38664245 1.769104 3.77398682 2.29998779zm7.68399047-13.66699219c.02182007-1.37506103.31689453-2.73202515.86801148-3.9920044l.0039978-.0159912c.68417358-1.93408204 1.86624146-3.65353394 3.42700195-4.98501587.98577881-.93795777 2.24874878-1.53155518 3.6000061-1.69198609h.4329834l.43399048.25900269c-.34500122 3.47698974-.52099609 6.81698608-.52099609 6.81698608-.17599487 3.33999634-.25900268 6.29101563-.25900268 6.29101563l-.17398072.26000976c-.52194214.6604004-1.17150879 1.20898438-1.91000366 1.61297608-.58990478.30709839-1.24398804.47055053-1.90899658.47702026-1.09545899.00299072-2.13293457-.49182129-2.82000733-1.34500122-.83078003-1.04312134-1.24835205-2.35562134-1.17300415-3.68701172z"/>
    <path fill="rgb(252,211,6)" fill-rule="evenodd" d="M274.40930176 194.2385559c1.32305908.65078736 2.7765808.9927063 4.25100708 1l.01101684.00100709c2.12036133.0187378 4.2298584-.30511475 6.24697876-.9590149 1.73986817-.55526733 3.39028931-1.35925292 4.90002442-2.3869934 1.23947143-.83651734 2.31298828-1.89578247 3.1659851-3.12399292.67019654-.89413452 1.06280518-1.96554566 1.1289978-3.08099365.03463746-.78012085-.26596069-1.53781128-.82598876-2.08200074-.46585083-.48495483-1.10473633-.76574707-1.77700806-.78100586-.44277954.01031494-.87063598.16204834-1.2210083.4329834-.3999939.29000855-.80697632.60702515-1.21398926.95401001-.40002441.3427124-.82009887.6612854-1.2579956.95401001-.39428711.2769165-.86322022.42788696-1.34500122.4329834-1.1984253-.0198059-2.31338501-.6177063-2.99301148-1.60498047-.88735962-1.21820068-1.33288574-2.70251465-1.26300049-4.20800781.28594971.059021.57705689.08950806.86901856.09100342h.86798096c1.64419555-.00338745 3.27978515-.2373047 4.85900878-.69500733 1.55029297-.4283142 3.01675415-1.11639404 4.33700562-2.03500366 1.25540161-.8770752 2.30612183-2.01547241 3.07998657-3.33700562.79953003-1.3991394 1.20489502-2.98883056 1.17300415-4.59997558.04119873-1.35650635-.30276489-2.69692993-.9920044-3.86602783-.65310668-1.05587769-1.5267334-1.95812989-2.56100463-2.64498902-1.08724976-.71398925-2.29312134-1.22836303-3.56097412-1.51901245-1.3355713-.3184204-2.70401001-.47851562-4.07702637-.47698974-2.59411621-.01608277-5.15383911.59384155-7.4619751 1.77801513-2.31311035 1.1850586-4.37554931 2.8057251-6.07400512 4.77297974-1.78076172 2.07156372-3.16363526 4.45419311-4.07901001 7.02801514-.98727417 2.71044921-1.4866333 5.57437133-1.4750061 8.45898437-.01309205 1.67208862.32769775 3.32800293 1 4.85900879.63180541 1.45648193 1.51153564 2.79226685 2.6000061 3.94799805 1.05285644 1.11651611 2.30325317 2.02853393 3.68798828 2.69000244zm15.35803222-25.46899413c.43566895-.0145874.84066773.22335815 1.04000855.61102295l-.01101685-.00402832c.08850098.224823.14767456.460083.1760254.7000122-.01293946.49490357-.19665528.9701233-.52001954 1.34500122-.39016723.47000122-.86080932.86685181-1.38998413 1.17199707-.58566284.3510437-1.21240234.628479-1.86599731.8260193-.6590271.20031737-1.34420777.30142211-2.03302002.29998778-.34960938.00952149-.69918823-.0206604-1.04199219-.08999633.24819946-.52493286.55551148-1.01980591.9159851-1.4750061.86651612-1.14538575 1.9413147-2.11706544 3.1680298-2.86401368.46435546-.31088257 1.00396728-.49087524 1.5619812-.5209961z"/>
    <path fill="rgb(15,156,233)" fill-rule="evenodd" d="M217.7273288 139.78056748l2.717 5.507 6.077.883-4.4 4.287 1.038 6.052-5.436-2.857-5.436 2.857 1.038-6.052-4.4-4.287 6.077-.883 2.725-5.507z"/>
    <path fill="rgb(226,52,100)" fill-rule="evenodd" d="M264.7963288 40.99556748l-12.222 7.056v52.752l12.222 7.057c4.89390197 2.82382872 10.92245968 2.82266818 15.81527408-.00304454 4.8928144-2.82571273 7.90674594-8.04679748 7.90672592-13.69695546v-39.476c.00125762-5.65068086-3.01245843-10.87271297-7.90572576-13.69868727-4.89326732-2.8259743-10.92253788-2.82647472-15.81627424-.00131273v.011z"/>
    <path fill="rgb(26,26,26)" fill-rule="evenodd" d="M241.4573288 54.47556748v39.918l5.8 3.348v-46.615l-5.8 3.349z"/>
    <path fill="rgb(26,26,26)" fill-rule="evenodd" d="M87.5903288 46.92156748l-7.57 64.228c-1.335 11.575 7.623 21.537 18.506 20.58l121.546-10.683c8.953-.787 15.838-8.8 15.808-18.392l-1.59-55.652c-.032-10.261-7.918-18.517-17.525-18.331l-112.384 2.11c-8.58.156-15.739 7.044-16.791 16.14z"/>
    <path fill="rgb(226,52,100)" fill-rule="evenodd" d="M93.2463288 52.96656748l-6.647 52.478c-.57856543 4.70865945.99337508 9.42759935 4.28006684 12.84869115 3.28669176 3.42109179 7.93887739 5.1807962 12.66693316 4.79130885l111.278-9.156c8.19743449-.6764489 14.4982549-7.53974149 14.473-15.765l-1.74-45.126c-.0146173-4.22048107-1.72036687-8.25898793-4.73565734-11.21207064-3.01529047-2.95308272-7.08847381-4.57428496-11.30834266-4.50092936l-102.894 1.81c-7.85259867.14033176-14.40508159 6.03752375-15.369 13.832h-.004z"/>
    <g opacity=".34">
      <path fill="rgb(149,34,117)" fill-rule="evenodd" d="M228.9723288 97.84256748c-.577 10.377-4.622 14.86-12.819 15.536l-112.932 9.391c-4.72758589.38826255-9.3788168-1.37213209-12.66461424-4.79329437-3.28579743-3.42116228-4.85708573-8.1396357-4.27838576-12.84770563l6.468-50.069 136.226 42.783z"/>
    </g>
    <ellipse cx="193.93" cy="21.63" fill="url(#linearGradient-21)" rx="20.587" ry="20.587"/>
    <ellipse cx="135.326" cy="26.058" fill="url(#linearGradient-23)" rx="20.257" ry="20.257"/>
    <path fill="rgb(26,26,26)" fill-rule="evenodd" d="M116.9953288 28.84356748c-.0097884-8.42961798 5.20652661-15.98252322 13.09338714-18.95842413 7.88686053-2.97590092 16.7923855-.7515033 22.35361286 5.58342413-4.05832598-6.45552348-11.40022867-10.08249176-18.99327146-9.38285292-7.59304279.69963884-14.14856119 5.60714457-16.95892003 12.69556304-2.81035884 7.08841848-1.39859391 15.15472828 3.65219149 20.86728988-2.0547699-3.2292955-3.14642406-6.97741218-3.147-10.805z"/>
    <path fill="rgb(26,26,26)" fill-rule="evenodd" d="M212.4323288 17.11056748c-2.94268933-7.9938978-10.50042915-13.35345345-19.0177148-13.48637335-8.51728564-.1329199-16.2385857 4.9881926-19.4292852 12.88637335 2.04875976-8.88114068 9.68764747-15.36196725 18.7839245-15.93626736C201.86553033 0 210.25885517 5.46862107 213.4083288 14.02156748c1.6639854 4.68045635 1.54292413 9.81024944-.34 14.407.87599504-3.7548104.65489301-7.68223508-.637-11.315l.001-.003z"/>
    <ellipse cx="136.463" cy="29.553" fill="rgb(26,26,26)" rx="7.301" ry="7.301"/>
    <ellipse cx="192.393" cy="27.724" fill="rgb(26,26,26)" rx="7.159" ry="7.159"/>
    <path fill="rgb(238,205,214)" fill-rule="evenodd" d="M123.4783288 77.43456748s19.62 36.482 49.2 25.663c29.58-10.819 29.877-26.758 29.877-26.758s-28.584 33.479-79.077 1.095z"/>
    <g>
      <g>
        <path fill="rgb(255,255,255)" fill-rule="evenodd" d="M158.9323288 96.02956748l-1.215-.084c-1.0978481-.07529992-1.92691049-1.02612526-1.852-2.124l.29-4.24 5.189.355-.29 4.24c-.07530118 1.09839977-1.02657343 1.92790917-2.125 1.853h.003z"/>
        <path fill="rgb(51,17,31)" fill-rule="evenodd" d="M158.90933228 96.35656738h.16000366l.0039978.00100708c1.21028137-.0046997 2.21269226-.94085693 2.30000305-2.14801025l.31298828-4.55999756-5.82800293-.3999939-.31298828 4.55999756c-.08578491 1.2734375.87571717 2.37588501 2.14900208 2.46398926l1.21499634.08300781zm1.2606964-1.04824829c-.33496093.29199219-.77243041.4385376-1.21569824.40722656l-1.21499633-.08398437c-.4432068-.02975464-.8563385-.2347107-1.14811707-.56964111-.29177856-.33493042-.43818664-.77227784-.40689087-1.21536255l.27101135-3.92300415 4.55499268.31201172-.2709961 3.9239807c-.02947997.4433899-.23434448.85678101-.56930541 1.1487732z"/>
      </g>
      <g>
        <path fill="rgb(255,255,255)" fill-rule="evenodd" d="M163.7083288 96.35356748l-1.215-.083c-1.0978481-.07529992-1.92691049-1.02612526-1.852-2.124l.29-4.24 5.189.361-.29 4.24c-.07843384 1.09586715-1.02893166 1.9215702-2.125 1.846h.003z"/>
        <path fill="rgb(51,17,31)" fill-rule="evenodd" d="M163.68533325 96.66656494c.0535431.00442505.10728455.00610352.16099549.00500488l.00300598.00100708c1.21263122-.00445556 2.216156-.9442749 2.30000305-2.1539917l.31298828-4.559021-5.82800293-.39999389-.31298828 4.55999756c-.08578491 1.2734375.87571716 2.37588501 2.14900207 2.46398926l1.21499634.08300781zm-2.72599792-2.50500488l.2709961-3.92300415 4.55599975.31298828-.2709961 3.92300415c-.0703888.91888428-.86514282 1.61123657-1.78500366 1.55499268l-1.21499634-.0829773c-.92243957-.06356811-1.61891174-.86251831-1.55599975-1.78500366z"/>
      </g>
      <path fill="rgb(26,26,26)" fill-rule="evenodd" d="M200.61331177 74.69656372c.7022705-.81762695 1.84236145-1.10614014 2.84899902-.72097778 1.00097656.3847351 1.65408325 1.35482788 1.63400269 2.42700195-.0130005.72000122-.6869812 17.80697632-31.5519867 29.09997559-3.78082275 1.41052246-7.78071594 2.1434021-11.81600952 2.16500854-24.61399841 0-39.86299133-27.82699585-40.5-29.0119934-.55126953-1.02365113-.34065247-2.29055787.51219177-3.08078004.85282898-.79022216 2.13208008-.90380859 3.11080933-.2762146 14.18200684 9.09698487 27.91000366 13.70898438 40.79000854 13.70898438 13.11077881.14379883 25.72314454-5.01733398 34.97198487-14.31100464zm-77.13798523 2.74899292s19.6210022 36.48199463 49.19999695 25.66299439l-.00099182.0039978c29.57699584-10.82800293 29.8769989-26.7579956 29.8769989-26.7579956s-28.58300782 33.46398925-79.07600403 1.09100341z"/>
    </g>
  </g>
</svg>
