<svg xmlns="http://www.w3.org/2000/svg" width="137.054" height="133.641" viewBox="0 0 137.054 133.641">
  <g>
    <path fill="rgb(255,193,159)" fill-rule="evenodd" d="M105.84605673 29.80840114c.11138352.22254236.48675788.31084654 1.06785483.46805173.50300957.1362181 1.26446063.31678628 1.51497446.62248505.2671619.32589388-.07927653.59397427-.68653474.64545204-1.00483.08355239-3.28046274.18888382-4.4137207.16037306-1.93355453.07484076-3.72124025-1.40019536-3.73511364-3.21498478-.0206119-2.72159014.13794116-3.77886435.18669623-5.4518919.01189148-.41261413.849448-.02494692 1.04922485.5032942.42809325 1.13132301.21880322 1.52730586.48517235 2.08920553.26002701.54804027.74519937.42766148 1.22878619.09543187 1.867755-2.27769337 2.69817664-3.78836795 3.56744377-3.59750421.6920841.27085227-.3836984 2.01436477-1.68660814 3.92458604 2.09052205-1.3946516 3.8821716-2.34025865 4.16201774-1.74232454.33058312.70762135-1.4479858 1.94506776-2.96771684 3.21379682 1.91769922-.02177905 3.89881966-.59041043 3.91110752.41261413.01030595.7321723-3.99791532 1.24695-3.68358388 1.87141496z"/>
    <path fill="rgb(255,193,159)" fill-rule="evenodd" d="M69.02964061 60.13989563c-2.28831699-2.45509368-5.59930119-7.81551355-7.21416407-9.99500316-1.48167831.82760416-4.2860855 3.41218423-2.1713841 5.80035681 1.9886517 2.24601474 3.9547096 4.11188593 7.03817017 6.74437993.45068706.38172747 2.73940044-2.13038774 2.347378-2.54973358z"/>
    <path fill="rgb(34,73,102)" fill-rule="evenodd" d="M66.16934347 65.65158095c0 2.85107653-3.80527335 5.15926057-8.50082212 5.15926057s-8.50082213-2.31016395-8.50082213-5.15926057c0-2.84909662 3.80527336-5.15926058 8.50082213-5.15926058 4.69554877 0 8.50082212 2.31055994 8.50082212 5.15926058z"/>
    <path fill="rgb(27,97,104)" fill-rule="evenodd" d="M98.56807505 57.3581161c0 2.85107653-5.25920489 2.46222137-9.9539609 2.46222137-4.694756 0-9.35264842-2.56002914-9.35264842-5.40912576s5.14623584-6.73170848 9.52190382-5.02898222c6.15344412 2.39094446 9.7847055 5.12678999 9.7847055 7.9758866z"/>
    <path fill="rgb(239,37,37)" fill-rule="evenodd" d="M0 76.1201796s21.00273064 5.54059207 25.95156791 14.76303269c12.57682483-5.12085025 25.86357097-9.25134737 25.86357097-9.25134737s-8.91860943-13.51608269-15.50688531-15.87614048C30.37559457 63.63088045 0 76.1201796 0 76.1201796z"/>
    <g opacity=".5">
      <path fill="rgb(191,6,6)" fill-rule="evenodd" d="M0 76.1201796s21.00273064 5.54059207 25.95156791 14.76303269c12.57682483-5.12085025 25.86357097-9.25134737 25.86357097-9.25134737s-5.4003171-13.59527926-11.43960303-11.60665337c-3.07077632 1.01094422-13.83375418 8.636386-20.28567444 9.15947934-4.94408068.40073465-10.06811909-3.2074611-11.47091726-6.419674C3.6265048 74.6289082 0 76.1201796 0 76.1201796z"/>
    </g>
    <path fill="rgb(239,37,37)" fill-rule="evenodd" d="M23.63154031 133.64104465s11.08246227-18.60565028 8.12108756-28.63747985c12.57682483-5.12124622 24.96219684-11.44390442 24.96219684-11.44390442s3.15282753 15.86346903.11336544 22.14454903c-2.73662576 5.65384316-33.19664984 17.93683524-33.19664984 17.93683524z"/>
    <g opacity=".5">
      <path fill="rgb(191,6,6)" fill-rule="evenodd" d="M23.63154031 133.64104465s11.08246227-18.60565028 8.12108756-28.63747985c12.57682483-5.12124622 24.96219684-11.44390442 24.96219684-11.44390442s-16.17241177 9.04900013-19.21385577 15.33008013c-1.35483587 2.79959876-5.68412708 19.57224442 1.93672558 17.79150953-8.04220741 3.82796623-15.8061542 6.95979461-15.8061542 6.95979461z"/>
    </g>
    <path fill="rgb(216,212,212)" fill-rule="evenodd" d="M23.77423806 112.66266512c15.96986024 1.65402037 37.3305244-2.17315389 57.13657585-10.2365527 34.6291767-14.10411722 56.14284455-42.2513703 53.9338041-47.64148888-2.5507223-6.20069548-36.9630777-10.62619983-72.01242 3.64304224-16.00830935 6.52064962-30.90397263 15.93078611-41.48738915 26.0406243-2.34499971 2.23967902-4.47912385 4.51420452-6.36590523 6.7962537l-.24536085.29579918 8.66056433 21.0623279.38013095.03999426z"/>
    <path fill="rgb(235,227,235)" fill-rule="evenodd" d="M23.90662987 112.04057606c13.50158553 1.3994034 34.62838393-1.1705253 56.76833636-10.1858669 35.24396618-14.35121052 55.47850726-42.03753955 53.51918786-46.80517309-2.21419343-5.38932661-35.88214223-10.40207354-71.1261084 3.94913698-22.14193435 9.01415364-38.91843326 22.16791202-47.5536291 32.61473161l8.39221328 20.4271714z"/>
    <path fill="rgb(145,29,29)" fill-rule="evenodd" d="M35.58009866 93.78180676c2.60463033 6.33849751 5.6286335 12.36614848 8.8119825 17.70043348.95131833-.11879485 1.90858241-.24352945 2.886062-.38964713-3.32366844-5.45307985-6.48838745-11.73020002-9.19885195-18.3280663-2.22942736-5.43270236-4.09559906-11.00718327-5.58622057-16.68671737 0 0-1.17408538.86680646-2.29664102 1.73480087 1.41746433 5.2119263 3.15520583 10.54423138 5.38366904 15.96919645z"/>
    <path fill="rgb(239,37,37)" fill-rule="evenodd" d="M118.78557167 77.38653276c-2.7675436-3.66125745-5.08638205-7.74423663-6.91370603-12.192312-2.07902695-5.05986889-3.38788243-10.35772346-3.87226202-15.55658233-.40074285.00752368-.80743144.01900718-1.21451642.03088667.48160491 5.3457685 1.81582888 10.79132467 3.9507458 15.98820362 1.8859886 4.58983724 4.2860855 8.80071889 7.15827411 12.56928769.30402549-.28114783.59576311-.55991975.89146456-.83948365z"/>
    <path fill="rgb(145,29,29)" fill-rule="evenodd" d="M31.34435375 95.7922117c2.36442246 5.75640272 5.07805802 11.26056436 7.9375624 16.21945761.49904574-.03959828.97787597-.06414922 1.48564213-.11206314-2.94631217-5.0479894-5.74398085-10.70024863-8.17420283-16.61623243-2.12659287-5.17549588-3.81914675-10.26941929-5.19816196-15.24731972-.3856803.31678629-.74044277.63357257-1.11542075.95035885 1.36395267 4.84287028 3.0006166 9.78315234 5.064581 14.80579883z"/>
    <path fill="rgb(239,37,37)" fill-rule="evenodd" d="M114.21726173 63.9136122c1.76231722 4.29007823 4.22345704 8.01033712 7.10000587 11.0126791 9.2642551-9.34004752 13.85991544-17.48779069 12.87767926-19.87833916-1.09203418-2.6578369-9.84337014-5.21944997-22.65287158-5.41664943-.1462652 4.57874971.70199366 9.48101742 2.67518645 14.2823095z"/>
    <path fill="rgb(239,37,37)" fill-rule="evenodd" d="M23.11426097 112.88283159l-8.77274062-21.35416726 1.62992542-1.27783666 9.23373363 22.53973991-2.09091843.092264z"/>
    <path fill="rgb(145,29,29)" fill-rule="evenodd" d="M19.52937636 115.27654793l-9.43033942-22.95433396 4.28727465-1.7458884 9.43033942 22.95433396-4.28727465 1.7458884z"/>
    <path fill="rgb(239,37,37)" fill-rule="evenodd" d="M28.86696224 101.21994865c-11.6048946 4.72288748-21.27028892 6.73883617-21.69957132 5.69304546-.39638264-.96699012 7.88801456-6.34839708 19.49092724-11.07128455 11.60291268-4.72288748 21.34639439-6.3388935 21.62386224-5.66255479.24575724.5983301-7.81151272 6.3179064-19.41521816 11.04079388z"/>
    <g opacity=".13">
      <path fill="rgb(38,1,1)" fill-rule="evenodd" d="M134.24766575 53.97998639c-5.63775031 13.9730469-30.59915439 30.95833534-63.05258677 41.57067577-23.14280051 7.56881623-44.94384579 10.19457852-60.08249163 8.17308606-2.6375301 1.61917389-4.1033531 2.80276663-3.94519643 3.18805794.22752364.554376 3.46914088.07048495 8.39736626-1.28694426l3.96382641 9.65049808 4.28727465-1.7458884-.3289976-.79988536.1918492-.07919657.09473546.00989958c2.54992953.26412056 5.27624934.33896132 8.0723325.32866576-1.6786805 9.64693424-8.21503025 20.64971376-8.21503025 20.64971376s6.73335193-2.62813819 15.8061542-6.96098255c7.88127606-3.7618371 16.03565976-8.1770459 17.39049563-10.97704064.74837043-1.54670902 1.11859181-3.67670078 1.2557402-6.00547593 7.78691052-1.82623218 15.41909472-4.25744084 22.82688356-7.2714331 34.6291767-14.10411723 56.14284456-42.2513703 53.9338041-47.64148889-.11217629-.27204021-.36150097-.53655676-.5961595-.80226125z"/>
    </g>
    <g opacity=".29">
      <ellipse cx="111.748" cy="53.917" fill="rgb(255,255,255)" rx="12" ry="2.656" transform="rotate(-4.990002 111.74803708 53.91719297)"/>
    </g>
    <path fill="rgb(255,193,159)" fill-rule="evenodd" d="M102.88349287 31.21612018c.39083328-.20630707-1.41032944-3.41337218-1.81463974-3.23122007-6.04047507 2.7223821-13.79411592 5.68670973-15.43751835 6.1864401l2.20904046 4.2833465c3.4524928-1.63540918 9.88181925-4.51341254 15.04311763-7.23856653z"/>
    <path fill="rgb(249,80,6)" fill-rule="evenodd" d="M93.43333431 31.22008c.64927477 1.49800314 1.59504375 4.62270382 2.16860943 6.21693078-3.23487873 1.39742349-5.9302807 2.3600578-6.1859475 2.31491576-2.66091667-.46923968-4.3110576-5.56197514-4.50488872-5.86054621 1.70167068-.4339972 5.33134653-1.40455118 8.5222268-2.67130032z"/>
    <path fill="rgb(249,80,6)" fill-rule="evenodd" d="M71.5534089 46.81863651c5.51645721.64703598 7.47220916 7.52644607 13.03107933 5.3319091 2.24352575-.88541766 2.7905338-3.09539795 5.30122144-2.58141221.42412943-.83869168-.79593634-.85967877-.39638264-1.20378787.64967115-.55793984.1002848-.51160984.12367138-.73613212.51529744-4.94978565.2580451-10.35099175.45147983-13.64358916-1.76826296-.8612627-11.73292618-1.46513656-15.27936167-.70286957-1.98032768 4.12732927-2.457176 8.09745334-3.23170768 13.53588183z"/>
    <path fill="rgb(160,46,7)" fill-rule="evenodd" d="M78.6756122 32.91211473c-.07300717.14764-.11853868.30730918-.13437372.4712196-.09314993 1.8840864 1.84119736 3.66640522 4.35505608 3.78995187 2.5138587.12354665 4.65670327-1.45840484 4.7494568-3.34249125.00594574-.11364708-.09711374-.52507326-.11891479-.6557476-2.2673087-.36153235-5.82642844-.31243047-8.85122438-.26293262z"/>
    <path fill="rgb(255,193,159)" fill-rule="evenodd" d="M86.95723472 28.71984428l-.39638264 5.52475275c-.08522227 1.18794856-1.6648071 2.04327152-3.52978743 1.91022128-1.86498032-.13305024-3.30702037-1.20457984-3.2217981-2.3925284l.39638264-5.52475274 6.75158553.48230711z"/>
    <g opacity=".19">
      <path fill="rgb(122,0,0)" fill-rule="evenodd" d="M89.24515532 30.95991927c.05968174-.2921827.0796808-.59106695.0594574-.88858551-2.73900405-.64584804-6.89705796-1.37049666-9.9194756-1.57680372-.04598039.12552656-.1189148.23758971-.14745434.37222388-.51291914 2.30343225 1.31163016 4.63893911 4.07520993 5.21707407 2.76357978.57813497 5.41934348-.82126843 5.93226261-3.12390872z"/>
    </g>
    <path fill="rgb(255,193,159)" fill-rule="evenodd" d="M77.21890598 70.78629059c-.04241294.14690963 5.19935111 1.89675786 5.27188913 1.72648523.6369869-1.48057988 1.67273475-4.55895057 2.02630807-5.42496507l-5.59731928-1.87418684c-.40272477 1.55542064-1.39566328 4.51103665-1.70087792 5.57266668z"/>
    <path fill="rgb(255,255,255)" fill-rule="evenodd" d="M76.83005461 71.59132372c-.01981913.09147204 6.24580128 2.17038202 6.29614188 2.06821844.44038111-.88858552 1.18558048-3.13737214 1.42222092-3.65927753l-6.8483029-1.87141496c-.22990193 1.04539473-.72538023 2.79959876-.8700599 3.46247405z"/>
    <path fill="rgb(6,126,135)" fill-rule="evenodd" d="M84.13181925 72.878268c.03963826-.3441091.02140466-.80740904.02933231-1.22121112.00594574-.30688671-2.62207117-1.30911931-2.886062-.67317085-.06147347.14609787-.11441338.29563448-.15855306.4478566-.44870515-.17462843-.93070645-.3738078-1.43490517-.59714214-1.09639438-.48587095-2.0572259-.97530576-2.71205003-1.36653682-.4518762.9951049-1.06666569 2.78534338-1.5597657 3.89528332 0 0 10.77447297 6.84020778 13.28674615 5.88707706.70714663-.26689245-1.36950203-3.55038225-4.5647425-6.37215606z"/>
    <path fill="rgb(3,97,99)" fill-rule="evenodd" d="M75.70274238 72.66285332c-.10068119.25026116-.19819132.49062276-.29371954.7020776 0 0 10.77447296 6.84020778 13.28674614 5.88707706.09988843-.03959829.14349052-.13661409.13754478-.2843157-3.4937166-.58961846-10.43001644-4.65913423-13.13057138-6.30483896z"/>
    <path fill="rgb(211,218,229)" fill-rule="evenodd" d="M84.81518555 73.53399658c.08023071.0546875.18963623.0340271.2443695-.04611206.05472565-.08016968.03405-.18945312-.04618072-.24414062-.61795807-.4173584-1.53162384-.4201355-2.22410584-.00198365-.08293151.05010987-.10954284.15786744-.05945587.24075318.01877594.03070068.04641724.05499267.07927704.06970215.05249024.02319336.11299133.01934814.162117-.01028443.57832337-.35125732 1.33779145-.35717773 1.84397889-.00793457zm.73052978.77020264c.04072571.02319336.08917237.02874756.13408661.01535034.04492188-.0133667.0824051-.04452515.1037445-.08621216.04602052-.08520508.01426698-.19152832-.07095336-.23760986-.67979431-.3694458-1.49079132-.38409424-2.2252884-.04553223-.08811187.04055786-.12662505.14480591-.08601379.23284912.04060364.0880127.1449585.12649536.23307038.08590699.8660965-.40112305 1.56769561-.15164185 1.91135406.03366088v.00158692zm-1.36791992.4328308c.75590515-.31323241 1.70127869-.27798461 2.29901886.09066773v-.00158691c.0404129.02404785.06941986.0633545.0804596.1090393.01103973.04568482.00318145.09387208-.02178956.13369752-.02389526.04016113-.06304931.0689392-.10853576.07974243-.04548645.01083374-.09342194.0027771-.1328659-.02230835-.50141908-.31799317-1.32192994-.33816528-1.98191071-.06533814-.05841065.02658081-.12669373.01922608-.1780777-.01919555-.05138397-.03845215-.0776825-.10183716-.06858063-.16531372.0091095-.06347657.05216217-.11694336.1122818-.1394043z"/>
    <g opacity=".3">
      <path fill="rgb(0,0,0)" fill-rule="evenodd" d="M79.78231253 51.59260577c1.38337541.98995713 5.9576311 3.18291017 7.09524928 5.81738408.79276528 1.83775642.10345587 5.88311723-1.96764344 11.98640093-.36110458.14136587-4.65868518-1.70272627-6.62712138-2.54379384 1.58156674-4.9208789 1.72664279-5.726704 1.25494745-6.02963089-1.53875742-.98758123-2.25938106-1.58076354-4.49022257-2.91680969-1.2077779-.72227272 2.17772624-4.1265373 4.73479066-6.31355059z"/>
    </g>
    <path fill="rgb(27,97,104)" fill-rule="evenodd" d="M73.9075254 47.4236983c1.5458923 1.0461867 4.02764402 2.85860022 4.7906806 3.3809016 4.9072171 3.35872655 6.82412356 4.48331785 7.97759704 7.11026809.80426038 1.83221265-.26121616 5.25865227-2.07506313 11.22136205-.48477597-.07642469-5.33729226-1.72886113-6.60016736-2.33115105 1.37663692-4.81158763 1.74408362-5.5259407 1.29815315-5.85183458-1.1007546-.8038452-2.73504022-1.60056269-3.61500969-2.1383074-1.18240942-.72227272-3.02519232-1.79380232-3.67089964-3.19241375-1.15268072-2.4986518.14467967-5.33270107 1.89470903-8.19882495z"/>
    <path fill="rgb(249,80,6)" fill-rule="evenodd" d="M70.83080334 51.36253974c.29332315.52903309.79276528 1.73084104 3.20277174 1.27783666 1.74170532-.32826979 3.43069176-2.95007225 6.97078513-1.3740605-2.11826884-4.54944698-7.56099889-5.37190337-9.33362206-5.37190337-.23109108 1.30199162-.54661166 3.75589735-.83993481 5.4681272z"/>
    <g opacity=".34">
      <path fill="rgb(255,255,255)" fill-rule="evenodd" d="M84.12745904 38.68950454l.8676816 1.75618395c.07715136.15632227.22647444.26460934.39915732.28946347l1.93989665.28193979c.1997247.02875143.36573588.16839433.42810564.36010773.06236977.1917134.0102574.40217495-.1343861.54273317l-1.40398732 1.3669328c-.12477742.12163344-.18169133.29679293-.15221093.46844772l.33137588 1.93081238c.03392179.19849017-.04780569.39902047-.2108662.51739103-.1630605.11837057-.3792214.13408647-.55771974.04054881l-1.73575958-.91076056c-.1543231-.08117884-.33877692-.08117884-.4931 0l-1.73536321.91076056c-.17852685.09376377-.39485499.07816316-.5580501-.04024406-.16319512-.11840721-.244963-.319092-.21093223-.51769578l.33177227-1.93081238c.0293797-.17172162-.0276859-.3468918-.15260731-.46844772l-1.40398732-1.3669328c-.14433043-.14068043-.19623752-.35099736-.13391068-.54257881.06232683-.19158146.22808685-.33122793.42763022-.3602621l1.94029303-.28193978c.17268287-.02485413.32200596-.1331412.39915732-.28946347l.8676816-1.75618395c.0891353-.18078068.27334008-.2952711.4750646-.2952711.20172451 0 .3859293.11449042.47506459.2952711z"/>
    </g>
    <path fill="rgb(255,193,159)" fill-rule="evenodd" d="M87.68102942 50.61215223c-2.28871337-2.45509368-5.59969757-7.81590953-7.21416407-9.99500316-1.48167832.82760416-4.2860855 3.41218423-2.17138411 5.80035681 1.98865171 2.24601474 3.95470961 4.11188594 7.03856656 6.74398395.44870515.38212345 2.73741852-2.13038774 2.34698162-2.5493376z"/>
    <path fill="rgb(249,80,6)" fill-rule="evenodd" d="M72.11666862 38.7576136c-.22197428 1.4615727.57396207 3.18607802 3.29909273 7.70978612 2.224103-.99589687 6.76308063-4.6599262 6.83403312-4.83930643-1.92205943-2.71921425-5.6286335-8.46136158-5.63656116-8.62569447-.69089495-.01306743-1.38456457.12592255-1.88361031.23758972-1.48722767 1.13449087-2.28910976 3.38842526-2.61295438 5.51762505z"/>
    <path fill="rgb(255,193,159)" fill-rule="evenodd" d="M88.39134711 57.2242739c-.85896118-.80107332-1.74408362-1.80290993-3.22259087-3.76817283-1.07023313-1.42276638-.29609783-2.6047752.5295672-3.06055146.47565918-.26134868 3.59360503-.67594273 4.4394856-.34212918.5569176.22016646 1.66718538.71276913 1.69453578.85017518.1323918.6648552-.80069293.76939468-1.74170532.44072891-.2853955-.0712769-.55929591-.0855323-.99492043.09859973-.11495097.19799143 1.7559751.76147503 2.49721064 1.15389403.59457396.31322244 1.70722003 1.78192284 1.62952904 1.98743794-.19066005.50448215-1.42697751-.44389678-1.95971578-.78444203-.18590346-.11879486-.83240355-.31005457-1.25296553-.37341183.32067356.39598285 1.05081038.96619816 1.28745082 1.2144794.45584004.4783473 1.59266545 1.38910785 1.4341124 1.81597737-.12367139.33341756-.97946151-.08592828-1.91413178-.76147503-.22673087-.16354092-1.08648482-.74721964-1.65846497-1.11152386-.01942275.0205911 1.04208996 1.18794855 1.22878619 1.3138711.54819719.37499576 1.34175524.81691262 1.22085853 1.47266022-.03329614.17898425-1.47612896-.33420952-2.00767808-.76939468-.23782958-.19442758-.77809912-.60228991-1.37029479-1.15706189.26240531.39875473.83438546 1.0691537.9568677 1.21091556.91445475.44072892 1.264857.6490159 1.18320218 1.14241053-.02655763.1524534-1.56967526-.19125972-1.97913853-.57298719z"/>
    <path fill="rgb(117,41,18)" fill-rule="evenodd" d="M72.1396637 31.64694214c-.2259369 2.80830383 1.3417511 3.78915405 1.85704803 4.06317139-.29213715-.06454468-2.42269134-.95431519-2.14720154-4.08573914.07192993-.81732178-.43388366-1.03346252-1.06789398-1.30439758l-.00550842-.00234986c-.82292175-.35203552-1.84674835-.79000854-1.1170044-2.94491577.75035096-2.21473694.08164978-3.81689453-1.69810485-4.5011444-.82289124-.316391-1.70445252-.77493287-2.58322907-1.33882142.58545685.67831421 1.2105484 1.26834107 1.86815643 1.62867737 1.87567902 1.02796936 2.44647217 2.70852661 1.73020935 4.82228088-.67660522 1.99858094.33101654 2.41726685 1.21146393 2.78311158.67315674.27970886 1.27196503.52853393.98686981 1.42895507-1.2906189 4.07427979-.99491882 4.96286011-.32344818 5.38101197.01655579.01031494.0355301.0218811.05661011.034729.70275879.42840576 3.74625397 2.28375244-2.49118805 6.99594116-.12556457-.28634643-.30084228-.87652588-.48247528-1.48809814-.32349396-1.08926392-.66714478-2.24636841-.78595734-1.87536621-.0813446.25436401-.08616638.70788574-.09172058 1.23059082-.01190948 1.12008667-.02719116 2.5579834-.80608368 3.03533935-5.97943115 3.66482544-23.4218521 3.82003784-29.33865356 3.07836914-.37101746-.0463562-1.9787445-3.15164184-2.32241058-4.50708007-.57268525 2.08123779.1343727 3.39126586.4432373 3.96353149.07658386.14187622.128685.23840332.13072968.2901001-1.15268326-.2157898-2.3723526-1.0758667-2.69540406-2.70614624-.25704193-1.29580689-.09716415-1.72872925.466156-3.25405884.05519105-.14944458.114254-.3093872.17717362-.48162842.1362915-.37322998-.17298507-.85540771-.5253601-1.40472412-.70935059-1.10586548-1.5933609-2.48400879.63119125-3.79412842 1.81226349-1.06640625 1.732193-1.9589386 1.15386963-3.00234985.0321083.22372436.03845215.4462738-.02536774.66564941-.16806412.58010865-.69366836 1.07785034-1.65410232 1.5664978-.78721619.4003296-1.24266053.8458252-1.3924942 1.36376954-.20968628.7234497.06659316 1.28970337.44989395 1.96765136.53987503.95431519.52917099 1.74984742.39876175 2.2487793-.11772538.45144653-.2608757.8267212-.39180375 1.1699524-.25699997.67373657-.46691894 1.22406005-.34506988 1.98483276-.26249695-.75909424-.10102463-1.28936768.14803696-2.1072998.10108566-.33197022.21660232-.71133424.32405471-1.17260743.1006813-.43322754.05826569-1.25369263-.23148727-1.76846313l-.00169373-.00302124c-.41024398-.73104859-.87516403-1.55950928-.62895202-2.40774537.17401123-.60189819.67900085-1.1083374 1.54192733-1.5466919.87204361-.44311522 1.3647461-.89611815 1.5062561-1.3831787.16687394-.57575989-.14389037-1.19943237-.53551482-1.89596558-.98818207-1.75657654-.59140396-3.5444336.53432464-5.31091308.92951584-1.45800782 2.72196198-3.4632721 2.78617096-5.53070069l2.25541687.06930542c3.91705323-2.05278015 15.04034424-6.02330017 23.1416092-5.14144897.32424926.6822815.7876129 1.60214233 1.3500824 2.5525055 1.4012146 1.61680602 3.02836608 2.87365722 4.5159912 3.4450531 1.91888428.73771667 2.61572266 2.65942382 1.81741333 5.014328-.63815307 1.88401794.09942627 2.19926452.95368958 2.56439208l.00138092.0005951c.62595367.26792907 1.33437347.57116699 1.25040436 1.60986328zm-37.92787552-4.26036072c-.98342514 1.54353333-1.26525498 2.98135376-.61479187 4.4397583-.09461975-1.16395569.55329132-2.33833313 1.27373504-3.6441803.55920792-1.01359558 1.16212082-2.10639953 1.49539566-3.33502197-.68772125.90759277-1.59940338 1.67184448-2.15433883 2.53944397z"/>
    <path fill="rgb(40,175,198)" fill-rule="evenodd" d="M64.56637207 52.21944663c-1.63666393.94798294-5.82365377 3.28665767-7.90426625 3.31318852-1.24265958-4.8309908 2.02392977-10.37475072 2.04176699-10.63887128 1.12969052.5725912 3.6923043 4.17365926 5.86249926 7.32568276z"/>
    <path fill="rgb(40,175,198)" fill-rule="evenodd" d="M40.77271126 61.44228323c9.04981208.3072827 16.7903723-.37816362 18.17731517-.95035884-.00634213-5.07135239-.1621205-12.1210351-.24615362-15.5985565-.30283634-.47517943-9.94048389-2.1383074-15.153312-.35638457-1.0389189 3.24151562-2.56816314 12.6033422-2.77784955 16.90529991z"/>
    <path fill="rgb(255,193,159)" fill-rule="evenodd" d="M56.49443596 45.09096333c.02219743-.24313347-.03527805-.56625548-.08324035-.79988536-2.24788596-.3809355-5.57353632-.71276914-8.80920782-.51081788-.11129373.13931869-.17628349.30986587-.18590346.48785087-.17044454 1.87814667 1.68819367 3.73887009 4.19491749 3.96616425 2.50672382.22729415 4.7129896-1.26476923 4.88343414-3.14331188z"/>
    <path fill="rgb(255,193,159)" fill-rule="evenodd" d="M55.39407775 39.52463238v5.51524916c.00832404 1.19072044-1.48088555 2.16721415-3.3498297 2.18028158-1.86894416.01306744-3.40889072-.9420432-3.41919667-2.13315962v-5.56237112h6.76902637z"/>
    <g opacity=".19">
      <path fill="rgb(122,0,0)" fill-rule="evenodd" d="M62.16032944 41.48435151c.05152974-.39360695.01783722-.77969023-.04518762-1.16260565-4.03557167-.62090111-10.12480181-1.22992274-14.5024517-1.25566162-.04756592.16750074-.13397734.3207461-.15855306.49695848-.39638264 3.04273223 2.57014505 5.93974277 6.63068883 6.46996381 4.06054377.53022104 7.677139-1.50592278 8.07550355-4.54865502z"/>
    </g>
    <path fill="rgb(34,73,102)" fill-rule="evenodd" d="M58.36694756 61.47594177c-1.47137236.7484076-12.30371719 2.93898473-14.102898 1.05014653 0 0 1.9636796-10.41791285 2.58401844-13.77782735 2.28554231.29659115 9.6134682.65535162 11.91129838.7179169.02695401 2.55250547-.11138353 5.72155623-.39241882 12.00976392z"/>
    <g opacity=".21">
      <path fill="rgb(0,0,0)" fill-rule="evenodd" d="M55.34809736 57.48205873l-3.06839802.5658595-2.94433026-1.21566736.41580539-4.32848856 5.86923777.24907322-.27231488 4.7292232z"/>
    </g>
    <path fill="rgb(43,95,127)" fill-rule="evenodd" d="M55.28982912 57.01915477l-2.794894.52982506-2.67915028-1.12617523.3836984-4.0227898 5.26277232.52230139-.17242644 4.09683858z"/>
    <g opacity=".35">
      <path fill="rgb(0,0,0)" fill-rule="evenodd" d="M56.50117447 49.37906163c.64570732.02811478 1.25930765.03603444 1.87132245.08949213-.03012508.45854814-.10147396 1.31901887-.13833754 1.56017243l-1.88083564-.06098136c.03171061-.30807466.09949204-1.14399446.14785073-1.5886832z"/>
    </g>
    <path fill="rgb(34,73,102)" fill-rule="evenodd" d="M58.16875624 50.85370177c.23188384-3.59869216.3060074-5.126394-.04399847-6.37532391l-1.39249222-.31678629c.2417934 1.68530302.42135474 2.63526588.03091784 6.63746457l1.40557285.05464563z"/>
    <path fill="rgb(109,155,178)" fill-rule="evenodd" d="M57.1579805 50.07638743c.0235047.22326231.22365665.38526732.44716006.36193587.22350342-.02333144.38580602-.22317295.36260073-.44646651-.02320528-.22329357-.22313979-.3855663-.44667429-.362534-.10749392.01118159-.20613828.06456558-.27423085.14840725-.06809256.08384167-.10005508.19127257-.08885565.2986574z"/>
    <g opacity=".35">
      <path fill="rgb(0,0,0)" fill-rule="evenodd" d="M47.00701744 50.548399l1.78728933.068901c0-.17700433-.0523225-1.1820088-.0705561-1.68847087-.65640966-.05187376-1.21689472-.1037475-1.65093371-.15443331-.02853955.51517369-.06659228 1.60452251-.06579952 1.77400317z"/>
    </g>
    <path fill="rgb(34,73,102)" fill-rule="evenodd" d="M47.14416583 50.24190826c0-.16591681.06342123-3.87192032-.7305332-6.52223355l1.49872276-.13701007c.66988667 2.81147825.64253627 6.59153056.64332903 6.76774293l-1.41151859-.1084993z"/>
    <path fill="rgb(109,155,178)" fill-rule="evenodd" d="M47.50606319 49.56754947c.02350566.22304175.223479.38486744.44676173.36153582.22328273-.02333162.38540655-.22299416.36220188-.44606736-.02320468-.2230732-.2229595-.38516804-.4462735-.36213712-.22351418.02349116-.38578627.2233363-.36269011.44666866z"/>
    <path fill="rgb(255,193,159)" fill-rule="evenodd" d="M57.44297962 58.96184665c-2.85395501-1.76925139-7.45199365-6.07714883-9.58215397-7.75809604-1.2125345 1.18794856-3.24122086 4.41481282-.57396206 6.16624497 2.50791297 1.64689268 4.89492923 2.93304499 8.56186505 4.66626193.53115274.2518451 2.08219801-2.77385988 1.59425098-3.07441086z"/>
    <path fill="rgb(40,175,198)" fill-rule="evenodd" d="M40.73941512 50.3983215c.07214164 1.47622406 1.37188032 3.25735493 3.61857713 7.22470712 1.9819132-1.41643066 6.51970168-4.664282 6.5533942-4.8539578-2.1555288-2.86137208-6.9850549-8.17942178-7.02548593-8.33900287-.67939984.12433861-1.50625403.36588815-1.97438193.57655103-.85579013 1.48572766-1.27714487 3.24072366-1.17210347 5.39170251z"/>
    <path fill="rgb(244,177,140)" fill-rule="evenodd" d="M67.52774678 32.41515626c-.37775265 2.8954266-2.794894 4.92959052-4.79622996 4.84841403-2.00133595-.08117648-2.64466498-2.3620377-2.60938692-5.11887032.03527805-2.75683262 1.68819367-4.93315437 3.68952962-4.84524618 2.73543661.12037879 4.07124611 2.39490429 3.71608726 5.11570247z"/>
    <path fill="rgb(117,41,18)" fill-rule="evenodd" d="M36.61981032 24.21553934c.00594574 10.44998746 8.57573845 16.39369007 17.27039169 15.4160084 8.69465324-.97768165 14.21150684-8.890211 12.19788302-18.84086408-1.11819543-5.52435677-6.67111985-9.65564586-14.97137236-8.66806463-8.83417993 1.05133447-14.50165894 3.99388304-14.49690235 12.09292031z"/>
    <path fill="rgb(255,193,159)" fill-rule="evenodd" d="M40.24512596 21.54146714c-.59061013 1.82983676 2.3449997 17.16585663 4.36258735 19.10656859 2.14046627 2.05911083 10.31546186 3.05619565 11.924379 2.87523149 1.72307535-.19363562 7.21059663-2.9211655 8.38666393-5.58098232 1.39090669-3.14766769.51807211-16.46100715-.21523577-18.0255354-2.47818428-5.28439116-7.28273827-4.93157044-13.53963827-4.2279089-5.85338246.65851947-9.38673733 1.10439617-10.91875624 5.85262654z"/>
    <path fill="rgb(255,193,159)" fill-rule="evenodd" d="M37.27621998 36.44863758c1.12770861 2.88711098 4.24882553 4.41560479 6.39404839 3.86677255 2.14522285-.54883223.8379529-9.36895427-3.18374538-9.67504902-3.34903694-.25501295-4.27062658 3.09421-3.21030301 5.80827647z"/>
    <path fill="rgb(224,149,108)" fill-rule="evenodd" d="M39.682659 36.0395873c.3171061 1.23863436 1.85427799 2.1383074 2.87971988 1.66550387.3995537-.18373604-.81179165-4.49084152-1.47454342-4.41441683-1.12097011.13027836-1.72267896 1.51067458-1.40517647 2.74891296z"/>
    <path fill="rgb(255,151,151)" fill-rule="evenodd" d="M44.66598156 36.37181691c.0364672.6304047.94220154 1.09053678 2.02353339 1.02955542 1.08133184-.06098136 1.92800516-.62288103 1.89153796-1.25328573-.0364672-.6304047-.94220154-1.0901408-2.02155147-1.02955541-1.07934993.06058537-1.9295907.62367299-1.89351988 1.25328572z"/>
    <path fill="rgb(255,151,151)" fill-rule="evenodd" d="M61.42226496 34.64453971c.08760056.554376.83240355.89729714 1.6648071.7666228.83240354-.13067434 1.43530154-.68703025 1.34770097-1.24101025-.08760056-.55398001-.83240354-.89729715-1.66480709-.7666228-.83240355.13067434-1.43530154.68703024-1.34770098 1.24101025z"/>
    <path fill="rgb(112,22,8)" fill-rule="evenodd" d="M60.05038464 35.73072067c-.28222444-.9836214-1.79918081-.5864506-4.31660697-.37816362-.13159903.01108752-.64332902.05702153-.77532444.06969298-2.5142551.24194553-4.07798462.11879486-4.18025134 1.13924267-.19819132 1.96169905 2.4207088 3.85053725 4.97658406 3.62918284l.04439486-.00395983c2.55468612-.23640177 4.79464443-2.56042512 4.25120383-4.45599504z"/>
    <path fill="rgb(221,107,91)" fill-rule="evenodd" d="M55.8154325 40.225918l-.04439486.00395984c-.8288361.07127691-1.70920195-.08672025-2.548344-.45419233l-.05113336-.02138308.03963826-.03959828c.61042927-.65416367 1.4753362-1.06202601 2.43537495-1.14835027.96003876-.08632426 1.88202478.16195698 2.6010629.69692982l.04439485.03286657-.04637677.03049068c-.76343297.50923395-1.60336778.82245639-2.43022197.89927706z"/>
    <path fill="rgb(255,255,255)" fill-rule="evenodd" d="M55.47335428 36.6723679c-1.7583534.15839314-3.27055318-.25580493-3.51868871-.96184235l-.01466616-.04355811 6.83125844-.61179351-.0067385.04514204c-.11812203.73929999-1.53281167 1.41484673-3.29116507 1.57205193z"/>
    <path fill="rgb(196,115,91)" fill-rule="evenodd" d="M54.5022168 34.20103892c.07020719-.0078558.12439488-.06534074.1280316-.13582212.02655764-.50765002.38488754-.87393415.91168007-.93333158.52679254-.05939743.97153386.22333433 1.0963944.7040575.02263626.07404308.09965427.1171187.1746725.09769307.07501825-.01942563.12139225-.09445303.10517364-.17015792-.15855306-.61614932-.73965001-.99391696-1.40874391-.91868022-.6690939.07523674-1.1348435.55912779-1.16853603 1.2053718-.00404703.07956526.0571179.14739872.13675201.15166143l.02457573-.00079196z"/>
    <path fill="rgb(104,29,12)" fill-rule="evenodd" d="M43.865685 26.85516103c.11709309-.02148524.22234887-.08482838.29609784-.17819228.97153386-1.22754684 3.12428798-1.92328871 5.01305127-1.61719397.2621948.04399609.51177358-.12860145.56286335-.38925114.02165362-.12448195-.0079898-.25242187-.0821923-.35473892-.0742025-.10231706-.18666045-.17031922-.31181205-.18854955-2.25303893-.36351226-4.7565917.4688437-5.94930706 1.97991426-.07888377.0982363-.1142565.22436-.09794808.34924013.0163084.12488014.08288753.23771652.1843595.31244721.11043698.08156198.2501486.1128971.38488754.08632426z"/>
    <path fill="rgb(104,29,12)" fill-rule="evenodd" d="M63.89133243 24.21157951c.11180165-.00891331.21441247-.06528514.28182806-.1548293.13120266-.17344048.08522227-.54843624-.08839333-.67990255-1.26247871-.95273474-3.39898115-1.07113361-5.07964355-.2839197-.19819132.09305597-.27033296.45577626-.1779758.65218375.04419594.09477066.1243869.1680304.22281568.20355686.09842877.03552646.20697355.03038817.30159855-.01427705 1.4087439-.66208333 3.24399554-.57655104 4.26943743.19799142.07720977.05888125.17351962.08709612.27033296.07919657z"/>
    <path fill="rgb(117,41,18)" fill-rule="evenodd" d="M61.35844735 15.2754345c-2.52654295-.84463143-6.9624611-.76068306-10.84899289-.138594-4.22504257.6763387-8.48258853 1.96130306-10.5521023 3.83628187-1.36870926 1.24021829-1.9704181 8.95238031-1.33263844 8.22416785.72974045-.83393989 1.97358918-1.67381952 3.50957191-2.44915394.06302484-.84938322.84905162-3.07005505 1.02425275-3.3761498-.00990957.44508473.1117799 1.985854.1847143 2.80514252 1.93632921-.85611492 4.19214282-1.60056268 6.42853368-2.12365603-.1938311-.8521551.04201656-2.04208357.03408891-2.10108501.3060074.21383074 1.03733337 1.3301064 1.35047566 1.80488984.33903915-.06546904.67530403-.12486646 1.00879382-.17819229 3.0553174-.48903882 5.34680545-.6604994 7.20623642-.6050618-.4455765-2.1203955-.63228224-3.07232284-.68138334-3.2706659.42324787.52473272 1.10485517 2.0611058 1.34730618 3.29957265.64787435.03916746 1.29294032.11571966 1.931969.22927408-.07491632-.7828581-.1141582-2.06267468-.12604969-2.27888132.26240531.1041435 1.00284809 1.73915669 1.30013507 2.53864607 1.00720829.26491252 1.92205943.6141694 2.87060309 1.0137161 1.0365406.43835301-2.61890011-6.54757646-4.65551413-7.2302509z"/>
    <path fill="rgb(249,254,255)" fill-rule="evenodd" d="M58.7791855 32.76876894s3.83103824.96501021 4.95002643-1.48216381c1.36355629-2.9813549-1.50625403-4.88207258-3.1421252-4.2580036-1.51418169.57734299-2.73860766 2.34540642-1.80790122 5.74016741z"/>
    <path fill="rgb(119,50,32)" fill-rule="evenodd" d="M63.57422632 27.69939647c-.80108932-.93372756-1.75201128-1.14835027-2.72750896-.91590833-.9976951.2375897-1.91928475 1.20497581-2.100828 2.11573637.42452581-1.05093849 1.31876505-1.52057415 1.88479946-1.7363848.90097775-.34490107 2.18010453.00989957 2.84959481.94283517.59457397.83156399.71348876 2.16444227.21404663 3.25854289.6508603-.77969024.7146779-2.69149545-.12010394-3.6648213z"/>
    <path fill="rgb(99,25,13)" fill-rule="evenodd" d="M59.25246638 29.64169236c-.21523577 1.03985097.33415057 2.12721988 1.22878619 2.42856283.89463562.30134295 1.79125316-.29738312 2.00648893-1.33723409.21523577-1.03985097-.33454695-2.12761586-1.22878619-2.42856283-.89423924-.30094697-1.79164954.29698714-2.00648893 1.3372341z"/>
    <path fill="rgb(254,255,254)" fill-rule="evenodd" d="M59.3479946 29.31619446c-.05985378.28827551.09275354.59001445.34049269.67317084.24773915.0831564.49706383-.08236443.5549357-.37103593.05787186-.2886715-.09275354-.59001445-.3404927-.67317085-.24773915-.0831564-.4954783.08236444-.5549357.37103594z"/>
    <path fill="rgb(249,254,255)" fill-rule="evenodd" d="M52.23173704 33.56073465s-4.1834224 1.90071769-6.11023842-.19125972c-2.34777438-2.54894162.4816049-5.11451452 2.5368489-4.92127488 1.899862.17898424 3.77356275 1.58551533 3.57338952 5.1125346z"/>
    <path fill="rgb(119,50,32)" fill-rule="evenodd" d="M45.37392096 29.8507713c.68574197-1.10875198 1.73139938-1.55344072 2.91975453-1.5748238 1.2149128-.02177905 2.53209232.68544632 2.97960832 1.52255407-.7626402-.91076056-1.91888837-1.14280651-2.62960244-1.20972761-1.13167244-.10770734-2.52059722.55833582-3.05214634 1.63184533-.47565917.95511064-.26755828 2.2792773.59457396 3.2145888-.9588496-.59199437-1.52686593-2.42975079-.81218803-3.58443678z"/>
    <path fill="rgb(99,25,13)" fill-rule="evenodd" d="M46.5765459 31.15197096c-.20550076.768089.07239626 1.58421203.70410364 2.06779911.63170738.48358708 1.49281586.53939994 2.18177805.14141222.6889622-.39798771 1.07009302-1.17139578.96566563-1.9595728-.1044274-.78817703-.67384693-1.43589841-1.44273002-1.64112227-1.0498051-.28020523-2.12823403.34276286-2.4088173 1.39148374z"/>
    <path fill="rgb(254,255,254)" fill-rule="evenodd" d="M46.69783898 30.8229092c-.05711305.2130457.01987083.4394823.19505062.57371235.1751798.13423004.41405262.14981597.60522144.03948938.19116882-.11032659.2969816-.3248361.26809312-.54349321-.02888848-.21865711-.18678841-.39839576-.40006405-.45539581-.29109086-.07734563-.58995858.09513572-.66830113.3856873z"/>
    <path fill="rgb(249,149,30)" fill-rule="evenodd" d="M35.34068354 26.02874482s-.56365612 2.32837917.77136062 2.1335556c1.33501674-.19482356 2.27365083-1.33763007 2.09567502-2.55210947-.1779758-1.21447941-1.40359093-2.0412916-2.73900405-1.84646804-1.33541312.19482356-.12803159 2.26502191-.12803159 2.26502191z"/>
    <path fill="rgb(249,149,30)" fill-rule="evenodd" d="M42.5092636 24.98255813s1.20698515 2.07019835-.12842797 2.26462593c-1.33541312.19442758-2.56102824-.63357257-2.73900405-1.84646804-.1779758-1.21289548.76065829-2.35728592 2.09567503-2.55210948 1.33501673-.19482357.771757 2.13395159.771757 2.13395159z"/>
    <path fill="rgb(249,149,30)" fill-rule="evenodd" d="M39.81386165 25.40705174c.0844295.577343-.25923425 1.10518814-.7673968 1.17963292-.50816254.07444477-.9909566-.33341756-1.07340419-.91076056-.08244759-.577343.25923425-1.10518814.7673968-1.17963292.50816254-.07444477.98937107.33381355 1.07340419.91076056z"/>
    <path fill="rgb(255,193,159)" fill-rule="evenodd" d="M60.14630924 66.07449063c-.95964238-.67752666-1.9727964-1.55027286-3.70419579-3.2973492-1.25296553-1.26476923-.64650008-2.54062598.109798-3.1037136.4360209-.32351799 3.46914087-1.15587394 4.35069587-.9396673.58149333.1429498 1.74844383.47993121 1.79442421.61258547.22118152.64109623-.68891303.87116227-1.66480709.67317084-.29253039-.0320746-.56603441-.0091076-.97232662.23204595-.08720418.2102669 1.84317928.5171536 2.63237712.80503314.63104117.23006604 1.93315814 1.53482954 1.88440308 1.74866028-.1208967.52586522-1.47256151-.24669732-2.0485055-.51200583-.19819131-.092264-.86688883-.19442758-1.29181102-.20036732.37141054.3484649 1.17210347.81532869 1.44005814 1.02955541.51529743.41221815 1.76667743 1.16062574 1.66718539 1.6049185-.07927653.34727696-.9818398.04751794-1.99975043-.49497857-.24694638-.1314663-1.17765283-.59397427-1.79363145-.87710201-.01664807.022967 1.19350813 1.03509917 1.39368137 1.13567882.59457396.29738312 1.44045451.6280288 1.40914029 1.29407196-.00832404.18175613-1.50625404-.1318623-2.09329673-.49062276-.26121616-.16076903-.85261906-.49141472-1.5141817-.96105038.31353868.35955243.97193024.94798295 1.1098714 1.0691537.9659845.31282646 1.34135886.47161558 1.32748547.97174192-.00356745.1548293-1.57958483.022967-2.03661401-.29975902z"/>
    <path fill="rgb(255,193,159)" fill-rule="evenodd" d="M54.32384462 79.72797936c.03963826.1409699 5.38129074-1.10043634 5.35592225-1.27625273-.22118152-1.52928577-.92515709-4.56172245-1.07023313-5.44555618l-5.70791004 1.3209988c.45861472 1.47028433 1.13603265 4.38115427 1.42222092 5.40081011z"/>
    <path fill="rgb(252,239,174)" fill-rule="evenodd" d="M53.42643432 79.96240121c.00753127.08988811 6.33498737.22729416 6.3524282.11879486.15221094-.93808338.19819133-3.2074611.26835106-3.75352145l-6.80232251.2169986c.08482588 1.02321969.1276352 2.77069201.18154325 3.417728z"/>
    <path fill="rgb(244,77,25)" fill-rule="evenodd" d="M60.4780815 79.0829233c-.06104292-.32668585-.20849726-.74563571-.3171061-1.12736318-.07927653-.28273176-2.77190382-.4597361-2.8337395.19799143-.01486615.15105168-.02108627.30282815-.01863.45458831-.45980386-.03326256-.95805684-.07919657-1.48326384-.14255383-1.14118562-.13542613-2.159889-.31282645-2.87060309-.48666292-.1323918 1.039059-.18986728 2.85107653-.32780844 4.00813842 0 0 11.80308591 3.22765623 13.83375418 1.64610072.5731693-.44468874-2.25739914-2.86691585-5.9826032-4.55023895z"/>
    <path fill="rgb(178,41,9)" fill-rule="evenodd" d="M52.6962975 81.26201693c-.02140467.25778484-.04439486.50646207-.07055612.72623255 0 0 11.80308591 3.22765623 13.83375419 1.64610072.07927652-.06296127.09275353-.16552083.04518762-.29936304-3.36489225.44508473-10.86920841-1.32693853-13.8083857-2.07297023z"/>
    <path fill="rgb(211,218,229)" fill-rule="evenodd" d="M61.28987122 79.48919678c.08898925.02734375.18331146-.0225525.2106781-.1114502.02736663-.0888977-.02259064-.18313598-.1115799-.21047973-.6837616-.20828248-1.52171326.04711914-2.03780365.62527465-.06194305.06930542-.0559082.1756897.01347351.23757935.02580261.0223999.05793762.03622436.09196472.0395813.05470276.0065918.10918427-.01394653.1458664-.0550232.43166351-.48190307 1.12572479-.6993103 1.68740082-.52548217zm.88671112.49935913c.04389953.00997925.0899887.00152588.1274643-.02340698.03747558-.02493287.0630493-.06414795.0707321-.10845948.00897218-.0437622.0000763-.08929443-.0247116-.12646484-.02478027-.03720093-.0634079-.06292725-.10728455-.0715332-.72696686-.14691162-1.4741516.06851196-2.05128479.58566284-.0669632.0625-.0716095.1670227-.0104599.23522949.06115723.06820679.16566468.07507324.23521424.01541138.68058776-.60980225 1.39447021-.57931519 1.7603302-.50643921zm-1.13207245.78244018c.60567474-.5005188 1.4812851-.7345581 2.1333313-.5654602.04361725.01113891.08094787.03927612.10366058.078125.0227127.03881836.02892303.08511352.01724243.12857056-.0109558.04327392-.0389328.08026123-.07759094.10263061-.03865814.02236939-.08472443.02819824-.12773895.0161438-.54898835-.1496582-1.30686951.06378174-1.83406067.49935913-.07169342.05926514-.17790985.04922485-.23723603-.02236938-.05932617-.07162476-.04930114-.17773438.02239228-.23699952z"/>
    <g opacity=".35">
      <path fill="rgb(0,0,0)" fill-rule="evenodd" d="M46.67722708 61.19281403c1.69374303.16433289 7.24627107.05266572 9.55282166 1.76291566 1.60891714 1.19270035 2.54874038 5.44159635 3.81676845 11.7606907-.24139702.30292688-5.46136003 1.1245913-6.8023225.92303603-1.1007546-5.05115726-1.58790887-5.88905697-2.14720477-5.91519184-1.8269276-.08474033-2.74732809-.23758971-5.34878737-.277188-1.40715837-.02177906-.18748898-5.08164794.92872453-8.25426255z"/>
    </g>
    <path fill="rgb(34,73,102)" fill-rule="evenodd" d="M40.61336544 59.66907202c1.53479358.37974755 3.58805567 1.03193131 4.50171765 1.17606907 5.8391127.91986816 8.38626755 1.09251669 10.70233132 2.78890723 1.61525926 1.18319676 2.4111956 4.88761634 3.831831 10.95565756-.22910917.28273176-5.57710377 1.18794855-6.9010218.96025841-1.2216513-4.85356181-1.24028128-5.55405548-1.79125315-5.59404974-1.79838804-.13107033-2.84325268.03247059-5.40229902-.0764247-1.38496095-.05939742-3.19127664-.05345768-4.52193317-1.28892418-2.01758764-1.87339487-1.44877855-5.68789768-.41937283-8.92149365z"/>
    <rect width="7.853" height="2.207" x="52.095" y="73.375" fill="rgb(87,153,193)" rx="0" ry="0" transform="rotate(-9.770003 56.02167397 74.47830978)"/>
    <path fill="rgb(244,177,140)" fill-rule="evenodd" d="M98.61564097 21.74381438c-.2853955 2.8589962-2.60264843 4.93196642-4.5738593 4.91018736-1.97121088-.02177905-2.67201539-2.24324285-2.7195813-4.95414146-.04756592-2.7108986 1.51338892-4.90266369 3.4845998-4.87573685 2.6946092.03484649 4.07679546 2.23215533 3.8088408 4.91969095z"/>
    <path fill="rgb(132,34,15)" fill-rule="evenodd" d="M66.5023049 14.65136552C66.88283222 25.32191543 77.01873274 30.45108131 85.49379 29.2389778c8.47505726-1.2121035 13.59235716-9.43033162 11.2647983-19.54096177C95.4683628 4.0825832 89.8825386 0 81.79316166 1.21566736 73.18373069 2.50815538 66.2073962 6.3776998 66.50230489 14.65136552z"/>
    <path fill="rgb(255,193,159)" fill-rule="evenodd" d="M71.45312408 11.85968641c-.52639615 1.8175613 2.81867697 16.8158078 4.8616331 18.66504771 2.16662752 1.96169905 7.81468377 3.46207807 11.81577016 2.4733089 2.48967937-.61535736 7.00606318-3.08866625 8.08303482-5.73977144 1.27476657-3.13776812.01862998-16.2083701-.7491632-17.7253804-2.59551353-5.12441409-7.31127781-4.63299937-13.44529919-3.75550137-5.73803512.82166442-9.20043749 1.36574486-10.56597569 6.0822966z"/>
    <path fill="rgb(255,193,159)" fill-rule="evenodd" d="M68.9773181 26.61202756c1.19588643 2.80672646 4.311454 4.2168214 6.4051471 3.61334352 2.09369312-.60347786.54423337-9.24105181-3.41959304-9.42241196-3.30305655-.15126545-4.10929884 3.17103068-2.98555406 5.80906844z"/>
    <path fill="rgb(224,149,108)" fill-rule="evenodd" d="M71.33262376 26.13803609c.3492131 1.20893564 1.88757414 2.04643938 2.88209818 1.55264876.38805861-.19284365-.93229197-4.39540966-1.58196312-4.29839386-1.09916906.16076904-1.64934817 1.53680945-1.30013506 2.7457451z"/>
    <path fill="rgb(255,151,151)" fill-rule="evenodd" d="M76.32744142 26.91931025c.06500676.61733727.97668683 1.02955542 2.03661401.91709629 1.05992719-.11245913 1.86656586-.70168161 1.8019555-1.31941486-.06461038-.61773325-.97708322-1.02955542-2.03661402-.91709629-1.0595308.11245913-1.86696224.70168162-1.80195549 1.31941486z"/>
    <path fill="rgb(112,22,8)" fill-rule="evenodd" d="M81.61320395 25.74403315c-.21365025 2.02426434 3.16907921 4.40847709 5.96952258 3.95982852 2.78538082-.4458767 4.43076516-3.00471788 4.1854043-5.01591479-.30561101-1.0830131-2.10360267-.57892693-4.87114627-.34371311-2.7675436.23521381-5.1537671.16710476-5.28378061 1.39979938z"/>
    <path fill="rgb(221,107,91)" fill-rule="evenodd" d="M87.08724822 27.91679106c1.29815315-.11879486 2.3224059.09899571 3.02281403.63634444-.68376006.55793984-1.62754713 1.11508771-2.71165365 1.20972761-1.22085854.10691537-2.46708556-.20155527-3.21624876-.67713067.26399084-.60664573 1.74368724-1.06321396 2.90508838-1.16894138z"/>
    <path fill="rgb(255,255,255)" fill-rule="evenodd" d="M82.92166305 24.73982064c.92951729-.3718279 2.4361677-.31322244 3.81399377-.43043336 1.55421634-.1318623 2.67677198-.42568157 3.66693582-.29936304-.29530507.86205467-1.54866698 1.51305048-3.33595631 1.685699-2.06277527.19917938-3.78743614-.09147204-4.14497328-.9559026z"/>
    <path fill="rgb(255,151,151)" fill-rule="evenodd" d="M92.71944917 24.44679333c.11177991.54091257.86015034.84383945 1.67194199.6763387.81179165-.16750074 1.3790152-.7412799 1.26842445-1.28219247-.11059076-.54091257-.86054672-.84383945-1.67194198-.6763387-.81139527.16750074-1.38020436.7412799-1.26842446 1.28219247z"/>
    <path fill="rgb(196,115,91)" fill-rule="evenodd" d="M85.63807329 23.43268124c.06883597-.00984987.120464-.06795655.12208585-.13740605.01070233-.50012634.35198779-.87116227.86926713-.94560705.51727935-.07444477.96241706.19086374 1.09996183.6604994.01146484.05174558.05079165.09282368.10202732.10657076.05123566.01374709.10587225-.00211962.14174615-.04116371.0358739-.0390441.04702808-.0947821.02893779-.14460362-.1759939-.60110197-.75709085-.95550662-1.41270773-.86165869-.6556169.09384794-1.09996183.58367873-1.11383523 1.22041915-.0015511.07843379.06062618.14337979.13913031.14532571l.02338658-.0023759z"/>
    <path fill="rgb(117,41,18)" fill-rule="evenodd" d="M74.99837043 16.51248492c.1043291-.02296827.19649956-.08360122.25883786-.17027262.82804334-1.14835027 2.7286981-1.83379659 4.42640496-1.59541491.2250113.01014386.42072344-.1525939.45156927-.37548706.03084584-.22289315-.1133281-.43257238-.33265448-.48379573-2.02472253-.28312774-4.233763.53616078-5.25088085 1.94823563-.1030595.14641833-.10596591.34091543-.00732727.4903417.09863863.14942626.2787406.22336021.4540505.186393z"/>
    <path fill="rgb(117,41,18)" fill-rule="evenodd" d="M95.1052763 13.46341696c.10970575-.01193045.20894176-.07051733.27231487-.16076903.05957829-.08374654.08340306-.18771153.06623018-.28901101-.01717288-.10129948-.07393581-.19163033-.15779457-.2511096-1.27040637-.89967304-3.37599096-.95273475-5.00591638-.12829845-.1912232.09688202-.26762255.3302811-.17064273.52131143.09697983.19103033.33061455.26735263.52183775.17047061 1.36593458-.69336597 3.17383581-.66406324 4.20561983.06850504.07794748.05510425.17346641.0796294.26835104.06890101z"/>
    <path fill="rgb(249,254,255)" fill-rule="evenodd" d="M89.80207293 22.22216167s3.7973457.83512783 4.82476952-1.6049185c1.25256914-2.97383122-1.62516883-4.75812995-3.2174379-4.09565064-1.47256152.61298145-2.6240531 2.38896454-1.60733162 5.70056914z"/>
    <path fill="rgb(119,50,32)" fill-rule="evenodd" d="M94.36800458 17.0925998c-.81615186-.89452526-1.75795701-1.07628139-2.71086088-.8196845-.97391215.26214065-1.8518997 1.24259419-2.00529979 2.14385116.3860767-1.04658268 1.25217277-1.53522552 1.80235187-1.7641036.87600564-.36628414 2.14522286-.0554376 2.83136121.84225552.61003289.7990934.76700041 2.1082127.30759293 3.19914546.61914969-.78642194.62509543-2.66892442-.22514534-3.60146404z"/>
    <path fill="rgb(99,25,13)" fill-rule="evenodd" d="M90.23175172 19.04875509c-.18075049 1.02955542.39241881 2.08247382 1.27952316 2.35253412.88710436.2700603 1.75320043-.346089 1.93395091-1.37524844.18075049-1.02915943-.39202243-2.0828698-1.27991955-2.35253412-.88789711-.26966433-1.75320042.34569303-1.93355452 1.37524844z"/>
    <path fill="rgb(254,255,254)" fill-rule="evenodd" d="M90.31538845 18.72563308c-.05034059.28550364.10860885.57773898.35476247.65257974.24615362.07484076.48675788-.09582785.5367021-.38133148.0499442-.28550364-.10860885-.57773898-.35674438-.65297573-.24813554-.07523674-.4839832.09622384-.53472019.38172747z"/>
    <path fill="rgb(249,254,255)" fill-rule="evenodd" d="M83.38503435 23.1958835s-4.05856186 1.99416964-6.01629573-.00593974c-2.38543073-2.43727446.32106994-5.0456135 2.347378-4.9165231 1.87528628.11919084 3.76048212 1.44652536 3.66891773 4.92246284z"/>
    <path fill="rgb(119,50,32)" fill-rule="evenodd" d="M76.52840742 19.75122867c.64134712-1.10875199 1.65648306-1.57997158 2.82501909-1.63620114 1.19469728-.0578135 2.51108403.59872607 2.97643725 1.40890698-.77730636-.8751221-1.92166304-1.06717378-2.62286394-1.11152386-1.1166099-.07246486-2.46272535.62446495-2.95503259 1.69599455-.4360209.9535267-.19502026 2.24997457.680589 3.14410385-.959246-.55358403-1.57284632-2.34461447-.9041488-3.50128038z"/>
    <path fill="rgb(99,25,13)" fill-rule="evenodd" d="M77.89354924 20.87146416c-.24462812 1.03999571.40099277 2.08118989 1.44203724 2.32557653 1.04104447.24438663 2.08329311-.40057783 2.32793174-1.44057107.24463863-1.03999325-.40097173-2.08119394-1.44201373-2.32559108-.49994005-.11747487-1.02611887-.03168068-1.46272359.23849912-.43660472.2701798-.74785052.70260084-.86523166 1.2020865z"/>
    <path fill="rgb(254,255,254)" fill-rule="evenodd" d="M78.00295085 20.54438232c-.06760216.28843734.11157888.57702933.40027703.6446929.28869814.06766357.57766198-.11120705.64552358-.39958358.0678616-.28837653-.11105975-.57712927-.3996969-.645052-.13877461-.03265674-.28485237-.0088529-.40604537.0661664-.121193.07501932-.20755573.19509774-.24005834.33377628z"/>
    <path fill="rgb(132,34,15)" fill-rule="evenodd" d="M69.65513242 14.76422063c-1.05318868-.11206314-.8197193-.45854814-1.84793587-.68465435 3.74740149-1.39663152 1.78372188-7.05245459 6.56409654-9.91224275 7.90664455-4.03070945 14.34508779-3.0435242 16.64807094-2.00406921 4.24684362 1.91576504 6.45271302 5.80154476 7.12418521 9.31034881.89899583 3.14727171.64451817 4.26315139 2.38503435 4.8147555-1.73060661.71276913-1.8265312.36549217-2.4456809-.44191686.11495097 2.63724579.53472019 3.77926034 1.92087029 4.49757323-2.14046627.82562424-3.17898879-.57892693-3.54128252-2.6530851-.43126432-2.46974506-.5367021-7.22866697-.98461448-8.07448634-.25963063-.4894348-3.24359916-3.0320407-4.01614893-2.9718513-1.68422984.13067434-2.89002583 6.21336692-8.8436931 6.7542795C84.877415 11.8390953 85.9849081 9.8556172 87.02065593 7.08611313c-.46442559.35356615-.89454398.7499737-1.28467614 1.18398873-4.4050003 4.88128062-8.78542486 6.4565004-13.01680956 6.54124073 1.16021199 4.37877838 2.38661988 9.96372052-2.32161313 10.6753017.41580539-.64980785 1.30251336-3.78361614-.21840684-5.9646897-.53115274.41419807-.3083857-1.81558137-.52401785-4.75773396z"/>
  </g>
</svg>
