<svg xmlns="http://www.w3.org/2000/svg" xmlns:xlink="http://www.w3.org/1999/xlink" width="101.379" height="100.012" viewBox="0 0 101.379 100.012">
  <defs>
    <rect id="rect-1" width="101.379" height="100.012" x="0" y="0"/>
    <mask id="mask-2" maskContentUnits="userSpaceOnUse" maskUnits="userSpaceOnUse">
      <rect width="101.379" height="100.012" x="0" y="0" fill="black"/>
      <use fill="white" xlink:href="#rect-1"/>
    </mask>
  </defs>
  <g>
    <use fill="none" xlink:href="#rect-1"/>
    <g mask="url(#mask-2)">
      <path fill="rgb(254,209,84)" fill-rule="evenodd" d="M69.72679813 84.51230787h-1.51381592c.49259965.07523872.98885862.12381627 1.4866347.14552296.00734091-.06926813.02063392-.0970153.02718122-.14552296z"/>
      <path fill="rgb(254,209,84)" fill-rule="evenodd" d="M13.41780569 60.25389036l1.70011647-8.67049336s-.91563047 4.32137309-1.70011647 8.67049336z"/>
      <path fill="rgb(254,209,84)" fill-rule="evenodd" d="M25.0821228 26.8379898c.59394837.02301026 1.17137146.04537965 1.72312928.05760575 5.57511901.12456513 11.13656616.56093216 16.68887329 1.0729599 11.0683136 1.00408554 22.08088684 2.37527847 33.09364318 3.81573486 2.36099244.30482102 5.07278443.28385926 7.17901612 1.45423127 1.49020386 18.84050369-1.88342285 37.2494316-5.25964356 55.67243576-.52185058 2.84755706-1.04373169 5.6954422-1.54776 8.54531097-.04275513.21037293.00473022.42915344.1307373.60244751-1.41677857-.06925964-2.82803345-.13154602-4.2458191-.21458435-20.88192748-1.18414307-42.30172729-2.660141-62.8060913-6.99429321-1.878891-.40182495-6.82070923-.83799744-8.11470032-2.56251526-.80078125-1.06315613-.50024414-4.15138245-.29289246-6.2820282.0599823-.61642456.11216736-1.15267181.12762452-1.53648376.18571472-4.07884217.55751037-8.144104 1.05987548-12.20217896.99488831-8.51569366 2.67289734-16.93644714 5.01760865-25.17985535 1.355896-4.63996887 3.17306518-12.77708053 7.86053466-15.29788208 2.710495-1.20951461 6.27511597-1.07141876 9.38586426-.95090484zm53.55566407 14.6917038c-.14291382-.18670654-.3617859-.29872894-.59591675-.30497741l-59.7034607-6.85694504c-.0650177-.00766373-.1109314.01895904-.15428161.04409027-.03457642.02005005-.06752014.03915024-.10722351.03915024l-.12379456.04151916c-.127182.06690598-.2198944.18531037-.25476074.32538224-.02737427.04172134-.08947754.05549621-.08947754.11058807-3.83514404 13.88072586-6.61224365 28.03559494-8.3071289 42.34139633-.04821778.4423523.39244079.7202301.76403808.76174927 14.77766418 1.6412735 29.46585083 4.04429626 44.19551086 6.12194061v.05549622h.45431519c5.18289185.72701263 10.37271118 1.3989334 15.57623291 1.98062896.34274292.00032044.64376831-.22895813.73648071-.56092834 3.86807251-21.71725464 7.75024414-43.4414978 7.75024414-43.4414978.0538025-.2293396.00210572-.4708786-.14077758-.65759278zM10.30763245 85.39243317c.03736877 1.5460968 1.29768371 2.7777481 2.83477783 2.77033233h.00099182c.72216797.057724 1.43565369-.18927765 1.969635-.68184662.53396607-.49256897.84033204-1.18635559.8457184-1.91521453-.02613831-1.180542-.72932435-2.23906708-1.80349732-2.7148285-.07328797-.2991867-.33422852-.51365661-.64024353-.52619934-1.7170105-.01644134-3.13685608 1.34159851-3.2073822 3.06775666zm13.11802673 2.9226303c-.8502655 1.12149811-2.38258362 1.45860291-3.62046814.7964859-1.259552-.76088714-1.75836182-2.3467102-1.16323853-3.69815826.67138672-1.35182953 2.23936463-1.98762512 3.65478516-1.48197937.24961853.08180237.43119812.2994156.46803284.56093598h.12400818c1.15310669.93822479 1.3876648 2.6143875.53688049 3.83649444v-.01377868z"/>
      <path fill="rgb(254,209,84)" fill-rule="evenodd" d="M21.69141486 85.39203308c-.6344356-.19595055-1.31976758.07018151-1.65884862.64417364-.31084351.64744386-.07763471 1.42653932.53687889 1.79358542 1.44536685.7617498 2.44353302-1.22586623 1.2457733-2.1882341-.09662234-.09721493-.08253571-.18724353-.12380357-.24952496z"/>
      <path fill="rgb(254,209,84)" fill-rule="evenodd" d="M13.16920656 84.18014024c-.1358889-.01092282-.26427958-.06711776-.36486337-.15969597-1.1836731.54715833-1.37652096 2.5070272.33728533 2.63159005 1.7138063.12456286 1.57036082-2.47888077.02757804-2.47189408z"/>
      <path fill="rgb(254,209,84)" fill-rule="evenodd" d="M59.0517174 27.85037924l1.43147862.22157817c3.6754181.35312772 7.34409049.74797602 11.01276288 1.21189283-1.35128397-2.00377549-3.50403805-3.31486018-5.89513438-3.59029419-2.39109634-.275434-4.78266473.51218332-6.54910712 2.15682319z"/>
      <path fill="rgb(250,196,200)" fill-rule="evenodd" d="M48.11474452 39.33950657C42.19538696 56.65254649 40.2611548 76.08455239 39.85522197 80.578996c3.2899208.4639168 6.58004.91405984 9.87015921 1.38496335l4.72199464.65096072c.8672201-6.54434107 4.39839912-31.35031616 9.51223995-41.43332043l-15.84487125-1.84209307z"/>
      <path fill="rgb(235,112,122)" fill-rule="evenodd" d="M69.81667475 83.95796322c.83329318-7.93629112 2.83577603-15.92807658 4.23987502-23.78132579l3.11790528-17.50008384-13.16702412-1.5095262c-5.13467316 10.08300426-8.64501985 34.88897935-9.53287388 41.4540809 3.50340258.48467728 7.00680515.97634126 10.51020773 1.433471 1.05332225.13853625 2.14771395.31939194 3.22821743.45014302h1.51421273c.03432374-.20021883.04821196-.41520953.08947981-.5467591z"/>
      <path fill="rgb(235,112,122)" fill-rule="evenodd" d="M54.26127368 84.2356346h.45434318l-.44739907-.06228143-.00694411.06228143z"/>
      <path fill="rgb(228,123,135)" fill-rule="evenodd" d="M32.4355399 37.53913406c-5.75369095 17.93625348-7.6674876 37.1536679-7.99802723 40.90033511l15.44528734 2.13972645c.37855318-4.4944436 2.31258695-23.89171563 8.25952255-41.23948943l-15.70678267-1.80057213z"/>
      <path fill="rgb(238,74,96)" fill-rule="evenodd" d="M18.88302612 35.9880867s-2.1270752 7.74245834-3.79267883 15.59570694l-1.69992065 8.67029572c-.30296326 1.68280029-.61961365 3.35881042-.89479065 5.04160308-.48866272 2.99848938-.57121277 6.42656708-1.37652588 9.3422165-.21876526.63734436-.35298157 1.30095672-.39918518 1.97364044.06834411.06156158.23257446.05876922.39933777.05593109.15228271-.002594.30667114-.0052185.39208984.04108429 1.74139404.64417267 4.17797851.52619934 6.01577759.77552032 2.29196167.30482483 4.58311462.63699341 6.8828125.95558167.33033752-3.7464676 2.24394226-22.96368408 7.99801635-40.90013123L18.88302612 35.9880867zm.04820252 18.93335342c.52153015-4.21678161 1.87159729-8.2870407 3.9716339-11.97380065l.02717591.00019836c.15235901-.3526001.01968384-.76416016-.30937195-.95964813-.32905578-.19548798-.75132751-.11360932-.98460388.19091034-2.23609924 3.92276764-3.67274475 8.25458526-4.22598266 12.74234008-.12380982.96955872 1.39735412.96237183 1.52114868 0zm-.49562073 6.76572419c0 .2721405-.14430237.5236206-.37854004.65969085-.23425293.13607788-.52285766.13607788-.7571106 0-.23425292-.13607025-.3785553-.38755035-.3785553-.65969085v-.42240143c-.00442504-.2750473.1388855-.53112793.37492371-.66996002.23603821-.13882447.52813721-.13882447.76417542 0 .2360382.13883209.37934875.39491272.37490845.66996002l.00019836.42240143z"/>
      <path fill="rgb(33,33,32)" fill-rule="evenodd" d="M93.9762268 96.98495483c-.278656.77400208-.75317382 1.46144104-1.3767395 1.99441529l-26.27233886.00079345-1.70010376-.13853454c-12.54067993-.89329529-25.07458496-2.0846405-37.53945923-3.71192932-7.89486694-1.0318451-17.22814941-1.46122742-24.592865-4.79927063-2.6773529-1.21525574-2.5762329-3.091362-2.4379425-5.65735627.02560425-.47509765.05249024-.9738388.06324768-1.4964218.2111969-7.63102723.97262574-15.23657227 2.27827454-22.75668336 1.28703308-7.75622558 2.94567871-15.5817337 5.64396668-22.99162292 1.37652587-3.73269654 3.1454773-8.94636917 6.8829956-10.96253205 3.21240234-1.42782211 7.2854004-1.27337265 10.87117005-1.13740158.57064819.02163697 1.12895202.04280854 1.66949462.05706024 7.29627991.22876358 14.5782776.87253952 21.83348084 1.61392594 2.64312744.2700882 5.31362915.51262283 7.99801636.76174927.03366089.28608703.2234497.52923584.49172973.62991714.26828003.1006813.5699768.04199982.78164673-.15202713.12399292-.12475967.26843262-.2008171.39242554-.31180573l1.52096557.14552308c3.69622803.35352707 7.3649292.7479782 11.01275635 1.21189117.27056885.34304047.51452637.70648575.72973633 1.0871315.45413208.87253952 1.7618103.09701538 1.31439209-.76873398-.01599121-.02696228-.03439331-.05241775-.05493164-.07605743 2.9593811.40842438 5.89831543.87253952 8.7892456 1.45423126 4.42559815.88651276 7.9359131 5.78957748 10.62033082 9.04438019 2.84945678 3.4558258 7.41967773 8.28882599 8.30078125 12.86011505.46014404 2.39082336-.03808594 5.24528503-.49597168 7.86851501-.16540528.94775391-.32556153 1.8653183-.43334961 2.71993256-.7973938 6.30179596-1.69992066 12.6175766-2.80123902 18.85031128-.85354614 4.82681274-1.53485107 10.13150787-3.48971557 14.66048431zM83.7695923 33.25928497c-2.10626221-1.170372-4.85253907-1.14961242-7.17901612-1.45423507l.00115967-.0205574c-11.01254272-1.44026185-22.03225708-2.81145097-33.05871582-3.81573869-5.55448914-.51262283-11.11592102-.9487915-16.6910553-1.07355499-.54855347-.01216888-1.12335205-.03445434-1.71520996-.05739593-3.10655212-.12042618-6.68252563-.25904846-9.39398193.9508934-4.68727112 2.52080154-6.48381043 10.65771484-7.8603363 15.29767609-2.353302 8.25185394-4.03829957 16.68196868-5.0384369 25.20761108-.5023651 4.05787659-.87416076 8.1233368-1.05987548 12.20236969-.01545716.38381958-.0676117.91942596-.12756348 1.5350113-.20715332 2.12718963-.50730896 5.20937347.29283142 6.28350066 1.29359436 1.72392273 6.23561096 2.16069031 8.11468506 2.56233216 20.5041809 4.33514404 41.92398071 5.81013488 62.80688476 6.99447631 1.4169922.08303833 2.82806397.14532471 4.24584961.21459961.12908936.19004822.33932495.3081665.5678711.31907654.22857666.01091004.4489746-.08666992.59536743-.26359558 2.2300415.09681702 4.4668274.20082092 6.7038269.20082092.39245606.0051651.88601685.04123688 1.4303894.08102417 1.72790528.12628937 3.96749879.2899704 5.10839844-.37886047 2.18203736-1.27436829 2.72564698-7.24360657 3.20062256-9.4529953 1.2114563-5.6370697 2.1131897-11.35019684 2.93914795-17.05652618.7154541-4.95856476 1.39001465-9.93089295 1.88601685-14.91001893.39819336-3.99598693-1.06781006-6.35031128-3.35299683-9.69534301-2.96554565-4.33514405-6.54473877-9.32823944-10.8328247-12.61079026-.05117798-.45982742-.0718689-.92257309-.06188965-1.38516235-.08273316-.96935654-1.59695435-.98332977-1.52114868 0v.32538223z"/>
      <path fill="rgb(33,33,32)" fill-rule="evenodd" d="M17.96084595 34.5192833l.12379455-.04151917c.04512024-.01128769.07754517-.02947235.107193-.04610825.04273986-.02396774.07971191-.04471206.140625-.0369339l59.69494629 6.8629303c.23419189.0061493.453125.11818695.59603881.30497742.1428833.1867981.19445801.4284439.14041138.65779114-3.86132812 21.70288849-7.73632812 43.4414978-7.73632812 43.4414978-.09265137.332016-.39370728.56132507-.73648072.56093597-5.2033081-.5956726-10.39312744-1.28814697-15.57601928-1.9806366l-.4473877-.0624771c-14.72946167-2.05667878-29.41764832-4.48046875-44.1953125-6.12174225-.37179565-.0692749-.81225586-.31859589-.76403809-.76194763 1.6953125-14.30554963 4.4727478-28.46014405 8.30812073-42.34059906.01390076-.05529404.0896759-.06926728.0896759-.11078644.03485108-.14008332.12756348-.25849533.25476075-.32538224zm36.52780151 48.05431747c3.50338745.48467255 7.00680542.97634125 10.51019287 1.43347168 1.0392456.16588592 2.1338501.34593963 3.21435547.47789001.49258423.0752182.98883057.12380219 1.4866333.14552307v-.11777496c.03536987-.18293762.05838013-.3680725.06884766-.55414581.79837036-7.93608856 2.86334228-15.92787934 4.23986816-23.78092957l3.1178894-17.49988556-13.1670227-1.50971984-15.87225342-1.82832337-15.67939758-1.80056763-13.52494812-1.55125045c-2.06497192 7.74245834-3.76489258 15.62305832-3.76489258 15.62305832-.91563415 4.31458282-1.70011902 8.67028808-1.70011902 8.67028808-.30296325 1.6828003-.61941528 3.35861206-.89479065 5.04161072-.49562072 2.99868774-.57815551 6.42655945-1.37652588 9.34220886-.21887207.6373291-.35316467 1.3009491-.39938354 1.97364807.10336304.09701538.61306763.02774048.79162598.09701538 1.74139404.64396668 4.17797851.52619934 6.01557922.77552033 2.29989624.30461883 4.5910492.63619232 6.88301086.95558166l15.45916748 2.07065583c3.289917.47789001 6.58004761.92823791 9.87016297 1.38516235l4.72200012.65096283z"/>
      <path fill="rgb(33,33,32)" fill-rule="evenodd" d="M76.96137009 97.4558663c-.0426296.21031864.00483991.428974.13074766.60225344.1291092.19005541.33934189.30818021.567889.31908346.22854711.01090326.44894535-.08667751.59534859-.2635891.06190178-.07605522.14443748-.11777579.17201552-.24932535 3.72363006-21.08725468 8.41090415-42.05653397 6.8828032-63.5801579.00998039-.46252556-.0106994-.92520604-.06190179-1.38496335-.0825357-.96955419-1.59674844-.98332797-1.52115684 0v.32538055c1.76221665 21.7661622-3.00084743 42.9434455-6.76574534 64.23131824z"/>
      <path fill="rgb(33,33,32)" fill-rule="evenodd" d="M13.51441956 82.33785248c.30606079.01256561.56703186.22712707.64024353.5263977l.00019836-.00040435c1.0740509.4758606 1.77714539 1.53435516 1.80329895 2.71483612-.00538635.72885131-.31175232 1.42263794-.84571838 1.9152069-.53398133.4925766-1.24746704.73957062-1.96963501.68184662-1.53736878.00785828-2.798172-1.22377014-2.83576966-2.77012634.0707245-1.72606659 1.49046326-3.083992 3.2073822-3.06775665zm-.70887757 1.68279266c-1.18388366.55414581-1.36283874 2.50702667.33728028 2.6315918l-.00019837.00039673c1.78265381.12476349 1.56936646-2.4790802.02757263-2.47229004-.13583374-.0109253-.26416015-.06712342-.36465454-.15969849z"/>
      <path fill="rgb(33,33,32)" fill-rule="evenodd" d="M22.2971344 83.9447937c.24961853.08190918.43118286.2995758.46803284.56112671.04127502.02754974.08253479.00679016.12380981.03453827 1.12478638.9334488 1.35757446 2.57533264.53707886 3.78798675-.8502655 1.12149811-2.38258362 1.45860291-3.62046814.7964859-1.2596283-.76083373-1.75845337-2.34671783-1.16323853-3.69815826.67146302-1.35176086 2.23936463-1.98753357 3.65478516-1.48197937zm-2.26457214 2.07085419c-.3109436.64743805-.07771302 1.42660522.53688049 1.79358673 1.44537353.7615509 2.44352722-1.22566986 1.24577331-2.18823242-.12400817-.0762558-.08273315-.16628266-.12400817-.24952698-.6343689-.19584656-1.31958008.07027435-1.65864563.64417267z"/>
      <path fill="rgb(33,33,32)" fill-rule="evenodd" d="M58.57019299 28.2388397c.12400196-.12456286.26863784-.20081769.3926398-.31160677l.08928141-.07625483c1.76480428-1.62482412 4.14308368-2.4000021 6.51959217-2.12500027 2.37650849.27500184 4.51778332 1.57316796 5.86989007 3.55867089.27059328.34301086.51455548.70646021.72972673 1.08713035.45414478.87253889 1.76201825.0970153 1.31461918-.7687365-.01603283-.02694697-.03442508-.05239977-.05495767-.0760552-.80502852-1.54635106-1.98972727-2.85987606-3.4415008-3.81573572-.44065336.85836587-1.69337076.12456286-1.31481758-.72701593-1.75467527-.78684545-3.70306867-1.02799547-5.59496843-.69248167v.11078908c.18570533.9625675-1.27335133 1.38496335-1.46619918.40163538l-.04126785-.20081769c-1.5571381.51299023-2.97199483 1.38842207-4.12956288 2.5551356-.15958054.15645655-.23409052.3809112-.19999036.60245307.01545851.31042198.21518378.58093543.50610166.68547814.29091788.1045427.6157809.02254254.82319936-.20778755l-.00178563.00019962z"/>
      <path fill="rgb(33,33,32)" fill-rule="evenodd" d="M63.11283119 24.40234351v-.11078908s-1.61083506-8.18541684-3.37959902-16.34328612c-.21348177-.95558079-1.67253844-.55394541-1.46600077.40862208 0 0 1.76201825 8.10237493 3.35876669 16.24647043l.04126785.2008177c.17280913.96256748 1.63127059.5609321 1.44556525-.401835z"/>
      <path fill="rgb(33,33,32)" fill-rule="evenodd" d="M70.0027769 25.71803873S76.2594198 13.5711636 81.40103706.91206363c.36486337-.90727275-1.1011374-1.30192143-1.46600077-.40862207 0 0-5.07277138 12.46526898-11.23993446 24.45344623v.04152095c-.3854973.83740577.8668233 1.5783951 1.30767507.71962999z"/>
      <path fill="rgb(255,247,237)" fill-rule="evenodd" d="M21.63606039 42.178901c-2.2361942 3.92272727-3.67284414 8.2545638-4.2259868 12.7423415-.12380356.9695542 1.37671936.9625675 1.52115685 0 .53183605-4.21391497 1.89120055-8.27935997 3.9990136-11.95983121.17778229-.35600006.05287937-.7897006-.28653047-.99492007-.33940983-.20521947-.77866093-.11262686-1.00765318.21240979z"/>
      <path fill="rgb(255,247,237)" fill-rule="evenodd" d="M16.9489847 61.26516512v.42239586c5e-8.42070276.3389681.76174971.75710637.76174971.41813827 0 .75710632-.34104695.75710637-.76174971v-.42239586c3e-8-.27214701-.14430362-.52362124-.37855316-.65969475-.23424954-.13607352-.52285688-.13607352-.75710642 0-.23424954.13607351-.37855319.38754774-.37855316.65969475z"/>
      <path fill="rgb(33,33,32)" fill-rule="evenodd" d="M90.1904944 99.73392938c.85834677-.01382133 1.69461587-.27583138 2.40901087-.7547631H66.37537236c7.8260117.6028523 16.00299855 1.48916497 23.81512203.7547631z"/>
      <path fill="rgb(254,209,84)" fill-rule="evenodd" d="M78.42715454 97.85710144c0 .13175201-.10992432.17307282-.17181396.24932861 2.2300415.09701538 4.4668579.17965317 6.70385742.20081711.41934204 0 .95410156.03811646 1.5428772.08007813 1.71148681.12197876 3.87945556.276474 4.99588012-.37791062 2.18243408-1.27417755 2.75323487-7.24360656 3.20083618-9.45280456 1.21124268-5.6370697 2.11279297-11.35038758 2.93893433-17.05673218.68826294-4.95835876 1.3767395-9.93069458 1.88604736-14.90981293.39916993-4.0027771-1.0668335-6.35729217-3.35302734-9.69534302-2.96652222-4.33514404-6.54571533-9.32804107-10.8328247-12.61079025 1.29751586 18.61639023-2.03302003 36.8180809-5.36645509 55.03556442-.52056884 2.84493256-1.04122924 5.69025422-1.54431152 8.53760529zm17.09701538-44.58432007c-.03433227-.98332977 1.4866333-.98332977 1.51419068 0 .10031127 3.03536225-.24520874 6.06900025-1.0253296 9.00286103-.1121521.40543365-.52972412.6426239-.93270873.52979278-.4029541-.11283874-.6387024-.53298187-.5265503-.93841553.73742676-2.79959106 1.06433106-5.69255829.97039795-8.58724975v-.00698853zM94.43652344 65.6965332c-.40612793-.10625457-.82214356.13381195-.93606568.54016877l-.0001831.00738525c-.02044678.16628265-.04803467.33197021-.07540894.4916687-.11022949.40730286.12857056.8274002.53341675.93830872.40481567.1109085.82235718-.12937165.93258667-.5366745.03530884-.16464997.06063843-.33130646.07577515-.49905396.09500122-.40507507-.13598633-.81544494-.53012085-.94180298z"/>
      <path fill="rgb(33,33,32)" fill-rule="evenodd" d="M96.01322963 62.24829347c.7801448-2.93385575 1.12564998-5.9674958 1.0253474-9.00286061 0-.98332797-1.54853647-.98332797-1.51421273 0 .09524353 2.8992839-.23168284 5.79698778-.97038974 8.60102561-.08916454.39737158.14818714.79499605.53872367.90249927.39053654.10750323.79601823-.11316814.920333-.50086389l.0001984.00019962z"/>
      <path fill="rgb(33,33,32)" fill-rule="evenodd" d="M93.9553923 67.6775574c.40406476.1067894.8191525-.12964536.936066-.53318495.0118428-.16813452.03718884-.33502915.07579-.49904992.09522352-.40504828-.13574539-.81552924-.52993478-.94180701-.40609038-.10638123-.82215.1336238-.936066.53997201-.01177412.16812944-.03705385.33502428-.0755916.49904993-.09470454.40326647.1367391.81153977.52993478.93482031l-.0001984.00019962z"/>
    </g>
  </g>
</svg>
