<svg xmlns="http://www.w3.org/2000/svg" xmlns:xlink="http://www.w3.org/1999/xlink" width="673.328" height="761.501" viewBox="0 0 673.328 761.501">
  <defs>
    <rect id="rect-1" width="163.941" height="236.501" x="200" y="525"/>
    <mask id="mask-2" maskContentUnits="userSpaceOnUse" maskUnits="userSpaceOnUse">
      <rect width="673.328" height="761.501" x="0" y="0" fill="black"/>
      <use fill="white" xlink:href="#rect-1"/>
    </mask>
    <rect id="rect-17" width="673.328" height="455.084" x="0" y="0"/>
    <mask id="mask-18" maskContentUnits="userSpaceOnUse" maskUnits="userSpaceOnUse">
      <rect width="673.328" height="761.501" x="0" y="0" fill="black"/>
      <use fill="white" xlink:href="#rect-17"/>
    </mask>
  </defs>
  <g>
    <g>
      <use fill="none" xlink:href="#rect-1"/>
      <g mask="url(#mask-2)">
        <g>
          <g>
            <path fill="rgb(255,255,255)" fill-rule="evenodd" d="M253.966 635.74c-8.361-3.281-15.075-9.783-22.245-14.979-9.958-7.217-19.8-14.809-27.45-24.539-6.26-7.958-1.187-14.417 2.151-22.616 3.546-8.711 8.271-16.859 13.1-24.909 3.865-6.448 9.262-24.012 18.461-22.283 6.988 1.313 14.271 7.554 19.812 11.63 7.52112168 5.55297139 14.72820785 11.51914876 21.588 17.871 3.779 3.488 9.118 7.512 11.455 12.239 3.526 7.135.435 14.288-2.988 20.753-6.176 11.666-9.955 24.412-16.733 35.847-4.047 6.828-7.659 14.468-16.429 11.259 0 0-.364-.132-.722-.273z"/>
            <path fill="rgb(0,29,56)" fill-rule="evenodd" d="M254.24099731 637.22497559c1.39001465.53540039 2.8636322.82110595 4.35299683.84405517 6.2460022 0 9.66700745-5.8670044 12.75201416-11.15600586.29299927-.5.58200073-1 .88198853-1.5 3.62353515-6.43792724 6.801651-13.11657715 9.5119934-19.98901367 2.22601319-5.29400635 4.52900696-10.76898193 7.25100708-15.91400146 3.46400452-6.54302979 6.8380127-14.17199707 3.00500489-21.92797852-1.98199463-4.0090332-5.89099121-7.44500732-9.33999634-10.47601318-.83999634-.73999024-1.65100098-1.44799805-2.40000916-2.14001465-6.896286-6.38293457-14.14070129-12.37908936-21.69999694-17.96099854-.83599854-.61599731-1.71299744-1.28100586-2.62200928-1.9710083-5.11599732-3.88897705-11.48999024-8.71899414-17.71598816-9.88897705-8.1230011-1.52801514-13.26900482 9.38800049-17.02300263 17.3579712-1.0039978 2.13000488-1.95300292 4.1460266-2.78299713 5.53002929-4.68600464 7.81799316-9.56600189 16.19500732-13.18600464 25.0869751-.56999969 1.40100097-1.2009964 2.76898193-1.810997 4.09204101-2.99160004 6.48925782-5.81640625 12.61669922-.15900422 19.8079834 7.94800568 10.10296631 18.04600525 17.78497315 27.70800782 24.78497315 1.9099884 1.38500976 3.83399963 2.90002441 5.69400024 4.36401367 5.18699646 4.08398437 10.55000305 8.30499267 16.83898926 10.77502441.2440033.09594727.49299621.18896485.7440033.28094483zm.8899994-2.42297364c-.34899903-.12799072-.69400025-.26202392-.69400025-.26202392l.00401306-.00097657c-5.93099975-2.32904052-11.14201355-6.43200683-16.18200683-10.4000244-1.87600708-1.47998048-3.82400513-3.01000977-5.77600098-4.4249878-9.51399994-6.89501953-19.45200348-14.4500122-27.1930008-24.28997803-4.68049621-5.95141602-2.4064865-10.88397217.47399903-17.13201904.62200165-1.34802246 1.26499939-2.7420044 1.8580017-4.20001221 3.54999543-8.7199707 8.3730011-17 13.00800324-24.73098755.8919983-1.49499512 1.82299805-3.4710083 2.8999939-5.7579956 3.39600372-7.20800782 8.04899597-17.08300782 14.21099853-15.92102051 5.62800599 1.05700683 11.73300171 5.6880188 16.63299561 9.40802002.91900635.69900512 1.80599976 1.3710022 2.65200806 1.99398804 7.4821167 5.52520751 14.6524353 11.46063232 21.47799682 17.7789917.76400757.70501708 1.59100342 1.4329834 2.44400025 2.18200683 3.26901245 2.87298584 6.97399902 6.13000488 8.73001098 9.68103027 3.29299927 6.66296387.19198609 13.59899903-2.97201538 19.57696534-2.7769928 5.24603271-5.10098266 10.77398681-7.34999084 16.11999511-2.66644287 6.76281739-5.79136658 13.33581543-9.35301209 19.67303467-.29898071.50396729-.59197998 1.0119629-.89199829 1.5209961l-.00646972.0111084c-3.6832428 6.31829833-6.86268616 11.77233886-13.973526 9.17388915z"/>
          </g>
          <path fill="rgb(255,162,0)" fill-rule="evenodd" d="M257.907 635.432c-.95289373-.08049359-1.8897336-.29458994-2.783-.636-.233-.079-.462-.172-.689-.258-5.933-2.331-11.141-6.43-16.185-10.4-1.878-1.485-3.825-3.016-5.774-4.428-9.515-6.894-19.45-14.449-27.192-24.291-.83361139-1.03416401-1.5077455-2.18727042-2-3.421 13.9507284-4.74863442 28.1706653-8.6661711 42.585-11.732 4.374 18.353 8.4 36.782 12.038 55.166z"/>
          <path fill="rgb(86,148,208)" fill-rule="evenodd" d="M245.271 577.759c-14.4213182 3.0729187-28.65033523 6.987618-42.614 11.724-.393-3.6 1.228-7.122 3.1-11.189.621-1.353 1.262-2.742 1.856-4.2 3.551-8.719 8.374-17 13.007-24.732.9-1.492 1.829-3.472 2.9-5.756 2.408-5.106 5.441-11.551 9.2-14.456 0 0 6.681 24.104 12.551 48.609z"/>
          <path fill="rgb(255,162,0)" fill-rule="evenodd" d="M290.564 571.019c-14.36206749 1.2526227-28.6404995 3.32769472-42.765 6.215 0 0-5.961-24.846-12.746-49.365.86446554-.293446 1.79022046-.3578733 2.687-.187 5.628 1.055 11.731 5.687 16.635 9.4.92.7 1.8 1.375 2.649 2 7.48498522 5.5242955 14.65705233 11.4604555 21.483 17.781.764.705 1.584 1.431 2.435 2.178 3.271 2.875 6.978 6.131 8.737 9.686.36625437.7345426.66256102 1.50192658.885 2.292z"/>
          <path fill="rgb(86,148,208)" fill-rule="evenodd" d="M291.034 573.571c.44 5.1-1.925 10.194-4.327 14.733-2.776 5.244-5.107 10.775-7.355 16.125-2.6663651 6.76056275-5.78923102 13.33204557-9.347 19.669-.3.5-.6 1.012-.892 1.518-2.606 4.467-4.962 8.5-8.621 9.566-3.659-18.475-7.7-36.993-12.093-55.434 14.08090325-2.87804698 28.31627063-4.94048077 42.635-6.177z"/>
          <g>
            <path fill="rgb(255,255,255)" fill-rule="evenodd" d="M233.522 527.16s14.905 53.711 25.736 108.443"/>
            <path fill="rgb(0,29,56)" fill-rule="evenodd" d="M259.257 636.894c-.61595577-.0005654-1.14586023-.43587396-1.266-1.04-7.176-36.271-15.827-72.725-25.713-108.349-.19081438-.68704223.21145777-1.39868562.8985-1.5895.68704223-.19081438 1.39868562.21145777 1.5895.8985 9.9 35.687 18.569 72.2 25.759 108.538.13781786.69958366-.31671131 1.37869319-1.016 1.518-.083072.01581141-.16743681.02384616-.252.024z"/>
          </g>
          <path fill="rgb(0,29,56)" fill-rule="evenodd" d="M201.656 592.482c-.6309025-.00016258-1.16927438-.45629143-1.27307446-1.07859646-.10380009-.62230502.25738041-1.22847864.85407446-1.43340354 29.08704084-10.0192494 59.30120216-16.40400836 89.955-19.009.46434442-.04870016.91880137.15710733 1.18849535.53822753.26969397.3811202.31259543.87815873.11219585 1.29985466-.20039958.42169592-.61286962.70233148-1.0786912.73391781-30.44419852 2.58733974-60.45177224 8.92842978-89.34 18.879-.13442421.04660014-.27572782.07026343-.418.07z"/>
        </g>
        <path fill="rgb(0,29,56)" fill-rule="evenodd" d="M249.94400024 660.06903076c.58566285.15350342 1.18855286.23144531 1.7939911.23199463 1.42652892-.01739502 2.82180785-.42028809 4.03800964-1.16601562 2.41667175-1.48529053 4.16854858-3.84417725 4.89199829-6.5869751.50048828-2.17333985.5664215-4.4241333.19400024-6.62304688 2.53588867 2.87884522 5.51707459 5.33233643 8.83000183 7.26702881 3.40299988 1.98596192 6.3919983 2.17901611 8.41499329.54498291 1.72888183-1.54815674 2.3397522-3.99365234 1.54200745-6.17297363-.70942688-1.84667969-1.89530945-3.47247315-3.43699646-4.71203613-3.94801331-3.47497559-14.79800416-9.78198243-21.3480072-5.88195801-2.72000123 1.62298584-7.7630005 15.00097656-7.02000428 20.25097656.28300476 1.97302246 1.30000305 2.63800049 2.1000061 2.84802246zm4.51799012-3.1560669c-1.14039612.72222901-2.5211029.96142579-3.83799744.66503907-.06399536-.08599854-.38999939-.62902832-.22999573-2.52502441.50299073-5.83398438 4.47000122-15.00598145 5.79199219-15.86798096 4.98500061-2.9710083 14.54400635 2.27301025 18.32099915 5.59997558 1.20320129.92333985 2.13183593 2.15722657 2.68600463 3.56903077.43911744 1.1654663.16210938 2.4798584-.70999145 3.36895752-1.58500671 1.27703857-4.37001038-.10998536-5.4940033-.76599122-4.86117553-2.83953857-8.92332458-6.86486816-11.80700683-11.69995117-.3335724-.55932617-1.03147888-.78259277-1.62776184-.52081299-.59628296.26177979-.90422058.92669678-.7182312 1.55078125 1.2639923 4.23199463 2.23599243 8.02600098 1.32598876 11.62597657-.54449462 2.08044433-1.86959838 3.87115478-3.69999694 5z"/>
        <path fill="rgb(0,29,56)" fill-rule="evenodd" d="M351.78692627 760.49865723c.13423157.58721923.65670776 1.00354004 1.25906372 1.0032959.19400024-.00030518.38542175-.04437256.55999756-.12896729 10.37200928-5.00201416 12.62399292-19.48797607 8.15701294-29.36102295-4.55101013-10.05297851-14.19900513-16.89196777-23.03701782-22.25299072-1.7709961-1.06799317-3.55899048-2.1329956-3.55899048-2.1329956-7.77400208-4.63397218-15.81300354-9.4249878-21.46499634-16.40698243-1.0159607-1.2588501-1.92575073-2.59979248-2.72000122-4.0090332 5.46099853-.44598389 12.36999512-1.5 17.96099853-5.53295899 5.97000122-4.30603027 8.86000061-11.53503418 7.02799988-17.57702636-1.38700866-4.5709839-5.44999695-7.815979-10.87199402-8.67999268-6.64900207-1.059021-13.43099975 1.54797363-16.88600158 6.48699951-4.71299744 6.73699951-4.31300354 15.48797608-1.23300171 22.94897461-9.3400116.32000733-21.31599427-.96795654-31.1399994-7.57995605-10.58799743-7.125-16.13800048-19.62304688-13.49501037-30.39202881.16983032-.69256592-.2539215-1.3916626-.94648742-1.56152344-.69256592-.1697998-1.39167786.25396729-1.56150818.9465332-2.8939972 11.7999878 3.09300232 25.43200684 14.56199646 33.14996338 8.73400879 5.87402344 20.36401367 8.62304688 33.75500488 7.97399903.9920044 1.93286132 2.178833 3.75933837 3.54199219 5.4510498 5.94100952 7.33996582 14.18000793 12.25097656 22.15000915 17 1.18400574.70697022 2.36799622 1.41296387 3.54100037 2.12298584 8.92399597 5.41101074 17.77400207 11.7210083 22.02401733 21.11102295 3.97399903 8.7869873 2.10897827 21.61297607-6.92602539 25.9699707-.54263306.26147461-.8323059.8635254-.69805908 1.4506836zm-41.45791626-97.11065674c2.43598938-3.48095703 7.08799744-5.61297608 11.87799072-5.61297608.83285523-.00079345 1.66445923.0643921 2.48699951.19500733 4.4880066.71496582 7.69799805 3.22296142 8.80700684 6.88098144 1.69200134 5.57800293-1.7669983 11.6340332-6.06700134 14.7340088-5.16600037 3.72497558-11.76199341 4.67401122-16.93099976 5.0739746-.25900268.02001953-.52000427.04003906-.78500366.05700684-3.11199951-6.90100098-3.72999573-15.12799072.61100769-21.32800293z"/>
        <path fill="rgb(0,29,56)" fill-rule="evenodd" d="M271.086 609.102c-.17169452.0006187-.34175071-.03339253-.5-.1-.31534426-.13337621-.5647288-.3866462-.69321425-.70401462-.12848544-.31736842-.12553035-.67279718.00821425-.98798538l6.163-14.571c.1715401-.4368052.56659987-.74612437 1.03180151-.80786761.46520165-.06174324.92727052.13381472 1.20681328.51075059.27954275.37693586.33252817.87587785.13838521 1.30311702l-6.163 14.571c-.20332523.47769523-.67283507.78728813-1.192.786z"/>
        <path fill="rgb(0,29,56)" fill-rule="evenodd" d="M266.098 557.972c-.24882604-.00019513-.49215709-.07319445-.7-.21l-9.9-6.454c-.5764236-.39735264-.73108534-1.18173615-.34863809-1.76815528.38244725-.58641912 1.16260879-.76113528 1.75863809-.39384472l9.9 6.454c.47831465.31228775.69453542.9017876.5315787 1.44928523-.16295671.54749763-.66634448.92281382-1.2375787.92271477h-.004z"/>
        <path fill="rgb(0,29,56)" fill-rule="evenodd" d="M267.872 598.875c-.4431691-.00094896-.85492752-.22897089-1.09088222-.60410437-.2359547-.37513348-.26317588-.84502496-.07211778-1.24489563 1.93152814-4.03530359 4.38851833-7.7972861 7.307-11.188.46758693-.52999279 1.2744206-.58547526 1.81015375-.12447648.53573315.4609988.60118643 1.26708485.14684625 1.80847648-2.77082393 3.21781671-5.10311584 6.78855025-6.936 10.619-.21436584.4487919-.66764023.73437422-1.165.734z"/>
      </g>
    </g>
    <g>
      <use fill="none" xlink:href="#rect-17"/>
      <g mask="url(#mask-18)">
        <g>
          <g>
            <path fill="rgb(255,162,0)" fill-rule="evenodd" d="M70.893 153.038c2.551-4.973 5.313-9.84 7.912-14.788 1.649-3.141 3.287-6.291 4.82-9.491.419-.873 3.052-5.171 2.24-6.147-.651-.783-5.779.354-6.837.455-10.72 1.022-21.717 2.7-32.518 2.108 4.737 2.566 7.738 7.189 11.14 11.2 4.04 4.755 13.43 16.301 13.243 16.663z"/>
            <path fill="rgb(0,29,56)" fill-rule="evenodd" d="M70.30200005 154.18600464c.18223953.0947113.38461875.144104.59000015.1439972.48500252.0015869.9299736-.26879884 1.15200043-.69999696l.03499984-.08000183c1.42199898-2.76699829 2.93599892-5.5510025 4.39999962-8.24500274 1.16699982-2.14499665 2.33200073-4.29100037 3.46699906-6.45200348 1.58100128-3.01099396 3.25699996-6.22699738 4.8409996-9.53299714.06700134-.13899993.19600296-.37200164.35700226-.66699981 1.95199966-3.56900025 2.75299835-5.61000061 1.71199798-6.86299896-.83099746-.99900055-2.49900055-.91799927-6.77899933-.19000245-.52600097.08499909-.94799804.16300202-1.17300033.1850052-2.34599877.22399902-4.70499993.47899627-7.0719986.73499297-8.31700134.89900208-16.91799927 1.82800293-25.25300216 1.3690033-.60337067-.0327835-1.14898682.35670471-1.31399918.93800354-.16375732.58150482.09698486 1.19890594.62800217 1.48699951 3.51999664 1.8999939 6.01199722 5.0099945 8.65099716 8.29999542.70000076.875 1.40000152 1.7480011 2.1210022 2.59600067 4.15399932 4.89299775 12.1100006 14.71300507 12.99199676 16.20000458.10030365.33573914.33325958.61600495.64500237.77600098zM56.55599975 133c-1.73883438-2.30491638-3.67986297-4.45009613-5.79999923-6.40999603v-.00099945c7.14178848-.08724976 14.2724762-.58943177 21.3560009-1.50400544 2.355999-.25499725 4.70399856-.50899505 7.0379963-.73199462.26200103-.02500153.7520027-.11000061 1.36200332-.20999909 1.36915588-.25966644 2.75317764-.43367004 4.144001-.52100372-.46416854 1.31921387-1.05877685 2.58883667-1.77500152 3.79000091-.1910019.34999848-.3409996.62599945-.41999817.79000092-1.5660019 3.26699829-3.23000336 6.45899963-4.80000305 9.4489975-1.12899971 2.15000152-2.28899956 4.28500366-3.4489994 6.41899871-1.1420002 2.10100556-2.31399918 4.25700379-3.45199967 6.42300416-.82299996-1.09300232-2.06200218-2.65399933-3.89999962-4.9449997-2.70800018-3.37400055-6.09199905-7.4900055-8.22999954-10.01000214-.70199967-.82700347-1.38700104-1.68099975-2.07400131-2.53800201z"/>
          </g>
          <g>
            <path fill="rgb(86,148,208)" fill-rule="evenodd" d="M106.244 148.997l.3.379c1.926-5.351 4.49-10.526 6.835-15.776 1.447-3.239 2.881-6.487 4.209-9.778.362-.9 1.845-6.276 1.845-6.276s-6.038.741-7.5 1c-6.569 1.435-13.269 2.1-19.9 3.137-1.626.255-4.866.845-4.866.845s15.162 21.463 19.077 26.469z"/>
            <path fill="rgb(0,29,56)" fill-rule="evenodd" d="M105.52600098 150.16699982c.24423027.31453705.61977577.49898529 1.01799965.5.06698799.00001526.13386726-.00533295.20000076-.01599884.46455002-.07396698.85219002-.39457703 1.01199913-.83700562 1.40600014-3.9019928 3.19600105-7.79999542 4.9279995-11.56999206.62900161-1.37000275 1.26000022-2.74100495 1.87800025-4.1210022 1.38700104-3.10700226 2.85700036-6.42100525 4.22699738-9.82099915.37900543-.94000244 1.73900604-5.85900116 1.89300537-6.41600036.11452484-.41503907.01460266-.85986328-.26641846-1.18605042-.28102874-.32618713-.70616912-.4908142-1.13358306-.43894958-.2480011.02999878-6.0890007.74900055-7.6210003 1.02199554-4.37100028.95500183-8.89900016 1.58000183-13.27900028 2.1800003-2.18599987.3010025-4.3720007.60200501-6.55099964.9430008-1.63899994.25600433-4.46650886.76992035-4.90000057.84899902-.4334917.0790863-.79662895.37397004-.9630003.78200531-.16685867.40828705-.11408233.8734665.14000035 1.23399353.6239996.87700653 15.2329998 21.5450058 19.1239996 26.51900483l.29400062.3769989zm.6269989-3.41899872c-4.12599945-5.5-13.47299957-18.66000366-16.7659998-23.3069992.96700001-.16999818 2.07899952-.36299897 2.84100056-.48100282 2.15999985-.33599853 4.32999992-.63599395 6.49999905-.935997 4.42800045-.60600281 9.00899982-1.23999787 13.42799854-2.20600129.89700317-.15899658 3.6230011-.51200103 5.51200104-.75099945-.51900101 1.83899689-1.09899903 3.82900238-1.27799988 4.27200318-1.35300064 3.35599517-2.81200028 6.64899444-4.18999863 9.73399353-.6100006 1.36800384-1.23600006 2.7310028-1.8619995 4.09400177-1.43300248 3.12000274-2.9070015 6.32800293-4.18500138 9.58100128z"/>
          </g>
          <g>
            <path fill="rgb(255,162,0)" fill-rule="evenodd" d="M156.27400208 115.1780014c-1.07400132 3.38200379-2.25300217 6.73000336-3.45300293 10.0699997-1.8849678 5.26091003-3.94392777 10.46481323-5.77690125 15.74371338.13136292-.38886261-10.76828766-10.5087738-15.43409729-14.66371155-3.9260006-3.4960022-7.54100037-7.65599823-12.59000015-9.53800201 10.77899933-.91199494 21.43500137-4.11199952 31.9090004-6.61199952.2378273-.05657959.68123626-.1974411 1.23223876-.37247467 1.84458542-.58596801 4.89495469-1.55496978 5.47476197-1.02752685.77474975.70619964-.460289 3.98228454-1.07818604 5.62132263-.13019562.3453598-.23299408.618042-.28381347.7786789z"/>
            <path fill="rgb(0,29,56)" fill-rule="evenodd" d="M145.87400055 141.52999878c.20960998.45783997.66646194.75186157 1.16999817.75299835.55015182.00041962 1.04003143-.34812164 1.22000122-.86800384l.02799988-.08099366c1.0209999-2.93600463 2.13199806-5.90200042 3.20600319-8.77200317.85799408-2.29100037 1.71499633-4.58300018 2.53999328-6.8829956 1.14700318-3.20300294 2.36000061-6.62200165 3.46800232-10.11399842.04599762-.14600372.14099884-.39500427.26000214-.70800781 1.43999481-3.80799866 1.94599914-5.93699646.73999786-7.03699494-.95999908-.8730011-2.60099792-.56100082-6.73999786.7559967-.50800324.16100312-.91500092.29299928-1.13500214.34600068-2.29099846.54800415-4.59199715 1.12799835-6.89999962 1.71099854-8.1100006 2.04800415-16.49599838 4.1700058-24.81699943 4.87000274-.60567475.04716492-1.09652043.5102234-1.17886067 1.11212158-.08234024.60190583.2661066 1.17977906.83686161 1.38787842 3.75 1.39800263 6.64999962 4.12799835 9.72099877 7.0169983.81700134.77000427 1.63199997 1.53700256 2.4620018 2.27500152 4.78899765 4.27000427 14.03899765 12.88800049 15.11899948 14.2350006zm-15.81200028-18.38999939c-2.04304885-2.03961182-4.26420974-3.89263916-6.63700103-5.53700256 7.05578422-1.09694672 14.0449562-2.58625794 20.93500137-4.46099854 2.29899597-.57700348 4.58899689-1.15499878 6.87099648-1.69999695.25400543-.06400299.72800445-.21300506 1.31600189-.40000152 1.32048034-.44750214 2.66738891-.81286621 4.03299713-1.09400177-.27489472 1.37130737-.68730927 2.71141052-1.23099518 4-.13999939.37200164-.25.66600036-.3050003.83999633-1.09300232 3.45000458-2.30000306 6.84200287-3.43599701 10.02500153-.8199997 2.29000092-1.67300415 4.56900024-2.52700234 6.84799957-.8370018 2.23500061-1.69600296 4.52799988-2.52000427 6.82800293-.96399689-.96800232-2.40799713-2.34100341-4.54699707-4.3540039-3.15000153-2.9679947-7.07300186-6.56799317-9.54300118-8.76799774-.80900001-.72200013-1.60899925-1.47299958-2.40899849-2.22699738z"/>
          </g>
          <g>
            <path fill="rgb(255,162,0)" fill-rule="evenodd" d="M218.856 118.73c.956-5.506 2.147-10.974 3.157-16.471.641-3.49 1.268-6.984 1.78-10.5.14-.959 1.376-5.844.311-6.535-.854-.554-5.412 2.056-6.392 2.467-9.932 4.166-19.932 9.039-30.421 11.684 5.286 1.041 9.525 4.562 13.965 7.378 5.273 3.345 17.67 11.577 17.6 11.977z"/>
            <path fill="rgb(0,29,56)" fill-rule="evenodd" d="M218.6329956 119.99900055c.07395936.01306152.14889527.0197525.22399903.01999664.62149048-.00279236 1.15292358-.44768524 1.26499939-1.05899048l.01499939-.08500671c.53300476-3.06500244 1.14800262-6.17299652 1.7480011-9.1819992.4750061-2.40000153.95100403-4.79999924 1.39199829-7.19999695.6150055-3.34700013 1.26000213-6.92000199 1.78800201-10.54100037.02200318-.15100098.0759964-.41100311.14299774-.74100113.80300904-3.98900223.96000672-6.17700195-.4059906-7.06299973-1.0920105-.70700073-2.6590042-.13399887-6.5320053 1.83599854-.47399903.24100113-.85399628.43700027-1.0620041.52400207-2.17399597.90699769-4.35099792 1.85199738-6.53599548 2.79999924-7.66899872 3.33099747-15.59999847 6.77499771-23.69999695 8.81499863-.5852356.14806366-.98973083.68192291-.9739151 1.28539276.01582337.60346985.4477234 1.11540222 1.03990936 1.2326088 3.92700196.77399826 7.22700501 2.99899673 10.72700501 5.35599899.9339981.6269989 1.86299896 1.2519989 2.79999542 1.84600067 5.42099762 3.43800354 15.9370041 10.44999695 17.22100067 11.60699463.1958847.2906189.5017395.48886108.84700013.5490036zm-19.42199706-16.14300156c-2.34615326-1.68354416-4.8380661-3.15406036-7.44599915-4.394001 6.78673553-2.22330857 13.4440918-4.8236847 19.9410019-7.78899765 2.17499541-.94400025 4.34200286-1.88500214 6.5059967-2.79199982.23999786-.10000229.68299865-.3199997 1.23200225-.60000229 1.23162842-.65548706 2.50273133-1.2339325 3.80599976-1.73199844-.05025482 1.39823532-.24087524 2.78788375-.56900024 4.1479988-.07800293.3899994-.13899994.69800187-.16500092.87800217-.52300262 3.57799912-1.16199493 7.12399674-1.77300262 10.44799805-.43899537 2.3900032-.91199494 4.77500153-1.38499451 7.15999985-.46600342 2.34300232-.9430008 4.75299835-1.38600159 7.15299988-1.10700226-.80000306-2.75500488-1.92199708-5.19100189-3.56199646-3.58799744-2.41699982-8.04199982-5.34100342-10.83399963-7.11100007-.91699982-.58200073-1.82499695-1.19400024-2.73600006-1.80700302z"/>
          </g>
          <g>
            <path fill="rgb(255,162,0)" fill-rule="evenodd" d="M286.53900146 60.86999893c-.08200073 3.54700089-.2789917 7.09200096-.49099731 10.63399983-.33099365 5.57881164-.8509674 11.15061187-1.13098144 16.73241424.01412963-.4128418-13.28674317-7.0687027-18.92501832-9.74541473-4.74900817-2.25499726-9.38500976-5.2349968-14.75900268-5.62599945 10.09100342-3.8929987 19.42399597-9.95300007 28.77600098-15.29299927.21160888-.12071896.59623718-.3794384 1.0743866-.70106506 1.60525512-1.07977486 4.26460265-2.86857605 4.96961974-2.52493477.94473267.45995998.67471314 3.96125316.54022217 5.70515346-.02809143.36412812-.05026245.65163994-.05422974.81884575z"/>
            <path fill="rgb(0,29,56)" fill-rule="evenodd" d="M284.85101318 89.52999687h.06698609c.68814087-.00082397 1.25445556-.5416336 1.28700256-1.22899627l.00500488-.086998c.15699768-3.1080017.39100647-6.27200126.6190033-9.33200263.17999268-2.4300003.36099243-4.86399841.50698853-7.29999924.20300292-3.39300155.40800476-7.01200104.49301147-10.68099975.00299072-.15299988.0249939-.41800118.05099487-.75300026.31199646-4.06100083.20199585-6.24800015-1.2619934-6.96100045-1.16400147-.56799984-2.65800477.19099999-6.25801087 2.61400033-.44200134.29800033-.79299927.53899955-.99299622.65100002-2.04400634 1.16800022-4.09100341 2.37099933-6.14399719 3.5769987-7.21000671 4.24000169-14.66600036 8.62400056-22.4560089 11.63299943-.56382752.21761322-.9012146.79726028-.81199647 1.39500046.08859253.5981903.57995606 1.05508041 1.18299866 1.10000229 3.99099731.2899971 7.70700073 2.1819992 11.30000305 4.01199722 1 .50800323 2 1.01600265 3 1.49200058 5.79899597 2.75400162 17.08900452 8.43400001 18.50500488 9.42700386.22987366.26478577.55778504.42440796.90800476.44199371zm-21.24002075-13.66599846c-2.53366089-1.38601684-5.18623352-2.54262924-7.92599487-3.45599746 6.46546936-3.03121949 12.75660705-6.42116166 18.84399414-10.15400124 2.04299927-1.20100021 4.07800293-2.39799976 6.11599731-3.56099987.227005-.13000011.64001465-.40499973 1.15301514-.75099945 1.1419983-.79931069 2.33226013-1.52735996 3.56399536-2.1800003.11982727 1.3941698.09973145 2.7968397-.05999756 4.18699931-.02999878.39600182-.05700683.70900155-.05700683.89100075-.08399964 3.62599945-.28999329 7.2179985-.48999024 10.58599854-.14100647 2.42399978-.32000732 4.84600067-.5 7.269001-.17700195 2.38500214-.35900879 4.83300019-.50500488 7.27499962-1.19700623-.65899658-2.96899414-1.5720005-5.58599854-2.90500068-3.85501098-1.96199799-8.63200378-4.3219986-11.61801147-5.73999787-.98098755-.46100235-1.95698547-.96100235-2.93499756-1.46100235z"/>
          </g>
          <g>
            <path fill="rgb(86,148,208)" fill-rule="evenodd" d="M181.65 131.201l.35.33c1.088-5.584 2.83-11.09 4.345-16.637.934-3.422 1.855-6.851 2.664-10.306.22-.943.863-6.485.863-6.485s-5.853 1.656-7.261 2.137c-6.273 2.423-12.792 4.1-19.191 6.145-1.569.5-4.68 1.578-4.68 1.578s18.274 18.89 22.91 23.238z"/>
            <path fill="rgb(0,29,56)" fill-rule="evenodd" d="M180.76599884 132.1419983l.34900665.32900237c.23822785.22441864.55282593.34984589.87999726.3509903h.00083923l.00320435-.0000229c.61471557-.005455 1.14183807-.4409027 1.2629547-1.0439682.79299928-4.06999969 1.9659958-8.19499969 3.09999848-12.18499755.41300202-1.45200348.82299805-2.90399933 1.22299957-4.35900116.89600373-3.28400421 1.84100342-6.78900147 2.67500306-10.3520012.23099517-.98600005.82299804-6.0550003.88899994-6.63000106.05004882-.42788696-.11680604-.85253906-.44477082-1.13189697-.32796478-.27937317-.77373504-.37657166-1.18822479-.25910187-.24100494.0680008-5.9030075 1.67499924-7.37500763 2.17499924-4.17399597 1.61199951-8.55599976 2.92100143-12.79299927 4.18600082-2.11299896.63199997-4.22599792 1.26300049-6.32600021 1.9319992-1.57799912.50400163-4.70899963 1.58900071-4.70899963 1.58900071-.41560746.14590836-.7282486.4935112-.8294487.9222107-.1012001.42869186.02296829.87940597.3294487 1.19578933.74700164.7689972 18.34599685 18.95999909 22.95299911 23.28099823zm3.11800385-13.25499726c-.939003 3.30599975-1.90399933 6.69599914-2.66999817 10.10599518-4.91738892-4.80342102-16.16724396-16.37716675-20.13054276-20.46949768.9276619-.31587983 1.99692154-.67562104 2.72853851-.90950013 2.0850029-.66500091 4.18000412-1.29100036 6.2800026-1.91799926 4.28499603-1.27999878 8.71499634-2.60300065 12.935997-4.23400116.86199952-.29499817 3.5019989-1.06100083 5.33200074-1.58499909-.2310028 1.89699936-.5 3.95199967-.6080017 4.41699982-.82499696 3.5209999-1.7630005 6.99900055-2.6519928 10.26000213-.39500428 1.4469986-.80599976 2.8899994-1.21600342 4.33300019z"/>
          </g>
          <g>
            <path fill="rgb(86,148,208)" fill-rule="evenodd" d="M248.235 105.818s.194.143.386.286c.434-5.672 1.527-11.342 2.389-17.028.532-3.507 1.05-7.02 1.453-10.545.11-.962.107-6.542.107-6.542s-5.623 2.323-6.965 2.964c-5.95 3.133-12.231 5.557-18.351 8.326-1.5.678-4.465 2.11-4.465 2.11s20.338 16.646 25.446 20.429z"/>
            <path fill="rgb(0,29,56)" fill-rule="evenodd" d="M247.4670105 106.85500336l.3829956.28399658c.22207642.1655693.49150086.25531769.7684784.25600052l.00123596.00000381.00128174-.00000381c.67294311-.00167847 1.23184204-.52056504 1.28300476-1.19199753.31700134-4.13400269 1.0039978-8.36500168 1.66799927-12.45899963.24198913-1.49000168.48399353-2.98200226.71099853-4.47400284.5099945-3.36299896 1.04199219-6.95100022 1.45799255-10.5929985.1150055-1.00600053.1150055-6.11000062.1150055-6.68800164.00021362-.43091965-.21476746-.83349037-.57299805-1.07299995-.35786438-.24003983-.8122406-.28471947-1.21000671-.11899948-.23098755.0949993-5.67399597 2.3430004-7.07398987 3.01399993-3.95899964 2.08499909-8.16000366 3.89200211-12.22200012 5.6399994-2.02500916.87099838-4.0510025 1.74300002-6.05900574 2.65200042-1.50900269.6819992-4.4940033 2.1230011-4.4940033 2.1230011-.3972702.19151688-.66928863.57258987-.721344 1.01052856-.05206298.4379387.12304688.87216187.46434785 1.15147019.83499908.68099975 20.4260025 16.70899963 25.50000763 20.46700287zm.07998657-3.1800003c-5.44200134-4.20000459-17.9569931-14.40000153-22.36799622-18.00000382.8860016-.42200089 1.90699769-.90299988 2.60700226-1.22399903 1.99399567-.90200042 4.00499726-1.76699829 6.01599884-2.63299942 4.10800171-1.76300048 8.35899353-3.5909996 12.35899353-5.70000076.82200623-.3920002 3.35501099-1.45899963 5.1130066-2.19199943-.01200867 1.9109993-.0399933 3.98399925-.0940094 4.45800209-.41099549 3.59999847-.93998719 7.1609993-1.4459839 10.5-.2250061 1.48299789-.46501159 2.96599578-.7060089 4.44799804-.55000305 3.38700104-1.1150055 6.86899948-1.48100281 10.34300232z"/>
          </g>
          <g>
            <path fill="rgb(86,148,208)" fill-rule="evenodd" d="M315.456 69.051l.436.2c-.723-5.642-.8-11.417-1.108-17.159-.189-3.542-.393-7.087-.712-10.621-.087-.964-1.22-6.428-1.22-6.428s-5.036 3.413-6.221 4.313c-5.187 4.274-10.852 7.92-16.287 11.874-1.331.968-3.945 2.97-3.945 2.97s23.29 12.181 29.057 14.851z"/>
            <path fill="rgb(0,29,56)" fill-rule="evenodd" d="M315.34500122 70.42199707c.17111206.080513.35791016.12217712.54699707.12200165.27319336-.00016785.53929138-.08700562.76000977-.2480011.3804779-.27739716.57974243-.73994446.51998901-1.20700073-.5269928-4.11099816-.71099853-8.39499665-.8889923-12.5379982-.06500245-1.50899887-.1300049-3.0189991-.21099854-4.52599907-.18099976-3.39700031-.3860016-7.02000046-.71499634-10.66800022-.0920105-1.00899983-1.12400818-6.00699997-1.2420044-6.57400036-.08769226-.42142677-.37936401-.77157784-.77799987-.93399906-.39941407-.16199398-.85331727-.11397744-1.21000672.1279993-.20700073.14000035-5.07899475 3.4420004-6.31700134 4.3840003-3.45599365 2.84399987-7.20498657 5.46499968-10.82899475 7.99999953-1.80699158 1.26300049-3.61299134 2.52100086-5.3939972 3.8210001-1.34100341.97500038-3.62246704 2.72186088-3.97200012 2.98999977-.34953308.26813888-.53807068.69610977-.5 1.13500023.03733826.4391365.29646302.82875633.68699646 1.03300094.95300293.4979992 23.38200379 12.22999954 29.11199951 14.88199997l.43099976.19999695zm-1.00099182-3.33199692c-6.17500305-3.01300049-20.5-10.45999908-25.54400635-13.09700012.78199768-.59199905 1.68400574-1.2709999 2.30200195-1.72299957 1.7689972-1.2859993 3.56199646-2.53999996 5.35499573-3.79400063 3.66600037-2.56299972 7.45600891-5.21399975 10.94999695-8.0909996.72599793-.55100012 2.99101257-2.10800028 4.56401062-3.18200016.37599182 1.87400007.76799011 3.90999985.81098938 4.38500023.32499695 3.60499954.52900696 7.1999998.70899963 10.57399845.08000184 1.5.14500428 3 .20899964 4.5.14401245 3.4280014.29901123 6.95199966.64401245 10.4280014z"/>
          </g>
          <path fill="rgb(0,29,56)" fill-rule="evenodd" d="M32.851 126.209s-15.9 0-31.652-1.113c-.342256-.02306054-.66123297-.18148882-.88641617-.44026185-.2251832-.25877303-.33802639-.59657808-.31358383-.93873815.02121604-.34295836.17911526-.66307405.4383273-.88863928.25921205-.22556524.5980718-.33772711.9406727-.31136072C127.487 131.461 258.399 85.783 351.573.34c.25223731-.23164507.58623344-.3534843.92837888-.3386655.34214544.0148188.66435654.16507929.89562112.4176655.23133528.2521892.35298187.5859658.33816556.9278662-.0148163.3419004-.16488116.66390235-.41716556.8951338C307.1 44.625 250.537 78.239 189.744 99.45c-50.44002937 17.60445543-103.46921047 26.64888607-156.893 26.759z"/>
        </g>
        <g>
          <g>
            <path fill="rgb(255,162,0)" fill-rule="evenodd" d="M349.96 426.495c-.309 2.11.568 6.266-1.274 7.856-1.712 1.48-4.451-.276-5.882-1.342-1.251-.929-2.021-2.388-3.5-3.013-3.086-1.3-6.108 1.246-9.235.829-.740784-.05318882-1.45223167-.31111023-2.055-.745-2.346-1.94 2.213-6.761 2.691-8.837.451-1.979-1.4-4.31-2.3-5.9-2.414-4.253 1.407-5.85 5.255-5.314 1.462.206 3.116.783 4.567.232 1.484-.563 3.091-2.283 4.416-3.226.84114044-.75589186 1.9272616-1.1821003 3.058-1.2 4.042.452 1.983 6.28 3.739 8.473 1.037 1.292 3.062 1.644 4.681 2.389.94163715.34861497 1.70893518 1.05271952 2.137 1.961 1.711 4.201-5.804 4.472-6.298 7.837z"/>
            <path fill="rgb(0,29,56)" fill-rule="evenodd" d="M342.03199768 434.04397583c2.16099548 1.61001587 3.82299805 2.16101074 5.08700562 2.16101074.88478088.0163269 1.74432373-.29534912 2.41299438-.875 1.74552918-1.50561523 1.69703674-4.28448486 1.65803528-6.51916504l-.00003052-.00183105c-.03323364-.70861817-.01652527-1.4187317.05000305-2.125.12399292-.84500122 1.41499329-1.57598877 2.66299439-2.28399658l.0019226-.00109864c1.9690094-1.11801147 4.94361878-2.80703735 3.55107117-6.22390747-.5526123-1.21105957-1.55403137-2.16012573-2.79299927-2.64700317-.52398681-.24099732-1.06799316-.43798828-1.59399414-.6289978-.9736023-.24285889-1.87261962-.72122193-2.61799621-1.39300537-.4340973-.91824341-.64646912-1.92562867-.62001038-2.940979-.17599487-2.23501588-.44198608-5.60800172-3.98098755-6.00802613-1.44985962-.03137207-2.85920715.47964477-3.9520111 1.43301391-.49398804.3500061-.98999024.7709961-1.51399231 1.2170105-.77728272.7397461-1.6569519 1.36380005-2.61199952 1.85299683-.92869567.20800781-1.89544677.17181396-2.80599975-.10501099-.38200379-.07598877-.7579956-.14898681-1.125-.19998169-2.40200806-.33602905-5.46099854.0289917-6.83599854 2.05197144-.66000366.97601318-1.14801025 2.66000366.2789917 5.17602539.18000794.315979.3939972.66098022.62200928 1.02600098.75498962 1.20797729 1.78799438 2.86297607 1.54199219 3.9449768-.31790161.79699707-.72018433 1.5576477-1.19999695 2.26901245l-.00234985.00390625c-1.48179627 2.45663452-3.50935364 5.81814576-1.05865479 7.84609986.7872467.59307861 1.7266388.95059204 2.70899963 1.03100586 1.5509491.11895752 3.10949707-.0920105 4.57299805-.61901856l.0201416-.00570679c1.60746765-.45559692 2.99536133-.8489685 4.30986023-.294281.66871643.3541565 1.25675965.84310913 1.727005 1.43600464.45658875.52020263.96078492.99658203 1.50599671 1.42297363zm-2.23200989-5.23797607c-.75975036-.31845093-1.5762329-.47937012-2.3999939-.47302247v-.00299072c-1.24005126.05300904-2.4665985.27920532-3.64399719.67199707-1.12680053.41390991-2.32484436.59884644-3.52400207.54400635-.49958801-.02523804-.9831543-.18447876-1.3999939-.46099853-.73973083-.61175538.73886109-3.0621338 1.62298584-4.52731324l.00100708-.00167846c.64082337-.93252564 1.14587403-1.9513855 1.5-3.02600098.48300171-2.12200928-.82099914-4.21099854-1.8690033-5.88900757-.20700073-.33001709-.4019928-.64199829-.56599426-.92999267-.42599487-.7539978-.83999633-1.7880249-.38900756-2.45401001.56700134-.8340149 2.3540039-1.22299195 4.3420105-.9460144.32099914.04501342.65299987.11102294.98999023.17602538 1.37754822.39801026 2.84033203.39282227 4.2150116-.01501465 1.23983764-.578125 2.37683105-1.3550415 3.3659973-2.29998779.48100282-.41000366.93699647-.79501343 1.33699037-1.08102417.59780883-.55221558 1.35995483-.8935852 2.17001342-.97198486 1.22898865.13598633 1.48999024.98599243 1.69999695 3.64401245.12399292 1.57098388.25099182 3.19598388 1.17900086 4.35397339 1.02523803 1.06533813 2.32348632 1.82846069 3.75299072 2.20602417.4980011.18099975.96800232.34597778 1.39300537.54598999.64263916.21380615 1.17510986.67227173 1.48199463 1.27600097.44700622 1.09698487.03700256 1.60501099-2.43598938 3.00500489-1.70401001.96697998-3.63700867 2.06298828-3.94300842 4.15499878-.09161377.84506225-.11735535 1.69595336-.07699585 2.5449829l.00009155.00573731c.02897644 1.69503784.06497192 3.80007935-.76409912 4.51626587-.70199585.61001587-2.2579956.1000061-4.2689972-1.3999939-.4181366-.33529663-.80566406-.70709228-1.15800476-1.11099243-.71080017-.8668518-1.60220336-1.56817627-2.6119995-2.05499267z"/>
          </g>
          <g>
            <path fill="rgb(255,162,0)" fill-rule="evenodd" d="M376.214 99.55c1.766 1.2 5.89 2.215 6.52 4.564.589 2.186-2.184 3.889-3.767 4.714-1.38.722-3.029.78-4.237 1.842-2.512 2.213-1.534 6.042-3.27 8.676-.36987054.64410072-.91177229 1.17249821-1.565 1.526-2.767 1.268-5.125-4.934-6.786-6.266-1.586-1.268-4.49-.614-6.309-.5-4.88.323-4.655-3.812-2.5-7.044.822-1.227 2.061-2.465 2.2-4.01.138-1.582-.711-3.777-.984-5.38-.31600515-1.08641668-.22790742-2.25051445.248-3.277 2.165-3.443 6.517.946 9.256.319 1.614-.372 2.812-2.042 4.187-3.176.72493701-.69693247 1.69444633-1.0815045 2.7-1.071 4.517.29 1.489 7.173 4.307 9.083z"/>
            <path fill="rgb(0,29,56)" fill-rule="evenodd" d="M363.82299805 117.67599487c1.32000732 2.02300263 3.04901123 4.67500305 5.28799438 4.67500305.45861817-.0039978.91082764-.10809326 1.3250122-.3050003.87557984-.45198822 1.60562135-1.1421585 2.10598756-1.99099731.78009033-1.34513093 1.2677002-2.83965302 1.43099975-4.3860016.28900147-1.65499877.53900147-3.08399963 1.61401368-4.02999877.60940551-.44850922 1.30551147-.76522827 2.04400634-.9300003.66671753-.18533326 1.31481934-.43205262 1.93600464-.73699952 4.41098023-2.29299927 4.8369751-4.63700104 4.41799927-6.1930008-.59701538-2.22900008-3.1210022-3.3920021-5.1499939-4.32900237-.65274048-.27840042-1.28497314-.60253906-1.8920288-.9699974-.7079773-.47800065-.80599976-1.95900346-.8999939-3.39100266-.1499939-2.25899887-.375-5.67399979-4.06100464-5.90699768-1.33151245-.02969742-2.62243652.45941925-3.59997559 1.36399841-.44500732.36199951-.86001587.7709999-1.26000976 1.16200256-.64221192.77085114-1.46395874 1.37213517-2.39300537 1.75099945-1.01574707-.00914001-2.01519776-.25643158-2.91799927-.72200012l-.00161743-.0006256c-2.08898926-.81300355-5.24586487-2.04160691-7.13937378.97162627-.65846253 1.29239273-.81143189 2.78385163-.42900086 4.18299866.10099793.59199905.26399231 1.22599793.43699646 1.8919983.32861328 1.02190017.50813294 2.08585357.5329895 3.15900039-.21687316.92763138-.6706543 1.78315353-1.31698608 2.4829979-.2330017.31000518-.4610138.61600494-.66700745.9240036-1.34599304 2.01799774-2.34899902 4.9300003-1.12399292 7.04899597.58898926 1.01800537 1.8959961 2.19300079 4.7809906 2 .3630066-.022995.76600648-.06700135 1.19299317-.11299897 1.41601562-.15399933 3.3580017-.36499786 4.22399902.32700348.57940674.63183594 1.08963013 1.32376099 1.52200318 2.06399536zm.0920105-4.07899475c-1.0670166-.7609787-2.36288453-1.1326828-3.67102051-1.0530014-.81921387.01421356-1.63705445.07263946-2.44999695.17499542-.38800049.03800201-.75299072.07800293-1.08299255.1000061-.8650055.05699921-1.97700501-.01600647-2.3769989-.71600341-.50500489-.87400055-.07901002-2.65100098 1.0349884-4.32099915.18000793-.2689972.38301086-.53900146.5880127-.81299972.95675658-1.06734086 1.58886718-2.38568497 1.82199096-3.79999924.01916504-1.36837769-.18553162-2.73068237-.6060028-4.03300095-.15798951-.6100006-.30799867-1.18799972-.39099122-1.67300033-.23638916-.77831269-.21250915-1.61248017.06799316-2.37599945.65699769-1.04199982 1.53700257-.90999985 4.02101136.05799865l.00933838.00363541c1.4640808.5698738 2.9767456 1.1586647 4.42266845.82836533 1.4050293-.4592209 2.65667725-1.29607773 3.61798096-2.41899872.38000488-.36999893.7380066-.7179985 1.1000061-1.01800156.47280884-.48427963 1.11636353-.76425552 1.79299927-.77999878 1.18099976.07400131 1.45800781.6629982 1.6459961 3.5.12600708 1.95800018.2749939 4.17200089 2.02600097 5.3579979.72161865.44982528 1.47686768.84332275 2.25900269 1.17700195 1.53799438.71099853 3.45401 1.59500122 3.73800659 2.65499878.2420044.89700317-.89401245 2.07500076-3.11901856 3.23400116-.48236084.2306137-.98434448.41768646-1.5.5589981-1.08956909.26287842-2.10864257.76046754-2.98599243 1.45800019-1.75198364 1.5470047-2.12600708 3.66000366-2.45199585 5.52500152-.1177063 1.1943512-.47225952 2.35325623-1.04299926 3.40899659-.24069214.43972015-.59457398.8070755-1.0249939 1.06400299-.87200928.39800262-2.43701172-2-3.37200928-3.43299866-.5597229-.98373413-1.2571106-1.8824768-2.07098389-2.66899872z"/>
          </g>
          <g>
            <path fill="rgb(255,162,0)" fill-rule="evenodd" d="M642.634 189.764c1.071 1.139 3.856 2.528 3.931 4.309.07 1.657-2.186 2.431-3.45 2.767-1.1.295-2.291.073-3.325.639-2.151 1.18-2.066 4.074-3.729 5.68-.3680868.40065983-.83980609.69172066-1.363.841-2.183.463-2.875-4.35-3.85-5.569-.931-1.161-3.112-1.159-4.432-1.366-3.541-.551-2.719-3.472-.658-5.438.784-.745 1.868-1.432 2.213-2.516.352-1.109.1-2.815.158-4.005-.05133968-.8259575.19722948-1.64268473.7-2.3 2.1-2.115 4.509 1.721 6.568 1.712 1.214-.008 2.338-1.01 3.5-1.6.62884718-.3831422 1.38331392-.50313833 2.1-.334 3.196.925-.073 5.362 1.637 7.18z"/>
            <path fill="rgb(0,29,56)" fill-rule="evenodd" d="M630.54498291 200.8630066c.6749878 1.80899047 1.66796875 4.46699523 3.8170166 4.46699523.20477295.00280762.40924072-.01629639.60998535-.05700683.76251221-.19490052 1.45404053-.60237122 1.99395752-1.1749878.80444336-.87098694 1.41760254-1.90074158 1.80004883-3.02301025.2602539-.97917175.84069824-1.84306336 1.64898682-2.45399475.4654541-.19813538.96612549-.3001709 1.47198486-.30000305.52728272-.0268097 1.05090332-.10279847 1.56402588-.227005 3.74395752-.99699403 4.46295166-2.76799012 4.40698242-4.06799317-.07598877-1.85099793-1.76599121-3.14300537-3.125-4.18200684-.40679931-.29248047-.7927246-.61291504-1.1550293-.95899963-.30999755-.33198548-.14599609-1.4119873-.00994873-2.27999878.25799561-1.6519928.68896485-4.41699219-2.2000122-5.25898743-1.03100586-.25930786-2.12243653-.1080017-3.04400635.42199707-.37298584.19000244-.74298096.41600037-1.11297607.6439972-.53302002.40956115-1.15411377.68928527-1.81402588.81700134-.64837647-.1845398-1.25231934-.49928284-1.77502442-.92500306-1.36999512-.92100524-3.6619873-2.45899963-5.69995117-.40600585-.73675537.87875366-1.1203003 2.00013732-1.0760498 3.14601135-.02294922.43699646-.00799561.93699646.0079956 1.45399475.06774902.7444458.0310669 1.4947052-.10894775 2.2290039-.28930664.56147767-.71331787 1.04249573-1.2340088 1.3999939-.2210083.19000244-.43902587.37600708-.63903808.56800842-1.73797607 1.65699768-2.51397705 3.65499878-2.02496338 5.21299744.2869873.91499329 1.10498047 2.08000183 3.375 2.43399048.26599121.04200745.5670166.07600403.88500977.11199951.9779663.11000061 2.31896973.26000977 2.73797607.78401184.2845459.51812744.51898194 1.06225586.70001221 1.625zm-.79699707-17.1499939c.12493896-.1521759.30926514-.24325562.50598145-.25v-.00100708c.35101318 0 .87701416.2749939 1.91900634.9869995 1.74188233 1.75439454 4.55645752 1.82580567 6.38500977.16200257.3079834-.18899536.61499023-.38000488.92401123-.53700256.33599853-.2345581.7524414-.3236084 1.15496826-.24699402.52905274.1539917.69500732.31298828.37200928 2.3829956l-.00201416.01315308c-.21966553 1.42074585-.4923706 3.18470764.68200683 4.43385315.45666504.4502716.94744873.86450195 1.46801758 1.23899841.83099365.63600159 2.08703613 1.59700012 2.11303711 2.24099732.01794434.39399719-.74603271 1-2.493042 1.46400451-.3616333.08135987-.72967528.13087464-1.09997558.147995-.87011718.01463318-1.72625732.22157287-2.50701904.6060028-1.34790039.86711121-2.33862305 2.19044495-2.79101562 3.72799683-.2611084.7900238-.6730957 1.52186585-1.21295166 2.15499878-.20104981.23277283-.45916749.40922547-.74902344.51199341-.46899414-.14698792-1.15899658-1.99398804-1.4539795-2.7829895-.2536621-.82844544-.62695312-1.61541748-1.10803222-2.33599854-1.0880127-1.3560028-3.03997803-1.5750122-4.46496582-1.73600769-.27600098-.03399658-.54101563-.06300354-.77600098-.09999084-.34899902-.05599976-1.17504883-.227005-1.309021-.65600586-.15100097-.4810028.26898194-1.54699707 1.34197999-2.57099915.16802978-.16000366.35198974-.31600952.5380249-.47599792.90447998-.65205383 1.60394287-1.54890442 2.01599121-2.58500672.24487305-1.01393127.32189941-2.06114196.22802734-3.09999084-.00213623-.09320068-.0046997-.18577576-.00726318-.27729797-.00946045-.33862305-.01849365-.6630249-.00274658-.95271302-.02679444-.50894165.08703613-1.01542663.32897949-1.46398925z"/>
          </g>
          <g>
            <path fill="rgb(255,162,0)" fill-rule="evenodd" d="M534.619 422.038c-.646 1.424-.871 4.529-2.49 5.275-1.506.7-3.079-1.1-3.871-2.137-.693-.908-.939-2.092-1.856-2.832-1.91-1.541-4.554-.361-6.672-1.288-.5124835-.18703286-.9626714-.51324593-1.3-.942-1.259-1.842 2.929-4.313 3.686-5.678.719-1.3-.113-3.319-.423-4.618-.838-3.485 2.176-3.835 4.778-2.678.988.442 2.036 1.183 3.169 1.09 1.16-.1 2.64-.982 3.765-1.377.7461561-.36365628 1.59889408-.44431108 2.4-.227 2.755 1.137.124 4.825.916 6.725.469 1.12 1.823 1.779 2.813 2.631.59237325.43675435.98982993 1.08841098 1.107 1.815.355 3.304-4.992 1.969-6.022 4.241z"/>
            <path fill="rgb(0,29,56)" fill-rule="evenodd" d="M527.22601318 425.95697021c1.65197754 2.16601563 3.0829773 2.80603028 4.1999817 2.80603028.42843627-.00125122.85150146-.09542847 1.24002075-.27600098 1.67700195-.77902222 2.2330017-2.82800293 2.67700195-4.4790039.1161499-.4881897.26617431-.96768189.4489746-1.43499756.184021-.41601563 1.24700928-.67700196 2.10000611-.87701416 1.62814331-.39126587 4.34695435-1.0446167 4.02700806-4.03799439-.15145874-1.05169678-.70672608-2.0029602-1.54800415-2.65200805-.32000733-.27398682-.66799927-.53100586-1.01998902-.78601075-.5805664-.33654785-1.07492065-.80352783-1.44400024-1.36398315-.07766724-.67025757-.01672363-1.3493042.1789856-1.99499512.33099365-1.61599731.8829956-4.32699585-1.79299927-5.42700195-1.0932312-.34677124-2.27627564-.27548218-3.32000733.19998169-.41098022.1460266-.86697387.34899902-1.3369751.56100464-.66201782.34558105-1.3687439.59765625-2.1000061.74902343-.63000488-.05877685-1.23687744-.26721191-1.77001953-.6080017-.25897217-.13201905-.51498413-.26202393-.76898193-.375-2.1920166-.97601319-4.33700562-.93301392-5.5920105.11099243-.73699951.61300659-1.50299072 1.81298828-.96697998 4.04598999.06399536.2619934.1459961.55499267.23297119.8619995l.0019226.00668336c.25500489.89404297.63830567 2.23779297.315094 2.82333374-.36972046.46218872-.78329468.8875122-1.23501587 1.26998901-1.54199218 1.4289856-3.87298584 3.59100342-2.38897705 5.7630005.47085571.62994384 1.11056519 1.11361693 1.84500122 1.394989 1.1118164.4151001 2.29846192.59191895 3.48300171.51901246 1.00543213-.1331482 2.02648926.07458496 2.8999939.58999633.35797119.35736084.64144897.78225708.83398437 1.25.2234192.477417.49127198.93276978.80001831 1.35998535zm-4.16500854-17.90496826c.26229858-.16815185.57232666-.24609375.8829956-.22198486.693573.02474976 1.3748169.1907959 2.00198365.4880066.21200561.0949707.42800903.20498656.64501953.31698608.94528198.59286499 2.04232788.89855957 3.1579895.88000488 1.02990723-.16021729 2.0269165-.4868164 2.95199585-.9670105.39901733-.17800903.78500366-.35598755 1.13000488-.47799683.46072388-.21755981.972229-.30471801 1.4790039-.25198364.55700684.22998047.65100099.56900025.25100709 2.52398682-.36065674 1.13922119-.37182617 2.36038208-.03201294 3.50601196.52636719 1.019104 1.3267212 1.87106323 2.31100464 2.45999146.29199219.21200561.58499145.42300415.84799194.6499939.5460205.4750061.64501953.7579956.66799927.9750061.059021.55099487-.0249939.76098632-2.06298828 1.25100708-1.40100098.33599853-3.14300537.75497436-3.85299683 2.32098388-.2437439.59381104-.44100952 1.20565796-.58999634 1.8300171-.27099609 1.00497436-.68200683 2.53198241-1.26501464 2.79998779-.35800171.16000366-1.20700074-.30999756-2.2999878-1.74899292-.21328735-.30422974-.39962768-.62643433-.55700683-.9630127-.34484864-.79980469-.8617859-1.51373291-1.51400757-2.09100342-1.31515503-.91607666-2.91583252-1.32885742-4.50997925-1.16299438-.82977295.06210327-1.66363525-.03982544-2.45401001-.2999878-.29211426-.0979309-.55371094-.27026367-.75900269-.5-.04284668-.48416137 1.39193726-1.81671142 2.0128479-2.3934021l.00714112-.0066223c.67022705-.54937745 1.2564392-1.19384767 1.74002075-1.9129944.83782959-1.51705932.3027649-3.39920043-.08895874-4.7772522l-.00305176-.01074218c-.07699585-.26898193-.15100097-.52398682-.20599365-.75598144-.08200073-.34301758-.2380066-1.17300415.1080017-1.46002198z"/>
          </g>
          <path fill="rgb(0,29,56)" fill-rule="evenodd" d="M506.589 385.486c-3e-8 1.2476113-1.0113888 2.25900003-2.25900005 2.259-1.24761125-3e-8-2.25899998-1.0113888-2.25899995-2.25900005 3e-8-1.24761125 1.0113888-2.25899998 2.25900005-2.25899995.599124 0 1.17370949.2380011 1.59735417.66164578S506.589 384.88687595 506.589 385.486z"/>
          <ellipse cx="291.728" cy="111.717" fill="rgb(0,29,56)" rx="2.259" ry="2.259"/>
          <ellipse cx="305.781" cy="452.826" fill="rgb(0,29,56)" rx="2.259" ry="2.259"/>
          <ellipse cx="671.069" cy="165.149" fill="rgb(0,29,56)" rx="2.259" ry="2.259"/>
          <ellipse cx="194.848" cy="440.885" fill="rgb(0,29,56)" rx="2.259" ry="2.259"/>
          <ellipse cx="133.274" cy="331.808" fill="rgb(0,29,56)" rx="2.259" ry="2.259"/>
          <ellipse cx="612.44" cy="90.465" fill="rgb(0,29,56)" rx="2.259" ry="2.259"/>
          <ellipse cx="373.954" cy="225.312" fill="rgb(0,29,56)" rx="2.259" ry="2.259"/>
          <ellipse cx="637.535" cy="448.308" fill="rgb(0,29,56)" rx="2.259" ry="2.259"/>
          <g>
            <g>
              <path fill="rgb(255,162,0)" fill-rule="evenodd" d="M107.511 248.982c-.46442747 8.52966681 4.99114867 16.26133102 13.183 18.683 9.617 2.959 21.349-2.117 25.053-11.64 3.6823492-9.43964685-.46062411-20.12810992-9.543-24.62-12.969-6.175-27.754 4.667-28.693 17.577z"/>
              <path fill="rgb(0,29,56)" fill-rule="evenodd" d="M120.31500006 268.89900208c2.00040436.6118927 4.08111.92097473 6.17300033.91700744 8.7499981 0 17.32499886-5.25900268 20.46199608-13.32299805 3.96104431-10.06988525-.47335434-21.4937744-10.19099808-26.25401306-6.13792228-2.86235046-13.30183029-2.45832824-19.07899856 1.07600403-6.55699969 3.81399536-10.9449997 10.54800415-11.45699978 17.57299805-.47878933 9.12174988 5.34241533 17.38800049 14.092 20.01100159zm.75899887-2.4690094c-7.60461283-2.26161194-12.67567349-9.4313202-12.27499867-17.35499573v-.00099182c.66792775-6.52290345 4.46462012-12.31416321 10.17999935-15.52799988 5.04247666-3.09776306 11.30119706-3.46455383 16.67100144-.977005 8.50019455 4.17544555 12.37021255 14.17770385 8.894001 22.9869995-3.34900283 8.6090088-14.31300353 13.69200135-23.47000312 10.87399293z"/>
            </g>
            <path fill="rgb(0,29,56)" fill-rule="evenodd" d="M144.258 232.801c-.56779345-.00170274-1.06782219-.37418132-1.2319894-.91772655-.16416722-.54354524.04606964-1.13054565.5179894-1.44627345l13.956-9.324c.59287768-.3962643 1.3947357-.23687768 1.791.356.3962643.59287768.23687768 1.3947357-.356 1.791l-13.961 9.324c-.21183435.1418044-.46108402.21734515-.716.217z"/>
            <path fill="rgb(0,29,56)" fill-rule="evenodd" d="M153.155 249.608c-.69594555-.00950879-1.25907515-.56899546-1.27310042-1.26486464-.01402527-.69586918.5261032-1.27759207 1.22110042-1.31513536l20.748-.865c.70084884-.0125576 1.28366929.53642982 1.31299753 1.23677734.02932824.70034752-.50555258 1.29614058-1.20499753 1.34222266l-20.749.865-.055.001z"/>
            <path fill="rgb(0,29,56)" fill-rule="evenodd" d="M155.749 276.408c-.19959024-.00038177-.39638683-.04692844-.575-.136-3.99007242-1.99825652-7.22631094-5.23414423-9.225-9.224-.31811602-.63816503-.05866503-1.41338398.5795-1.7315.63816503-.31811602 1.41338398-.05866503 1.7315.5795 1.74771768 3.4886993 4.5773007 6.31828232 8.066 8.066.53581275.26756463.81725424.86850026.6797496 1.45140557-.13750465.5829053-.6578455.99470422-1.2567496.99459443z"/>
            <path fill="rgb(0,29,56)" fill-rule="evenodd" d="M116.844 291.969c-.43864983-.00046977-.84705042-.22363974-1.08436615-.59255049-.23731574-.36891074-.27107418-.83308338-.08963385-1.23244951l4.324-9.514c.30162232-.63781946 1.05942218-.91536155 1.70163982-.62322084.64221765.2921407.93095516 1.04574596.64836018 1.69222084l-4.322 9.51c-.2093433.46268885-.67015594.75998733-1.178.76z"/>
            <path fill="rgb(0,29,56)" fill-rule="evenodd" d="M83.131 272.95c-.52832845-.00008308-1.00346019-.3215889-1.2-.812-.26403084-.66218285.0581692-1.41308794.72-1.678l12.967-5.187c.66217859-.26420857 1.41326803.05743128 1.679.719.26409829.66245643-.05803894 1.41366253-.72 1.679l-12.967 5.186c-.15216177.0616452-.31482545.09322709-.479.093z"/>
            <path fill="rgb(0,29,56)" fill-rule="evenodd" d="M98.688 239.716c-.045 0-.091 0-.136-.007l-15.572-1.63c-.70872298-.07453013-1.22301197-.70922272-1.149-1.418.07868662-.7065863.7103924-1.2189006 1.418-1.15l15.572 1.63c.34046268.03553672.6528411.20493656.86834746.47089653.21550635.26595997.316468.60667.28065254.94710347-.0681003.65700411-.62147618 1.15642369-1.282 1.157z"/>
            <path fill="rgb(0,29,56)" fill-rule="evenodd" d="M116.844 217.621c-.67719068-.0004497-1.23875428-.52445928-1.286-1.2l-.865-12.1c-.0508102-.71134276.48465724-1.3291898 1.196-1.38.71134276-.0508102 1.3291898.48465724 1.38 1.196l.864 12.1c.02444256.34216007-.08840063.67996512-.31358383.93873815-.2251832.25877303-.54416018.41720131-.88641617.44026185-.026.004-.057.005-.089.005z"/>
            <path fill="rgb(0,29,56)" fill-rule="evenodd" d="M115.684 247.885c-.00040451-.732572.44057491-1.39323515 1.11726711-1.67385865.6766922-.2806235 1.45579956-.12592896 1.9739493.39193467.51814973.51786362.67327458 1.29688541.39302488 1.9737325-.2802497.6768471-.94066919 1.11819137-1.67324129 1.11819148-.99979729 1.5e-7-1.81044793-.81020286-1.811-1.81z"/>
            <ellipse cx="135.334" cy="245.642" fill="rgb(0,29,56)" rx="1.811" ry="1.811"/>
            <path fill="rgb(0,29,56)" fill-rule="evenodd" d="M126.93 251.65c-1.69998362-.00414298-3.28990732-.84151525-4.255-2.241-.26759606-.38217235-.3081781-.87898898-.10615036-1.29952214.20202775-.42053317.6152298-.69934802 1.08081171-.72929538.4655819-.02994736.91109922.19363257 1.16533865.58481752.55056012.8156017 1.52692818 1.23425498 2.49729236 1.07080483.97036417-.16345016 1.75570994-.87885018 2.00870764-1.82980483.1187908-.44568883.4663302-.79414815.91170345-.9141167.44537325-.11996856.92091756.00677972 1.2475.3325.32658245.32572027.45458737.80092787.33579655 1.2466167-.53119279 1.91800562-2.11580133 3.36106875-4.075 3.711-.26793048.04550851-.53923226.06825638-.811.068z"/>
          </g>
          <g>
            <g>
              <path fill="rgb(255,255,255)" fill-rule="evenodd" d="M595.467 389.892c-4.97457422 4.13959702-5.76758816 11.47940124-1.792 16.586 4.282 5.066 11.8 5.5 18.435 5.534l34.623.2c6.033.034 13.088 1.309 18.834-1.011 10.583-4.272 4.277-16.136-5.278-10.53 5.136-8.882 5.206-23.577-6.992-25.966-8.313-1.629-16.724 4.353-17.055 12.969.248-6.473-.154-13.178-5.454-17.691-6.009-5.115-16.04-4.508-21.387 1.3-4.13 4.483-5.234 11.983-2.155 17.286-3.854-1.312-8.417-1.254-11.779 1.323z"/>
              <path fill="rgb(0,29,56)" fill-rule="evenodd" d="M651.37597656 413.67999268c1.80004883.1000061 3.61999512.2000122 5.42901612.2000122 3.1494751.1026001 6.28918457-.4032898 9.24700927-1.48999023 3.71398926-1.5 6.00299073-4.10501099 6.28198243-7.14901734.21923828-2.48590087-.97662354-4.8842163-3.09399415-6.20498657-1.8927002-1.15341186-4.1807251-1.4651184-6.31298828-.86001587 2.0880127-5.18099975 2.87402344-11.80899048.4169922-17.21600341-1.79162599-3.99899292-5.47448731-6.82876587-9.7999878-7.52999878-4.5588379-.88497925-9.27661133.27008056-12.91101074 3.16101074-1.30255127 1.02456665-2.43078614 2.2531128-3.34100342 3.63800049-.56799317-4.23501587-2.08898926-8.18701172-5.66796875-11.23501587-6.53204346-5.56298828-17.36102295-4.9079895-23.17404175 1.40002441-3.9473877 4.42706299-5.26608276 10.60839844-3.46899414 16.26098633-3.59109497-.72491455-7.32196045.07522583-10.2999878 2.2090149-5.5590515 4.58822631-6.44351196 12.77307128-1.99301147 18.44299316 4.60900879 5.45199585 12.4380188 5.95199585 19.41500855 5.99200439l34.62301635.19998169c1.48699952.00701904 3.02301026.0920105 4.64996338.18099976zm-55.12399292-22.7669983c1.76330567-1.28552246 3.90148926-1.95336914 6.08300782-1.8999939 1.53527832.00976563 3.0586853.27017213 4.51000976.7709961.50949097.17282105 1.07278442.01126099 1.41323853-.40533447.3404541-.41662598.38659668-1.00076294.11575317-1.46566773-2.7130127-4.68099975-1.84399414-11.60498046 1.98699951-15.76300048 5.26571655-5.35574341 13.72647095-5.86813355 19.6000061-1.1869812 4.52996827 3.85897827 5.27496338 9.44598388 5 16.65899658-.02758789.71243286.52752686 1.31237793 1.23999024 1.33999634.34484863.02313232.68395996-.09683228.9375-.33166504.25354004-.23483277.39916992-.56375122.40252686-.90933228.13916015-3.58035278 1.8609619-6.9140625 4.69995117-9.1000061 3.04333496-2.42230225 6.9944458-3.39099121 10.81304931-2.65100098 3.50915528.53372192 6.50378418 2.8203125 7.94299317 6.06500244 2.22399902 4.88800049 1.47497558 12.28799439-1.82000733 17.9880066-.29504394.50720214-.21057129 1.14962768.20550537 1.56335449.41607666.4137268 1.05895997.49453735 1.56451416.19665527 2.57495118-1.51000977 5.0949707-1.71401978 6.91394043-.56100464 1.29608155.80560303 2.03027344 2.27050781 1.90002442 3.7909851-.18597412 2.04602052-1.89099121 3.86599732-4.67700196 4.98999024-4.03198242 1.62402344-8.87896728 1.35800171-13.5670166 1.1000061-1.58599853-.08599853-3.22595214-.1779785-4.77697754-.18600463l-34.62200927-.1999817c-6.40100098-.03601073-13.55697632-.4620056-17.45700074-5.07601928-3.49993896-4.5430603-2.79840087-11.0371704 1.59100342-14.72799683z"/>
            </g>
            <path fill="rgb(0,29,56)" fill-rule="evenodd" d="M656.666 390.491c-.07071773.00002282-.141308-.0059991-.211-.018-.33793253-.05493513-.6401272-.24205361-.83992266-.52007886-.19979547-.27802524-.28077575-.62411357-.22507734-.96192114.19672849-1.19148987-.32758766-2.38692804-1.33738782-3.04923751-1.00980017-.66230948-2.3151578-.6669209-3.32961218-.01176249-.38763316.25008592-.87924023.274375-1.28963757.0637178-.41039734-.21065721-.67723584-.62425688-.70000001-1.085-.02276417-.46074314.2020044-.89863189.58963757-1.1487178 1.87239147-1.2082557 4.28100082-1.19937735 6.14443404.02264892 1.86343323 1.22202627 2.83149955 3.42754784 2.46956597 5.62635108-.1018003.6231018-.63963791 1.08096199-1.271 1.082z"/>
          </g>
          <g>
            <g>
              <path fill="rgb(255,255,255)" fill-rule="evenodd" d="M401.906 186.485l26.6-.458c4.788-.083 9.713-.193 14.124-2.056 3.03962089-1.15722112 5.53152455-3.41739452 6.979-6.33 1.3-2.943.9-6.738-1.46-8.926-2.441-2.266-6.325-2.322-9.392-1.022-3.067 1.3-5.506 3.707-7.864 6.059 5.2-5.5 4.864-15-.129-20.683-5.48-6.239-15.584-7.779-22.881-3.976-4.385 2.285-6.653 6.463-7.748 11.126-1.09 4.643.484 9.823-.822 14.128-1.25492443-1.8623384-2.85306525-3.46862434-4.709-4.733-1.948067-1.27178186-4.3864943-1.53635977-6.562-.712-5.393 2.387-4.815 11.14-.7 14.249 3.902 2.947 9.851 3.415 14.564 3.334z"/>
              <path fill="rgb(0,29,56)" fill-rule="evenodd" d="M386.56600952 184.18400574c3.20800781 2.41899109 7.92599487 3.59999084 14.4079895 3.59999084.31399536 0 .6329956-.00299072.9550171-.0039978l26.59997558-.45799255c4.63702392-.08100892 9.90002441-.17100525 14.6000061-2.15800477 3.34902954-1.27609252 6.0869751-3.77877807 7.6579895-7 1.64434815-3.49235534.940979-7.63919067-1.76300048-10.39399719-2.61898804-2.4300003-6.84698487-2.92700195-10.77398682-1.26399994-1.00769043.43386841-1.96972656.96681977-2.87200928 1.5909958 1.43707276-5.57083894.07693482-11.4925766-3.64697265-15.87799836-5.74700928-6.54399872-16.48602295-8.41899872-24.44702149-4.2689972-4.23199463 2.20500184-7.06100464 6.23500062-8.4079895 11.97599793-.45233154 2.39499665-.578125 4.84023285-.37399292 7.26900482.0793457 1.37299347.08703613 2.74919892.02297974 4.12299347-.9357605-1.09733581-2.03457642-2.04438781-3.2579956-2.80799865-2.30355836-1.5017624-5.1918335-1.794693-7.75-.78600312-2.65072633 1.25933838-4.41394044 3.85288239-4.60998536 6.78100586-.44100952 3.80599976 1.03097534 7.69500733 3.65899658 9.67900086zm1.99996948-14.10101319c.60006714-.25725555 1.24716187-.38667297 1.90002442-.37999725 1.22998047.01997376 2.43170166.37205505 3.47799682 1.01900482 1.7156067 1.17973328 3.19088746 2.67536926 4.34698487 4.40699768.29333496.38659668.77868652.57603455 1.25634765.49038697.47766114-.08566285.86694336-.4319458 1.00765992-.89639283.5993042-2.49620056.78042602-5.07452392.53601074-7.62999725-.1871338-2.1962967-.08392334-4.4076767.30697632-6.57699585 1.16799926-4.97699738 3.55300903-8.4339981 7.0880127-10.27700043 6.95401-3.6230011 16.31500243-2.00600433 21.31500243 3.68399811 4.71899414 5.37400055 4.79400635 14.0490036.16000367 18.9430008-.46176148.5154724-.43493653 1.30332946.06082153 1.78619384.49572754.48286438 1.2840271.48895264 1.7871704.0138092 2.25100709-2.24400329 4.57998658-4.56400298 7.45700074-5.7840042 2.44900513-1.03900147 5.87701416-1.2009964 8.01098633.77899932 1.88067627 2.01290131 2.33950806 4.97096253 1.15701294 7.45899964-1.3083191 2.61619568-3.55947876 4.63937378-6.2999878 5.66200256-4.24502563 1.79200745-9.02301025 1.875-13.64501953 1.95399475l-26.59997558.45800781c-6.3710022.10198975-10.87802124-.89599609-13.76300049-3.07299804-1.8630066-1.40600586-2.97601318-4.48500061-2.64901733-7.32200623.1145935-2.01049805 1.29174804-3.80764007 3.08898925-4.71600342z"/>
            </g>
            <path fill="rgb(0,29,56)" fill-rule="evenodd" d="M424.4 171.025c-.1358433.0005109-.27089013-.02075897-.4-.063-.32598658-.10512628-.59672819-.33567398-.75245336-.64074521-.15572517-.30507124-.18362736-.65957755-.07754664-.98525479 1.42187086-4.82507045-.51688043-10.00906964-4.756-12.717-.39513575-.23793888-.63331735-.66860589-.6248241-1.12977292.00849324-.46116704.262371-.88277186.666-1.106.40362899-.22322816.89568836-.21416597 1.2908241.02377292 5.29318692 3.30573611 7.7057891 9.75479153 5.882 15.723-.17182043.53314943-.66784782.89466776-1.228.895z"/>
          </g>
          <g>
            <g>
              <path fill="rgb(255,255,255)" fill-rule="evenodd" d="M128.022 398.83c-4.13115 2.59624-5.94921 7.68225-4.4 12.309 1.655 4.577 5.374 5.928 9.953 6 16.565.267 33.1.546 49.64-.663 7.634-.557 17.664-6.606 15.7-15.527-1.522-6.924-10.492-10.764-16.557-7.034-1.76172 1.25327-3.25727 2.84365-4.4 4.679 2.146-8.8 2.436-21.278-6.029-26.954-14.55844-9.76162-28.09896 8.64558-24.21545 22.35342-.90082-3.17726-4.7161-5.71929-8.03355-4.94442-5.1 1.192-4.176 7.381-2.536 11.018-1.5-3.322-6.694-2.697-9.122-1.237z"/>
              <path fill="rgb(0,29,56)" fill-rule="evenodd" d="M133.95899963 418.43899536c6.8860016.11099243 13.87000275.2250061 20.89300156.2250061 9.4679985 0 19.00600052-.20498657 28.45700455-.88900756 4.77399826-.35198975 11.18099594-2.83700562 14.73398971-7.6000061 2.09542847-2.68856812 2.87892151-6.17321778 2.13600159-9.5-1.0224762-3.7857361-3.72738647-6.89196778-7.33666992-8.42514039-3.6092682-1.5331726-7.7227974-1.32333374-11.15732956.56915283-.553154.342865-1.07337189.73620606-1.55400086 1.17501831.91700745-6.94400024.79100037-17.87802124-7.47799682-23.42202758-5.8809967-3.94198609-12.3919983-3.9249878-17.86499787.05102539-5.77318573 4.44265747-9.12088012 11.34176635-9.03800201 18.62597656-1.81884003-1.36172485-4.12923431-1.88964844-6.35900116-1.45297241-1.76979828.35351562-3.27709198 1.50463867-4.08399963 3.11898803-.77446747 1.80096436-.9691391 3.79837037-.55699921 5.71499634-2.51543427-.5639038-5.1506958-.17178344-7.39299965 1.1000061-4.6426258 2.92630006-6.68600273 8.64520264-4.9489994 13.85098267 1.63399887 4.51602173 5.27999878 6.7579956 11.1459999 6.85202027l.40499878.00598144zm-9.12299919-7.73599243c-1.3486309-4.04776001.24230004-8.49310303 3.85299874-10.76599121v-.00299072c1.6877594-.94207764 3.66747856-1.2168274 5.54800033-.77001954.76443863.1928711 1.401783.71896363 1.73600006 1.43301392.19095612.41958618.59127045.70547485 1.05014038.74987793.45886994.0444336.9065857-.15930176 1.17449952-.53448486.26791381-.3751831.31531906-.86477661.12435913-1.28439331-1.04199982-2.31799317-1.6629982-5.5249939-.69999695-7.47399903.46502685-.92321777 1.33955765-1.57189941 2.3579979-1.74902343 2.53400039-.58999634 5.7520027 1.4090271 6.5 4.0420227.20996093.66497803.91006087 1.04302979 1.58126449.85388184.6711998-.18914795 1.0708847-.87710572.90273285-1.55389405-2.05599976-7.25500488 1.17000198-16.45098877 7.34400177-20.93600463 4.6100006-3.35198975 9.91000366-3.34899903 14.91000366.00500488 9.35399628 6.27600097 6.56999206 21.16201782 5.49399567 25.57601929-.14227295.59851074.15756988 1.21429443.71648407 1.47140502.55892181.2571106 1.22161102.08407593 1.58351898-.41342163 1.04740143-1.6918335 2.41456604-3.16326904 4.02500152-4.33200073 2.72181702-1.45446777 5.95580674-1.5984497 8.7961235-.39163208 2.84031678 1.20684815 4.98152161 3.6347351 5.8238678 6.6036377.58952332 2.59439087-.02986144 5.3161621-1.68399047 7.3999939-2.6130066 3.5-7.89801026 6.2000122-12.8520012 6.56298827-16.3480072 1.19302369-33.00900268.9260254-49.12000274.66500855l-.40499878-.00698853c-4.79800033-.07598877-7.5000019-1.66400146-8.76000023-5.14801025z"/>
            </g>
            <path fill="rgb(0,29,56)" fill-rule="evenodd" d="M170.692 393.539c-.10443316-.00002692-.20849414-.0124471-.31-.037-.69225513-.17042582-1.11532343-.86971967-.945-1.562.82785088-3.56317058-.14870015-7.3056192-2.612-10.01-.32947024-.33451325-.45135272-.82152802-.31828577-1.27179787.13306696-.45026986.5001014-.79279643.95847937-.89447916.45837799-.10168273.93582267.05351166 1.2468064.40527703 3.07784222 3.33003941 4.29033245 7.97666812 3.232 12.386-.14157605.57676779-.65811175.98273514-1.252.984z"/>
          </g>
        </g>
      </g>
    </g>
    <g>
      <g>
        <path fill="rgb(255,162,0)" fill-rule="evenodd" d="M300.16573988 731.61662c-.309 2.11.568 6.266-1.274 7.856-1.712 1.48-4.451-.276-5.882-1.342-1.251-.929-2.021-2.388-3.5-3.013-3.086-1.3-6.108 1.246-9.235.829-.740784-.05318882-1.45223167-.31111023-2.055-.745-2.346-1.94 2.213-6.761 2.691-8.837.451-1.979-1.4-4.31-2.3-5.9-2.414-4.253 1.407-5.85 5.255-5.314 1.462.206 3.116.783 4.567.232 1.484-.563 3.091-2.283 4.416-3.226.84114044-.75589186 1.9272616-1.1821003 3.058-1.2 4.042.452 1.983 6.28 3.739 8.473 1.037 1.292 3.062 1.644 4.681 2.389.94163715.34861497 1.70893518 1.05271952 2.137 1.961 1.711 4.201-5.804 4.472-6.298 7.837z"/>
        <path fill="rgb(0,29,56)" fill-rule="evenodd" d="M292.23773193 739.16558838c2.16101075 1.60998535 3.82299805 2.16101074 5.08700562 2.16101074.88478088.01635742 1.74432373-.29534912 2.41299438-.875 1.74552918-1.5055542 1.69703675-4.28448486 1.65800476-6.5209961-.03323364-.70861816-.01652526-1.41870116.05000306-2.125.12399292-.84503173 1.41499328-1.57598876 2.66299438-2.28399657 1.9708252-1.11901856 4.9455719-2.80804444 3.55300903-6.2249756-.55262756-1.2111206-1.55404663-2.16015624-2.79301452-2.64703368-.52400208-.2409668-1.06799317-.43798828-1.59399414-.62896729-.9736023-.24291992-1.87260437-.72125244-2.61799622-1.39300537-.43409729-.91827392-.64646911-1.92565918-.61999512-2.94104004-.17601013-2.23498535-.4420166-5.60797119-3.9810028-6.0079956-1.44985962-.03137207-2.85920716.47967529-3.95201111 1.4329834-.49398804.35003662-.98999024.77105712-1.51399231 1.21704101-.77728272.7397461-1.6569519 1.36383057-2.61199951 1.85296631-.92869568.20800781-1.89544678.171875-2.80599976-.10498047-.38200378-.07598877-.75801086-.14898682-1.125-.2000122-2.40200806-.33599854-5.46099853.0289917-6.83599853 2.05200195-.66000367.97601318-1.14801026 2.66003418.2789917 5.17602539.18000793.315979.39399719.66101074.62200927 1.02600097.75498963 1.20800782 1.78799439 2.86297608 1.54199219 3.94500733-.31790161.79693603-.72018433 1.55761719-1.19999695 2.26898193l-.00230408.00378418c-1.481781 2.45666504-3.50942993 5.8182373-1.05870056 7.8461914.7872467.59313966 1.7266388.95062257 2.70899964 1.03100587 1.5509491.11895752 3.10949707-.09197998 4.57299804-.61895752l.02015686-.0057373c1.6074524-.45556641 2.99534607-.848938 4.30984497-.29431153.66871644.35418701 1.25675965.84313965 1.727005 1.43603516.45658875.52020263.96076966.99658203 1.50599671 1.42297363zm-2.23199463-5.23797608c-.75975036-.31848144-1.5762329-.47937011-2.3999939-.47302246v-.00299072c-1.24005126.05303955-2.4665985.2791748-3.64399718.67199707-1.12680054.4138794-2.32484436.59881592-3.52400208.54400635-.49958801-.02526856-.9831543-.18450928-1.3999939-.46099854-.73976135-.6118164.73899842-3.06237793 1.62399292-4.5289917.64082337-.93249511 1.14587403-1.95135498 1.5-3.02600097.48300171-2.12200928-.82099914-4.21099854-1.8690033-5.88903809-.20700072-.32995605-.40199279-.64196777-.56599425-.92999267-.42599488-.75396729-.83999634-1.78796387-.38900757-2.4539795.56700134-.83398437 2.3540039-1.22302246 4.3420105-.94598388.32099914.0449829.65299987.11096191.98999023.17596435 1.37754822.3980713 2.84033203.39282227 4.2150116-.01495361 1.23983764-.578125 2.37683105-1.3550415 3.36599731-2.30004883.4810028-.40997314.93699646-.7949829 1.33699036-1.08099365.59780884-.5522461 1.35995483-.89361572 2.17001342-.97198486 1.22898865.13598632 1.48999024.98602295 1.69999695 3.64398193.12399292 1.57104492.25099182 3.19604492 1.17900086 4.3540039 1.02523803 1.06536866 2.32348633 1.82843018 3.75299072 2.20599366.4980011.18103027.96800232.3460083 1.39300537.5460205.64263916.21380616 1.17510986.67224122 1.48199463 1.27600098.44700623 1.09698487.03700256 1.60498047-2.43598938 3.00500489-1.70401.96697998-3.63700867 2.06298828-3.94300842 4.15496826-.09161377.84509277-.11735535 1.69598388-.07699585 2.54504394l.00009155.0057373c.02897644 1.69500733.06497192 3.80004884-.76409912 4.51623536-.70199585.60998535-2.2579956.10003662-4.2689972-1.39996338-.41813659-.33532715-.80566406-.70715332-1.15800475-1.11102295-.71080017-.86688232-1.60220337-1.56817627-2.61199952-2.05499268z"/>
      </g>
      <g>
        <path fill="rgb(255,162,0)" fill-rule="evenodd" d="M484.82473988 727.15962c-.646 1.424-.871 4.529-2.49 5.275-1.506.7-3.079-1.1-3.871-2.137-.693-.908-.939-2.092-1.856-2.832-1.91-1.541-4.554-.361-6.672-1.288-.5124835-.18703286-.9626714-.51324593-1.3-.942-1.259-1.842 2.929-4.313 3.686-5.678.719-1.3-.113-3.319-.423-4.618-.838-3.485 2.176-3.835 4.778-2.678.988.442 2.036 1.183 3.169 1.09 1.16-.1 2.64-.982 3.765-1.377.7461561-.36365628 1.59889408-.44431108 2.4-.227 2.755 1.137.124 4.825.916 6.725.469 1.12 1.823 1.779 2.813 2.631.59237325.43675435.98982994 1.08841098 1.107 1.815.355 3.304-4.992 1.969-6.022 4.241z"/>
        <path fill="rgb(0,29,56)" fill-rule="evenodd" d="M477.4317627 731.07861328c1.65197753 2.16601563 3.08297729 2.80603027 4.19998168 2.80603027.42843628-.00128173.85150147-.09539794 1.24002076-.27600097 1.67700195-.7789917 2.2330017-2.82800293 2.67700195-4.4790039.1161499-.48815919.26617432-.96765138.4489746-1.43499757.184021-.41601562 1.24700929-.67700195 2.10000611-.87701416 1.62814331-.39123535 4.34695435-1.0446167 4.02700806-4.0380249-.15145874-1.05163574-.70672607-2.00292969-1.54800415-2.65197754-.32000733-.27398681-.66799927-.53100586-1.01998901-.78601074-.58056641-.33654785-1.07492066-.80352783-1.44400025-1.36401367-.07766724-.67022705-.01672363-1.34924317.1789856-1.99499512.33099365-1.6159668.8829956-4.32696533-1.79299927-5.42700195-1.0932312-.34674073-2.27627564-.27545166-3.32000732.2000122-.41098023.1459961-.86697388.34899903-1.3369751.56103516-.66201782.34552002-1.3687439.59759522-2.1000061.7489624-.63000489-.05871582-1.23687745-.26721191-1.77001954-.60797119-.25897217-.13201904-.51498413-.26202392-.76898193-.375-2.1920166-.97601318-4.33700562-.9329834-5.5920105.11096192-.73699951.6130371-1.50299072 1.81304931-.96697998 4.0460205.06399536.26202393.1459961.55499268.2329712.86199952l.00189208.00665283c.25500488.89398193.63833618 2.23779297.31512451 2.82336426-.36972046.46221923-.78329467.8875122-1.23501587 1.2699585-1.54199218 1.4290161-3.87298584 3.5910034-2.38897705 5.76300048.47085572.63000488 1.11056519 1.11364746 1.84500122 1.39501953 1.11181641.4151001 2.29846192.59191895 3.48300171.51898193 1.00543213-.13311767 2.02648926.07458497 2.8999939.59002686.3579712.35736084.64144897.78222656.83398437 1.25.2234192.477417.49127198.9328003.80001832 1.35998535zm-4.16500855-17.90496826c.26229858-.1682129.57232666-.24615479.8829956-.2220459.693573.02478027 1.3748169.19085693 2.00198365.48803711.21200561.0949707.42800903.20495606.64501953.31695557.94528198.5928955 2.04232788.8986206 3.1579895.88000488 1.02990723-.16021729 2.0269165-.4868164 2.95199585-.96697998.39901734-.17797852.78500366-.35601807 1.13000488-.4779663.46072388-.21759034.972229-.30474854 1.47900391-.25201417.55700684.22998047.65100098.56896973.25100708 2.52398682-.36065674 1.13922119-.37182617 2.36035156-.03201294 3.50598144.52636719 1.019104 1.3267212 1.87109375 2.31100464 2.46002197.29199219.2119751.58499145.42297364.84799194.65002442.54602051.47497558.64501953.7579956.66799927.97497558.059021.55096436-.0249939.76098633-2.06298828 1.25097657-1.40100098.33599853-3.14300537.75500488-3.85299683 2.32104492-.2437439.59381103-.44100952 1.20562744-.58999633 1.82995605-.2709961 1.00500489-.68200684 2.53204346-1.26501465 2.7999878-.35800171.16003418-1.20700074-.30999756-2.2999878-1.7489624-.21328735-.30426026-.39962768-.62646485-.55700683-.9630127-.34484863-.79980469-.8617859-1.51373291-1.51400757-2.09100342-1.31515503-.91607666-2.91583252-1.32885742-4.50997925-1.16296387-.82977295.06207276-1.66363525-.03985595-2.45401-.30004882-.29211427-.0979004-.55371095-.27020264-.7590027-.5-.04284667-.4841919 1.39248658-1.81719971 2.0131836-2.39367676l.00680542-.00628662c.67022705-.54937744 1.2564392-1.1939087 1.74002075-1.9130249.8378296-1.51708985.3027649-3.39923096-.08895874-4.77728272l-.00305176-.01068115c-.07699585-.26904297-.15100097-.52404785-.20599365-.75604248-.08200073-.34295655-.23800659-1.17297364.10800171-1.45996094z"/>
      </g>
      <g>
        <g>
          <path fill="rgb(255,255,255)" fill-rule="evenodd" d="M127.22773988 715.95162c-4.13115 2.59624-5.94921 7.68225-4.4 12.309 1.655 4.577 5.374 5.928 9.953 6 16.565.267 33.1.546 49.64-.663 7.634-.557 17.664-6.606 15.7-15.527-1.522-6.924-10.492-10.764-16.557-7.034-1.76172 1.25327-3.25727 2.84365-4.4 4.679 2.146-8.8 2.436-21.278-6.029-26.954-14.55844-9.76162-28.09896 8.64558-24.21545 22.35342-.90082-3.17726-4.7161-5.71929-8.03355-4.94442-5.1 1.192-4.176 7.381-2.536 11.018-1.5-3.322-6.694-2.697-9.122-1.237z"/>
          <path fill="rgb(0,29,56)" fill-rule="evenodd" d="M133.16474152 735.56066895c6.88599777.1109619 13.86999893.22497558 20.89299774.22497558 9.46800232 0 19.00600433-.20501709 28.45700073-.88897705 4.77400208-.35198975 11.18099976-2.83703613 14.73400116-7.60003662 2.09542084-2.6885376 2.8789215-6.17321777 2.13600159-9.5-1.02248383-3.7857666-3.7273941-6.89196777-7.33666993-8.42510986-3.60927581-1.53320313-7.7228012-1.32336426-11.15733337.56915283-.553154.34283447-1.07337189.73620605-1.55400085 1.1749878.91699981-6.94403077.79100036-17.87799073-7.47799683-23.42199708-5.88100433-3.9420166-12.3919983-3.9249878-17.86499786.05096436-5.77318955 4.44268798-9.12088013 11.34179687-9.03800202 18.6260376-1.81884002-1.36175538-4.12923431-1.88970948-6.35900116-1.45300294-1.76979828.35351563-3.27709198 1.50463868-4.08399963 3.11895752-.77446747 1.8010254-.9691391 3.79840088-.55700112 5.71502686-2.51543617-.5639038-5.1506958-.17181397-7.39299964 1.09997559-4.64262581 2.92633056-6.68600274 8.64526367-4.9489994 13.85101318 1.63399886 4.51599121 5.27999877 6.7579956 11.145998 6.85198974l.40500259.00604249zm-9.1230011-7.73608399c-1.3486309-4.0477295.24230003-8.49310303 3.85299873-10.76599121v-.00299072c1.6877594-.94207764 3.66747856-1.21685791 5.54800034-.77001953.76443672.19287109 1.40178108.7189331 1.73600197 1.4329834.19095611.4196167.59126663.70550537 1.05014038.74993896.45886993.0444336.90658569-.1593628 1.1744995-.5345459.26791001-.37512207.31531525-.8647461.12435914-1.2843628-1.04199982-2.31799316-1.66300202-5.5250244-.70000076-7.47399902.46503067-.92321777 1.33956146-1.57189941 2.35799789-1.74902343 2.53400421-.58996582 5.75200272 1.40899658 6.5 4.04199218.20996094.66497803.9100647 1.04309082 1.5812645.85394288.6711998-.18914795 1.07088852-.87713623.90273666-1.55389405-2.05599976-7.25500488 1.16999817-16.4510498 7.34400177-20.93603515 4.61000061-3.35198975 9.90999603-3.34899903 14.90999603.00500488 9.3540039 6.27600098 6.5699997 21.1619873 5.4940033 25.57598877-.14227295.59857178.15756988 1.21435547.71648407 1.47143555.55892181.25708007 1.22161102.08410644 1.58351898-.41339112 1.04740143-1.69189453 2.41456604-3.16333008 4.0249939-4.33203125 2.72182464-1.45446777 5.95581817-1.5984497 8.79613495-.39160156 2.84030914 1.20684814 4.9815216 3.63470459 5.8238678 6.60357666.58951568 2.59442139-.02986909 5.31622314-1.68399811 7.40002441-2.6130066 3.5-7.89800263 6.20001221-12.85200501 6.56298829-16.34799957 1.19299316-33.00899506.92602539-49.11999702.66503906l-.4050007-.00701905c-4.79800033-.07598876-7.5-1.66400146-8.75999831-5.14801025z"/>
        </g>
        <path fill="rgb(0,29,56)" fill-rule="evenodd" d="M169.89773988 710.66062c-.10443315-.00002692-.20849413-.0124471-.31-.037-.69225513-.17042582-1.11532343-.86971967-.945-1.562.82785088-3.56317058-.14870015-7.3056192-2.612-10.01-.32947024-.33451325-.45135271-.82152802-.31828576-1.27179787.13306695-.45026986.50010138-.79279643.95847937-.89447916.45837798-.10168273.93582267.05351166 1.2468064.40527703 3.07784222 3.33003941 4.29033245 7.97666812 3.232 12.386-.14157606.57676779-.65811175.98273514-1.252.984z"/>
      </g>
    </g>
  </g>
</svg>
