<svg xmlns="http://www.w3.org/2000/svg" width="119.574" height="119.574" viewBox="0 0 119.574 119.574">
  <g id="Group_2" data-name="Group 2" transform="translate(306 -301.426)">
    <path id="Path_6" data-name="Path 6" d="M59.787,0A59.787,59.787,0,1,1,0,59.787,59.787,59.787,0,0,1,59.787,0Z" transform="translate(-306 301.426)" fill="#fff"/>
    <path id="Path_5" data-name="Path 5" d="M55.2,0A55.2,55.2,0,1,1,0,55.2,55.2,55.2,0,0,1,55.2,0Z" transform="translate(-301 305.593)" fill="#c600ff"/>
    <g id="Icon_feather-edit" data-name="Icon feather-edit" transform="translate(-270.651 336.304)">
      <path id="Path_7" data-name="Path 7" d="M22.8,6H7.4A4.4,4.4,0,0,0,3,10.4v30.8a4.4,4.4,0,0,0,4.4,4.4h30.8a4.4,4.4,0,0,0,4.4-4.4V25.8" transform="translate(0 1.484)" fill="none" stroke="#fff" stroke-linecap="round" stroke-linejoin="round" stroke-width="3"/>
      <path id="Path_8" data-name="Path 8" d="M35.1,4.185a4.666,4.666,0,0,1,6.6,6.6l-20.9,20.9L12,33.88l2.2-8.8Z" transform="translate(4.198)" fill="none" stroke="#fff" stroke-linecap="round" stroke-linejoin="round" stroke-width="3"/>
    </g>
  </g>
</svg>
