<svg xmlns="http://www.w3.org/2000/svg" width="705.515" height="1005.288" viewBox="0 0 705.515 1005.288">
  <g id="Group_842" data-name="Group 842" transform="translate(19 -720)">
    <g id="Layer_2" data-name="Layer 2" transform="translate(-19.145 719.996)">
      <g id="Layer_5" data-name="Layer 5">
        <path id="Path_618" data-name="Path 618" d="M705.66,348.81c-6.43-4.52-25.68-20.15-17.44-56.07,3.06-13.3-5.92-18.55-13.84-23.19-10.8-6.34-20.14-11.8-8.07-35,15.09-29,9.29-55.15-15.14-68.31-18.93-10.19-38.48-29.51-54.31-53.09C591.06,99.82,586.53,87,583.44,77.6,476.18,51,292.05,89.54,235.58,108.73l-6.52-9.15c-4.7,26.63-28.89,45.15-44.08,62.27-18.41,20.75-27,43.13-17,67.72,4,9.76,7,18.41,3.68,25.55-2.8,6-10.25,11-22.79,15.07s-20.13,9.65-23.59,17.12c-4.88,10.52-.15,22.14,4,32.38,2.93,7.22,2,17.9-.17,23.32-8,20-15.41,27.05-12.42,41.56-.34-15.23,8.58-22.79,15.75-39.44,2.67-6.22,4.29-16.49-1.19-29.85-3.9-9.5-6.57-17.34-2.41-26.31,3-6.42,9.92-11.33,21.25-15,13.81-4.52,21.8-10,25.13-17.16a19.81,19.81,0,0,0,1.58-8.56c5.83,14.58,5.26,26.28-21.08,36.68-48.4,19.12-3.45,53.29-11.05,67.08C131.61,375.63,128,380.16,129.1,399.1c1.32,21.71,16.12,35.13,31.23,40.09.34-3.39-14.26-23.86.16-56.13,2.11,18.19,18,61.4,22.87,62.7,78.15,20.71,312.89,51.48,400,15.29,16.65-6.92,15.05-43.66,20-53.52,3.56-7.15,15.91,56.64,21.7,51,78.32-76,62.67-101.4,53.67-102.76-12.51-1.89-20.56-1.21-4.5-57.79,7.79-27.44-44.33-15.24-21.74-58.63,13.54-26,9-48.83-14.33-65.66-8.17-5.9-15.48-14.69-22.09-24.59a199.348,199.348,0,0,0,32.24,22.18C671,183.5,677,205.49,662.82,232.74,649,259.26,662,266.85,672.38,273c8,4.72,14.49,8.46,12,18.91C674.86,331.91,701.85,347.42,705.66,348.81ZM169.82,222.63c-6-20.09.41-38.17,16.49-56.29,9-10.2,22.75-18.36,33.67-28.82C204.52,172.47,171.4,195.56,169.82,222.63Z" fill="#752912"/>
        <path id="Path_620" data-name="Path 620" d="M419.1,974c1.68,6,36.4-.12,36.37-6.39-.34-81.31-.05-273-.51-293.31l-80.72,9S410.93,944.9,419.1,974Z" fill="#ffc19f"/>
        <path id="Path_621" data-name="Path 621" d="M406.23,965.36c.15,1.56,53.52,1.38,53.85-.5,2.78-15.7,6.34-51.85,7.55-58.8H402.81C404,922.56,405.27,955.32,406.23,965.36Z" fill="#ffc76e"/>
        <path id="Path_622" data-name="Path 622" d="M484,949c-.94-3.45-2.88-7.81-4.39-11.8-1.12-2.95-30.08-2.48-30.16,4.63a43,43,0,0,0,.21,4.89c-5,0-10.33,0-16-.22a272.671,272.671,0,0,1-31.15-2.69c-.51,11.25.48,30.73,0,43.23,0,0,129.17,24.18,149.52,5.45C557.76,987.19,525.33,963.73,484,949Z" fill="#e2511e"/>
        <path id="Path_623" data-name="Path 623" d="M402.62,979.18c0,2.78,0,5.46-.12,7.84,0,0,129.17,24.18,149.52,5.45.81-.75.85-1.86.22-3.25C516.6,997,434.73,984.58,402.62,979.18Z" fill="#892910"/>
        <path id="Path_624" data-name="Path 624" d="M493,952.61a1.81,1.81,0,0,0,.78-3.53c-7.51-1.63-16.24,1.85-21.26,8.5a1.8,1.8,0,1,0,2.88,2.17C479.62,954.19,486.85,951.23,493,952.61Zm9.93,4.57a1.75,1.75,0,0,0,2-1.58,1.79,1.79,0,0,0-1.59-2,25.3,25.3,0,0,0-21.43,8.08,1.81,1.81,0,0,0,.07,2.56,1.83,1.83,0,0,0,1.18.49,1.78,1.78,0,0,0,1.38-.57A21.5,21.5,0,0,1,503,957.18Zm10.91,1.45c-7.13-1.24-16.3,2-22.33,7.94a1.81,1.81,0,0,0,1.19,3.1,1.84,1.84,0,0,0,1.33-.52c5.26-5.13,13.18-8.08,19.19-7a1.78,1.78,0,0,0,2.09-1.48,1.8,1.8,0,0,0-1.45-2.04Z" fill="#d3dae5"/>
        <path id="Path_625" data-name="Path 625" d="M358.72,979.27c-.69,6.18-35.94,5.74-36.92-.45-12.75-80.3-43.88-269.42-46.7-289.57l81.13-4.09S362.1,949.2,358.72,979.27Z" fill="#ffc19f"/>
        <path id="Path_626" data-name="Path 626" d="M265.86,594.88s-41,107.12-58.48,139.94c52.1,46.84,233.12,72.22,314.75,6.93-4.14-18.16-47.21-93.35-53.42-122.17Z" fill="#2a535e"/>
        <path id="Path_627" data-name="Path 627" d="M490.14,672.17c-26.1,13.16-66,34.14-125.93,30.93-72.31-3.87-109.83-26.19-126.61-36.79,14.27-32.57,28.26-71.43,28.26-71.43L465,619.3C469.08,630.12,482.18,655.56,490.14,672.17Z" opacity="0.23"/>
        <path id="Path_628" data-name="Path 628" d="M140.92,327.35c-7.38,10.21-15.66,12.8-24,22.26,51.3,49.52,91.33,80.66,146.14,102.26,36.55,5.37,68.33-6.35,78.18-29C258.33,402.13,197.65,370.94,140.92,327.35Z" fill="#ffc19f"/>
        <path id="Path_629" data-name="Path 629" d="M509.48,625c-3.25-2.25-10-11.62-20.35-25.13,36.19-18.6,38.26-47.24,33.54-57.94-11.54-26.12-49.89-52-85.34-77.58,9.56-4.75,40.32-8.41,60.43-3.58,37.91,9.1,73.47,52.11,71.65,82.89C567.49,576.24,550.63,606.62,509.48,625Z" fill="#ffc19f"/>
        <path id="Path_630" data-name="Path 630" d="M571.56,496.51c-12.44,22.59-44.29,47.09-65.25,50.68-11.2-11.92-74.72-55.9-19.58-112.32C521,445.1,571.56,496.51,571.56,496.51Z" fill="#28afc6"/>
        <path id="Path_631" data-name="Path 631" d="M493.8,651.25c-25.27,8.09-88.3,32.12-151.86,20-57.78-11-86.79-21.06-99.79-34.53,24.6-100,57.31-190.75,81.3-220.53,52.87-3.26,130.09,5.8,165.72,19.49C445.75,542.12,493.8,651.25,493.8,651.25Z" fill="#28afc6"/>
        <path id="Path_632" data-name="Path 632" d="M439.84,423c-26-4.38-61.73-7.22-90.47-7.16-.6,13.84,7.15,44.84,39.24,48.06C425.37,467.55,437.41,442.73,439.84,423Z" fill="#e0956c"/>
        <path id="Path_633" data-name="Path 633" d="M437.18,385.56l-4,49.11c-.87,10.56-18.27,17.75-38.88,16.05s-36.59-11.62-35.73-22.18l4-49.11Z" fill="#e0956c"/>
        <path id="Path_634" data-name="Path 634" d="M367.17,964.75c-.06,1.57-53.36,4.34-53.79,2.48-3.64-15.52-9.19-51.18-10.78-58.05l64.69-4.07C367,921.65,367.57,954.67,367.17,964.75Z" fill="#ffc76e"/>
        <path id="Path_635" data-name="Path 635" d="M288.64,952.69c.75-3.49,2.45-8,3.74-12,.95-3,29.89-4.14,30.36,3a43,43,0,0,1,.07,4.89c4.95-.23,10.31-.59,16-1.11a274.23,274.23,0,0,0,31-4.4c1.13,11.2,1.22,30.7,2.37,43.16,0,0-127.63,31.28-149,13.7C217.08,994.92,248.16,969.71,288.64,952.69Z" fill="#e2511e"/>
        <path id="Path_636" data-name="Path 636" d="M371.54,978.35c.16,2.78.33,5.45.55,7.82,0,0-127.63,31.28-149,13.7-.85-.69-.95-1.8-.4-3.23C258.71,1002.4,339.78,985.52,371.54,978.35Z" fill="#892910"/>
        <path id="Path_637" data-name="Path 637" d="M297.77,963a1.84,1.84,0,0,0,1.55.63,1.81,1.81,0,0,0,1.21-3c-5.37-6.36-14.29-9.34-21.69-7.3a1.81,1.81,0,0,0,1,3.48C285.89,955.1,293.28,957.65,297.77,963Zm-8.87,4.91a1.81,1.81,0,0,0,2.48-2.63,25.34,25.34,0,0,0-21.85-6.89,1.81,1.81,0,0,0-1.47,2.09,1.76,1.76,0,0,0,2.08,1.47,21.49,21.49,0,0,1,18.76,5.94ZM258,966.14a1.78,1.78,0,0,0,2.17,1.36c5.94-1.45,14,1,19.54,5.89a1.81,1.81,0,0,0,2.38-2.72c-6.35-5.55-15.69-8.32-22.73-6.69a1.8,1.8,0,0,0-1.36,2.16Z" fill="#d3dae5"/>
        <path id="Path_638" data-name="Path 638" d="M331.5,488c-4.11,5.86-3.82,16.8-1.25,22.66,4.37,10,15.48,12.79,22.48,5.62C355.86,513,338.85,498.1,331.5,488Z" fill="#ffb8b6"/>
        <path id="Path_639" data-name="Path 639" d="M334,500.76c-1.37,3.3.62,9.53,3.07,12.9,4.15,5.72,11,7.42,13.75,3.4C352.05,515.25,339.86,506.6,334,500.76Z" fill="#e08686"/>
        <path id="Path_640" data-name="Path 640" d="M435.51,503.17c2.17,6.83-1.34,17.18-5.55,22-7.13,8.21-18.57,7.58-23.12-1.36C404.8,519.82,425.48,510.67,435.51,503.17Z" fill="#ffb8b6"/>
        <path id="Path_641" data-name="Path 641" d="M429.34,514.66c.32,3.56-3.43,8.92-6.77,11.4-5.66,4.21-12.66,3.81-14.13-.87C407.78,523.09,422,518.48,429.34,514.66Z" fill="#e08686"/>
        <path id="Path_642" data-name="Path 642" d="M409.58,582.17c-15.8,12.76-52.21,10.92-70.53-5.26-14.61-12.9-13.29-32.36,2.16-51.48,14-17.27,37.57-26.27,58.69-10.8C415.94,526.39,433.94,562.49,409.58,582.17Z" fill="#ffb8b6"/>
        <path id="Path_643" data-name="Path 643" d="M395,561a4.27,4.27,0,0,1-5.58,2.36,4.34,4.34,0,0,1-2.31-5.64,4.27,4.27,0,0,1,5.58-2.36A4.35,4.35,0,0,1,395,561Z" fill="#773733"/>
        <path id="Path_644" data-name="Path 644" d="M362,555.46a4.25,4.25,0,0,1-5.57,2.36,4.33,4.33,0,0,1-2.31-5.64,4.25,4.25,0,0,1,5.57-2.35,4.33,4.33,0,0,1,2.31,5.63Z" fill="#773733"/>
        <path id="Path_645" data-name="Path 645" d="M402.82,534.5c-.62,1-2.44,1-4.06,0s-2.43-2.67-1.81-3.69,2.45-1,4.07,0S403.44,533.48,402.82,534.5Z" fill="#8e4d4c"/>
        <path id="Path_646" data-name="Path 646" d="M362.26,526.31c.09,1.19-1.38,2.28-3.29,2.43s-3.51-.7-3.6-1.89,1.38-2.28,3.29-2.43S362.17,525.12,362.26,526.31Z" fill="#8e4d4c"/>
        <path id="Path_647" data-name="Path 647" d="M389.39,572.68c-.16,8.19-8.95,15.41-20.66,13.61-9.85-1.51-18.55-13.2-13.22-21C361.38,556.79,389.63,560.37,389.39,572.68Z" fill="#fff0f0"/>
        <path id="Path_648" data-name="Path 648" d="M377.62,573.46a5.168,5.168,0,0,1-2-.37,6.47,6.47,0,0,1-3.7-3.71,7.17,7.17,0,0,1-4,2.94,4.5,4.5,0,0,1-5.29-2.53.69.69,0,0,1,.27-.92.66.66,0,0,1,.91.26,3.16,3.16,0,0,0,3.78,1.87,5.77,5.77,0,0,0,3.95-4,5.271,5.271,0,0,1,.07-.67.66.66,0,0,1,.72-.57.68.68,0,0,1,.61.68,5.533,5.533,0,0,1-.07.7,4.87,4.87,0,0,0,3.2,4.7,3.14,3.14,0,0,0,4-1.15.68.68,0,0,1,.93-.22.7.7,0,0,1,.21.94,4.27,4.27,0,0,1-3.59,2.05Z" fill="#8e4d4c"/>
        <path id="Path_649" data-name="Path 649" d="M378.26,563.59c-.27,2.33-4.95,3.69-6.1,3.35-1.41-.41-5.12-2.81-4.85-5.15S378.53,561.25,378.26,563.59Z" fill="#773733"/>
        <path id="Path_650" data-name="Path 650" d="M96.47,353.43c-1.57,2.4-6,2.91-12.81,3.94-5.92.9-14.85,2-18.11,5.12-3.48,3.37.11,6.91,7,8.28,11.35,2.28,37.19,6.48,50.16,7.64,22,3.4,44.32-11.1,46.87-31.82,3.82-31.07,3.41-43.36,5.05-62.54.41-4.72-9.66-1.4-12.63,4.38-6.38,12.36-4.52,17.16-8.3,23.23-3.68,5.92-9.06,3.9-14.13-.52-18.32-28.49-25.81-46.84-36-45.81-8.26,2.18,1.73,23.52,14.08,47.06-22-18.68-41.23-31.85-45.21-25.38-4.7,7.65,14,24.13,29.65,40.62-21.86-2.77-43.73-11.88-45.19-.43C55.82,335.57,100.88,346.69,96.47,353.43Z" fill="#ffc19f"/>
        <path id="Path_651" data-name="Path 651" d="M308.46,496.15c-14.94-1.83-45-13.24-62-19,1.22-16.5,11.81-59.24,20.15-80.53,14.07,6,54.25,14.75,75.14,19.19C333.28,453.92,308.46,496.15,308.46,496.15Z" fill="#28afc6"/>
        <path id="Path_652" data-name="Path 652" d="M627.77,299.36c-12.74,39.81-53.42,63-82.73,57.41s-33.15-39-25.79-77.67,37.11-65.52,66.4-59.84C625.69,227,639.75,261.94,627.77,299.36Z" fill="#ffc19f"/>
        <path id="Path_653" data-name="Path 653" d="M591.77,306.13c-3.23,16.94-18,28.37-32.9,25.52s-24.43-18.89-21.19-35.82,18-28.36,32.88-25.52S595,289.2,591.77,306.13Z" fill="#e0956c"/>
        <path id="Path_654" data-name="Path 654" d="M189.79,277.55c8.72,40.88,46.9,68,76.62,65.35s36.86-35.56,33.37-74.73S269.37,199.29,239.65,202C199,205.79,181.59,239.12,189.79,277.55Z" fill="#ffc19f"/>
        <path id="Path_655" data-name="Path 655" d="M227.11,288c1.53,17.17,15,30,30.19,28.65s26.19-16.36,24.66-33.54-15-30-30.19-28.65S225.58,270.8,227.11,288Z" fill="#e0956c"/>
        <path id="Path_656" data-name="Path 656" d="M222.9,122.23C201.6,253.14,293.17,345.18,404,350.7s206.8-85.84,202-214.6C603.26,64.61,531.42,5,425.53.45,314.7-4.35,238,29.13,222.9,122.23Z" fill="#752912"/>
        <path id="Path_657" data-name="Path 657" d="M258.12,97.07c-11.13,21.72-14.24,218,7,246.41,22.56,30.16,118.72,62.75,139.22,63.77,22,1.1,118.75-19,138.91-49.92,23.84-36.59,42.3-210.39,36.32-231.49-20.2-71.26-81.05-76.65-160.78-80.62C344.23,41.5,287,40.72,258.12,97.07Z" fill="#ffc19f"/>
        <path id="Path_658" data-name="Path 658" d="M264.77,288.27c-1.18,8.12,9.16,16.34,23.08,18.35s26.17-2.94,27.34-11.06S306,279.22,292.1,277.21,265.94,280.15,264.77,288.27Z" fill="#ff9797"/>
        <path id="Path_659" data-name="Path 659" d="M497.78,310.25c0,8.21,11.35,14.9,25.42,14.95s25.5-6.56,25.53-14.77-11.36-14.9-25.42-14.94S497.81,302.05,497.78,310.25Z" fill="#ff9797"/>
        <path id="Path_660" data-name="Path 660" d="M396,281.34a1.83,1.83,0,0,0,1.88-1.44c1.37-6.3,6.6-10.16,13.33-9.83s11.69,4.78,12.28,11.07a1.83,1.83,0,1,0,3.64-.34c-.74-8.05-7.22-14-15.74-14.39s-15.35,4.69-17.09,12.71a1.82,1.82,0,0,0,1.4,2.18Z" fill="#c67f75"/>
        <path id="Path_661" data-name="Path 661" d="M287.78,164.13a5.17,5.17,0,0,0,3.46-1.32c12.61-11.28,36.57-14.44,55.78-7.3a5.194,5.194,0,1,0,3.61-9.74c-22.92-8.49-50.81-4.58-66.31,9.32a5.18,5.18,0,0,0-.4,7.32A5.1,5.1,0,0,0,287.78,164.13Z" fill="#8c2f22"/>
        <path id="Path_662" data-name="Path 662" d="M538.92,177.92a5.19,5.19,0,0,0,4.16-8.75C528.7,154.1,501.2,148,477.7,154.7a5.2,5.2,0,0,0,2.84,10c19.7-5.62,43.36-.62,55,11.64a5.22,5.22,0,0,0,3.38,1.58Z" fill="#8c2f22"/>
        <path id="Path_663" data-name="Path 663" d="M551.5,67c-28.06-17.19-81.67-28.49-130.17-31.78-52.72-3.58-107.53.08-137.64,16.93-19.92,11.14-48.59,102.37-38.89,95.37,11.1-8,28.4-14.69,49-19.76,3.2-10.03,18.79-34.6,21.75-37.76-1.36,5.33-4.18,24.23-5.58,34.3a460.752,460.752,0,0,1,83.27-7.74c0-10.8,6.18-24.48,6.24-25.22,3.09,3.43,8.79,18.91,11.24,25.5q6.39.23,12.64.65c38.12,2.58,66.18,6.88,88.4,12.71.67-33.35,1.11-43.76.77-41.5,3.66,7.3,7.69,28,7.16,43.71a208.43,208.43,0,0,1,22.61,8.13c1.27-9.64,4.36-25.17,4.82-27.8,2.86,2,7.23,23.73,8.59,34.18a262.53,262.53,0,0,1,31.73,20.18C598.7,175.2,574.12,80.88,551.5,67Z" fill="#752912"/>
        <path id="Path_664" data-name="Path 664" d="M450.94,274.78s54.16,21.5,77.26-6.21c28.16-33.76-9.26-64.53-35.16-60.81C469.08,211.2,446.22,230.19,450.94,274.78Z" fill="#f9feff"/>
        <path id="Path_665" data-name="Path 665" d="M535.49,223.51c-9.37-13.61-22.89-18.63-37.95-18.16-15.4.47-31.64,10.26-36.79,21.15,9.09-12,23.59-15.68,32.55-17,14.27-2.06,32.27,5.52,39.68,18.8,6.6,11.81,4.81,28.73-5.53,41.12C539.21,261.35,545.26,237.7,535.49,223.51Z" fill="#773220"/>
        <path id="Path_666" data-name="Path 666" d="M466.11,238.43a24.94,24.94,0,1,0,33.28-11.69,24.94,24.94,0,0,0-33.28,11.69Z" fill="#63190d"/>
        <path id="Path_667" data-name="Path 667" d="M468.39,234.62a6.92,6.92,0,1,0,3.946-3.541,6.92,6.92,0,0,0-3.946,3.541Z" fill="#fefffe"/>
        <path id="Path_668" data-name="Path 668" d="M367.29,269.25s-56.6,13.86-75.69-16.75c-23.25-37.31,18-62.66,43.18-55.42C358,203.78,378.08,225.73,367.29,269.25Z" fill="#f9feff"/>
        <path id="Path_669" data-name="Path 669" d="M290.57,206.86c11.15-12.2,25.23-15.31,40.09-12.78,15.19,2.58,29.93,14.5,33.54,26-7.36-13.18-21.22-18.77-29.92-21.27-13.85-4-32.72,1-41.89,13.17-8.15,10.79-8.7,27.79-.16,41.49C281.7,243.83,279,219.57,290.57,206.86Z" fill="#773220"/>
        <path id="Path_670" data-name="Path 670" d="M312.19,228.35a24.95,24.95,0,1,0,33.29-11.69A24.95,24.95,0,0,0,312.19,228.35Z" fill="#63190d"/>
        <path id="Path_671" data-name="Path 671" d="M314.48,224.53a6.91,6.91,0,1,0,3.941-3.54,6.91,6.91,0,0,0-3.941,3.54Z" fill="#fefffe"/>
        <path id="Path_672" data-name="Path 672" d="M409.28,330.21h-.6c-20.93-.9-38.66-7.74-47.44-18.32a3.36,3.36,0,0,1,5.17-4.29c7.47,9,23.77,15.11,42.54,15.91h.57c18.69.69,35.36-4,43.6-12.42a3.39,3.39,0,0,1,4.74,0,3.35,3.35,0,0,1,0,4.74C448.23,325.61,430.09,331,409.28,330.21Z" fill="#934341"/>
        <path id="Path_673" data-name="Path 673" d="M217.3,99.21s-17.81,24.64-1.21,28.76,33.11-4.79,36.87-19.91-6.66-30.72-23.27-34.85S217.3,99.21,217.3,99.21Z" fill="#f9951e"/>
        <path id="Path_674" data-name="Path 674" d="M306.45,121.35s4.21,30.11-12.39,26-27-19.72-23.27-34.84,20.26-24,36.86-19.91S306.45,121.35,306.45,121.35Z" fill="#f9951e"/>
        <path id="Path_675" data-name="Path 675" d="M272.78,113.39c-1.78,7.19-8.36,11.74-14.68,10.17s-10-8.67-8.22-15.86,8.36-11.7,14.68-10.16S274.56,106.2,272.78,113.39Z" fill="#f9951e"/>
        <path id="Path_676" data-name="Path 676" d="M437.83,577c6.62,2.5,21.31.24,28.15,3.73a4.288,4.288,0,0,1,.59.59c-14.76-.34-27.46,4.84-39.32,6.93-4.94,15.79,17.17,7.32,39.64,5.91-13.48,2.87-22.18,6.4-31.49,7.93-7.51,6.12-4.78,11.26,4.59,10.68,7.24-.44,20-3.44,33.12-4.57,1.12.41-27.5,9.74-30.63,15.73.61,3.3,6.1,5.9,14.87,3.05,4.74-1.53,9.76-4.24,20.52-6.29,9,1.76,16.33,7.6,19.82,9.31,13.3,4.68,21.71-13.3,22.14-17.22,1.13-10.17-15.24-31.29-26.08-36.06-18.18-8-27.1-12.49-57.89-8C430.27,571.52,434.61,575.77,437.83,577Z" fill="#ffc19f"/>
        <path id="Path_677" data-name="Path 677" d="M28.53,226.32a3.66,3.66,0,0,0-5.16.31,3.71,3.71,0,0,0,.32,5.17l24.7,21.9a3.67,3.67,0,0,0,5.16-.32l.29-.38a3.65,3.65,0,0,0-.61-4.78ZM3.88,270.18a3.66,3.66,0,0,0-.45,7.3l32.94,2.1A3.66,3.66,0,0,0,39.63,278a3.57,3.57,0,0,0,.62-1.81,3.67,3.67,0,0,0-3.42-3.89ZM75,203.7a3.67,3.67,0,0,0-4,3.3l-3.36,32.84a3.65,3.65,0,0,0,6.66,2.42,3.55,3.55,0,0,0,.61-1.67l3.38-32.83A3.66,3.66,0,0,0,75,203.7Z" fill="#919191"/>
      </g>
    </g>
  </g>
</svg>
