<svg id="Group_326" data-name="Group 326" xmlns="http://www.w3.org/2000/svg" width="46.05" height="43.241" viewBox="0 0 46.05 43.241">
  <rect id="Rectangle_1491" data-name="Rectangle 1491" width="46.05" height="43.079" rx="21.539" transform="translate(0 0.162)" fill="#fff"/>
  <path id="Path_34" data-name="Path 34" d="M0,0Z" transform="matrix(0.951, 0.309, -0.309, 0.951, 27.362, 0)" fill="rgba(40,40,40,0.16)"/>
  <g id="Google__G__Logo" transform="translate(8.913 7.066)">
    <path id="Path_8227" data-name="Path 8227" d="M286.2,226.082a17.257,17.257,0,0,0-.253-2.982H272.1v5.652h7.928a6.793,6.793,0,0,1-2.934,4.46v3.667h4.73A14.334,14.334,0,0,0,286.2,226.082Z" transform="translate(-257.423 -211.067)" fill="#4285f4"/>
    <path id="Path_8228" data-name="Path 8228" d="M42.015,336.164a14.05,14.05,0,0,0,9.729-3.543l-4.73-3.667A8.9,8.9,0,0,1,33.781,324.3H28.9v3.78A14.679,14.679,0,0,0,42.015,336.164Z" transform="translate(-27.339 -306.81)" fill="#34a853"/>
    <path id="Path_8229" data-name="Path 8229" d="M6.386,159.4a8.791,8.791,0,0,1,0-5.619V150H1.511a14.689,14.689,0,0,0,0,13.18Z" transform="translate(0.05 -141.91)" fill="#fbbc04"/>
    <path id="Path_8230" data-name="Path 8230" d="M42.015,5.791a7.976,7.976,0,0,1,5.63,2.2l4.19-4.19a14.106,14.106,0,0,0-9.82-3.818A14.674,14.674,0,0,0,28.9,8.072l4.875,3.78a8.779,8.779,0,0,1,8.24-6.062Z" transform="translate(-27.339 0.018)" fill="#ea4335"/>
  </g>
</svg>
