<svg xmlns="http://www.w3.org/2000/svg" xmlns:xlink="http://www.w3.org/1999/xlink" width="118" height="93.39" viewBox="0 0 118 93.39">
  <defs>
    <rect id="rect-1" width="118" height="93.39" x="0" y="0"/>
    <rect id="rect-2" width="118" height="93.39" x="0" y="0"/>
    <mask id="mask-3" maskContentUnits="userSpaceOnUse" maskUnits="userSpaceOnUse">
      <rect width="118" height="93.39" x="0" y="0" fill="black"/>
      <use fill="white" xlink:href="#rect-2"/>
    </mask>
    <path id="path-4" fill-rule="evenodd" d="M-8.30332947-9.96980286V104.958313h141.65879822V-9.96980286H-8.30332947z"/>
    <mask id="mask-5" maskContentUnits="userSpaceOnUse" maskUnits="userSpaceOnUse">
      <rect width="118" height="93.39" x="0" y="0" fill="black"/>
      <use fill="white" xlink:href="#path-4"/>
    </mask>
    <path id="path-6" fill-rule="evenodd" d="M-8.30332947-9.9701538v114.92846679h141.65950012V-9.97015381H-8.30332947z"/>
    <mask id="mask-7" maskContentUnits="userSpaceOnUse" maskUnits="userSpaceOnUse">
      <rect width="118" height="93.39" x="0" y="0" fill="black"/>
      <use fill="white" xlink:href="#path-6"/>
    </mask>
    <path id="path-9" fill-rule="evenodd" d="M42.62088013 11.83378601v39.62895203h35.67144775V11.833786H42.62088013z"/>
    <mask id="mask-10" maskContentUnits="userSpaceOnUse" maskUnits="userSpaceOnUse">
      <rect width="118" height="93.39" x="0" y="0" fill="black"/>
      <use fill="white" xlink:href="#path-9"/>
    </mask>
    <path id="path-17" fill-rule="evenodd" d="M46.70277405 38.04354858v10.92974854h18.12876892V38.04354858H46.70277405z"/>
    <mask id="mask-18" maskContentUnits="userSpaceOnUse" maskUnits="userSpaceOnUse">
      <rect width="118" height="93.39" x="0" y="0" fill="black"/>
      <use fill="white" xlink:href="#path-17"/>
    </mask>
    <path id="path-39" fill-rule="evenodd" d="M51.4402008 72.02249146v3.93222045h11.51649476v-3.93222045H51.4402008z"/>
    <mask id="mask-40" maskContentUnits="userSpaceOnUse" maskUnits="userSpaceOnUse">
      <rect width="118" height="93.39" x="0" y="0" fill="black"/>
      <use fill="white" xlink:href="#path-39"/>
    </mask>
    <path id="path-46" fill-rule="evenodd" d="M85.91217041 60.68035889v7.92669677h13.66830444V60.6803589H85.91217041z"/>
    <mask id="mask-47" maskContentUnits="userSpaceOnUse" maskUnits="userSpaceOnUse">
      <rect width="118" height="93.39" x="0" y="0" fill="black"/>
      <use fill="white" xlink:href="#path-46"/>
    </mask>
    <path id="path-94" fill-rule="evenodd" d="M77.92190552 69.5118103V93.3121338h13.6828308V69.5118103h-13.6828308z"/>
    <mask id="mask-95" maskContentUnits="userSpaceOnUse" maskUnits="userSpaceOnUse">
      <rect width="118" height="93.39" x="0" y="0" fill="black"/>
      <use fill="white" xlink:href="#path-94"/>
    </mask>
    <path id="path-97" fill-rule="evenodd" d="M84.1265564 69.78012085v23.5387268h10.13250732v-23.5387268H84.1265564z"/>
    <mask id="mask-98" maskContentUnits="userSpaceOnUse" maskUnits="userSpaceOnUse">
      <rect width="118" height="93.39" x="0" y="0" fill="black"/>
      <use fill="white" xlink:href="#path-97"/>
    </mask>
    <path id="path-101" fill-rule="evenodd" d="M58.94314575 68.6906128v23.68704223h11.06958008V68.69061279H58.94314575z"/>
    <mask id="mask-102" maskContentUnits="userSpaceOnUse" maskUnits="userSpaceOnUse">
      <rect width="118" height="93.39" x="0" y="0" fill="black"/>
      <use fill="white" xlink:href="#path-101"/>
    </mask>
    <path id="path-104" fill-rule="evenodd" d="M85.45602417 82.24539185v8.5571289h10.81988525v-8.5571289H85.45602417z"/>
    <mask id="mask-105" maskContentUnits="userSpaceOnUse" maskUnits="userSpaceOnUse">
      <rect width="118" height="93.39" x="0" y="0" fill="black"/>
      <use fill="white" xlink:href="#path-104"/>
    </mask>
  </defs>
  <g>
    <use fill="none" xlink:href="#rect-2"/>
    <g mask="url(#mask-3)">
      <use fill="none" xlink:href="#path-4"/>
      <g mask="url(#mask-5)">
        <use fill="none" xlink:href="#path-6"/>
        <g mask="url(#mask-7)">
          <path fill="rgb(135,4,4)" fill-rule="evenodd" d="M28.74493408 34.15480042c-.76054382.66352844-1.36816406 1.19363403-.88807678 2.22863769l-.00071716.00318909c1.85113525 3.97714233-.73165894 6.18661499-1.11271668 6.4159851.59744263-.61273193 2.34231568-2.66818237.71855164-6.24076843-.60101319-1.31988525.25378418-2.06619262 1.0064392-2.72332763l.00253297-.00221253.00102233-.000885c1.03224183-.8976288 1.92106629-1.67053224.14842225-3.82902528-2.22120667-2.70075989-2.13691712-5.56541443.21850586-7.47186279 1.82528686-1.47781372 3.52908325-3.92300415 4.74557495-6.7338562.34883117-1.52204895 1.89468383-1.95458985 2.03103637-3.00869751C46.59619141 7.67044067 65.85754395 6.68783569 72.32214355 7.4647827l-.1416626-1.84062194c1.05215455 2.68305969 4.69137574 4.82951355 6.6767273 6.28785705 2.40466309 1.77017212 3.79434204 3.92086792 3.2227478 6.70799256-.22488403 1.10792541-.3722229 2.0777893.13208008 2.75032043.42425537.57130432 1.32733155.92385864 2.75808716 1.07746887 1.41589356.15609741 2.36428833.57130432 2.88809204 1.27676392.74264527.9932251.47418213 2.31103515.23406983 3.47311401-.16467286.8201294.15795898 1.91282654.50006103 2.43421936.36434937.5483551.7017212.9868927.99710083 1.37086487.73425293.95446777 1.20907593 1.5716858 1.19366455 2.69973755-.2737732-1.59921265-1.39215088-2.19422913-2.50488281-3.78034973-.4161377-.59042359-.80108643-1.62930298-.486969-3.14605713.22311402-1.07746887.34884644-1.95281982-.28329467-2.80233765-.4526062-.6056366-1.29901123-.96632385-2.5913086-1.10791015-1.57843017-.17097473-2.55056762-.56671143-3.05697631-1.24420166-.19055176-.2594452-.28582764-.55183411-.34637452-.86331177-.32473754 1.65336609-.02160644 2.86286926 3.02227784 3.37576294 3.73953247.63035583 3.1376648 2.87251282 2.65484619 4.67114258-.23971558.89303589-.45010376 1.67674255-.08514405 2.09951782 1.89007569 2.18751526 2.37704468 2.5836029 2.64337159 4.58740234.30526733 2.29794312-1.39782715 5.20046997-2.9206543 6.0499878-.02078247-.07037354.02423096-.27258301.09170532-.57553101.26916504-1.20858765.8954773-4.02082825-.87545776-6.46556091.14733887 1.94538879-.91119385 7.69236755-1.3138733 8.07325744-6.03146362 5.67086792-33.63687133 10.34960938-43.7516632 8.4671936-1.93328857-.36138915-1.30114746-3.4100952-2.0328064-4.33428954-.23706054-.2987671-.23886108.53961181-.24098205 1.53076171-.00262451 1.22698975-.00576783 2.68807984-.45632935 2.5157776-10.17749023-3.87344361-9.40898132-7.47399903-8.4690857-7.81167603.03962708-.01425171.07885743-.02816773.1175995-.04190064 1.23780822-.43893432 1.98112487-.70251465-.82341004-6.09693908-.60223389-1.15811158.13204956-1.79327393.90393067-2.46096802 1.02651977-.88793946 2.11953735-1.8334198.22402954-4.1429596-1.99171448-2.4236145-1.9701233-4.90562439.18804931-7.17312622.75787354-.79429626 1.36206055-1.87176513 1.86636353-3.05117798-.97213745 1.17056275-1.99810791 2.20272827-3.00494385 3.0207367-2.18437195 1.77018738-2.37915039 4.19804382-.2921753 6.7384491 2.02853394 2.46760559.7935486 3.54312133-.19992065 4.40830993l-.00158691.00138855-.0125122.01091004zm50.05984497-21.74440003c-1.18215942-.87005615-2.82080078-1.42401123-4.21081543-2.28096008 2.38128662 3.31736755 6.41854859 5.00932312 7.14419556 7.80282593.23410034-2.22998047-.83117676-3.97929383-2.93338013-5.52186585z"/>
          <g opacity=".37">
            <g>
              <use fill="none" xlink:href="#path-9"/>
              <g mask="url(#mask-10)">
                <path fill="rgb(43,0,11)" fill-rule="evenodd" d="M45.68389682 51.45212425c-.9737503-2.56126151-1.71917687-5.20350748-2.22758445-7.89591656-2.97023065-15.63608815 2.238563-29.7529548 11.63018653-31.53835862 9.39162352-1.78540383 19.41292036 9.4508886 22.38208856 25.0834371.55919997 2.9385088.83539827 5.9238128.8248083 8.91498428-8.85367428 3.28267944-23.4183226 5.62168588-32.60879065 5.4358538h-.0007083z"/>
              </g>
            </g>
          </g>
          <path fill="rgb(255,193,159)" fill-rule="evenodd" d="M37.49141494 79.60515333c-.42497637.48245548-6.95367578-3.83203446-6.5942166-4.36439912 4.9987845-7.4113373 12.29244136-20.04614886 13.6498867-22.42196775 0 0 7.1792674 1.1167623 6.22661204 6.15617433-2.78855325 5.1392304-7.36094479 13.10204651-13.28228214 20.63019254z"/>
          <path fill="rgb(249,78,65)" fill-rule="evenodd" d="M37.50416423 61.08990684c3.02229025 2.34573179 5.60295923 3.12905825 9.57117604 5.01817407 4.28871981-5.29285158 5.34761926-6.45067393 3.15863683-16.0190792-5.7414307 1.20100617-6.72206366 1.94079483-7.27842855 2.50997194-1.3616951 1.38931603-2.62599979 4.2454666-5.45138432 8.49093319z"/>
          <path fill="rgb(249,78,65)" fill-rule="evenodd" d="M46.92518195 91.85909763h30.20873663c-2.5144435-8.43005105-2.19960684-17.0944275-1.97861913-21.16220324.50430529-9.4508886.42851783-6.97843704 1.0411921-22.2400293-9.56196822-1.05375638-21.38339411.47148254-27.7633518 2.04273702-1.39002686 3.5205445-3.54394874 11.2915111-3.92713576 17.89049674-.0708294 1.17056512 2.55658699 5.1413542 2.77969958 7.70123533.1990306 2.30077813.46039106 9.86927627-.36158406 15.76776345h.00106244z"/>
          <path fill="rgb(255,193,159)" fill-rule="evenodd" d="M68.80084035 48.11104045c-6.86726392.04530763-13.88256126.9716363-18.72233377 2.01441974.81453803 6.2124549 4.14351956 10.86038068 8.86323624 10.86038068 5.2197722 0 9.48476418-5.68009024 9.85909753-12.87480042z"/>
          <path fill="rgb(255,193,159)" fill-rule="evenodd" d="M63.1539669 41.89823157l.97000855 7.42868162c.233737 1.78504986-3.08957818 4.1654703-6.0966401 4.95304436-1.14956107-.6470496-4.58549499-1.77230709-4.81923199-3.55735695l-.96575879-7.40248815 10.91162233-1.42188088z"/>
          <g opacity=".23">
            <g>
              <use fill="none" xlink:href="#path-17"/>
              <g mask="url(#mask-18)">
                <path fill="rgb(119,28,10)" fill-rule="evenodd" d="M46.93580636 45.08923385c-.10641648-.2887362-.18399819-.58728487-.23161212-.89128605 5.53992107-2.96658792 11.79026096-4.89888758 17.61172887-6.15405054.05843425.11680874.13209682.2251223.17707348.34617862 1.35071655 3.54213642-1.48104263 7.9111371-6.3303771 9.75883891-4.84933448 1.84770182-9.87645073.48068565-11.22645898-3.05968094h-.00035415z"/>
              </g>
            </g>
          </g>
          <path fill="rgb(135,4,4)" fill-rule="evenodd" d="M35.2503729 21.9186283C37.1209772 36.5699834 46.54270322 41.97539612 59.27712 40.35458642c12.73441679-1.6208097 21.09795165-9.15072555 18.17269767-23.62686756C74.70447036 3.13861533 66.99504494-.55926607 54.2631072 1.06118967 41.53116944 2.6816454 33.38189349 7.26833507 35.2503729 21.91862828z"/>
          <path fill="rgb(255,193,159)" fill-rule="evenodd" d="M36.525302 22.38267754c.59744594 2.58784444 2.42271943 13.30097533 3.32898153 15.99288574 1.8879575 5.6131907 9.0905986 8.62508624 12.95505034 8.92170964 4.69138493.35892139 16.5142274-5.09710846 18.35260433-12.02032683 1.52283198-9.332664 1.28803254-22.4909911.08003722-24.80203423-4.07658578-7.80069975-26.98599919-1.11428455-32.20400066 2.20945493-4.39142244 2.79633034-3.19971788 6.72535145-2.51125617 9.69866472l-.00141659-.00035397z"/>
          <path fill="rgb(112,22,8)" fill-rule="evenodd" d="M59.35255331 36.29353606c-.43099686-1.2505614-2.3795135-.63713856-5.63766563-.19892882-.17317787.02371571-.83366197.11680874-1.00436081.14158635-3.25425652.48068564-5.29768454.43077646-5.36284758 1.75283896-.12749291 2.5467844 3.39697774 4.81393578 6.70931436 4.35378015l.05630937-.00884915c3.30596197-.47608409 6.06830835-3.62885805 5.23925029-6.04148939v.0010619z"/>
          <path fill="rgb(221,107,91)" fill-rule="evenodd" d="M54.13667672 42.38458067l-.05630937.00849518c-1.07377361.145126-2.23112591.0021238-3.34491814-.41520196l-.0708294-.02619347.04780985-.05415678c.7532706-.88703846 1.84900133-1.46895834 3.09382794-1.6466492 1.2448266-.17769087 2.45707168.08459784 3.42708024.72704588l.06055913.03893625-.05843425.0435378c-.95903.70793173-2.03067873 1.16808736-3.10020259 1.3241863h.0014166z"/>
          <path fill="rgb(255,255,255)" fill-rule="evenodd" d="M53.46238089 37.81558928c-2.2753943.31856928-4.26959588-.11043735-4.63932532-1.00632496l-.01947809-.05415677 8.84375816-1.24843761-.00637464.05840437c-.10836897.96066336-1.90283168 1.93017586-4.17893426 2.25051497h.00035415z"/>
          <path fill="rgb(196,115,91)" fill-rule="evenodd" d="M50.56581281 34.68440723c.09069452-.01305346.1595117-.08835788.1643242-.17981466.02620687-.65979237.48730623-1.14260181 1.17576794-1.22896948.68846171-.08636767 1.27280421.27042992 1.44598208.89164001.02833626.09973956.13212853.1577068.23196627.12955151.04813152-.01258863.08918981-.04396705.1139598-.08709271.02477-.04312567.03117695-.09438635.01778287-.14227717-.22063356-.79606923-.98488272-1.27640091-1.85750086-1.16383977-.87261814.11256115-1.47218896.74651401-1.50654122 1.58824484-.00280212.10359596.07808446.1902721.1816774.19468123l.03258152-.0021238z"/>
          <path fill="rgb(249,254,255)" fill-rule="evenodd" d="M47.71811702 33.16695557s-4.50970753 2.46891191-6.73764612-.2552094c-2.71701557-3.31949188.2684434-6.65455826 2.5417128-6.39864094 2.10009154.23361747 4.23701437 2.06645272 4.19593332 6.65455827v-.00070793z"/>
          <path fill="rgb(102,29,22)" fill-rule="evenodd" d="M39.97575594 28.33213581c.69908612-1.43887124 1.82704422-2.01760543 3.13490899-2.0448608 1.33548822-.02583951 2.82503038.8958876 3.35979231 1.98645643-.88536743-1.19003324-2.17127508-1.49090422-2.9571272-1.57974966-1.2515554-.14158634-2.7495971.7249221-3.28010925 2.1206095-.4742028 1.24206623-.17955252 2.96446413.81843365 4.18069084-1.08475218-.77058369-1.80331638-3.1637469-1.0758985-4.66314631z"/>
          <path fill="rgb(84,24,10)" fill-rule="evenodd" d="M46.30613305 29.81348296c.73627155 1.17941426.55636489 2.75243857-.40054023 3.5205445-.95690511.76810592-2.32709975.43502404-3.0633713-.74332832-.73627155-1.17835237-.55424-2.75243857.40054023-3.5205445.95478023-.76810593 2.32957877-.43502405 3.0633713.74332832z"/>
          <path fill="rgb(254,255,254)" fill-rule="evenodd" d="M46.13437176 29.80074019c.171053.34405482.08003722.77447731-.20575939.96066336-.2857966.18618604-.6537553.05840436-.82693317-.28565046-.17317787-.34405482-.08003722-.7766011.20575939-.96278715.2857966-.18618605.6537553-.05628058.82693317.28777425z"/>
          <path fill="rgb(249,254,255)" fill-rule="evenodd" d="M56.20454088 31.97940009s5.96206426 1.03004067 7.71792494-2.28060207c2.1390477-4.03131725-2.3207251-6.35758091-4.87341646-5.42912845-2.35968127.86332275-4.27561639 3.28055564-2.84450848 7.70973052z"/>
          <path fill="rgb(102,29,22)" fill-rule="evenodd" d="M63.69935323 24.96662836c-1.24270172-1.18366185-2.72374435-1.40453655-4.243389-1.03676602-1.55824668.37661968-2.99643753 1.71815031-3.28860878 2.93437703.66898363-1.41586347 2.06538514-2.0968938 2.9465028-2.4172329 1.40490104-.51714413 3.39697775-.1295515 4.43392008 1.0618976.92078212 1.05800397 1.10175122 2.81721432.3158991 4.29537577 1.02206815-1.07357847 1.1332703-3.60726613-.1643242-4.83835941v.00070793z"/>
          <path fill="rgb(84,24,10)" fill-rule="evenodd" d="M62.49631597 27.7629587c.51763764.91026685.4356609 2.04256674-.20770135 2.86886496-.64336225.82629821-1.7213974 1.18385224-2.73137647.90592097-1.00997907-.27793128-1.7529829-1.13660825-1.88252043-2.17559702-.12953752-1.03898878.37990417-2.05365665 1.29075295-2.57082521.5970855-.33934172 1.3046205-.4276119 1.96684297-.24537808.66222248.1822338 1.22484308.62003198 1.56400233 1.21701438z"/>
          <path fill="rgb(254,255,254)" fill-rule="evenodd" d="M62.09683819 27.65181342c.19529573.34499677.07401653.78290308-.27097545.97841889-.34499197.19551581-.78323465.07470491-.97917044-.26992912-.1959358-.34463404-.07546968-.78276448.26915878-.9789197.16581958-.09481666.36263605-.11958797.54679767-.06881991.18416162.05076806.34044545.17287896.43418944.33924984z"/>
          <path fill="rgb(84,24,10)" fill-rule="evenodd" d="M63.41391077 20.02526488c-.13400327.0154104-.26897418-.01926064-.37893726-.09734062-1.45696063-1.026501-3.99867345-1.06685311-5.9209832-.08884543-.17451636.0932537-.38581165.08505633-.55257072-.0214374-.16675907-.10649375-.26299069-.29468564-.25166096-.49215168.01132973-.19746605.12845495-.37342898.30630103-.46017101 2.29487238-1.16808736 5.26085326-1.09481643 7.04752473.1709655.1855641.13016709.27136679.36138846.21560604.5810159-.05576075.21962745-.24148741.3819813-.46669624.40796474h.00141658z"/>
          <path fill="rgb(135,4,4)" fill-rule="evenodd" d="M61.95695013 11.95307331c-5.4836117-4.32546287-7.23522261-2.8692473-8.87386065 2.13158245-1.31848917 4.02459189-4.8291481 6.10838894-7.76148501 6.40288854 2.05405243-1.38931602 6.6983358-4.1718417 6.36295862-8.80277711-.54149071 1.24879157-3.7065022 5.87583337-7.43708639 7.22515125-5.31503774 1.92168068-3.2322994 8.4045655-8.63410315 12.5764072-1.72752892-1.63815403-1.42862888-4.9682649-1.72752892-9.49053279-.37893726-5.7126551-.11049386-8.41766225 1.61066042-10.63985995 2.10221642-2.71562612 5.16558772-6.20360576 7.91093504-7.19895778C53.0802563.6470496 60.74647579-3.85787397 65.03094584 5.89140787c1.22109876.36989433 5.46873753 1.81973851 7.17041372 3.48373204 5.27147767 11.2129307-2.40536622 14.81807303 3.72598029 17.2802596-1.86635454 1.70540754-5.54452498 2.5881984-7.02981738 1.02366928-2.9939585-3.15702156 2.47017512-17.81510201-6.9388016-15.72705737l-.00177074.0010619z"/>
          <path fill="rgb(84,24,10)" fill-rule="evenodd" d="M39.6127553 23.3557297c-.14646817.02891872-.29827339-.00739768-.41576855-.0994644-.23074937-.17811816-.27339593-.50945038-.09526554-.74014263 1.29015742-1.67036492 3.99867345-2.57297787 6.44087097-2.146449.18728891.02994025.3439693.15829401.41011123.3359662.06614192.1776722.03151149.37717231-.09064523.52219191-.1221567.1450196-.31293887.2131204-.49937267.17825394-2.04661534-.35927535-4.38044388.39361004-5.43119794 1.75531673-.07800153.10261042-.1917911.17211293-.31873228.19468122v-.00035396z"/>
          <path fill="rgb(255,193,159)" fill-rule="evenodd" d="M78.46267801 31.8123282c-.88784645 4.47483647-4.4665016 7.67079427-7.20936989 7.59504558-2.74286829-.0757487-3.33393958-3.58319646-2.93941986-7.83503444.40266511-4.25431573 2.94862768-7.64920235 5.68760036-7.56071088 3.74510422.11680873 5.29308063 3.59629319 4.4597728 7.80069974h.0014166z"/>
          <path fill="rgb(224,149,108)" fill-rule="evenodd" d="M74.14208497 33.80515602c-.56061466 2.0211451-2.34870272 3.11171393-3.15863684 2.73934184-.91122016-.42192732-.96540464-1.545061-.72316811-3.47311308.28792148-2.2480372 1.06739897-3.60054078 2.38163838-3.34285363 1.36594486.26830613 2.16029652 1.70292978 1.50016657 4.07662487z"/>
          <g opacity=".18">
            <g>
              <use fill="none" xlink:href="#path-39"/>
              <g mask="url(#mask-40)">
                <path fill="rgb(43,0,11)" fill-rule="evenodd" d="M51.44126412 75.4379132c.04993473 1.32666406 2.57004457-.31148996 5.7481595-.4304225 3.1781149-.11893253 5.81721814 1.31781492 5.76515853-.00884914-.0520596-1.32666407-2.69966236-3.09189184-5.87883972-2.97083551-3.17917736.12105632-5.68512132 2.08379705-5.63554075 3.41010715h.00106244z"/>
              </g>
            </g>
          </g>
          <path fill="rgb(175,73,53)" fill-rule="evenodd" d="M113.27532526 60.92283495s.75149987 1.67709027 1.11945858 3.65682136c3.38599918-4.19130982 5.8735275-10.44907236.39168655-28.35054204l-40.23109591 4.77570746c.12324315 19.9958857-.32935668 27.01538279 8.08163388 29.54730062.05630937-.43290025 1.168685-.22936988 1.45696064.12742772 5.47511217.24459041 20.96975044-.9001352 25.33425771-2.68093747 1.51574904-.62085613 2.79776107-1.34507029 3.85170246-2.26113395-.0067288-2.30467175-.00460391-4.81393577-.00460391-4.81393577v-.00070793z"/>
          <path fill="rgb(244,69,86)" fill-rule="evenodd" d="M106.85889044 91.85909763c-.69696124-4.80367076-2.87921487-19.66068003-3.82974534-23.82827414-4.59824428-.8980114-14.26716488-.62510371-19.2269932.34865638-.50218041 5.78592604-1.18851724 15.6314866-1.97224449 23.47961776h25.02898303z"/>
          <path fill="rgb(255,193,159)" fill-rule="evenodd" d="M99.63039661 68.53664072c.00637465-.3224629-.05630936-.63395287-.14165878-.94119524-3.33429374-.13840065-8.337328-.08247405-11.89933823.29414563-.02160296.14158635-.07791233.27255372-.08251624.41767973-.04533082 2.50997195 2.62847882 4.5958928 5.97552184 4.65889872 3.34704302.06300592 6.10088987-1.9195569 6.14622068-4.42952884h.00177073z"/>
          <path fill="rgb(255,193,159)" fill-rule="evenodd" d="M97.54801243 61.53130227l.2857966 7.07931731c.06055913 1.52205322-1.8231486 2.83172693-4.2086826 2.92765168-2.385534.09592475-4.37336095-1.05800398-4.43392008-2.57934927l-.2857966-7.0793173 8.64260268-.34830242z"/>
          <g opacity=".19">
            <g>
              <use fill="none" xlink:href="#path-46"/>
              <g mask="url(#mask-47)">
                <path fill="rgb(124,5,5)" fill-rule="evenodd" d="M99.467489 61.668995c-.08853673-.35715157-.24790287-.6771367-.43489247-.98898064-3.74333349.83111186-9.27865064 2.36732371-13.12185357 3.82778687.01487417.16034654-.00885368.3224629.03222737.48068565.68208707 2.76730514 4.26499197 4.2670585 7.99982593 3.34957899 3.73483396-.91747953 6.20677981-3.90353557 5.52469275-6.66907088z"/>
              </g>
            </g>
          </g>
          <path fill="rgb(244,69,86)" fill-rule="evenodd" d="M111.84634223 77.57445116c-1.43535767 1.45621557-6.72879245 3.4727591-8.50165218 4.096093-.53122046-1.61656211-3.70437732-13.86165726-3.74545837-14.06731143 2.90117199-.06265196 4.30607302.11468494 5.14185987.3681245 1.69707229 1.4735599 4.47500113 5.86379853 7.10525068 9.60309393z"/>
          <path fill="rgb(255,193,159)" fill-rule="evenodd" d="M64.96967842 78.4006075c-.32475278-.14477205 1.22534852-4.45749215 1.5653296-4.34068342 5.0643017 1.73124705 13.59605637 3.55098557 15.10259759 3.80619495 0 0-1.62588875 4.08335023-4.45552305 5.03127082-2.2559162.75500919-7.88685304-2.57510167-12.21240414-4.4953665v-.00141586z"/>
          <path fill="rgb(244,69,86)" fill-rule="evenodd" d="M74.74803043 76.52423444c1.61738922 1.38046687 5.0681973 4.52686945 6.82618287 5.59797016 1.33796725-1.00844875 3.6002581-2.79633034 3.83647414-2.99915278 1.60641066-3.88831503 1.05642041-10.9555975 1.07164873-11.16549926-2.88594367.29414563-4.25861733.6449258-5.0575729.99535201-1.50229144 1.67284268-4.08083554 4.6436782-6.67673284 7.57132987z"/>
          <path fill="rgb(244,177,140)" fill-rule="evenodd" d="M72.4903435 54.38685524c1.18851723 3.6699181 4.12864538 5.87937303 6.06618346 5.43125224 1.93753808-.44812078 1.92230976-3.50426207 1.10848002-7.05843332-.81382974-3.55417126-3.04176834-6.07582408-4.97718153-5.61708432-2.64583202.62722751-3.31233662 3.79309821-2.19571122 7.2442654h-.00177074z"/>
          <path fill="rgb(175,73,53)" fill-rule="evenodd" d="M74.32340821 43.12826296c.1416588 13.325045 8.534942 19.23238133 20.19912664 19.10672345 11.66418464-.12565788 22.53047615-6.10414135 21.49353382-19.3923739-.99798617-12.78630897-8.20523117-17.4968867-20.50510962-16.69621592-11.63868606.75748695-21.32708474 3.65682136-21.18613425 16.98186637h-.00141659z"/>
          <path fill="rgb(255,193,159)" fill-rule="evenodd" d="M76.60446885 34.84687757c-.5195336.30724237-1.58020378 1.93229966-1.33336334 4.3127201 1.05217065 10.15882034.55848977 10.66994705.39593631 16.95496496-.14165879 5.5116025 3.97919537 10.61154268 12.19080118 10.79348114 6.16605292.14158635 15.04876724-1.98858023 20.19912664-11.59839952 3.49861793-6.52111314 2.17269167-15.8304154 1.31848918-17.98075804-2.89656808-7.25311455-6.7698735-6.47757533-16.25888744-6.37881886-8.87633968.09521682-12.6387971 1.62505729-16.51210253 3.89681022z"/>
          <path fill="rgb(175,73,53)" fill-rule="evenodd" d="M104.77225649 43.64399122c-.65623434 3.9945048.30952445 5.86379853 3.11968066 8.07042174 3.2797551 2.57722546 5.04871922-5.04613738 4.98355618-11.37964862-.08428698-7.8612279-3.2971083-11.08550297-12.67137862-10.34536035-4.156623.3288343 6.32612734 2.93791669 4.56849592 13.6538793l-.00035414.00070793z"/>
          <path fill="rgb(112,22,8)" fill-rule="evenodd" d="M93.9137562 57.2628279c.59957083 2.19458837-2.70214138 5.43373-5.87140262 5.44222518-3.15013731.00849518-5.4255316-2.5209449-5.51654737-4.78207884.14520026-1.2505614 2.21696004-1.01694393 5.3086631-1.25303917 3.09170305-.23609523 5.71557796-.73978865 6.0792869.59289283z"/>
          <path fill="rgb(221,107,91)" fill-rule="evenodd" d="M88.2686535 60.64214002c-1.45200259.103712-2.5438377.5256393-3.21919598 1.24419001.85278591.49555222 1.99597233.93907145 3.20857156.84951808 1.36381999-.1015882 2.61289635-.60811336 3.39237384-1.24419002-.40054023-.62297992-2.08061346-.94119523-3.38174943-.84951807z"/>
          <path fill="rgb(255,255,255)" fill-rule="evenodd" d="M92.28999235 56.39030204c-1.09112682-.24246662-2.74322244.09309302-4.28234518.21237952-1.73532015.13202927-3.0286649.01097294-4.09606386.3267105.48057744.8980114 1.97861912 1.39143981 3.98132024 1.25941054 2.3101007-.1493736 4.15874789-.7787249 4.3970888-1.7981466v-.00035396z"/>
          <path fill="rgb(255,151,151)" fill-rule="evenodd" d="M102.21602365 55.4076928c.09101577.80067079-.94840559 1.5772719-2.32284998 1.73761843-1.3744444.16034654-2.5657948-.36564674-2.65610229-1.16808735-.09030747-.80244062.95017633-1.57974966 2.32284999-1.73443275 1.37267366-.15468308 2.56331577.36564674 2.65610228 1.16808736v-.0031857z"/>
          <path fill="rgb(255,151,151)" fill-rule="evenodd" d="M80.73984303 56.87842097c.01097856.7185507-.85526493 1.3096737-1.93116343 1.32878786-1.0758985.01911415-1.95489128-.55395658-1.96586983-1.2703835-.01097856-.7164269.85314005-1.3096737 1.92903855-1.32843389 1.0758985-.01876019 1.95701616.55395658 1.96799471 1.27002953z"/>
          <path fill="rgb(196,115,91)" fill-rule="evenodd" d="M85.7187953 54.80949048c.08146835-.00477644.1474566-.06788291.15582467-.14901962.06055913-.58652144.49580576-.98898063 1.1106049-1.03004067.61479914-.04106004 1.11272978.31573755 1.2274734.87854327.01882662.09129166.10798041.15016955.19938474.1316753.08976216-.02063691.14715962-.1084867.12997194-.19892881-.1515749-.7227983-.79895556-1.19428083-1.57843305-1.1447256-.77274869.04778538-1.34575849.58227384-1.42225423 1.32878785-.0053497.04432161.0075429.08891402.0357214.12355185.0281785.03463782.0692255.05634952.11372862.06015643h.02797761z"/>
          <path fill="rgb(255,193,159)" fill-rule="evenodd" d="M114.06401056 53.61131603c-1.11272978 4.36015153-5.05296898 7.18550707-7.97786881 6.84428398-2.92489983-.3412231-3.42708024-3.87981986-2.84238359-8.06652811.58469665-4.18670826 3.43133-7.31399668 6.35410495-6.96144668 3.99017393.48280944 5.51194346 4.08547402 4.46614745 8.18369081z"/>
          <path fill="rgb(224,149,108)" fill-rule="evenodd" d="M109.37970858 55.17301343c-.67287925 1.94964399-2.62068759 2.86287592-3.4727652 2.41263134-.95903-.50617119-.97390417-1.62824298-.64065187-3.5184207.38956167-2.20697718 1.27280421-3.47275911 2.66495596-3.08976805 1.4484611.3982116 2.24068788 1.8997348 1.4484611 4.1955574z"/>
          <path fill="rgb(255,170,0)" fill-rule="evenodd" d="M76.07820646 32.61229106c4.08296042-3.45329099 10.64282477-4.47271268 16.12431158-4.56332794 6.1681778-.10406597 14.20660575 2.03176407 18.6600039 7.35045516-.83153708-2.39528701-2.66283107-4.7689821-3.7238554-5.55230857.74689597-.03893624 3.45328712-1.38294463 9.01268627.23998886-2.81865574-5.45709175-7.00786026-4.77853918-8.6231246-2.70677697.67996219-3.82283135-1.53274809-6.81207308-6.65265085-5.34488457 4.17185132 2.146449 5.3214124 6.1129905 5.70459941 7.37664864-3.88392983-2.65722176-8.14254715-4.11343733-13.58932757-3.54213642-6.5014301.6813843-13.072273 2.44236447-16.91264274 6.7423418z"/>
          <path fill="rgb(175,73,53)" fill-rule="evenodd" d="M79.33493042 25.4391632c-2.96386719.55183411-3.87295532 3.85610963-2.81228638 6.38342286-.41323852.33976746-1.48928833.54293823-2.37670898.19480896-1.02478027 4.7887268 4.00408935 7.19458008 10.3786621 6.89619446 6.75924683-.31822205 10.8942566-2.16592407 13.61767579-3.48834229.05026245 1.0562439-3.8602295 3.16375733-5.80801392 3.7587738 4.98565674.24884034 9.47164917-2.62254333 11.19491577-4.40333557 1.00177002-.9080963.70791626-1.87547302.58154297-2.2915039-.04077148-.1341858-.06408691-.2110138-.02090454-.2099762-2.9810791-4.40982055-9.80978393-4.23268127-15.5415039-4.08401489-5.00909424.12992859-9.1803589.23812866-9.21337891-2.75602722z"/>
          <path fill="rgb(175,73,53)" fill-rule="evenodd" d="M111.19967651 48.51278687c-7.13146972 3.7003479-9.43624878-3.95556641-9.18835449-5.6585083.22097778-1.5428772 1.1388855-5.83134461 1.61062622-10.49435425 5.46414185 1.96990966 4.83157349 5.75506591 4.25601197 9.1989746-.52841187 3.16198731-1.00875855 6.0362854 3.3217163 6.95388795z"/>
          <path fill="rgb(249,254,255)" fill-rule="evenodd" d="M83.29607587 49.46354402c1.1106049 1.67036492 1.06527409 3.56797592.19265595 4.32758667-1.31848917 1.14260181-4.53308123 1.5928464-5.80801032.07999629-1.23172317-1.46718852-.7901019-4.25643954 1.06244091-5.52859286 1.61915995-1.11216075 3.47913985-.497676 4.55503834 1.1210099h-.00212488z"/>
          <path fill="rgb(168,80,56)" fill-rule="evenodd" d="M77.25857831 49.24585501c1.3616951-2.72872286 4.96620297-1.98220885 6.07255811.27255372-1.1106049-1.67036492-3.04814298-2.10963656-4.54405978-1.08171969-.92467774.63713856-1.5547052 1.7266455-1.68219812 2.91455494-.1041192.9457968.13209682 1.99282782.64738067 2.60094118-.578322-.38723866-1.49839584-2.70040559-.49368088-4.70774601v.00141586z"/>
          <path fill="rgb(117,41,18)" fill-rule="evenodd" d="M81.72295503 50.86454091c.47845255 1.17056512.0354147 2.54855424-.98488273 3.07490148-1.02029742.52634724-2.23643812.00637138-2.71489068-1.16808736s-.0354147-2.54855423.98488273-3.07490147c1.02029742-.52634725 2.23643812-.0042476 2.71489068 1.16808735z"/>
          <path fill="rgb(254,255,254)" fill-rule="evenodd" d="M81.54765228 50.6645502c.1342217.3245867.0106244.70793173-.27269317.8544736-.28331758.14654187-.62152794.0021238-.75362476-.3245867s-.0106244-.70793173.27269317-.8523498c.28331758-.14441808.62152794 0 .75362476.3224629z"/>
          <path fill="rgb(249,254,255)" fill-rule="evenodd" d="M91.72512793 48.76198367c-1.14956107 1.897611-.87651376 3.90141177.26631852 4.60155625 1.72327916 1.05835794 5.6592686 1.16808736 7.0209637-.58191988 1.32273894-1.6923108.46570327-4.593769-1.91593511-5.72787564-2.08273834-.99322821-4.25826318-.1295515-5.37134711 1.70753134v.00070793z"/>
          <path fill="rgb(168,80,56)" fill-rule="evenodd" d="M98.98974474 47.84061052c-1.96126592-2.73084665-6.22838277-1.52771667-7.30463542.98437908 1.14956107-1.89548721 3.43522562-2.58147306 5.36284758-1.66363957 1.19064212.56634538 2.07600955 1.6466492 2.3681808 2.88871543.23621603.98898062.0708294 2.12379519-.47597353 2.82606347.64702651-.4760841 1.4913129-3.02923988.04958057-5.03516444v-.00035397z"/>
          <path fill="rgb(117,41,18)" fill-rule="evenodd" d="M96.4802593 50.12475225c.56967773 1.24236779.0240388 2.711096-1.21882587 3.28078493-1.24286467.56968891-2.7124772.02468669-3.28276022-1.21740364-.57028303-1.24209033-.02535984-2.71108399 1.21722709-3.28137783 1.24350608-.5689964 2.71313785-.02398702 3.284359 1.21799654z"/>
          <path fill="rgb(254,255,254)" fill-rule="evenodd" d="M96.26883357 49.91555843c.11613094.25249413.06864371.55004649-.12031705.75389994-.18896077.20385346-.4821795.27385935-.74291996.17737195-.26074046-.09648741-.43765018-.34046506-.44823111-.61815923-.01058093-.27769416.14725082-.53441337.39989381-.65044213.3449481-.15777746.75259485-.00692715.9115743.33732947z"/>
          <path fill="rgb(114,34,26)" fill-rule="evenodd" d="M76.09485136 44.71509193c-.1411644.01853054-.28306596-.02839818-.3853119-.12742771-.20880086-.19870294-.23660223-.52182349-.0648089-.75323936 1.25120125-1.6229335 3.80389262-2.37794269 6.05945468-1.8002704.26419364.07079318.43524662.35715156.37893726.64492581-.05630937.28777425-.31873228.46298735-.58009274.3960878-1.89220727-.48280943-4.08543946.14477204-5.1029037 1.46046317-.07374596.0981117-.18364567.16271804-.3052747.1794607z"/>
          <path fill="rgb(114,34,26)" fill-rule="evenodd" d="M99.70228845 42.75624483c.23933129-.00246821.4525754-.15159744.53690666-.37547798.08433125-.22388055.02243422-.47654388-.15584452-.63615646-1.747007-1.53833565-4.86668767-1.94681226-7.41725416-.97800769-.29954604.11416613-.4497788.44942193-.33555425.74881479.11422454.29939286.44965187.44954879.74919791.33538266 2.13692283-.8141215 4.8163988-.48705703 6.23511157.76385833.10751138.09290375.24532483.14326681.38743679.14158635z"/>
          <path fill="rgb(67,163,201)" fill-rule="evenodd" d="M84.64466754 75.67684016c-.1168685 3.42745147-.44587104 8.28527901-.75752037 16.18367333h19.2269932c-.34423086-3.2695827-1.23632708-11.93395915-1.52283198-16.8155024-3.50605501.03044106-13.86237488.36777053-16.94522427.63182907h-.00141658z"/>
          <path fill="rgb(186,235,244)" fill-rule="evenodd" d="M99.15829468 74.88076782l.06091308 1.80026245-.0007019-.0021057c.0012207.04562377.02056885.0888977.053833.12017821.03323365.03131104.0776062.04806519.1232605.04653931l1.10385132-.0354004c.09375-.00476073.16671753-.0831909.16470337-.17700194l-.05844116-1.80026246.63745117-.02157592c.09475708-.0032959.16918946-.08224488.16680908-.17700196l-.03897094-1.17941284c-.00164795-.04525757-.02124024-.08798218-.05444336-.11880493-.03323364-.03079224-.07733155-.04714966-.12261963-.04544067L98.60229492 73.375c-.04528808.00164795-.08804321.02124023-.11886596.05444336-.03082276.03320312-.04718018.0772705-.0454712.12252808l.03897095 1.17941284c.00543213.09371948.0831604.16690063.17706299.16671753l.50430298-.01733399zm1.14575195-.32946777c-.03082275.03286743-.04730225.07666016-.04577637.1217041l.05880738 1.80026245-.76211548.02584839-.0605774-1.80029297c-.00137329-.04534912-.02087402-.08825683-.0541687-.11914062-.03326416-.03085328-.07754516-.04708863-.12289428-.04510498l-.50253296.01489257-.02798462-.83502197 2.24493408-.07574463.02832031.83712769-.63745117.02194214c-.04507446.0014038-.08770752.0206604-.11856079.05352783z"/>
          <path fill="rgb(67,163,201)" fill-rule="evenodd" d="M100.89045154 73.73498342c.00849952-.18830984-.02160297-3.7414192.58682153-6.32501605l-1.98534792-.13415307c-.75574964 2.73297045-.60204985 6.32501605-.61054938 6.52394487l2.00907577-.06477575z"/>
          <path fill="rgb(240,252,255)" fill-rule="evenodd" d="M100.68540044 76.67643976c-.05573781.43546736-.45408137.74334849-.88978124.68771504-.43569986-.05563344-.74380791-.45371965-.68822191-.88920639.055586-.43548674.4538222-.74350658.88954144-.68802487.43561892.05605917.7436151.45400083.68846171.88951622z"/>
          <path fill="rgb(186,235,244)" fill-rule="evenodd" d="M85.40148926 74.92749023l.05844116 1.80029297.00210571.00177002c.00564575.0935669.08328247.16653443.1770935.16635132l1.10421754-.03894043c.04544067-.00128174.08847046-.02075195.1194458-.05401611.03094482-.03326416.04724121-.07757569.04522705-.12295532l-.05877686-1.80029297.63745118-.02157593c.09362793-.00561524.16662597-.08325195.16647338-.17697144l-.03897094-1.17730713c-.00402832-.09436035-.08258057-.16833496-.177063-.16671752l-2.59130858.08459472c-.0939026.00439453-.16708374.08303833-.16467286.17700196l.03897095 1.17941284c.00561524.0935669.08328247.16653442.17706299.16635132l.50430298-.0169983zm1.26428222-.38476562c-.09375.00476074-.16671752.08319092-.16467285.17697143l.05914307 1.80099488-.76177979.02584839-.06091308-1.80029297c-.0036316-.09420777-.0827942-.16778565-.17706299-.1645813l-.50219727.01309204-.0283203-.83288574 2.24530028-.07574463.0279541.83712768-.63745117.01947022z"/>
          <path fill="rgb(67,163,201)" fill-rule="evenodd" d="M87.1332583 73.78347674c.00849953-.19043363-.0995153-3.39488661.50855505-5.97848347l-2.05865634.15574498c-.75362475 2.73297045-.45047495 5.68858543-.46039106 5.88786821l2.01049235-.06512972z"/>
          <path fill="rgb(240,252,255)" fill-rule="evenodd" d="M86.92679062 76.72280929c-.0403414.31876927-.26893557.58180938-.5790838.66634365-.31014824.08453426-.6406971-.02610534-.83735953-.28027665-.19666242-.2541713-.2206615-.60175811-.06079541-.8805207.15986608-.2787626.47207573-.433736.7909019-.39258476.2087058.02665444.39826845.1350864.5269829.3014401.12871447.1663537.18603616.3770011.15935394.58559836z"/>
          <path fill="rgb(0,95,132)" fill-rule="evenodd" d="M95.85021973 79.52658081c.47305298-.03045654.91290283.2437439 1.09362793.68173218.0444641.1095581.15472412.17782593.27267456.16885376.02963257-.00045777.05892944-.00634766.08642578-.0173645.13922119-.0604248.20605469-.2197876.1515808-.36138916-.27056884-.65557862-.92810058-1.06680298-1.6362915-1.02331543-.70822143.04351806-1.3104248.53210449-1.4986267 1.21588134-.01956177.07058716-.01025391.14605713.0258789.20980835.03613281.0637207.09613037.11047364.16677857.13000489.14648437.03521728.29495239-.05032349.3378601-.19470215.1277771-.45455933.52865601-.77905274 1.00009156-.80950928zM88.3554077 80.5531006c-.03564453.09738159-.01382446.20651245.05651856.28274536.07034302.0762329.17739868.10675049.27740478.07910156.1000061-.02764893.17614747-.10882568.19729615-.21035767.12661743-.45617675.52871704-.78189087 1.00143432-.81118774.47271729-.02929688.91201783.2442627 1.09405518.68127441.04440308.10964966.1546936.177948.27270508.16885376.03036499-.00247192.06027221-.00900268.08886718-.01947021.06777955-.02804566.121521-.08206177.14920044-.14996338.02767945-.06790161.02700806-.14404297-.00186157-.2114563-.2734375-.6524353-.92974853-1.06069946-1.63616943-1.01782226-.7064209.0428772-1.30844116.52755737-1.5008545 1.20828247h.00140381zm1.84439087 3.2175293c-.04214477-.06817628-.02200317-.15753175.04534913-.20104981l.00177001.00177002c.03237916-.02194214.0723877-.0295105.11056519-.02093506.03814697.00857544.07107544.03256225.09094238.06625366.3204956.49978638.7189026.69906616 1.16479492.58651734.56271363-.1362915 1.07589722-.73803711 1.21221924-1.21835328-.3374939-.07116699-.83685302-.33981323-.87225341-.64245605-.0715332-.59750366 1.95275878-.7206726 2.01119995-.12564087.02584839.29412842-.39630127.59924316-.72528077.72702026.19900513.45874024.73590088.9564209 1.29901124 1.03216553.45684814.06054688.8527832-.17306518 1.15167236-.694458.0187378-.0335083.05029297-.05795289.08740234-.06774903.0371399-.00982666.07666016-.0041504.10949707.01571655.06869507.04016114.09210205.12820435.0524292.19714356-.44799805.78793335-1.02172851.88952636-1.44174194.83535766-.5953064-.07788086-1.1541748-.53448486-1.44207764-1.00598144-.23162842.52566528-.77062988 1.08172607-1.3748169 1.23110962-.0737915.01730346-.14910888.02749633-.22488403.03042602-.48303222.03009033-.92218017-.22723388-1.25579834-.74685669z"/>
          <path fill="rgb(224,149,108)" fill-rule="evenodd" d="M87.15450712 83.52921892c-.2231126.8201389 1.3964015 1.60983675 2.67345548 1.28525006 1.27705398-.3245867 3.25425652-1.5057708 3.03114393-2.38856167-.76849893-.51077274-5.24774982-.57802625-5.70459941 1.1033116z"/>
          <path fill="rgb(255,193,159)" fill-rule="evenodd" d="M97.16163808 89.2326709c-.34635574.09061527-1.82491934-4.24546658-1.48741728-4.36687687 5.04199043-1.80876558 12.57221747-5.23409326 14.20412671-5.96113915 0 0 1.2515554 3.71947332-.3679587 6.22519768-1.29051156 1.99742938-7.76998454 2.90605976-12.34910488 4.10281835h.00035415z"/>
          <path fill="rgb(255,193,159)" fill-rule="evenodd" d="M17.5848137 68.19010813c-.4441003-.33768343 3.2624019-5.05286273 3.74970813-4.77853918 6.93844745 3.86884691 17.55966926 9.93617581 19.7766293 11.137182-2.46132145 4.13290544-3.28612975 5.00720113-6.0272273 4.44014781-3.57050976-.73908073-11.3819295-6.16608538-17.49911013-10.79879063z"/>
          <path fill="rgb(224,149,108)" fill-rule="evenodd" d="M8.8862558 60.29242174c-3.76918622-1.1790603-7.00148562-1.54045944-7.96830685-.2053002 1.94426687.91747952 13.35346569 5.0263153 18.64902534 6.8315412.64100602.21839694 2.06113538-3.06605232 1.36381999-3.86035172-.1816774-2.89083923-4.9166224-4.11768492-9.14690797-7.31151892-.75964525-.57130091-1.2395144.71607294-.53122045 1.81088936.93530215 1.4455966 2.20633563 2.45192156 2.79776107 3.3888692.8180795 1.30471818-4.10279266-.3245867-5.16133796-.65589875l-.00283317.00176983z"/>
          <path fill="rgb(224,149,108)" fill-rule="evenodd" d="M0 62.95141332c2.29699725.64067822 8.5515869 2.22007391 15.0423926 4.20015896 1.92018487.58652144 2.72693167-2.35210317 1.97649424-2.60094118C13.14593556 63.27387623 1.46156454 59.89845773 0 62.95141332z"/>
          <path fill="rgb(255,193,159)" fill-rule="evenodd" d="M1.18780894 63.69969716c2.262645.7507616 10.51320698 2.92552788 16.89528955 4.7431426 3.21742523.91535573 6.47770224-4.30174716 2.74322243-6.58695079-2.238563-1.36949393-6.52090817.49555221-8.3004967 1.85867476-3.84922343-.7051-10.50860307-1.4756837-11.33801528-.01486657z"/>
          <path fill="rgb(255,193,159)" fill-rule="evenodd" d="M107.45704467 77.73515166c2.1110701-1.10154177 4.07269017-2.34113023 4.63932532-3.14180102.71431444-1.00420116-.65835922-1.44772039-.43312174-1.95636934.78585213-1.7503612-.8896172-1.51461994-.61479914-2.11388415.41151878-.8958876-.83578686-2.03636562-.78797701-2.39316321.15582466-1.16808736-1.99597233-.82013891-2.97695944-.8700481-.60204985.02831727-.74016717-.15999257-2.3554315.2229985-1.29015742.30724237-4.32555111 2.5446606-4.32980087 2.9687117-.00885368 1.04313741 2.87921487-.15574497 4.08296042-.54298363.41789343-.13415306 1.7190294-.18618604 2.52010985-.10618976-.85738982.59289283-2.5718153 1.31993871-3.17174027 1.67496648-1.15593572.68598584-3.84497367 1.86079855-3.85772296 2.73934183-.01097855.68810964 1.82704423.30724237 3.98557001-.52139172.5216585-.20140658 2.4790288-.88951622 3.76706134-1.30471818.02160296.04955522-2.71064092 1.74186602-3.13278411 1.89088565-1.25368028.445997-2.98970873.9001352-3.23442429 2.19458837-.0648089.35396587 2.89656808.0736249 4.15874788-.49342842.56663516-.2509618 1.8252735-.76138057 3.28223413-1.52771667-.7532706.62758148-2.2559162 1.6229335-2.57429433 1.82858766-1.95701616.3960878-2.73436876.61873233-2.93339936 1.58824484-.06055913.29874719 2.96173112.38723866 3.96644607-.13627686v-.00035397z"/>
          <path fill="rgb(237,237,237)" fill-rule="evenodd" d="M93.68320653 93.110013L63.6334819 91.3833675c-.4373715-.01946811-.80957997-.36352294-.88111766-.81412148l-5.34301535-21.2860913c-.08889089-.56032796.8007263-1.38896205 1.34859167-1.36524634l31.77725356 1.3740955c.4373715.01946812.80957997.36352294.88111766.81412148l3.4033524 21.51546118c.08889088.56245176-.5910713 1.51674373-1.13645764 1.49055026v-.0021238z"/>
          <path fill="rgb(201,201,201)" fill-rule="evenodd" d="M93.37439037 93.38823017l-30.20094539-1.3563972c-.43524663-.01982208-.80957998-.3638769-.87899278-.81412149l-4.9814313-21.53138963c-.08889089-.56280573.32439863-1.05163259.872264-1.03004067l31.77725355 1.37621928c.43737151.01946813.80957998.36352295.88111767.8141215l3.40335239 21.5129834c.08889089.56245177-.32475277 1.05375639-.87261814 1.0296867v-.00106189z"/>
          <g opacity=".28">
            <g>
              <use fill="none" xlink:href="#path-94"/>
              <g mask="url(#mask-95)">
                <path fill="rgb(255,255,255)" fill-rule="evenodd" d="M81.95137982 69.68632185l-4.02913009-.1752131 9.65333814 23.62686755 4.02913009.17308931-9.65333814-23.62474376z"/>
              </g>
            </g>
          </g>
          <g opacity=".28">
            <g>
              <use fill="none" xlink:href="#path-97"/>
              <g mask="url(#mask-98)">
                <path fill="rgb(255,255,255)" fill-rule="evenodd" d="M93.83265655 89.739904l.41328952 2.6193474c.0708294.42475904-.15369979.80704217-.5021804.95853956l-9.61473612-23.53908402 1.5780789.07079317 8.1255481 19.89040388z"/>
              </g>
            </g>
          </g>
          <path fill="rgb(239,239,239)" fill-rule="evenodd" d="M69.29345879 81.53037367c.00637464 1.5751481-1.21649485 2.79633034-2.73649365 2.73084666-1.5199988-.06548369-2.75384685-1.39568741-2.76234637-2.96658792-.00849953-1.57090051 1.21861972-2.79633034 2.73861852-2.73084665 1.5199988.06548368 2.75172197 1.3935636 2.7602215 2.96658791z"/>
          <g opacity=".28">
            <g>
              <use fill="none" xlink:href="#path-101"/>
              <g mask="url(#mask-102)">
                <path fill="rgb(255,255,255)" fill-rule="evenodd" d="M68.5954351 92.3157136l1.4158796.06052816L60.35797656 68.751498l-1.41587959-.06052817 9.65333814 23.62474377z"/>
              </g>
            </g>
          </g>
          <g opacity=".19">
            <g>
              <use fill="none" xlink:href="#path-104"/>
              <g mask="url(#mask-105)">
                <path fill="rgb(0,0,0)" fill-rule="evenodd" d="M96.27627065 84.0406996c-.65588019-.41343214-1.87697894-1.14684941-3.91863623-1.79389901-.05843425-.01946813-1.85962575.61236094-3.08709915 1.22684569-1.11520881.55820417-3.73908372 2.0448608-3.80389261 2.46466432-.02988268.18343293.02185679.3707633.14165879.51289654.44374615.55183278 1.06739897.63182907 1.72540404.49342841-.2638395.23786507-.4568496.47360633-.50643017.67501291-.04446182.15729777-.01585716.32623888.07791233.46015563.5216585.74332831 1.0932517.78969784 1.72327916.58864523-.09097225.18665318-.12555365.39575752-.0995153.60174197.0156819.15160855.09415374.2897305.2163838.38086727.23586189.18193846.63215235.21662711 1.33796726.14158635-.08205591.17767254-.12562323.37066994-.12784706.56634538.00201267.117546.0475649.2301702.12784706.31609152.06728793.07079317 1.67369859.17698293 2.82750942.09309302.07366257-.01522053 1.09962634-.42475903 1.18639235-.4675889-.14732514-.41307817-.19690572-1.88026668.12324315-2.18963285.95619682-.93057626 2.0568856-4.07060745 2.0568856-4.07060745l-.00106244.00035396z"/>
              </g>
            </g>
          </g>
          <path fill="rgb(255,193,159)" fill-rule="evenodd" d="M91.2558832 87.78530448c-.7380423.18583208-2.43759361.47148254-2.33737002 1.44524263.03895617.4024592 1.57382914.13202927 3.04566395-.10795959.491556-.08035025.60204985-.27927906 1.92018488-.83960703.07791233.11256115-.49120185.59501662-1.34009214.94756662-.46039106.19043364-2.15604676-.08849146-2.19571122 1.14260182-.0067288.21237952 2.0869881.18618604 2.57818995.1730893.78160237-.01734432 4.89714432-1.37621928 5.0855505-1.5574498.78797701-.7705837.9416768-1.95636934.23586189-3.25471614-.67287925-.95570783-3.34031423-2.8257095-5.54204595-3.39488661-1.47643872.34405482-2.43121896.74332832-3.43522562 1.13587646-2.4790288 1.6229335-3.72350125 2.28060207-3.35766743 2.73084665.87438887 1.0753483 2.84450847-.27042992 3.93103138-.83748324.90059574-.37874347 1.96162007-.61660853 2.48540344-.7008524.16467834.18370828-1.47643872.65554477-2.35118174 1.026501-.69908612.34830241-3.05026786 1.73761844-2.74959709 2.16379334.80533022 1.1447256 1.63899219.1472498 3.54642777-.5776723.77699846-.23786506 2.2686655-.53661225 2.39651255-.46015562-.07366257.24246662-.51315896.38511486-1.91239364.96526491h-.00354147z"/>
        </g>
      </g>
    </g>
  </g>
</svg>
