<svg xmlns="http://www.w3.org/2000/svg" xmlns:xlink="http://www.w3.org/1999/xlink" width="226.004" height="239.646" viewBox="0 0 226.004 239.646">
  <defs>
    <rect id="rect-1" width="226.004" height="239.646" x="0" y="0"/>
    <mask id="mask-2" maskContentUnits="userSpaceOnUse" maskUnits="userSpaceOnUse">
      <rect width="226.004" height="239.646" x="0" y="0" fill="black"/>
      <use fill="white" xlink:href="#rect-1"/>
    </mask>
    <path id="path-80" fill-rule="evenodd" d="M82.73999023 126.48399287c-10.02662658 0-18.16699218 8.1403656-18.16699218 18.16699219 0 10.02664184 8.1403656 18.16700745 18.16699218 18.16700745 10.02664185 0 18.16700745-8.1403656 18.16700745-18.16700745 0-10.02662659-8.1403656-18.16699219-18.16700745-18.16699219z"/>
    <mask id="mask-81" maskContentUnits="userSpaceOnUse" maskUnits="userSpaceOnUse">
      <rect width="226.004" height="239.646" x="0" y="0" fill="black"/>
      <use fill="white" xlink:href="#path-80"/>
    </mask>
  </defs>
  <g>
    <use fill="none" xlink:href="#rect-1"/>
    <g mask="url(#mask-2)">
      <g>
        <path fill="rgb(112,29,27)" fill-rule="evenodd" d="M194.13 164.723c2.673 2.109 8.146 4.24 9.771.313-7.992-9.128-9.758-15.055-.581-24.659 8.565-8.807 16.385-14.672 16.429-28.239-.247-6.605-13.237-20.577-20.339-14.8l-1.026 13.862c-.8 8.516-10.78 14.721-16.808 19.749-7.367 5.962-11.009 12.1-12.052 21.986-.9 7.8 3.915 16.367 9.287 21.757 9.992 9.695 13.963-2.247 15.319-9.969z"/>
        <path fill="rgb(112,29,27)" fill-rule="evenodd" d="M209.995 91.976c-.00848237-10.34063383-5.17390441-19.99579136-13.77140475-25.74137818C187.62609491 60.48903499 176.7293307 59.41006258 167.172 63.358c-12.34418877.55606516-23.17762716 8.39409132-27.5670987 19.9448811-4.38947153 11.55078977-1.4955511 24.605416 7.36395845 33.2192012C155.8283693 125.1358675 168.95921054 127.66154558 180.382 122.949c16.5705306-.7329131 29.62438212-14.38627288 29.613-30.973z"/>
        <path fill="rgb(233,153,177)" fill-rule="evenodd" d="M128.964 225.788c1.56009646-2.0051625 2.96039687-4.12968704 4.188-6.354.84263668-1.69509845 2.4370664-2.89203313 4.3-3.228 2.224-.207 3.545 1.867 3.963 3.818.418 1.951-.616 4.4-2.294 6.526-2.2 2.787-5.469 5.117-7.864 5.469-1.0935755.19537279-2.22102062-.0011511-3.184-.555-1.273-.806-1.237-2.382-.608-3.642.4197696-.73339927.92276272-1.41591294 1.499-2.034z"/>
        <path fill="rgb(255,238,226)" fill-rule="evenodd" d="M128.044 194.774c3.135-5.843 7.86-19.767 13.034-21.449 2.77 3.219 8.684 9.564 9.423 13.1-5.284 4.844-10.066 10.718-14.919 14.254.973 1.819 2.677 3.241 3.646 7.186.47126286 3.15479282.4860814 6.36098584.044 9.52-1.413 3.963-3.276 3.915-4.769 3.179-1.581-.779-1.458-3.923-2.285-6.407-.93065983-2.78750013-2.13101033-5.47757135-3.584-8.032-1.48-3.359-3.135-6.6-.59-11.351z"/>
        <path fill="rgb(252,214,189)" fill-rule="evenodd" d="M150.501 186.425c-.74-3.523-6.654-9.881-9.423-13.1-4.108 1.321-7.926 10.388-10.9 16.984 2 3 4.448 6.46 6.8 9.287 4.377-3.558 8.754-8.785 13.523-13.171z"/>
        <path fill="rgb(233,153,177)" fill-rule="evenodd" d="M196.649 211.344c-2.10655463-1.39593092-4.31435288-2.63269905-6.605-3.7-1.62-.837-3.175-2.1-3.487-3.849-.357-2 1.607-3.228 3.523-3.637 1.916-.409 4.4.5 6.605 1.986 2.911 1.951 5.438 4.875 5.953 7.046.26959492.96981968.14937197 2.00660811-.335 2.889-.713 1.158-2.277 1.149-3.567.6-.74086007-.37004892-1.44043094-.81754634-2.087-1.335z"/>
        <path fill="rgb(255,238,226)" fill-rule="evenodd" d="M166.653 209.807c-3.963-6.165-5.724-14.21-5.685-21.009 3.6917779-2.19520401 8.01062578-3.09543322 12.272-2.558 2.7 4.368 2.118 12.255-.26 17.42 1.867-.682 3.386-2.065 7.363-2.519 3.17536382-.09211146 6.34916942.23061424 9.441.96 3.862 1.682 3.677 3.347 2.858 4.61-.881 1.321-3.985.881-6.5 1.383-2.79866196.53770423-5.54068463 1.33687494-8.19 2.387-3.43.969-8.503 3.611-11.299-.674z"/>
        <path fill="rgb(252,214,189)" fill-rule="evenodd" d="M173.238 186.241c-4.26163065-.54389697-8.58256946.35676808-12.272 2.558-.035 6.8 1.717 14.862 5.685 21.009 2.083-3.223 5.148-7.345 7.834-10.832.943-4.505.723-9.543-1.247-12.735z"/>
        <path fill="rgb(47,99,142)" fill-rule="evenodd" d="M145.147 164.836c8.234.207 11.356 2.576 19.045 6.09 3.426 1.563 9.278-.643 12.391 1.321-.057 5.879 2.44 21.766 2.426 27.741-2.22488233 1.4689984-4.76575121 2.3907701-7.415 2.69-.815.066-9.837 1.2-11.836-1.96-1.163-2.558-1.885-8.846-3-12.241-.035-.106-.2-.128-.247-.225-3.963-8.366-14.06 8.679-14.06 8.679s-6.143-1.462-7.807-2.492c-7.706-4.8-6.887-6.856-6.887-6.856s14.087-21.228 17.39-22.747z"/>
        <path fill="rgb(180,222,226)" fill-rule="evenodd" d="M130.294 184.4c-.71675157 1.1590393-1.56983528 2.22799582-2.541 3.184-.97116472.95600418-.81 2.061 6.9 6.843 1.665 1.03 7.807 2.492 7.807 2.492s.912-1.541 2.3-3.47c-5.17183073-2.41722877-10.02966869-5.45598003-14.466-9.049z"/>
        <path fill="rgb(180,222,226)" fill-rule="evenodd" d="M158.726 197.218c.23570864 1.19145153.58049398 2.35870055 1.03 3.487 2 3.157 11.009 2.026 11.836 1.96 2.6514116-.29063862 5.19431852-1.21349264 7.415-2.691 0-.586-.251-2.343-.291-3.082-7.418.951-16.362.872-19.99.326z"/>
        <path fill="rgb(255,238,226)" fill-rule="evenodd" d="M181.254 153.158c7.3080685.90560203 14.69661445.95895984 22.017.159 6.26896415-.9911292 12.44578725-2.49620306 18.468-4.5l-1.66-2.7s-8.036-.762-17.129-1.673c-5.41242503-.59823491-10.87035232-.66622456-16.296-.203l-5.4 8.917z"/>
        <path fill="rgb(255,238,226)" fill-rule="evenodd" d="M219.696 151.419c-.7690255-.3364564-1.51351723-.72641234-2.228-1.167l.44-3.452c.84965973-.63223836 1.73150864-1.22002636 2.642-1.761.735-.44 1.761.159 1.352.881-.2842113.48823-.66292929.91488267-1.114 1.255-.176.159.057.321.286.233 2.748-1.083 4.381-1.7 4.905 1.268.229 1.321-1.18 2.387-2.158 2.809-1.31517216.59843234-2.82964597.57420076-4.125-.066z"/>
        <path fill="rgb(252,214,189)" fill-rule="evenodd" d="M181.871 152.137l.2 1.123c5.81302726.66148777 11.67308799.80872547 17.512.44-.189-2.285-.881-6.759-1.374-9.6-3.8600834-.23847952-7.73261968-.1870017-11.585.154l-4.753 7.883z"/>
        <path fill="rgb(233,153,177)" fill-rule="evenodd" d="M198.458 142.558s-2.8 11.273-3.329 12.453c-.529 1.18-19.076 1.546-19.551 1.132l3.047-18.565c8.917 1.03 19.833 4.98 19.833 4.98z"/>
        <g>
          <path fill="rgb(255,238,226)" fill-rule="evenodd" d="M151.1807608 144.99899919c-7.35727902-.14441484-14.67299649-1.14148647-21.80057808-2.97123803-6.06787275-1.876505-11.97098303-4.24930843-17.64953464-7.09437475l2.03342802-2.4342433s8.06762938.40123336 17.19296053.7789943c5.4487604.18780089 10.86677555.89986002 16.17903102 2.12631867l4.04469315 9.5945431z"/>
          <path fill="rgb(255,238,226)" fill-rule="evenodd" d="M113.37939723 137.81075693c.80909637-.22364685 1.60139777-.50412432 2.37099784-.83934155l.02968837-3.48428351c-.74961979-.74841628-1.53679379-1.4582491-2.35847576-2.12675154-.66211417-.52560995-1.75031178-.08954693-1.46375158.68937749.2160169.52210423.53516056.99525395.93832599 1.39112485.15464293.18277189-.09956594.30840172-.30259867.20410547-2.5725466-1.4516229-4.09429397-2.30568491-5.04290287.55480773-.40836501 1.26333844.8327384 2.53467251 1.73434024 3.08450351 1.2162826.78198873 2.71983073.97531592 4.09437644.52645755z"/>
          <path fill="rgb(252,214,189)" fill-rule="evenodd" d="M150.73393563 143.88840013l-.37039175 1.10504116c-5.84773914-.17903004-11.66822743-.8743559-17.39358013-2.07786797.51296088-2.23131556 1.84886763-6.55805592 2.7259712-9.30638802 3.8536271.30946085 7.67833778.90987309 11.44142246 1.7961019l3.59657822 8.48311293z"/>
          <path fill="rgb(233,153,177)" fill-rule="evenodd" d="M135.66446533 132.06796844s1.17277409 11.55821466 1.51419674 12.78865221c.34142265 1.23043755 18.6611341 4.23964314 19.19349317 3.90227418l-.37326536-18.80647554c-8.98089023-.23515021-20.33442455 2.11554915-20.33442455 2.11554915z"/>
        </g>
        <path fill="rgb(238,207,227)" fill-rule="evenodd" d="M179.876 166.839c.167-14.734 2.475-24.831-.484-30.251-1.427-2.642-8.706-4.844-11.7-5.6-2.875-.735-10.771-2.2-12.537 0-5.539 6.993-7.27 17.314-11.4 30.062 5.83 4.729 6.772 6.605 16.1 8.521 6.15563687 1.41066424 12.58678373 1.02542015 18.53-1.11.007.016 1.469.091 1.491-1.622z"/>
        <path fill="rgb(233,153,177)" fill-rule="evenodd" d="M173.464 134.073c-1.07564127 2.97369509-4.28112399 4.59528192-7.314 3.7-2.7-.951-4.355-4.8-3.272-7.869l2.717-4.646c1.083-3.082 3.677-4.9 6.372-3.963 2.695.956 3.056 3.963 1.973 7.045l-.476 5.733z"/>
        <path fill="rgb(255,238,226)" fill-rule="evenodd" d="M173.403 132.664c-.94652267 2.67485446-3.88176527 4.07644735-6.557 3.131-1.28397342-.45445326-2.3347422-1.40048914-2.92102181-2.62987587-.58627962-1.22938672-.6600157-2.64135765-.20497819-3.92512413l1.651-4.681c.94829607-2.67325812 3.88189188-4.07406466 6.557-3.131 2.67485446.94652267 4.07644735 3.88176527 3.131 6.557l-1.656 4.679z"/>
        <path fill="rgb(252,214,189)" fill-rule="evenodd" d="M174.376 129.899c-.45347955 1.28417384-1.39861455 2.33555037-2.6274099 2.92275401-1.22879536.58720364-2.64055356.66211414-3.9245901.20824599-1.28727158-.45334794-2.3410629-1.40058124-2.92855815-2.63242611-.58749525-1.23184488-.66034047-2.64691401-.20244185-3.93257389l1.651-4.676c.45374384-1.28526986 1.39949722-2.33763575 2.62918693-2.92556883 1.22968971-.58793309 2.64257613-.66326825 3.92781307-.20943117 2.67485446.94652267 4.07644735 3.88176527 3.131 6.557l-1.656 4.688z"/>
        <path fill="rgb(255,238,226)" fill-rule="evenodd" d="M139.919 100.801c-2.972 2.4-1.761 9.278 3.941 11.638 3.386 1.4 5.253.9 5.253.9l-.625-9.776s-4.113-6.359-8.569-2.762z"/>
        <path fill="rgb(252,214,189)" fill-rule="evenodd" d="M142.755 103.721c-1.924 1.55-1.149 6 2.55 7.53 1.05404889.51622523 2.23395434.7195854 3.4.586l-.405-6.332s-2.661-4.113-5.545-1.784z"/>
        <path fill="rgb(255,238,226)" fill-rule="evenodd" d="M204.61 102.805c2.8 2.6 1.136 9.379-4.734 11.343-3.47 1.163-5.284.542-5.284.542l1.286-9.718s4.531-6.06 8.732-2.167z"/>
        <path fill="rgb(252,214,189)" fill-rule="evenodd" d="M201.58 105.526c1.81 1.678.735 6.068-3.082 7.336-1.08076044.45863398-2.27455975.58128937-3.426.352l.832-6.288s2.955-3.923 5.676-1.4z"/>
        <path fill="rgb(255,238,226)" fill-rule="evenodd" d="M197.388 112.176c.44-2.061 4.994-21.379-8.406-28.538-10.10061044-4.70493211-21.67982628-5.10198743-32.079-1.1-13.862 6.231-11.1 25.315-10.819 27.4.281 2.085.159 7.045 2.237 10.322 5.09 8.036 19.714 11.127 22.488 11.224.026 0 17.341-.1 24.034-9.978 2.189-3.218 2.127-7.265 2.545-9.33z"/>
        <path fill="rgb(112,29,27)" fill-rule="evenodd" d="M161.025 93.663c-4.98-1.242-9.1 2.47-9.762 4.527-.238.735.229.881.493.678 1.321-1.039 4.2-2.554 9.194-2.439.71792953-.04445672 1.28314558-.62965531 1.30264234-1.3486957.01949676-.7190404-.51317682-1.33400823-1.22764234-1.4173043z"/>
        <path fill="rgb(112,29,27)" fill-rule="evenodd" d="M182.967 94.416c5.055-.881 8.913 3.082 9.432 5.183.185.753-.291.881-.537.647-1.233-1.127-4.012-2.836-9.009-3.082-.7118831-.08948717-1.23643499-.70955512-1.20669588-1.42642406.0297391-.71686895.6038469-1.29135931 1.32069588-1.32157594z"/>
        <path fill="rgb(248,177,165)" fill-rule="evenodd" d="M157.013 115.897c-.022 1.462-1.814 2.62-3.994 2.585-2.18-.035-3.932-1.251-3.906-2.712.026-1.461 1.814-2.62 3.994-2.585 2.18.035 3.933 1.228 3.906 2.712z"/>
        <path fill="rgb(248,177,165)" fill-rule="evenodd" d="M193.774 117.164c.04-1.462-1.7-2.69-3.879-2.743-2.179-.053-3.963 1.088-4.016 2.545-.053 1.457 1.7 2.695 3.884 2.748 2.184.053 3.98-1.088 4.011-2.55z"/>
        <path fill="rgb(252,214,189)" fill-rule="evenodd" d="M173.444 114.575c-.079-.383-1-.749-2.061-.81-1.061-.061-1.854.194-1.761.572.093.378 1 .744 2.061.81 1.061.066 1.861-.189 1.761-.572z"/>
        <path fill="rgb(241,107,108)" fill-rule="evenodd" d="M176.71 119.516l-.339-.141-.172.185-.1.106c-.048.053-.1.115-.172.181l-.07.075c-.1.1-.216.211-.365.33-.079.07-.176.141-.282.22-.08844465.06851847-.18094635.13163334-.277.189l-.048.026c-.25046161.15767306-.51255053.29607205-.784.414l-.141.053c-.27851647.1116922-.56373864.20587564-.854.282-.36986556.1015891-.7464799.1767783-1.127.225-.40856717.05501174-.82155085.0697492-1.233.044-.42507468-.01712255-.8479274-.07031368-1.264-.159-.40838507-.08088147-.80966015-.19424168-1.2-.339-.363579-.13398112-.71685727-.29441023-1.057-.48-.30828718-.16222482-.60291847-.34917022-.881-.559-.079-.057-.15-.123-.22-.18l-.119-.106c-.06359653-.05662692-.12402162-.11671817-.181-.18l-.1-.093c-.14492236-.15705553-.27858731-.32413673-.4-.5-.06294052-.08000753-.11881693-.1653278-.167-.255l-.189-.317-.4.106.163.374c.0440095.10777981.09546716.21236586.154.313.11405526.2073446.24341395.40589515.387.594l.088.106.2.229.106.11c.075.079.154.159.238.233.27288.25836128.5676509.49257198.881.7.364751.23655543.74916686.44130957 1.149.612.40270903.176776.81781826.32383563 1.242.44l.1.026c.46590544.12901448.94144166.22030941 1.422.273.48373668.05741559.9712573.07647503 1.458.057.46920325-.01169173.9356876-.07507458 1.391-.189.41292733-.10564663.81101777-.26253122 1.185-.467.31756844-.17240919.61334194-.38223715.881-.625.1164056-.1055146.22378002-.22058253.321-.344l.04-.044c.08165332-.09362411.15524852-.1939812.22-.3.01811617-.03484865.03884194-.06827731.062-.1.04350175-.0643088.0832352-.1310877.119-.2l.119-.26c.056222-.10131895.10340456-.20739605.141-.317v-.079l.075-.269z"/>
        <path fill="rgb(51,53,51)" fill-rule="evenodd" d="M163.689 111.515c-.489-2.18-2.823-3.047-4.844-3.082-2.37027582.06623016-4.52960281 1.37855354-5.68 3.452-.14975084.26604478-.0805256.60176432.16225225.78686984.24277785.18510552.58484508.16297515.80174775-.05186984 2.32221902-2.27808833 5.98184546-2.45771772 8.516-.418.10222147.13448844.2571871.2187097.42564217.23132949.16845507.01261979.33423943-.04757253.45535783-.16532949.12404848-.07603091.21162399-.19946784.24240593-.3416691.03078195-.14220126.00209447-.29080534-.07940593-.4113309z"/>
        <path fill="rgb(51,53,51)" fill-rule="evenodd" d="M154.112 110.903c-1.2-.282-2.175-.22-2.083-.621.092-.401 1.5-.612 3.523-.3 1.215.189.925.559.832.96-.093.401-1.079.242-2.272-.039z"/>
        <path fill="rgb(51,53,51)" fill-rule="evenodd" d="M179.59 112.624c.471-2.2 2.8-3.082 4.844-3.131 2.37347604.04672418 4.5475256 1.33808835 5.724 3.4.15051574.26430067.08409324.59903077-.15593753.78583296-.24003077.18680219-.58082201.1689832-.80006247-.04183296-2.34093627-2.26045825-6.00353172-2.41003966-8.521-.348-.10004233.13689635-.25447561.22374993-.42342007.23813226-.16894445.01438233-.3358368-.04511662-.45757993-.16313226-.12951526-.06787982-.22545512-.1859883-.26535155-.32666576-.03989643-.14067745-.02024521-.29156781.05435155-.41733424l.001.004z"/>
        <path fill="rgb(51,53,51)" fill-rule="evenodd" d="M189.167 111.933c1.193-.3 2.171-.242 2.074-.643-.097-.401-1.506-.6-3.523-.269-1.215.2-.92.568-.823.969.097.401 1.074.233 2.272-.057z"/>
        <path fill="rgb(112,29,27)" fill-rule="evenodd" d="M191.343 88.498c-2.263 11.075-6.24 4.346-6.693-4.381-9.63 15.35-32.339 11.233-29.666 4.073 0 0-8.772-.44-8.851 20.286 0 0-8.322-35.579 20.67-34.668 29.142.916 39.842 11.8 30.947 36.35-.13940467-5.06656893-1.0845679-10.07863452-2.8-14.848-.8798003-2.42731225-2.09382718-4.72006278-3.607-6.812z"/>
        <path fill="rgb(47,99,142)" fill-rule="evenodd" d="M179.673 171.335c-.207-8.97.141-14.95-2.03-18.318-1.052-1.634-11.374-4.491-13.474-5.02-2.017-.511-12.277-2.809-13.457-1.493-3.7 4.144-5.57 9.6-8.164 17.279 5.11557253 3.62381098 10.90079722 6.19400217 17.019 7.561 5.178 1.092 10.3 2.4 13.444 1.4 0-.004 6.702-.365 6.662-1.409z"/>
        <path fill="rgb(180,222,226)" fill-rule="evenodd" d="M151.369 151.564c-.022 4.742-2.668 11.854-1.62 13.717.66 1.171 9.758 3.686 11.132 4.034 1.374.348 9.912 2.321 10.714 1.321 2.51-3.1 2.052-8 3.9-13.677-3.25554792-2.53004435-7.03200152-4.3060739-11.057-5.2-3.386-.7-6.574-2.162-8.662-1.361 0 .012-4.399.399-4.407 1.166z"/>
        <path fill="rgb(255,255,255)" fill-rule="evenodd" d="M173.284 158.609c-.12033784-.03045656-.19327587-.15261657-.163-.273l.145-.476c-.137-.1-.277-.2-.44-.3-.0487651-.03118809-.08224347-.08137009-.09231396-.13837287-.0100705-.05700277.00418702-.11561811.03931396-.16162713.08106228-.09339323.21949698-.11064366.321-.04.2.137.387.273.572.41.0757335.05338237.1077796.1499263.079.238-.066.2-.128.405-.189.608-.04128625.11013477-.15929334.17108348-.273.141l.001-.008z"/>
        <path fill="rgb(255,255,255)" fill-rule="evenodd" d="M155.05499268 152.21099788c.01782226.09057617.08642578.1626892.17601013.18499756l.00498962.0039978c.0282898.00082397.05654907-.00219727.08399964-.00898743.27853393-.04145813.55944824-.0648346.84100341-.07000732.020401.00463867.04159546.00463867.06199646 0 .15916443-.05204773.32289124-.08888245.48899842-.11000061.05796814-.0061493.11065673-.0364685.14511108-.08348084.03445435-.04702759.04748535-.10638428.03588867-.16351318-.03056335-.1217041-.14909363-.19985962-.272995-.18000794-.18367004.02642823-.36491393.06756592-.54199218.1230011-.0960083.0039978-.41400147.02600098-.8230133.06600952-.059021.00257874-.11427308.02980042-.15229798.07504273-.03800964.0452423-.05531311.10435486-.04769897.1629486zm3.70899963-.09199524c-.01646423.11779785.06001282.22860717.17601013.25498962h.0169983c.32099914.07000733.66000365.15400696 1.0079956.2420044l.3480072.09300232c.07557678.02383422.15815735.00395202.21461487-.05168152.05644226-.0556488.07749939-.13793946.05474853-.21385193-.02276611-.07592774-.08561706-.13305664-.16337585-.14846802l-.35198975-.09199524c-.352005-.09300232-.69500732-.17700195-1.02999878-.24700928-.12039184-.03027343-.2425537.04266358-.27301025.16300965zm-6.522995 1.53199768c-.10336303-.0236206-.17774963-.11402893-.18099975-.22000122v-.44000244c-.00241089-.03096009-.00241089-.06204224 0-.09300232.05699158-.2250061.32099914-.3880005.84500122-.53300476.12245178-.0365448.25256348.02633667.2999878.14500427.02163696.05422973.01847839.11521911-.00863648.16693115-.02709961.05171204-.07545471.08900452-.13235474.10206604-.48400879.13200378-.54600525.2380066-.54600525.2380066v.44000243c-.00401306.05848694-.03164673.11282349-.07652282.15054322-.04489136.03770446-.10316468.05555725-.16146851.04945373l-.03900147-.0059967zm10.34100342-.32598877c-.11965942-.026474-.19613647-.1438446-.17199707-.26400757.01618958-.05705261.05473328-.10514832.10687256-.13339233.05215454-.02822876.11349487-.03422547.17012024-.01660157.3650055.09300232.73500061.18099976 1.10501099.25999451l.2639923.05700684c.12065125.0242157.20166016.13807678.18499756.2599945-.03404235.1192627-.15684509.1897583-.2769928.15899659l-.25500488-.05699158c-.3769989-.08000183-.75100708-.17201233-1.12600708-.2649994h-.00099182zm4.93199158 1.4269867h.03100586l.00498962.0119934c.09889221.01638794.19696045-.03344726.2420044-.1230011.01982116-.0560913.01652527-.11775207-.00917053-.17141723-.02571106-.0536499-.07170105-.09487915-.12782288-.11457825-.44000244-.17100525-.88101196-.33399963-1.32099915-.48399353-.11564636-.04258728-.24424743.01397705-.29100036.12799072-.0176239.05662537-.0116272.1179657.01660156.17012024.02824402.05215454.07633972.09068298.13339233.10688782.66000367.21798706 1.32099915.47599792 1.32099915.47599792zm3.41700745 1.60699462c-.02206421-.00482178-.04307557-.01364136-.06199646-.02600097-.3999939-.22000123-.80999756-.44000245-1.22900391-.64700318-.05419922-.02275085-.09646606-.0670929-.11657715-.12232971-.02012634-.05523682-.01628113-.11637878.0105896-.16867066.06323242-.1092987.20205689-.14833068.31298828-.08799743.44000244.21099853.84500122.44000244 1.25100708.66000366.05358887.0259552.09371948.07336426.11047363.13050842.01676941.05712891.00860596.11869812-.0224762.16949463-.05125426.08666992-.15312194.1296997-.25099181.10600281l-.00401306-.01400757zm-19.10398865.7310028c-.11599732-.02638244-.19247437-.13719176-.17601013-.25500487.07901-.44000245.15000915-.84500122.21099853-1.26399231.01057434-.0589447.04470825-.11102295.09451294-.14424134.04981995-.03320312.11102295-.04467773.16949463-.0317688.12284851.0171051.21076965.12744141.19999695.25100709-.06199646.44000244-.13699341.84999084-.21099854 1.28100585-.03233337.11923218-.15211486.19250489-.272995.1669922l-.01499938-.00399781zm-.66201782 3.378006c-.11540223-.02458192-.19221497-.13412477-.17599488-.25099183.07499695-.40901184.16300965-.83700562.25100708-1.27301025.01457215-.05670166.05116272-.10527039.10165406-.13491822.05047607-.02966308.11071777-.03796386.16734314-.02307129.05992126.00646973.11442565.03770447.15031433.0861206.03588867.0484314.0499115.10964967.03868103.16886903 0 0-.13200379.65600586-.25099182 1.26800537-.01347352.05763244-.04960633.10740661-.10021973.13807678-.0506134.03067017-.11146546.0396576-.16879273.0249176l-.01300048-.0039978zm21.18600463 1.21499633c-.01622009.11686706.06059266.22642517.17599488.25100708l.01701355-.0019989c.05787658.01463318.11923218.0051117.16995239-.02638245.05073547-.03149414.08647156-.08226013.0990448-.140625.07099915-.40899658.1499939-.81900024.23799133-1.25900268.01759339-.12197876-.06204223-.23683167-.1824646-.26312256-.1204071-.0262909-.24067688.04490661-.27552795.16313171-.08799744.43598938-.16700745.83699036-.2420044 1.2769928zm-21.42399597 2.21099853c-.08375549-.01863098-.15100097-.08091735-.17599487-.16300964-.09387207-.44726562-.11749268-.90644836-.07000732-1.36099243.00666809-.05827332.03675842-.11134339.0833435-.14698792.04658508-.03564453.10566712-.05081176.16366577-.04200744.12435913.00942993.22035218.11326599.22000122.23799133-.04510498.410141-.02586364.82479858.05699158 1.2290039.01525879.05651856.00498963.11688233-.02810669.1651764-.03309631.0482788-.0856781.07965088-.14389038.08583069-.03466797.00932312-.07138061.00756836-.10499573-.00500489h-.00100708zm20.82798767 1.18400574c-.02226257.11888123.05387879.23397827.17201233.2599945l.00898743.0050049c.12016296.0307617.2429657-.0397339.27700806-.15901185.08799743-.3959961.16699218-.83699036.2420044-1.2769928.01545714-.1236267-.07073976-.23692322-.19400025-.25500488-.05717469-.0131073-.11721802-.00283814-.16679383.02851868-.04956054.0313568-.0845642.08120727-.09721374.13848877-.07499695.43598938-.1539917.85899353-.2420044 1.25900268zm-17.70199585.57699585h-.02198791c-.5-.17999268-.95100403-.34799194-1.32099915-.5-.05561828-.0189209-.10112-.05969238-.12602233-.11289978-.0249176-.0532074-.0270691-.11425781-.00598145-.1690979.05648804-.09298706.16981506-.13449097.272995-.09999084.37400817.1499939.81500244.31698608 1.32099914.4889984.05731201.01716615.10516357.05693055.13250732.11013795.02735901.0532074.03187561.11524963.01249695.17185974-.0514679.09385681-.1611023.13954162-.26400757.1100006v.00099183zm3.58500672 1.16700745c-.43998718-.13200379-.8809967-.2689972-1.36099243-.41400147-.05749512-.01438904-.10655213-.05178833-.1356659-.10340881-.02912903-.05162048-.03575134-.1129303-.01834106-.16958618.0198059-.05589295.06134033-.10144043.1151886-.12628174.053833-.02485657.11543274-.0269165.17082214-.00572205l1.35198975.40499878c.05793762.01438904.1077423.05131531.13833618.10256958.03060913.05125427.03948974.11260987.02467346.17042542-.04310608.11294555-.1665802.17292785-.28199768.13700866l-.00401306.0039978zm12.98599243 1.68299865l.06599426.02600098-.0019989-.01400757c.09129334.03182984.19276428.00398255.25500488-.06999206.24954224-.3684082.46191407-.7606659.63400269-1.17100525.04119873-.1153717-.01748657-.24249268-.13200378-.28599549-.11335755-.04847717-.24484253-.0002594-.30000306.11000061-.16067505.38835145-.36178588.75872803-.59999084 1.10499573-.03172302.04966736-.04122925.11032105-.02622986.16731262.01501465.05697632.05316162.10508728.10522461.13269043zm-9.84599304-.80200195c-.19999695-.05299377-.5-.13200378-.8809967-.23799133-.0585785-.01268006-.10969544-.04821778-.14198304-.0987091-.0322876-.0505066-.04309082-.11180116-.03001404-.17030335.039917-.11611939.1643219-.18008423.28199768-.14498902.40000916.11399842.71299744.19999695.90699768.24699402h.08399964l.37001037.09300232c.0856781.00590515.159729.06201172.18858338.14291382.02885437.0809021.0070343.17120361-.05555725.23001099-.06260681.05880737-.15409851.0749359-.23303223.04107666l-.3829956-.0920105-.07901001-.02198792-.02799988.01199341zm2.62400818.3919983c-.01454163.11734008.0611267.22695922.17599487.25498962l.0139923-.00099183c.44400025.09300232.91101075.18899537 1.39100648.28199769.12028503.0275116.2402954-.04699707.2689972-.16700745.01080321-.12231445-.07322694-.23277283-.19400025-.25498962l-1.3829956-.27700806c-.12039185-.03027344-.24253846.04266357-.272995.16300964zm3.71199035.66899108c-.00738525.11169434.06704712.2123413.17599488.2380066l.03199768.00900268c.53700256.07499695 1.01800537.12799072 1.41799926.15899658.05895997.00727844.1183014-.01004028.16407776-.04786682.04579163-.0378418.07397461-.092865.07792664-.15213013-.0024414-.12460327-.10057068-.2262268-.2250061-.2330017-.38299561-.02600098-.85499573-.07901002-1.38299561-.15400696-.058609-.01161194-.11943054.00111389-.16847229.0352478-.04902649.0341339-.08207703.08676147-.09152222.14575195z"/>
        <path fill="rgb(47,99,142)" fill-rule="evenodd" d="M173.521 158.68c-.12033784-.03045656-.19327587-.15261657-.163-.273.044-.158.1-.317.145-.476l-.44-.3c-.0985464-.06712649-.12405994-.2014083-.057-.3.08277786-.09411599.22292425-.11131187.326-.04.2.137.388.273.572.41.0757335.05338237.1077796.1499263.079.238-.066.2-.132.405-.189.608-.04429406.10697143-.16146293.1640537-.273.133z"/>
        <path fill="rgb(47,99,142)" fill-rule="evenodd" d="M155.31900024 152.25999385c.01782227.09059143.08642579.1626892.17601014.18501282.02972412.00283813.05973816.00112915.08898925-.00500489.48899842-.04800415.82054139-.07417297.84100342-.07000732.02046204.0041809.04154968.0041809.06199646 0 .15914917-.05206299.32289124-.0888977.48899841-.11000061.05796814-.0061493.11065674-.0364685.14511109-.08348084.03445434-.04701233.04748535-.10638427.03588867-.16351318-.03256226-.12026978-.14961243-.19744873-.272995-.17999268-.1841278.0238495-.36560058.06503296-.54199218.12298584-.0960083.00401307-.41300965.02600098-.8230133.06600953-.059021.00257873-.11427308.02981567-.15229798.07504272-.03800964.0452423-.05531311.10435486-.04769898.1629486zm3.68798829-.07000733c-.01646424.11781311.06001281.22862244.17601013.25500489h.01300049c.32099914.07000732.6599884.15400695 1.0079956.2420044l.34799194.09300231c.0776062.0318451.16664124.01589966.22834778-.04092407.06170655-.056839.08494568-.1442566.05957032-.22421265-.02536011-.07995605-.09472657-.13800049-.17791749-.14886474l-.35198974-.0920105c-.3560028-.09298706-.69500733-.1769867-1.02999878-.24699402-.05787659-.01597595-.1197815-.00759888-.17132568.0231781-.05155945.03077698-.08828736.08129883-.10168457.13981628zm-6.52400208 1.51402283c-.10334778-.0236206-.17773437-.11402893-.18099976-.22000122v-.44000244c-.00215148-.03096008-.00215148-.06204224 0-.09300232.05700684-.2250061.32099915-.3869934.84500123-.53300476.12245178-.0365448.25256347.02633667.30000305.14500427.02157592.05479431.01789856.11631775-.01004029.16816712-.0279541.05184936-.07731628.08872985-.13496399.10083007-.47999572.13200379-.54199218.2380066-.54199218.2380066v.46199035c-.00402832.05848694-.03164673.11283875-.07653809.15054321-.0448761.03771973-.10316467.05557251-.1614685.049469l-.03900147-.02799988zm10.35902405-.33399963c-.10891724-.03465271-.17198181-.14814759-.14389038-.2589264.02809143-.11079406.13761902-.18051147.24989319-.15907287.36499023.09999084.73498535.18499756 1.10499572.2599945l.26399231.06199647c.11924744.02638244.19917298.13871765.18499756.26000976-.0340271.1192627-.15682983.1897583-.2769928.15899658l-.25500488-.05700683c-.38198852-.08099365-.75698852-.17399597-1.1309967-.26599121h.00300598zm4.93598938 1.4309845h.03100586l-.01800537.0249939c.10836792.02519225.21888733-.03260804.2599945-.13598634.02119446-.0553894.01913452-.11698913-.00570678-.1708374-.02485657-.053833-.0703888-.09536743-.12628174-.11517334-.44000244-.17098999-.88101197-.33399963-1.32099915-.48399353-.1157074-.04489136-.24591064.01237488-.29100036.12799072-.0176239.05664063-.0116272.11798096.01660156.17012024.02824402.05215454.07633972.09069824.13339233.10688782.66099549.21800232 1.32099915.47599792 1.32099915.47599792zm3.41699219 1.60700988c-.02232361-.0039978-.04348755-.01287842-.06199646-.02600097-.3999939-.22000123-.80999756-.44000245-1.22900391-.64700318-.05419922-.02275085-.09646607-.0670929-.11657715-.12232971-.02012634-.05523682-.01628113-.11637878.0105896-.16867065.0616455-.10820008.19848633-.1472931.30799866-.08799744.44000244.21099853.84999084.44000244 1.25498962.66000366.05360413.0259552.09371948.07336426.1104889.13049317.01675414.05714416.0085907.11871337-.0224762.16950988-.04655457.10438538-.16397095.1572876-.27301026.1230011l.0189972-.03100586zm-19.12998963.73500061c-.11599731-.0263977-.19247436-.13719177-.17601013-.25500488.0750122-.44000244.15000915-.84500122.21099853-1.26400757.00959778-.05862427.04290772-.11070251.0920868-.1439972.04919433-.03330993.10992431-.04487609.16792297-.03199767.12284851.0171051.21076965.1274414.19999695.25100708-.06199646.43998718-.13699341.84999084-.21600342 1.2809906-.01347351.05763245-.04959106.10740662-.10020447.13807678-.05062866.03068543-.11146545.0396576-.16879272.02493286h-.0099945zm-.66200256 3.37799073c-.11540222-.02458191-.19221497-.13412476-.17599488-.25099183.07499695-.40901184.16300965-.83700561.25100708-1.27301025.01457215-.05670166.05116272-.10527039.10165406-.13491821.05047607-.02966309.11071777-.03796387.16734314-.0230713.05992126.00646973.11442566.03770448.15031433.08612061.03588867.0484314.0499115.10964966.03868103.16886902 0 0-.13200379.65600586-.25099182 1.26800537-.01347351.05763245-.04960633.10740662-.10021973.13807679-.0506134.03067016-.11146545.03965759-.16879272.0249176l-.0130005-.0039978zm21.18600464 1.2150116c-.0167389.11698913.06030273.22686767.17599487.25099181v-.0019989c.05725098.01428223.11784363.00450134.16770935-.02703857.04986572-.03153992.08465576-.08210755.09629822-.13995362.07499695-.40899658.1539917-.81900024.24198913-1.25900268-.00308227-.10621643-.07763672-.19688416-.18125915-.22044373-.10362244-.0235443-.21003723.02600098-.25872803.12043763-.0920105.43200683-.17201233.83700561-.2420044 1.27700805zm-21.42401123 2.21598815c-.08346558-.02172851-.1499176-.08479309-.17599488-.16700745-.09387207-.44726562-.11749267-.90644836-.07000732-1.36099243.00666809-.05827331.03675842-.11134338.0833435-.14698791.04658509-.03564453.10566712-.05081177.16366578-.04200745.12394714.0090332.21899414.11375427.21600341.23799133-.04129028.41046143-.02038574.82478333.06199646 1.22900391.01524353.05651856.00497437.11688233-.02810669.1651764-.0330963.0482788-.0856781.07965087-.14389038.08581542-.03503418.00656128-.07098388.00656128-.1060028 0l-.00100708-.00099182zm20.82800293 1.17901611c-.02226258.11888123.05387878.23397828.17201232.25999451l.00898743.00500488c.11917114.03053284.24076843-.0402832.27301026-.15901184.09300231-.3959961.17199707-.83699035.24699401-1.2769928.01332093-.12303161-.0718689-.2350006-.19400024-.25500488-.12028503-.0275116-.24029541.04699707-.2689972.16700745-.07099914.43598938-.14999389.8540039-.23800658 1.25900268zm-17.70199585.60798645c-.5-.17599487-.95100403-.34300231-1.32099915-.5-.05589294-.0198059-.10144043-.06132507-.12628174-.11517334-.02485656-.05384826-.0269165-.115448-.00572204-.17082214.05654907-.10874939.1876831-.15507507.30000305-.1060028.37399292.14999389.81500244.31700134 1.32099914.4889984.11045838.04750062.16149903.17553712.11399842.28599549-.04750061.11045837-.17553711.16149902-.28599549.11401367l.0039978.00299072zm3.58898925 1.14401246c-.44000244-.13200379-.8809967-.2689972-1.36099243-.41400147-.08491516-.01263428-.15428161-.07435608-.17669677-.15722656-.02243042-.08285523.00634765-.17114258.07328796-.22486878.0669403-.05374145.1593628-.06272888.23539734-.02290344l1.352005.40499878c.07939148.01643372.14289856.07595825.16442871.15411377.02154541.07817078-.00248718.1618042-.06225586.21659851-.05975341.05479431-.14517211.07150269-.22117614.04328919h-.0039978zm12.97801209 1.67498779c.02175903.01246643.0453949.02124023.07000732.02600098l-.0019989-.00498963c.09194946.03076172.19325257-.00112915.25099182-.07901.25254822-.36723329.46636963-.75967408.6380005-1.17099.04177856-.11540222-.0170746-.24293518-.13198853-.28601074-.11341858-.04588318-.2431488.00167847-.30000306.1100006-.15975952.38880921-.3609314.75927735-.6000061 1.105011-.03056335.04954528-.0398407.10932922-.02572632.165802.01412964.05647278.05044556.1048584.10072327.13418579zm-9.83799744-.79400635l-.8809967-.23799133c-.12001038-.02870178-.19451904-.14871216-.16700745-.26901245.03993225-.11611939.16433716-.18008423.28199768-.14498902l.91101074.24699402h.07899476l.37400817.09300232c.0856781.00590515.15971375.06201172.18858338.14291382.02885437.0809021.0070343.17120361-.05555725.23001099-.06260681.05880737-.15409851.0749359-.23303223.04107666l-.3789978-.0920105-.07901001-.02198792-.03999329.01199341zm2.62399292.38801575c-.01646423.1178131.06001282.22860718.17601013.25500488l.01399231.00299072c.44000245.09300232.91099549.19000244 1.39100647.28199768.05725098.01428223.11784363.00450135.16770935-.02703857.04986573-.03153992.08465577-.08210754.09628296-.13995361.01789856-.12252808-.06655883-.23649598-.18899536-.25500489l-1.3829956-.2769928c-.11924744-.03112792-.24124146.039917-.27301026.15899659zm3.70800781.69598388c-.00738525.11169434.06704712.21234131.17599488.2380066l.03100586.00500488c.5369873.07899475 1.01799011.13198852 1.41799926.16299438.0589447.00727845.11828614-.01004028.16407776-.04786682.04577637-.0378418.07395935-.09286499.07791138-.15213012-.00242615-.12460328-.10055542-.22622681-.22499084-.23300171-.38700867-.02600098-.85400391-.07901001-1.38700867-.15400696-.05799866-.01127625-.11807251.00169372-.16625977.03588867-.048172.03419495-.08024597.0866394-.08872986.14511108z"/>
        <path fill="rgb(47,99,142)" fill-rule="evenodd" d="M160.51 129.635l-5.636.3c-.964 1.761-9.1 22.391.608 18.089.012.017 4.82-14.659 5.028-18.389z"/>
        <path fill="rgb(47,99,142)" fill-rule="evenodd" d="M177.631 134.58l5.249 3.131c0 2.017-2.818 23.519-9.208 15.038 0 .001 2.325-14.799 3.959-18.169z"/>
      </g>
      <path fill="rgb(42,43,43)" fill-rule="evenodd" d="M115.254 235.427c2e-8 1.11894828-.44450046 2.19206745-1.23571643 2.98328345-.79121596.791216-1.86433511 1.23571653-2.98328348 1.23571655H4.221c-1.11929485.0005306-2.19292789-.44373566-2.98457649-1.23500916C.44477491 237.61971734-1.3e-7 236.54629498 0 235.427V4.22c-1.3e-7-1.11929498.44477492-2.19271734 1.23642351-2.98399084C2.02807211.44473566 3.10170515.0004694 4.221.001h106.822c2.32696455.00441236 4.21100418 1.89203126 4.211 4.219v231.207z"/>
      <rect width="98.372" height="205.9" x="8.126" y="16.869" fill="rgb(252,191,30)" rx="0" ry="0"/>
      <g opacity=".2">
        <path fill="rgb(245,246,246)" fill-rule="evenodd" d="M106.497 16.869H22.909l-14.785 14.1v191.8h26.564l71.81-177.7-.001-28.2z"/>
      </g>
      <path fill="rgb(64,64,64)" fill-rule="evenodd" d="M71.155 232.123c0 1.46797287-1.19002713 2.658-2.658 2.658H46.66c-1.46797287 0-2.658-1.19002713-2.658-2.658 0-1.46797287 1.19002713-2.658 2.658-2.658h21.839c1.46719176.00110398 2.65600042 1.19080783 2.656 2.658z"/>
      <g>
        <rect width="69.203" height="69.423" x="18" y="96.928" fill="rgb(255,255,255)" rx="0" ry="0"/>
        <path fill="rgb(255,85,85)" fill-rule="evenodd" d="M87.2 86.008v10.92H18v-10.92c0-2.17047907 1.75952093-3.93 3.93-3.93h61.345c2.16852619.00275894 3.92500176 1.76147206 3.925 3.93z"/>
        <ellipse cx="76.479" cy="88.862" fill="rgb(43,65,131)" rx="3.256" ry="3.256"/>
        <path fill="rgb(255,203,45)" fill-rule="evenodd" d="M76.479 90.084c.49462875 0 .9689988-.1964905 1.31875415-.54624585C78.14750949 89.1879988 78.344 88.71362875 78.344 88.219v-8.43c0-.49462873-.1964905-.96899878-.54624583-1.31875413-.34975534-.34975535-.82412539-.54624586-1.31875414-.54624587-.49462878 0-.96899883.1964905-1.31875418.54624585C74.81049051 78.8200012 74.614 79.29437125 74.614 79.789v8.429c-.0002653.494802.19610807.96942898.54589217 1.31940064.34978411.34997166.82430577.54659943 1.31910783.54659936z"/>
        <ellipse cx="53.502" cy="88.862" fill="rgb(43,65,131)" rx="3.256" ry="3.256"/>
        <path fill="rgb(255,203,45)" fill-rule="evenodd" d="M53.502 90.084c1.03001106 0 1.865-.83498894 1.865-1.865v-8.43c2e-8-1.03001103-.83498891-1.86499998-1.86499997-1.865-1.03001109 0-1.86500003.83498894-1.86500003 1.865v8.429c-.0002653.494802.19610807.96942898.54589217 1.31940064.34978411.34997166.82430577.54659943 1.31910783.54659936z"/>
        <ellipse cx="30.525" cy="88.862" fill="rgb(43,65,131)" rx="3.256" ry="3.256"/>
        <path fill="rgb(255,203,45)" fill-rule="evenodd" d="M30.525 90.084c.49462875 0 .9689988-.1964905 1.31875415-.54624585C32.19350949 89.1879988 32.39 88.71362875 32.39 88.219v-8.43c0-.49462875-.1964905-.9689988-.54624585-1.31875415C31.4939988 78.12049051 31.01962875 77.924 30.525 77.924c-.49462875 0-.9689988.1964905-1.31875415.54624585C28.85649051 78.8200012 28.66 79.29437125 28.66 79.789v8.429c-.0002653.494802.19610807.96942898.54589217 1.31940064.34978411.34997166.82430577.54659943 1.31910783.54659936z"/>
        <rect width="13.157" height="13.157" x="63.821" y="108.087" fill="none" stroke="rgb(240,224,223)" stroke-dasharray="0 0 0 0" stroke-linecap="butt" stroke-linejoin="miter" stroke-width="2.21" rx="0" ry="0" transform="rotate(-179.999936 70.3995 114.6655)"/>
        <rect width="13.157" height="13.157" x="46.313" y="108.087" fill="none" stroke="rgb(240,224,223)" stroke-dasharray="0 0 0 0" stroke-linecap="butt" stroke-linejoin="miter" stroke-width="2.21" rx="0" ry="0" transform="rotate(-179.999936 52.8915 114.6655)"/>
        <rect width="13.157" height="13.157" x="28.808" y="108.087" fill="none" stroke="rgb(240,224,223)" stroke-dasharray="0 0 0 0" stroke-linecap="butt" stroke-linejoin="miter" stroke-width="2.21" rx="0" ry="0" transform="rotate(-179.999936 35.3865 114.6655)"/>
        <rect width="13.157" height="13.157" x="63.821" y="124.791" fill="none" stroke="rgb(240,224,223)" stroke-dasharray="0 0 0 0" stroke-linecap="butt" stroke-linejoin="miter" stroke-width="2.21" rx="0" ry="0" transform="rotate(-179.999936 70.3995 131.3695)"/>
        <rect width="13.157" height="13.157" x="46.313" y="124.791" fill="none" stroke="rgb(240,224,223)" stroke-dasharray="0 0 0 0" stroke-linecap="butt" stroke-linejoin="miter" stroke-width="2.21" rx="0" ry="0" transform="rotate(-179.999936 52.8915 131.3695)"/>
        <path fill="rgb(255,85,85)" fill-rule="evenodd" d="M41.96499261 137.94800739l-13.157-.00001478.00001478-13.157 13.157.00001478-.00001478 13.157z"/>
        <path fill="none" stroke="rgb(255,255,255)" stroke-dasharray="0 0 0 0" stroke-linecap="butt" stroke-linejoin="miter" stroke-width="2.02" d="M33.561 129.486l3.649 3.761"/>
        <path fill="none" stroke="rgb(255,255,255)" stroke-dasharray="0 0 0 0" stroke-linecap="butt" stroke-linejoin="miter" stroke-width="2.02" d="M37.21 129.486l-3.649 3.761"/>
        <rect width="13.157" height="13.157" x="63.821" y="141.491" fill="none" stroke="rgb(240,224,223)" stroke-dasharray="0 0 0 0" stroke-linecap="butt" stroke-linejoin="miter" stroke-width="2.21" rx="0" ry="0" transform="rotate(-179.999936 70.3995 148.0695)"/>
        <rect width="13.157" height="13.157" x="46.313" y="141.491" fill="none" stroke="rgb(240,224,223)" stroke-dasharray="0 0 0 0" stroke-linecap="butt" stroke-linejoin="miter" stroke-width="2.21" rx="0" ry="0" transform="rotate(-179.999936 52.8915 148.0695)"/>
        <rect width="13.157" height="13.157" x="28.808" y="141.491" fill="none" stroke="rgb(240,224,223)" stroke-dasharray="0 0 0 0" stroke-linecap="butt" stroke-linejoin="miter" stroke-width="2.21" rx="0" ry="0" transform="rotate(-179.999936 35.3865 148.0695)"/>
        <rect width="6.403" height="4.217" x="79.614" y="120.606" fill="rgb(255,168,10)" rx="0" ry="0"/>
        <path fill="rgb(255,203,45)" fill-rule="evenodd" d="M87.003 121.701h-8.377c-.95324348 0-1.726-.77275652-1.726-1.726-.00000144-.95372999.77227145-1.72734518 1.726-1.729h8.377c.95372855.00165482 1.72600144.77527001 1.726 1.729 0 .95324348-.77275652 1.726-1.726 1.726z"/>
        <rect width="5.106" height="3.601" x="64.204" y="128.282" fill="rgb(255,168,10)" rx="0" ry="0" transform="rotate(-45.000016 66.75738937 130.08290214)"/>
        <path fill="rgb(255,203,45)" fill-rule="evenodd" d="M68.425 126.856l-5.043 5.043c-.2438991.24456974-.57510004.3820241-.9205.3820241-.34539996 0-.6766009-.13745436-.9205-.3820241-.24456974-.2438991-.3820241-.57510004-.3820241-.9205 0-.34539996.13745436-.6766009.3820241-.9205l5.046-5.043c.5076269-.50736324 1.3303731-.50736324 1.838 0 .24456974.2438991.3820241.57510004.3820241.9205 0 .34539996-.13745436.6766009-.3820241.9205z"/>
        <ellipse cx="82.741" cy="144.651" fill="rgb(246,123,145)" rx="21.644" ry="21.644"/>
        <path fill="rgb(248,138,160)" fill-rule="evenodd" d="M82.741 124.171c11.31079168 0 20.48 9.16920832 20.48 20.48 0 11.31079168-9.16920832 20.48-20.48 20.48-11.31079168 0-20.48-9.16920832-20.48-20.48 0-11.31079168 9.16920832-20.48 20.48-20.48z"/>
        <ellipse cx="82.74" cy="144.651" fill="rgb(246,246,246)" rx="18.167" ry="18.167"/>
        <g opacity=".71">
          <g>
            <use fill="none" xlink:href="#path-80"/>
            <g mask="url(#mask-81)">
              <path fill="rgb(255,255,255)" fill-rule="evenodd" d="M62.865 130.278l27.533 42.667 12.441-10.7-27.243-38.186-12.731 6.219z"/>
              <path fill="rgb(255,255,255)" fill-rule="evenodd" d="M77.537 119.999l27.536 42.667 1.6-5.348-27.246-38.19-1.89.871z"/>
            </g>
          </g>
        </g>
        <path fill="rgb(128,84,255)" fill-rule="evenodd" d="M82.831 130.577c-.252884.00000538-.45835076-.20412137-.46-.457v-1.073c.03757634-.22114688.22918342-.3829432.4535-.3829432.22431658 0 .41592366.16179632.4535.3829432v1.073c-.00151785.24789404-.1992002.44999881-.447.457z"/>
        <path fill="rgb(128,84,255)" fill-rule="evenodd" d="M82.831 160.933c-.25405098 0-.46-.20594902-.46-.46v-1.07c-.03064295-.180342.04848246-.36170223.20152384-.46190484.15304138-.10020261.35091094-.10020261.50395232 0s.23216679.28156284.20152384.46190484v1.058c.00671957.2537044-.1933055.46491655-.447.472z"/>
        <path fill="rgb(128,84,255)" fill-rule="evenodd" d="M72.476 134.864c-.12027844.00084145-.2357518-.04715216-.32-.133l-.759-.759c-.17866412-.17783569-.17933569-.46683588-.0015-.6455.17783569-.17866412.46683588-.17933569.6455-.0015l.759.759c.08591979.0857326.13420479.20212336.13420479.3235 0 .12137664-.048285.2377674-.13420479.3235-.08521339.08685618-.20233829.13493522-.324.133z"/>
        <path fill="rgb(128,84,255)" fill-rule="evenodd" d="M93.941 156.327c-.1213162.00166031-.23802741-.04639724-.323-.133l-.759-.759c-.11557542-.11557542-.16071276-.28403026-.11840922-.44190922.04230354-.15787896.16562104-.28119646.3235-.3235.15787896-.04230354.3263338.0028338.44190922.11840922l.756.759c.08666497.08533452.13546625.20187436.13546625.3235 0 .12162564-.04880128.23816548-.13546625.3235-.08455576.08600112-.20039787.133998-.321.133z"/>
        <path fill="rgb(128,84,255)" fill-rule="evenodd" d="M71.72 156.327c-.12166171.00193522-.23878661-.04614382-.324-.133-.08591979-.0857326-.13420479-.20212336-.13420479-.3235 0-.12137664.048285-.2377674.13420479-.3235l.759-.759c.17866412-.17783569.46766431-.17716412.6455.0015.17783569.17866412.17716412.46766431-.0015.6455l-.759.759c-.0842482.08584784-.19972156.13384145-.32.133z"/>
        <path fill="rgb(128,84,255)" fill-rule="evenodd" d="M93.182 134.864c-.1213162.00166031-.23802741-.04639724-.323-.133-.08591979-.0857326-.13420479-.20212336-.13420479-.3235 0-.12137664.048285-.2377674.13420479-.3235l.759-.759c.17866412-.17783569.46766431-.17716412.6455.0015.17783569.17866412.17716412.46766431-.0015.6455l-.756.759c-.08605243.08560084-.20262323.13345243-.324.133z"/>
        <path fill="rgb(128,84,255)" fill-rule="evenodd" d="M68.186 145.216h-1.073c-.17547286.02184272-.34779975-.05950392-.44245778-.20886149-.09465804-.14935757-.09465804-.33991945 0-.48927702.09465803-.14935757.26698492-.2307042.44245778-.20886149h1.073c.17547286-.02184272.34779975.05950392.44245778.20886149.09465804.14935757.09465804.33991945 0 .48927702-.09465803.14935757-.26698492.2307042-.44245778.20886149z"/>
        <path fill="rgb(128,84,255)" fill-rule="evenodd" d="M98.543 145.216H97.47c-.17547286.02184272-.34779975-.05950392-.44245778-.20886149-.09465804-.14935757-.09465804-.33991945 0-.48927702.09465803-.14935757.26698492-.2307042.44245778-.20886149h1.073c.17547286-.02184272.34779975.05950392.44245778.20886149.09465804.14935757.09465804.33991945 0 .48927702-.09465803.14935757-.26698492.2307042-.44245778.20886149z"/>
        <path fill="rgb(128,84,255)" fill-rule="evenodd" d="M83.922 144.587h-2.186v-9.466c-.0000011-.28987172.11535494-.56782745.32060643-.7725161.2052515-.20468864.48352294-.31928098.77339357-.3184839.28935119 0 .5668513.11494431.7714535.3195465.20460219.2046022.3195465.48210231.3195465.7714535l.001 9.466z"/>
        <ellipse cx="82.831" cy="144.587" fill="rgb(43,65,131)" rx="2.503" ry="2.503"/>
      </g>
    </g>
  </g>
</svg>
