<svg xmlns="http://www.w3.org/2000/svg" width="374.913" height="385.804" viewBox="0 0 374.913 385.804">
  <g>
    <path fill="rgb(51,225,255)" fill-rule="evenodd" d="M43.421 174.456C84.168 68.023 142.866 0 237.564 14.722c94.698 14.722 137.349 114.915 121.855 214.456C338.913 360.43 302.6 385.804 174.866 365.944 80.168 351.177 0 287.828 43.421 174.456z"/>
    <g>
      <g>
        <path fill="rgb(34,88,122)" fill-rule="evenodd" d="M260.784 238.999c2.735 8.758 19.826 10.282 30.792 10.443 10.966.161 13.468-5.521 13.468-5.521-2.091-8.301-47.008-13.662-44.26-4.922z"/>
        <path fill="rgb(34,88,122)" fill-rule="evenodd" d="M308.218 260.993c-1.00340798-1.69746245-2.13821064-3.31373706-3.394-4.834-.98447244-1.09197008-1.39262585-2.5861826-1.1-4.027.482-1.665 2.355-2.027 3.887-1.778 1.532.249 3 1.709 4.054 3.517 1.388 2.393 2.136 5.408 1.709 7.237-.17003743.84631888-.63366216 1.60533172-1.309 2.143-.94552129.5696693-2.17092557.30708267-2.8-.6-.41406264-.50879776-.76557536-1.0654435-1.047-1.658z"/>
        <path fill="rgb(255,238,226)" fill-rule="evenodd" d="M285.572 252.816c-1.367-5.811-.567-12.774 1.258-18.332 3.2560532-1.0628556 6.78443678-.92953511 9.951.376.885 4.1-1.634 10.45-4.786 14.2 1.593-.185 3.107-1.008 6.232-.585 2.41225928.55801092 4.73122309 1.46168266 6.885 2.683 2.475 2.154 1.894 3.476.94 4.345-1.025.923-3.251-.062-5.281-.171-2.28357973-.1232388-4.57375122-.02006887-6.837.308-2.848.109-7.381 1.244-8.362-2.824z"/>
        <path fill="rgb(252,214,189)" fill-rule="evenodd" d="M296.78 234.861c-3.16656322-1.30553511-6.6949468-1.4388556-9.951-.376-1.825 5.558-2.632 12.508-1.258 18.332 2.424-2.215 5.835-4.977 8.785-7.288 1.896-3.498 3.07-7.668 2.424-10.668z"/>
        <path fill="rgb(34,88,122)" fill-rule="evenodd" d="M281.439 272.617c-.30579294-1.94791967-.76284179-3.86906281-1.367-5.746-.51114477-1.37841194-.34019085-2.917368.461-4.15 1.063-1.367 2.94-1.025 4.27-.215 1.33.81 2.157 2.687 2.471 4.765.407 2.735 0 5.811-1.087 7.356-.46944559.72414022-1.18065771 1.25816946-2.007 1.507-1.09128445.18143133-2.13680002-.51281198-2.393-1.589-.1916739-.62672383-.30881522-1.27385412-.349-1.928h.001z"/>
        <path fill="rgb(255,238,226)" fill-rule="evenodd" d="M266.938 252.581c-.085-5.148-2.14-16.374.732-19.485 3.1 1.138 9.506 3.206 11.342 5.326-1.747 5.278-2.779 11.072-4.734 15.3 1.347.868 3.042 1.19 5.189 3.5 1.51199054 1.95957487 2.73231455 4.12772988 3.623 6.437.547 3.237-.738 3.89-2.027 3.958-1.367.068-2.475-2.109-3.976-3.48-1.6838138-1.54309531-3.51567562-2.91640551-5.469-4.1-2.266-1.7-4.611-3.262-4.68-7.456z"/>
        <path fill="rgb(252,214,189)" fill-rule="evenodd" d="M279.012 238.439c-1.836-2.119-8.242-4.187-11.342-5.326-2.28 2.461-1.453 10.043-.974 15.639 2.489 1.275 5.469 2.7 8.115 3.729 1.617-4.082 2.622-9.271 4.201-14.042z"/>
        <path fill="rgb(55,163,165)" fill-rule="evenodd" d="M295.645 222.967l-21.953-4.321s-14.767 17.861-14.825 19.649c-.085 2.8 11.886 13.82 21.628 9.048 9.161-4.488 10.009-10.686 24.557-3.418 1.956.994-9.407-20.958-9.407-20.958z"/>
        <path fill="rgb(200,85,61)" fill-rule="evenodd" d="M357.821 205.534c.479-3.682.745-7.688-4.427-9.127 7.459-4.355 2.229-7.284-2.994-6.385-3.89329825.65483146-7.8582752.76991438-11.783.342-9.643-1.046-11-6.837-10.255-15.041.51408738-1.91855301.7716628-3.89677256.766-5.883-.00172704-.0126078-.00172704-.0253922 0-.038-.048-9.346-4.034-18.558-13.39-21.706-5.353-1.8-13.239-3.76-17.669 1.025-8.888-3.5-18.879 5.637-22.134 15.3-1.487 4.444-2.171 6.546-1.863 10.877 0 0-9.229 27.432 15.813 42.692 23.559 14.357 62.5 10 50.961-3.312 6.939 1.689 16.452-4.727 16.975-8.744z"/>
        <path fill="rgb(255,238,226)" fill-rule="evenodd" d="M279.545 204.405s-9.048-2.352-12.72-9.913c-4.41-9.093-1.432-15.871-1.432-15.871l2.448.273s-.643 7.25 3.921 12.135c5.151 5.524 11.041 5.343 11.041 5.343l-3.258 8.033z"/>
        <path fill="rgb(255,238,226)" fill-rule="evenodd" d="M264.719 177.37c.10697337.64284797.2576562 1.27765364.451 1.9l2.69.308c.63706971-.51523345 1.24626471-1.06400966 1.825-1.644.458-.468.212-1.343-.414-1.183-.42175561.11947716-.81474773.3236289-1.155.6-.154.1-.232-.1-.123-.26 1.34-1.863 2.113-2.974 0-3.931-.94-.424-2.024.431-2.53 1.087-.70294086.87716612-.9759429 2.0231142-.744 3.123z"/>
        <path fill="rgb(252,214,189)" fill-rule="evenodd" d="M271.762 191.03c-.024-.024-.044-.051-.065-.075l-2.957 6.529c2.86989816 3.2881641 6.61821699 5.68944711 10.805 6.922l3.258-8.033s-5.89.181-11.041-5.343z"/>
        <path fill="rgb(255,238,226)" fill-rule="evenodd" d="M297.125 211.194s8.019 4.786 15.991 2.109c9.571-3.23 12.306-10.111 12.306-10.111l-1.914-1.552s-4.724 5.541-11.4 5.719c-7.548.205-11.551-4.123-11.551-4.123l-3.432 7.958z"/>
        <path fill="rgb(255,238,226)" fill-rule="evenodd" d="M326.793 202.8c-.53288201.3800378-1.09156486.72253178-1.672 1.025l-2.106-1.709c-.07803735-.8155964-.11341889-1.63471234-.106-2.454 0-.653.81-1.094 1.135-.533.20905758.38402439.3392734.80595082.383 1.241.034.185.236.1.27-.092.39-2.263.636-3.593 2.817-2.735.961.373 1.111 1.743 1 2.564-.14069856 1.11036369-.772443 2.09890975-1.721 2.693z"/>
        <path fill="rgb(252,214,189)" fill-rule="evenodd" d="M312.118 207.359h.1l-2.577 6.686c-4.35732374.26246897-8.69904598-.7241757-12.515-2.844l3.442-7.958s4.007 4.307 11.55 4.116z"/>
        <path fill="rgb(255,217,61)" fill-rule="evenodd" d="M273.577 192.144s-4.27 7.743-4.444 8.727c-.174.984 9.739 6.7 10.228 6.656l7.92-11.181c-4.64162112-1.14822651-9.2165379-2.55101404-13.704-4.202z"/>
        <path fill="rgb(252,183,49)" fill-rule="evenodd" d="M274.841 192.609c-.827-.294-1.265-.465-1.265-.465s-4.269 7.743-4.444 8.727c-.034.185.287.54.837.988 1.399-2.902 4.408-8.382 4.872-9.25z"/>
        <path fill="rgb(255,217,61)" fill-rule="evenodd" d="M310.129 206.843s-2.5 8.481-3.077 9.308-11.622-2.2-11.923-2.584l2.372-13.5c4.08344646 2.48581061 8.29899873 4.74781427 12.628 6.776z"/>
        <path fill="rgb(252,183,49)" fill-rule="evenodd" d="M309.017 206.323c-.53 1.781-2.516 8.4-3.237 9.93.7.072 1.179.055 1.285-.1.571-.827 3.076-9.308 3.076-9.308s-.406-.177-1.124-.522z"/>
        <path fill="rgb(255,217,61)" fill-rule="evenodd" d="M298.53 226.909c1.248-11.766 3.8-19.7 1.921-24.212-.909-2.188-6.385-4.4-8.648-5.192-2.174-.762-8.187-2.424-9.722-.752-4.827 5.254-6.953 13.4-11.123 23.337 4.16 4.136 4.751 5.685 11.841 7.794 4.68859213 1.50185306 9.71601335 1.58742323 14.453.246 4.73698665-1.34142323 1.131.146 1.278-1.221z"/>
        <path fill="rgb(253,240,91)" fill-rule="evenodd" d="M294.247 211.841l-3.329-1.784c-.14-1.224-.325-2.072-.461-3.3-.03224526-.58092112-.44212926-1.07172468-1.008-1.207-.63569648-.27902423-1.37285098-.19013657-1.924.232-.889.848-1.367 1.367-2.246 2.218l-3.7-.769c-1.19-.246-2.051 1.631-1.593 2.6.526 1.08.684 2.113 1.2 3.193-.564.988-.684 1.648-1.265 2.632-.684 1.186.072 3.018 1.518 2.827l3.483-.468 2.372 2.595c.984 1.08 2.581.1 2.824-1.248.2-1.118.342-1.86.554-2.977l3.288-1.477c.978-.435 1.361-2.493.287-3.067z"/>
        <path fill="rgb(252,183,49)" fill-rule="evenodd" d="M292.555 212.394l-2.659-1.425s-.164-1.473-.342-2.947c-.07002196-.44864154-.37892571-.82349133-.80591526-.97796537-.42698955-.15447403-.90422502-.06402955-1.24508474.23596537l-2.143 2.051-2.957-.612c-.95-.2-1.613 1.025-1.237 1.784.417.868.837 1.733 1.255 2.6 0 0-.684 1.19-1.367 2.393-.28194597.41888886-.28872196.96507529-.01725464 1.39082979.27146733.4257545.76951782.65005615 1.26825464.57117021l2.786-.376 1.89 2.078c.33239461.38003329.85809155.52750057 1.3396483.37579502.48155675-.15170555.82780403-.57386273.8823517-1.07579502.164-.9.342-1.795.489-2.694l2.632-1.19c.41253559-.18476952.69564251-.57503287.7432306-1.02454456.04758808-.4495117-.14752772-.89040265-.5122306-1.15745544z"/>
        <path fill="rgb(252,183,49)" fill-rule="evenodd" d="M283.989 227.25c-7.52-1.931-8.607-4.17-12.788-7.746-.079.2-.157.39-.239.585 4.16 4.136 4.751 5.685 11.841 7.794 4.68859213 1.50185306 9.71601335 1.58742323 14.453.246.31092183.02786187.61981122-.07187252.8557316-.27629914.23592038-.2044266.37859855-.49597858.3952684-.80770086-4.75525928 1.21372299-9.73036692 1.28397351-14.518.205z"/>
        <path fill="rgb(252,183,49)" fill-rule="evenodd" d="M296.171 200.372c-.54737325 2.39088328-2.8566754 3.9463151-5.278 3.555-2.167-.475-3.815-3.282-3.275-5.746l1.644-3.839c.54-2.468 2.359-4.129 4.526-3.658 2.171.475 2.735 2.762 2.2 5.227l.183 4.461z"/>
        <path fill="rgb(255,238,226)" fill-rule="evenodd" d="M295.991 199.278c-.47007496 2.15219758-2.5957637 3.51589764-4.748 3.046-2.15057182-.47192767-3.5121047-2.59702895-3.042-4.748l.824-3.76c.22501275-1.03393468.85190064-1.93597231 1.74251774-2.50733282.8906171-.5713605 1.9718689-.76515132 3.00548226-.53866718 2.15057182.47192767 3.5121047 2.59702895 3.042 4.748l-.824 3.76z"/>
        <path fill="rgb(252,214,189)" fill-rule="evenodd" d="M296.479 197.056c-.47192767 2.15057182-2.59702895 3.5121047-4.748 3.042-1.03319655-.22591308-1.9342567-.85317606-2.50479984-1.74368848-.57054312-.89051242-.76379196-1.97126361-.53720016-3.00431152l.82-3.76c.22591308-1.03319655.85317606-1.9342567 1.74368848-2.50479984.89051242-.57054312 1.97126361-.76379196 3.00431152-.53720016 2.15219758.47007496 3.51589764 2.5957637 3.046 4.748l-.824 3.76z"/>
        <path fill="rgb(255,238,226)" fill-rule="evenodd" d="M276.972 167.778c-2.789 1-3.651 6.362-.048 9.537.98250543 1.01129759 2.24607895 1.704225 3.627 1.989l2.013-7.339s-1.416-5.701-5.592-4.187z"/>
        <path fill="rgb(252,214,189)" fill-rule="evenodd" d="M278.311 170.632c-1.8.653-2.362 4.1-.031 6.174.63338023.65685433 1.45099654 1.1062818 2.345 1.289l1.307-4.747s-.914-3.69-3.621-2.716z"/>
        <path fill="rgb(255,238,226)" fill-rule="evenodd" d="M323.942 185.606c1.4 2.612-1.538 7.179-6.338 7.127-1.40715881.09734508-2.81112443-.23013077-4.03-.94l3.418-6.806s4.848-3.306 6.95.619z"/>
        <path fill="rgb(252,214,189)" fill-rule="evenodd" d="M321.03 186.832c.909 1.689-.991 4.639-4.1 4.611-.90875307.0719431-1.81738498-.14053697-2.6-.608l2.2-4.406s3.139-2.123 4.5.403z"/>
        <path fill="rgb(255,238,226)" fill-rule="evenodd" d="M316.275 190.654c.827-1.408 9.069-14.429 1.043-23.074-2.9525445-3.1345186-6.63910583-5.4845425-10.727-6.838-3.94431383-1.71965535-8.2540052-2.4326684-12.542-2.075-11.745 1.07-14.545 15.779-14.87 17.382-.325 1.603-1.661 5.2-.964 8.139 1.709 7.179 11.657 13.154 13.673 13.923.02 0 12.754 4.311 20.168-1.248 2.412-1.821 3.392-4.797 4.219-6.209z"/>
        <path fill="rgb(200,85,61)" fill-rule="evenodd" d="M294.261 167.878c-3.34-2.171-7.3-.489-8.31.855-.359.479-.055.711.191.622 1.22-.434 3.726-.814 7.367.533.53843977.15026865 1.10233923-.13639734 1.29822288-.65996935.19588366-.523572-.04137513-1.10997482-.54622288-1.35003065z"/>
        <path fill="rgb(51,53,51)" fill-rule="evenodd" d="M291.851 179.776c-.20259928.88994198-.75261787 1.66193469-1.52758636 2.14408304-.7749685.48214836-1.71054624.63442269-2.59841364.42291696-1.77128587-.71483211-2.6526713-2.70891682-1.989-4.5.20340925-.88969567.75339646-1.66145927 1.52797702-2.1441172.77458056-.48265793 1.70972513-.63631213 2.59802298-.4268828 1.77261493.71569096 2.65410819 2.71179233 1.989 4.504"/>
        <path fill="rgb(241,241,242)" fill-rule="evenodd" d="M291.188 178.607c-.06207226.17583879-.19324412.31871258-.36315143.39554844-.16990731.07683586-.36381931.08097221-.53684857.01145156-.38410331-.10647329-.62125376-.49097088-.544-.882.06207226-.17583879.19324412-.31871258.36315143-.39554844.16990731-.07683586.36381931-.08097221.53684857-.01145156.3824925.108157.61759457.49215704.54.882"/>
        <path fill="rgb(51,53,51)" fill-rule="evenodd" d="M288.734 175.814c-.974-.817-1.9-1.214-1.634-1.542.266-.328 1.672.13 3.4 1.367 1.025.735.595.947.342 1.272-.253.325-1.131-.28-2.108-1.097z"/>
        <path fill="rgb(200,85,61)" fill-rule="evenodd" d="M310.18 173.976c3.934.615 5.76 4.516 5.613 6.187-.055.6-.434.567-.561.342-.619-1.142-2.229-3.1-5.835-4.526-.49805142-.25046448-.7236269-.83885318-.52065628-1.35807432.20297062-.51922115.76778259-.79863662 1.30365628-.64492568z"/>
        <path fill="rgb(51,53,51)" fill-rule="evenodd" d="M304.359 184.569c-.44352727.79876756-.54859233 1.7419195-.29171859 2.6187102.25687374.8767907.8542761 1.61414047 1.65871859 2.0472898 1.79617553.65304052 3.78579901-.24246737 4.488-2.02.44393477-.79916226.54922913-1.74285665.29235485-2.62021291-.25687428-.87735626-.85450658-1.61524625-1.65935485-2.04878709-1.79845252-.65516986-3.79133315.24277992-4.492 2.024"/>
        <path fill="rgb(241,241,242)" fill-rule="evenodd" d="M308.523 185.249c-.0698483.17212322-.06668798.36525226.00875456.53499798.07544254.16974571.21667832.30150788.39124544.36500202.35898945.1767632.79354924.04574015.995-.3.0698483-.17212322.06668798-.36525226-.00875456-.53499798-.07544254-.16974571-.21667832-.30150788-.39124544-.36500202-.35633608-.17684286-.78875438-.04855731-.991.294"/>
        <path fill="rgb(51,53,51)" fill-rule="evenodd" d="M309.325 183.704c1.272.048 2.229.373 2.242-.051.013-.424-1.326-1.025-3.435-1.261-1.261-.144-1.073.3-1.09.732-.017.432 1.012.536 2.283.58z"/>
        <path fill="rgb(248,177,165)" fill-rule="evenodd" d="M285.705 183.165c-.39 1.067-1.993 1.463-3.586.885-1.593-.578-2.567-1.914-2.181-2.981.386-1.067 1.993-1.463 3.586-.885 1.593.578 2.567 1.914 2.181 2.981z"/>
        <path fill="rgb(248,177,165)" fill-rule="evenodd" d="M312.365 193.402c.4-1.063-.571-2.393-2.157-2.994-1.586-.601-3.2-.209-3.593.855-.393 1.064.571 2.393 2.157 3 1.586.607 3.204.206 3.593-.861z"/>
        <path fill="rgb(252,214,189)" fill-rule="evenodd" d="M298.097 186.356c.038-.3-.547-.8-1.309-1.114-.762-.314-1.408-.325-1.449-.027-.041.298.547.8 1.309 1.114.762.314 1.408.335 1.449.027z"/>
        <path fill="rgb(241,107,108)" fill-rule="evenodd" d="M299.512 190.378c-.23487-.22436-.52287-.38539-.837-.468-1.026-.4-2.328.062-3.7-.636-.8923-.63498-1.85256-1.16861-2.863-1.591-.28297-.11198-.59638-.12048-.885-.024-.30803.09684-.52159.37731-.533.7-.22653 1.19464.04633 2.42993.755 3.418 1.46866 1.92774 4.08044 2.57455 6.279 1.555.768-.395 2.645-1.916 1.784-2.954z"/>
        <path fill="rgb(255,255,255)" fill-rule="evenodd" d="M299.385 190.589c.03366769-.09013463.05551619-.18425126.065-.28-.2280241-.18414562-.49097409-.32021289-.773-.4-1.025-.4-2.328.062-3.7-.636-.89413469-.63353423-1.85606772-1.16548185-2.868-1.586-.17092053-.05759702-.34966739-.08862478-.53-.092-.427 1.121 1.367 2.28 3.521 3.1 2.154.82 3.854 1.015 4.285-.106z"/>
        <path fill="rgb(248,177,165)" fill-rule="evenodd" d="M291.42 191.74l.027.044c1.24300448 1.6214433 3.31729983 2.369268 5.309 1.914-.3997902-1.00896778-1.21079331-1.79962404-2.2295914-2.1736543-1.0187981-.37403025-2.14873923-.29595079-3.1064086.2146543v.001z"/>
        <path fill="rgb(200,85,61)" fill-rule="evenodd" d="M318.032 171.429c-2 3.822-9.852 2.964-10.173-1.456-2.345 2.3-5.045-.092-3.979-2.878-5.688 3.241-13.075-2.512-9.3-7.09 0 0-9.688-.222-14.986 14.976 0 0 2.882-28.218 23.928-20.219 21.159 8.04 26.263 18.732 13.53 34.5 0 0 3.514-10.091 2.113-13.608-1.401-3.517-1.133-4.225-1.133-4.225z"/>
        <g opacity=".6">
          <ellipse cx="291.488" cy="286.798" fill="rgb(215,218,226)" rx="25.511" ry="4.553"/>
        </g>
      </g>
      <g>
        <path fill="rgb(241,107,108)" fill-rule="evenodd" d="M76.638 268.782c.99275922-1.70414048 2.11859485-3.32718952 3.367-4.854.9786725-1.09767765 1.37932059-2.5941725 1.08-4.034-.489-1.661-2.365-2.013-3.9-1.757-1.535.256-2.988 1.709-4.037 3.541-1.367 2.393-2.106 5.418-1.665 7.247.17229854.8451216.63988984 1.60127949 1.319 2.133.9480059.57044545 2.17643944.30194498 2.8-.612.40769407-.51331985.75528986-1.07162044 1.036-1.664z"/>
        <path fill="rgb(252,214,189)" fill-rule="evenodd" d="M96.772 256.254c2.171-4.669 8.614-14.087 7.247-18.083-3.292-.222-9.985-.94-12.525.25-.554 5.534-1.965 11.246-1.9 15.906-1.586.243-3.261-.154-6.153 1.087-2.17782422 1.1770167-4.17523278 2.6608444-5.931 4.406-1.815 2.735-.906 3.856.246 4.444 1.22.619 3.114-.923 5.042-1.562 2.16653806-.72296351 4.3994824-1.22911097 6.666-1.511 2.762-.661 5.534-1.139 7.308-4.937z"/>
        <path fill="rgb(250,195,167)" fill-rule="evenodd" d="M91.494 238.421c2.54-1.19 9.229-.472 12.525-.25 1.084 3.172-2.735 9.763-5.469 14.682-2.793.15-6.085.246-8.932.106.177-4.386 1.377-9.534 1.876-14.538z"/>
        <path fill="rgb(240,240,240)" fill-rule="evenodd" d="M85.936 261.816l-1.518-6.779c-.311.106-.639.229-.984.376-2.17782422 1.1770167-4.17523278 2.6608444-5.931 4.406-1.815 2.735-.906 3.856.246 4.444 1.22.619 3.114-.923 5.042-1.562 1.009-.342 2.103-.639 3.145-.885z"/>
        <path fill="rgb(241,107,108)" fill-rule="evenodd" d="M118.53 273.628c-.78360092-1.81032704-1.4248771-3.67898843-1.918-5.589-.30769833-1.4373641-1.27595047-2.64508443-2.612-3.258-1.631-.588-3.025.718-3.723 2.1-.698 1.382-.383 3.418.465 5.35 1.114 2.523 3.124 4.905 4.857 5.63.78310542.36156954 1.66937135.43247082 2.5.2 1.01805555-.42873435 1.5270014-1.57539546 1.162-2.618-.17309731-.63108505-.41838378-1.24010686-.731-1.815z"/>
        <path fill="rgb(252,214,189)" fill-rule="evenodd" d="M122.645 249.55c-1.976-4.755-4.563-15.871-8.43-17.563-2.393 2.277-7.442 6.724-8.279 9.4 3.7 4.146 6.956 9.048 10.44 12.149-.892 1.333-2.318 2.3-3.367 5.274-.60082975 2.40117184-.85639903 4.87571554-.759 7.349.786 3.186 2.229 3.275 3.439 2.824 1.282-.482 1.425-2.923 2.256-4.786.9335119-2.0841574 2.06928746-4.07168089 3.391-5.934 1.391-2.476 2.915-4.85 1.309-8.713z"/>
        <path fill="rgb(250,195,167)" fill-rule="evenodd" d="M105.936 241.387c.838-2.677 5.89-7.124 8.279-9.4 3.077 1.343 5.336 8.628 7.127 13.95-1.777 2.164-3.931 4.652-5.961 6.655-3.114-3.093-6.095-7.455-9.445-11.205z"/>
        <path fill="rgb(240,240,240)" fill-rule="evenodd" d="M119.418 261.296l-6.02-3.463c-.133.3-.263.626-.39.978-.60087006 2.40116475-.85643994 4.87571424-.759 7.349.786 3.186 2.229 3.275 3.439 2.824 1.282-.482 1.425-2.923 2.256-4.786.435-.961.951-1.969 1.474-2.902z"/>
        <path fill="rgb(0,101,148)" fill-rule="evenodd" d="M115.484 224.364c-6.389-.253-8.925 1.426-15.041 3.76-2.735 1.026-7.551.868-10.06 2.225-.253 4.557-2.574 14.528-2.865 19.143 1.33 1.142 4.485 1.282 6.153 1.525.629.092 6.895.8 8.737-.752 1.026-1.921 1.863-5.616 2.9-8.2.034-.079.144-.1.205-.161 1.658-1.672 1.948 7.811 1.948 7.811 2.30096764-.12398802 4.59340757-.37402989 6.867-.749 2.80548689-.82399674 5.31731023-2.4320494 7.24-4.635-.132-1.258-2.04-16.945-6.084-19.967z"/>
        <path fill="rgb(153,89,41)" fill-rule="evenodd" d="M119.952 167.042c-.44068104-.3196814-.95829025-.51671798-1.5-.571.988-4.666-.051-8.789-2.9-10.132-1.61846946-.65742838-3.44718724-.54940286-4.977.294-2.56-6.18-7.278-10.453-12.945-10.874-5.223-.386-10.146 2.595-13.564 7.565-12.17400146 2.70158349-20.10323363 14.45987243-18.045 26.759 2.108 12.791 18.664 20.708 31.421 18.591 10.166-1.685 13.205-8.963 14.774-18.627 2.085.212 4.827-1.306 6.837-4 2.567-3.43 2.976-7.463.899-9.005z"/>
        <path fill="rgb(252,214,189)" fill-rule="evenodd" d="M90.134 215.709s-9.171 1.784-15.752-3.453c-7.907-6.293-8.149-13.7-8.149-13.7l2.328-.807s2.564 6.813 8.778 9.25c7.031 2.762 12.265.051 12.265.051l.53 8.659z"/>
        <path fill="rgb(252,214,189)" fill-rule="evenodd" d="M65.092 197.721c.37419688.53521052.78554347 1.04346248 1.231 1.521l2.557-.885c.35224825-.7395679.66502094-1.49729896.937-2.27.212-.622-.39-1.3-.885-.889-.3269191.28586684-.59317153.6344093-.783 1.025-.092.161-.256 0-.222-.178.4-2.26.622-3.6-1.709-3.541-1.026.024-1.637 1.265-1.808 2.075-.25319257 1.09662824-.00305387 2.24902678.682 3.142z"/>
        <path fill="rgb(250,195,167)" fill-rule="evenodd" d="M77.338 206.999l-.092-.038.154 7.178c4.00794007 1.72602407 8.4248622 2.27375988 12.733 1.579l-.53-8.652s-5.233 2.695-12.265-.067z"/>
        <path fill="rgb(252,214,189)" fill-rule="evenodd" d="M108.483 212.048s9.229-1.477 13.608-8.655c5.257-8.628 2.943-15.663 2.943-15.663l-2.465.041s-.065 7.281-5.063 11.7c-5.654 5.008-11.5 4.266-11.5 4.266l2.477 8.311z"/>
        <path fill="rgb(252,214,189)" fill-rule="evenodd" d="M125.82 186.557c-.16746032.63026584-.37863852 1.24809573-.632 1.849l-2.707.048c-.5862683-.57188184-1.14076586-1.17545292-1.661-1.808-.407-.513-.079-1.367.526-1.142.4086367.1598948.78074995.40071397 1.094.708.144.116.243-.082.147-.246-1.155-1.986-1.819-3.162.393-3.914.978-.342 1.972.622 2.413 1.326.6105293.94250715.76718375 2.10879405.427 3.179z"/>
        <path fill="rgb(250,195,167)" fill-rule="evenodd" d="M117.507 199.475l.075-.065 2.318 6.779c-3.16917636 3.00163942-7.13053523 5.03453787-11.417 5.859l-2.475-8.307s5.845.742 11.499-4.266z"/>
        <path fill="rgb(240,240,240)" fill-rule="evenodd" d="M79.458 207.225s-.509 8.823-.253 9.794c.256.971 11.68 1.839 12.1 1.586l2.318-13.5c-4.67956379.96394224-9.40826844 1.67166224-14.165 2.12z"/>
        <path fill="rgb(241,107,108)" fill-rule="evenodd" d="M80.798 207.098c-.872.089-1.34.126-1.34.126s-.509 8.823-.253 9.794c.051.185.492.362 1.183.53.02-3.227.356-9.455.41-10.45z"/>
        <path fill="rgb(240,240,240)" fill-rule="evenodd" d="M115.652 200.361s3.538 8.1 3.634 9.1c.096 1-10.32 5.774-10.8 5.678l-6.853-11.858c4.72284664-.71643168 9.40286818-1.69122753 14.019-2.92z"/>
        <path fill="rgb(241,107,108)" fill-rule="evenodd" d="M114.462 200.681c.738 1.709 3.47 8.05 3.9 9.688.585-.4.937-.718.92-.9-.1-1-3.634-9.1-3.634-9.1s-.407.112-1.186.312z"/>
        <path fill="rgb(240,240,240)" fill-rule="evenodd" d="M117.132 225.609c-5.052-10.7-6.99-18.8-10.939-21.682-1.911-1.395-7.739-.441-10.084.058-2.256.479-8.255 2.184-8.7 4.413-1.395 6.994 1.026 15.058 2.632 25.716 5.7 1.367 7.014 2.393 14.166.5 4.78493628-1.15415065 9.12344033-3.69332162 12.473-7.3.3023405-.1504447.52525381-.42379862.61179055-.7502259.08653673-.3264273.0283151-.67431083-.15979055-.9547741z"/>
        <path fill="rgb(241,107,108)" fill-rule="evenodd" d="M104.887 233.457c-7.442 2.27-9.523.913-14.948.031.031.212.065.414.1.626 5.7 1.367 7.014 2.393 14.166.5 4.78529585-1.15396924 9.12417029-3.69315341 12.474-7.3.279673-.1370833.49157292-.38200755.58700537-.67848937.09543244-.29648182.06619075-.61902543-.08100537-.89351063-3.43228377 3.50709755-7.64674505 6.15098833-12.298 7.715z"/>
        <path fill="rgb(113,207,245)" fill-rule="evenodd" d="M100.125 218.551c-6.72 1.545-9.076 1.429-12.6.786.168 1.125.749 4.5 1.309 7.66 3.6 1.661 5.972 1.983 12.145.564 5.06931795-1.23470952 9.8778927-3.36335043 14.2-6.286-1.155-2.629-1.832-4.369-2.735-6.563-3.472.929-7.67 2.764-12.319 3.839z"/>
        <path fill="rgb(241,107,108)" fill-rule="evenodd" d="M101.318 204.148c.77756755 2.32752296-.3861121 4.85882161-2.659 5.784-2.1.721-4.967-.82-5.787-3.206l-.588-4.136c-.82-2.393-.133-4.755 1.966-5.469 2.1-.721 3.76.937 4.594 3.323l2.474 3.704z"/>
        <path fill="rgb(252,214,189)" fill-rule="evenodd" d="M100.601 203.324c.7165343 2.08205957-.38947327 4.35091928-2.471 5.069-2.08306183.7137874-4.35079099-.39345854-5.069-2.475l-1.255-3.637c-.7137874-2.08306183.39345854-4.35079099 2.475-5.069 2.08306183-.7137874 4.35079099.39345854 5.069 2.475l1.251 3.637z"/>
        <path fill="rgb(250,195,167)" fill-rule="evenodd" d="M99.862 201.17c.71415516 2.08191351-.39105385 4.34913508-2.471 5.069-2.08306183.7137874-4.35079099-.39345854-5.069-2.475l-1.251-3.644c-.34475141-1.00037061-.27760327-2.09676741.18664782-3.04759117.4642511-.95082376 1.28750522-1.67804275 2.28835218-2.02140883 2.08231033-.71420467 4.349554.39345977 5.066 2.475l1.25 3.644z"/>
        <path fill="rgb(252,214,189)" fill-rule="evenodd" d="M68.875 184.985c-1.945 2.236-.092 7.332 4.6 8.358 1.35014675.4061948 2.7912714.39678708 4.136-.027l-1.808-7.39s-4.009-4.298-6.928-.941z"/>
        <path fill="rgb(250,195,167)" fill-rule="evenodd" d="M71.439 186.828c-1.258 1.449-.058 4.748 2.977 5.408.87309325.26205778 1.80390675.26205778 2.677 0l-1.169-4.786s-2.594-2.793-4.485-.622z"/>
        <path fill="rgb(252,214,189)" fill-rule="evenodd" d="M118.585 177.71c2.492 1.6 2.147 7.011-2.071 9.312-1.17949155.77294827-2.56621045 1.1688049-3.976 1.135l-.342-7.6s2.648-5.253 6.389-2.847z"/>
        <path fill="rgb(250,195,167)" fill-rule="evenodd" d="M116.643 180.191c1.613 1.025 1.388 4.536-1.34 6.027-.76553172.49614708-1.66191002.75210592-2.574.735l-.219-4.922s1.709-3.391 4.133-1.84z"/>
        <path fill="rgb(252,214,189)" fill-rule="evenodd" d="M114.346 185.85c.038-1.634.906-17.016-10.313-20.667-8.3574131-2.21569932-17.2563754-.94127379-24.656 3.531-9.741 6.648-5.032 20.851-4.541 22.419.491 1.568 1.08 5.353 3.118 7.582 4.984 5.449 16.586 5.811 18.715 5.517.02 0 13.239-2.437 17.01-10.9 1.224-2.765.629-5.848.667-7.482z"/>
        <path fill="rgb(51,53,51)" fill-rule="evenodd" d="M87.72 188.225c.25475256.8767379.14891205 1.81890185-.29401735 2.61726378-.44292939.79836192-1.1862829 1.3868351-2.06498265 1.63473622-1.89684351.23820233-3.63844952-1.0773132-3.928-2.967-.25545984-.8762075-.15041934-1.8181519.29178445-2.61655976.4422038-.79840787 1.18494789-1.38715565 2.06321555-1.63544024 1.89749026-.23830956 3.63998785 1.07687496 3.931 2.967"/>
        <path fill="rgb(241,241,242)" fill-rule="evenodd" d="M86.569 187.528c.0311853.18371094-.01393.37219297-.12491633.52187351-.11098633.14968055-.27823558.24760173-.46308367.27112649-.38653526.08893087-.77702414-.13191229-.9-.509-.0302868-.18324993.01525082-.37093743.12614845-.51993255.11089763-.1489951.2776188-.24648523.46185155-.27006745.38618288-.09279174.77860007.12783393.9.506"/>
        <path fill="rgb(153,89,41)" fill-rule="evenodd" d="M84.47 177.136c-.95676069-.2621146-1.96030083-.30518206-2.936-.126-2.12046165.35983137-3.9499106 1.6922239-4.943 3.6-.11400995.22439274-.09557265.49327007.048.7.10050629.11662846.256015.1701204.407.14.07740231-.0166287.1499404-.05084477.212-.1 1.10091866-.78246568 2.36980919-1.29618654 3.705-1.5 1.10458107-.19250812 2.22718178-.26126615 3.347-.205.08802999.00466628.1763033-.0010396.263-.017.55563257-.11681194.955315-.60424983.961-1.172.01795143-.64170048-.43311834-1.20129831-1.064-1.32z"/>
        <path fill="rgb(153,89,41)" fill-rule="evenodd" d="M100.467 174.993l-.041.027c-.57657092.361889-.7763314 1.10728346-.458 1.709.27352872.54041998.91032505.78789533 1.477.574 3.825-1.518 6.324-1 7.223-.684.14273952.04681994.29907823.02543398.424-.058.09176332-.06952318.15189826-.17286886.167-.287.01433041-.21414432-.0610159-.42460684-.208-.581-1.186-1.51-5.346-2.919-8.584-.7z"/>
        <path fill="rgb(51,53,51)" fill-rule="evenodd" d="M100.976 186.329c.00049111.91244034.3655731 1.78685343 1.01404407 2.42875142.64847096.64189798 1.52655794.99805296 2.43895593.98924858 1.88523823-.30687272 3.18735244-2.05364366 2.943-3.948-.00236342-.9123829-.36845547-1.78615841-1.01716632-2.42773645-.64871086-.64157804-1.5264804-.99798741-2.43883368-.99026355-1.88170007.31499605-3.17924332 2.05917663-2.94 3.952"/>
        <path fill="rgb(241,241,242)" fill-rule="evenodd" d="M104.945 184.899c.02197425.18408241.11772918.35136062.26533642.46352704.14760723.11216641.3344223.15961254.51766358.13147296.39785946-.02114701.71307844-.34375733.725-.742-.02192031-.18469068-.11810447-.35249181-.26639447-.46474697-.14829-.11225515-.33589833-.1592842-.51960553-.13025303-.39778991.01985135-.71257428.3438042-.721.742"/>
        <path fill="rgb(248,177,165)" fill-rule="evenodd" d="M83.995 194.177c.181 1.121-1.026 2.249-2.7 2.519-1.674.27-3.176-.424-3.357-1.545-.181-1.121 1.026-2.246 2.7-2.516 1.674-.27 3.175.417 3.357 1.542z"/>
        <path fill="rgb(248,177,165)" fill-rule="evenodd" d="M112.267 190.154c-.171-1.121-1.668-1.822-3.343-1.569-1.675.253-2.892 1.367-2.735 2.5.157 1.133 1.668 1.825 3.343 1.569s2.9-1.376 2.735-2.5z"/>
        <path fill="rgb(250,195,167)" fill-rule="evenodd" d="M96.365 190.946c-.113-.28-.865-.434-1.685-.342-.82.092-1.388.4-1.278.684.11.284.868.434 1.685.342.817-.092 1.401-.403 1.278-.684z"/>
        <path fill="rgb(241,107,108)" fill-rule="evenodd" d="M99.569 193.756c-.31529-.08038-.64571-.08038-.961 0-1.094.157-2.007 1.186-3.541 1.241-1.08967-.11451-2.18833-.11451-3.278 0-.30189.04328-.57955.18953-.786.414-.22167.23543-.26984.58545-.12.872.3829 1.15538 1.22295 2.10314 2.324 2.622 2.22327.9745 4.82521.26212 6.242-1.709.475-.705 1.36-2.944.12-3.44z"/>
        <path fill="rgb(255,255,255)" fill-rule="evenodd" d="M99.558 194.007c-.01582724-.09501163-.04232833-.18793317-.079-.277-.28923794-.05186973-.58605299-.04370051-.872.024-1.094.157-2.007 1.186-3.541 1.241-1.08966637-.11451334-2.18833363-.11451334-3.278 0-.17652783.03556174-.3469673.09652922-.506.181.171 1.186 2.3 1.326 4.584 1 2.284-.326 3.863-.977 3.692-2.169z"/>
        <path fill="rgb(248,177,165)" fill-rule="evenodd" d="M93.159 198.891l.048.024c1.87380256.81400668 4.0503661.4586733 5.568-.909-.8407534-.68605616-1.93388315-.98161077-3.00580006-.81269224-1.0719169.16891853-2.02117739.78632417-2.61019994 1.69769224z"/>
        <path fill="rgb(153,89,41)" fill-rule="evenodd" d="M108.644 169.94c-9.031 6.943-10.682 4.758-8.956-.386-3.388 4.529-7.681 4.375-5.162.759-7.486 8.341-15.994 6.919-12.142-1.025 0 0-10.477 4.864-7.715 20.722 0 0-11.209-26.055 11.075-29.309 22.4-3.268 32.057 3.593 28.6 23.566 0 0-1.689-7.261-3.723-11.281-.53474508-1.09078224-1.19849307-2.11343088-1.977-3.046z"/>
        <g opacity=".6">
          <path fill="rgb(215,218,226)" fill-rule="evenodd" d="M123.267 291.931c0 2.512-11.424 4.553-25.514 4.553s-25.511-2.051-25.511-4.553 11.421-4.557 25.511-4.557 25.514 2.041 25.514 4.557z"/>
        </g>
      </g>
      <g>
        <path fill="rgb(106,71,155)" fill-rule="evenodd" d="M164.444 240.107c2.393 8.857 19.426 11.041 30.365 11.622 10.939.581 13.564-3.48 13.564-3.48-1.768-8.386-46.337-16.999-43.929-8.142z"/>
        <path fill="rgb(150,102,170)" fill-rule="evenodd" d="M192.698 266.692c.438 2.646.068 5.657-.957 7.178-.44716928.70943038-1.13135804 1.23736475-1.931 1.49-1.05675022.19479438-2.08164458-.46974098-2.335-1.514-.19734707-.6052945-.32353036-1.23151263-.376-1.866-.322254-1.89143205-.79304434-3.75453133-1.408-5.572-.51719928-1.33411937-.37139782-2.83442753.393-4.044 1.026-1.343 2.844-1.026 4.15-.267 1.306.759 2.133 2.578 2.464 4.595z"/>
        <path fill="rgb(255,238,226)" fill-rule="evenodd" d="M189.198 265.315c-.10833973.88684191-.88148679 1.54057392-1.774 1.5-.827-.021-.913-.684-1.627-1.169-1.23853898-.85846269-2.42651323-1.78767357-3.558-2.783-3.54813214-3.16352444-6.53974342-6.90050327-8.85-11.055-1.107-1.983-3.23-4.786-3.1-7.2.171-3.312 2.143-5.018 4.758-4.119 1.58417753.68116245 2.91369422 1.8437898 3.8 3.323 3.312 4.516 5.315 10.836 7.838 15.9.63359674 1.09188844 1.35745584 2.12884001 2.164 3.1.41016977.76632092.53390037 1.65370686.349 2.503z"/>
        <path fill="rgb(253,229,109)" fill-rule="evenodd" d="M186.682 259.719l-.072-.147-3.053 4.413c.728.588 1.473 1.149 2.236 1.675.763.526.8 1.149 1.627 1.169.89251321.04057392 1.66566027-.61315809 1.774-1.5.18786452-.84941499.06659906-1.73798587-.342-2.506-.80467639-.97535204-1.53030871-2.01330722-2.17-3.104z"/>
        <path fill="rgb(252,214,189)" fill-rule="evenodd" d="M178.845 243.806c-.88625307-1.47925423-2.21578585-2.64189566-3.8-3.323-2.615-.9-4.587.807-4.758 4.119-.13 2.42 1.993 5.22 3.1 7.2.277.5.567.988.865 1.473l8.857-1.624c-1.13933443-2.75870497-2.5686986-5.38848027-4.264-7.845z"/>
        <path fill="rgb(237,149,75)" fill-rule="evenodd" d="M234.86 189.001c.52858204.17521451 1.09729577.18948456 1.634.041 2.783-1.21-2.813-8.86-7.9-11.161-.30388469-.19780799-.63102502-.35734768-.974-.475-7.678-2.536-9.609.591-12.87 1.121-3.644.383-4.977-2.017-8.276-1.853l-1.046-.106c-.137 7.384 1.877 16.545 11.363 14.388 9.325-2.119 7.1 5.685 14.463 6.095 3.845.215 4.539-3.668 3.606-8.05z"/>
        <path fill="rgb(237,149,75)" fill-rule="evenodd" d="M154.102 212.415c-.32579865.45134632-.5112038.98877775-.533 1.545.314 3.018 9.3 0 13.027-4.167.27929186-.22968853.5294783-.49263615.745-.783 4.734-6.556 2.338-9.339 2.817-12.607.731-3.593 3.418-4.14 4.263-7.336l.417-.961c-7-2.362-16.34-3.206-17.146 6.495-.793 9.53-7.561 5.052-10.176 11.964-1.365 3.587 2.125 5.416 6.586 5.85z"/>
        <path fill="rgb(237,149,75)" fill-rule="evenodd" d="M210.372 165.349c1.309-4.786 2.078-7.585-2.106-13.15-4.184-5.565-15.307-8.672-26.017-4.642-5.726 2.154-9.865 4.287-12.364 8.125.034-.113-.315-.984-.28-1.1.814-2.536 2.67-4.936 1.333-5.367-1.337-.431-3.076 1.282-3.89 3.815-.2795033 1.41172631-.25974446 2.86638619.058 4.27-.57236009-.26362561-1.1733802-.45993872-1.791-.585-1.918 0-3.47.684-3.47 1.993 0 1.193 2.5-.752 3.736 1.347-3.794 3.5-6.2 5.616-6.153 11.318.062 5.869 3.418 7.312 4.335 8.484-.834 13.55 16.75 16.808 29.056 16.808 8.983 0 6.946-4.536 10.487-11.075 4.676-3.5 9.517-6.738 9.517-12.47.007-2.186-1.603-5.809-2.451-7.771z"/>
        <path fill="rgb(150,102,170)" fill-rule="evenodd" d="M209.24 262.453c-.86147264-1.77532279-1.86052093-3.48052569-2.988-5.1-.8907144-1.16802083-1.17490984-2.68917132-.766-4.1.615-1.62 2.513-1.829 4.02-1.453 1.507.376 2.848 1.942 3.76 3.839 1.186 2.489 1.682 5.565 1.1 7.353-.23829909.82933096-.76263362 1.5474567-1.48 2.027-.98663565.49427209-2.18754166.13114621-2.735-.827-.37147307-.5415377-.67728349-1.12529656-.911-1.739z"/>
        <path fill="rgb(255,238,226)" fill-rule="evenodd" d="M189.021 250.606c-.109-5.989 2.157-12.607 5.128-17.649 3.40609722-.34105971 6.82229447.54241513 9.636 2.492 0 4.211-3.815 9.865-7.7 12.86 1.6.157 3.251-.342 6.214.752 2.23665056 1.05723735 4.30901164 2.4317385 6.153 4.081 1.962 2.629 1.114 3.8 0 4.444-1.186.684-3.162-.752-5.128-1.289-2.20207443-.60516083-4.45882383-.990051-6.737-1.149-2.798-.519-7.474-.363-7.566-4.542z"/>
        <path fill="rgb(253,229,109)" fill-rule="evenodd" d="M205.176 250.629l-2.051 5.6.188.051c1.959.537 3.935 1.972 5.127 1.289 1.118-.646 1.966-1.819 0-4.444-1.00452041-.93583507-2.09766474-1.77176897-3.264-2.496z"/>
        <path fill="rgb(252,214,189)" fill-rule="evenodd" d="M203.784 235.449c-2.81866288-1.94592456-6.23864372-2.82343363-9.646-2.475-2.96 5.042-5.227 11.66-5.127 17.649 2.841-1.654 6.758-3.627 10.132-5.261 2.61-3.032 4.638-6.861 4.641-9.913z"/>
        <path fill="rgb(192,229,234)" fill-rule="evenodd" d="M200.913 218.76l-25.156-2.393s-14.6 21.1-14.73 22.9c-.195 2.793 12.86 14.323 22.78 9.913 9.325-4.129 16.008-7.178 24.4-.879 1.758 1.333-7.294-29.541-7.294-29.541z"/>
        <path fill="rgb(255,238,226)" fill-rule="evenodd" d="M182.197 204.646c-3.84514136-4.22418174-8.16736822-7.9880091-12.88-11.216-4.19467951-2.58422383-8.5940674-4.8203731-13.154-6.686l-.386 2.43s4.348 4.512 9.229 9.647c2.88662674 3.09112775 6.06841342 5.89277464 9.5 8.365l7.691-2.54z"/>
        <path fill="rgb(255,238,226)" fill-rule="evenodd" d="M155.508 189.506c.58709416.2823313 1.19364398.52227773 1.815.718l1.795-2.027c-.062-.892-.2-1.9-.3-2.437-.126-.646-.984-.943-1.21-.342-.14392202.41463894-.20209876.85419655-.171 1.292 0 .185-.219.13-.284-.051-.762-2.164-1.227-3.435-3.234-2.236-.885.53-.8 1.907-.554 2.7.32246257 1.07459207 1.1085367 1.94870064 2.143 2.383z"/>
        <path fill="rgb(252,214,189)" fill-rule="evenodd" d="M181.336 204.936l.451-.762c-3.09287724-3.32407117-6.47261116-6.36917797-10.1-9.1-1.043 1.443-2.888 4.444-4.047 6.351 2.15212151 2.0914302 4.45863926 4.01787393 6.9 5.763l6.796-2.252z"/>
        <path fill="rgb(192,229,234)" fill-rule="evenodd" d="M167.629 204.081s5.028-7.486 5.726-8.2c.698-.714 11.848 3.333 12.087 3.76l-5.774 14.357c-6.239-3.118-12.039-9.917-12.039-9.917z"/>
        <path fill="rgb(255,238,226)" fill-rule="evenodd" d="M197.402 206.102c4.40238264-3.63989792 9.21220593-6.7567359 14.333-9.288 4.5176869-1.96719648 9.18898666-3.56086322 13.967-4.765l.041 2.461s-4.939 3.852-10.511 8.248c-3.29888725 2.65388529-6.8490706 4.9792554-10.6 6.943l-7.23-3.599z"/>
        <path fill="rgb(255,238,226)" fill-rule="evenodd" d="M225.966 194.876c-.62207436.19533144-1.25692547.34736157-1.9.455l-1.49-2.27c.17410824-.8010254.38871706-1.5927083.643-2.372.215-.622 1.1-.8 1.244-.167.0884119.42882372.0884119.87117628 0 1.3-.024.185.2.161.284 0 1.06-2.034 1.709-3.23 3.517-1.76.8.649.53 2 .171 2.735-.47731944 1.02228986-1.3803704 1.78269608-2.469 2.079z"/>
        <path fill="rgb(252,214,189)" fill-rule="evenodd" d="M198.237 206.516l-.342-.82c3.5303038-2.85586657 7.3052142-5.39533958 11.281-7.589.827 1.576 2.232 4.8 3.107 6.861-2.42602924 1.7664169-4.98082755 3.34883418-7.643 4.734l-6.403-3.186z"/>
        <path fill="rgb(192,229,234)" fill-rule="evenodd" d="M211.91 207.591s-3.924-8.119-4.512-8.932c-.588-.813-12.2 1.627-12.5 2.017l3.692 15.041c6.613-2.208 13.32-8.126 13.32-8.126z"/>
        <path fill="rgb(192,229,234)" fill-rule="evenodd" d="M201.689 227.522c-.472-11.824.906-20.042-1.61-24.236-1.217-2.031-6.956-3.418-9.312-3.883-2.26-.438-8.447-1.21-9.729.684-4.01 5.9-4.933 14.261-7.613 24.7 4.717 3.49 5.527 4.936 12.846 6 4.85755167.8035716 9.84420084.15802367 14.337-1.856.33782569-.02602369.64865002-.1944686.85489489-.46329285.20624487-.26882426.2884526-.61266629.22610511-.94570715z"/>
        <path fill="rgb(106,71,155)" fill-rule="evenodd" d="M194.968 201.723c-.23701165 2.44479622-2.3309769 4.28587556-4.786 4.208-2.212-.191-4.208-2.762-3.989-5.278l1.135-4.02c.215-2.512 1.8-4.4 4.017-4.208 2.212.191 3.076 2.393 2.854 4.9l.769 4.398z"/>
        <path fill="rgb(255,238,226)" fill-rule="evenodd" d="M194.647 200.677c-.09052483 1.05351216-.59594134 2.0278859-1.40501661 2.70867943-.80907528.68079352-1.85550292 1.01221354-2.90898339.92132057-2.19464707-.18803258-3.82150226-2.11930756-3.634-4.314l.342-3.839c.08949321-1.05392773.59462248-2.02894654 1.4039474-2.70995012.8093249-.68100358 1.85633903-1.01203032 2.9100526-.92004988 1.05392773.08949321 2.02894654.59462248 2.70995012 1.4039474.68100358.8093249 1.01203032 1.85633903.92004988 2.9100526l-.338 3.839z"/>
        <path fill="rgb(252,214,189)" fill-rule="evenodd" d="M194.842 198.407c-.18803258 2.19464707-2.11930756 3.82150226-4.314 3.634-2.1948219-.19012053-3.82097809-2.12190816-3.634-4.317l.342-3.839c.09052483-1.05351216.59594134-2.0278859 1.40501661-2.70867943.80907528-.68079352 1.85550292-1.01221354 2.90898339-.92132057 1.05392773.08949321 2.02894654.59462248 2.70995012 1.4039474.68100358.8093249 1.01203032 1.85633903.92004988 2.9100526l-.338 3.838z"/>
        <path fill="rgb(255,238,226)" fill-rule="evenodd" d="M163.271 183.264c-1.767 2.393.475 7.319 5.23 7.975 1.3775886.30120034 2.81386634.1820621 4.123-.342l-2.376-7.23s-4.326-3.975-6.977-.403z"/>
        <path fill="rgb(252,214,189)" fill-rule="evenodd" d="M165.975 184.905c-1.145 1.538.308 4.734 3.384 5.162.8922687.19323757 1.82189685.11594264 2.67-.222l-1.538-4.68s-2.8-2.57-4.516-.26z"/>
        <path fill="rgb(255,238,226)" fill-rule="evenodd" d="M212.272 172.158c2.612 1.4 2.683 6.837-1.343 9.441-1.11865241.85773698-2.46877954 1.36037719-3.876 1.443l-.926-7.555s2.214-5.435 6.145-3.329z"/>
        <path fill="rgb(252,214,189)" fill-rule="evenodd" d="M210.526 174.79c1.709.906 1.736 4.416-.868 6.112-.72409372.55469021-1.59830555.87873047-2.509.93l-.6-4.888s1.45-3.518 3.977-2.154z"/>
        <path fill="rgb(255,238,226)" fill-rule="evenodd" d="M208.683 180.605c-.089-1.631-.417-17.037-11.882-19.806-8.50723036-1.562237-17.28413007.39829097-24.318 5.432-9.2 7.384-3.418 21.194-2.789 22.7.629 1.506 1.494 5.254 3.7 7.319 5.391 5.045 16.982 4.516 19.084 4.047.021 0 13.01-3.456 16.114-12.183 1.003-2.847.173-5.875.091-7.509z"/>
        <path fill="rgb(237,149,75)" fill-rule="evenodd" d="M177.744 173.789c-3.986.038-6.358 3.63-6.454 5.305-.034.6.342.626.5.417.779-1.026 2.656-2.735 6.433-3.627.52532795-.1772754.83108695-.72353833.70751048-1.26402411-.12357646-.54048579-.63634095-.89960181-1.18651048-.83097589z"/>
        <path fill="rgb(51,53,51)" fill-rule="evenodd" d="M182.314 185.034c.32197695.8537721.28974767 1.80076103-.08953063 2.630667-.37927829.82990597-1.0742097 1.47403104-1.93046937 1.789333-1.87317249.38353593-3.71179975-.7918564-4.15-2.653-.32179434-.85420483-.28950843-1.80149205.08969849-2.631805.37920691-.83031297 1.0739962-1.4750325 1.93030151-1.791195 1.87420784-.38390566 3.71361162.79331276 4.15 2.656"/>
        <path fill="rgb(241,241,242)" fill-rule="evenodd" d="M181.11 184.434c.04376679.17975402.0128522.3695708-.0856912.52614741-.0985434.15657662-.25631012.26655746-.4373088.30485259-.37859678.12309547-.78814574-.06599415-.94-.434-.04462544-.18060768-.01375885-.37160091.08548535-.52895768.0992442-.15735677.25830289-.26749983.44051465-.30504232.37886894-.1223493.78788453.06884475.937.438"/>
        <path fill="rgb(51,53,51)" fill-rule="evenodd" d="M177.528 183.459c-1.265-.14-2.259.044-2.215-.379.044-.423 1.463-.817 3.586-.745 1.268.041 1.026.458.971.882-.055.424-1.08.382-2.342.242z"/>
        <path fill="rgb(237,149,75)" fill-rule="evenodd" d="M194.378 170.073c3.623-1.661 7.3.581 8.1 2.051.284.526-.048.714-.28.591-1.145-.608-3.565-1.347-7.363-.544-.55336573.06901443-1.06802444-.2954-1.18671284-.84027585-.1186884-.54487585.1977766-1.09033104.72971284-1.25772415z"/>
        <path fill="rgb(51,53,51)" fill-rule="evenodd" d="M195.381 182.123c.07305583.90926987.50550504 1.75192386 1.2016239 2.34143838.69611887.58951452 1.59849174.87726661 2.5073761.79956162 1.85911472-.448877 3.02290653-2.29631336 2.625-4.167-.07279567-.90937334-.50517203-1.75218967-1.20135373-2.3417574-.6961817-.58956774-1.5987027-.87722124-2.50764627-.7992426-1.85977889.44795184-3.02402778 2.2961138-2.625 4.167"/>
        <path fill="rgb(241,241,242)" fill-rule="evenodd" d="M199.228 180.386c.03667657.18228816.14598506.34178901.30275545.44177494.1567704.09998593.34749071.1318392.52824455.08822506.393906-.0511289.68246388-.39626677.663-.793-.03667657-.18228816-.14598506-.34178901-.30275545-.44177494-.1567704-.09998593-.34749071-.1318392-.52824455-.08822506-.39465515.04976034-.68394352.39577192-.663.793"/>
        <path fill="rgb(51,53,51)" fill-rule="evenodd" d="M199.044 178.652c1.087-.663 2.051-.923 1.839-1.282-.212-.359-1.668-.12-3.558.848-1.132.578-.728.851-.506 1.214.222.363 1.141-.113 2.225-.78z"/>
        <path fill="rgb(248,177,165)" fill-rule="evenodd" d="M179.06 191.259c.267 1.1-.851 2.321-2.5 2.735-1.649.414-3.2-.174-3.463-1.275-.263-1.101.851-2.324 2.5-2.735 1.649-.411 3.196.171 3.463 1.275z"/>
        <path fill="rgb(248,177,165)" fill-rule="evenodd" d="M206.936 185.059c-.256-1.108-1.8-1.709-3.453-1.306-1.653.403-2.779 1.593-2.519 2.7.26 1.107 1.8 1.709 3.453 1.306 1.653-.403 2.776-1.596 2.519-2.7z"/>
        <path fill="rgb(252,214,189)" fill-rule="evenodd" d="M191.154 187.079c-.133-.273-.9-.366-1.709-.205s-1.367.506-1.22.776c.147.27.9.362 1.709.205s1.353-.506 1.22-.776z"/>
        <path fill="rgb(241,107,108)" fill-rule="evenodd" d="M194.206 190.572c-.0617331-.07142364-.1584349-.1019814-.25-.079-.06882049.0070943-.13240957.03996058-.178.092-.40732749.59635944-.93202373 1.10336165-1.542 1.49-1.545.95-3.545.311-4.861-.55-.02836915-.02404099-.06310912-.03932657-.1-.044l-.1-.021c-.127-.027-.3.055-.28.171.195 1.2 2.909 1.983 4.174 1.709.87051806-.15276634 1.66670158-.58739962 2.266-1.237.262-.285 1.114-1.134.871-1.531z"/>
        <path fill="rgb(237,149,75)" fill-rule="evenodd" d="M199.515 164.005c.461 8.765-10.737 4.734-12.781-1.733-4.242 13.414-15.211 14.494-14.6 8.594 0 0-6.683 1.367-2.7 16.969 0 0-13.191-25.111 8.771-30.081 22.076-4.994 32.238 1.1 30.345 21.279-1.09183124-3.77694699-2.77974662-7.3553276-5-10.6-1.12720087-1.66067512-2.4859351-3.15174704-4.035-4.428z"/>
        <path fill="rgb(150,102,170)" fill-rule="evenodd" d="M183.808 239.922c-6.991 3.094-15.54-1.709-19.908-5.811-1.14120375 1.60765442-2.10388213 3.33484227-2.871 5.151-.195 2.793 12.86 14.323 22.78 9.913 9.325-4.129 16.008-7.178 24.4-.878.735.554-.42-4.526-2.013-10.624-7.481-4.426-13.819-1.541-22.388 2.249z"/>
        <path fill="rgb(255,255,255)" fill-rule="evenodd" d="M188.238 211.407c-.379-1.863-3.647-1.569-4.912-1.1-.5402447.24846796-.92991566.73930683-1.04938145 1.321826-.1194658.58251918.04554812 1.18711546.44438145 1.628174.26.342.882.315 1.429.25l-1.026 3.89c-.17618842.5756548-.3075804 1.16407693-.393 1.76-.147 1.511 1.883 1.73 2.923 1.819.2272713-.00453096.42398791-.15921062.482-.379l1.149-4.4s.369-1.422.742-2.841c.2315282-.62196133.30405608-1.29189896.211-1.949z"/>
        <path fill="rgb(255,255,255)" fill-rule="evenodd" d="M196.329 212.887c-.383-1.863-3.647-1.569-4.916-1.1-.540114.24881342-.9292922.74016402-1.04781517 1.322902-.11852298.58273798.04780397 1.18707267.44781517 1.627098.26.342.882.314 1.429.25l-1.025 3.89c-.17615752.57566297-.30754896 1.16408269-.393 1.76-.143 1.511 1.883 1.733 2.923 1.819.2272713-.00453096.42398791-.15921062.482-.379l1.159-4.406c.246-.947.5-1.894.742-2.841.22423017-.62230427.29456446-1.28962226.205-1.945l-.006.002z"/>
        <path fill="rgb(150,102,170)" fill-rule="evenodd" d="M187.489 211.027c-.379-1.863-3.647-1.572-4.912-1.1-.53991713.24879389-.92927331.73960318-1.04870671 1.32196439-.1194334.5823612.04530279 1.18680639.44370671 1.62803561.256.342.882.314 1.429.25l-1.026 3.89c-.1761305.5756701-.30752149 1.16408772-.393 1.76-.147 1.511 1.884 1.73 2.923 1.819.2272713-.00453096.42398791-.15921062.482-.379l1.148-4.4c.246-.947.492-1.9.742-2.841.22180995-.6242171.29441362-1.29169136.212-1.949z"/>
        <path fill="rgb(150,102,170)" fill-rule="evenodd" d="M195.571 212.501c-.383-1.863-3.651-1.569-4.916-1.1-.53959022.24911887-.9286325.7398987-1.04803361 1.32210243-.1194011.58220374.04505813 1.18649828.44303361 1.62789757.26.342.882.314 1.429.25l-1.026 3.89c-.17616138.57566195-.3075529 1.16408197-.393 1.76-.144 1.511 1.883 1.733 2.923 1.819.2272713-.00453096.42398791-.15921062.482-.379l1.148-4.4s.369-1.419.742-2.841c.23137125-.62197337.30556762-1.29145823.216-1.949z"/>
        <g opacity=".6">
          <path fill="rgb(215,218,226)" fill-rule="evenodd" d="M221.911 282.027c0 2.512-11.424 4.553-25.514 4.553s-25.511-2.051-25.511-4.553 11.421-4.557 25.511-4.557 25.514 2.041 25.514 4.557z"/>
        </g>
      </g>
    </g>
  </g>
</svg>
