<svg xmlns="http://www.w3.org/2000/svg" viewBox="0 0 134.13 168.62"><defs><style>.cls-1{fill:#51197c;}.cls-2{fill:#fafafa;}.cls-3{fill:#fa0;}.cls-4{font-size:22.49px;fill:#fff;font-family:Montserrat-SemiBold, Montserrat;font-weight:600;}.cls-5{font-size:14.99px;}</style></defs><title>Watch </title><g id="Layer_2" data-name="Layer 2"><g id="DESIGNED_BY_FREEPIK" data-name="DESIGNED BY FREEPIK"><circle class="cls-1" cx="67" cy="101.43" r="67" transform="translate(-11.85 8.91) rotate(-7)"/><path class="cls-2" d="M121.13,101.43A54.14,54.14,0,1,1,67,47.3,54.13,54.13,0,0,1,121.13,101.43Z"/><circle class="cls-1" cx="67.13" cy="101.62" r="67" transform="translate(-52.38 125.09) rotate(-67.66)"/><path class="cls-2" d="M121.26,101.62A54.13,54.13,0,1,1,67.13,47.49,54.12,54.12,0,0,1,121.26,101.62Z"/><path class="cls-1" d="M67.45,53.65a1,1,0,0,1-1-1.07V35.43a1,1,0,1,1,2,0V52.58A1,1,0,0,1,67.45,53.65Z"/><path class="cls-1" d="M67.45,167.28a1,1,0,0,1-1-1.07V149.06a1,1,0,1,1,2,0v17.15A1,1,0,0,1,67.45,167.28Z"/><path class="cls-1" d="M132.4,102.25H115.25c-.59,0-1.07-.91-1.07-1.5s.48-1.5,1.07-1.5H132.4c.6,0,1.08.91,1.08,1.5S133,102.25,132.4,102.25Z"/><path class="cls-1" d="M18.77,102.25H1.62c-.59,0-1.07-.91-1.07-1.5s.48-1.5,1.07-1.5H18.77c.6,0,1.08.91,1.08,1.5S19.37,102.25,18.77,102.25Z"/><path class="cls-1" d="M39.85,58.07a1.06,1.06,0,0,1-.91-.51L32,46.42a1.07,1.07,0,1,1,1.82-1.13l6.9,11.15a1.06,1.06,0,0,1-.35,1.47A1,1,0,0,1,39.85,58.07Z"/><path class="cls-1" d="M101.79,158.12a1.1,1.1,0,0,1-.92-.5L94,146.47a1.08,1.08,0,1,1,1.83-1.13l6.9,11.15a1.07,1.07,0,0,1-.91,1.63Z"/><path class="cls-1" d="M111.82,75a1.06,1.06,0,0,1-.91-.51,1.07,1.07,0,0,1,.35-1.48l11.14-6.9a1.07,1.07,0,1,1,1.13,1.82l-11.14,6.91A1.2,1.2,0,0,1,111.82,75Z"/><path class="cls-1" d="M11.77,136.94a1.07,1.07,0,0,1-.57-2l11.15-6.9a1.07,1.07,0,1,1,1.13,1.82l-11.15,6.9A1,1,0,0,1,11.77,136.94Z"/><path class="cls-1" d="M21.72,77a1.07,1.07,0,0,1-.52-.14L9.75,70.51a1.07,1.07,0,0,1,1.05-1.87L22.24,75a1.07,1.07,0,0,1-.52,2Z"/><path class="cls-1" d="M124.46,134.4a1.06,1.06,0,0,1-.52-.13l-11.45-6.39a1.08,1.08,0,0,1,1.05-1.88L125,132.4a1.07,1.07,0,0,1-.52,2Z"/><path class="cls-1" d="M92.85,56.88a1.13,1.13,0,0,1-.52-.14,1.08,1.08,0,0,1-.41-1.46l6.39-11.44a1.07,1.07,0,1,1,1.87,1L93.79,56.33A1.08,1.08,0,0,1,92.85,56.88Z"/><path class="cls-1" d="M35.49,159.62a1,1,0,0,1-.52-.14,1.08,1.08,0,0,1-.42-1.46l6.39-11.44a1.07,1.07,0,0,1,1.88,1l-6.39,11.45A1.08,1.08,0,0,1,35.49,159.62Z"/><path class="cls-1" d="M57.12,50.54a.35.35,0,0,1-.35-.28L54.2,37.4a.36.36,0,0,1,.28-.42.35.35,0,0,1,.42.28l2.57,12.86a.35.35,0,0,1-.28.42Z"/><path class="cls-1" d="M80.18,165.93a.36.36,0,0,1-.35-.28l-2.57-12.86a.37.37,0,0,1,.28-.42.36.36,0,0,1,.42.28l2.57,12.86a.35.35,0,0,1-.28.42Z"/><path class="cls-1" d="M118.63,91.57a.36.36,0,0,1-.06-.71l12.85-2.57a.35.35,0,0,1,.42.28.36.36,0,0,1-.28.42l-12.85,2.57Z"/><path class="cls-1" d="M3.24,114.63a.36.36,0,0,1-.06-.71L16,111.35a.35.35,0,0,1,.42.28.36.36,0,0,1-.28.42L3.31,114.62Z"/><path class="cls-1" d="M52.21,51.77a.34.34,0,0,1-.34-.25L48.07,39a.35.35,0,1,1,.68-.2l3.8,12.54a.36.36,0,0,1-.24.45Z"/><path class="cls-1" d="M86.33,164.39a.37.37,0,0,1-.35-.25l-3.8-12.55a.35.35,0,0,1,.24-.44.36.36,0,0,1,.45.24l3.8,12.54a.37.37,0,0,1-.24.45Z"/><path class="cls-1" d="M117.4,86.65a.36.36,0,0,1-.34-.25.37.37,0,0,1,.24-.45l12.55-3.8a.36.36,0,0,1,.2.69l-12.54,3.8Z"/><path class="cls-1" d="M4.79,120.77a.36.36,0,0,1-.11-.7l12.55-3.8a.36.36,0,0,1,.21.68l-12.55,3.8A.2.2,0,0,1,4.79,120.77Z"/><path class="cls-1" d="M62.22,49.25c-.18,0-.33.13-.35-.06L60.58,36.28c0-.2.12-.3.32-.32a.39.39,0,0,1,.39.35l1.29,12.8c0,.19-.13.14-.32.14Z"/><path class="cls-1" d="M73.8,166.88a.36.36,0,0,1-.36-.32l-1.28-13a.35.35,0,0,1,.32-.39.35.35,0,0,1,.39.32l1.29,13a.37.37,0,0,1-.33.39Z"/><path class="cls-1" d="M119.39,96.25c-.18,0-.33.07-.35-.11s.12-.27.32-.29l13-1.24a.39.39,0,0,1,.39.35c0,.19-.13.17-.32.19l-13,1.1Z"/><path class="cls-1" d="M2.29,108.24a.35.35,0,0,1-.35-.32.36.36,0,0,1,.32-.39l13.05-1.29a.37.37,0,0,1,.39.32.36.36,0,0,1-.33.39l-13,1.29Z"/><path class="cls-1" d="M43.2,55.45a.36.36,0,0,1-.32-.19L36.82,43.64a.37.37,0,0,1,.15-.49.36.36,0,0,1,.48.15l6.06,11.63a.35.35,0,0,1-.15.48A.32.32,0,0,1,43.2,55.45Z"/><path class="cls-1" d="M97.6,159.79a.36.36,0,0,1-.32-.19L91.22,148a.37.37,0,0,1,.15-.49.36.36,0,0,1,.49.16l6,11.62a.34.34,0,0,1-.15.48A.32.32,0,0,1,97.6,159.79Z"/><path class="cls-1" d="M113.73,77.64a.36.36,0,0,1-.17-.67l11.63-6.07a.36.36,0,0,1,.48.16.36.36,0,0,1-.15.48L113.89,77.6A.32.32,0,0,1,113.73,77.64Z"/><path class="cls-1" d="M9.38,132a.35.35,0,0,1-.31-.19.36.36,0,0,1,.15-.48l11.62-6.06a.36.36,0,1,1,.34.63L9.55,132A.33.33,0,0,1,9.38,132Z"/><path class="cls-1" d="M47.52,53.44a.35.35,0,0,1-.33-.22l-5-12.13a.35.35,0,0,1,.19-.46.36.36,0,0,1,.47.19l5,12.13a.37.37,0,0,1-.2.47A.3.3,0,0,1,47.52,53.44Z"/><path class="cls-1" d="M92.19,162.3a.36.36,0,0,1-.33-.22l-5-12.13a.35.35,0,0,1,.19-.46.36.36,0,0,1,.47.19l5,12.13a.37.37,0,0,1-.2.47A.32.32,0,0,1,92.19,162.3Z"/><path class="cls-1" d="M115.73,82a.36.36,0,0,1-.33-.22.36.36,0,0,1,.2-.47l12.13-5A.36.36,0,0,1,128,77l-12.13,5A.32.32,0,0,1,115.73,82Z"/><path class="cls-1" d="M6.87,126.64a.36.36,0,0,1-.13-.69l12.13-5a.35.35,0,0,1,.46.2.35.35,0,0,1-.19.46L7,126.61A.32.32,0,0,1,6.87,126.64Z"/><path class="cls-1" d="M85.62,52.82a.28.28,0,0,1-.13,0,.36.36,0,0,1-.21-.46l4.57-12.28a.35.35,0,0,1,.46-.21.36.36,0,0,1,.22.46L86,52.59A.36.36,0,0,1,85.62,52.82Z"/><path class="cls-1" d="M44.54,163.09l-.12,0a.35.35,0,0,1-.21-.46l4.58-12.29a.35.35,0,0,1,.45-.21.35.35,0,0,1,.21.46l-4.57,12.29A.36.36,0,0,1,44.54,163.09Z"/><path class="cls-1" d="M128.65,124.63a.27.27,0,0,1-.13,0L116.24,120a.35.35,0,0,1-.21-.46.35.35,0,0,1,.46-.21l12.28,4.57a.36.36,0,0,1-.12.69Z"/><path class="cls-1" d="M18.37,83.56a.25.25,0,0,1-.12,0L6,79a.36.36,0,0,1-.21-.46.35.35,0,0,1,.46-.21L18.5,82.87a.36.36,0,0,1,.21.46A.37.37,0,0,1,18.37,83.56Z"/><path class="cls-1" d="M80.79,51.28H80.7a.37.37,0,0,1-.26-.44l3.37-12.67a.36.36,0,0,1,.69.18L81.13,51A.34.34,0,0,1,80.79,51.28Z"/><path class="cls-1" d="M50.58,165h-.09a.37.37,0,0,1-.26-.44l3.37-12.67a.35.35,0,0,1,.44-.25.35.35,0,0,1,.25.44l-3.36,12.66A.37.37,0,0,1,50.58,165Z"/><path class="cls-1" d="M130.57,118.6h-.09l-12.67-3.37a.35.35,0,0,1-.26-.43.36.36,0,0,1,.44-.26l12.67,3.36a.36.36,0,0,1,.25.44A.35.35,0,0,1,130.57,118.6Z"/><path class="cls-1" d="M16.84,88.39h-.09L4.08,85a.35.35,0,0,1-.26-.43.35.35,0,0,1,.44-.26l12.67,3.37a.36.36,0,0,1-.09.7Z"/><path class="cls-1" d="M89.43,54.41l-.15,0a.35.35,0,0,1-.17-.47L94.64,42a.36.36,0,0,1,.48-.17.34.34,0,0,1,.17.47L89.76,54.21A.35.35,0,0,1,89.43,54.41Z"/><path class="cls-1" d="M39.77,161.09a.41.41,0,0,1-.16,0,.38.38,0,0,1-.17-.48L45,148.7a.35.35,0,0,1,.64.3l-5.53,11.88A.36.36,0,0,1,39.77,161.09Z"/><path class="cls-1" d="M126.65,129.41a.37.37,0,0,1-.15,0l-11.89-5.54a.35.35,0,0,1-.17-.47.35.35,0,0,1,.47-.17l11.89,5.53a.35.35,0,0,1,.17.47A.36.36,0,0,1,126.65,129.41Z"/><path class="cls-1" d="M20,79.74a.4.4,0,0,1-.15,0L7.94,74.18a.37.37,0,0,1-.18-.48.36.36,0,0,1,.48-.17l11.88,5.53a.37.37,0,0,1,.18.48A.36.36,0,0,1,20,79.74Z"/><path class="cls-1" d="M71.19,49.25h0c-.19,0-.34,0-.33-.17l1-13a.32.32,0,0,1,.38-.28.37.37,0,0,1,.33.41l-1,12.87C71.53,49.3,71.37,49.25,71.19,49.25Z"/><path class="cls-1" d="M62.59,166.25h0c-.2,0-.35.2-.33,0l1-12.89c0-.19.19-.24.38-.23a.4.4,0,0,1,.33.43l-1,12.71C62.93,166.47,62.77,166.25,62.59,166.25Z"/><path class="cls-1" d="M132.58,107.25h0L119.48,106c-.19,0-.34-.35-.33-.54s.2-.43.39-.42l13.07.92c.2,0,.34.49.33.69S132.77,107.25,132.58,107.25Z"/><path class="cls-1" d="M15.23,98.25h0L2.13,97.16a.43.43,0,0,1-.34-.45.41.41,0,0,1,.39-.36l13.07.94c.2,0,.35.31.33.51S15.41,98.25,15.23,98.25Z"/><path class="cls-1" d="M75.92,50.23h-.06a.35.35,0,0,1-.29-.41l2.14-12.94a.35.35,0,0,1,.41-.29.36.36,0,0,1,.3.41L76.27,49.93A.35.35,0,0,1,75.92,50.23Z"/><path class="cls-1" d="M56.67,166.32h-.06a.36.36,0,0,1-.29-.42L58.46,153a.36.36,0,0,1,.71.12L57,166A.35.35,0,0,1,56.67,166.32Z"/><path class="cls-1" d="M131.88,112.51h-.06l-12.93-2.14a.36.36,0,0,1-.3-.41.35.35,0,0,1,.41-.3l12.94,2.15a.35.35,0,0,1,.29.41A.36.36,0,0,1,131.88,112.51Z"/><path class="cls-1" d="M15.79,93.26h-.06L2.8,91.11a.35.35,0,0,1-.29-.41.35.35,0,0,1,.41-.3l12.93,2.15a.35.35,0,0,1,.29.41A.36.36,0,0,1,15.79,93.26Z"/><path class="cls-1" d="M106.74,67.42a.35.35,0,0,1-.26-.12.36.36,0,0,1,0-.51l9.87-8.62a.36.36,0,1,1,.47.54L107,67.33A.36.36,0,0,1,106.74,67.42Z"/><path class="cls-1" d="M18.12,144.82a.36.36,0,0,1-.27-.12.35.35,0,0,1,0-.5l9.87-8.62a.36.36,0,0,1,.51,0,.35.35,0,0,1,0,.5l-9.87,8.63A.4.4,0,0,1,18.12,144.82Z"/><path class="cls-1" d="M110.38,151.06a.36.36,0,0,1-.27-.12l-8.62-9.87a.36.36,0,0,1,0-.51.37.37,0,0,1,.51,0l8.62,9.87a.35.35,0,0,1,0,.5A.36.36,0,0,1,110.38,151.06Z"/><path class="cls-1" d="M33,62.43a.36.36,0,0,1-.27-.12l-8.63-9.87a.36.36,0,0,1,0-.51.35.35,0,0,1,.5,0l8.63,9.87a.36.36,0,0,1-.27.59Z"/><path class="cls-1" d="M103.23,63.77a.33.33,0,0,1-.24-.1.35.35,0,0,1,0-.5l9-9.54a.36.36,0,0,1,.5,0,.37.37,0,0,1,0,.51l-9,9.54A.36.36,0,0,1,103.23,63.77Z"/><path class="cls-1" d="M22.51,149.39a.36.36,0,0,1-.26-.6l9-9.54a.37.37,0,0,1,.51,0,.36.36,0,0,1,0,.51l-9,9.54A.38.38,0,0,1,22.51,149.39Z"/><path class="cls-1" d="M115,146.67a.35.35,0,0,1-.25-.1l-9.54-9a.36.36,0,1,1,.49-.52l9.54,9a.37.37,0,0,1,0,.51A.4.4,0,0,1,115,146.67Z"/><path class="cls-1" d="M29.33,65.94a.38.38,0,0,1-.25-.09l-9.54-9a.35.35,0,0,1,0-.5.36.36,0,0,1,.5,0l9.54,9a.35.35,0,0,1,0,.5A.34.34,0,0,1,29.33,65.94Z"/><path class="cls-1" d="M109.57,71a.35.35,0,0,1-.29-.15.36.36,0,0,1,.08-.5l10.58-7.73a.35.35,0,1,1,.42.57l-10.58,7.74A.33.33,0,0,1,109.57,71Z"/><path class="cls-1" d="M14.58,140.41a.35.35,0,0,1-.29-.15.36.36,0,0,1,.08-.5L25,132a.36.36,0,0,1,.5.08.36.36,0,0,1-.08.5l-10.58,7.74A.38.38,0,0,1,14.58,140.41Z"/><path class="cls-1" d="M106,154.59a.35.35,0,0,1-.28-.14l-7.74-10.58a.36.36,0,0,1,.07-.5.35.35,0,0,1,.5.08L106.25,154a.34.34,0,0,1-.08.49A.31.31,0,0,1,106,154.59Z"/><path class="cls-1" d="M36.51,59.61a.35.35,0,0,1-.29-.15L28.48,48.88a.36.36,0,1,1,.58-.42L36.8,59a.36.36,0,0,1-.08.5A.35.35,0,0,1,36.51,59.61Z"/><path class="cls-1" d="M96,58.07a.33.33,0,0,1-.19-.06.36.36,0,0,1-.11-.5l7.18-11a.36.36,0,1,1,.6.39l-7.18,11A.37.37,0,0,1,96,58.07Z"/><path class="cls-1" d="M31.55,156.52a.39.39,0,0,1-.2-.06.36.36,0,0,1-.1-.49l7.18-11a.36.36,0,0,1,.6.39l-7.18,11A.37.37,0,0,1,31.55,156.52Z"/><path class="cls-1" d="M122.08,137.63a.36.36,0,0,1-.2-.06l-11-7.18a.37.37,0,0,1-.1-.5.36.36,0,0,1,.49-.1l11,7.18a.35.35,0,0,1,.11.49A.36.36,0,0,1,122.08,137.63Z"/><path class="cls-1" d="M23.62,73.18a.35.35,0,0,1-.19-.06l-11-7.18a.37.37,0,0,1-.1-.5.36.36,0,0,1,.49-.1l11,7.18a.35.35,0,0,1,.1.49A.35.35,0,0,1,23.62,73.18Z"/><path class="cls-1" d="M99.45,60.53a.32.32,0,0,1-.22-.08.36.36,0,0,1-.06-.5l8-10.35a.36.36,0,0,1,.5-.06.35.35,0,0,1,.07.5l-8,10.35A.35.35,0,0,1,99.45,60.53Z"/><path class="cls-1" d="M27.24,153.44a.3.3,0,0,1-.22-.08.35.35,0,0,1-.06-.5l8-10.35a.36.36,0,0,1,.5-.06.34.34,0,0,1,.06.5l-8,10.35A.37.37,0,0,1,27.24,153.44Z"/><path class="cls-1" d="M119,141.94a.35.35,0,0,1-.22-.08l-10.35-8a.34.34,0,0,1-.06-.5.35.35,0,0,1,.5-.07l10.35,8.05a.36.36,0,0,1-.22.64Z"/><path class="cls-1" d="M26.09,69.73a.35.35,0,0,1-.22-.08l-10.35-8a.34.34,0,0,1-.06-.5A.35.35,0,0,1,16,61l10.35,8.05a.36.36,0,0,1,.06.5A.37.37,0,0,1,26.09,69.73Z"/><path class="cls-3" d="M29.94,79.89A42.7,42.7,0,1,0,66.81,58.74L67,101.43Z"/><path class="cls-1" d="M90.39,101.43A23.4,23.4,0,1,1,67,78,23.39,23.39,0,0,1,90.39,101.43Z"/><text class="cls-4" transform="translate(53.54 103.5)">50<tspan class="cls-5"><tspan x="-1.06" y="13.12">min</tspan></tspan></text><rect class="cls-1" x="64.71" y="22.82" width="5.71" height="10.89"/><rect class="cls-1" x="63.88" y="15.68" width="7.37" height="14.51" transform="translate(90.5 -44.63) rotate(90)"/><rect class="cls-1" x="115.35" y="45.41" width="5.71" height="10.89" transform="translate(65.15 -66.38) rotate(42.37)"/><rect class="cls-1" x="118.11" y="39.66" width="7.37" height="14.51" transform="translate(238.54 -11.45) rotate(132.37)"/><path class="cls-1" d="M67.06,0A18.95,18.95,0,1,0,86,19,18.94,18.94,0,0,0,67.06,0Zm0,33.3A14.36,14.36,0,1,1,81.42,19,14.35,14.35,0,0,1,67.06,33.3Z"/></g></g></svg>