<svg xmlns="http://www.w3.org/2000/svg" xmlns:xlink="http://www.w3.org/1999/xlink" width="309.642" height="188.681" viewBox="0 0 309.642 188.681">
  <defs>
    <rect id="rect-1" width="309.642" height="188.681" x="0" y="0"/>
    <mask id="mask-2" maskContentUnits="userSpaceOnUse" maskUnits="userSpaceOnUse">
      <rect width="309.642" height="188.681" x="0" y="0" fill="black"/>
      <use fill="white" xlink:href="#rect-1"/>
    </mask>
  </defs>
  <g>
    <use fill="none" xlink:href="#rect-1"/>
    <g mask="url(#mask-2)">
      <g>
        <path fill="rgb(219,237,255)" fill-rule="evenodd" d="M40.954 9.679s22.154-15.923 74.769-6.923c52.615 9 30.459 45.692 75.459 67.154 45 21.462 89.308 3.461 107.308 27s-11.77 69.923-49.154 76.154c-37.384 6.231-87.231-19.385-119.77-17.308-32.539 2.077-65.766 19.385-91.384 8.305-25.618-11.08-72.69-109.382 2.772-154.382z"/>
        <g>
          <ellipse cx="155.796" cy="178.644" fill="rgb(174,186,222)" rx="152.79" ry="10.037"/>
          <g>
            <path fill="rgb(255,129,119)" fill-rule="evenodd" d="M191.182 172.056c.55074379 1.77568402.41110799 3.69380137-.391 5.371-1.367 2.539-.781 3.125-2.539 4.395-1.488 1.074-1.66 2.149-1.368 3.027.292.878 3.125.391 4.786.391 1.661 0 2.344.293 4.3-.391 2.05-.781 1.269-3.125 1.562-3.613.293-.488 1.563-.1 2.051-1.855.488-1.755-1.465-3.711-1.855-4.688-.3153669-1.21503804-.51162698-2.45790688-.586-3.711l-5.96 1.074z"/>
            <path fill="rgb(255,129,119)" fill-rule="evenodd" d="M218.241 172.056c-.55044458 1.77571828-.4108169 3.69372414.391 5.371 1.367 2.539.781 3.125 2.539 4.395 1.487 1.074 1.66 2.149 1.367 3.027-.293.878-3.125.391-4.785.391-1.66 0-2.344.293-4.3-.391-2.051-.781-1.27-3.125-1.563-3.613-.293-.488-1.563-.1-2.051-1.855-.488-1.755 1.465-3.711 1.856-4.688.31511263-1.21509097.51136876-2.45793488.586-3.711l5.96 1.074z"/>
            <g>
              <path fill="rgb(62,57,106)" fill-rule="evenodd" d="M77.805 44.981c-.14876316.00073153-.28564297-.0811552-.35534471-.21258076-.06970174-.13142557-.06070929-.29067586.02334471-.41341924.74539466-1.12185708 2.20986822-1.51252631 3.415-.911.1993748.09664983.28264983.3366252.186.536-.09664984.1993748-.33662521.28264983-.536.186-.8484802-.41111488-1.87009811-.13783208-2.4.642-.07538497.10938618-.20015886.17420865-.333.173z"/>
              <g>
                <g>
                  <path fill="rgb(129,82,95)" fill-rule="evenodd" d="M45.659 174.571c2.176-9.179 2.82-26.793 2.82-26.793l-10.718 1.985s-.857 15.926 1.559 24.808h6.339z"/>
                  <path fill="rgb(129,82,95)" fill-rule="evenodd" d="M241.367 174.571c-2.176-9.179-2.82-26.793-2.82-26.793l10.718 1.985s.857 15.926-1.559 24.808h-6.339z"/>
                  <g>
                    <path fill="rgb(103,164,244)" fill-rule="evenodd" d="M39.957 148.28s-28.916-63.35-1-73.635c27.916-10.285 184.466-18.14 214.38 4.8 26.922 22.153-4.986 68.04-4.986 68.04l-208.394.795z"/>
                    <path fill="rgb(129,184,244)" fill-rule="evenodd" d="M263.405 117.37c-9.972-9.971-19.943-2.991-24.928 8.974-4.985 11.965-2.992 12.613-2.992 12.613H50.927s1.994-.648-2.991-12.613-14.957-18.945-24.928-8.974c-6.564 6.564-.6 23.5 4.248 34.307 2.61913973 5.82732334 8.4161386 9.57334754 14.805 9.567h202.291c6.38704988.00437687 12.18160194-3.7413312 14.8-9.567 4.849-10.807 10.817-27.743 4.253-34.307z"/>
                  </g>
                </g>
                <path fill="rgb(255,129,119)" fill-rule="evenodd" d="M125.388 79.966s6.15-4.546 9.359-5.348c1.5409149-1.30961162 3.37576177-2.22703505 5.348-2.674 1.871-.267 3.743-2.139 4.546-.8.803 1.339-1.337 1.872-2.139 2.406-.60448134.45709399-1.14290601.99551866-1.6 1.6 1.35358975.0172108 2.70022098.19682878 4.011.535 1.872.535 5.615-.8 5.348.535-.267 1.335-.535.8-3.209 2.674-2.674 1.874-6.15.8-8.824.8h-2.676s-4.278 4.278-4.813 5.08c-.535.802-5.351-4.808-5.351-4.808z"/>
                <path fill="rgb(66,87,144)" fill-rule="evenodd" d="M89.825 60.446s3.744.8 9.359 9.893 8.022 14.974 11.23 16.311c3.208 1.337 2.674-1.069 7.487-2.674 4.813-1.605 5.883-5.081 9.091-5.616 3.208-.535 5.883 4.814 6.418 6.685 0 2.139-2.941 3.476-5.882 7.487s-8.557 8.022-12.835 9.893c-4.278 1.871-9.359 4.278-20.054-1.6-10.695-5.878-12.3-12.835-13.1-21.659-.8-8.824 2.938-17.383 8.286-18.72z"/>
                <path fill="rgb(66,87,144)" fill-rule="evenodd" d="M83.293 58.473s7.736.637 12.148 6.653-1.2 17.648 4.412 30.082c5.612 12.434 9.626 25.269 5.615 31.686-4.011 6.417-12.434 6.016-15.241 3.61-2.807-2.406-4.011-15.643-5.215-27.675-1.204-12.032-2.406-35.7-2.807-37.3-.401-1.6 1.088-7.056 1.088-7.056z"/>
                <path fill="rgb(255,129,119)" fill-rule="evenodd" d="M97.446 158.981s-1.751 8.979-.35 11.076c1.668 2.089 5.718 3.3 7.873 3.773 2.155.473 1.15 2.64-1.239 3.248-2.389.608-7.784-.833-9.913-.5-2.129.333-3.442 1.175-5.9-.356-2.458-1.531.915-5.111.6-6.706-.315-1.595.942-9.222.942-9.222l7.987-1.313z"/>
                <path fill="rgb(255,187,82)" fill-rule="evenodd" d="M186.087 64.457s-4.011 1.872-5.616 8.824c-1.605 6.952-1.6 8.824-4.011 12.033-2.411 3.209-2.406 3.476-4.278 8.824-1.73177484 4.78603365-3.07315816 9.70443917-4.011 14.707-.8 4.546.535 5.882 4.546 7.487 4.011 1.605 5.616-1.6 8.022-5.616 2.406-4.016 1.6-5.348 7.22-17.113 5.62-11.765 1.603-26.472-1.872-29.146z"/>
                <g>
                  <path fill="rgb(168,102,86)" fill-rule="evenodd" d="M150.48 125.004s.491.982-1.473 2.455-2.248 1.33-4.457 2.067c-1.73150958.68640197-2.84526016 2.38644239-2.783 4.248 0 1.227.574 4.343 2.783 4.834 2.209.491 32.2-.1 32.2-.1l-.736-12.275c-8.29570697-2.41522882-17.04467945-2.83633351-25.534-1.229z"/>
                  <g>
                    <path fill="rgb(255,129,119)" fill-rule="evenodd" d="M145.956 118.848s-.453 3.364 3.414 1.707c2.946-2.946 4.432-8.4 4.432-8.4l-5.525-.187-2.321 6.88z"/>
                    <g>
                      <path fill="rgb(52,110,132)" fill-rule="evenodd" d="M150.704 96.492c-1.32370184 1.1034817-2.28585278 2.57875658-2.762 4.235-1.105 3.13-2.026 12.337-2.026 12.337 2.0547536 1.57481746 4.7963671 1.92639446 7.182.921 4.235-1.658 1.841-17.678-2.394-17.493z"/>
                      <g>
                        <path fill="rgb(52,110,132)" fill-rule="evenodd" d="M155.798 92.46l-3.357 2.685c-2.238 1.79-4.923 2.909-3.357 10.518 1.566 7.609 2.91 5.631 2.238 11.9-.672 6.269-2.909 7.833-2.014 9.4.895 1.567 4.275 2.811 12.868 2.42 8.159-.371 11.076-.854 15.552-2.2 3.8-1.79 0-4.476.224-6.714.39563808-4.82771251-.05892132-9.68740266-1.343-14.358-1.79-6.713-3.357-10.294-5.594-12.531s-5.956-3.532-9.02-2.214c-1.9638902.80284869-4.07692292 1.17587722-6.197 1.094z"/>
                        <path fill="rgb(255,129,119)" fill-rule="evenodd" d="M179.29 108.848s1.874 6.34-.17 9.051c-2.044 2.711-4.227.265-5.1-1.894-.873-2.159-.415-6.616-.415-6.616l5.685-.541z"/>
                        <path fill="rgb(52,110,132)" fill-rule="evenodd" d="M168.379 91.765s5.033.123 8.593 6.752c.82903212 1.55138101 1.56694973 3.1497573 2.21 4.787.65575541 1.55384548.9898119 3.22446808.982 4.911-.123 1.1-6.015 3.437-8.47.982-2.455-2.455-2.455-7.488-3.56-9.943-1.105-2.455-1.718-6.384.245-7.489z"/>
                        <path fill="rgb(255,129,119)" fill-rule="evenodd" d="M143.261 106s7.744 7.8 6.922 13.735c-1.672 3.582-3.256 1.7-5.035-.8-1.779-2.5-1.421-7-2.42-8.616-.999-1.616-1.061-2.007-2-2.546-.89763731-.65016618-1.38449292-1.7265735-1.28-2.83.31-1.119 2.455-.352 3.813 1.057z"/>
                        <path fill="rgb(62,57,106)" fill-rule="evenodd" d="M144.22618268 100.6636237l8.99636568-1.25875357c1.19299227-.1669211 2.40343182.14690878 3.36503578.87245066.96160396.72554188 1.59560274 1.80336314 1.76252384 2.9963554.1669211 1.19299226-.14690878 2.40343182-.87245066 3.36503578-.72554187.96160396-1.80336313 1.59560274-2.9963554 1.76252384l-8.99636568 1.25875357c-1.19299226.1669211-2.40343181-.14690879-3.36503578-.87245066-.96160396-.72554188-1.59560274-1.80336314-1.76252384-2.9963554-.1669211-1.19299227.14690879-2.40343182.87245066-3.36503578.72554188-.96160396 1.80336314-1.59560274 2.9963554-1.76252384z"/>
                      </g>
                    </g>
                  </g>
                  <path fill="rgb(255,129,119)" fill-rule="evenodd" d="M171.504 117.221c2.09 1 4.981.147 4.1-3.662-.881-3.809-13.038-7.764-13.038-7.764l-2.035-.715c-.6348019-1.04000184-1.43071084-1.9726127-2.358-2.763-1.011-.539-3.638-.943-4.245-.606-.607.337.472.674.876.674.6053415.01103785 1.2018492.14722682 1.752.4.23233131.1139504.43863678.27463717.606.472.16736322.19736283-.943-.2-1.55-.27-.71799576-.03135885-1.43337614.1056216-2.089.4-.27.2 0 .606.472.606h.472s-.943.27-.809.606c.134.336 1.011.27 1.011.27s-.943.2-.741.539c.202.339.674.337 1.28.27s1.348.809 1.752 1.078c.65015978.55278184 1.40722783.9656971 2.224 1.213.42179859.09114925.85820141.09114925 1.28 0s10.218 8.86 11.04 9.252z"/>
                </g>
                <path fill="rgb(255,129,119)" fill-rule="evenodd" d="M139.308 105.461s-.135-1.527.449-2.066c.584-.539 1.348-1.258 1.572-.809.224.449-.943 1.123-.943 1.438v.494s.764-1.213 1.168-1.033c.404.18.224.494 0 .719-.32155376.4034867-.62195752.8233844-.9 1.258s.809-.988 1.168-.809c.359.179-.943 1.707-.943 1.707s.943-.9 1.078-.494c.135.406-.854 1.977-1.3 1.752-.7785533-.45182776-1.2835028-1.25922293-1.349-2.157z"/>
                <path fill="rgb(255,129,119)" fill-rule="evenodd" d="M145.207 130.191s-2.961-.658-3.783 3.126c-.822 3.784 5.1 10.527 6.415 13.159 1.315 2.632 2.3 4.441 2.3 5.757.03598235 1.34570116-.18741539 2.68574806-.658 3.947-.493 1.152-.164 2.139.658 2.139 1.33690163-.1582882 2.47632271-1.04364917 2.96-2.3.494-1.48.165-2.3 1.316-3.619 1.151-1.319 1.809-2.632 1.151-3.948-.658-1.316-2.8-2.467-3.125-2.961-.325-.494-1.974-5.264-2.961-8.389-.987-3.125-.609-5.452-4.273-6.911z"/>
                <path fill="rgb(142,90,86)" fill-rule="evenodd" d="M163.739 137.191c.586-1.758 4.3-5.469-2.93-5.469-2.227 0-4.688 1.563-6.641 5.079-.496552.96384497-1.3624136 1.6853963-2.4 2 3.143 0 6.925-.028 10.586-.071.5762718-.39694307 1.05078674-.92421996 1.385-1.539z"/>
                <path fill="rgb(255,129,119)" fill-rule="evenodd" d="M170.039 134.798c-1.026-2.2-4.1-3.369-7.032-2.05-2.783 1.318-3.955 4.834-3.955 4.834l.073.015c-1.394 3.754-.61 10.506-.924 13-.377 2.98-.565 5.077-1.313 6.193-.73346961 1.16323699-1.68411727 2.17431867-2.8 2.978-1.072.7-1.353 1.722-.655 2.188 1.22569302.6243739 2.69637905.51849991 3.82-.275 1.259-.976 1.446-1.861 3.171-2.325 1.725-.464 3.029-1.207 3.217-2.7.188-1.493-.973-3.682-.973-4.287s1.311-5.588 2.247-8.8c.555-1.907 1.352-3.3 1.435-4.815h3.978c.4294817-1.30513657.32559944-2.7271373-.289-3.956z"/>
                <g>
                  <path fill="rgb(224,102,89)" fill-rule="evenodd" d="M157.587 93.929c-.03970178.77587067.261644 1.53034585.82493375 2.065375.56328976.53502914 1.33226403.79717536 2.10506625.717625 3.076 0 4.395-2.05 4.248-4.395-.147-2.345-7.178 1.612-7.178 1.612z"/>
                  <g>
                    <path fill="rgb(255,129,119)" fill-rule="evenodd" d="M164.822 79.947s4.036 4.563 2.457 9.3c-1.755 4.739-7.722 5.791-11.232 4.914-3.51-.877-5.09-6.142-5.792-9.3-.702-3.158.176-6.318 5.09-8.6s8.422 1.229 9.477 3.686z"/>
                    <path fill="rgb(243,182,137)" fill-rule="evenodd" d="M152.753 76.205s1.758-3.076 3.369-3.662c.733-.147 0 2.344 0 2.344.92632186-1.04682879 2.26437539-1.63583542 3.662-1.612 2.3443222-.02311802 4.60495442.87036995 6.3 2.49 0 .733-1.9.586-1.9.586.75890657.5141119 1.36600454 1.22239286 1.758 2.051.147 1.025-4.687.439-4.687.439.83041855.75433384 1.52428715 1.64645061 2.051 2.637.439 1.025-6.738 1.758-8.057 1.025.7926676 1.00732905 1.25318119 2.23583116 1.318 3.516-.147.439-2.637-1.465-2.637-1.465.45074512 1.03654449.79420186 2.1165065 1.025 3.223.09758515.58193735.09758515 1.17606265 0 1.758l-1.172-1.318c-.37995837-.41831746-.90240002-.6797166-1.465-.733-1.025-.146-.146 2.93.879 3.516l1.025.586-.439 1.465c-1.755997-.68348512-3.315896-1.79028859-4.541-3.222-1.225104-1.43171141-3.222-2.93-2.49-6.152.732-3.222 1.611-3.955 1.611-3.955s.439-6.006 2.344-7.178c1.172-.586.879 2.49.879 2.49s.732-1.9 1.465-1.612c.733.288-.298 2.783-.298 2.783z"/>
                  </g>
                </g>
                <g>
                  <path fill="rgb(58,98,151)" fill-rule="evenodd" d="M184.659 114.349s-12 13.781-.445 22.672c10.669 6.224 45.344 3.556 45.788-.445.444-4.001-4-21.783-4-21.783l-41.343-.444z"/>
                  <path fill="rgb(255,187,82)" fill-rule="evenodd" d="M201.696 56.558c-3.20268578 1.68059143-6.54937242 3.07113973-10 4.155-4.412 1.2-7.621 5.616-8.022 8.423-.401 2.807-.8 8.824 1.2 18.45 1.81263957 9.2708961 1.81263957 18.8051039 0 28.076-1.6 7.22-3.208 9.225.4 11.632s11.231-1.2 20.055.4 16.044 4.813 23.664 1.2c4.011-8.824 1.2-26.071 1.6-38.5.4-12.429 2.006-20.055-2.808-26.873-4.814-6.818-20.377-7.641-20.377-7.641l-5.712.678z"/>
                  <g>
                    <path fill="rgb(73,120,194)" fill-rule="evenodd" d="M222.272 118.796s6.224-11.114 17.337-5.779c11.113 5.335-15.559 53.79-20 59.125 0 0 .57 1.9-.3 2.458-1.9850759 1.47120558-4.7508921 1.25401946-6.482-.509-2.674-2.674-2.674-8.022-1.872-10.7.802-2.678 2.674-5.616 2.674-6.952 0-1.336-.535-7.487.535-10.428 1.07-2.941 1.872-4.546 2.139-7.754.267-3.208 3.115-15.664 5.969-19.463"/>
                    <path fill="rgb(73,120,194)" fill-rule="evenodd" d="M198.582 172.585c1.321-1.347-.889-31.563-8.891-53.79 0 0-6.224-11.114-17.337-5.779 0 0-4.45 4.386-2.043 13.21 2.407 8.824 7.22 15.509 8.824 20.857 1.604 5.348 0 8.557 2.674 10.963 2.674 2.406 3.743 4.278 4.813 8.022 1.07 3.744 1.069 6.418 3.744 7.754 2.675 1.336 6.807.201 8.216-1.237z"/>
                  </g>
                  <g>
                    <path fill="rgb(255,187,82)" fill-rule="evenodd" d="M223.388 59.912s6.418 1.2 12.835 10.027c6.417 8.827 8.021 18.45 12.433 21.258 4.412 2.808 4.814 14.439 2.407 19.653-2.407 5.214-10.027 4.011-15.242 4.412-5.215.401-11.859 4.658-15.154 3.533-3.295-1.125-4.5-8.346-3.3-9.95 1.2-1.604 11.632-4.412 14.038-8.423 2.406-4.011-4.813-3.61-7.219-12.835-2.406-9.225-5.611-20.455-.798-27.675z"/>
                    <g>
                      <path fill="rgb(245,160,82)" fill-rule="evenodd" d="M233.951 100.054c-.11472833.00040315-.21963984-.06466208-.2702664-.16761694-.05062656-.10295486-.03810145-.22576784.0322664-.31638306.113-.148 2.879-3.61 10.737-1.713.07748175.01849976.14442456.0670559.18606928.13496304.0416447.06790715.05457164.14958905.03593072.22703696-.01848738.07769997-.06719509.14482044-.13533199.18649094-.0681369.0416705-.15007753.05445066-.22766801.03550906-7.445-1.8-10.094 1.463-10.12 1.5-.05766456.07235094-.14548642.11404787-.238.113z"/>
                      <path fill="rgb(245,160,82)" fill-rule="evenodd" d="M248.126 106.738c-.13823898.00035384-.25882299-.0938008-.292-.228-2.042-8.171-10.249-6.282-10.6-6.2-.16154329.03893607-.32406393-.06045671-.363-.222-.03893607-.16154329.06045671-.32406393.222-.363.089-.022 9.139-2.109 11.326 6.637.0196357.07745738.00755848.15954775-.03355359.22806785-.04111206.0685201-.10786134.11780724-.18544641.13693215-.02418196.00640176-.04900153.01009115-.074.011z"/>
                      <path fill="rgb(245,160,82)" fill-rule="evenodd" d="M217.372 109.145h-.027c-.07951248-.0070975-.1529173-.04559263-.20396695-.1069648-.05104963-.06137218-.07553377-.14055974-.06803305-.2200352.241-2.658 4.371-3.829 7.457-4.479 3.628-.764 4.824-2.278 4.836-2.294.09996354-.13254834.28845166-.15896354.421-.059.13254834.09996354.15896354.28845166.059.421-.052.07-1.315 1.7-5.192 2.521-4.544.957-6.828 2.247-6.983 3.945-.01446253.15428014-.14404355.27215987-.299.272z"/>
                      <path fill="rgb(245,160,82)" fill-rule="evenodd" d="M229.004 92.5c-.13823898.00035384-.25882299-.0938008-.292-.228-.03317701-.1341992-.4-1.6-1.2-4.608-.2807285-.99882776-.63503046-1.97549787-1.06-2.922-1.17647105-2.74829481-2.09768417-5.59896738-2.752-8.516-1.1011942-4.33135552-1.09913134-8.86964735.006-13.2.0508102-.15850572.22049428-.2458102.379-.195.15850572.0508102.2458102.22049428.195.379-1.07315717 4.22411438-1.07143822 8.64972054.005 12.873.6472621 2.8854825 1.55842986 5.70534923 2.722 8.424.43586905.97180548.79919532 1.97454586 1.087 3 .8 3.011 1.2 4.617 1.2 4.617.0196357.07745738.00755848.15954775-.03355359.22806785-.04111206.0685201-.10786134.11780724-.18544641.13693215-.0232039.00620128-.04700743.00988915-.071.011z"/>
                    </g>
                  </g>
                  <path fill="rgb(245,160,82)" fill-rule="evenodd" d="M206.228 66.465c-2.37071498-.10266757-4.6202736-1.07612329-6.318-2.734-.1159798-.11901736-.11351736-.3095202.0055-.4255.11901736-.1159798.3095202-.11351736.4255.0055 1.71437634 1.65147374 4.00972291 2.56206898 6.39 2.535 2.512-.185 4.863-1.768 6.989-4.707.09747826-.13448134.28551866-.16447826.42-.067.13448134.09747826.16447826.28551866.067.42-2.236 3.091-4.739 4.759-7.438 4.954-.183.014-.363.019-.541.019z"/>
                  <path fill="rgb(255,129,119)" fill-rule="evenodd" d="M191.903 40.458s.2 12.835 3.008 16.645c2.406 3.008 7.821.4 7.821.4s-1.6 2.808.4 4.211c2 1.403 8.623-.2 9.626-2.406.4-1.4-.2-4.612-.2-4.612s1-4.612 1.4-8.623c.4-4.011 1-13.637-3.61-16.846-4.61-3.209-11.832-2.006-15.041.8-3.209 2.806-4.005 9.429-3.404 10.431z"/>
                  <path fill="rgb(62,57,106)" fill-rule="evenodd" d="M208.749 33.039s-2.005-1.6-4.011-.6c-2.006 1-1 5.014-4.211 5.415-3.211.401-3.81 4.412-8.423 4.211-4.613-.201-6.618-2.206-7.019-5.415-.401-3.209-3.609-3.81-.6-9.626 3.009-5.816 6.217-6.016 9.426-4.813 2.55441689 1.01684532 5.27293765 1.55905839 8.022 1.6 2.206 0 5.616-.6 8.623 1.4 1.67994683 1.0059297 2.9565613 2.5661577 3.61 4.412.6534387 1.8458423 3.008.4 3.81 3.008s-1.6 3.81-1.2 5.214c.4 1.404 1.6 2.406.8 4.412s-1.4 4.011-2.406 4.813c-1.006.802-.8 3.008-1.805 3.008-.57713436.00664712-1.11272007-.29940186-1.4-.8-.28727993-.50059814-.8-3.409-.8-3.609 1.12356768-.70710182 1.86212247-1.88915784 2.005-3.209.4-2.607 0-4.211-1.2-4.412-1.2-.201-2.206 1.4-2.206 2.607-.08173145 1.08843095-.28294146 2.16456913-.6 3.209l-1.4-.4c.2574596-.84536768.39216822-1.72333115.4-2.607 0-1.4-1-2.206-.6-4.01.30753438-1.29491633.70346221-2.56723127 1.185-3.808z"/>
                  <path fill="rgb(245,160,82)" fill-rule="evenodd" d="M216.433 110.181s.267-2.407 3.209-.8 3.609 5.615 2.54 6.952c-1.069 1.337-.668 1.872.668 1.872s-.134 1.069-1.6.8c-1.466-.269-6.686-4.946-4.817-8.824z"/>
                  <path fill="rgb(255,129,119)" fill-rule="evenodd" d="M217.167 110.449s3.008 1.2 3.209 5.615c-.40554 1.20721-1.17647 2.25842-2.206 3.008-1.8 1.4-3.008 2.206-3.81 2.808-.802.602-.6 2.406-2.206 4.011-1.606 1.605-1.4.2-1-.8.4-1 .6-2.607 1-3.609.4-1.002 1-2.407 1-2.407-1.0291.91153-1.96932 1.91872-2.808 3.008-.4.8-.2 2.808-1 3.61-.66245.66411-1.05062-1.42208-.93741-2.84215-.03704.13834-.06259.23215-.06259.23215s-.4 2.607-1.2 1.6c-.8-1.007-.2-4.211.4-6.016.6-1.805 1.2-3.61 2.607-4.412 1.407-.802 3.61-1.4 4.612-2.206.7654-.58447 1.56774-1.11891 2.402-1.6z"/>
                </g>
                <path fill="rgb(217,61,101)" fill-rule="evenodd" d="M75.654 59.11c-3.12291197 2.55655182-6.42948376 4.88014296-9.893 6.952-5.08 2.941-2.941 9.225-2.407 14.306.534 5.081 3.343 11.1 3.61 18.851.267 7.751.134 6.017.4 10.83s10.7 12.033 19.253 9.626 9.76-4.145 10.829-6.016c1.069-1.871-5.214-11.231-.936-21.391 2.49-5.915 4.011-6.685 2.941-13.637-1.07-6.952-2.407-6.417-5.08-10.428-2.673-4.011-1.337-5.882-4.546-7.754-3.209-1.872-9.359-1.874-14.171-1.339z"/>
                <path fill="rgb(209,199,200)" fill-rule="evenodd" d="M95.841 131.306s-3.209 4.412-3.209 8.022c0 3.61-4.412 8.423-4.412 11.632 0 3.209-1.6 6.818-1.2 8.824.4 2.006 2.807 3.209 8.022 3.61 5.215.401 6.016-1.2 6.818-2.808.802-1.608 2.808-8.423 5.215-13.637s6.417-5.615 8.022-13.638c1.605-8.023 2.807-9.626 0-12.434s-15.242-2.807-16.846-2.807c-1.604 0-2.41 13.236-2.41 13.236z"/>
                <path fill="rgb(255,129,119)" fill-rule="evenodd" d="M131.347 154.08s3.037 8.04 4.892 9.749c2.113 1.639 6.335 1.868 8.539 1.818 2.204-.05 1.738 2.3-.441 3.448-2.179 1.148-7.761 1.019-9.753 1.842-1.992.823-3.07 1.951-5.815 1.04-2.745-.911-.312-5.183-.994-6.659-.682-1.476-3.881-8.085-3.881-8.085l7.453-3.153z"/>
                <path fill="rgb(239,233,233)" fill-rule="evenodd" d="M70.372 108.242s10.228 3.61 25.068-3.609l3.81 12.434s7.019.4 9.827-.4 6.017-.4 9.626.8c3.609 1.2 5.215 4.813 5.616 8.022.44572862 4.4105906 1.52656753 8.73360945 3.209 12.835 2.005 4.412 2.406 2.807 3.609 8.022 1.203 5.215 2.407 7.62 1.6 8.824-.807 1.204-4.011 4.412-7.621 3.61-3.61-.802-4.813-3.209-6.819-6.819-2.006-3.61-2.406-6.417-4.011-9.626-1.605-3.209-2.005-4.814-4.011-6.418-2.006-1.604-2.807-2.808-4.011-2.808-3.56482237.56786417-7.0600435 1.50903994-10.428 2.808-3.87788815 1.86740434-8.12995202 2.8276581-12.434 2.808-6.016 0-12.835.8-16.044-1.6-3.209-2.4-4.412-9.225-3.209-13.236.91010264-3.56074049 1.58027436-7.1785319 2.006-10.829l1-6.217 3.217 1.399z"/>
                <path fill="rgb(209,199,200)" fill-rule="evenodd" d="M75.136 117.269l-.035-.8c.744-.034 18.277-.8 22.291.007l-.157.786c-3.919-.786-21.917-.002-22.099.007z"/>
                <path fill="rgb(209,199,200)" fill-rule="evenodd" d="M91.289 116.126l-.792-.122c.29357401-1.928244.47056212-3.87244165.53-5.822h.8c-.05630631 1.99054865-.2359844 3.97569085-.538 5.944z"/>
                <path fill="rgb(209,199,200)" fill-rule="evenodd" d="M108.82 131.614c-.33092266-.3202556-.4869531-.7805268-.419-1.236.159-1.759 2.614-3.994 7.3-6.641l.395.7c-6.039 3.414-6.832 5.343-6.893 6.015-.03417664.19337608.01444464.39221532.134.548l-.517.614z"/>
                <path fill="rgb(209,199,200)" fill-rule="evenodd" d="M106.889 130.621c-.46313391-2.16213208-.09466108-4.41938523 1.032-6.322l.709.376c-1.01793013 1.718013-1.36482948 3.7516837-.974 5.71l-.767.236z"/>
                <path fill="rgb(66,87,144)" fill-rule="evenodd" d="M73.325 59.958s-.685 1.513 5.27 9.58 2.406 14.44.931 18.545c-5.3 14.74-4.14 16.815-1.012 27.267 3.128 10.452 2.733 9.648.246 20.057-2.487 10.409-5.325 14.4-11.341 14.352-6.016-.048-4.776-4.85-10.752-10.11-5.976-5.26-2.767-5.236-.669-17.253s2.1-12.819 3.431-28.853.183-23.664 3.422-27.65c3.239-3.986 9.277-6.747 10.474-5.935z"/>
                <path fill="rgb(239,233,233)" fill-rule="evenodd" d="M99.451 82.373h9.894v10.432c-.00220771 1.91636087-1.55663794 3.46855322-3.473 3.468h-2.949c-1.91597164.00000127-3.46979266-1.55202963-3.472-3.468V82.373z"/>
                <path fill="rgb(239,233,233)" fill-rule="evenodd" d="M99.651 83.376c-1.0201057-.16021283-2.06033957.11916014-2.86292167.7688876-.8025821.64972748-1.29240225 1.60900427-1.34807833 2.6401124 0 4.011.8 7.22 5.014 7.22 3.809-.001-.803-10.629-.803-10.629z"/>
                <path fill="rgb(255,129,119)" fill-rule="evenodd" d="M82.338 90.662c3.41751661-1.03717527 6.90153493-1.8410253 10.428-2.406 1.07-.535 2.006-2.941 3.476-2.941.37367591-.01749523.7335452.14308176.97010792.43287109.23656271.28978932.32184302.67452059.22989208 1.03712891-.09195094.36260832 2.139-.134 2.808.4.668.668-.134 1.337-.267 2.139-.36423438 1.742024-.900186 3.44367036-1.6 5.08-1.0074199.64810405-2.28693862.69939197-3.343.134-1.26443459-.58749924-2.6218929-.94928507-4.011-1.069-.4.134-3.075.936-6.685 2.406-3.61 1.47-6.283 6.418-7.754 3.075-1.471-3.343-2.274-6.416 5.748-8.288z"/>
                <path fill="rgb(66,87,144)" fill-rule="evenodd" d="M66.562 64.725s-5.615-1.6-10.83 13.637c-3.256 9.518-6.818 14.038-2.807 23.263 4.011 9.225 9.225 8.022 17.648 4.813 8.423-3.209 12.434-2.006 15.643-4.813 3.209-2.807 4.011-5.615 1.2-9.626-2.811-4.011-2.407-4.412-9.225-4.412-3.51615424-.10839132-7.02935252.2958505-10.429 1.2-3.39964748.9041495 5.618-16.442-1.2-24.062z"/>
                <path fill="rgb(66,125,172)" fill-rule="evenodd" d="M60.994 108.173l-.1-.8c4.17744338-.56078796 8.27096095-1.6286621 12.19-3.18l.316.738c-3.9878579 1.58190867-8.15405976 2.67064206-12.406 3.242z"/>
                <path fill="rgb(66,125,172)" fill-rule="evenodd" d="M62.295 90.682l-.558-.576c.087-.084 8.7-8.524 8.7-15.489 0-6.757-3.137-7.624-3.169-7.632l.184-.781c.155.036 3.787.959 3.787 8.413.002 7.306-8.579 15.711-8.944 16.065z"/>
                <path fill="rgb(66,125,172)" fill-rule="evenodd" d="M55.241 93.163l-.346-.724c4.37373313-1.9425335 9.01455422-3.216762 13.767-3.78l.086.8c-4.66247234.55101555-9.21565643 1.79962692-13.507 3.704z"/>
                <path fill="rgb(66,125,172)" fill-rule="evenodd" d="M59.425 97.007l-.7-.39c1.28025104-1.90889058 3.12327018-3.37163192 5.273-4.185l.315.738c-1.9819464.75158216-3.68726208 2.09022706-4.888 3.837z"/>
              </g>
            </g>
            <g>
              <path fill="rgb(52,110,132)" fill-rule="evenodd" d="M283.031 148.503s-2.531-4.112 3.163-10.438c5.694-6.326 11.386-5.693 13.917-8.223 2.531-2.53.726-5.085-5.963-1.593s-7.954 9.5-9.535 8.552c-1.581-.948.949-7.591 8.54-12.019 7.591-4.428 15.344-3.655 16.37-7.521 1.026-3.866-4.667-5.131-11.625-.386s-9.8 8.54-13.284 13.284c-3.484 4.744.633-3.8 2.847-8.856s4.428-11.7.949-11.07c-3.479.63-6.958 6.642-7.275 15.814-.317 9.172.949 12.652-.949 13.284-1.898.632.949-8.223-2.847-8.539-3.796-.316-1.9 5.06 0 9.489 1.20594512 2.94554758 2.05530905 6.02474362 2.53 9.172l3.162-.95z"/>
              <path fill="rgb(62,138,165)" fill-rule="evenodd" d="M270.446 146.834s3.484-5.661-4.355-14.372-15.678-7.839-19.162-11.323c-3.484-3.484-1-7 8.21-2.194s10.952 13.082 13.13 11.776c2.178-1.306-1.307-10.452-11.758-16.549-10.451-6.097-21.128-5.032-22.541-10.355-1.413-5.323 6.427-7.065 16.008-.533s13.5 11.759 18.291 18.291-.871-5.226-3.919-12.195-6.1-16.113-1.307-15.243c4.793.87 9.581 9.146 10.016 21.776.435 12.63-1.306 17.42 1.307 18.291 2.613.871-1.307-11.323 3.92-11.758 5.227-.435 2.613 6.968 0 13.065-1.6608594 4.05599376-2.83050414 8.29612385-3.484 12.63l-4.356-1.307z"/>
              <path fill="rgb(66,87,144)" fill-rule="evenodd" d="M288.808 142.697h-25.065c-3.41 2.923-6.63 7.591-5.274 14.372 2.613 13.065 11.106 23.517 11.106 23.517h13.4s8.492-10.452 11.106-23.517c1.357-6.781-1.866-11.449-5.273-14.372z"/>
            </g>
            <path fill="rgb(222,94,124)" fill-rule="evenodd" d="M111.578 53.8s-14.387-17.265-3.357-21.581c7.605-2.976 7.193 10.551 7.193 10.551s5.67-11.99 11.03-7.194c9.113 8.153-4.795 17.745-14.866 18.224z"/>
          </g>
        </g>
      </g>
      <path fill="rgb(129,82,95)" fill-rule="evenodd" d="M148.651 138.252c.056.072.115.134.172.2l.476.006c-.2202754-.05441166-.43674092-.12322631-.648-.206z"/>
      <g>
        <path fill="rgb(255,129,119)" fill-rule="evenodd" d="M89.341 39.205s3.128 12.449 1.4 16.857c-1.546 3.529-7.451 2.412-7.451 2.412s2.276 2.3.7 4.172c-1.576 1.872-8.381 2.038-9.921.167-.751-1.252-1-4.507-1-4.507s-2.162-4.2-3.588-7.966c-1.426-3.766-4.5-12.913-.873-17.206 3.627-4.293 10.91-5 14.736-3.118 3.826 1.882 6.318 8.065 5.997 9.189z"/>
        <path fill="rgb(243,182,137)" fill-rule="evenodd" d="M83.006 33.039s2.808.4 0 7.62-6.418 8.423-6.017 14.841c.401 6.418 2.006 2.005 2.006 11.231 0 9.226-2.006 12.835-1.2 17.247.806 4.412 0 4.011-3.209 4.412-3.209.401-4.412 1.6-6.819.4-2.407-1.2 2.407-7.621 1.2-16.445s-5.215-9.225-3.61-16.445c1.605-7.22 0 .4-.4-12.434s3.61-15.643 10.027-17.247c6.417-1.604 9.225 2.005 11.632 3.209 2.407 1.204 4.412 1.6 6.417 6.016s.2 5.615-.6 12.835c-.43470547 4.70255329-.09690818 9.44455154 1 14.038 1.09690818 4.59344846-8.251-3.278-10.142-3.845 2.12-1.77 8.562-.206 7.736-6.583-.935-7.219-.801-18.048-8.021-18.85z"/>
      </g>
    </g>
  </g>
</svg>
