<svg xmlns="http://www.w3.org/2000/svg" width="204.531" height="251.307" viewBox="0 0 204.531 251.307">
  <g>
    <path fill="rgb(42,43,43)" fill-rule="evenodd" d="M140.64874176 8.23693678c0 1.37205593.82727154 2.6090104 2.09605921 3.13407347 1.26878767.52506308 2.72922545.23483257 3.70031349-.73535748.97108804-.97019006 1.26158718-2.42927734.73603812-3.69689173-.52554906-1.2676144-1.76364843-2.09412095-3.1369743-2.09412095-1.87524781 0-3.39543652 1.51878296-3.39543652 3.39229669z"/>
    <path fill="rgb(42,43,43)" fill-rule="evenodd" d="M204.52913041 246.88264925c2e-8 1.17335535-.466545 2.29865321-1.29700052 3.12834082-.83045551.8296876-1.9567949 1.29580126-3.13123638 1.29580129H87.98956231c-1.17480513.0005564-2.3016839-.4653116-3.1325935-1.2950595-.8309096-.8297479-1.2977428-1.95536371-1.29774267-3.12908261V4.43357972c-1.4e-7-1.1737189.46683307-2.2993347 1.29774267-3.1290826.8309096-.82974791 1.95778837-1.2956159 3.1325935-1.2950595h112.11972786c2.44236798.0046269 4.41984463 1.98402824 4.41984024 4.4241421v242.44906953z"/>
    <g>
      <path fill="rgb(39,48,67)" fill-rule="evenodd" d="M.59721897 212.55910825c.79664183 3.0252785 2.60194347 6.05580011 4.4082947 7.16629229.813139.54441158 1.79278612.7839896 2.76568014.67636209 1.21740717-.29573436 1.99411272-1.48705178 1.77276423-2.71908047-.07544175-.73811456-.2371305-1.46486517-.48176364-2.16540731-.54955347-2.1659536-.92787236-4.3717081-1.1314623-6.59688979-.07850565-1.6632583-.94188288-3.190766-2.32694985-4.11689545-1.71713575-.95529591-3.51509023.2464265-4.5510395 1.67255432C.0167935 207.90217175 0 210.25423403.59721898 212.55910825z"/>
      <path fill="rgb(252,214,189)" fill-rule="evenodd" d="M4.01154818 207.59387647c.03109495 1.03938172.85703286 1.88008212 1.89661632 1.93051567.96037849.06396603 1.12831352-.67741071 2.01627003-1.19438205 1.52876257-.8625183 3.0069047-1.81167376 4.4271874-2.84281802 4.4595371-3.28101356 8.3363445-7.28645088 11.46891339-11.84944438 1.50196898-2.18218529 4.26764911-5.1990748 4.38310445-8.01777449.15953828-3.86207996-1.94489764-6.05160561-5.07688607-5.29135365-1.96064155.47397777-3.32721291 1.8109726-4.78195016 3.43948474-4.33167435 4.8813419-7.34086028 11.99625165-10.81081797 17.59380334-.85351966 1.19938326-1.8067815 2.32470044-2.84964765 3.36398385-.56688965.84201064-.80616631 1.86200522-.67278974 2.86798499z"/>
      <path fill="rgb(250,195,167)" fill-rule="evenodd" d="M18.34165476 183.76600704c1.4463405-1.62851213 2.81396145-2.96550696 4.78195016-3.43948474 3.13198843-.76025196 5.23642435 1.42927369 5.07688607 5.29135366-.1049594 2.81869969-2.87273872 5.83663782-4.38310445 8.01777448-.37470505.54528417-.76515401 1.08322797-1.16399973 1.61278279L12.547896 192.41715006c1.61722284-3.08171111 3.55950768-5.98189813 5.79375876-8.65114302z"/>
      <path fill="rgb(39,48,67)" fill-rule="evenodd" d="M42.55053984 221.48184473c1.91236023 2.47265396 4.78195017 4.54683104 6.87798934 4.87714741.96174929.1815192 1.95676494.01812659 2.80976308-.4613943 1.00228356-.74517825 1.248606-2.14216793.56153277-3.18466925-.3612651-.6487233-.79584005-1.2538916-1.29519896-1.80363224-1.35871803-1.77474043-2.57412488-3.65454719-3.63474395-5.62167002-.72798004-1.49808013-2.12352118-2.56283014-3.76174481-2.87008224-1.95644318-.20343294-3.1361868 1.59285894-3.52663577 3.32413617-.39044896 1.73127722.51430105 3.86103134 1.9690383 5.74016447z"/>
      <path fill="rgb(252,214,189)" fill-rule="evenodd" d="M44.1438235 216.37295154c.65216701.81283953 1.8210027.98651736 2.68171261.3984769.79664183-.53374932.48596202-1.22269489.8890061-2.16226145.69509957-1.61101432 1.29646905-3.26080025 1.80110327-4.94111344 1.5570672-5.31336763 2.21163718-10.8499141 1.93650089-16.37949745-.12700087-2.64357958.2435058-6.71118973-1.37916649-9.02969606-2.21149451-3.18466926-5.2122837-3.63872319-7.24219844-1.13880501-1.27525669 1.56035161-1.5502503 3.4604572-1.71398697 5.62586452-.49435876 6.50146505 1.42639822 13.98653885 2.05195623 20.53938646.0471095 1.47171963-.02766644 2.94481113-.22356352 4.40421826.07009146 1.0077608.4946715 1.95828233 1.19863632 2.68342727z"/>
      <path fill="rgb(250,195,167)" fill-rule="evenodd" d="M41.12309204 188.7438223c.16373666-2.1696018.43873028-4.06446428 1.71398696-5.62586452 2.03201394-2.49991817 5.0380511-2.0301349 7.24219844 1.13880501 1.6216227 2.31326321 1.25111603 6.37038713 1.3791665 9.02969606.03148781.66482724.04828131 1.32545998.0514301 1.99238446l-9.761224 3.85369098c-.57786195-3.43080773-.78756893-6.91343505-.625558-10.38871199z"/>
      <path fill="rgb(51,53,51)" fill-rule="evenodd" d="M73.49781827 82.9765207l6.29756386-1.68828366-8.71897717-6.00756344c-3.18451197-6.40884652-8.8857127-11.2120693-15.7460543-13.26594346-6.8603416-2.05387417-14.26593626-1.17461176-20.45339238 2.42842066-10.13816727 1.87305352-18.19582175 9.58058283-20.5095656 19.61837384-2.31374387 10.037791 1.55802903 20.49000938 9.85502421 26.60457319 8.29699519 6.1145638 19.43563036 6.72443427 28.35174544 1.5523349 11.53952543-2.12009544 20.20750629-11.73118515 21.11993001-23.41785768 1.05971837.00186207 2.11382996-.15363464 3.12779006-.4613943l-3.18761691-4.07285327c-.0147965-.43262526-.06039411-.8636498-.13644722-1.28980677z"/>
      <path fill="rgb(252,214,189)" fill-rule="evenodd" d="M54.88459113 139.38680794c10.77023311 2.91125014 10.83017943 2.85184279 20.26170699 3.42926303 5.4778424.24009984 10.96585064.12060393 16.42865546-.3577176l-1.00692905-2.68283805s-7.00647181-2.0499737-14.93038815-4.41839057c-4.70630232-1.45870478-9.54428366-2.45423993-14.44502837-2.97242434l-6.30801688 7.00210753z"/>
      <path fill="rgb(252,214,189)" fill-rule="evenodd" d="M90.19515637 138.9847744c-.74549235.13804148-1.48026677.32889461-2.1987638.57111538l-.29288174 3.13204633c.61717452.7306869 1.27136619 1.42930024 1.96001008 2.09310096.55816679.52156825 1.5810052.2060558 1.37256331-.50839944-.15144444-.49145333-.40003365-.94744353-.73104435-1.34096352-.1202085-.17821636.1188363-.27241615.30107172-.14489158 2.20362299 1.51390503 3.51296087 2.39270695 4.58511792-.11520196.46566043-1.10589977-.55009233-2.34716036-1.33462737-2.91715532-1.04504656-.78762852-2.3867241-1.06965462-3.66144577-.76965085z"/>
      <path fill="rgb(250,195,167)" fill-rule="evenodd" d="M55.61432326 138.5588163l-.01464202 1.03315483c4.98935663 1.40808604 10.08420256 2.41290774 15.23532424 3.00475904.22220963-2.07121768.60183294-5.78416267.67062423-8.39065694-3.38559966-.87212189-6.83202998-1.48936184-10.310346-1.84653594l-5.58096045 6.19927902z"/>
      <path fill="rgb(252,214,189)" fill-rule="evenodd" d="M25.67411828 139.51829422s-10.88743833-.31458702-17.03595985-7.96219745c-7.37969525-9.15657949-5.7664693-17.64099139-5.7664693-17.64099139l2.85279642-.32612187s1.17134688 8.40052202 7.61900268 12.73972564c7.29257896 4.92852996 13.94700478 3.18466925 13.94700478 3.18466925l-1.61637473 10.00491582z"/>
      <path fill="rgb(252,214,189)" fill-rule="evenodd" d="M1.78011139 112.688216c.2897703.70337823.6278451 1.38591012 1.01180859 2.04271838l3.13198843-.3544347c.5907626-.75067369 1.14151372-1.5319331 1.64996173-2.34052742.39884571-.64909789-.11125696-1.59285894-.79664183-1.23422974-.44685648.24558474-.83953855.5786992-1.15455337.97941425-.14799275.15939076-.29073753-.05557704-.2099188-.26320447 1.03175088-2.46426498 1.62582107-3.92499737-1.04959398-4.45874668-1.19548754-.23489164-2.18735384 1.01926194-2.58619956 1.89486248-.5502549 1.18425877-.54910256 2.5508171.00314879 3.7341479z"/>
      <path fill="rgb(250,195,167)" fill-rule="evenodd" d="M13.34558742 126.36121647l-.09551305-.06816052-1.6541601 8.17926249c6.14432314 4.81318139 14.0792536 5.04387853 14.0792536 5.04387853l1.59433326-9.95353327s-6.63553313 1.72708273-13.9239137-3.20144723z"/>
      <path fill="rgb(240,247,239)" fill-rule="evenodd" d="M12.75151723 137.90970593s2.23983355-10.2639258 2.68171261-11.34610514c.44187907-1.08217935 10.3017649-1.99238446 17.08738996-2.787241l-2.46234747 17.91573073c-5.88296815-.66761374-11.68210035-1.93501182-17.3067551-3.78238459z"/>
      <path fill="rgb(237,47,59)" fill-rule="evenodd" d="M18.82866636 125.64815256c-2.86539156.41944936-3.1876169.4299356-3.39543652.91544823-.44187906 1.08322796-2.6817126 11.34715376-2.6817126 11.34715376s1.09997448.37016406 2.86958993.88398953c1.3077941-3.63138282 1.93755048-9.8423792 3.2075592-13.14659152z"/>
      <path fill="rgb(240,247,239)" fill-rule="evenodd" d="M69.20672948 143.24117228s.68401028-9.03338509.44896175-10.18145199c-.23504852-1.1480669-14.61087835-9.21525661-20.18786308-7.12442254l1.27437074 15.18022368c8.09156233.794415 18.46453059 2.12565085 18.46453059 2.12565085z"/>
      <path fill="rgb(237,47,59)" fill-rule="evenodd" d="M66.6932777 142.94670452l2.53059218.3168829s.68283752-9.03512377.4507209-10.17884393c-.64908568-.76752765-1.45348085-1.38885428-2.36028033-1.82311515-.0517386 3.1085287-.42184599 8.73133097-.62103276 11.68507618z"/>
      <path fill="rgb(39,48,67)" fill-rule="evenodd" d="M52.93942103 160.22965492c-7.65468887-2.42861179-9.62372718-4.30774492-17.76122928-3.01793814-3.6263472.573597-10.50433653-.16673112-13.94700477.91964272-1.70139184 6.3148101-7.20861144 21.89735376-8.97822689 28.2908106 1.56491796 2.28788538 3.66078126 4.16342355 6.10863695 5.46647377.73471579.33451086 8.10601429 2.02698902 10.81081797.45824842 1.83678946-2.36045126 4.67384198-13.4727134 6.71740145-16.7496615.06402524-.10486234 0 .26635034.1049594.20343293 2.51902555-1.80782673-.5415905 17.4218291-.5415905 17.4218291s6.64707867 2.16226145 8.54369499 2.05844773c3.62480373-.22576838 7.1332557-1.36542985 10.19785508-3.3126013.2078196-1.79524326 2.69745652-26.18936932-1.2553144-31.73868433z"/>
      <path fill="rgb(240,247,239)" fill-rule="evenodd" d="M21.21859185 158.1313595c3.5539252-17.80877113 1.4463405-25.2298789 8.2603046-33.33154327 1.80110327-2.1423376 8.7672585-.51382546 11.5560297-.47817226 2.70585327.03984768 10.0183745.19504395 11.15823357 2.78724098 3.51509023 8.11424784 1.00446143 22.62195252 2.09918795 35.87969812-6.13697599 3.02213263-8.80714306 3.93758085-14.0645593 3.8138433-6.89793162-.16358526-12.55314397-2.0301349-16.26240908-4.94845381.01154553-.0041945-3.07321117-2.08256607-2.74678744-3.72261306z"/>
      <path fill="rgb(145,151,173)" fill-rule="evenodd" d="M54.03099877 150.18803728c-5.18079587 2.47999433-7.82262391 2.36464575-12.66020256 2.24929718-6.89793162-.16358525-12.55734234-.70048043-16.26240908-3.62299383-.78169661-.54071777-1.48765893-1.18325472-2.09918796-1.91059183-.3988457 3.2402463-.92889067 6.93140065-1.78430976 11.2276107-.32642373 1.64424149 2.75728338 3.71841856 2.75728338 3.71841856 3.71031471 2.91831891 9.36447747 4.7775282 16.26240909 4.9484538 5.25636664.12373757 7.92653371-.79590515 14.0645593-3.81384328-.34531642-4.07285327-.34111805-8.70672006-.27814241-12.7963513z"/>
      <path fill="rgb(237,47,59)" fill-rule="evenodd" d="M54.00370933 154.41294094c-3.90134082 1.52889291-6.83810477 1.24995909-11.21806043 1.44919753-8.36841279.3984769-15.09106221-1.5330874-19.3629097-4.23958439-.33406485-.1835181-.65846748-.38406974-.97192402-.6008612-.32327495 2.17799079-.71687269 4.53110169-1.23117374 7.11071524-.32642373 1.64424149 2.75728338 3.71841857 2.75728338 3.71841857 3.71031471 2.9183189 9.36447747 4.77752819 16.26240909 4.9484538 5.25636664.12373756 7.92653371-.79590516 14.0645593-3.81384329-.24800626-2.85041226-.34820153-5.71173727-.30018388-8.57249626z"/>
      <rect width="10.942" height="2.268" x="34.066" y="132.922" fill="rgb(145,151,173)" rx="0" ry="0" transform="rotate(-82.064479 39.53692567 134.05597405)"/>
      <path fill="rgb(145,151,173)" fill-rule="evenodd" d="M35.8845685 124.55234111c-.14825501 2.85286008 1.94267136 5.33204892 4.78195016 5.6699067 2.58200118.15939076 5.32773902-2.46007048 5.51141797-5.39516737l-.62135963-4.82366762c.18367894-2.9361455-1.32353801-5.3783894-3.9055392-5.53778015-2.58200118-.15939076-3.94857254 2.21783848-4.13225148 5.15188674l-1.63421783 4.9348217z"/>
      <path fill="rgb(252,214,189)" fill-rule="evenodd" d="M36.43770452 123.40200125c-.07640664 1.22806984.3387564 2.4361446 1.15410987 3.35832157.81535347.92217698 1.96406874 1.48287199 3.19330838 1.55867353 1.23086122.07838493 2.44241653-.33535243 3.36772988-1.15005535.92531335-.81470293 1.488459-1.96352172 1.56536182-3.19334276l.279192-4.47867052c.07959464-1.22999356-.33412646-2.44105379-1.1498103-3.36576864-.81568384-.92471486-1.96623703-1.4870227-3.19760796-1.56276132-1.231132-.07952105-2.44331317.33381749-3.36888392 1.14874704-.92557075.81492956-1.48839904 1.9644188-1.56420777 3.19465106l-.279192 4.49020539z"/>
      <path fill="rgb(250,195,167)" fill-rule="evenodd" d="M36.60144118 120.75422717c-.15854286 2.56239117 1.7911573 4.76844344 4.355815 4.92852996 1.23127398.07722537 2.44280983-.33747822 3.36798658-1.15284753.92517675-.81536931 1.4881781-1.96458654 1.56510512-3.19474507l.279192-4.47867052c.07729684-1.23013539-.33779059-2.44055091-1.15391458-3.36487213-.816124-.92432121-1.96640492-1.48680194-3.19770205-1.56365783-1.23127397-.07722537-2.44280983.33747822-3.36798657 1.15284753-.92517675.81536931-1.4881781 1.96458654-1.56510513 3.19474507l-.28339037 4.47867052z"/>
      <path fill="rgb(252,214,189)" fill-rule="evenodd" d="M72.07142005 97.68346384c2.51902555 2.3887641.95198174 8.4938495-4.38310445 10.21568912-3.15612909 1.01926194-4.80189244.44566494-4.80189244.44566494l1.24691764-8.77907507s4.16898728-5.4371123 7.93807925-1.882279z"/>
      <path fill="rgb(250,195,167)" fill-rule="evenodd" d="M69.3099383 100.11627011c1.62582107 1.5330874.61401248 5.49373798-2.83390374 6.6063274-.98252536.40488907-2.06401435.50607076-3.10469899.29046868l.79664183-5.68144156s2.69115896-3.51708287 5.1419609-1.21535452z"/>
      <path fill="rgb(252,214,189)" fill-rule="evenodd" d="M13.56390297 94.95284851c-2.71005165 2.1423376-1.67935036 8.36067434 3.47100728 10.55439448 3.05221929 1.28980678 4.74626397.85987119 4.74626397.85987119l-.48176364-8.85038146s-3.66728135-5.7768663-7.73550761-2.5638842z"/>
      <path fill="rgb(250,195,167)" fill-rule="evenodd" d="M16.10601958 97.61530331c-1.75387153 1.38523151-1.08737936 5.4182371 2.2471807 6.82758694.94516322.48870233 2.01540453.68268 3.07216158.55681902l-.3148782-5.74540759s-2.3699832-3.72156443-5.00446408-1.63899837z"/>
      <path fill="rgb(252,214,189)" fill-rule="evenodd" d="M19.43743087 103.90599507c-.23510905-1.88752212-3.00498756-19.62393824 9.58804098-25.13760005 9.44483156-3.52864047 19.91898084-3.07450296 29.02232307 1.25834807 12.07033074 6.5885008 8.23301516 23.59402641 7.83836782 25.48154853-.39464733 1.88752211-.63710354 6.32634494-2.74573784 9.1565795-5.15665521 6.88316396-18.57046624 8.64694851-21.07689666 8.53579443-.02833904 0-15.63895026-1.30239025-20.99187955-10.68232653-1.75387154-3.08190416-1.41905106-6.72062735-1.63421782-8.61234395z"/>
      <path fill="rgb(51,53,51)" fill-rule="evenodd" d="M50.58413215 103.6029429c-.1962068 1.04550833.03414072 2.12599367.63975413 3.0008788.6056134.87488514 1.53621442 1.47153672 2.58459857 1.65710633 2.22714113.05660792 4.09540957-1.6668175 4.216219-3.88934417.19629107-1.04489485-.03349127-2.12483213-.63823676-2.99960247-.6047455-.87477034-1.534305-1.47183254-2.58191756-1.65838266-2.22812353-.0572468-4.09795927 1.66590854-4.22041738 3.88934418"/>
      <path fill="rgb(241,241,242)" fill-rule="evenodd" d="M51.83944654 102.66337634c-.0143557.21606282.06002375.42864257.20598551.58871566.14596176.1600731.3509043.2538197.56756526.25962067.45841808.06460708.88863095-.23644674.98451915-.68894557.01523547-.21588032-.05817768-.42865093-.20332706-.58929528s-.34951816-.2553094-.56602533-.26218692c-.45982347-.0618459-.88992854.23999952-.98766793.69314007"/>
      <path fill="rgb(51,53,51)" fill-rule="evenodd" d="M53.07901703 90.37665601c1.08078186-.41504318 2.24175157-.57961577 3.39543652-.48131814 3.04382253.250621 5.52716188 2.25349168 6.14852152 3.58314615.15323991.25341087.15323991.57080711 0 .82421799-.1026203.14428928-.27368096.2239641-.45027582.20972468-.0917029-.00777728-.18039605-.03647724-.25924971-.08388988-1.36630164-.78369169-2.89799132-1.23523008-4.47127034-1.3181196-1.30327594-.09543752-2.61312587-.04620092-3.9055392.14680727-.10168587.01391344-.20479556.01391344-.30648144 0-.65785847-.0707252-1.17811447-.5887559-1.25111602-1.2457646-.08108643-.73944781.38375618-1.42941982 1.0999745-1.63270662V90.376656z"/>
      <path fill="rgb(51,53,51)" fill-rule="evenodd" d="M34.2818385 89.72546088l.0514301.0314587c.71335732.35403439 1.0303373 1.19960205.72526943 1.93471017-.2535033.6586375-.96321962 1.02040282-1.64576335.83889872-4.61086635-1.32126548-7.45211724-.4299356-8.45972746 0-.15707594.07774613-.3414812.07774613-.49855714 0-.11601141-.06886591-.19813775-.18282479-.2267123-.31458702-.0408105-.24634011.02267937-.49854546.1752822-.69628594 1.19968591-1.882279 5.86198236-3.99630376 9.87877851-1.79419463z"/>
      <path fill="rgb(51,53,51)" fill-rule="evenodd" d="M34.9787689 102.92658082c.1041778 1.05797883-.2191105 2.11368488-.89796284 2.93232007-.67885233.8186352-1.65697993 1.33232031-2.71683883 1.42680738-2.22634406-.13508046-3.9402573-2.01664246-3.86565462-4.24377888-.21008806-2.2058843 1.40725865-4.16517416 3.61480166-4.3790513 2.22893153.1296729 3.94588908 2.01457698 3.86565462 4.24377888"/>
      <path fill="rgb(241,241,242)" fill-rule="evenodd" d="M30.21466183 101.72380978c-.00507746.21527283-.09724565.41930387-.2554675.56552374-.15822184.14621987-.36899372.22214927-.58420768.21045757-.46338683.02449601-.8669921-.3128275-.9246923-.77283544-.00001536-.21865542.08989137-.42771319.24866222-.57820774.15877085-.15049455.3724585-.2292056.59101296-.21769742.47052935-.02340703.87615553.32731769.92049392.79590516"/>
      <path fill="rgb(248,177,165)" fill-rule="evenodd" d="M55.58964583 110.07399788c-.07976915 1.32126548 1.45053887 2.48838332 3.42272596 2.60792639 1.97218708.11954307 3.63474394-.8514822 3.71451308-2.1696018.07976914-1.31811962-1.4463405-2.49677231-3.43951946-2.61212089-1.99317896-.11534857-3.61900004.8556767-3.69771958 2.1737963z"/>
      <path fill="rgb(248,177,165)" fill-rule="evenodd" d="M22.32696309 108.65521043c.07137239-1.32126548 1.7255325-2.30697147 3.69771958-2.20210913 1.97218708.10486234 3.51509023 1.25834807 3.44266825 2.57541906-.07242199 1.31707098-1.7255325 2.30697147-3.69771959 2.20210913-1.97218708-.10486234-3.51089185-1.25415358-3.44266824-2.57541906z"/>
      <path fill="rgb(250,195,167)" fill-rule="evenodd" d="M40.85334638 107.74710257c.09971143-.33870536.95618012-.59666672 1.9165586-.58093736.9603785.01572935 1.6573089.30305216 1.56179584.6407089-.09551305.33765672-.9561801.6008612-1.9165586.58513185-.96037849-.01572936-1.65730889-.30619804-1.56179584-.6449034z"/>
      <path fill="rgb(241,107,108)" fill-rule="evenodd" d="M48.07770173 112.4816372l-.30648144-.12688343-.15953829.16673112-.08396751.09542473c-.04408295.04718805-.09131468.10486234-.15533991.16358525l-.06822361.06816052c-.1037003.10504833-.21264711.20479472-.32642373.29885767-.07137239.06396602-.15953828.12688343-.25505134.19923844-.08010142.06196286-.16387122.11904173-.25085296.17092562l-.04408294.02411833c-.2276773.14335539-.46632658.2685304-.7137239.37435856l-.12700088.04823667c-.25064613.10152351-.50764005.1866419-.76935238.25481549-.33481034.09189237-.6757391.1598749-1.02020535.20343294-.3697046.04973079-.74340321.06307737-1.1157184.03984769-.38574984-.01575771-.7694971-.0638133-1.14720622-.14366141-.36902574-.07292929-.73159937-.17532387-1.08423057-.30619803-.32994725-.1219643-.6508702-.2670345-.9603785-.43413009-.27830615-.14751312-.54466243-.31650523-.79664182-.50543647-.07557077-.05138255-.13539763-.11115408-.19942286-.16358525l-.1049594-.09542473c-.05853656-.05148603-.11424623-.10609402-.16688544-.16358525l-.08396752-.08388987c-.1314175-.14360852-.25375698-.29525325-.3663083-.45405394-.06402523-.08388987-.11125696-.16673112-.15114153-.23069714l-.16688544-.28627419-.36315952.09542473.14799275.33870536c.03991696.09749026.08656113.19209386.139596.28312831.10324388.1878098.22042664.36762767.3505644.5379438l.07976913.09542473.17948057.20972468.09551306.09961923c.0682236.07130639.139596.1436614.21516676.20972468.24691307.23225725.51345167.44276486.79664183.62917403.33018694.2140085.67818515.39924882 1.04014763.55367316.36330713.15936163.73756977.2925278 1.11991678.39847689l.09131467.02411834c.42155159.11680115.8518995.19921407 1.28680222.2464265.43633735.05176119.87609052.06894234 1.31514125.05138254.42489372-.00999938.84734442-.0673292 1.25951278-.17092561.37487754-.09394173.73635724-.23487654 1.07583382-.41944936.28731626-.15573484.55479318-.34550657.79664183-.56520801.1078089-.09555415.20654132-.20086495.2949359-.31458702l.0356862-.0398477c.07058507-.08103057.13447021-.16765166.1910261-.25900997.01620565-.0317725.0348019-.0622702.05562849-.09123023.03855508-.05906229.07360199-.12033766.1049594-.1835091l.1049594-.23489164c.03953115-.09311904.0728413-.18875337.09971142-.28627419v-.07130639l.11020737-.25062099z"/>
      <path fill="rgb(51,53,51)" fill-rule="evenodd" d="M19.24221039 102.0614624c-6.29651642-22.75616455 4.12070465-31.81417846 30.48125458-30.5956726 25.6493225 1.1882019 16.61602783 31.36314392 16.2268219 32.66329956-.00793458.02648925-.01228333.0409851-.0126648.04301452 1.38638306-18.69570923-9.22175598-24.13801575-9.22175598-24.13801575 2.29486084 3.74111939 1.90603638 3.62033082-1.26677704 2.63461304-1.14576721-.35595703-2.6545868-.82470703-4.53118134-1.2651062l.91314698 3.5233612-11.27368927-3.8494873 1.19548797 2.4999237-13.57649994-2.81451415c-.49191284.06163025-.45998382.13833618-.4238205.22521972.03767396.09051514.0799408.19207764-.4609909.29908753 0 0-4.15953827 5.00404358-5.0286026 7.25752258-1.89661407 4.9054718-3.02072906 13.51675415-3.02072906 13.51675415z"/>
    </g>
    <path fill="rgb(64,64,64)" fill-rule="evenodd" d="M204.52913041 25.37563756V4.4325311c.00222907-1.17335609-.46217956-2.299539-1.29106085-3.1308003C202.40918827.47046953 201.2837323.0022228 200.10929017 0H126.5065125L83.55922614 40.93091702V246.880552c-1.4e-7 1.1737189.46683306 2.2993347 1.29774266 3.1290826.8309096.8297479 1.95778837 1.2956159 3.1325935 1.2950595h25.1503709l91.38919721-225.92905654z"/>
    <rect width="103.251" height="215.912" x="92.42" y="17.698" fill="rgb(252,191,30)" rx="0" ry="0"/>
    <g opacity=".2">
      <path fill="rgb(245,246,246)" fill-rule="evenodd" d="M195.67055724 17.69761706h-87.73346138L92.4188489 32.48320694V233.6091743h27.88141442l75.37134351-186.34037748-.00104959-29.57117976z"/>
    </g>
    <path fill="rgb(64,64,64)" fill-rule="evenodd" d="M158.2955653 242.36937415c0 1.5393507-1.24904532 2.78724099-2.7898208 2.78724099h-22.91998368c-1.54077548 0-2.78982079-1.2478903-2.78982079-2.78724099s1.24904531-2.78724099 2.7898208-2.78724099h22.92208286c1.53995564.00115767 2.78772204 1.24870895 2.7877216 2.787241z"/>
    <g>
      <path fill="rgb(63,61,86)" fill-rule="evenodd" d="M187.0376587 105.20733643h4.70114135l.0041809-4.70097351h-4.70532226v4.7009735zm4.49749755-.20446778h-4.29702759v-4.2920227h4.29702759v4.2920227z"/>
      <path fill="rgb(63,61,86)" fill-rule="evenodd" d="M159.33990479 129.2638092h31.96118164v-18.18208313h-31.96118164v18.18208313zm31.64526367-.31459045H159.655838l.00105286-17.55081177h31.32827759v17.55081177z"/>
      <path fill="rgb(63,61,86)" fill-rule="evenodd" d="M104.2782135 132.89727783h28.47547913v-17.70495605H104.2782135v17.70495605zm28.16059876-.3145752H104.5899353l.00524903-17.07473754h27.84362793v17.07473755z"/>
      <path fill="rgb(208,205,225)" fill-rule="evenodd" d="M117.55662537 125.7456665l.02729797.35339356 1.0579834-.00210571-.01364136-.3533783c-.03033447-.74491882.25062561-1.46890259.77565003-1.99868774.66952514-.6168213 1.08647155-1.45965577 1.17030334-2.36569214.00189209-.57951355-.2467804-1.13163758-.68215942-1.51457215-.4353943-.38294983-1.01507569-.55941772-1.59020996-.48410034-.68759156-.00968933-1.36334229.17930603-1.94595337.54423523l.32643127.85671997c.40473938-.2758789.88394165-.42216492 1.37391663-.41944885.85751342.01573181 1.29309082.47607422 1.29309082 1.16921997-.08258057.715271-.42103577 1.37664795-.95303345 1.86235046-.59535217.63310242-.89964294 1.48545838-.8396759 2.35206604zm-.05187989 1.6491089c-.15519714.16282653-.23498535.3831787-.2199707.60752868-.0106659.29597473.14129639.57415771.39624023.72531128.2549286.1511383.5721283.1511383.82705689 0 .25492859-.15115357.40690613-.42933655.39622497-.72531128.01774598-.22267151-.05923461-.44250489-.21205139-.6055603-.15281677-.16305543-.36732483-.25422669-.59088134-.25115967-.22502137-.00402832-.44142151.08634948-.59661866.24919128z"/>
      <path fill="rgb(208,205,225)" fill-rule="evenodd" d="M174.35960388 121.79446411l.02729798.3533783 1.05693054-.00209046-.01364136-.35339355c-.03033447-.74490357.25062561-1.46888733.77565002-1.99867249.66952515-.61682129 1.08647156-1.45967102 1.17030335-2.36569214.00222778-.57965087-.2463379-1.13197326-.68180847-1.51499939-.43547058-.38301086-1.01535034-.55935668-1.59056092-.48368835-.68759155-.00968933-1.36334228.17930603-1.94595336.54425049l.32643127.85671997c.40473938-.2758789.88394165-.42218018 1.37391663-.41944885.85751342.0157318 1.29309082.47607422 1.29309082 1.16921997-.08239746.71508789-.42044068 1.37641906-.9519806 1.86235046-.59535217.63308716-.89964294 1.48545838-.8396759 2.35206604zm-.05187988 1.64910889c-.15519714.16282654-.23498535.3831787-.2199707.60752868-.0106659.29597474.14129638.57415772.39624023.72531128.25492859.15113831.5721283.15113831.82705689 0 .25492858-.15115356.40690612-.42933654.39622497-.72531128.01774597-.2226715-.05923462-.44250488-.2120514-.6055603-.15281676-.16305542-.36732482-.25422668-.59088134-.25115967-.22502136-.00402832-.4414215.0863495-.59661865.24919129z"/>
      <ellipse cx="148.362" cy="133.557" fill="rgb(47,46,65)" rx="13.653" ry="13.64"/>
      <path fill="rgb(47,46,65)" fill-rule="evenodd" d="M143.08904775 152.2370474l-4.08187097-.73403639 1.323538-8.51482197 4.08187098.73403638-1.323538 8.51482197z"/>
      <rect width="4.148" height="7.425" x="147.8" y="144.77" fill="rgb(47,46,65)" rx="0" ry="0" transform="rotate(10.261004 149.87437776 148.48283388)"/>
      <ellipse cx="150.592" cy="152.232" fill="rgb(47,46,65)" rx="1.296" ry="3.453" transform="rotate(-78.580028 150.59225616 152.23202066)"/>
      <ellipse cx="142.053" cy="152.229" fill="rgb(47,46,65)" rx="1.296" ry="3.453" transform="rotate(-82.45403 142.0527465 152.22880436)"/>
      <ellipse cx="149.318" cy="130.22" fill="rgb(255,255,255)" rx="4.666" ry="4.662"/>
      <ellipse cx="151.236" cy="128.55" fill="rgb(63,61,86)" rx="1.555" ry="1.554"/>
      <path fill="rgb(255,255,255)" fill-rule="evenodd" d="M137.5923241 118.71780054c-.2099188-5.05017028 4.15114417-9.33274823 9.73078576-9.55400776 5.57964158-.22125954 10.26922747 3.68381399 10.4738983 8.73398426.20467083 5.05017028-3.67357892 6.19736427-9.25217091 6.42386693-5.578592.22650265-10.74784233-.55472178-10.95251316-5.60384343z"/>
      <ellipse cx="160.788" cy="130.934" fill="rgb(47,46,65)" rx="6.827" ry="2.141" transform="rotate(-12.840005 160.788 130.93408794)"/>
      <ellipse cx="134.08" cy="135.383" fill="rgb(47,46,65)" rx="6.827" ry="2.141" transform="rotate(-12.840005 134.07984544 135.38330716)"/>
      <path fill="rgb(255,255,255)" fill-rule="evenodd" d="M144.61200862 138.93211374c-.20764371 1.09678194.18933528 2.22058172 1.04003 2.9441998.8506947.72361807 2.0244506.93591707 3.07507787.55619396 1.05062728-.3797231 1.81676465-1.29314828 2.0071738-2.39304745.30648144-1.6893323-1.00131266-2.28704763-2.69220856-2.59219704-1.6908959-.3051494-3.12359167-.20448156-3.43007311 1.48485073z"/>
      <rect width="22.45" height="21.335" x="96.44" y="94.397" fill="rgb(208,205,225)" rx="0" ry="0"/>
      <rect width="17.348" height="13.254" x="98.991" y="96.946" fill="rgb(255,255,255)" rx="0" ry="0"/>
      <rect width="9.436" height=".496" x="98.974" y="111.763" fill="rgb(242,242,242)" rx="0" ry="0"/>
      <rect width="9.436" height=".496" x="98.974" y="113.251" fill="rgb(242,242,242)" rx="0" ry="0"/>
      <ellipse cx="102.078" cy="103.577" fill="rgb(63,61,86)" rx="1.987" ry="1.985"/>
      <ellipse cx="107.665" cy="103.577" fill="rgb(255,116,116)" rx="1.987" ry="1.985"/>
      <ellipse cx="113.252" cy="103.577" fill="rgb(230,230,230)" rx="1.987" ry="1.985"/>
      <ellipse cx="107.664" cy="95.638" fill="rgb(63,61,86)" rx=".993" ry=".992"/>
      <ellipse cx="118.343" cy="136.949" fill="rgb(63,61,86)" rx=".993" ry=".992"/>
      <rect width="22.45" height="21.335" x="165.568" y="129.321" fill="rgb(208,205,225)" rx="0" ry="0"/>
      <rect width="17.348" height="13.254" x="168.12" y="131.87" fill="rgb(255,255,255)" rx="0" ry="0"/>
      <rect width="3.732" height="1.105" x="174.927" y="142.246" fill="rgb(63,61,86)" rx="0" ry="0"/>
      <rect width="12.756" height=".474" x="170.415" y="133.643" fill="rgb(63,61,86)" rx="0" ry="0"/>
      <rect width="12.756" height=".474" x="170.415" y="135.142" fill="rgb(63,61,86)" rx="0" ry="0"/>
      <rect width="12.756" height=".474" x="170.415" y="136.642" fill="rgb(63,61,86)" rx="0" ry="0"/>
      <rect width="12.756" height=".474" x="170.415" y="138.141" fill="rgb(63,61,86)" rx="0" ry="0"/>
      <rect width="12.756" height=".474" x="170.415" y="139.641" fill="rgb(63,61,86)" rx="0" ry="0"/>
      <rect width="9.436" height=".496" x="168.102" y="146.439" fill="rgb(242,242,242)" rx="0" ry="0"/>
      <rect width="13.161" height=".496" x="168.102" y="147.68" fill="rgb(242,242,242)" rx="0" ry="0"/>
      <ellipse cx="176.794" cy="130.561" fill="rgb(63,61,86)" rx=".993" ry=".992"/>
    </g>
  </g>
</svg>
