<svg xmlns="http://www.w3.org/2000/svg" width="57" height="57" viewBox="0 0 57 57">
  <g>
    <path fill="rgb(50,39,74)" fill-rule="evenodd" d="M57 28.5C57 44.2295782 44.2295782 57 28.5 57c-2.33098858 0-4.59699202-.28044738-6.76608067-.80941247C9.2659352 53.15008089 0 41.89858962 0 28.5 0 12.7704218 12.7704218 0 28.5 0S57 12.7704218 57 28.5z"/>
    <g>
      <path fill="rgb(255,255,255)" fill-rule="evenodd" d="M37.90723305 20.66951837h1.47002844c1.62402628.00040891 2.94043982 1.11873018 2.94092013 2.4983759v9.99350688c-.0004803 1.37964898-1.31689385 2.497967-2.94092013 2.4983759h-21.5667736c-1.62402628-.0004089-2.94044307-1.11872692-2.94092338-2.4983759v-9.99350687c.00048031-1.37964573 1.3168971-2.497967 2.94092338-2.4983759h1.47089819v-3.74719552c.04941029-4.3395576 4.20444112-7.83536587 9.31292348-7.83536587 5.10847588 0 9.26350995 3.49580828 9.3129235 7.83536587v3.74719551zm-13.72431017-3.74719551v3.74719551H33.005693v-3.74719551c-.03390082-2.0491836-1.99897983-3.69526197-4.41138345-3.69526197-2.41240361 0-4.37748262 1.64607836-4.41138668 3.69526197z"/>
      <text font-size="0" style="white-space:pre">
        <tspan x="15" y="51" fill="rgb(255,255,255)" font-family="Bubblegum Sans" font-size="12" font-weight="400" style="white-space:pre;text-transform:none">Parent</tspan>
      </text>
    </g>
  </g>
</svg>
