<svg xmlns="http://www.w3.org/2000/svg" xmlns:xlink="http://www.w3.org/1999/xlink" width="60.191" height="63.501" viewBox="0 0 60.191 63.501">
  <defs>
    <rect id="rect-1" width="60.191" height="63.501" x="0" y="0"/>
    <mask id="mask-2" maskContentUnits="userSpaceOnUse" maskUnits="userSpaceOnUse">
      <rect width="60.191" height="63.501" x="0" y="0" fill="black"/>
      <use fill="white" xlink:href="#rect-1"/>
    </mask>
  </defs>
  <g>
    <use fill="none" xlink:href="#rect-1"/>
    <g mask="url(#mask-2)">
      <path fill="rgb(60,91,112)" fill-rule="evenodd" d="M49.3064804 3.43470764H4.5419159c-1.20458985 0-2.35984803.4803009-3.21161652 1.3352356C.47852325 5.62486267 0 6.78440857 0 7.99346924v13.34553528h53.84838867V7.99346924c0-1.20906067-.47851562-2.36860657-1.33029175-3.223526-.85177612-.8549347-2.00702667-1.3352356-3.21161651-1.3352356zM10.3150406 8.9744873c0 .24684144-.19936371.4469452-.44528961.4469452H7.19803619c-.24591827 0-.44528198-.20010376-.44528198-.4469452V6.29286194c0-.24682617.19936371-.44692993.44528198-.44692993h2.67171479c.2459259 0 .4452896.20010376.4452896.44692993V8.9744873zm12.0227127.4469452c.2459259 0 .44528962-.20010376.44528962-.4469452V6.29286194c0-.24682617-.19936371-.44692993-.44528961-.44692993H19.6660385c-.24591827 0-.44528198.20010376-.44528198.44692993V8.9744873c0 .24684144.1993637.4469452.44528198.4469452h2.67171479zm12.9132843-.4469452c0 .24684144-.1993637.4469452-.4452896.4469452H32.1340332c-.24591827 0-.44528198-.20010376-.44528198-.4469452V6.29286194c0-.24682617.1993637-.44692993.44528198-.44692993H34.805748c.2459259 0 .4452896.20010376.4452896.44692993V8.9744873zm12.02271272.4469452c.2459259 0 .4452896-.20010376.4452896-.4469452V6.29286194c0-.24682617-.1993637-.44692993-.4452896-.44692993h-2.67171479c-.24591827 0-.44528198.20010376-.44528198.44692993V8.9744873c0 .24684144.1993637.4469452.44528198.4469452h2.67171479z"/>
      <path fill="rgb(179,179,179)" fill-rule="evenodd" d="M0 17.98697703v35.30801802c4e-8 2.80159383 2.26274949 5.07273427 5.05399234 5.07273423h43.7404105c2.79124286 0 5.05399227-2.27114048 5.05399227-5.07273423V17.98697703H0z"/>
      <path fill="rgb(255,255,255)" fill-rule="evenodd" d="M0 17.09310315v35.30801802c4e-8 2.80159383 2.26274949 5.07273428 5.05399234 5.07273424h43.7404105c2.79124286 0 5.05399227-2.27114048 5.05399227-5.07273424V17.09310315H0z"/>
      <path fill="rgb(41,76,96)" fill-rule="evenodd" d="M7.16687775 9.74993896H9.8096466c.36888885 0 .6679306-.30015563.6679306-.67041015V6.42472839c0-.37025451-.29904175-.67041015-.6679306-.67041015H7.16687775c-.36888886 0-.6679306.30015564-.6679306.67041015v2.65480042c0 .37025452.29904174.67041015.6679306.67041015zm-.22264862-3.32522583c0-.12341308.09967804-.22346496.22264099-.22346496h2.64276886c.12296295 0 .22264862.10005188.22264862.22346496v2.65481568c0 .12341308-.09968567.22346496-.22264862.22346496H7.16687012c-.12296295 0-.222641-.10005188-.222641-.22346496V6.42471313z"/>
      <path fill="rgb(41,76,96)" fill-rule="evenodd" d="M19.55917358 9.74993896h2.64276886c.36888886 0 .6679306-.30015563.6679306-.67041015V6.42472839c0-.37025451-.29904174-.67041015-.6679306-.67041015h-2.64276886c-.36888885 0-.6679306.30015564-.6679306.67041015v2.65480042c0 .37025452.29904175.67041015.6679306.67041015zm-.22264099-3.32522583c0-.12341308.09967804-.22346496.222641-.22346496h2.64276885c.12296296 0 .22264862.10005188.22264862.22346496v2.65481568c0 .12341308-.09968566.22346496-.22264862.22346496h-2.64276886c-.12296295 0-.22264099-.10005188-.22264099-.22346496V6.42471313z"/>
      <path fill="rgb(41,76,96)" fill-rule="evenodd" d="M32.0271759 9.74993896h2.64276886c.36888886 0 .6679306-.30015563.6679306-.67041015V6.42472839c0-.37025451-.29904174-.67041015-.6679306-.67041015H32.0271759c-.36888885 0-.6679306.30015564-.6679306.67041015v2.65480042c0 .37025452.29904175.67041015.6679306.67041015zm-.22264862-3.32522583c0-.12341308.09967804-.22346496.222641-.22346496h2.64276885c.12296296 0 .22264862.10005188.22264862.22346496v2.65481568c0 .12341308-.09968566.22346496-.22264862.22346496h-2.64276886c-.12296295 0-.22264099-.10005188-.22264099-.22346496V6.42471313z"/>
      <path fill="rgb(41,76,96)" fill-rule="evenodd" d="M44.6554718 9.52645874h2.64499664c.36888123 0 .66792298-.30015564.66792298-.67041016V6.20124817c0-.37025452-.29904175-.67041016-.66792298-.67041016H44.6554718c-.36888885 0-.6679306.30015564-.6679306.67041016v2.65480041c0 .37025452.29904175.67041016.6679306.67041016zm-.22264099-3.32521057c0-.12341309.09967804-.22346497.222641-.22346497h2.64499663c.12296296 0 .22264863.10005188.22264863.22346497v2.65481567c0 .12341309-.09968567.22346497-.22264863.22346497H44.6554718c-.12296295 0-.22264099-.10005188-.22264099-.22346497V6.20124817z"/>
      <path fill="rgb(204,204,204)" fill-rule="evenodd" d="M8.48046543 8.41135315c-.305281 0-.59805849-.12172212-.81392476-.3383889-.21586627-.21666678-.33713867-.51052999-.33713867-.81694308V1.34081081c-.00059124-.3068001.12042011-.60123773.3363505-.81838806.21593038-.21715034.50904578-.33917918.81471293-.3391786.3054636-.0000023.59835163.1220977.81392883.339313.21557719.2172153.33609215.5116596.33490818.81825366v5.91521036c.00059123.30620742-.12018555.60007665-.3356984.8168079-.21551284.21673126-.50806194.33852466-.8131386.33852408z"/>
      <path fill="rgb(179,179,179)" fill-rule="evenodd" d="M7.21807861 7.25601196c.00122834.69927979.56569672 1.26583863 1.26238251 1.26707459.69632721-.00123596 1.26016235-.56816101 1.26016235-1.26707459v-5.9152069C9.71221161.66230773 9.15592957.12693785 8.47934723.12693785c-.6765747 0-1.23286438.53536988-1.26126862 1.2138672v5.9152069zM7.7444687.60144043c.1950531-.19619751.45985412-.30645752.73599243-.30645752.27593994 0 .54051209.11032105.73521423.30659485.19470215.19625854.30348969.46228027.3022995.73924255v5.91520691c.01771546.38395691-.17627716.74661255-.50492859.9439087-.32865142.19729614-.73874664.19729614-1.06739807 0-.32865142-.19729615-.52264404-.55995179-.50492859-.9439087v-5.9152069c-.00058746-.27717591.10868836-.54318238.30374909-.73937989z"/>
      <path fill="rgb(204,204,204)" fill-rule="evenodd" d="M8.31570974 8.228109c-.30469052 0-.5969017-.12148668-.81235044-.33773437-.21544873-.2162477-.33648657-.5095425-.33648657-.81536292V1.15533198c-.00059123-.30620742.12018555-.60007665.3356984-.8168079C7.71808396.12179282 8.01063306-5.8e-7 8.31570972 0c.30528101 0 .5980585.12172213.81392477.3383889.21586627.21666678.33713867.51052999.33713867.81694308v5.91967973c-.00122794.63719936-.51621711 1.1530985-1.15106343 1.1530973z"/>
      <path fill="rgb(204,204,204)" fill-rule="evenodd" d="M33.2895561 8.41135315c-.30507667 5.8e-7-.59762578-.12179282-.81313862-.33852407-.21551285-.21673126-.33628963-.51060049-.3356984-.8168079V1.3408108c-.00118396-.30659406.119331-.60103836.33490819-.81825366.21557719-.2172153.50846522-.3393153.81392882-.339313.30566715-5.8e-7.59878255.12202826.81471294.3391786.21593038.21715033.33694173.51158796.3363505.81838806v5.91521036c0 .63807224-.51534866 1.15533198-1.15106344 1.15533198z"/>
      <path fill="rgb(179,179,179)" fill-rule="evenodd" d="M32.02939606 7.25601196c0 .69891358.56383514 1.26583863 1.26016235 1.26707459.6966858-.00123596 1.26115418-.5677948 1.2623825-1.26707459v-5.9152069c-.02840423-.67849732-.5846939-1.2138672-1.2612686-1.2138672-.67658234 0-1.23286439.53536988-1.26127625 1.2138672v5.9152069zm.52494049-6.6544342c.19470215-.1962738.45927429-.30659485.73521423-.30659485.27614594 0 .54094696.11026001.73600006.30645752.1950531.1961975.30433655.46220398.30374146.73937988v5.91520691c.01771545.38395691-.17627716.74661255-.5049286.9439087-.32865142.19729614-.73874663.19729614-1.06739806 0-.32865143-.19729615-.52264405-.55995179-.5049286-.9439087v-5.9152069c-.00118255-.27696229.10760499-.54298402.3022995-.73924256z"/>
      <path fill="rgb(204,204,204)" fill-rule="evenodd" d="M33.1248004 8.228109c-.63448516 0-1.14883701-.51625924-1.14883701-1.15309729V1.15533198c-.00059124-.30620742.12018555-.60007665.3356984-.8168079C32.52717462.12179282 32.81972372-5.8e-7 33.12480038 0c.30738485-.00358836.60338055.11661985.82179268.3337421.21841212.21712224.34101944.5130449.3404029.82158988v5.91967973c.00002076.30815776-.1228491.60350297-.34119572.82014026-.21834662.21663728-.51400138.33654027-.82099985.33295704z"/>
      <path fill="rgb(204,204,204)" fill-rule="evenodd" d="M20.82155756 8.41135315c-.30507667 5.8e-7-.59762577-.12179282-.81313862-.33852407-.21551285-.21673126-.33628963-.51060049-.3356984-.8168079V1.3408108c-.00118396-.30659406.119331-.60103836.3349082-.81825366.21557718-.2172153.50846522-.3393153.81392882-.339313.30566714-5.8e-7.59878255.12202826.81471293.3391786.21593038.21715033.33694173.51158796.3363505.81838806v5.91521036c0 .3064131-.1212724.6002763-.33713867.81694308-.21586627.21666678-.50864376.3383889-.81392476.3383889z"/>
      <path fill="rgb(179,179,179)" fill-rule="evenodd" d="M19.56140137 7.25601196c0 .69891358.56383514 1.26583863 1.26016235 1.26707459.6966858-.00123596 1.26115418-.5677948 1.2623825-1.26707459v-5.9152069c-.02840423-.67849732-.5846939-1.2138672-1.2612686-1.2138672-.67658234 0-1.23286439.53536988-1.26127625 1.2138672v5.9152069zm.52494049-6.6544342c.19470215-.1962738.45927429-.30659485.73521423-.30659485.27614594 0 .54094696.11026001.73600006.30645752.1950531.1961975.30433655.46220398.30374146.73937988v5.91520691c.01771545.38395691-.17627716.74661255-.5049286.9439087-.32865142.19729614-.73874663.19729614-1.06739806 0-.32865143-.19729615-.52264405-.55995179-.5049286-.9439087v-5.9152069c-.00118255-.27696229.10760499-.54298402.3022995-.73924256z"/>
      <path fill="rgb(204,204,204)" fill-rule="evenodd" d="M20.65680186 8.228109c-.63448516 0-1.148837-.51625924-1.148837-1.15309729V1.15533198c-.00059124-.30620742.12018554-.60007665.33569839-.8168079C20.05917609.12179282 20.3517252-5.8e-7 20.65680186 0c.30738484-.00358836.60338055.11661985.82179267.3337421.21841212.21712224.34101945.5130449.3404029.82158988v5.91967973c.00002076.30815776-.1228491.60350297-.34119572.82014026-.21834661.21663728-.51400138.33654027-.82099985.33295704z"/>
      <path fill="rgb(204,204,204)" fill-rule="evenodd" d="M45.97797103 8.41135315c-.63571478 0-1.15106344-.51725974-1.15106344-1.15533198V1.34081081c-.00059123-.3068001.12042012-.60123773.3363505-.81838806.21593039-.21715034.5090458-.33917918.81471294-.3391786.3054636-.0000023.59835163.1220977.81392882.339313.2155772.2172153.33609216.5116596.33490819.81825366v5.91521036c.00059123.30620742-.12018555.60007665-.3356984.8168079-.21551284.21673126-.50806194.33852466-.81313861.33852408z"/>
      <path fill="rgb(179,179,179)" fill-rule="evenodd" d="M44.7155838 7.25601196c.00122833.69927979.56569672 1.26583863 1.2623825 1.26707459.69632722-.00123596 1.26016236-.56816101 1.26016236-1.26707459v-5.9152069c-.02841186-.67849732-.5846939-1.2138672-1.26127624-1.2138672-.67657471 0-1.23286438.53536988-1.26126862 1.2138672v5.9152069zm.52639008-6.65457153c.1950531-.19619751.45985412-.30645752.73599243-.30645752.27593994 0 .54051208.11032105.73521423.30659485.19470215.19625854.30348969.46228027.3022995.73924255v5.91520691c.01771546.38395691-.17627716.74661255-.50492859.9439087-.32865143.19729614-.73874664.19729614-1.06739807 0-.32865143-.19729615-.52264404-.55995179-.50492859-.9439087v-5.9152069c-.00058746-.27717591.10868836-.54318238.30374909-.73937989z"/>
      <path fill="rgb(204,204,204)" fill-rule="evenodd" d="M45.81321534 8.228109c-.63448516 0-1.14883701-.51625924-1.14883701-1.15309729V1.15533198c-.00059124-.30620742.12018554-.60007665.3356984-.8168079C45.21558956.12179282 45.50813866-5.8e-7 45.81321532 0c.63571479 0 1.15106344.51725975 1.15106344 1.15533198v5.91967973c-.00122794.63719936-.51621711 1.1530985-1.15106343 1.1530973z"/>
      <path fill="rgb(255,255,255)" fill-rule="evenodd" d="M8.0841612 1.05253649c.27647982 0 .50094636.22446654.50094636.50094637V7.2511748c0 .27647983-.22446654.50094637-.50094637.50094637-.27647982 0-.50094637-.22446654-.50094637-.50094637V1.55348286c0-.27647983.22446655-.50094637.50094637-.50094637z"/>
      <path fill="rgb(255,255,255)" fill-rule="evenodd" d="M20.32729047 1.05253649c.27647983 0 .50094637.22446654.50094637.50094637V7.2511748c0 .27647983-.22446654.50094637-.50094637.50094637s-.50094637-.22446654-.50094637-.50094637V1.55348286c0-.27647983.22446654-.50094637.50094637-.50094637z"/>
      <path fill="rgb(255,255,255)" fill-rule="evenodd" d="M32.78860972 1.05253649c.27647983 0 .50094637.22446654.50094637.50094637V7.2511748c0 .27647983-.22446654.50094637-.50094637.50094637s-.50094637-.22446654-.50094637-.50094637V1.55348286c0-.27647983.22446654-.50094637.50094637-.50094637z"/>
      <path fill="rgb(255,255,255)" fill-rule="evenodd" d="M45.6061575 1.05253649c.27647983 0 .50094637.22446654.50094637.50094637V7.2511748c0 .27647983-.22446654.50094637-.50094637.50094637s-.50094637-.22446654-.50094637-.50094637V1.55348286c0-.27647983.22446654-.50094637.50094637-.50094637z"/>
      <path fill="rgb(204,204,204)" fill-rule="evenodd" d="M44.0193815 22.02505225h2.82845562c1.10383005 0 2 .89616995 2 2v2.85377793c0 1.10383005-.89616995 2-2 2H44.0193815c-1.10383005 0-2-.89616995-2-2v-2.85377793c0-1.10383005.89616995-2 2-2z"/>
      <path fill="rgb(204,204,204)" fill-rule="evenodd" d="M31.55138296 22.02505225h2.82845563c1.10383004 0 2 .89616995 2 2v2.85377793c0 1.10383005-.89616996 2-2 2h-2.82845563c-1.10383005 0-2-.89616995-2-2v-2.85377793c0-1.10383005.89616995-2 2-2z"/>
      <path fill="rgb(255,89,89)" fill-rule="evenodd" d="M19.08338442 22.02505225h2.82845563c1.10383005 0 2 .89616995 2 2v2.85377793c0 1.10383005-.89616995 2-2 2h-2.82845563c-1.10383005 0-2-.89616995-2-2v-2.85377793c0-1.10383005.89616995-2 2-2z"/>
      <path fill="rgb(204,204,204)" fill-rule="evenodd" d="M6.61538589 22.02505225H9.4438415c1.10383005 0 2 .89616995 2 2v2.85377793c0 1.10383005-.89616995 2-2 2H6.6153859c-1.10383005 0-2-.89616995-2-2v-2.85377793c0-1.10383005.89616995-2 2-2z"/>
      <path fill="rgb(204,204,204)" fill-rule="evenodd" d="M44.0193815 33.86888108h2.82845562c1.10383005 0 2 .89616995 2 2v2.85377793c0 1.10383005-.89616995 2-2 2H44.0193815c-1.10383005 0-2-.89616995-2-2v-2.85377793c0-1.10383005.89616995-2 2-2z"/>
      <path fill="rgb(204,204,204)" fill-rule="evenodd" d="M31.55138296 33.86888108h2.82845563c1.10383004 0 2 .89616995 2 2v2.85377793c0 1.10383005-.89616996 2-2 2h-2.82845563c-1.10383005 0-2-.89616995-2-2v-2.85377793c0-1.10383005.89616995-2 2-2z"/>
      <path fill="rgb(204,204,204)" fill-rule="evenodd" d="M19.08338442 33.86888108h2.82845563c1.10383005 0 2 .89616995 2 2v2.85377793c0 1.10383005-.89616995 2-2 2h-2.82845563c-1.10383005 0-2-.89616995-2-2v-2.85377793c0-1.10383005.89616995-2 2-2z"/>
      <path fill="rgb(204,204,204)" fill-rule="evenodd" d="M6.61538589 33.86888108H9.4438415c1.10383005 0 2 .89616995 2 2v2.85377793c0 1.10383005-.89616995 2-2 2H6.6153859c-1.10383005 0-2-.89616995-2-2v-2.85377793c0-1.10383005.89616995-2 2-2z"/>
      <path fill="rgb(204,204,204)" fill-rule="evenodd" d="M44.0193815 45.71270991h2.82845562c1.10383005 0 2 .89616995 2 2v2.85377793c0 1.10383005-.89616995 2-2 2H44.0193815c-1.10383005 0-2-.89616995-2-2V47.7127099c0-1.10383005.89616995-2 2-2z"/>
      <path fill="rgb(204,204,204)" fill-rule="evenodd" d="M31.55138296 45.71270991h2.82845563c1.10383004 0 2 .89616995 2 2v2.85377793c0 1.10383005-.89616996 2-2 2h-2.82845563c-1.10383005 0-2-.89616995-2-2V47.7127099c0-1.10383005.89616995-2 2-2z"/>
      <path fill="rgb(204,204,204)" fill-rule="evenodd" d="M19.08338442 45.71270991h2.82845563c1.10383005 0 2 .89616995 2 2v2.85377793c0 1.10383005-.89616995 2-2 2h-2.82845563c-1.10383005 0-2-.89616995-2-2V47.7127099c0-1.10383005.89616995-2 2-2z"/>
      <path fill="rgb(204,204,204)" fill-rule="evenodd" d="M6.61538589 45.71270991H9.4438415c1.10383005 0 2 .89616995 2 2v2.85377793c0 1.10383005-.89616995 2-2 2H6.6153859c-1.10383005 0-2-.89616995-2-2V47.7127099c0-1.10383005.89616995-2 2-2z"/>
      <ellipse cx="49.298" cy="52.566" fill="rgb(255,89,89)" rx="10.894" ry="10.934"/>
      <path fill="rgb(255,255,255)" fill-rule="evenodd" d="M55.06847782 51.3016563h-3.63798386v-3.65147477c-.00122792-.62979426-.51023627-1.1396904-1.13770486-1.13968919h-1.26015843c-.6274686-.0000012-1.13647694.50989493-1.13770486 1.1396892v3.65147477h-3.63575743c-.3017381 0-.59111778.12030949-.80447883.33446176-.21336105.21415226-.33322604.50460507-.33322604.80746211v1.26483153c0 .30285702.11986498.59330983.33322602.8074621.21336105.21415227.50274073.33446177.80447882.33446178h3.63575746v3.64924009c-1e-8.30285701.11986497.59330982.33322602.8074621.21336104.21415227.50274073.33446176.80447882.33446177h1.26015845c.30173809 0 .59111777-.1203095.80447882-.33446176.21336105-.21415227.33322604-.50460507.33322604-.80746211v-3.6492401h3.63798386c.6274674-.00123247 1.13547964-.5121284 1.13547844-1.14192387v-1.26483153c.0000012-.62979547-.50801104-1.1406914-1.13547844-1.14192387z"/>
    </g>
  </g>
</svg>
