<svg xmlns="http://www.w3.org/2000/svg" xmlns:xlink="http://www.w3.org/1999/xlink" width="33.865" height="33.86" viewBox="0 0 33.865 33.86">
  <defs>
    <path id="path-1" fill-rule="evenodd" d="M5.63660643 12.24949095c1.89355469-4.56817627 6.35317993-7.5460205 11.29916382-7.54486084 3.2427063.00024414 6.35250854 1.28842163 8.64517212 3.58114624 2.29269409 2.2926941 3.58044433 5.4020996 3.57992553 8.644104 0 4.94491578-2.97955322 9.40286255-7.54916382 11.29492188-4.5696106 1.89205932-9.82928466.84561157-13.3262329-2.65136719-3.49694825-3.49697876-4.54241944-8.75576782-2.64886475-13.3239441zm11.29916382 6.00854492l3.09817505 3.09750366c.17529296.17666626.4139099.2760315.66281127.2760315.24890137 0 .48751831-.09936524.66281128-.2760315.36090088-.36810302.36090088-.95724487 0-1.3253479l-3.09817505-3.09750366 3.09817505-3.09747314c.26287842-.23101807.37548828-.58901978.2921753-.92889405-.083313-.33987426-.34875489-.60525512-.68869019-.6885376-.33996582-.08331298-.69802856.02926636-.92910766.29208375l-3.09817505 3.09750366-3.09817505-3.09750366c-.3720398-.32693482-.93405152-.30886841-1.28430176.0413208-.35025024.35015869-.36834717.91207885-.0413208 1.2840271l3.09817505 3.09747314-3.09817505 3.09750366c-.26287842.23101807-.37548828.58901978-.2921753.92889405.08334351.33987426.34875489.60525512.6886902.6885376.33996581.08331298.69802856-.02926636.92910766-.29208375l3.09817505-3.09750366z"/>
  </defs>
  <g>
    <use fill="rgb(255,83,83)" xlink:href="#path-1"/>
    <use fill-opacity="0" stroke="rgb(255,255,255)" stroke-dasharray="0 0 0 0" stroke-linecap="butt" stroke-linejoin="miter" stroke-width="2" xlink:href="#path-1"/>
  </g>
</svg>
