<svg xmlns="http://www.w3.org/2000/svg" width="174.862" height="189.051" viewBox="0 0 174.862 189.051">
  <g id="Group_210" data-name="Group 210" transform="translate(-10.246 -53.75)">
    <g id="Group_209" data-name="Group 209">
      <g id="Group_206" data-name="Group 206">
        <g id="Group_205" data-name="Group 205">
          <g id="Group_204" data-name="Group 204">
            <g id="Group_104" data-name="Group 104">
              <circle id="Ellipse_1" data-name="Ellipse 1" cx="66.996" cy="66.996" r="66.996" transform="matrix(0.993, -0.122, 0.122, 0.993, 22.886, 96.841)" fill="#51197c"/>
            </g>
            <g id="Group_105" data-name="Group 105">
              <path id="Path_78" data-name="Path 78" d="M151.674,155.179a54.132,54.132,0,1,1-54.132-54.133A54.132,54.132,0,0,1,151.674,155.179Z" fill="#fafafa"/>
            </g>
            <g id="Group_201" data-name="Group 201">
              <g id="Group_106" data-name="Group 106">
                <circle id="Ellipse_2" data-name="Ellipse 2" cx="66.996" cy="66.996" r="66.996" transform="translate(10.246 191.878) rotate(-67.664)" fill="#51197c"/>
              </g>
              <g id="Group_107" data-name="Group 107">
                <path id="Path_79" data-name="Path 79" d="M151.808,155.37a54.132,54.132,0,1,1-54.131-54.133A54.132,54.132,0,0,1,151.808,155.37Z" fill="#fafafa"/>
              </g>
              <g id="Group_112" data-name="Group 112">
                <g id="Group_108" data-name="Group 108">
                  <path id="Path_80" data-name="Path 80" d="M98,107.4a1.013,1.013,0,0,1-1-1.072V89.178a1,1,0,1,1,2,0V106.33A1.013,1.013,0,0,1,98,107.4Z" fill="#51197c"/>
                </g>
                <g id="Group_109" data-name="Group 109">
                  <path id="Path_81" data-name="Path 81" d="M98,221.032a1.013,1.013,0,0,1-1-1.072V202.809a1,1,0,1,1,2,0V219.96A1.013,1.013,0,0,1,98,221.032Z" fill="#51197c"/>
                </g>
                <g id="Group_110" data-name="Group 110">
                  <path id="Path_82" data-name="Path 82" d="M162.95,156H145.8c-.592,0-1.072-.908-1.072-1.5s.48-1.5,1.072-1.5H162.95c.592,0,1.071.909,1.071,1.5S163.542,156,162.95,156Z" fill="#51197c"/>
                </g>
                <g id="Group_111" data-name="Group 111">
                  <path id="Path_83" data-name="Path 83" d="M49.319,156H32.168c-.592,0-1.072-.908-1.072-1.5s.48-1.5,1.072-1.5H49.319c.593,0,1.073.909,1.073,1.5S49.912,156,49.319,156Z" fill="#51197c"/>
                </g>
              </g>
              <g id="Group_117" data-name="Group 117">
                <g id="Group_113" data-name="Group 113">
                  <path id="Path_84" data-name="Path 84" d="M70.395,111.821a1.068,1.068,0,0,1-.912-.508l-6.9-11.146a1.072,1.072,0,1,1,1.823-1.128l6.9,11.146a1.071,1.071,0,0,1-.911,1.636Z" fill="#51197c"/>
                </g>
                <g id="Group_114" data-name="Group 114">
                  <path id="Path_85" data-name="Path 85" d="M132.332,211.874a1.071,1.071,0,0,1-.912-.507l-6.9-11.148a1.072,1.072,0,0,1,1.823-1.127l6.9,11.147a1.071,1.071,0,0,1-.91,1.635Z" fill="#51197c"/>
                </g>
                <g id="Group_115" data-name="Group 115">
                  <path id="Path_86" data-name="Path 86" d="M142.368,128.756a1.072,1.072,0,0,1-.566-1.983l11.146-6.9a1.072,1.072,0,0,1,1.13,1.823l-11.146,6.9A1.066,1.066,0,0,1,142.368,128.756Z" fill="#51197c"/>
                </g>
                <g id="Group_116" data-name="Group 116">
                  <path id="Path_87" data-name="Path 87" d="M42.315,190.693a1.072,1.072,0,0,1-.564-1.983l11.146-6.9a1.072,1.072,0,0,1,1.128,1.823l-11.146,6.9A1.069,1.069,0,0,1,42.315,190.693Z" fill="#51197c"/>
                </g>
              </g>
              <g id="Group_122" data-name="Group 122">
                <g id="Group_118" data-name="Group 118">
                  <path id="Path_88" data-name="Path 88" d="M52.264,130.787a1.076,1.076,0,0,1-.522-.136L40.3,124.26a1.072,1.072,0,1,1,1.045-1.871l11.447,6.39a1.072,1.072,0,0,1-.524,2.008Z" fill="#51197c"/>
                </g>
                <g id="Group_119" data-name="Group 119">
                  <path id="Path_89" data-name="Path 89" d="M155.007,188.154a1.068,1.068,0,0,1-.523-.137l-11.445-6.392a1.072,1.072,0,0,1,1.046-1.872l11.445,6.392a1.073,1.073,0,0,1-.523,2.009Z" fill="#51197c"/>
                </g>
                <g id="Group_120" data-name="Group 120">
                  <path id="Path_90" data-name="Path 90" d="M123.4,110.627a1.073,1.073,0,0,1-.935-1.6l6.39-11.447a1.072,1.072,0,0,1,1.872,1.046l-6.39,11.447A1.075,1.075,0,0,1,123.4,110.627Z" fill="#51197c"/>
                </g>
                <g id="Group_121" data-name="Group 121">
                  <path id="Path_91" data-name="Path 91" d="M66.035,213.37a1.073,1.073,0,0,1-.935-1.6l6.391-11.448a1.072,1.072,0,1,1,1.871,1.046l-6.39,11.447A1.072,1.072,0,0,1,66.035,213.37Z" fill="#51197c"/>
                </g>
              </g>
              <g id="Group_148" data-name="Group 148">
                <g id="Group_127" data-name="Group 127">
                  <g id="Group_123" data-name="Group 123">
                    <path id="Path_92" data-name="Path 92" d="M87.667,104.293a.357.357,0,0,1-.35-.287L84.748,91.149a.357.357,0,0,1,.7-.139l2.57,12.856a.359.359,0,0,1-.281.421A.423.423,0,0,1,87.667,104.293Z" fill="#51197c"/>
                  </g>
                  <g id="Group_124" data-name="Group 124">
                    <path id="Path_93" data-name="Path 93" d="M110.727,219.683a.357.357,0,0,1-.349-.288l-2.569-12.854a.357.357,0,0,1,.7-.14l2.569,12.855a.358.358,0,0,1-.281.421A.335.335,0,0,1,110.727,219.683Z" fill="#51197c"/>
                  </g>
                  <g id="Group_125" data-name="Group 125">
                    <path id="Path_94" data-name="Path 94" d="M149.18,145.315a.358.358,0,0,1-.069-.708l12.855-2.57a.361.361,0,0,1,.421.28.357.357,0,0,1-.28.421l-12.855,2.57A.351.351,0,0,1,149.18,145.315Z" fill="#51197c"/>
                  </g>
                  <g id="Group_126" data-name="Group 126">
                    <path id="Path_95" data-name="Path 95" d="M33.791,168.377a.358.358,0,0,1-.07-.709L46.576,165.1a.357.357,0,1,1,.14.7l-12.855,2.569A.342.342,0,0,1,33.791,168.377Z" fill="#51197c"/>
                  </g>
                </g>
                <g id="Group_132" data-name="Group 132">
                  <g id="Group_128" data-name="Group 128">
                    <path id="Path_96" data-name="Path 96" d="M82.756,105.524a.356.356,0,0,1-.342-.254l-3.8-12.546a.358.358,0,0,1,.685-.207l3.8,12.547a.355.355,0,0,1-.238.444A.316.316,0,0,1,82.756,105.524Z" fill="#51197c"/>
                  </g>
                  <g id="Group_129" data-name="Group 129">
                    <path id="Path_97" data-name="Path 97" d="M116.872,218.143a.358.358,0,0,1-.343-.255l-3.8-12.545a.357.357,0,0,1,.684-.207l3.8,12.546a.358.358,0,0,1-.239.445A.345.345,0,0,1,116.872,218.143Z" fill="#51197c"/>
                  </g>
                  <g id="Group_130" data-name="Group 130">
                    <path id="Path_98" data-name="Path 98" d="M147.95,140.4a.357.357,0,0,1-.1-.7l12.545-3.8a.357.357,0,1,1,.209.683l-12.546,3.8A.369.369,0,0,1,147.95,140.4Z" fill="#51197c"/>
                  </g>
                  <g id="Group_131" data-name="Group 131">
                    <path id="Path_99" data-name="Path 99" d="M35.332,174.52a.357.357,0,0,1-.1-.7l12.546-3.8a.357.357,0,0,1,.207.684l-12.547,3.8A.367.367,0,0,1,35.332,174.52Z" fill="#51197c"/>
                  </g>
                </g>
                <g id="Group_137" data-name="Group 137">
                  <g id="Group_133" data-name="Group 133">
                    <path id="Path_100" data-name="Path 100" d="M92.768,103c-.181,0-.336.128-.355-.056L91.124,90.031c-.019-.2.124-.305.321-.325a.4.4,0,0,1,.391.354l1.289,12.8c.019.2-.124.142-.321.142Z" fill="#51197c"/>
                  </g>
                  <g id="Group_134" data-name="Group 134">
                    <path id="Path_101" data-name="Path 101" d="M104.345,220.633a.358.358,0,0,1-.355-.323L102.7,207.266a.357.357,0,0,1,.321-.391.362.362,0,0,1,.391.321l1.288,13.045a.36.36,0,0,1-.321.391Z" fill="#51197c"/>
                  </g>
                  <g id="Group_135" data-name="Group 135">
                    <path id="Path_102" data-name="Path 102" d="M149.941,150c-.182,0-.337.07-.356-.114s.125-.268.321-.287l13.046-1.238a.39.39,0,0,1,.39.347c.019.2-.125.176-.321.2L149.976,150Z" fill="#51197c"/>
                  </g>
                  <g id="Group_136" data-name="Group 136">
                    <path id="Path_103" data-name="Path 103" d="M32.839,161.995a.358.358,0,0,1-.035-.714l13.048-1.291a.369.369,0,0,1,.39.321.359.359,0,0,1-.321.392l-13.046,1.29Z" fill="#51197c"/>
                  </g>
                </g>
                <g id="Group_142" data-name="Group 142">
                  <g id="Group_138" data-name="Group 138">
                    <path id="Path_104" data-name="Path 104" d="M73.742,109.2a.358.358,0,0,1-.317-.191l-6.06-11.626A.358.358,0,1,1,68,97.054l6.06,11.626a.357.357,0,0,1-.151.482A.369.369,0,0,1,73.742,109.2Z" fill="#51197c"/>
                  </g>
                  <g id="Group_139" data-name="Group 139">
                    <path id="Path_105" data-name="Path 105" d="M128.144,213.543a.356.356,0,0,1-.317-.192l-6.058-11.624a.358.358,0,0,1,.634-.331l6.058,11.624a.357.357,0,0,1-.317.523Z" fill="#51197c"/>
                  </g>
                  <g id="Group_140" data-name="Group 140">
                    <path id="Path_106" data-name="Path 106" d="M144.273,131.39a.358.358,0,0,1-.166-.675l11.624-6.062a.361.361,0,0,1,.483.152.358.358,0,0,1-.152.482l-11.624,6.062A.353.353,0,0,1,144.273,131.39Z" fill="#51197c"/>
                  </g>
                  <g id="Group_141" data-name="Group 141">
                    <path id="Path_107" data-name="Path 107" d="M39.931,185.792a.357.357,0,0,1-.165-.674l11.625-6.06a.358.358,0,0,1,.331.634L40.1,185.752A.358.358,0,0,1,39.931,185.792Z" fill="#51197c"/>
                  </g>
                </g>
                <g id="Group_147" data-name="Group 147">
                  <g id="Group_143" data-name="Group 143">
                    <path id="Path_108" data-name="Path 108" d="M78.063,107.193a.358.358,0,0,1-.331-.221L72.755,94.844a.357.357,0,1,1,.661-.271L78.394,106.7a.358.358,0,0,1-.2.466A.352.352,0,0,1,78.063,107.193Z" fill="#51197c"/>
                  </g>
                  <g id="Group_144" data-name="Group 144">
                    <path id="Path_109" data-name="Path 109" d="M122.741,216.054a.357.357,0,0,1-.331-.221l-4.977-12.128a.357.357,0,1,1,.661-.271l4.978,12.127a.357.357,0,0,1-.331.493Z" fill="#51197c"/>
                  </g>
                  <g id="Group_145" data-name="Group 145">
                    <path id="Path_110" data-name="Path 110" d="M146.279,135.709a.357.357,0,0,1-.135-.688l12.128-4.977a.358.358,0,1,1,.271.662l-12.128,4.977A.339.339,0,0,1,146.279,135.709Z" fill="#51197c"/>
                  </g>
                  <g id="Group_146" data-name="Group 146">
                    <path id="Path_111" data-name="Path 111" d="M37.42,180.389a.357.357,0,0,1-.135-.688l12.127-4.979a.358.358,0,1,1,.271.662l-12.127,4.978A.362.362,0,0,1,37.42,180.389Z" fill="#51197c"/>
                  </g>
                </g>
              </g>
              <g id="Group_174" data-name="Group 174">
                <g id="Group_153" data-name="Group 153">
                  <g id="Group_149" data-name="Group 149">
                    <path id="Path_112" data-name="Path 112" d="M116.161,106.566a.34.34,0,0,1-.125-.022.359.359,0,0,1-.211-.46L120.4,93.8a.358.358,0,0,1,.67.25L116.5,106.335A.358.358,0,0,1,116.161,106.566Z" fill="#51197c"/>
                  </g>
                  <g id="Group_150" data-name="Group 150">
                    <path id="Path_113" data-name="Path 113" d="M75.09,216.839a.341.341,0,0,1-.125-.023.356.356,0,0,1-.21-.46l4.576-12.284a.358.358,0,0,1,.67.25l-4.577,12.284A.356.356,0,0,1,75.09,216.839Z" fill="#51197c"/>
                  </g>
                  <g id="Group_151" data-name="Group 151">
                    <path id="Path_114" data-name="Path 114" d="M159.192,178.383a.345.345,0,0,1-.125-.023l-12.284-4.573a.358.358,0,1,1,.25-.67l12.284,4.573a.358.358,0,0,1-.125.693Z" fill="#51197c"/>
                  </g>
                  <g id="Group_152" data-name="Group 152">
                    <path id="Path_115" data-name="Path 115" d="M48.92,137.313a.362.362,0,0,1-.125-.022l-12.286-4.575a.358.358,0,1,1,.25-.67l12.286,4.575a.357.357,0,0,1-.125.692Z" fill="#51197c"/>
                  </g>
                </g>
                <g id="Group_158" data-name="Group 158">
                  <g id="Group_154" data-name="Group 154">
                    <path id="Path_116" data-name="Path 116" d="M111.334,105.031a.354.354,0,0,1-.091-.011.359.359,0,0,1-.255-.437l3.366-12.671a.357.357,0,1,1,.691.183l-3.365,12.67A.358.358,0,0,1,111.334,105.031Z" fill="#51197c"/>
                  </g>
                  <g id="Group_155" data-name="Group 155">
                    <path id="Path_117" data-name="Path 117" d="M81.126,218.759a.373.373,0,0,1-.092-.011.358.358,0,0,1-.254-.437l3.366-12.669a.352.352,0,0,1,.437-.253.357.357,0,0,1,.254.436l-3.366,12.668A.357.357,0,0,1,81.126,218.759Z" fill="#51197c"/>
                  </g>
                  <g id="Group_156" data-name="Group 156">
                    <path id="Path_118" data-name="Path 118" d="M161.113,172.347a.324.324,0,0,1-.092-.012l-12.669-3.363a.357.357,0,1,1,.183-.691l12.67,3.364a.357.357,0,0,1-.092.7Z" fill="#51197c"/>
                  </g>
                  <g id="Group_157" data-name="Group 157">
                    <path id="Path_119" data-name="Path 119" d="M47.385,142.139a.369.369,0,0,1-.092-.012l-12.671-3.364a.358.358,0,0,1,.183-.692l12.671,3.365a.357.357,0,0,1-.091.7Z" fill="#51197c"/>
                  </g>
                </g>
                <g id="Group_163" data-name="Group 163">
                  <g id="Group_159" data-name="Group 159">
                    <path id="Path_120" data-name="Path 120" d="M119.98,108.164a.336.336,0,0,1-.151-.034.356.356,0,0,1-.173-.473l5.535-11.886a.357.357,0,1,1,.647.3L120.3,107.958A.354.354,0,0,1,119.98,108.164Z" fill="#51197c"/>
                  </g>
                  <g id="Group_160" data-name="Group 160">
                    <path id="Path_121" data-name="Path 121" d="M70.312,214.839a.352.352,0,0,1-.151-.033.358.358,0,0,1-.174-.475l5.534-11.883a.358.358,0,0,1,.649.3l-5.534,11.882A.358.358,0,0,1,70.312,214.839Z" fill="#51197c"/>
                  </g>
                  <g id="Group_161" data-name="Group 161">
                    <path id="Path_122" data-name="Path 122" d="M157.192,183.16a.345.345,0,0,1-.15-.033l-11.883-5.533a.357.357,0,0,1,.3-.648l11.882,5.534a.356.356,0,0,1-.15.68Z" fill="#51197c"/>
                  </g>
                  <g id="Group_162" data-name="Group 162">
                    <path id="Path_123" data-name="Path 123" d="M50.518,133.494a.353.353,0,0,1-.151-.034l-11.885-5.534a.356.356,0,0,1-.173-.474.352.352,0,0,1,.474-.173l11.886,5.534a.357.357,0,0,1-.151.681Z" fill="#51197c"/>
                  </g>
                </g>
                <g id="Group_168" data-name="Group 168">
                  <g id="Group_164" data-name="Group 164">
                    <path id="Path_124" data-name="Path 124" d="M101.735,103h-.027c-.2,0-.344.023-.33-.173l.959-12.971a.327.327,0,0,1,.383-.278.383.383,0,0,1,.331.408l-.96,12.878C102.077,103.053,101.92,103,101.735,103Z" fill="#51197c"/>
                  </g>
                  <g id="Group_165" data-name="Group 165">
                    <path id="Path_125" data-name="Path 125" d="M93.132,220h-.026c-.2,0-.345.2-.33.005l.96-12.881c.015-.2.192-.248.384-.232a.406.406,0,0,1,.33.431l-.962,12.71C93.475,220.222,93.317,220,93.132,220Z" fill="#51197c"/>
                  </g>
                  <g id="Group_166" data-name="Group 166">
                    <path id="Path_126" data-name="Path 126" d="M163.131,161H163.1l-13.075-1.288c-.2-.015-.344-.35-.331-.546s.2-.429.383-.414l13.074.915c.2.015.346.5.331.692S163.315,161,163.131,161Z" fill="#51197c"/>
                  </g>
                  <g id="Group_167" data-name="Group 167">
                    <path id="Path_127" data-name="Path 127" d="M45.773,152h-.027l-13.074-1.09a.422.422,0,0,1-.331-.448.4.4,0,0,1,.382-.363l13.075.943c.2.014.344.307.331.5S45.958,152,45.773,152Z" fill="#51197c"/>
                  </g>
                </g>
                <g id="Group_173" data-name="Group 173">
                  <g id="Group_169" data-name="Group 169">
                    <path id="Path_128" data-name="Path 128" d="M106.466,103.983a.4.4,0,0,1-.059-.005.36.36,0,0,1-.295-.412l2.145-12.932a.354.354,0,0,1,.411-.3.358.358,0,0,1,.294.412l-2.144,12.933A.357.357,0,0,1,106.466,103.983Z" fill="#51197c"/>
                  </g>
                  <g id="Group_170" data-name="Group 170">
                    <path id="Path_129" data-name="Path 129" d="M87.216,220.07a.416.416,0,0,1-.059-.005.357.357,0,0,1-.294-.411l2.145-12.932a.357.357,0,1,1,.7.117l-2.145,12.932A.356.356,0,0,1,87.216,220.07Z" fill="#51197c"/>
                  </g>
                  <g id="Group_171" data-name="Group 171">
                    <path id="Path_130" data-name="Path 130" d="M162.424,166.257a.294.294,0,0,1-.059-.005l-12.934-2.143a.358.358,0,0,1-.294-.412.354.354,0,0,1,.412-.293l12.933,2.143a.357.357,0,0,1-.058.71Z" fill="#51197c"/>
                  </g>
                  <g id="Group_172" data-name="Group 172">
                    <path id="Path_131" data-name="Path 131" d="M46.338,147.008a.305.305,0,0,1-.06-.006l-12.933-2.143a.358.358,0,0,1-.294-.412.352.352,0,0,1,.411-.293L46.4,146.3a.358.358,0,0,1-.057.711Z" fill="#51197c"/>
                  </g>
                </g>
              </g>
              <g id="Group_200" data-name="Group 200">
                <g id="Group_179" data-name="Group 179">
                  <g id="Group_175" data-name="Group 175">
                    <path id="Path_132" data-name="Path 132" d="M137.291,121.169a.358.358,0,0,1-.236-.627l9.874-8.624a.358.358,0,0,1,.471.539l-9.874,8.624A.356.356,0,0,1,137.291,121.169Z" fill="#51197c"/>
                  </g>
                  <g id="Group_176" data-name="Group 176">
                    <path id="Path_133" data-name="Path 133" d="M48.662,198.574a.358.358,0,0,1-.236-.627l9.873-8.622a.358.358,0,0,1,.471.539L48.9,198.486A.363.363,0,0,1,48.662,198.574Z" fill="#51197c"/>
                  </g>
                  <g id="Group_177" data-name="Group 177">
                    <path id="Path_134" data-name="Path 134" d="M140.928,204.811a.359.359,0,0,1-.27-.121l-8.624-9.873a.357.357,0,1,1,.539-.469l8.625,9.871a.356.356,0,0,1-.27.592Z" fill="#51197c"/>
                  </g>
                  <g id="Group_178" data-name="Group 178">
                    <path id="Path_135" data-name="Path 135" d="M63.523,116.183a.356.356,0,0,1-.269-.123l-8.625-9.874a.358.358,0,0,1,.539-.47l8.624,9.874a.359.359,0,0,1-.034.505A.363.363,0,0,1,63.523,116.183Z" fill="#51197c"/>
                  </g>
                </g>
                <g id="Group_184" data-name="Group 184">
                  <g id="Group_180" data-name="Group 180">
                    <path id="Path_136" data-name="Path 136" d="M133.779,117.521a.357.357,0,0,1-.261-.6l8.994-9.539a.357.357,0,1,1,.52.49l-8.993,9.539A.355.355,0,0,1,133.779,117.521Z" fill="#51197c"/>
                  </g>
                  <g id="Group_181" data-name="Group 181">
                    <path id="Path_137" data-name="Path 137" d="M53.054,203.137a.356.356,0,0,1-.26-.6L61.786,193a.357.357,0,1,1,.52.49l-8.991,9.537A.359.359,0,0,1,53.054,203.137Z" fill="#51197c"/>
                  </g>
                  <g id="Group_182" data-name="Group 182">
                    <path id="Path_138" data-name="Path 138" d="M145.491,200.419a.358.358,0,0,1-.245-.1l-9.539-8.99a.358.358,0,1,1,.49-.522l9.539,8.991a.358.358,0,0,1,.015.506A.354.354,0,0,1,145.491,200.419Z" fill="#51197c"/>
                  </g>
                  <g id="Group_183" data-name="Group 183">
                    <path id="Path_139" data-name="Path 139" d="M59.874,119.694a.355.355,0,0,1-.245-.1l-9.539-8.993a.358.358,0,1,1,.49-.521l9.539,8.993a.357.357,0,0,1-.245.617Z" fill="#51197c"/>
                  </g>
                </g>
                <g id="Group_189" data-name="Group 189">
                  <g id="Group_185" data-name="Group 185">
                    <path id="Path_140" data-name="Path 140" d="M140.116,124.7a.363.363,0,0,1-.289-.146.359.359,0,0,1,.078-.5l10.581-7.737a.357.357,0,1,1,.422.576l-10.581,7.738A.362.362,0,0,1,140.116,124.7Z" fill="#51197c"/>
                  </g>
                  <g id="Group_186" data-name="Group 186">
                    <path id="Path_141" data-name="Path 141" d="M45.128,194.156a.357.357,0,0,1-.21-.645L55.5,185.774a.357.357,0,0,1,.421.577L45.34,194.087A.356.356,0,0,1,45.128,194.156Z" fill="#51197c"/>
                  </g>
                  <g id="Group_187" data-name="Group 187">
                    <path id="Path_142" data-name="Path 142" d="M136.51,208.344a.357.357,0,0,1-.288-.147l-7.738-10.581a.357.357,0,0,1,.576-.421l7.738,10.581a.355.355,0,0,1-.077.5A.349.349,0,0,1,136.51,208.344Z" fill="#51197c"/>
                  </g>
                  <g id="Group_188" data-name="Group 188">
                    <path id="Path_143" data-name="Path 143" d="M67.054,113.359a.355.355,0,0,1-.288-.147L59.027,102.63a.357.357,0,1,1,.577-.422l7.738,10.583a.357.357,0,0,1-.077.5A.362.362,0,0,1,67.054,113.359Z" fill="#51197c"/>
                  </g>
                </g>
                <g id="Group_194" data-name="Group 194">
                  <g id="Group_190" data-name="Group 190">
                    <path id="Path_144" data-name="Path 144" d="M126.547,111.817a.351.351,0,0,1-.195-.059.356.356,0,0,1-.1-.494l7.181-10.967a.358.358,0,0,1,.6.391l-7.182,10.967A.355.355,0,0,1,126.547,111.817Z" fill="#51197c"/>
                  </g>
                  <g id="Group_191" data-name="Group 191">
                    <path id="Path_145" data-name="Path 145" d="M62.1,210.271a.358.358,0,0,1-.3-.554l7.182-10.966a.357.357,0,1,1,.6.392L62.4,210.109A.355.355,0,0,1,62.1,210.271Z" fill="#51197c"/>
                  </g>
                  <g id="Group_192" data-name="Group 192">
                    <path id="Path_146" data-name="Path 146" d="M152.625,191.376a.348.348,0,0,1-.2-.059l-10.97-7.18a.357.357,0,1,1,.391-.6l10.969,7.18a.357.357,0,0,1-.2.656Z" fill="#51197c"/>
                  </g>
                  <g id="Group_193" data-name="Group 193">
                    <path id="Path_147" data-name="Path 147" d="M54.171,126.926a.351.351,0,0,1-.2-.059l-10.968-7.181a.357.357,0,1,1,.392-.6l10.967,7.181a.357.357,0,0,1-.195.656Z" fill="#51197c"/>
                  </g>
                </g>
                <g id="Group_199" data-name="Group 199">
                  <g id="Group_195" data-name="Group 195">
                    <path id="Path_148" data-name="Path 148" d="M130,114.28a.357.357,0,0,1-.282-.576l8.045-10.352a.357.357,0,0,1,.564.438l-8.045,10.352A.359.359,0,0,1,130,114.28Z" fill="#51197c"/>
                  </g>
                  <g id="Group_196" data-name="Group 196">
                    <path id="Path_149" data-name="Path 149" d="M57.785,207.19a.357.357,0,0,1-.282-.576l8.044-10.35a.357.357,0,0,1,.564.438l-8.043,10.35A.36.36,0,0,1,57.785,207.19Z" fill="#51197c"/>
                  </g>
                  <g id="Group_197" data-name="Group 197">
                    <path id="Path_150" data-name="Path 150" d="M149.543,195.689a.347.347,0,0,1-.219-.076l-10.35-8.044a.357.357,0,0,1,.438-.565l10.35,8.045a.356.356,0,0,1,.062.5A.351.351,0,0,1,149.543,195.689Z" fill="#51197c"/>
                  </g>
                  <g id="Group_198" data-name="Group 198">
                    <path id="Path_151" data-name="Path 151" d="M56.634,123.477a.361.361,0,0,1-.219-.075l-10.352-8.045a.357.357,0,0,1,.439-.564l10.351,8.044a.357.357,0,0,1-.219.64Z" fill="#51197c"/>
                  </g>
                </g>
              </g>
            </g>
            <g id="Group_202" data-name="Group 202">
              <path id="Path_152" data-name="Path 152" d="M60.486,133.641a42.695,42.695,0,1,0,36.867-21.152l.189,42.69Z" fill="#fa0"/>
            </g>
            <g id="Group_203" data-name="Group 203">
              <path id="Path_153" data-name="Path 153" d="M120.936,155.179a23.394,23.394,0,1,1-23.394-23.394A23.395,23.395,0,0,1,120.936,155.179Z" fill="#51197c"/>
            </g>
          </g>
        </g>
        <text id="_50_min" data-name="50
min" transform="translate(97.217 165.246)" fill="#fff" font-size="22.485" font-family="Montserrat-SemiBold, Montserrat" font-weight="600"><tspan x="-14.132" y="0">50</tspan><tspan font-size="14.99"><tspan x="-15.193" y="26.983">min</tspan></tspan></text>
      </g>
      <g id="Group_208" data-name="Group 208">
        <rect id="Rectangle_6" data-name="Rectangle 6" width="5.707" height="10.886" transform="translate(95.256 76.572)" fill="#51197c"/>
        <rect id="Rectangle_7" data-name="Rectangle 7" width="7.374" height="14.514" transform="translate(105.366 73) rotate(90)" fill="#51197c"/>
        <g id="Group_207" data-name="Group 207">
          <rect id="Rectangle_8" data-name="Rectangle 8" width="5.708" height="10.886" transform="translate(150.314 98.658) rotate(42.37)" fill="#51197c"/>
          <rect id="Rectangle_9" data-name="Rectangle 9" width="7.374" height="14.514" transform="matrix(-0.674, 0.739, -0.739, -0.674, 160.191, 102.833)" fill="#51197c"/>
        </g>
        <path id="Path_154" data-name="Path 154" d="M97.609,53.75A18.947,18.947,0,1,0,116.557,72.7,18.947,18.947,0,0,0,97.609,53.75Zm0,33.3A14.356,14.356,0,1,1,111.964,72.7,14.355,14.355,0,0,1,97.609,87.053Z" fill="#51197c"/>
      </g>
    </g>
  </g>
</svg>
