<svg xmlns="http://www.w3.org/2000/svg" viewBox="0 0 759.92 759.92"><defs><style>.a{fill:#ffce67;}.b{fill:#e0915f;}.c{fill:#2c2e36;}.d{fill:#fbe1ba;}.e{fill:#231f20;}.f{fill:#525760;}.g{fill:#424242;}.h{fill:#dec5a5;}.i{fill:#fffce8;}.j{fill:#ededee;}.k{fill:#ccae8b;}</style></defs><title>Asset 4</title><path class="a" d="M759.92,380c0,209.85-170.11,380-380,380S0,589.81,0,380,170.11,0,380,0,759.92,170.12,759.92,380Z"/><path class="b" d="M635.76,264.07h-393l-.49-.81L228.72,247.6l24.74-4.35,64.47-11.34,60.74-10.69,64.47-11.35,60.75-10.68,64.47-11.33,60.3-10.61-.07-.49-9.52-54h0l-1-5.52h0l-.57-3.24L561,123.94l-60.75,10.69L435.81,146l-60.74,10.69L310.61,168l-60.75,10.68L185.39,190l-14.12,2.49a26.89,26.89,0,0,0-7-.49l-15.18,1a23.65,23.65,0,0,0-13.71,5.77l-10.74,1.89-.48.08,2.21,12.56a28.91,28.91,0,0,0-.94,7.24v84.9a27.58,27.58,0,0,0,9.38,21v1.82h2.43a22.8,22.8,0,0,0,9.94,3.69V633.63a15.56,15.56,0,0,0,15.57,15.57H605.14a15.57,15.57,0,0,0,15.56-15.57V331.35a15.24,15.24,0,0,0-.31-3.05h15.37Z"/><path class="c" d="M125.31,304.69a15.56,15.56,0,0,1,15.57-15.58H583.27a15.57,15.57,0,0,1,15.56,15.58V607a15.57,15.57,0,0,1-15.56,15.58H140.88A15.56,15.56,0,0,1,125.31,607Z"/><rect class="d" x="180.14" y="557.66" width="353.63" height="4.95"/><rect class="d" x="438.03" y="562.61" width="4.96" height="39.57"/><rect class="d" x="270.93" y="562.61" width="4.95" height="39.57"/><path class="e" d="M358.15,345.6a90.13,90.13,0,1,0,90.12,90.13A90.14,90.14,0,0,0,358.15,345.6Zm0,168.11a78,78,0,1,1,78-78A78,78,0,0,1,358.15,513.71Z"/><path class="d" d="M269.66,435.73a88.49,88.49,0,1,0,88.49-88.5A88.59,88.59,0,0,0,269.66,435.73Zm8.89,0a79.6,79.6,0,1,1,79.6,79.6A79.69,79.69,0,0,1,278.55,435.73Z"/><path class="f" d="M583.27,301H140.88a3.73,3.73,0,0,0-3.73,3.73V607a3.72,3.72,0,0,0,2.3,3.44c21.35-69.87,65.78-131.13,125.43-176.86a93.14,93.14,0,0,1,149.8-72,440.26,440.26,0,0,1,108.1-13.43A446.45,446.45,0,0,1,587,352.79v-48.1A3.74,3.74,0,0,0,583.27,301Z"/><path class="g" d="M321.19,391.12c0-3.89,1.55-7,4.24-8.57s6.19-1.35,9.57.6l7,4a420.84,420.84,0,0,1,48.42-18.75,74.46,74.46,0,0,0-105,50.38,407,407,0,0,1,35.76-21.4Z"/><path class="e" d="M410.61,440.87c4.91-2.83,4.91-7.47,0-10.29L380.9,413.42C376,410.59,368,406,363.08,403.13L333.36,386c-4.89-2.84-8.91-.52-8.91,5.15v89.21c0,5.66,4,8,8.91,5.13l29.72-17.14C368,465.49,376,460.86,380.9,458Z"/><path class="d" d="M327.88,386.78c-1.15.66-1.8,2.25-1.8,4.35v89.21c0,2.09.65,3.67,1.8,4.33s2.86.44,4.67-.62l29.71-17.14,47.54-27.45c1.82-1,2.86-2.41,2.86-3.74s-1-2.67-2.86-3.73l-77.25-44.6C330.74,386.33,329,386.12,327.88,386.78Z"/><path class="h" d="M270,428.24c3.27-2.39,6.56-4.75,9.91-7.05A79.5,79.5,0,0,1,396.5,366c3.83-1.14,7.68-2.25,11.58-3.28a88.37,88.37,0,0,0-138,65.51Z"/><path class="h" d="M327.88,386.78c-1.15.66-1.8,2.25-1.8,4.35v2.78q4.77-2.4,9.62-4.71l-3.15-1.81C330.74,386.33,329,386.12,327.88,386.78Z"/><polygon class="d" points="539.16 97.28 606.72 150.1 606.79 150.59 546.5 161.19 478.42 107.97 539.16 97.28"/><polygon class="d" points="288.74 141.33 356.8 194.56 296.06 205.25 228 152.01 288.74 141.33"/><polygon class="d" points="163.52 163.36 231.59 216.59 170.85 227.27 102.77 174.04 163.52 163.36"/><polygon class="d" points="413.94 119.3 482.02 172.53 421.27 183.21 353.21 129.99 413.94 119.3"/><polygon class="c" points="595.66 87.34 606.72 150.1 539.16 97.28 595.66 87.34"/><polygon class="c" points="478.42 107.97 546.5 161.19 482.02 172.53 413.94 119.3 478.42 107.97"/><polygon class="c" points="353.21 129.99 421.27 183.21 356.8 194.56 288.74 141.33 353.21 129.99"/><polygon class="c" points="228 152.01 296.06 205.25 231.59 216.59 163.52 163.36 228 152.01"/><polygon class="c" points="102.29 174.13 102.77 174.04 170.85 227.27 113.43 237.37 102.29 174.13"/><polygon class="i" points="542.75 99.98 548.69 104.63 487.95 115.32 482 110.67 542.75 99.98"/><polygon class="i" points="417.52 122.01 423.49 126.66 362.74 137.34 356.79 132.69 417.52 122.01"/><polygon class="i" points="292.32 144.03 298.27 148.68 237.52 159.36 231.59 154.72 292.32 144.03"/><polygon class="j" points="167.11 166.06 173.04 170.71 112.3 181.39 106.36 176.74 167.11 166.06"/><polygon class="f" points="596.24 90.58 597.22 96.09 548.69 104.63 542.75 99.98 596.24 90.58"/><polygon class="f" points="482 110.67 487.95 115.32 423.49 126.66 417.52 122.01 482 110.67"/><polygon class="f" points="356.79 132.69 362.74 137.34 298.27 148.68 292.32 144.03 356.79 132.69"/><polygon class="f" points="231.59 154.72 237.52 159.36 173.04 170.71 167.11 166.06 231.59 154.72"/><polygon class="f" points="112.3 181.39 103.85 182.88 102.87 177.36 106.36 176.74 112.3 181.39"/><polygon class="d" points="170.31 237.41 112.95 301.14 112.95 301.64 174.18 301.64 231.98 237.41 170.31 237.41"/><polygon class="d" points="424.6 237.41 366.76 301.64 428.44 301.64 486.28 237.41 424.6 237.41"/><polygon class="d" points="551.72 237.41 493.91 301.64 555.58 301.64 613.4 237.41 551.72 237.41"/><polygon class="d" points="297.46 237.41 239.63 301.64 301.31 301.64 359.13 237.41 297.46 237.41"/><polygon class="c" points="231.98 237.41 174.18 301.64 239.63 301.64 297.46 237.41 231.98 237.41"/><polygon class="c" points="359.13 237.41 301.31 301.64 366.76 301.64 424.6 237.41 359.13 237.41"/><polygon class="c" points="486.28 237.41 428.44 301.64 493.91 301.64 551.72 237.41 486.28 237.41"/><polygon class="c" points="613.89 237.41 613.4 237.41 555.58 301.64 613.89 301.64 613.89 237.41"/><polygon class="j" points="167.26 240.7 162.21 246.31 223.87 246.31 228.93 240.7 167.26 240.7"/><polygon class="i" points="294.4 240.7 289.35 246.31 351.02 246.31 356.07 240.7 294.4 240.7"/><polygon class="i" points="421.53 240.7 416.49 246.31 478.16 246.31 483.21 240.7 421.53 240.7"/><polygon class="i" points="548.67 240.7 543.61 246.31 605.29 246.31 610.34 240.7 548.67 240.7"/><polygon class="f" points="228.93 240.7 223.87 246.31 289.35 246.31 294.4 240.7 228.93 240.7"/><polygon class="f" points="356.07 240.7 351.02 246.31 416.49 246.31 421.53 240.7 356.07 240.7"/><polygon class="f" points="483.21 240.7 478.16 246.31 543.61 246.31 548.67 240.7 483.21 240.7"/><polygon class="f" points="605.29 246.31 613.89 246.31 613.89 240.7 610.34 240.7 605.29 246.31"/><path class="f" d="M142.15,165.36l-15.18,1c-13,.89-23.67,13.25-23.67,27.54v84.9c0,14.7,10.93,26.66,24.4,26.66h77.68c13.45,0,24.41-12,24.41-26.66v-8c0-10.33-3.89-24.66-9-33.33l-.57-.94L171.4,180.4l1.25,1.74C166.51,171.8,153.4,164.58,142.15,165.36Z"/><path class="c" d="M127.66,178.48c-7.29.5-13.28,7.46-13.28,15.45v84.9c0,8,6,14.55,13.32,14.55h77.68c7.32,0,13.31-6.54,13.31-14.55v-8c0-8-3.26-20-7.24-26.74l-48.09-55.39c-4-6.72-13.21-11.79-20.52-11.3Z"/><path class="k" d="M147.9,200.39c0,5.32-4,9.65-8.85,9.65s-8.83-4.33-8.83-9.65,3.94-9.67,8.83-9.67S147.9,195.05,147.9,200.39Z"/><path class="k" d="M147.9,273.05c0,5.34-4,9.66-8.85,9.66s-8.83-4.32-8.83-9.66,3.94-9.66,8.83-9.66S147.9,267.71,147.9,273.05Z"/><path class="k" d="M206.57,273.05c0,5.34-4,9.66-8.83,9.66s-8.85-4.32-8.85-9.66,4-9.66,8.85-9.66S206.57,267.71,206.57,273.05Z"/><rect class="d" x="180.14" y="315.57" width="347.58" height="3.14"/><path class="d" d="M142.3,198.78a4.57,4.57,0,0,1-4.26,4.84c-2.35,0-4.25-2.17-4.25-4.84s1.9-4.85,4.25-4.85A4.58,4.58,0,0,1,142.3,198.78Z"/><path class="d" d="M141.42,271.37a3.55,3.55,0,1,1-3.52-4A3.81,3.81,0,0,1,141.42,271.37Z"/><path class="d" d="M200.52,271.23a4,4,0,1,1-4-4A4,4,0,0,1,200.52,271.23Z"/></svg>