<svg xmlns="http://www.w3.org/2000/svg" width="119.574" height="119.574" viewBox="0 0 119.574 119.574">
  <g id="Group_2" data-name="Group 2" transform="translate(306 -301.426)">
    <path id="Path_6" data-name="Path 6" d="M59.787,0A59.787,59.787,0,1,1,0,59.787,59.787,59.787,0,0,1,59.787,0Z" transform="translate(-306 301.426)" fill="#fff"/>
    <path id="Path_5" data-name="Path 5" d="M55.2,0A55.2,55.2,0,1,1,0,55.2,55.2,55.2,0,0,1,55.2,0Z" transform="translate(-301 305.593)" fill="#c600ff"/>
    <path id="Icon_material-video-library" data-name="Icon material-video-library" d="M8.822,14.643H3V55.4a5.839,5.839,0,0,0,5.822,5.822H49.574V55.4H8.822ZM55.4,3H20.465a5.839,5.839,0,0,0-5.822,5.822v34.93a5.839,5.839,0,0,0,5.822,5.822H55.4a5.839,5.839,0,0,0,5.822-5.822V8.822A5.839,5.839,0,0,0,55.4,3ZM32.109,39.386v-26.2l17.465,13.1Z" transform="translate(-278.56 328.793)" fill="#fff"/>
  </g>
</svg>
