<svg xmlns="http://www.w3.org/2000/svg" viewBox="0 0 2124.11 1469.73"><title>Asset 3</title><path d="M837,288.75c61.22,91.69,51.6,130.87,62.35,152.5,17.62,35.46,34.45,37.66,46.27,71.32C970.4,583,913.5,649.74,876.27,658.63c5.8-22.67,1.34-50.38-2.65-53.33-2.33,23.85-6.26,54.7-13.5,60.23-44.58,34.06-98.1,53.34-186.69,63.14-70.36,7.79-171.09,4.74-245.42-30.37C414.75,692,402.54,665.16,396,632c-11.84,36.19,7.61,55.51,2.49,52.22-37.34-23.94-73.92-87.23-38.95-144.88,41.08-67.71-7.81-80,47.74-202.33C534.71,311.46,787.55,284.18,837,288.75Z" fill="#ad5c49"/><path d="M399.12,1018.83c20.7,13.53,38,23.46,59.84,31.92,41.32,13.28,295.66,12.22,299.22-7.85,21.57-289.61,37.3-337.4-14.22-363.06-28.78-4-173.65-9.06-263-11.38-39.56-1-63.4-.45-69.25,82.92-.15,2.16,14.26,3.11,16.27,3.57C424.32,820.59,404.7,973,399.12,1018.83Z" fill="#166fb2"/><path d="M432.77,726.31c1-7.73,6.7-43.53,30.78-42.63,26,1,24.65,36.59,24.4,48.88-1.24,61.23-15.57,194.16-30.93,314a312.24,312.24,0,0,1-56.12-32.19C413.52,903.77,425.26,782.79,432.77,726.31Z" fill="#3f1920"/><path d="M433,722.61c12.2,1.58,50.76,3.57,55,5.12-1.07,58.91-15.22,207.62-30.25,322.87-18.92-8.08-41.22-17.6-59.65-30.37C410.44,913.87,422.75,779.72,433,722.61Z" fill="#2384c1"/><path d="M472.44,925.29c-4.95,48.87-8.65,79.26-14.66,125.31-18.92-8.08-41.22-17.6-59.65-30.37,4-34.38,8.26-75.61,12.17-112.26C423.33,913.74,457.12,921.23,472.44,925.29Z" fill="#166fb2"/><rect x="439.3" y="836.36" width="17.1" height="13.83" transform="translate(797.41 1731.81) rotate(-173.5)" fill="#d8600e"/><path d="M426.89,862.38,464,866.61l.41-3.55a9,9,0,0,0-7.92-9.95l-19.27-2.19a9,9,0,0,0-9.94,7.91Z" fill="#d8600e"/><path d="M420.49,886.76a10.68,10.68,0,0,0-4.51-9.87l1.27-11.13a8.74,8.74,0,0,1,9.66-7.69l37.83,4.31a8.72,8.72,0,0,1,7.68,9.66l-1.26,11.13a10.53,10.53,0,0,0-2.11,18.48l-7.49,65.84a8.72,8.72,0,0,1-9.66,7.68l-37.83-4.3a8.72,8.72,0,0,1-7.68-9.66l7.49-65.84A10.73,10.73,0,0,0,420.49,886.76Z" fill="#fcb924"/><path d="M437,836.6l22.75,2.59a9.48,9.48,0,0,0-8.33-10.48l-3.95-.44A9.46,9.46,0,0,0,437,836.6Z" fill="#fcb924"/><path d="M425.55,841h43.19a0,0,0,0,1,0,0v14.47a.34.34,0,0,1-.34.34H425.89a.34.34,0,0,1-.34-.34V841A0,0,0,0,1,425.55,841Z" transform="translate(795.45 1741.97) rotate(-173.51)" fill="#fcb924"/><path d="M472.27,926.67c-4.41,42-9.39,84.85-14.49,123.93-4.18-.22-7.91,1.4-12,.2-17.92-5.31-31.65-16.24-47.94-27.49-11.2-7.74,3.11-88,8-112.06.68-3.4,3.64-4.89,4.71-4.75C406.62,927.8,450.75,933.33,472.27,926.67Z" fill="#2384c1"/><path d="M467.54,929.59a45.52,45.52,0,0,0,4.58-1.05l.31-2.87c-16.55,4.91-46.62,2.17-57.37-7.68-3.34-3.1-5.25-7.46-4.51-11.49a3.09,3.09,0,0,0-2.67,1c.51,6.32,1.2,8.82,5.29,12.58C423.76,929.84,449.8,932.86,467.54,929.59Z" fill="#7ec8ed"/><path d="M909.11,997.34C878.42,955,837.49,865.68,816.72,828.87c-24.48,10-72.79,44.62-44.66,85.62,26.44,38.56,53.27,71.19,95.91,117.82C874.15,1039.07,914.35,1004.57,909.11,997.34Z" fill="#ffc19f"/><path d="M885.62,1056.19c0,44.43-59.29,80.45-132.43,80.45s-132.42-36-132.42-80.45,59.29-80.45,132.42-80.45S885.62,1011.76,885.62,1056.19Z" fill="#224966"/><path d="M1462.32,975.83c0,44.43-81.93,38.39-155.07,38.39s-145.69-39.92-145.69-84.35,80.17-104.94,148.33-78.43C1405.75,888.73,1462.32,931.4,1462.32,975.83Z" fill="#1b6168"/><path d="M3.6,1314.82C-8.65,1224,11.38,1145.4,48.13,1139.51a28.45,28.45,0,0,1,7.54-.26L318,1097l44.39,329.24-270,43.54-.64-.61C55.28,1473.54,15.74,1404.83,3.6,1314.82Z" fill="#ff8b78"/><path d="M294.22,1096.37l47.26,342.49-112,16.18-47.26-342.49Z" fill="#d8d7d6"/><path d="M2073.42,1020.73l-247.58,166.1-463.34,76.34L1292,938.1l489.41-80.51,275.93,80C2062.64,964.61,2066.71,993.13,2073.42,1020.73Z" fill="#f9e098"/><path d="M2025.75,1052.72l-17.44-129.38s110.61,15.09,115.62,48.24C2129,1005.23,2025.75,1052.72,2025.75,1052.72Z"/><polygon points="293.06 1102.41 1781.44 857.59 1701.38 954.5 1803.63 1022.21 1723.59 1119.11 1825.84 1186.83 337.46 1431.64 293.06 1102.41" fill="#f4b400"/><polygon points="293.06 1102.41 1781.44 857.59 1701.38 954.5 304.15 1184.73 293.06 1102.41" fill="#ffce00"/><polygon points="1723.59 1119.11 1825.84 1186.83 337.46 1431.64 326.38 1349.33 1723.59 1119.11" fill="#f29500"/><path d="M853.93,871c-21.65,9.67-56.26,26.55-90.41,29.9,3.1-32.05,15.33-175.89,15.61-180C796.75,729.78,829.63,808.84,853.93,871Z" fill="#f72658"/><path d="M386.88,580.41c3.1-44.11,2.8-64.27,3.72-91.45.23-6.69-13.73-5.25-22.05,8-6.08,9.68-4.16,27.31-7.88,34.59-4.47,8.74-10.8,6.77-18.18.88-20.19-28.48-33.61-49.22-42.35-59.38-6.78-7.88-19.91-.33-16.92,7.07,5,12.39,18.58,40,29.11,62.91-21.36-15.86-52.65-37.29-64.08-44.21-10.5-6.35-21.86,6.59-12,15.36,12.05,10.68,35.22,34.73,55.64,52.45-20.68-5-53.42-16.63-66.23-19.35-13.35-2.82-13.79,9.92-4.76,15.34,33.8,20.24,55.56,29.53,62,33-6,1.21-40.4-4.66-51-3.49-6.76.75-7.83,11.66,3.29,15.64,15.24,5.45,70.25,19.33,90.81,23.5C356.91,634.6,384.81,609.81,386.88,580.41Z" fill="#ffc19f"/><path d="M327.84,628.24c4.79-7.06,36.14-41.1,39.45-46.86,98.61,64.69,120.53,79.09,221.66,139-13.6,19.22-37.09,49-50.87,68C447.58,724.33,389.41,675.91,327.84,628.24Z" fill="#ffc19f"/><path d="M423.42,755.39c22.53,20.46,82,51.66,123.74,84.08C571,805.09,609.43,717.09,610.28,715c-45.17-18.68-77.88-32.77-123.14-62.92C471.48,671.07,439.64,728.09,423.42,755.39Z" fill="#f72658"/><path d="M473.83,962.1c100.39,35.25,181,47.27,233.25,42.88,54.13-4.55,53.16-27,90.47-24.63,1.55-10.33-23.36-8.43-17.95-13.58,11.74-11.18-.89-8.47-1.12-17.41-1.93-74.83,4.21-182.93,3-227.16-5.16-7.44-169-33.62-257.54-5.93C506.36,766.77,486.61,884.93,473.83,962.1Z" fill="#f72658"/><path d="M734.91,725.06c.34-3.79-.78-9.88-1.52-13.52-35-5.93-86.6-10-137-6.92a13.29,13.29,0,0,0-2.89,7.61c-2.66,29.29,26.29,58.3,65.35,61.84S732.25,754.35,734.91,725.06Z" fill="#ffc19f"/><path d="M717.73,638.26v86c.13,18.57-23.07,33.79-52.18,34S612.42,743.57,612.29,725V638.26Z" fill="#ffc19f"/><path d="M809.06,645.88a61.8,61.8,0,0,0-.71-18.13c-62.86-9.68-157.72-19.18-225.91-19.58-.75,2.61-2.09,5-2.45,7.75-6.2,47.44,40,92.61,103.3,100.88S802.85,693.32,809.06,645.88Z" fill="#7a0000" opacity="0.19"/><path d="M701.1,1275.69c.62,2.2,83.83-17.16,83.43-19.9-3.44-23.84-14.4-71.14-16.65-84.92L679,1191.48C686.08,1214.4,696.64,1259.79,701.1,1275.69Z" fill="#ffc19f"/><path d="M687.11,1279.35c.12,1.4,98.68,3.54,99,1.86,2.37-14.63,3.1-50,4.18-58.53l-106,3.38C685.6,1242,686.25,1269.24,687.11,1279.35Z" fill="#fcefae"/><path d="M797,1265.63c-1-5.09-3.25-11.63-5-17.58-1.26-4.41-43.18-7.17-44.14,3.11a62.11,62.11,0,0,0-.29,7.08c-7.17-.51-14.93-1.24-23.1-2.21a395,395,0,0,1-44.72-7.6c-2.07,16.21-3,44.48-5.11,62.5,0,0,183.87,50.34,215.53,25.67C899.09,1329.65,855,1291.88,797,1265.63Z" fill="#ed3a3a"/><path d="M675.74,1299.61c-.34,4-.69,7.89-1.1,11.32,0,0,183.87,50.34,215.53,25.67,1.25-1,1.44-2.58.7-4.66C838.43,1338.88,721.52,1311.25,675.74,1299.61Z" fill="#992020"/><path d="M809.6,1272a2.62,2.62,0,0,0,1.55-5c-10.65-3.25-23.7.73-31.74,9.75a2.62,2.62,0,1,0,3.91,3.49C790,1272.65,800.86,1269.22,809.6,1272Zm13.82,7.79a2.54,2.54,0,0,0,3.08-2,2.62,2.62,0,0,0-2.06-3.09c-11.32-2.28-23,1.08-32,9.14a2.62,2.62,0,0,0,3.5,3.91C806.6,1278.14,817.72,1278.62,823.42,1279.75Zm15.59,3.39c-10.15-2.64-23.79,1-33.22,8.82a2.62,2.62,0,0,0,3.34,4c8.21-6.8,20-10.12,28.57-7.79a2.58,2.58,0,0,0,3.2-1.88A2.62,2.62,0,0,0,839,1283.14Z" fill="#d3dae5"/><path d="M577.24,1013.06c26.38,2.56,117.62-25.58,153.55,1.09,25.07,18.6,39.71,81.69,59.46,180.22-2.06,1.17-81.1,16.31-106,21.47-17.15-78.77-24.74-95.74-33.46-96.15-28.45-1.32-42.79-3.71-83.31-4.32C545.59,1115,559.85,1062.53,577.24,1013.06Z" fill="#a31708" opacity="0.23"/><path d="M487.52,962.9c23.9,5.92,55.89,16.1,70.12,18.34,91,14.35,130.64,17,166.71,43.49,25.16,18.45,37.56,76.22,59.69,170.84-3,.35-86,16.84-107.65,20.27-19-75.68-19.18-91.9-27.76-92.53-28-2-44.29.5-84.16-1.19-21.56-.92-49.71-.84-70.43-20.1C462.62,1072.81,471.48,1013.32,487.52,962.9Z" fill="#224966"/><path d="M898.13,499.92c-.8,44.25-31.07,79.3-58.83,81.78S799.19,551,795.49,509.5s15.79-77.32,43.56-79.68C877,426.59,898.89,458.33,898.13,499.92Z" fill="#f4b18c"/><path d="M874.55,378.24c20.16,147.33-65.83,225.89-202.66,241.18S410.46,589.25,393.94,441.47,484.86,228,616.28,215.37C776.3,200.05,856.45,246,874.55,378.24Z" fill="#ad5c49"/><path d="M865.63,576.26C843.71,654.32,785,698,722,701.58c-136.71,7.68-226.43-65.12-272-222.3-48.5-167.42,68.65-187.64,189.34-201.13,80.59-9,148-14.92,187.31,35C850.92,344,876.36,538,865.63,576.26Z" fill="#ffc19f"/><path d="M759.16,470.69c-9.83,23.11-4.94,46.34,7.54,53.67,18.81,11,59.36,9.22,71.55-12.31,11.81-20.84,0-54.13-25.66-65.54C790.14,436.51,768.68,448.33,759.16,470.69Z" fill="#f9feff"/><path d="M832.85,454.21c-23-30.42-65.58-13-74,17.26,9.82-23.09,32.59-32.92,53.35-23.7,12.83,5.71,23.06,17.66,27.36,32,3.44,11.4,2.92,24.8-2,33.46C843.76,507.12,849.76,476.57,832.85,454.21Z" fill="#843923"/><path d="M767.59,485c-3.18,15.5,5.4,31.42,19.16,35.56s27.5-5.06,30.68-20.55-5.39-31.42-19.16-35.56S770.78,469.53,767.59,485Z" fill="#461d14"/><path d="M769.3,482.19c-.89,4.3,1.49,8.72,5.31,9.87s7.63-1.41,8.51-5.7-1.49-8.72-5.31-9.87S770.18,477.89,769.3,482.19Z" fill="#fefffe"/><path d="M656.91,484.42c17.36,19.45,18.52,43.19,6.82,53.77-17.62,15.94-62.85,25.65-82.36,8.39-18.9-16.72-15.25-52.09,9.81-70.32C613.12,460.3,640.11,465.6,656.91,484.42Z" fill="#f9feff"/><path d="M571,489.39c16.79-35.76,68.64-31,86.48-4.31-17.35-19.44-45.23-22.46-65.52-7.72a51.3,51.3,0,0,0-21.16,38.49c-.57,11.93,3.78,24.68,11.63,31.63C573.91,543.39,558.67,515.69,571,489.39Z" fill="#843923"/><path d="M590.07,508a29.1,29.1,0,1,0,35.3-21.16A29.11,29.11,0,0,0,590.07,508Z" fill="#461d14"/><path d="M592.06,505.16a8.08,8.08,0,1,0,9.79-5.88A8.08,8.08,0,0,0,592.06,505.16Z" fill="#fefffe"/><path d="M825.21,393.45a8.15,8.15,0,0,1-5.69-1.2c-13.68-8.85-37-8.17-54.4,1.6a8.15,8.15,0,1,1-8-14.2c22.57-12.73,52.54-13.15,71.24-1.1a8.15,8.15,0,0,1-3.16,14.9Z" fill="#5e1e0f"/><path d="M561,432.83a8.95,8.95,0,0,1-8.23-14.56c15.59-18.8,47.11-28.24,75-22.38a9,9,0,1,1-3.67,17.52c-21.43-4.52-46.15,2.51-57.56,16.29A8.9,8.9,0,0,1,561,432.83Z" fill="#5e1e0f"/><path d="M790.57,576.66c-4.5-15.32-28.09-9-67.28-5.46-2,.19-10,.95-12.07,1.16-39.14,4-63.51,2.3-65,18.2-2.87,30.61,38.11,59.79,77.9,56.08l.69-.07C764.57,642.62,799.23,606.15,790.57,576.66Z" fill="#701608"/><path d="M725.06,647.18l-.69.07c-12.9,1.19-26.63-1.18-39.74-6.82l-.8-.33.59-.64c9.44-10.26,22.87-16.71,37.82-18.14s29.33,2.33,40.58,10.59l.7.51-.72.48C751,640.94,737.94,645.89,725.06,647.18Z" fill="#dd6b5b"/><path d="M719.39,591.81c-27.37,2.63-51-3.66-54.9-14.65l-.24-.67L770.6,566.25l-.1.71C768.71,578.49,746.74,589.17,719.39,591.81Z" fill="#fff"/><path d="M738.51,550.25a2,2,0,0,1-2.2-1.48c-2-7-8.09-10.91-15.59-10.07s-12.75,6.15-13,13.22a2.06,2.06,0,0,1-4.11-.13c.28-9,7.12-16.11,16.62-17.17s17.49,4.18,20,13a2.06,2.06,0,0,1-1.42,2.54Z" fill="#c4735b"/><path d="M518.85,495.89c6.36,41.76-8.87,77.75-39.67,81.1s-65.88-87.15-73.79-159.74c-9.06-83.13,43.76-147.65,128.33-101.82C464.63,367.32,509.24,432.82,518.85,495.89Z" fill="#ad5c49"/><path d="M421.77,583c19.53,45.2,69.89,67.69,103.6,57.77s8-149.22-56-151.8C416.13,486.86,403.41,540.56,421.77,583Z" fill="#ffc19f"/><path d="M463.67,581c5.74,19.48,30.62,32.87,46.61,24.8,6.24-3.14-15.41-70.83-25.89-69.24C466.69,539.23,457.93,561.49,463.67,581Z" fill="#e0956c"/><path d="M553.76,588.14c.81,9.51,14.67,16.1,31,14.72s28.86-10.21,28.06-19.72-14.68-16.1-31-14.72S553,578.63,553.76,588.14Z" fill="#ff9797"/><path d="M806.07,555.19c1.55,8.34,12.94,13.22,25.45,10.9s21.39-11,19.84-19.31-12.94-13.22-25.44-10.9S804.52,546.85,806.07,555.19Z" fill="#ff9797"/><path d="M484,382.38c-18.25.43-36.94.45-55.17,3-1.87-19.27-1.44-36.42,3.35-47.6,63.08-75.43,277.29-107.76,351.22-83C838.53,273.22,869.31,370,869.31,370c-24.11-10.48-71.63-16.51-120.71-14-9.44-10.68-20.06-45.57-20.06-45.57s-2.57,32.16,5.94,46.51c-23.37,3.47-86.8,15.37-115.5,20.52-9.74-11.4-19.4-41.61-19.4-41.61s-1.17,30.44,4.65,44.77c-6.53,1.74-24.77,3.68-32.85,4.74-32.78-11.72-37-48.43-64.19-47.51C487.62,342.14,483.85,359.43,484,382.38Z" fill="#ad5c49"/><path d="M447.36,370.11C458.48,294,513,228.5,615.71,209.76c79.9-14.57,169.12,9.09,213,56.6C771,231,688.88,232.21,627.5,241.07,565.08,250.07,481.1,310.94,447.36,370.11Z" fill="#ed4579"/><path d="M471.38,319.74c12.92,45.63-67.84,113.42-144.95,58.34C379.24,298.52,423.2,300.88,471.38,319.74Z" fill="#ed4579"/><path d="M462.74,322c-3.15-10.3-43.95-3.28-64.21,24.56C432.3,366.2,472.22,352.89,462.74,322Z" fill="#6b031c" opacity="0.28"/><path d="M457.6,309.83c58.21,16.78,119.89-65,14.93-132.53C450.93,253.24,431.79,277.22,457.6,309.83Z" fill="#ed4579"/><path d="M468.56,304c-9.08-14.6,18.29-34.28,21.09-62.32C501.68,256.3,502.08,312.36,468.56,304Z" fill="#6b031c" opacity="0.28"/><path d="M487.88,326.13c-6.17,9.87-19.72,12.88-30.29,6.72s-14.12-19.15-7.95-29,19.73-12.87,30.29-6.71S494.05,316.27,487.88,326.13Z" fill="#ed4579"/><path d="M462.43,1036.86c4.57,8.24,12.37,27,49.89,19.92,27.14-5.11,69-68.15,166.95-53.87-33-70.95-176.14-51.34-203.75-51.34C471.91,971.9,467,1010.16,462.43,1036.86Z" fill="#f72658"/><path d="M501.43,920.7c44.05-4,62.52-52.2,75.73-122.68l-12.95-2.46C548,882.05,524.58,914.1,482.5,906.29L479,919C484.78,919.79,496.38,921.15,501.43,920.7Z" fill="#26407a"/><path d="M550.59,804.6l30.71,5.88,3.51-2.05S603,705.66,593.25,698.49c-7.4-5.46-30.52-8.43-33.06-6.34C568.39,703,550.59,804.6,550.59,804.6Z" fill="#26407a"/><path d="M553.74,802.47l31.07,6s17.75-102,10-110.58c-2.4-2.63-31.6-10-31.07-6C571.33,702.45,553.74,802.47,553.74,802.47Z" fill="#2384c1"/><path d="M792.21,936.33c.53,6,1.08,15.69-2.28,14.45-43-20.06-41.71-79.28-42.06-135.24l13.18-.17c.28,43.5,1.87,77.11,8.66,93.9C775.13,922.67,787.39,934.88,792.21,936.33Z" fill="#26407a"/><path d="M737.71,821.48l31.27.7,3.11-2.61s1-100.92-9.64-106.74c-6.4-3.52-23.38-5.44-30.54-4.66a19.93,19.93,0,0,0-1.72,2.76C738.15,718.62,737.71,821.48,737.71,821.48Z" fill="#26407a"/><path d="M740.46,818.86l31.63.71s.41-99-7.91-107c-2.93-2.83-33.47-8.3-32.27-4.39C741.18,717.31,740.46,818.86,740.46,818.86Z" fill="#2384c1"/><path d="M965.63,887.26c21.17,12.78,38.79,22.1,60.93,29.78,41.76,11.82,295.91,1.77,298.76-18.41,11.33-290.18,25.37-338.5-27-362.33-28.89-3-173.85-1.81-263.19-2.09-55.35-.17-63.62,34.09-66.53,117.62-.07,2.16,14.36,2.61,16.38,3C983.56,720.56,969.6,841.29,965.63,887.26Z" fill="#f93b00"/><path d="M1031.32,592s282,5.06,303.06,5.71c4.69,48.37-2.58,135.07-9.06,300.88-2.85,20.18-257,30.23-298.76,18.41-4-1.39-7.7-2.89-11.44-4.39Z" fill="#700606" opacity="0.37"/><path d="M988.94,593.72c.75-7.75,5.16-43.73,29.25-43.69,26,.05,25.93,35.71,26.11,48,.92,61.24-8.7,194.59-19.83,314.88a312.5,312.5,0,0,1-57.22-30.19C976,771.75,983.43,650.43,988.94,593.72Z" fill="#5b1707"/><path d="M989.08,590c12.24,1.15,50.86,1.78,55.14,3.17,1,58.91-7.89,208-18.84,323.74-19.19-7.41-41.81-16.14-60.69-28.24C973.25,782,980.8,647.45,989.08,590Z" fill="#ff6c22"/><path d="M1035.61,791.18c-3.22,49-5.85,79.52-10.23,125.75-19.2-7.41-41.81-16.14-60.69-28.24,2.77-34.51,5.59-75.86,8.2-112.63C986.12,781.37,1020.15,787.66,1035.61,791.18Z" fill="#700606" opacity="0.37"/><path d="M1035.49,792.57c-2.93,42.09-6.4,85.13-10.11,124.36-4.19-.07-7.86,1.68-12,.62-18.09-4.67-32.2-15.11-48.87-25.78-11.47-7.34,0-88.11,4-112.27.57-3.42,3.47-5,4.54-4.91C969.91,796,1014.21,800,1035.49,792.57Z" fill="#ff6c22"/><path d="M1030.86,795.65a44.15,44.15,0,0,0,4.55-1.21l.2-2.87c-16.36,5.48-46.51,3.81-57.6-5.66-3.46-3-5.51-7.27-4.92-11.32a3.08,3.08,0,0,0-2.63,1.11c.73,6.3,1.51,8.77,5.73,12.39C987.11,797.45,1013.25,799.55,1030.86,795.65Z" fill="#ff8a57"/><path d="M1605.16,543.11c-10.26,13.28-27.61,15.52-43.41,9.86s-15.3-17.74-10.07-33.68c4.35-13.25,37.53-15,54-12C1617.74,509.48,1617.59,527,1605.16,543.11Z" fill="#e0956c"/><path d="M1580.38,541.1c-8.27,1.13-15.35-.63-15.8-3.94s5.89-6.9,14.17-8,15.36.63,15.81,3.94S1588.67,540,1580.38,541.1Z" fill="#c17d5b"/><path d="M1641.25,453.67c-20,6.8-106.34,49.56-149.47,69-5.32,2.4,9.63,33.11,18.51,35.88,14.93,16.22,42.87,17,88.13,11.57,1.68-.2,25.69-9.32,36.27-15.93-10.29-24.76-38.67-3.78-53.7-15.7-11.11-8.81-3.52-18.54,3.69-24.68C1618.16,485.29,1652.42,479.49,1641.25,453.67Z" fill="#ffc19f"/><path d="M1529.54,568.18c6.09-3.22-22-53.23-28.26-50.39-94.1,42.46-214.89,88.68-240.49,96.47l34.41,66.8C1349,655.55,1449.14,610.68,1529.54,568.18Z" fill="#ffc19f"/><path d="M1382.33,568.24c10.11,23.36,24.85,72.08,33.78,96.93-50.39,21.79-92.38,36.8-96.36,36.1-41.45-7.33-67.16-86.73-70.17-91.37C1276.08,603.13,1332.62,588,1382.33,568.24Z" fill="#00bcb2"/><path d="M1041.49,811.48c85.93,10.08,116.4,117.36,203,83.14,35-13.81,43.48-48.27,82.58-40.25,6.61-13.08-12.39-13.41-6.15-18.78,10.13-8.7,1.56-8,1.93-11.47,8.06-77.16,4-161.41,7-212.76-27.55-13.43-182.75-22.84-238-11C1061,664.77,1053.55,726.66,1041.49,811.48Z" fill="#00bcb2"/><path d="M1152.44,594.62a21.29,21.29,0,0,0-2.1,7.35c-1.45,29.38,28.68,57.17,67.84,59.1s72.55-22.74,74-52.12c.09-1.77-1.51-8.19-1.83-10.22C1255,593.09,1199.56,593.85,1152.44,594.62Z" fill="#0a86a3"/><path d="M1281.45,529.26l-6.17,86.15c-1.32,18.52-25.94,31.86-55,29.78s-51.52-18.78-50.19-37.31l6.16-86.15Z" fill="#ffc19f"/><path d="M1328.53,806.34c-8.62-17.29-11.22-49.16-6.47-90.39l-13.1-1.51c-6.76,58.72.45,98.14,19.57,112.87Z" fill="#bc380a"/><path d="M1339,594.21c-7.31-1.14-49.52-7.93-61-8.17,5.69,36.48,6.43,99.55,6.63,114.21.22,16.42,14.83,29,31.24,28.18s27.27-14.83,28.13-31.19C1345.63,667.62,1344.76,629.53,1339,594.21Z" fill="#bc380a"/><path d="M1330.17,592.73c-5.36-1-33.35-5.67-42.58-5.87,4.86,31.89,6.33,97.63,6.5,107.78.19,11.93,10.2,21.13,21.42,20.55s18.59-10.71,19.15-22.6C1335.64,671.45,1335.1,627.14,1330.17,592.73Z" fill="#ff791f"/><path d="M1317.09,564.19a52.36,52.36,0,0,0,.93-13.86c-42.67-10.07-107.45-21.37-154.53-24.59-.72,2-1.83,3.72-2.29,5.8-8,35.92,20.42,72.34,63.47,81.36S1309.1,600.1,1317.09,564.19Z" fill="#7a0000" opacity="0.19"/><path d="M1129.75,1185.21c-.66,2.3,81,29.58,82.13,26.93,9.92-23.09,26.06-71.09,31.57-84.57l-87.2-29.23C1150,1122.57,1134.5,1168.66,1129.75,1185.21Z" fill="#ffc19f"/><path d="M1123.69,1197.77c-.31,1.43,97.29,33.84,98.08,32.25,6.86-13.85,18.47-48.93,22.15-57.06l-106.68-29.18C1133.66,1160.08,1125.94,1187.43,1123.69,1197.77Z" fill="#fff"/><path d="M1237.42,1217.84c.61-5.37.33-12.59.45-19,.1-4.78-40.84-20.41-45-10.46a65.26,65.26,0,0,0-2.46,7c-7-2.72-14.5-5.83-22.36-9.31a412.13,412.13,0,0,1-42.24-21.31c-7,15.52-16.62,43.44-24.29,60.74,0,0,167.83,106.67,207,91.8C1319.56,1313,1287.21,1261.83,1237.42,1217.84Z" fill="#f44d19"/><path d="M1106.13,1214.48c-1.57,3.9-3.12,7.65-4.57,10.94,0,0,167.83,106.67,207,91.8,1.56-.59,2.23-2.13,2.14-4.43C1256.25,1303.6,1148.2,1240.14,1106.13,1214.48Z" fill="#b22909"/><path d="M1248.07,1228a2.74,2.74,0,1,0,3.09-4.52c-9.63-6.51-23.86-6.55-34.65,0a2.72,2.72,0,0,0-.92,3.75,2.69,2.69,0,0,0,1.23,1.09,2.72,2.72,0,0,0,2.52-.16C1228.36,1222.71,1240.19,1222.62,1248.07,1228Zm11.38,12a2.68,2.68,0,0,0,3.71-1.11,2.74,2.74,0,0,0-1.1-3.71c-10.59-5.75-23.23-6-34.67-.7a2.74,2.74,0,0,0-1.34,3.63,2.71,2.71,0,0,0,1.38,1.35,2.74,2.74,0,0,0,2.26,0C1243.18,1233.27,1254.12,1237.16,1259.45,1240.05Zm14.51,8.16c-9.31-5.75-24-6.3-35.83-1.42a2.74,2.74,0,1,0,2.09,5.06c10.28-4.26,23.06-3.94,30.88,1a2.7,2.7,0,0,0,3.76-.9A2.73,2.73,0,0,0,1274,1248.21Z" fill="#d3dae5"/><path d="M1169.68,885.92c21.55,15.44,92.8,49.63,110.55,90.71,12.37,28.66,1.61,91.74-30.66,186.91-5.62,2.2-72.57-26.58-103.23-39.67,24.61-76.76,26.87-89.29,19.53-94-24-15.4-35.18-24.65-69.95-45.48C1077.11,973.1,1129.84,920,1169.68,885.92Z" fill="#a31708" opacity="0.23"/><path d="M1078.17,820.92c24,16.31,62.73,44.57,74.62,52.71,76.44,52.37,106.31,69.91,124.27,110.87,12.53,28.58-4.07,82-32.32,175-7.56-1.2-83.14-27-102.82-36.35,21.45-75,27.17-86.18,20.22-91.25-17.15-12.54-42.59-25-56.31-33.35-18.42-11.26-47.12-28-57.18-49.78C1030.69,909.8,1050.9,865.6,1078.17,820.92Z" fill="#1b6168"/><path d="M1030.23,882.33c4.57,8.25,12.37,27,49.9,19.92,27.13-5.11,53.44-46,108.58-21.42-33-70.94-117.78-83.78-145.39-83.78C1039.72,817.37,1034.8,855.63,1030.23,882.33Z" fill="#00bcb2"/><g opacity="0.34"><path d="M1237.37,684.71l13.51,27.39a8.25,8.25,0,0,0,6.22,4.52l30.22,4.39a8.26,8.26,0,0,1,4.58,14.08L1270,756.41a8.22,8.22,0,0,0-2.38,7.3l5.17,30.1a8.25,8.25,0,0,1-12,8.7l-27-14.21a8.29,8.29,0,0,0-7.69,0l-27,14.21a8.25,8.25,0,0,1-12-8.7l5.16-30.1a8.22,8.22,0,0,0-2.37-7.3L1168,735.09a8.26,8.26,0,0,1,4.58-14.08l30.22-4.39a8.27,8.27,0,0,0,6.22-4.52l13.51-27.39A8.26,8.26,0,0,1,1237.37,684.71Z" fill="#fff"/></g><path d="M1062.64,825.72c-8.57-1.11-19.94-.81-25.56-2.16l3.1-12.83c16.43,4,50.9,9.23,72.55-8.38,19.27-15.68,28.25-48.41,26.68-97.29l13.18-.41c1.72,53.21-8.89,89.53-31.53,107.94C1103,827.3,1080.6,828.07,1062.64,825.72Z" fill="#bc380a"/><path d="M1159.34,591.54c-7,.55-17,1.73-25.92,2.33-11.54.78-23,1.39-34.41,2.17,8.91,35.83,14.26,91.94,15.76,106.53,1.69,16.33,17.36,27.59,33.62,25.28s25.84-17.2,25.25-33.57C1172.57,664.64,1168.18,626.21,1159.34,591.54Z" fill="#bc380a"/><path d="M1150.65,591.86c-6.51.7-32.12,2.86-41.32,3.48,7.68,31.33,13.25,90.7,14.31,100.8,1.25,11.86,12,20.14,23.16,18.56s17.58-12.32,17.07-24.21C1163,669.34,1158.63,625.7,1150.65,591.86Z" fill="#ff791f"/><path d="M1356.25,973.62c3.1-6.61-4.3-20.77-6.51-27.85-1.64-5.24,12.53,5.93,16.38-1.81,1.57-3.14-12.51-30.17-21.46-36.12-11.2-7.45-19.63-12.05-18.05-13.81s25.71,3.27,25-9.19c-.27-5.07-18.09-15.11-26.6-19.52s-36.28-8.77-49.58-12.2c0,0-44.51,39.33-47.24,40.9,17.93,40.28,40.68,73.93,53.07,88.09,5.9,6.74,32.9,10.55,34.72,8.88,4.93-4.54,1.8-8.67,3-9,1.77-.43,13.45,6.85,16.48,4.77,8.29-5.71,3.53-14.48,4.32-15.46C1340.93,970,1353.68,979.09,1356.25,973.62Z" fill="#a31708" opacity="0.33"/><path d="M1280.32,870.63c-35.65-38.27-87.23-121.88-112.36-155.86-23.07,12.91-66.76,53.21-33.82,90.45,31,35,61.6,64.12,109.64,105.16C1250.75,916.34,1286.41,877.16,1280.32,870.63Z" fill="#ffc19f"/><path d="M1037.86,685.78c-3.45,22.79,8.94,49.68,51.39,120.22,34.66-15.53,105.36-72.67,106.46-75.46-29.94-42.41-87.67-131.94-87.8-134.5-10.76-.21-21.57,2-29.34,3.73C1055.4,617.43,1042.91,652.58,1037.86,685.78Z" fill="#00bcb2"/><path d="M1284.92,977.22c-12.38-14.16-24.86-31.56-45.23-65.27-14.74-24.4-.5-42,13.38-47.92,8-3.41,58.31-5,71.22,1.7,8.51,4.41,25.4,14,25.61,16.28,1,10.82-14,11-28.45,4.22-4.43-1.6-8.77-2.26-16,0-2.14,2.95,26.73,15,37.93,22.42,8.95,6,24.31,31.16,22.74,34.31-3.85,7.74-22-9.37-29.94-15.67-2.77-2.18-12.76-6.28-19.35-8,4.47,6.82,15.18,17.1,18.54,21.44,6.49,8.36,23.12,24.71,19.91,31.26-2.51,5.11-15.46-3-29.25-15.23-3.35-3-16.1-13.66-24.62-20.39-.34.29,14.68,20.6,17.42,22.92,8.13,6.86,20.05,15.19,17.06,25.44-.81,2.8-23-7.71-30.72-15.5-3.47-3.48-11.42-10.86-20-20.66,3.53,6.78,11.55,18.42,13.28,20.85,13.85,8.51,19.09,12.39,17,20.12C1314.84,991.93,1290.82,984,1284.92,977.22Z" fill="#ffc19f"/><path d="M1486.23,391c-.42,45.62-31.31,82-59.9,84.85s-41.64-31.24-45.83-74,15.57-79.86,44.17-82.55C1463.76,315.62,1486.64,348.14,1486.23,391Z" fill="#f4b18c"/><path d="M1469,266.46c18.4,152.21-74,232.83-214.89,249.86s-252.56-39-270.95-191.16,80.69-200,221.62-217.07S1450.59,114.25,1469,266.46Z" fill="#752912"/><path d="M1449.46,466.64c-4.77,66.52-76.66,124.26-137.51,130.8-127.89,13.76-269.23-44.82-290.78-223.2S1090.85,180.07,1216,165c83.57-10.1,153.52-16.87,194.73,34.22C1436.14,230.7,1452.4,425.77,1449.46,466.64Z" fill="#ffc19f"/><path d="M1112.78,484c.58,10.33,16.27,17.85,35.06,16.8s33.53-10.28,33-20.61-16.27-17.84-35-16.79S1112.2,473.69,1112.78,484Z" fill="#ff9797"/><path d="M1387,452.12c1.78,9,15.74,13.82,31.17,10.76S1444.68,450,1442.9,441s-15.75-13.82-31.18-10.76S1385.23,443.13,1387,452.12Z" fill="#ff9797"/><path d="M1376.48,41.23c6.51,20.39-1.66,39.2-17.93,56.32,9.09-27.1,5.69-60.16-26.9-97.55-17.16,17.52-35.41,36.05-53.67,54.47a88.48,88.48,0,0,0-5.58-35c-27.1,45.72-60.68,48.19-167.57,87-73.14,26.53-82.32,77.93-69.65,104.91,49.6-17.65,126.89.28,182.24-6.4,69.38-8.39,120.76-26.9,145.89-49.76C1393.79,127.41,1414.43,77.48,1376.48,41.23Z" fill="#752912"/><path d="M1333.5,360.5c-9.93,23.91-4.67,47.82,8.27,55.26,19.49,11.21,61.28,9,73.65-13.34,12-21.6-.51-55.81-27.05-67.35C1365.13,325,1343.11,337.36,1333.5,360.5Z" fill="#f9feff"/><path d="M1409.32,342.83c-24-31.15-67.73-12.8-76.15,18.48,9.92-23.9,33.31-34.25,54.79-24.93,13.28,5.77,23.94,18,28.51,32.7,3.64,11.72,3.23,25.55-1.74,34.52C1421.06,397.28,1427,365.73,1409.32,342.83Z" fill="#723c27"/><path d="M1340.55,374.39c-3.14,16,5.85,32.34,20.08,36.48s28.3-5.47,31.44-21.47-5.85-32.34-20.08-36.48S1343.69,358.38,1340.55,374.39Z" fill="#752912"/><path d="M1342.28,371.45c-.87,4.44,1.62,9,5.57,10.13s7.85-1.52,8.72-6-1.62-9-5.57-10.12S1343.15,367,1342.28,371.45Z" fill="#fefffe"/><path d="M1228.21,375.6c18.07,19.89,19.48,44.36,7.52,55.37-18,16.59-64.56,27-84.84,9.41-19.64-17.07-16.2-53.56,9.47-72.59C1182.83,351.13,1210.71,356.34,1228.21,375.6Z" fill="#f9feff"/><path d="M1139.69,381.51c17-37,70.49-32.63,89.12-5.24-18.06-19.88-46.84-22.74-67.62-7.35a52.87,52.87,0,0,0-21.46,39.87c-.47,12.31,4.12,25.42,12.28,32.5C1143.16,437.15,1127.21,408.74,1139.69,381.51Z" fill="#723c27"/><path d="M1159.56,399.72a30,30,0,1,0,36.19-22.14A30,30,0,0,0,1159.56,399.72Z" fill="#752912"/><path d="M1161.58,396.74a8.33,8.33,0,1,0,10-6.14A8.34,8.34,0,0,0,1161.58,396.74Z" fill="#fefffe"/><path d="M1399.41,270.53a9.25,9.25,0,0,1-6.56-.53c-16.65-8-42.81-3.84-60.9,9.63a9.23,9.23,0,1,1-11-14.81c23.52-17.55,57.14-22.34,79.88-11.49a9.23,9.23,0,0,1-1.4,17.2Z" fill="#752912"/><path d="M1121.05,310.32a9.23,9.23,0,0,1-7-15.77c17.87-17.75,51.15-24.31,79.21-15.52a9.23,9.23,0,1,1-5.51,17.62c-21.54-6.77-47.61-2-60.68,11A9.23,9.23,0,0,1,1121.05,310.32Z" fill="#752912"/><path d="M1363.5,468.61c-4.94-16.16-29.84-9.17-71.29-5-2.17.22-10.6,1.12-12.77,1.37-41.39,4.71-67.21,3.15-68.61,20-2.69,32.44,41,62.87,83.1,58.5l.73-.08C1336.71,538.74,1373,499.74,1363.5,468.61Z" fill="#701608"/><path d="M1294.72,544l-.73.08c-13.65,1.41-28.21-.94-42.15-6.77L1251,537l.62-.68c9.88-11,24-18,39.83-19.64s31.08,2.14,43.09,10.77l.74.53-.76.51C1322.09,537.14,1308.33,542.53,1294.72,544Z" fill="#dd6b5b"/><path d="M1288.1,485.47c-28.95,3.1-54-3.29-58.3-14.88l-.25-.71,112.47-12-.1.74C1340.16,470.83,1317,482.38,1288.1,485.47Z" fill="#fff"/><path d="M1309.9,438.92a2.1,2.1,0,0,1-2.28-1.51c-2.1-7.15-8.44-11.17-16.17-10.24s-13.09,6.47-13.25,13.75a2.12,2.12,0,1,1-4.23-.09c.2-9.33,7.19-16.68,17-17.86s18.07,4.15,20.73,13.25a2.12,2.12,0,0,1-1.44,2.63Z" fill="#c4735b"/><path d="M1088.21,328.82c7,75-15,125.83-46.68,129.57s-65.89-83.21-74.71-158c-10.1-85.63,31-125.38,62.23-134.3C1059.76,157.33,1080.23,243.62,1088.21,328.82Z" fill="#752912"/><path d="M982,482.57c20.55,46.42,72.68,69.15,107.35,58.61s6.85-153.92-59.12-156C975.25,383.46,962.63,438.94,982,482.57Z" fill="#ffc19f"/><path d="M1021,474.12c6.1,20,31.88,33.61,48.29,25.15,6.4-3.3-16.55-72.89-27.33-71.16C1023.72,431.06,1014.9,454.09,1021,474.12Z" fill="#e0956c"/></svg>