<svg xmlns="http://www.w3.org/2000/svg" viewBox="0 0 2495.08 1785.93"><title>education</title><path d="M2099.38,1124.47c63.6-208.86,66.51-352.7-60.18-769.57l-804.71,98.23c-65,345.19-48.94,529.55-32.59,651.66-1.29-58.82-24.77-179.07,32.84-480.39-43.87,378.27-36.78,497.88,38.78,555.75-50.9-76.85-29.4-301.85-20.28-330.69,5.81,79.94,5.5,233.5,55.08,346.7,25.19,16.76,132.66,45.52,165.57,52.88,94.73,21.19,445-48.14,552.27-80.31,4-9.88,1-235.25,1.77-266.51,6.94,10.26,20.17,254.54,23.31,264.51,50.53-72.67,81.63-317.71,18.65-624.49C2146.55,781.54,2132.48,955,2099.38,1124.47Z" fill="#ad5c49"/><path d="M2228.43,1299.67c12.44,1.65,23.4-101.51,11-103.94-184.68-36.32-413-95.13-459.29-110.54L1761,1219.76C1867.85,1238.69,2064.08,1277.8,2228.43,1299.67Z" fill="#ffc19f"/><path d="M2009.92,1124.83c-9.64,45.39-39.2,133.37-52.16,179.72-97.91-20.84-222-45.51-227.23-50.76-53.87-54.66,65.8-180,89.53-189.6C1866.6,1082.12,1915.19,1101.68,2009.92,1124.83Z" fill="#f44074"/><path d="M1013.32,860.17c-9.19-8.56,63.5-82.58,73.23-74.59,145.41,119.49,336,258.4,377.26,284.33l-91.7,100.34C1289.57,1099.79,1134.66,973.15,1013.32,860.17Z" fill="#ffc19f"/><path d="M1281.71,930.86c-28.91,36.3-78,115-105.59,154.51,78.31,62.33,176.26,142.5,183.61,143.16,76.43,6.84,128.28-154.43,135.79-161.16C1452.1,1042.84,1359.79,989.29,1281.71,930.86Z" fill="#f44074"/><path d="M1348.26,1557.84c141.08,51,347.39,78.26,526.37-17,0,0-25.44-393.74-54.57-476.65-128.58-16.7-363.57-4.09-453.49,16.51C1363.54,1196.83,1360.83,1385.59,1348.26,1557.84Z" fill="#f44074"/><g opacity="0.32"><path d="M1873.64,1526c-168.05,24-353.54,34.42-525,26.4-.13,1.79-.23,3.63-.36,5.41,6.53,2.37,13.34,4.61,20.13,6.86,32.32,1.23,64.92,2.06,97.93,2.06a2950.43,2950.43,0,0,0,408.11-28.93C1874.28,1535.53,1874,1531.77,1873.64,1526Z" fill="#fff"/><path d="M1827.8,1094.29c-.84-3.94-1.67-8.26-2.51-11.74-148.35,19.5-308.14,28.26-459.34,23.45-.09,4-.19,7.8-.29,11.94,27.16.85,54.51,1.4,82.14,1.4A2957.05,2957.05,0,0,0,1827.8,1094.29Z" fill="#fff"/><path d="M1842.13,1183.57c-.52-4-1-8.08-1.54-12-153.42,20.89-319.91,30.3-476.81,25-.09,3.91-.2,7.93-.29,11.89,28.75,1,57.73,1.61,87,1.61A2957.17,2957.17,0,0,0,1842.13,1183.57Z" fill="#fff"/><path d="M1868,1448.52c-.29-3.78-.63-7.92-.94-11.86-164.4,23.19-345,33.36-512.91,26.07-.2,3.85-.39,7.68-.61,11.52,36.38,1.58,73.19,2.6,110.49,2.6A2952.15,2952.15,0,0,0,1868,1448.52Z" fill="#fff"/><path d="M1860.48,1358.44c-.35-3.94-.7-7.89-1.06-11.88-160.85,22.39-336.81,32.25-501.08,25.6-.15,3.85-.34,7.75-.5,11.62,34.13,1.38,68.58,2.3,103.49,2.3A2952.4,2952.4,0,0,0,1860.48,1358.44Z" fill="#fff"/><path d="M1852.28,1272.34q-.62-6-1.22-11.89c-157.17,21.89-328.67,31.71-489.72,26-.12,4-.22,7.78-.35,11.82,30.32,1.07,60.88,1.8,91.79,1.8A2954,2954,0,0,0,1852.28,1272.34Z" fill="#fff"/></g><path d="M1724.18,1069.55c-.11-6.82-.42-7-2.44-13.33-70.1-.49-186.19,18.93-246.59.56-.39,3-5.57,13.72-5.53,16.77.83,52.73,58.49,94.58,128.78,93.47S1725,1122.28,1724.18,1069.55Z" fill="#ffc19f"/><path d="M1691.63,915.26l1.41,154.85c.31,33.29-41.76,60.68-94,61.16s-94.76-26.14-95.06-59.43L1502.59,917Z" fill="#ffc19f"/><path d="M1434.71,1010.39a67.62,67.62,0,0,1-.23-20c68.65-14.15,172.53-29.88,247.56-34.1,1,2.83,2.57,5.38,3.12,8.39,9.47,51.87-38.92,104.16-108.08,116.78S1444.18,1062.27,1434.71,1010.39Z" fill="#6d0f03" opacity="0.16"/><path d="M1215.24,697.7c3.45,79.08,63.93,139.64,118.12,142.11s76.87-57.64,82.33-132.18-34-137.16-88.25-139.45C1253.35,565.07,1212,623.38,1215.24,697.7Z" fill="#f4b18c"/><path d="M2077,558.2c-26.83,292.88-281.77,412.1-512.76,365.72s-359-280.21-279.5-554.71c44.12-152.41,203.8-256.08,424.18-210.28C1943.51,207.68,2097.83,331.15,2077,558.2Z" fill="#ad5c49"/><path d="M1976.7,467.52c11.67,50.8-103.26,458.16-162.22,505.89-62.54,50.63-285.45,58.53-328.43,49.9-46-9.25-187.76-95.69-213.29-170.26-30.19-88.24,24.38-445.8,47.81-486.35,79.18-136.94,208-116.23,375.17-82.66C1852.13,315.44,1946.43,335.72,1976.7,467.52Z" fill="#ffc19f"/><path d="M2022.08,877.05c-37.16,75.36-124.93,109.37-181.54,89.55s-.77-255,108.45-253.9C2040,713.61,2057,806.22,2022.08,877.05Z" fill="#ffc19f"/><path d="M1958.09,860.4c-11.44,32.72-55,53.4-81.57,38.28-10.35-5.89,32.36-119.41,50.07-115.79C1956.54,789,1969.55,827.7,1958.09,860.4Z" fill="#e0956c"/><path d="M1824.1,882.22c-2.72,16.88-28.4,26.78-57.36,22.1s-50.21-22.16-47.48-39.05,28.42-26.78,57.36-22.11S1826.83,865.33,1824.1,882.22Z" fill="#ff9797"/><path d="M1377.53,789.08c-3.9,14.7-24.93,21.88-47,16s-36.75-22.5-32.85-37.2,24.94-21.89,47-16S1381.42,774.37,1377.53,789.08Z" fill="#ff9797"/><path d="M1668.71,858.11c-1.44,53.62-98,104.18-169.53,82.76-71.13-21.31-105.18-93.86-91.8-145.55,11.73-27.23,56.9-7.82,128.3,7.91S1669.59,825.5,1668.71,858.11Z" fill="#701608"/><path d="M1518.32,895.88c-33.47-7.6-61-5.46-81.09,6.14,15.9,16.94,38.64,34.59,66.57,41,23.71,5.44,58.64,4.75,85.77-6.66C1580.53,919.53,1548.26,902.68,1518.32,895.88Z" fill="#dd6b5b"/><path d="M1638.06,827.35c-23-12.94-62.49-16.64-98-24.47-40.11-8.84-68.38-20.41-94.66-20.54,4.71,23.55,35.16,44.89,81.2,55.6C1579.73,850.3,1625.72,848.68,1638.06,827.35Z" fill="#fff"/><path d="M1567.07,774.59a3.9,3.9,0,0,1-3.14-4c.47-13.78-8.34-24.51-22.45-27.35s-26.72,3.78-31.22,16.48a3.91,3.91,0,0,1-7.38-2.61c5.76-16.27,22.28-25.13,40.15-21.54s29.31,17.75,28.72,35.28a3.91,3.91,0,0,1-4,3.78Z" fill="#c4735b"/><path d="M1860.73,572a12,12,0,0,1-7-4.51c-22.31-29.83-73.42-48.47-119-43.29a11.89,11.89,0,0,1-13.19-9.73,10.93,10.93,0,0,1,9.9-12.35c54.38-6.15,113.79,16,141.19,52.78a10.69,10.69,0,0,1-2.61,15.45A12,12,0,0,1,1860.73,572Z" fill="#752912"/><path d="M1339,478.08a10.67,10.67,0,0,1-6-19c33.51-26.73,91.26-31.45,137.32-11.31a10.68,10.68,0,1,1-8.57,19.57c-38.6-16.94-88.23-13.33-115.43,8.42A10.63,10.63,0,0,1,1339,478.08Z" fill="#752912"/><path d="M1456,729.45s-105.61,17.14-130.1-51.55c-29.84-83.7,52-128.35,94.7-107.69C1460.07,589.32,1489,639.93,1456,729.45Z" fill="#f9feff"/><path d="M1338.4,581.37c23.79-23.35,49.95-26.9,75.73-18.39,26.36,8.71,49,37,51.8,62-9-29.37-32-44.14-46.81-51.28-23.51-11.42-58.85-4.81-79.08,18.83-18,21-24.32,56.79-13.36,87.51C1310.87,657.5,1313.61,605.71,1338.4,581.37Z" fill="#773220"/><path d="M1432.55,635.22c3.38,28.59-14,56.68-38.78,62.74s-47.64-12.2-51-40.79,14-56.68,38.77-62.74S1429.16,606.64,1432.55,635.22Z" fill="#63190d"/><path d="M1430.72,626.21c.94,7.93-3.87,15.72-10.75,17.41s-13.22-3.39-14.16-11.32,3.88-15.73,10.76-17.41S1429.78,618.27,1430.72,626.21Z" fill="#fefffe"/><path d="M1630.77,766.07s108.45,61.07,165.31,9.06c69.29-63.36-1.07-139.25-56.95-138.81C1687.43,636.73,1633.59,670.35,1630.77,766.07Z" fill="#f9feff"/><path d="M1824.45,681.85c-15.92-31.5-43.09-46-75.11-49.34-32.73-3.42-69.91,12.62-83.94,34.19,22.71-22.87,54.44-26.4,73.77-26.55,30.79-.27,66.71,21,78.59,51.18,10.56,26.9,1.91,62.18-23.52,85.43C1821.44,763,1841,714.68,1824.45,681.85Z" fill="#773220"/><path d="M1771.44,706.75a53.28,53.28,0,1,1-61.75-43.19A53.29,53.29,0,0,1,1771.44,706.75Z" fill="#63190d"/><path d="M1768.93,697.58a14.78,14.78,0,1,1-17.13-12A14.78,14.78,0,0,1,1768.93,697.58Z" fill="#fefffe"/><path d="M2021.65,550.16c29.1-1.47,13.63-212.69-113.31-298.67-211-123-375.53-110-440.44-84.9-119.62,46.17-178.86,105.1-224,249.38-26.89,86-24.24,116.26-72.92,128.76,46.45,22.28,49.63,12.86,67.88-8.4-7.21,72.35-20.49,103.12-59.69,120.75,57.52,26,88.24-11.05,101.37-67.5,15.65-67.25,25.85-198,39.46-220.55,7.87-13.07,93.76-78.42,114.9-75.58,46.08,6.17,69.86,175.32,232.61,199.33-59.64-46.36-87.07-102.62-111.27-180.38a256.08,256.08,0,0,1,33.47,34.54c113.54,141,231.48,191,347.6,199.86-38.59,118.66-80.87,270.37,47.4,297.16-10.42-18.55-29.94-106.09,15.25-163.75C2013.91,692.42,2011.2,630.76,2021.65,550.16Z" fill="#ad5c49"/><path d="M2034.42,596.2c9.73-202.27-76.84-348.45-285.5-432.77-171.27-69.21-301.15-11.07-357.09,42.92,81-54.9,183.67-84.33,356.11-10.32C1905.9,263.82,2017,382.19,2034.42,596.2Z" fill="#f49000"/><path d="M1699.72,187.63c-80.08,23.42-157.67,25.84-176.55,18.1-23-9.43-15.69-90.47,38.51-117.1,40.24-19.76,124.25,10.51,151,55.28C1726.48,166.92,1724.56,180.37,1699.72,187.63Z" fill="#ffa10b"/><path d="M1730.33,204.71c61,73.56,90.59,128.4,113.57,134,28,6.79,127.36-92.39,107-133.1-21.45-42.93-159.27-64.93-204.57-48.2C1718,167.86,1711.41,181.88,1730.33,204.71Z" fill="#ffa10b"/><g opacity="0.35"><path d="M1701.07,163c-12.37-12.34-42.51-43.64-51.35-16.15C1640.23,176.32,1686.34,167.15,1701.07,163Z" fill="#c12400"/></g><g opacity="0.35"><path d="M1744.37,177.41c21.2.26,73.81-.08,61.32,28.54C1792.29,236.65,1755.24,192.49,1744.37,177.41Z" fill="#c12400"/></g><path d="M1690.84,163.82c-4.94,15.51,4.33,32.32,20.7,37.53s33.66-3.12,38.6-18.63-4.33-32.32-20.7-37.54S1695.79,148.32,1690.84,163.82Z" fill="#ffa10b"/><path d="M904.88,673c22.28,22.23,59.22,51.77,120.62,117,7,7.45-11.1,48.15-17.07,39.64C973.77,780.17,879.23,709.61,904.88,673Z" fill="#e0956c"/><path d="M920.46,628.71c22.28,22.23,86.28,64.72,126.17,141.2,4.92,9.44-16.66,46.4-22.63,37.89C989.33,758.36,900,659.38,920.46,628.71Z" fill="#e0956c"/><path d="M959.49,589.3c22.27,22.22,124.94,162.2,164.83,238.67,4.92,9.43-57.16,52.13-73,46.1-39.65,6.43-77.17-48-157.18-70.38-13.82-3.88,1.25-20.25,7.35-23,15.7-7,21.35-3.15,63.6-7,25.75-2.31,33.12-30.61,30-47.59C970.31,656.08,940.8,613,959.49,589.3Z" fill="#ffc19f"/><g opacity="0.4"><path d="M1297.32,1520.89c63.17,20.07,168.6,42.34,327.92,27.17q26.44-2.52,54.85-6.46c183.75-25.75,280.87-79.66,344.35-128.54-4.64-9.45-9.23-19.16-13.67-29.28-60.46,47.56-153.67,101.15-335.08,126.57-191.1,27.21-311.46-.09-377.33-22.16C1298.06,1499.29,1297.58,1509.54,1297.32,1520.89Z" fill="#fff"/><path d="M1634,1642.44c17.9-1.7,36.51-3.85,55.74-6.6,210.92-29.53,310.93-95.71,375-149.85-10.42-17.16-21.08-35.81-31.62-56-57.84,50.37-148,114.89-352.1,143.5-202.73,28.12-323.73-4.57-384.11-26.38-.44,21.59-.8,43.85-1.14,66.31C1359.81,1634.17,1469,1658.15,1634,1642.44Z" fill="#fff"/></g><path d="M1032,1642.81c-72.18-86.33-31.49-164.17-111.39-247.06-20.44-21.2-45.67-194.52-67.46-292.88,181.78-30.41,575.49-15,777.58,222.51.14,2.24-109.07,307.72-118.8,339.81-65.45-23.43-140.26-39.1-220.89-44.36C1198.73,1614.82,1110.3,1623.23,1032,1642.81Z" fill="#fff"/><path d="M1512.68,1666.68l-1.13-.42c-67.8-24.27-142-39.18-220.57-44.3-88.65-5.74-178.17,1.81-258.68,22l-.7.18-.46-.55c-34.94-41.8-43.65-82-52.06-120.84-9.31-42.9-18.08-83.42-59.28-126.15-14.35-14.9-30.84-102.61-46.79-187.42-7.32-38.88-14.23-75.61-21-106l-.25-1.16,1.18-.2c87.1-14.59,233-19.38,381.58,10.77,171.29,34.79,308.54,108.08,397,212.07.07,1-6.68,21.93-44.13,127.87C1556.73,1539.31,1512.68,1666.68,1512.68,1666.68ZM1233,1617.81q29,0,58.09,1.89c78.33,5.1,152.36,19.91,220.07,44,6.63-21.2,116.49-332,118.29-338-192.11-225.26-568.06-256.18-775-221.91,6.66,30.2,13.49,66.5,20.71,104.91,15.89,84.49,32.32,171.85,46.2,186.26,41.64,43.19,50.89,85.92,59.86,127.26,8.32,38.41,16.92,78.14,51.14,119.3C1095.41,1625.85,1163.82,1617.81,1233,1617.81Z" fill="#dbdbdb"/><path d="M923.53,1471.22c-3.51-5.57-97.39-257.7-111-304.86,177.75-65.08,586-53.86,818.25,159,.14,2.24-109.07,307.72-118.8,339.81C1446.49,1641.76,1013.83,1509.91,923.53,1471.22Z" fill="#fff"/><path d="M1512.68,1666.68s-87.22-28.6-168-54.19c-152.8-48.41-362.06-114.71-421.61-140.23-3.09-4.9-97.16-255.38-111.68-305.59l-.3-1,1-.37c96.26-35.26,245.39-44.73,389.23-24.78,123.33,17.12,298.12,63,430.22,184.09.07,1-6.68,21.93-44.13,127.87C1556.73,1539.31,1512.68,1666.68,1512.68,1666.68ZM924.34,1470.33c59.94,25.59,268.61,91.7,421.06,140,79.47,25.19,142.51,45.15,165.8,53.41,6.63-21.18,116.32-331.51,118.29-338-131.62-120.35-305.61-165.9-428.45-183-143-19.83-291.17-10.5-387.16,24.3C829.13,1218.82,919.2,1459.79,924.34,1470.33Z" fill="#dbdbdb"/><path d="M792.75,1248c6.66-5.06,8.4-6.15,16.38-11.47,297.06-53.78,553.54-2.45,717.3,88.39,5.6,34.79,24.87,396.57,13.11,441.56C1304.28,1714.78,1004.73,1215.23,792.75,1248Z" fill="#9dddf4"/><path d="M960.41,1735.82C916.17,1597,838.56,1398.22,792.75,1248c300.84-65.56,566.9-1.2,730.66,87,5.61,33.79,35.93,388.32,24.18,432C1312.32,1716.82,1172.39,1704,960.41,1735.82Z" fill="#4c9ecc"/><path d="M2291.25,1645c22.73-62.61,26.72-499.43,48.51-597.78-162.88-28.24-628.16,44.11-709,280.75-.15,2.24,127,305.16,136.73,337.25C1832.91,1641.76,2213,1625.38,2291.25,1645Z" fill="#fff"/><path d="M1766.72,1666.68l-.34-1.15c-6.27-20.67-62.52-156.77-99.75-246.85-31.89-77.17-37.08-89.9-37-90.81,19-55.48,60.2-105.65,122.47-148.54,53.75-37,121.75-68,202.08-92.19,149.52-45,307.23-54.68,385.81-41.07l1.16.21-.25,1.16c-10.47,47.22-16.92,174.42-23.15,297.44-7,137.74-13.56,267.83-25.42,300.48l-.34,1-1-.25c-74.48-18.64-455.82-3.9-523.12,20.19Zm-134.8-338.52c.8,2.53,17.49,42.9,36.81,89.65,38.82,93.91,91.73,221.94,99.47,245.93,35.94-12.19,154.15-21.79,256.29-25.93,95.69-3.88,222.23-4.64,266,5.81,11.53-34,18.35-168.61,24.95-298.86,6.18-122.11,12.57-248.34,22.93-296.64-78.63-13.28-235.13-3.42-383.59,41.2C1781.49,1141.44,1666.85,1226.3,1631.92,1328.16Z" fill="#dbdbdb"/><path d="M2291.25,1645c22.73-62.61,95.58-446.43,117.37-544.78-181.79-30.42-602.94-5.33-777.88,227.75-.15,2.24,127,305.16,136.73,337.25C1832.91,1641.76,2213,1625.38,2291.25,1645Z" fill="#fff"/><path d="M1766.72,1666.68l-.34-1.15c-6.27-20.67-62.52-156.77-99.75-246.85-31.89-77.17-37.08-89.9-37-90.81,96.9-129.12,264.19-187.77,387.27-213.73,157.39-33.22,309.53-28.86,391.94-15.08l1.18.2s-18.48,88.57-31.83,154.83c-29.58,146.79-70.06,347.8-85.86,391.27l-.34,1-1-.25c-74.48-18.64-455.82-3.9-523.12,20.19Zm-134.8-338.52c1.28,3.68,17.8,43.64,36.81,89.65,38.82,93.91,91.73,221.94,99.47,245.93,35.94-12.19,154.15-21.79,256.29-25.93,95.71-3.86,222.23-4.63,266,5.81,16-45.24,56.08-244.32,85.42-390,13.19-65.44,24.59-122.05,31.33-152.55C2237.82,1073.16,1809.94,1091.6,1631.92,1328.16Z" fill="#dbdbdb"/><path d="M2412.75,1461.19c3.52-5.57,33.21-251.65,40.74-296.85-167.29-54.29-598.35-35.88-826.17,166.6-.14,2.23,130.42,302.16,140.15,334.25C1832.91,1641.76,2322.46,1499.88,2412.75,1461.19Z" fill="#fff"/><path d="M1766.72,1666.68l-.34-1.15c-6.37-21-65.17-158.3-104.09-249.15-31.44-73.42-36.16-84.62-36.1-85.52,100.56-89.37,255.92-154,436.75-180.63,146.61-21.58,300-16.47,390.9,13l.92.3s-10.8,77.65-18.62,138c-12.64,97.61-20.46,157.1-22.42,160.23-57.78,24.77-283.67,93.46-448.23,143.31-93.4,28.29-174.06,52.72-197.64,61.15Zm-138.15-335.34c1.55,4.11,16.75,39.63,35.82,84.14,38.28,89.41,95.83,223.77,103.81,248.26,24.85-8.77,100.82-31.79,196.63-60.81,164.12-49.71,388.73-117.75,447.07-142.6,2.24-6.56,12.71-87.5,22-159.06,7.69-59.42,15-115.59,18.32-136.15-90.65-29.12-243.15-34.12-388.94-12.64C1883.16,1179,1728.83,1242.49,1628.57,1331.34Z" fill="#dbdbdb"/><path d="M1755.79,1335.2c0,6.89-49.1,20.68-114.91,20.68s-119.16-14.09-117.47-20.87c1.21-4.8,52.64-16.52,118.45-16.52S1755.79,1331.33,1755.79,1335.2Z" fill="#717c7b"/><path d="M1524.94,1379.6c0-21.59-1.56-41.93-1.47-56.34,87,16.08,153,17.33,232.58,1.64,1,9.51-6.46,50.75-5.11,62.1C1693.87,1405.26,1571.66,1411.05,1524.94,1379.6Z" fill="#9dddf4"/><path d="M1547.59,1767c-4.43-117.81-19.41-288.84-24.18-432,86.19,12.15,152.76,15.43,232.38.19,5.35,30.77,20.23,388.14,26.64,433C1725.36,1786,1594.32,1797.56,1547.59,1767Z" fill="#3e8db5"/><path d="M2490.6,1232a89.61,89.61,0,0,0-4.81-10.82c-238.19-38-566,12.92-729.74,103.76-4.87,32.19,9.69,66,14.82,112.06C2053.48,1394.4,2410.82,1229.75,2490.6,1232Z" fill="#9dddf4"/><path d="M2360.6,1757.92c38.92-153.67,92.89-375.19,130-526-238.2-36.89-571,15-734.81,103.24,1.39,30.88-21.36,397.94-16.23,442.68C2022.17,1736.55,2282.32,1738.34,2360.6,1757.92Z" fill="#4c9ecc"/><path d="M2473.24,1378.32c-21.66-18.77-50.1-27.15-63.53-18.73s-6.74,30.46,14.92,49.22,50.11,27.15,63.52,18.73S2494.9,1397.08,2473.24,1378.32Z" fill="#ffc19f"/><path d="M2443.58,1420.88c-28.48-11.23-58.65-10.85-67.38.86s7.3,30.32,35.79,41.56,58.66,10.85,67.38-.86S2472.07,1432.12,2443.58,1420.88Z" fill="#ffc19f"/><path d="M2433.58,1461.65c-26.58-8.78-53.91-6.53-61,5s8.64,28,35.22,36.77,53.91,6.53,61-5S2460.16,1470.41,2433.58,1461.65Z" fill="#ffc19f"/><path d="M2420.38,1502.44c-22.4-4.33-44,1.67-48.23,13.4s10.5,24.75,32.91,29.08,44-1.67,48.23-13.4S2442.79,1506.77,2420.38,1502.44Z" fill="#ffc19f"/><path d="M2163.51,1407.05a81.63,81.63,0,1,0,74.25-88.39A81.63,81.63,0,0,0,2163.51,1407.05Z" fill="#f9cf4b" fill-rule="evenodd"/><path d="M2242.69,1416.13a1.56,1.56,0,0,0,1.43-1.7,7.08,7.08,0,1,1,14.1-1.22,1.57,1.57,0,0,0,3.13-.27,10.22,10.22,0,1,0-20.36,1.77A1.57,1.57,0,0,0,2242.69,1416.13Z" fill="#9b5e31" fill-rule="evenodd"/><path d="M2206.42,1419.28a1.57,1.57,0,0,0,1.43-1.69,7.07,7.07,0,1,1,14.09-1.23,1.59,1.59,0,0,0,1.71,1.43,1.57,1.57,0,0,0,1.42-1.7,10.21,10.21,0,1,0-20.35,1.77A1.57,1.57,0,0,0,2206.42,1419.28Z" fill="#9b5e31" fill-rule="evenodd"/><path d="M2235.3,1439a10.23,10.23,0,0,0,9.33-10.23,1.57,1.57,0,0,0-1.58-1.57,1.59,1.59,0,0,0-1.56,1.59,7.08,7.08,0,1,1-14.15.07,1.57,1.57,0,0,0-3.14,0,10.21,10.21,0,0,0,10.27,10.16Z" fill="#9b5e31" fill-rule="evenodd"/><polygon points="2246.58 1308.61 2225.79 1310.41 2230.43 1280.65 2246.58 1308.61" fill="#f9cf4b" fill-rule="evenodd"/><polygon points="2279.82 1315.01 2259.67 1309.3 2277.46 1287.8 2279.82 1315.01" fill="#f9cf4b" fill-rule="evenodd"/><polygon points="2304.51 1328.37 2289.49 1318.33 2312.92 1307.96 2304.51 1328.37" fill="#f9cf4b" fill-rule="evenodd"/><polygon points="2323.45 1354.65 2312.05 1337.17 2338.18 1330.97 2323.45 1354.65" fill="#f9cf4b" fill-rule="evenodd"/><polygon points="2333.92 1384.06 2329.76 1368.22 2354.47 1370.83 2333.92 1384.06" fill="#f9cf4b" fill-rule="evenodd"/><polygon points="2333.1 1417.62 2334.57 1396.8 2359.15 1407.63 2333.1 1417.62" fill="#f9cf4b" fill-rule="evenodd"/><polygon points="2262.65 1486.09 2241.86 1487.89 2253.48 1509.03 2262.65 1486.09" fill="#f9cf4b" fill-rule="evenodd"/><polygon points="2294.2 1474.06 2275.42 1483.15 2299.11 1503.26 2294.2 1474.06" fill="#f9cf4b" fill-rule="evenodd"/><polygon points="2317.28 1453.66 2303.25 1469.12 2324.12 1476.05 2317.28 1453.66" fill="#f9cf4b" fill-rule="evenodd"/><polygon points="2330.42 1427.47 2322.22 1446.66 2341.87 1447.84 2330.42 1427.47" fill="#f9cf4b" fill-rule="evenodd"/><polygon points="2194.79 1322.39 2213.66 1313.29 2192.42 1295.19 2194.79 1322.39" fill="#f9cf4b" fill-rule="evenodd"/><polygon points="2171.81 1342.79 2185.84 1327.33 2163.34 1319.86 2171.81 1342.79" fill="#f9cf4b" fill-rule="evenodd"/><polygon points="2158.66 1368.97 2166.87 1349.79 2142.77 1351.21 2158.66 1368.97" fill="#f9cf4b" fill-rule="evenodd"/><polygon points="2153.41 1399.74 2155.16 1378.95 2133.7 1388.45 2153.41 1399.74" fill="#f9cf4b" fill-rule="evenodd"/><polygon points="2160.01 1432.66 2154.97 1412.41 2132.63 1427.32 2160.01 1432.66" fill="#f9cf4b" fill-rule="evenodd"/><polygon points="2208.06 1481.55 2228.13 1487.26 2207.05 1510.9 2208.06 1481.55" fill="#f9cf4b" fill-rule="evenodd"/><polygon points="2181.82 1465.43 2198.3 1478.23 2175.32 1486.24 2181.82 1465.43" fill="#f9cf4b" fill-rule="evenodd"/><polygon points="2164.35 1441.9 2173.04 1455.23 2149.61 1465.59 2164.35 1441.9" fill="#f9cf4b" fill-rule="evenodd"/><path d="M2191.28,1429.75c.16,1.92,3.51,3.19,7.48,2.85s7-2.18,6.88-4.1-3.51-3.19-7.48-2.85S2191.11,1427.83,2191.28,1429.75Z" fill="#fc9595" fill-rule="evenodd"/><path d="M2261.21,1423.68c.17,1.91,3.52,3.19,7.49,2.84s7.05-2.18,6.88-4.09-3.52-3.2-7.48-2.86S2261.05,1421.76,2261.21,1423.68Z" fill="#fc9595" fill-rule="evenodd"/><path d="M2019.88,1485.12c-5.5,0-10.81.28-15.83.76a51.55,51.55,0,0,0,2.78-16.73c0-29-24.08-52.59-53.76-52.59s-53.77,23.55-53.77,52.59a51.59,51.59,0,0,0,.42,6.51,15.05,15.05,0,0,0-1.78-.1,14.4,14.4,0,0,0-12.64,7.36c-3.65-6.27-11.51-9.74-19.59-8-9.9,2.09-16.37,11.13-14.46,20.21a15.65,15.65,0,0,0,1.15,3.4c-26,1.7-44.75,6.32-44.73,11.71,0,6.74,29.36,12.11,65.53,12,1.71,0,3.41,0,5.08,0,8,9.54,27.67,16.25,50.68,16.18a109.76,109.76,0,0,0,20.26-1.91c6.26,6.15,16.48,10.14,28,10.11,19-.06,34.37-11,34.33-24.46,0-.56,0-1.12-.09-1.68,2.77.13,5.62.19,8.51.18,31.08-.09,56.27-8.11,56.23-17.9S2051,1485,2019.88,1485.12Z" fill="#fff" opacity="0.91"/><path d="M2312,1608.58c-.31-3.57-7.71-6-17.44-6a22.35,22.35,0,1,0-42.62-13.46c-1-.1-2-.15-3.07-.15-12.34,0-22.34,6.88-22.34,15.35s10,15.36,22.34,15.36a32.79,32.79,0,0,0,3.32-.17l-.08.87c0,4.22,5.63,7.65,12.58,7.65s12.58-3.43,12.58-7.65a5,5,0,0,0-.68-2.49l.68-.12a55.21,55.21,0,0,0,13.11.34C2302.72,1617.08,2312.4,1612.81,2312,1608.58Z" fill="#fff" opacity="0.91"/><path d="M2094.9,1317.64l-8.67,2.73a4.72,4.72,0,0,0-3.15,3.28l-2.41,8.87-2.73-8.66a4.77,4.77,0,0,0-3.29-3.16l-8.87-2.41,8.67-2.73a4.76,4.76,0,0,0,3.16-3.28l2.4-8.87,2.73,8.66a4.77,4.77,0,0,0,3.29,3.16Z" fill="#fff"/><path d="M1071.32,1339.67l-6.8,2.14a3.72,3.72,0,0,0-2.48,2.58l-1.9,7-2.14-6.8a3.72,3.72,0,0,0-2.58-2.48l-7-1.89,6.8-2.14a3.75,3.75,0,0,0,2.48-2.59l1.89-7,2.15,6.8a3.73,3.73,0,0,0,2.58,2.49Z" fill="#fff"/><path d="M2052.62,1624.68l-14.51,4.57a8,8,0,0,0-5.29,5.51l-4,14.84-4.57-14.5a8,8,0,0,0-5.51-5.29l-14.85-4,14.51-4.57a8,8,0,0,0,5.29-5.51l4-14.85,4.57,14.51a8,8,0,0,0,5.51,5.29Z" fill="#fff"/><path d="M1858.07,1383.8l-6.94,2.18a3.8,3.8,0,0,0-2.53,2.64l-1.93,7.09-2.18-6.93a3.83,3.83,0,0,0-2.64-2.53l-7.1-1.93,6.94-2.19a3.82,3.82,0,0,0,2.53-2.63l1.93-7.1,2.18,6.94a3.8,3.8,0,0,0,2.63,2.53Z" fill="#fff"/><path d="M1371.08,1532.45l-11.27,3.55a6.18,6.18,0,0,0-4.11,4.28l-3.14,11.54-3.55-11.27a6.18,6.18,0,0,0-4.28-4.12l-11.54-3.13,11.28-3.55a6.16,6.16,0,0,0,4.11-4.28l3.13-11.54,3.55,11.28a6.2,6.2,0,0,0,4.28,4.11Z" fill="#fff"/><path d="M999.69,1514.17l-11.27,3.55a6.23,6.23,0,0,0-4.12,4.28l-3.12,11.54-3.56-11.27a6.16,6.16,0,0,0-4.28-4.11L961.81,1515l11.27-3.56a6.18,6.18,0,0,0,4.11-4.28l3.13-11.54,3.55,11.28a6.2,6.2,0,0,0,4.28,4.11Z" fill="#fff"/><path d="M2184.9,1572.35l-17.09,3.72a6.32,6.32,0,0,0-4.2,4.36l-3,19.57-3.77-19.3a6.3,6.3,0,0,0-4.37-4.19l-17.3-3,17-3.77a6.34,6.34,0,0,0,4.2-4.37l3.1-18.4,3.71,18.13a6.35,6.35,0,0,0,4.37,4.2Z" fill="#fff"/><path d="M1431,1343.91l-8,2.51a4.32,4.32,0,0,0-2.9,3l-2.22,8.14-2.51-7.95a4.35,4.35,0,0,0-3-2.91l-8.15-2.21,8-2.51a4.36,4.36,0,0,0,2.9-3l2.21-8.15,2.51,8a4.36,4.36,0,0,0,3,2.9Z" fill="#fff"/><path d="M1508.1,1675.92l-11.75,3.7a6.45,6.45,0,0,0-4.29,4.46l-3.27,12-3.7-11.75a6.45,6.45,0,0,0-4.46-4.29l-12-3.26,11.75-3.71a6.47,6.47,0,0,0,4.29-4.46l3.26-12,3.71,11.75a6.45,6.45,0,0,0,4.46,4.29Z" fill="#fff"/><path d="M1908.09,1705.51l-14.84,4.68a8.1,8.1,0,0,0-5.41,5.63l-4.13,15.18-4.67-14.83a8.17,8.17,0,0,0-5.64-5.42l-15.18-4.12,14.84-4.67a8.16,8.16,0,0,0,5.41-5.64l4.12-15.18,4.68,14.84a8.14,8.14,0,0,0,5.63,5.41Z" fill="#fff"/><path d="M2273.79,1676.08l-7.49,2.36a4.1,4.1,0,0,0-2.73,2.84l-2.08,7.66-2.36-7.49a4.12,4.12,0,0,0-2.84-2.73l-7.66-2.08,7.49-2.36a4.12,4.12,0,0,0,2.73-2.84l2.07-7.66,2.37,7.49a4.13,4.13,0,0,0,2.83,2.73Z" fill="#fff"/><path d="M580.61,341.33c9.72,134.37-91.33,251.19-225.7,260.91S103.72,510.91,94,376.53s91.34-251.18,225.71-260.9S570.89,207,580.61,341.33Z" fill="#f9cf4b" fill-rule="evenodd"/><path d="M351.26,405.57a4.69,4.69,0,0,1-5-4.33,21.13,21.13,0,1,0-42.16,3,4.7,4.7,0,0,1-9.37.68,30.53,30.53,0,1,1,60.9-4.4A4.69,4.69,0,0,1,351.26,405.57Z" fill="#9b5e31" fill-rule="evenodd"/><path d="M459.78,397.72a4.7,4.7,0,0,1-5-4.34,21.14,21.14,0,1,0-42.16,3.05,4.7,4.7,0,0,1-9.37.68,30.53,30.53,0,1,1,60.91-4.4A4.7,4.7,0,0,1,459.78,397.72Z" fill="#9b5e31" fill-rule="evenodd"/><path d="M383.84,469.42a30.58,30.58,0,0,1-32.34-25.8,4.67,4.67,0,0,1,3.92-5.36,4.75,4.75,0,0,1,5.35,3.94,21.14,21.14,0,0,0,41.78-6.46,4.7,4.7,0,0,1,9.28-1.44,30.32,30.32,0,0,1-5.54,22.7,30,30,0,0,1-20,12.14C385.49,469.26,384.66,469.36,383.84,469.42Z" fill="#9b5e31" fill-rule="evenodd"/><polygon points="288.95 90.13 351.15 85.63 323.39 0 288.95 90.13" fill="#f9cf4b" fill-rule="evenodd"/><polygon points="193.88 124.73 250.66 98.36 187.99 43.33 193.88 124.73" fill="#f9cf4b" fill-rule="evenodd"/><polygon points="127.36 175.85 166.92 139.1 92.89 119.6 127.36 175.85" fill="#f9cf4b" fill-rule="evenodd"/><polygon points="83.91 262.35 109.27 205.38 29.23 199.44 83.91 262.35" fill="#f9cf4b" fill-rule="evenodd"/><polygon points="66.9 354.07 71.69 305.36 0 324.75 66.9 354.07" fill="#f9cf4b" fill-rule="evenodd"/><polygon points="85.18 452.7 71.02 391.98 3.6 435.55 85.18 452.7" fill="#f9cf4b" fill-rule="evenodd"/><polygon points="325.45 621.43 387.65 616.93 363.35 684.78 325.45 621.43" fill="#f9cf4b" fill-rule="evenodd"/><polygon points="226.32 600.85 286.37 618.8 226.32 689.33 226.32 600.85" fill="#f9cf4b" fill-rule="evenodd"/><polygon points="148.94 551.58 197.63 590.54 139.33 620.88 148.94 551.58" fill="#f9cf4b" fill-rule="evenodd"/><polygon points="97.75 480.52 131.05 533.25 73.61 546.02 97.75 480.52" fill="#f9cf4b" fill-rule="evenodd"/><polygon points="448.28 106.33 388.29 88.4 442.39 24.92 448.28 106.33" fill="#f9cf4b" fill-rule="evenodd"/><polygon points="525.72 155.63 477.03 116.66 539.88 83.97 525.72 155.63" fill="#f9cf4b" fill-rule="evenodd"/><polygon points="576.9 226.69 543.61 173.95 615.41 166.76 576.9 226.69" fill="#f9cf4b" fill-rule="evenodd"/><polygon points="606.95 314.99 591.95 254.45 659.76 272.34 606.95 314.99" fill="#f9cf4b" fill-rule="evenodd"/><polygon points="603.03 415.24 608.33 353.1 681.31 386.52 603.03 415.24" fill="#f9cf4b" fill-rule="evenodd"/><polygon points="484.39 582.21 427.87 608.57 501.25 668.36 484.39 582.21" fill="#f9cf4b" fill-rule="evenodd"/><polygon points="554.2 522.26 511.6 567.82 583.21 580.59 554.2 522.26" fill="#f9cf4b" fill-rule="evenodd"/><polygon points="594.61 444.57 575.28 488.01 649.3 507.5 594.61 444.57" fill="#f9cf4b" fill-rule="evenodd"/><path d="M509.4,421.45c.42,5.73-8.86,11.08-20.73,11.95s-21.83-3.1-22.24-8.84,8.86-11.09,20.73-11.95S509,415.71,509.4,421.45Z" fill="#fc9595" fill-rule="evenodd"/><path d="M300.17,436.58c.42,5.74-8.86,11.09-20.73,12s-21.84-3.1-22.26-8.84,8.88-11.09,20.75-11.95S299.75,430.85,300.17,436.58Z" fill="#fc9595" fill-rule="evenodd"/></svg>